<!-- Generated by IcoMoon.io -->
<svg version="1.1" xmlns="http://www.w3.org/2000/svg" width="64" height="64" viewBox="0 0 64 64">
<title>3d-rotate</title>
<path d="M29.552 20.768v-5.196l-12.149 7.014c-0.977 0.574-1.623 1.619-1.625 2.814v13.81l13.774-7.785z"></path>
<path d="M33.552 15.632v15.797l13.669 7.726v-13.755c-0.002-1.196-0.648-2.241-1.61-2.806l-0.015-0.008z"></path>
<path d="M31.5 50.25c0.001 0 0.002 0 0.003 0 0.597 0 1.157-0.161 1.638-0.442l-0.015 0.008 12.282-7.091-13.859-7.834-13.907 7.861 12.235 7.064c0.466 0.273 1.025 0.434 1.622 0.434 0.001 0 0.002 0 0.003 0h-0z"></path>
<path d="M31.998 57.554v-5.554l-13.96 10h13.877v0.055c16.726 0 30.333-13.533 30.333-30.168h-4.5c0 14.125-11.543 25.622-25.749 25.666z"></path>
<path d="M32 6.59v5.41l14-10h-14v0.090c-16.482 0.051-29.823 13.424-29.823 29.913 0 0 0 0.001 0 0.001v-0h4.5c0-13.983 11.352-25.364 25.323-25.414z"></path>
</svg>
