<!-- Generated by IcoMoon.io -->
<svg version="1.1" xmlns="http://www.w3.org/2000/svg" width="64" height="64" viewBox="0 0 64 64">
<title>3d</title>
<path d="M10.873 42.442l18.92-10.694v-28.089l-21.295 12.294c-1.278 0.75-2.122 2.116-2.125 3.68v24.733c0 0.21 0.016 0.416 0.046 0.618l-0.003-0.023z"></path>
<path d="M57.666 44.967c0.028-0.18 0.044-0.389 0.044-0.601v-24.733c-0.003-1.564-0.847-2.93-2.105-3.67l-0.020-0.011-21.293-12.293v28.096l18.918 10.693z"></path>
<path d="M9.291 48.505l20.625 11.908c0.61 0.357 1.343 0.568 2.125 0.568s1.515-0.211 2.145-0.579l-0.020 0.011 20.619-11.904-22.751-12.859-18.196 10.285z"></path>
</svg>
