<!-- Generated by IcoMoon.io -->
<svg version="1.1" xmlns="http://www.w3.org/2000/svg" width="64" height="64" viewBox="0 0 64 64">
<title>accessible</title>
<path d="M58 8.761c0 2.629-2.132 4.761-4.761 4.761s-4.761-2.132-4.761-4.761c0-2.629 2.132-4.761 4.761-4.761s4.761 2.132 4.761 4.761z"></path>
<path d="M25.124 56.947c-0.002 0-0.005 0-0.008 0-7.745 0-14.024-6.279-14.024-14.024 0-3.102 1.007-5.969 2.713-8.292l-0.027 0.039-4.277-4.277c-2.746 3.388-4.409 7.751-4.409 12.503 0 0.007 0 0.013 0 0.020v-0.001c0 11.046 8.986 20.032 20.032 20.032 0.006 0 0.012 0 0.019 0 4.752 0 9.115-1.663 12.54-4.438l-0.037 0.029-4.277-4.277c-2.276 1.678-5.135 2.685-8.23 2.685-0.005 0-0.010 0-0.015 0h0.001z"></path>
<path d="M51.445 27.909h-10.283l10.373-10.373-14.325-14.714c-0.638-0.649-1.525-1.052-2.507-1.052-0.934 0-1.784 0.365-2.413 0.96l0.002-0.002-9.359 8.9 4.135 4.348 7.569-7.198 5.684 5.831-9.194 9.194c-1.792-0.583-3.854-0.919-5.995-0.919-4.72 0-9.058 1.634-12.48 4.367l0.040-0.031 4.281 4.281c2.265-1.636 5.097-2.617 8.159-2.617 7.746 0 14.025 6.279 14.025 14.025 0 3.062-0.981 5.894-2.646 8.2l0.028-0.041 4.281 4.281c2.702-3.38 4.337-7.716 4.337-12.434 0-3.284-0.792-6.383-2.195-9.117l0.052 0.112h5.931v16.546h6v-19.046c-0.002-1.932-1.568-3.498-3.5-3.5h-0z"></path>
</svg>
