<!-- Generated by IcoMoon.io -->
<svg version="1.1" xmlns="http://www.w3.org/2000/svg" width="64" height="64" viewBox="0 0 64 64">
<title>address-card</title>
<path d="M61 8h-58c-0.552 0-1 0.448-1 1v0 46.692c0 0.552 0.448 1 1 1v0h58c0.552 0 1-0.448 1-1v0-46.692c0-0.552-0.448-1-1-1v0zM31 46.346h-21.75v-4.484c0 0 0 0 0 0 0-1.449 0.743-2.723 1.869-3.464l0.016-0.010 4.793-3.115-2.017-5.499v-6.214c0-3.432 2.782-6.214 6.214-6.214 0 0 0 0 0 0v0c3.432 0 6.214 2.782 6.214 6.214v0 6.214l-2.207 5.375 4.983 3.239c1.142 0.75 1.885 2.025 1.885 3.474 0 0 0 0 0 0v0zM55 35h-19v-6h19zM55 24h-19v-6h19z"></path>
</svg>
