<!-- Generated by IcoMoon.io -->
<svg version="1.1" xmlns="http://www.w3.org/2000/svg" width="64" height="64" viewBox="0 0 64 64">
<title>airplane-mode-off</title>
<path d="M39.571 29.45l9.203 9.203 11.226 1.347 1-6-23-10.615v-11.385c0 0 0 0 0 0 0-3.443-1.557-6.523-4.005-8.574l-0.017-0.014c-0.532-0.445-1.223-0.716-1.977-0.716s-1.446 0.271-1.982 0.72l0.005-0.004c-2.466 2.065-4.023 5.145-4.023 8.588 0 0 0 0 0 0v0 3.879l13.571 13.571z"></path>
<path d="M62 58.253l-56.253-56.253h-3.747v3.678l19.694 19.694-18.694 8.628 1 6 22-2.64v0.64l1.221 14.048-9.221 3.952v5h28v-5l-9.221-3.952 0.927-10.664 20.616 20.617h3.678v-3.747z"></path>
</svg>
