<!-- Generated by IcoMoon.io -->
<svg version="1.1" xmlns="http://www.w3.org/2000/svg" width="64" height="64" viewBox="0 0 64 64">
<title>alarm-off</title>
<path d="M53.851 50.094l-48.104-48.094h-3.747v3.678l4.726 4.726-4.456 3.145 3.46 4.902 5.301-3.742 2.747 2.747c-4.802 4.708-7.778 11.263-7.778 18.513 0 0.011 0 0.022 0 0.033v-0.002c0 14.359 11.641 26 26 26 0.009 0 0.020 0 0.031 0 7.25 0 13.804-2.977 18.508-7.774l0.004-0.004 7.778 7.778h3.678v-3.757z"></path>
<path d="M39.571 29.45v0l16.468 16.469c1.24-2.923 1.961-6.322 1.961-9.889 0-0.010 0-0.020 0-0.031v0.002c0-14.359-11.641-26-26-26-0.009 0-0.019 0-0.029 0-3.567 0-6.966 0.721-10.059 2.024l0.17-0.064z"></path>
<path d="M22.73 6.451l-3.46-4.902-4.455 3.145 4.305 4.305 3.61-2.548z"></path>
<path d="M41.27 6.451l3.46-4.902 17 12-3.46 4.902-17-12z"></path>
</svg>
