<!-- Generated by IcoMoon.io -->
<svg version="1.1" xmlns="http://www.w3.org/2000/svg" width="64" height="64" viewBox="0 0 64 64">
<title>album</title>
<path d="M32 2c-16.569 0-30 13.431-30 30s13.431 30 30 30 30-13.431 30-30-13.431-30-30-30zM17.798 21.351l-3.598-2.703c2.041-2.692 4.611-4.873 7.567-6.415l0.124-0.059c2.919-1.528 6.377-2.425 10.044-2.425 0.023 0 0.046 0 0.069 0h-0.004v4.5c-0.020-0-0.044-0-0.068-0-5.768 0-10.888 2.772-14.102 7.056l-0.033 0.046zM32 43c-6.075 0-11-4.925-11-11s4.925-11 11-11c6.075 0 11 4.925 11 11v0c0 6.075-4.925 11-11 11v0z"></path>
<path d="M29 29h6v6h-6v-6z"></path>
</svg>
