<!-- Generated by IcoMoon.io -->
<svg version="1.1" xmlns="http://www.w3.org/2000/svg" width="64" height="64" viewBox="0 0 64 64">
<title>american-football</title>
<path d="M6.162 58.081c6.298 3.407 13.963 4.169 21.649 2.443l-24.090-24.090c-1.731 7.681-0.971 15.351 2.441 21.648z"></path>
<path d="M58.375 5.875c-6.181-3.346-13.681-4.147-21.218-2.541l23.888 23.093c1.422-7.313 0.572-14.551-2.67-20.551z"></path>
<path d="M15.625 15.339c-4.625 4.625-8.036 9.937-10.166 15.411l28.041 28.031c5.475-2.125 10.781-5.535 15.413-10.165 4.916-4.917 8.453-10.595 10.546-16.428l-28.084-27.145c-5.595 2.121-11.023 5.57-15.75 10.295zM36 24.817l3.409-3.409 3.182 3.183-3.409 3.409 3.409 3.409-3.182 3.183-3.409-3.409-2.818 2.817 3.409 3.409-3.182 3.182-3.409-3.409-3.409 3.409-3.183-3.182 3.409-3.409-3.409-3.409 3.183-3.183 3.409 3.409 2.817-2.817-3.409-3.409 3.183-3.183z"></path>
</svg>
