<!-- Generated by IcoMoon.io -->
<svg version="1.1" xmlns="http://www.w3.org/2000/svg" width="64" height="64" viewBox="0 0 64 64">
<title>aperture</title>
<path d="M53.58 18.002h5.235c-1.495-2.81-3.294-5.222-5.401-7.325l-0-0c-4.132-4.153-9.473-7.1-15.451-8.269l-0.189-0.031-9.063 15.625z"></path>
<path d="M45.958 35.952l-14.898 26.196c0.341 0.011 0.682 0.019 1.025 0.019 0.024 0 0.053 0 0.082 0 8.303 0 15.818-3.377 21.245-8.833l0.001-0.001q0.832-0.832 1.59-1.717l-2.42-4.19z"></path>
<path d="M18.258 28.051l15.184-26.177c-0.45-0.020-0.902-0.031-1.356-0.031-0.024-0-0.053-0-0.082-0-8.303 0-15.818 3.377-21.245 8.833l-0.001 0.001q-0.802 0.803-1.537 1.653l2.411 4.195z"></path>
<path d="M8.462 42.027h13.216l-15.060-26.2c-2.945 4.589-4.694 10.189-4.694 16.198 0 3.584 0.622 7.023 1.765 10.214l-0.066-0.211z"></path>
<path d="M55.718 22.002h-13.196l15.078 26.11c2.916-4.573 4.648-10.148 4.648-16.127 0-3.577-0.62-7.009-1.758-10.195l0.066 0.212z"></path>
<path d="M5.367 46.027c1.494 2.801 3.289 5.207 5.391 7.305l0.001 0.001c4.207 4.229 9.667 7.207 15.776 8.331l0.184 0.028 8.909-15.665h-30.26z"></path>
</svg>
