<!-- Generated by IcoMoon.io -->
<svg version="1.1" xmlns="http://www.w3.org/2000/svg" width="64" height="64" viewBox="0 0 64 64">
<title>applications-settings</title>
<path d="M19 12c0 4.418-3.582 8-8 8s-8-3.582-8-8c0-4.418 3.582-8 8-8s8 3.582 8 8z"></path>
<path d="M40 12c0 4.418-3.582 8-8 8s-8-3.582-8-8c0-4.418 3.582-8 8-8s8 3.582 8 8z"></path>
<path d="M61 12c0 4.418-3.582 8-8 8s-8-3.582-8-8c0-4.418 3.582-8 8-8s8 3.582 8 8z"></path>
<path d="M19 32c0 4.418-3.582 8-8 8s-8-3.582-8-8c0-4.418 3.582-8 8-8s8 3.582 8 8z"></path>
<path d="M40 32c0 4.418-3.582 8-8 8s-8-3.582-8-8c0-4.418 3.582-8 8-8s8 3.582 8 8z"></path>
<path d="M61 32c0 4.418-3.582 8-8 8s-8-3.582-8-8c0-4.418 3.582-8 8-8s8 3.582 8 8z"></path>
<path d="M61 52c0 4.418-3.582 8-8 8s-8-3.582-8-8c0-4.418 3.582-8 8-8s8 3.582 8 8z"></path>
<path d="M8 49v0c-2.209 0-4 1.791-4 4v0 0c0 2.209 1.791 4 4 4v0 0c2.209 0 4-1.791 4-4v0 0c0-2.209-1.791-4-4-4v0z"></path>
<path d="M20 49v0c-2.209 0-4 1.791-4 4v0 0c0 2.209 1.791 4 4 4v0 0c2.209 0 4-1.791 4-4v0 0c0-2.209-1.791-4-4-4v0z"></path>
<path d="M32 49v0c-2.209 0-4 1.791-4 4v0 0c0 2.209 1.791 4 4 4v0 0c2.209 0 4-1.791 4-4v0 0c0-2.209-1.791-4-4-4v0z"></path>
</svg>
