<!-- Generated by IcoMoon.io -->
<svg version="1.1" xmlns="http://www.w3.org/2000/svg" width="64" height="64" viewBox="0 0 64 64">
<title>apple</title>
<path d="M40.729 4.081q0.533-0.198 1.073-0.353-0.539 0.155-1.073 0.353z"></path>
<path d="M56.552 27.372c-1.358-3.48-3.538-6.16-6.305-7.75-0.391-0.231-0.858-0.465-1.341-0.669l-0.081-0.030c-0.751 1.275-1.576 2.378-2.505 3.383l0.012-0.013c-0.092 0.1-0.185 0.2-0.28 0.298-1.768 1.839-3.886 3.326-6.25 4.356l-0.125 0.049c-1.044 0.464-2.272 0.865-3.548 1.143l-0.129 0.023v-4.633c0.041-0.011 5-1.529 6.803-4.052 0.153-0.215 0.36-0.385 0.532-0.584q0.312-0.361 0.599-0.739 0.055-0.072 0.108-0.145c0.003-0.004 0.005-0.008 0.008-0.011q0.225-0.305 0.434-0.62 0.201-0.303 0.387-0.614 0.196-0.329 0.375-0.668 0.082-0.154 0.16-0.311c0.134-0.269 0.262-0.541 0.38-0.816q0.142-0.331 0.267-0.669 0.251-0.675 0.438-1.373c0.038-0.143 0.073-0.286 0.107-0.43 0.049-0.207 0.094-0.416 0.134-0.625q0.136-0.71 0.203-1.434 0.017-0.181 0.029-0.362 0.025-0.363 0.032-0.728 0.004-0.182 0.003-0.365-0.002-0.366-0.022-0.732-0.010-0.183-0.024-0.367-0.029-0.367-0.076-0.734c-0.11-0.838-0.269-1.581-0.48-2.302l0.027 0.106q-0.065-0.228-0.138-0.454-0.218-0.68-0.505-1.35l-0.001-0.003q-0.361 0.004-0.723 0.025c-1.188 0.071-2.299 0.27-3.36 0.584l0.105-0.027q-0.539 0.155-1.073 0.353-0.178 0.066-0.355 0.137t-0.353 0.146c-0.563 0.242-1.016 0.468-1.456 0.715l0.076-0.039q-0.166 0.092-0.33 0.188-0.408 0.24-0.796 0.502t-0.756 0.546q-0.294 0.227-0.575 0.467t-0.548 0.492-0.52 0.516q-0.317 0.33-0.611 0.676t-0.567 0.709c-0.095 0.126-0.186 0.254-0.277 0.383q-0.114 0.162-0.223 0.327-0.23 0.347-0.441 0.705t-0.401 0.727q-0.083 0.16-0.161 0.322c-0.089 0.183-0.173 0.368-0.254 0.554q-0.052 0.119-0.102 0.239c-0.166 0.378-0.344 0.868-0.498 1.369l-0.028 0.107q-0.023 0.078-0.046 0.157-0.078 0.273-0.147 0.55-0.019 0.076-0.036 0.151c-0.145 0.58-0.264 1.282-0.333 1.998l-0.005 0.061q-0.050 0.537-0.061 1.078-0.004 0.188-0.003 0.376 0.001 0.183 0.006 0.366c0.004 0.131 0.062 2.263 0.070 2.394 0 0-6.609-2.656-7.606-2.814-3.118-0.495-5.976-0.012-8.496 1.436-2.767 1.59-4.948 4.27-6.305 7.75-1.234 3.163-1.701 6.852-1.314 10.387 1.268 11.585 4.958 19.378 10.67 22.537 1.746 0.987 3.835 1.568 6.059 1.568 0.028 0 0.055-0 0.083-0h-0.004c2.448 0 5.079-0.649 7.872-1.947h1.229c5.299 2.462 10.011 2.59 14.009 0.379 5.713-3.159 9.403-10.952 10.67-22.537 0.387-3.535-0.080-7.223-1.314-10.387z"></path>
</svg>
