<!-- Generated by IcoMoon.io -->
<svg version="1.1" xmlns="http://www.w3.org/2000/svg" width="64" height="64" viewBox="0 0 64 64">
<title>assistive-listening-system</title>
<path d="M54.020 8.48c-3.81-3.826-8.568-6.705-13.893-8.252l-0.229-0.057-1.977 5.691c9.521 2.652 16.787 10.213 18.972 19.715l0.035 0.179 5.871-1.277c-1.413-6.306-4.505-11.745-8.778-15.997l-0.001-0.001z"></path>
<path d="M33.271 10.888c-0.081-0.001-0.175-0.002-0.271-0.002-10.556 0-19.114 8.558-19.114 19.114 0 0 0 0 0 0v-0h6c0-7.243 5.872-13.114 13.114-13.114 0.066 0 0.132 0 0.197 0.001l-0.010-0c7.082 0.098 12.881 5.941 12.927 13.025 0 0.041 0.001 0.090 0.001 0.138 0 3.721-1.564 7.076-4.070 9.444l-0.006 0.006c-0.798 0.765-1.294 1.839-1.296 3.029v7.557c-0.005 4.305-3.494 7.794-7.798 7.799h-1.287v6h1.287c7.617-0.009 13.79-6.181 13.799-13.798v-6.805c3.324-3.446 5.371-8.143 5.371-13.318 0-0.032-0-0.065-0-0.097v0.005c-0.099-10.396-8.46-18.806-18.826-18.985l-0.017-0z"></path>
<path d="M36.543 29.886h6c0-0.010 0-0.021 0-0.033 0-5.249-4.255-9.504-9.504-9.504s-9.504 4.255-9.504 9.504c0 0.012 0 0.023 0 0.035v-0.002h6c-0-0.006-0-0.013-0-0.020 0-1.935 1.569-3.504 3.504-3.504s3.504 1.569 3.504 3.504c0 0.007 0 0.014-0 0.021v-0.001z"></path>
<path d="M27 35h6v6h-6v-6z"></path>
<path d="M11 51h6v6h-6v-6z"></path>
<path d="M12.879 41.121l4.243-4.243 14 14-4.243 4.243-14-14z"></path>
</svg>
