<!-- Generated by IcoMoon.io -->
<svg version="1.1" xmlns="http://www.w3.org/2000/svg" width="64" height="64" viewBox="0 0 64 64">
<title>at</title>
<path d="M62.979 29c-0.147-3.734-1.036-7.226-2.521-10.382l0.069 0.164c-1.682-3.6-3.928-6.659-6.659-9.205l-0.018-0.016c-5.889-5.521-13.649-8.561-21.851-8.561-17.121 0-31 13.879-31 31 0 8.56 3.47 16.31 9.080 21.92v0c5.61 5.61 13.36 9.080 21.92 9.080 8.449 0 16.109-3.38 21.701-8.862l-0.005 0.005-4.199-4.285c-4.484 4.416-10.643 7.143-17.438 7.143-0.020 0-0.041 0-0.061-0h0.003c-13.785 0-25-11.215-25-25s11.215-25 25-25c13.551 0 25 10.533 25 23v4.5c0 3.033-2.692 5.5-6 5.5s-6-2.467-6-5.5v-15.5h-6v2.281c-2.109-1.429-4.709-2.281-7.509-2.281-7.456 0-13.5 6.044-13.5 13.5s6.044 13.5 13.5 13.5c3.974 0 7.546-1.717 10.016-4.449l0.010-0.012c2.25 2.732 5.633 4.461 9.419 4.461 0.022 0 0.044-0 0.066-0h-0.003c6.617 0 12-5.159 12-11.5v-5.5zM31.5 40c-4.142 0-7.5-3.358-7.5-7.5s3.358-7.5 7.5-7.5c4.142 0 7.5 3.358 7.5 7.5v0c-0.005 4.14-3.36 7.495-7.5 7.5h-0z"></path>
</svg>
