<!-- Generated by IcoMoon.io -->
<svg version="1.1" xmlns="http://www.w3.org/2000/svg" width="64" height="64" viewBox="0 0 64 64">
<title>audio-description</title>
<path d="M60 8h-56c-1.105 0-2 0.895-2 2v0 44c0 1.105 0.895 2 2 2v0h56c1.105 0 2-0.895 2-2v0-44c0-1.105-0.895-2-2-2v0zM26.295 43l-1.583-4.75h-8.423l-1.583 4.75h-4.743l7.417-22.25h6.243l7.417 22.25zM53.25 32.72c-0.007 5.704-4.629 10.327-10.333 10.333h-8.167v-22.303h8.167c5.704 0.007 10.327 4.629 10.333 10.333v0.001z"></path>
<path d="M17.788 33.75h5.423l-2.712-8.135-2.712 8.135z"></path>
<path d="M42.917 25.25h-3.667v13.303h3.667c3.22-0.004 5.83-2.613 5.833-5.833v-1.637c-0.004-3.22-2.613-5.829-5.833-5.833h-0z"></path>
</svg>
