<!-- Generated by IcoMoon.io -->
<svg version="1.1" xmlns="http://www.w3.org/2000/svg" width="64" height="64" viewBox="0 0 64 64">
<title>audio</title>
<path d="M15.067 15.067v0l-4.243-4.243c-5.419 5.419-8.771 12.906-8.771 21.176s3.352 15.756 8.771 21.176v0l4.243-4.243c-4.334-4.334-7.014-10.32-7.014-16.933s2.68-12.6 7.014-16.933v0z"></path>
<path d="M53.112 10.762l-4.243 4.243c0.021 0.021 0.042 0.041 0.063 0.062 4.334 4.334 7.014 10.32 7.014 16.933s-2.68 12.6-7.014 16.933v0l4.243 4.243c5.419-5.419 8.771-12.906 8.771-21.175 0-8.301-3.377-15.813-8.833-21.237l-0.001-0.001z"></path>
<path d="M19.628 19.628c-3.166 3.166-5.125 7.541-5.125 12.372s1.958 9.206 5.125 12.372v0l4.246-4.246c-2.083-2.078-3.371-4.952-3.371-8.126s1.288-6.048 3.371-8.126l0-0z"></path>
<path d="M44.309 19.566l-4.246 4.246c2.12 2.084 3.434 4.983 3.434 8.188 0 3.174-1.288 6.047-3.371 8.125l-0 0 4.246 4.246c3.166-3.166 5.125-7.54 5.125-12.372 0-4.863-1.984-9.262-5.187-12.433l-0.001-0.001z"></path>
<path d="M32 26c-0.001 0-0.002 0-0.004 0-3.316 0-6.004 2.688-6.004 6.004s2.688 6.004 6.004 6.004c3.316 0 6.004-2.688 6.004-6.004 0-1.689-0.697-3.215-1.82-4.306l-0.001-0.001c-1.075-1.049-2.546-1.696-4.169-1.696-0.004 0-0.007 0-0.010 0h0.001z"></path>
</svg>
