<!-- Generated by IcoMoon.io -->
<svg version="1.1" xmlns="http://www.w3.org/2000/svg" width="64" height="64" viewBox="0 0 64 64">
<title>av-timer</title>
<path d="M19 33c0 2.209-1.791 4-4 4s-4-1.791-4-4c0-2.209 1.791-4 4-4s4 1.791 4 4z"></path>
<path d="M36 48c0 2.209-1.791 4-4 4s-4-1.791-4-4c0-2.209 1.791-4 4-4s4 1.791 4 4z"></path>
<path d="M53 33c0 2.209-1.791 4-4 4s-4-1.791-4-4c0-2.209 1.791-4 4-4s4 1.791 4 4z"></path>
<path d="M53.213 10.787c-4.727-4.753-11.045-7.918-18.088-8.629l-0.125-0.010v-0.147h-6v14h6v-7.813c11.823 1.481 21 11.595 21 23.813 0 13.234-10.766 24-24 24s-24-10.766-24-24c0-0.006 0-0.014 0-0.022 0-6.267 2.407-11.971 6.347-16.239l-0.015 0.016 14.352 18.108 4.702-3.727-18.31-23.102-2.363 1.986c-6.569 5.54-10.714 13.776-10.714 22.98 0 16.569 13.432 30 30 30s30-13.432 30-30c0-8.284-3.358-15.784-8.787-21.213v0z"></path>
</svg>
