<!-- Generated by IcoMoon.io -->
<svg version="1.1" xmlns="http://www.w3.org/2000/svg" width="64" height="64" viewBox="0 0 64 64">
<title>balance-scale-left</title>
<path d="M11.474 28.375l-9.081 19.17v3.554l0.695 0.754c2.716 2.935 6.588 4.768 10.887 4.772h0.001c0.016 0 0.034 0 0.050-0 4.317-0.020 8.195-1.879 10.894-4.834l0.010-0.011 0.75-0.825v-3.409l-9.081-19.17zM10.238 43.25l3.8-8.022 3.8 8.022z"></path>
<path d="M52.6 13.375h-5.126l-9.081 19.17v3.554l0.695 0.754c2.716 2.935 6.588 4.768 10.887 4.772h0.001c0.016 0 0.034 0 0.050-0 4.317-0.020 8.195-1.879 10.894-4.834l0.010-0.011 0.75-0.825v-3.409zM46.237 28.25l3.8-8.022 3.8 8.022z"></path>
<path d="M34.625 22.819c3.294-1.134 5.62-4.204 5.625-7.819v-0.001c0-0.206-0.010-0.41-0.025-0.613l11.775-5.094v-5.604l-0.042-0.098-13.773 5.958c-1.518-1.72-3.728-2.799-6.19-2.799-4.553 0-8.245 3.691-8.245 8.245 0 0.002 0 0.004 0 0.006v-0c0 0.185 0.008 0.368 0.020 0.551l-11.77 4.799v5.67l13.774-5.616c0.948 1.088 2.163 1.921 3.543 2.398l0.058 0.017v36.806h17.625v-5.25h-12.375zM32 18c-1.657 0-3-1.343-3-3s1.343-3 3-3c1.657 0 3 1.343 3 3v0c0 1.657-1.343 3-3 3v0z"></path>
</svg>
