<!-- Generated by IcoMoon.io -->
<svg version="1.1" xmlns="http://www.w3.org/2000/svg" width="64" height="64" viewBox="0 0 64 64">
<title>balance-scale-right</title>
<path d="M25.001 37.778l0.749-0.825v-3.409l-9.081-19.17h-5.126l-9.081 19.17v3.554l0.695 0.754c2.716 2.935 6.588 4.768 10.887 4.772h0.001c0.016 0 0.034 0 0.050-0 4.317-0.020 8.196-1.88 10.895-4.835l0.010-0.011zM10.306 29.25l3.8-8.022 3.8 8.022z"></path>
<path d="M52.544 28.125h-5.126l-9.081 19.17v3.554l0.695 0.754c2.716 2.935 6.588 4.768 10.887 4.772h0.001c0.016 0 0.034 0 0.050-0 4.317-0.020 8.196-1.88 10.895-4.835l0.010-0.011 0.749-0.825v-3.409zM46.181 43l3.8-8.022 3.8 8.022z"></path>
<path d="M51.944 20.1l-11.77-4.799c0.012-0.182 0.020-0.365 0.020-0.551 0-0.002 0-0.003 0-0.005 0-4.553-3.691-8.245-8.245-8.245-2.462 0-4.672 1.079-6.183 2.79l-0.008 0.009-13.773-5.958-0.042 0.098v5.604l11.775 5.094c-0.015 0.203-0.025 0.407-0.025 0.613 0.005 3.615 2.331 6.685 5.567 7.802l0.058 0.017v31.556h-12.375v5.25h17.625v-36.806c1.438-0.495 2.653-1.328 3.593-2.406l0.008-0.010 13.774 5.616zM31.944 17.75c-1.657 0-3-1.343-3-3s1.343-3 3-3c1.657 0 3 1.343 3 3v0c0 1.657-1.343 3-3 3v0z"></path>
</svg>
