<!-- Generated by IcoMoon.io -->
<svg version="1.1" xmlns="http://www.w3.org/2000/svg" width="64" height="64" viewBox="0 0 64 64">
<title>balance-scale</title>
<path d="M34.625 22.819c2.452-0.847 4.348-2.742 5.177-5.136l0.018-0.058h12.181v-5.25h-12.181c-1.13-3.297-4.203-5.625-7.819-5.625s-6.689 2.328-7.802 5.567l-0.017 0.058h-12.181v5.25h12.181c0.847 2.452 2.742 4.348 5.136 5.177l0.058 0.018v31.556h-13.375v5.25h32v-5.25h-13.375zM32 18c-1.657 0-3-1.343-3-3s1.343-3 3-3c1.657 0 3 1.343 3 3v0c0 1.657-1.343 3-3 3v0z"></path>
<path d="M24.894 44.779l0.75-0.825v-3.409l-9.081-19.17h-5.126l-9.081 19.17v3.554l0.695 0.754c2.716 2.935 6.588 4.768 10.887 4.772h0.001c0.016 0 0.034 0 0.050-0 4.317-0.020 8.195-1.879 10.894-4.834l0.010-0.011zM10.2 36.25l3.8-8.022 3.8 8.022z"></path>
<path d="M52.563 21.375h-5.126l-9.081 19.17v3.554l0.695 0.754c2.716 2.935 6.588 4.768 10.887 4.772h0.001c0.016 0 0.034 0 0.050-0 4.317-0.020 8.195-1.879 10.894-4.834l0.010-0.011 0.75-0.825v-3.409zM46.2 36.25l3.8-8.022 3.8 8.022z"></path>
</svg>
