<!-- Generated by IcoMoon.io -->
<svg version="1.1" xmlns="http://www.w3.org/2000/svg" width="64" height="64" viewBox="0 0 64 64">
<title>ban</title>
<path d="M52.465 11.481c-5.273-5.273-12.558-8.535-20.604-8.535-16.093 0-29.139 13.046-29.139 29.139 0 8.046 3.261 15.331 8.535 20.604v0c5.273 5.273 12.558 8.535 20.604 8.535 16.093 0 29.139-13.046 29.139-29.139 0-8.046-3.261-15.331-8.535-20.604v0zM31.861 10.946c0.007 0 0.015 0 0.024 0 4.428 0 8.536 1.369 11.923 3.707l-0.070-0.046-29.355 29.355c-2.292-3.317-3.661-7.425-3.661-11.853 0-0.008 0-0.017 0-0.025v0.001c0-11.656 9.483-21.139 21.139-21.139zM31.861 53.224c-0.007 0-0.016 0-0.025 0-4.399 0-8.482-1.351-11.857-3.662l0.072 0.047 29.334-29.334c2.264 3.303 3.615 7.387 3.615 11.786 0 0.009 0 0.018 0 0.027v-0.001c0 11.656-9.483 21.139-21.139 21.139z"></path>
</svg>
