<!-- Generated by IcoMoon.io -->
<svg version="1.1" xmlns="http://www.w3.org/2000/svg" width="64" height="64" viewBox="0 0 64 64">
<title>baseball</title>
<path d="M22 12.5c0 5.247-4.253 9.5-9.5 9.5s-9.5-4.253-9.5-9.5c0-5.247 4.253-9.5 9.5-9.5s9.5 4.253 9.5 9.5z"></path>
<path d="M59.589 4.589v0c-1.385-1.385-3.298-2.242-5.411-2.242-2.2 0-4.183 0.929-5.579 2.415l-4.679 4.988q-4.919 5.25-9.475 10.815l-13.445 16.435 0.032 0.032-12.098 12.903-0.685-0.685c-0.446-0.437-1.058-0.707-1.732-0.707-1.367 0-2.475 1.108-2.475 2.475 0 0.675 0.27 1.286 0.708 1.733l6.5 6.5c0.446 0.437 1.058 0.707 1.732 0.707 1.367 0 2.475-1.108 2.475-2.475 0-0.675-0.27-1.286-0.708-1.733l-0.685-0.685 12.902-12.097 0.032 0.032 11.225-8.674c7.481-5.809 14.135-11.686 20.4-17.951l0.96-0.96c1.387-1.385 2.245-3.3 2.245-5.415 0-2.113-0.857-4.026-2.242-5.411v0z"></path>
</svg>
