<!-- Generated by IcoMoon.io -->
<svg version="1.1" xmlns="http://www.w3.org/2000/svg" width="64" height="64" viewBox="0 0 64 64">
<title>basketball</title>
<path d="M2.084 34.25c0.562 7.37 3.718 13.911 8.544 18.797l-0.003-0.003c3.964-3.5 6.867-10.604 7.322-18.794z"></path>
<path d="M17.762 12.75c2.74 4.639 4.375 10.609 4.688 17h7.3v-27.666c-5.969 0.452-11.363 2.594-15.793 5.944l0.075-0.054c1.43 1.383 2.666 2.953 3.674 4.673l0.056 0.103z"></path>
<path d="M10.625 10.956c-4.824 4.883-7.979 11.424-8.535 18.692l-0.006 0.101h15.86c-0.455-8.19-3.359-15.294-7.319-18.794z"></path>
<path d="M53.375 53.044c4.824-4.883 7.979-11.424 8.535-18.692l0.006-0.101h-15.86c0.455 8.19 3.359 15.294 7.319 18.794z"></path>
<path d="M61.916 29.75c-0.562-7.37-3.718-13.911-8.544-18.797l0.003 0.003c-3.964 3.5-6.867 10.604-7.322 18.794z"></path>
<path d="M46.237 51.25c-2.74-4.639-4.375-10.609-4.688-17h-7.3v27.666c5.969-0.452 11.363-2.594 15.793-5.944l-0.075 0.054c-1.43-1.383-2.666-2.953-3.674-4.673l-0.056-0.103z"></path>
<path d="M46.237 12.75c1.064-1.822 2.301-3.39 3.724-4.767l0.006-0.006c-4.355-3.297-9.748-5.441-15.617-5.888l-0.101-0.006v27.666h7.3c0.311-6.395 1.95-12.365 4.688-17z"></path>
<path d="M17.762 51.25c-1.064 1.822-2.301 3.39-3.724 4.767l-0.006 0.006c4.355 3.297 9.748 5.441 15.617 5.888l0.101 0.006v-27.666h-7.3c-0.311 6.395-1.95 12.365-4.688 17z"></path>
</svg>
