<!-- Generated by IcoMoon.io -->
<svg version="1.1" xmlns="http://www.w3.org/2000/svg" width="64" height="64" viewBox="0 0 64 64">
<title>bath</title>
<path d="M58.25 34.75h-48v-20c0-0.005 0-0.011 0-0.017 0-1.707 0.694-3.251 1.816-4.367l0.051-0.051c1.124-1.122 2.675-1.816 4.388-1.816 0.956 0 1.862 0.216 2.671 0.602l-0.038-0.016c-0.81 1.403-1.288 3.085-1.288 4.879 0 2.726 1.103 5.194 2.887 6.982l1.192 1.192-2.52 2.52 3.182 3.182 19-19-3.182-3.182-2.52 2.52-1.192-1.192c-1.788-1.784-4.257-2.887-6.983-2.887-2.012 0-3.884 0.601-5.446 1.634l0.037-0.023c-1.639-1.072-3.647-1.71-5.804-1.71-2.955 0-5.63 1.198-7.567 3.134l-0.050 0.050c-1.936 1.926-3.134 4.591-3.134 7.537 0 0.010 0 0.020 0 0.031v-0.002 20h-3.75v4.5h3.75v3.588c0 0 0 0.001 0 0.001 0 0.367 0.061 0.72 0.174 1.049l-0.007-0.023 3.721 11.162c0.442 1.302 1.654 2.222 3.080 2.222 0.001 0 0.002 0 0.003 0h1.279l-1.385 4.75h4.687l1.385-4.75h25.638l1.425 4.75h4.698l-1.425-4.75h2.255c0.001 0 0.002 0 0.003 0 1.426 0 2.638-0.92 3.073-2.199l0.007-0.023 3.721-11.162c0.106-0.306 0.167-0.66 0.167-1.027 0-0 0-0.001 0-0.001v0-3.588h3.75v-4.5z"></path>
</svg>
