<!-- Generated by IcoMoon.io -->
<svg version="1.1" xmlns="http://www.w3.org/2000/svg" width="64" height="64" viewBox="0 0 64 64">
<title>battery-unknown</title>
<path d="M53 20v-9h-9v6h3v9h8.998v12h-8.998v9h-39v-30h9v-6h-15v42h51v-9h8.998v-24h-8.998z"></path>
<path d="M35.375 17c-0.004 2.967-2.408 5.372-5.375 5.375h-4c-2.553 0.003-4.622 2.072-4.625 4.625v7h5.25v-6.375h3.375c0.002 0 0.004 0 0.006 0 2.687 0 5.139-1.002 7.005-2.652l-0.011 0.010c0.949-0.835 1.741-1.822 2.344-2.927l0.028-0.056c0.785-1.446 1.246-3.166 1.246-4.994 0-5.867-4.752-10.623-10.617-10.631h-9.001v5.25h9c2.967 0.004 5.371 2.408 5.375 5.375v0z"></path>
<path d="M21.375 37.8v4.2h5.25v-5.25h-5.25v1.050z"></path>
</svg>
