<!-- Generated by IcoMoon.io -->
<svg version="1.1" xmlns="http://www.w3.org/2000/svg" width="64" height="64" viewBox="0 0 64 64">
<title>beach-access</title>
<path d="M32.871 33.159l5.269-5.269c-2.063-1.915-4.299-3.724-6.655-5.374l-0.201-0.134c-9.112-6.31-16.76-10.012-21.108-10.285-0.036 0.034-0.072 0.067-0.107 0.101-0.167 7.936 5.585 17.972 9.219 23.497 1.54 2.322 3.136 4.346 4.879 6.232l-0.030-0.032 5.023-5.023 20.129 20.129h7.425z"></path>
<path d="M33.845 18.683c2.788 1.945 5.228 3.923 7.518 6.059l-0.039-0.036 8.605-8.605-3.473-3.473c-4.717-4.713-11.231-7.627-18.425-7.627-4.808 0-9.312 1.301-13.178 3.571l0.123-0.067c1.812 0.56 3.811 1.376 6.014 2.452 4.775 2.333 9.627 5.489 12.857 7.726z"></path>
<path d="M8.502 25.178q-1.774-4.305-2.476-8.062c-2.525 3.944-4.026 8.755-4.026 13.916 0 7.194 2.915 13.708 7.628 18.424l3.473 3.473 7.85-7.85c-1.922-2.066-3.707-4.323-5.302-6.717l-0.122-0.194c-2.042-3.105-4.918-7.878-7.025-12.99z"></path>
</svg>
