<!-- Generated by IcoMoon.io -->
<svg version="1.1" xmlns="http://www.w3.org/2000/svg" width="64" height="64" viewBox="0 0 64 64">
<title>beaker</title>
<path d="M58 43.809c0-0.001 0-0.002 0-0.004 0-0.847-0.264-1.632-0.715-2.277l0.009 0.013-13.294-18.809v-3.732h4c2.208-0.003 3.997-1.792 4-4v-13h-40v13c0.003 2.208 1.792 3.997 4 4h3.99v3.865l-13.276 18.669c-0.446 0.634-0.713 1.423-0.713 2.274 0 0.002 0 0.004 0 0.006v-0 11.178c0.005 3.864 3.135 6.994 6.998 7l38.006 0.009c3.866 0 7-3.134 7-7 0-0.001 0-0.002 0-0.002v0zM25.99 24.781v-11.781h-7.99v-5h28v5h-8v11.638l7.943 11.237h-27.843z"></path>
</svg>
