<!-- Generated by IcoMoon.io -->
<svg version="1.1" xmlns="http://www.w3.org/2000/svg" width="64" height="64" viewBox="0 0 64 64">
<title>bell-ring</title>
<path d="M54.5 23.5h6c0-0.006 0-0.014 0-0.021 0-8.716-3.919-16.518-10.091-21.738l-0.042-0.035-3.869 4.586c4.907 4.149 8.002 10.309 8.002 17.192 0 0.005 0 0.011 0 0.016v-0.001z"></path>
<path d="M17.502 6.293l-3.869-4.586c-6.214 5.254-10.133 13.056-10.133 21.772 0 0.007 0 0.015 0 0.022v-0.001h6c0-0.005 0-0.010 0-0.015 0-6.883 3.095-13.043 7.969-17.164l0.033-0.027z"></path>
<path d="M49 33v-11c0-9.389-7.611-17-17-17v0 0c-9.389 0-17 7.611-17 17v0 11l-5.7 10.524c-0.076 0.138-0.121 0.302-0.121 0.476 0 0.552 0.448 1 1 1h43.642c0.552 0 1-0.448 1-1 0-0.175-0.045-0.339-0.123-0.481l0.003 0.005z"></path>
<path d="M32 58c4.971 0 9-4.029 9-9v0h-18c0 4.971 4.029 9 9 9v0z"></path>
</svg>
