<!-- Generated by IcoMoon.io -->
<svg version="1.1" xmlns="http://www.w3.org/2000/svg" width="64" height="64" viewBox="0 0 64 64">
<title>bell-slash</title>
<path d="M39.571 29.45l15.090 15.090c0.101-0.153 0.161-0.34 0.161-0.541 0-0.174-0.045-0.338-0.124-0.48l0.003 0.005-5.7-10.524v-11c0-9.389-7.611-17-17-17v0 0c-0.006 0-0.014 0-0.021 0-4.657 0-8.876 1.879-11.939 4.92l0.001-0.001 19.53 19.53z"></path>
<path d="M32 58c4.971 0 9-4.029 9-9v0h-18c0 4.971 4.029 9 9 9v0z"></path>
<path d="M48.757 45l-43.010-43h-3.747v3.678l13.273 13.273c-0.174 0.915-0.273 1.968-0.273 3.044 0 0.002 0 0.004 0 0.005v-0 11l-5.7 10.524c-0.076 0.138-0.121 0.302-0.121 0.476 0 0.552 0.448 1 1 1h31.143l17 17h3.678v-3.757z"></path>
</svg>
