<!-- Generated by IcoMoon.io -->
<svg version="1.1" xmlns="http://www.w3.org/2000/svg" width="64" height="64" viewBox="0 0 64 64">
<title>bell-exclamation</title>
<path d="M54.7 43.524l-5.7-10.524v-11c0-9.389-7.611-17-17-17s-17 7.611-17 17v0 11l-5.7 10.524c-0.076 0.138-0.121 0.302-0.121 0.476 0 0.552 0.448 1 1 1h43.642c0.552 0 1-0.448 1-1 0-0.175-0.045-0.339-0.123-0.481l0.003 0.005zM34.25 38h-4.5v-5h4.5zM34.25 29h-4.5v-14h4.5z"></path>
<path d="M32 58c4.971 0 9-4.029 9-9v0h-18c0 4.971 4.029 9 9 9v0z"></path>
</svg>
