<!-- Generated by IcoMoon.io -->
<svg version="1.1" xmlns="http://www.w3.org/2000/svg" width="64" height="64" viewBox="0 0 64 64">
<title>bike-alt</title>
<path d="M49.5 27c-0.483 0-0.959 0.028-1.427 0.081l0.058-0.005-6.545-18.325h-10.586v4.5h7.414l3.393 9.5h-18.11l-0.714-2.5h4.017v-4.5h-13v4.5h4.303l1.284 4.494-1.486 2.786c-1.087-0.341-2.336-0.538-3.631-0.538-6.92 0-12.531 5.61-12.531 12.531s5.61 12.531 12.531 12.531c6.92 0 12.531-5.61 12.531-12.531 0-4.034-1.906-7.623-4.867-9.915l-0.029-0.021 1.246-2.336h19.856l0.422 1.218c-3.968 2.147-6.619 6.278-6.619 11.028 0 6.901 5.595 12.496 12.496 12.496s12.496-5.595 12.496-12.496c0-6.901-5.595-12.496-12.496-12.496-0.002 0-0.003 0-0.005 0h0zM18 39.5c-0 1.933-1.567 3.499-3.5 3.499s-3.5-1.567-3.5-3.5 1.567-3.5 3.5-3.5c1.37 0 2.557 0.788 3.131 1.935l0.009 0.020c0.227 0.451 0.359 0.982 0.359 1.545 0 0 0 0 0 0v0zM49.5 43c-1.933 0-3.5-1.567-3.5-3.5s1.567-3.5 3.5-3.5c1.933 0 3.5 1.567 3.5 3.5v0c0 1.933-1.567 3.5-3.5 3.5v0z"></path>
</svg>
