<!-- Generated by IcoMoon.io -->
<svg version="1.1" xmlns="http://www.w3.org/2000/svg" width="64" height="64" viewBox="0 0 64 64">
<title>bike</title>
<path d="M27 46c0 6.904-5.596 12.5-12.5 12.5s-12.5-5.596-12.5-12.5c0-6.904 5.596-12.5 12.5-12.5s12.5 5.596 12.5 12.5z"></path>
<path d="M62 46c0 6.904-5.596 12.5-12.5 12.5s-12.5-5.596-12.5-12.5c0-6.904 5.596-12.5 12.5-12.5s12.5 5.596 12.5 12.5z"></path>
<path d="M45 11.5c0 2.485-2.015 4.5-4.5 4.5s-4.5-2.015-4.5-4.5c0-2.485 2.015-4.5 4.5-4.5s4.5 2.015 4.5 4.5z"></path>
<path d="M41.815 30.019l0.013 0.014c0.66 0.672 1.578 1.090 2.593 1.092h5.579v-5.25h-4.888l-12.695-13.187-0.6 0.63-14.098 14.097 11.655 12.157v10.928h5.25v-11.582c-0.003-0.992-0.401-1.891-1.045-2.547l0.001 0.001-5.917-6.171 7.299-7.299z"></path>
</svg>
