<!-- Generated by IcoMoon.io -->
<svg version="1.1" xmlns="http://www.w3.org/2000/svg" width="64" height="64" viewBox="0 0 64 64">
<title>birthday-cake</title>
<path d="M53.124 47.248c-0.001 0-0.003 0-0.004 0-1.296 0-2.528-0.278-3.638-0.777l0.056 0.023-3.289-1.451-3.289 1.451c-1.055 0.476-2.288 0.754-3.586 0.754s-2.53-0.278-3.642-0.777l0.056 0.023-3.289-1.451-3.289 1.451c-1.055 0.477-2.288 0.754-3.586 0.754s-2.53-0.278-3.642-0.777l0.056 0.023-3.289-1.451-3.289 1.451c-1.055 0.477-2.288 0.754-3.586 0.754s-2.53-0.278-3.642-0.777l0.056 0.023-2.289-1.010v14.516c0 1.105 0.895 2 2 2v0h48c1.105 0 2-0.895 2-2v0-14.075l-1.29 0.569c-1.054 0.476-2.286 0.754-3.582 0.754-0.001 0-0.003 0-0.004 0h0z"></path>
<path d="M52.75 30.75h-15.75v-15.75h-4.959c1.577-1.44 2.59-3.675 2.59-6.187 0-2.912-1.361-5.452-3.383-6.813-2.022 1.36-3.383 3.901-3.383 6.813 0 2.512 1.014 4.747 2.59 6.187h-5.456v15.75h-13.75c-2.899 0-5.25 2.35-5.25 5.25v0 4.566l4.105 1.811c0.521 0.235 1.129 0.372 1.77 0.372s1.249-0.137 1.797-0.383l-0.028 0.011 5.105-2.252 5.106 2.252c0.521 0.235 1.129 0.372 1.77 0.372s1.249-0.137 1.797-0.383l-0.028 0.011 5.105-2.252 5.105 2.252c0.521 0.235 1.129 0.372 1.77 0.372s1.249-0.137 1.797-0.383l-0.028 0.011 5.106-2.252 5.106 2.252c0.521 0.235 1.129 0.372 1.77 0.372s1.248-0.137 1.797-0.383l-0.028 0.011 3.106-1.37v-5.007c0-2.9-2.35-5.25-5.25-5.25v0z"></path>
</svg>
