<!-- Generated by IcoMoon.io -->
<svg version="1.1" xmlns="http://www.w3.org/2000/svg" width="64" height="64" viewBox="0 0 64 64">
<title>blind</title>
<path d="M40.248 33.3l11.415 26.066h3.275l-12.057-27.533 2.268-2.062-13.209-14.529h-11.53l-4.381 2.845c-2.364 1.545-3.904 4.179-3.904 7.173 0 0.006 0 0.011 0 0.017v-0.001 8.974h6v-8.974c0-0.001 0-0.003 0-0.005 0-0.898 0.462-1.689 1.162-2.146l0.010-0.006 1.829-1.188v9.784l13.962 27.651h5.471l-10.344-22.279v-14.824z"></path>
<path d="M11.648 59.366h6.462l6.39-15.976-3.606-7.141-9.247 23.117z"></path>
<path d="M23.461 12.108c0.693 0.417 1.53 0.664 2.425 0.664 2.629 0 4.761-2.132 4.761-4.761s-2.131-4.761-4.761-4.761c-2.629 0-4.761 2.131-4.761 4.761 0 0 0 0 0 0v0c0 0.004 0 0.008 0 0.013 0 1.731 0.928 3.245 2.314 4.072l0.022 0.012z"></path>
</svg>
