<!-- Generated by IcoMoon.io -->
<svg version="1.1" xmlns="http://www.w3.org/2000/svg" width="64" height="64" viewBox="0 0 64 64">
<title>bluetooth-searching</title>
<path d="M49.16 38.937c1.157-1.993 1.84-4.385 1.84-6.937 0-2.686-0.756-5.195-2.068-7.327l0.035 0.061-11.967 7.266z"></path>
<path d="M53.069 41.167l5.646 3.221c2.066-3.559 3.285-7.831 3.285-12.388 0-4.797-1.351-9.277-3.693-13.083l0.062 0.108-5.556 3.373c1.687 2.736 2.687 6.052 2.687 9.601 0 3.372-0.902 6.534-2.478 9.256l0.047-0.089z"></path>
<path d="M14.873 32.099l-9.873 6.373v8.967l0.253 0.391 12.747-8.228v22.397l6.967 0 20.036-13.91-0.010-6.059-15.373-9.929 15.372-9.922v-0.297l0.001-5.657-20.301-14.229-6.693 0.008v22.591l-12.83-8.287-0.17 0.264v9.15zM26 12.682l9.087 6.369-9.087 5.866zM26 39.286l9.147 5.908-9.147 6.35z"></path>
</svg>
