<!-- Generated by IcoMoon.io -->
<svg version="1.1" xmlns="http://www.w3.org/2000/svg" width="64" height="64" viewBox="0 0 64 64">
<title>bluetooth-settings</title>
<path d="M22.376 26.578l-7.376 4.761v7.141l9.712-6.269v17.788l5.291 0 15.692-10.894-0.007-4.613-12.251-7.913 12.25-7.907 0.001-4.531-15.901-11.145-5.075 0.006v17.941l-9.712-6.273v7.143zM30.712 10.973l7.594 5.323-7.594 4.902zM30.712 31.962l7.642 4.936-7.642 5.306z"></path>
<path d="M21 58c0 2.209-1.791 4-4 4s-4-1.791-4-4c0-2.209 1.791-4 4-4s4 1.791 4 4z"></path>
<path d="M34 58c0 2.209-1.791 4-4 4s-4-1.791-4-4c0-2.209 1.791-4 4-4s4 1.791 4 4z"></path>
<path d="M47 58c0 2.209-1.791 4-4 4s-4-1.791-4-4c0-2.209 1.791-4 4-4s4 1.791 4 4z"></path>
</svg>
