<!-- Generated by IcoMoon.io -->
<svg version="1.1" xmlns="http://www.w3.org/2000/svg" width="64" height="64" viewBox="0 0 64 64">
<title>blur</title>
<path d="M18.935 33.039c0 4.417-3.581 7.999-7.999 7.999s-7.999-3.581-7.999-7.999c0-4.418 3.581-7.999 7.999-7.999s7.999 3.581 7.999 7.999z"></path>
<path d="M18.935 13.037c0 4.418-3.581 7.999-7.999 7.999s-7.999-3.581-7.999-7.999c0-4.418 3.581-7.999 7.999-7.999s7.999 3.581 7.999 7.999z"></path>
<path d="M18.81 53.041c0 4.418-3.581 7.999-7.999 7.999s-7.999-3.581-7.999-7.999c0-4.418 3.581-7.999 7.999-7.999s7.999 3.581 7.999 7.999z"></path>
<path d="M40 13c0 3.314-2.686 6-6 6s-6-2.686-6-6c0-3.314 2.686-6 6-6s6 2.686 6 6z"></path>
<path d="M57 13c0 2.209-1.791 4-4 4s-4-1.791-4-4c0-2.209 1.791-4 4-4s4 1.791 4 4z"></path>
<path d="M57 33c0 2.209-1.791 4-4 4s-4-1.791-4-4c0-2.209 1.791-4 4-4s4 1.791 4 4z"></path>
<path d="M57 53c0 2.209-1.791 4-4 4s-4-1.791-4-4c0-2.209 1.791-4 4-4s4 1.791 4 4z"></path>
<path d="M40 53c0 3.314-2.686 6-6 6s-6-2.686-6-6c0-3.314 2.686-6 6-6s6 2.686 6 6z"></path>
<path d="M40 33c0 3.314-2.686 6-6 6s-6-2.686-6-6c0-3.314 2.686-6 6-6s6 2.686 6 6z"></path>
</svg>
