<!-- Generated by IcoMoon.io -->
<svg version="1.1" xmlns="http://www.w3.org/2000/svg" width="64" height="64" viewBox="0 0 64 64">
<title>blur-slash</title>
<path d="M18.935 33.039c0 4.417-3.581 7.999-7.999 7.999s-7.999-3.581-7.999-7.999c0-4.418 3.581-7.999 7.999-7.999s7.999 3.581 7.999 7.999z"></path>
<path d="M18.81 53.041c0 4.418-3.581 7.999-7.999 7.999s-7.999-3.581-7.999-7.999c0-4.418 3.581-7.999 7.999-7.999s7.999 3.581 7.999 7.999z"></path>
<path d="M40 13c0 3.314-2.686 6-6 6s-6-2.686-6-6c0-3.314 2.686-6 6-6s6 2.686 6 6z"></path>
<path d="M57 13c0 2.209-1.791 4-4 4s-4-1.791-4-4c0-2.209 1.791-4 4-4s4 1.791 4 4z"></path>
<path d="M57 33c0 2.209-1.791 4-4 4s-4-1.791-4-4c0-2.209 1.791-4 4-4s4 1.791 4 4z"></path>
<path d="M40 53c0 3.314-2.686 6-6 6s-6-2.686-6-6c0-3.314 2.686-6 6-6s6 2.686 6 6z"></path>
<path d="M2 2.083v3.712l2.497 2.497c-0.974 1.31-1.559 2.959-1.559 4.745 0 4.417 3.581 7.998 7.998 7.998 1.786 0 3.435-0.585 4.766-1.575l-0.021 0.015 12.422 12.422c-0.065 0.332-0.103 0.714-0.103 1.105 0 3.312 2.685 5.997 5.997 5.997 0.391 0 0.773-0.037 1.143-0.109l-0.038 0.006 13.903 13.903c-0.003 0.066-0.005 0.133-0.005 0.199 0 2.209 1.791 4 4 4v0c0.067 0 0.133-0.002 0.199-0.005l5.088 5.088h3.712v-3.712l-56.288-56.288z"></path>
</svg>
