<!-- Generated by IcoMoon.io -->
<svg version="1.1" xmlns="http://www.w3.org/2000/svg" width="64" height="64" viewBox="0 0 64 64">
<title>blur-linear</title>
<path d="M2 2h60v4h-60v-4z"></path>
<path d="M2 58h60v4h-60v-4z"></path>
<path d="M19.395 16.502c1.938 4.68-0.284 10.044-4.963 11.983s-10.044-0.284-11.983-4.963c-1.938-4.68 0.284-10.044 4.963-11.983s10.044 0.284 11.983 4.963z"></path>
<path d="M34.289 29.183c4.243 0 7.683-3.44 7.683-7.683s-3.44-7.683-7.683-7.683c-4.243 0-7.683 3.44-7.683 7.683v0c0.005 4.241 3.442 7.678 7.683 7.683h0.001z"></path>
<path d="M54.439 29.183c0 0 0 0 0 0 3.289 0 5.955-2.666 5.955-5.955s-2.666-5.955-5.955-5.955c-3.289 0-5.955 2.666-5.955 5.955 0 0 0 0 0 0v0c0.004 3.287 2.667 5.951 5.954 5.955h0z"></path>
<path d="M19.927 42.763c0.958 4.974-2.298 9.782-7.271 10.74s-9.782-2.298-10.74-7.271c-0.958-4.974 2.298-9.782 7.271-10.74s9.782 2.298 10.74 7.271z"></path>
<path d="M34.289 50.693c4.243 0 7.683-3.44 7.683-7.683s-3.44-7.683-7.683-7.683c-4.243 0-7.683 3.44-7.683 7.683 0 0 0 0 0 0v0c0.005 4.241 3.442 7.678 7.683 7.683h0.001z"></path>
<path d="M54.439 47.235c0 0 0 0 0 0 3.289 0 5.955-2.666 5.955-5.955s-2.666-5.955-5.955-5.955c-3.289 0-5.955 2.666-5.955 5.955 0 0 0 0 0 0v0c0.004 3.287 2.667 5.951 5.954 5.955h0z"></path>
</svg>
