<!-- Generated by IcoMoon.io -->
<svg version="1.1" xmlns="http://www.w3.org/2000/svg" width="64" height="64" viewBox="0 0 64 64">
<title>blur-circular</title>
<path d="M32 62.25c0 0 0 0 0 0 16.707 0 30.25-13.543 30.25-30.25 0-8.353-3.386-15.916-8.86-21.39v0c-5.474-5.474-13.037-8.86-21.39-8.86-16.707 0-30.25 13.543-30.25 30.25 0 8.353 3.386 15.916 8.86 21.39v0c5.444 5.473 12.98 8.86 21.308 8.86 0.029 0 0.058-0 0.087-0h-0.005zM27.368 42.177c-0.687 0.687-1.635 1.111-2.683 1.111-2.095 0-3.794-1.699-3.794-3.794s1.699-3.794 3.794-3.794c1.048 0 1.996 0.425 2.683 1.111v0c0.687 0.687 1.111 1.635 1.111 2.683s-0.425 1.996-1.111 2.683v0zM28.39 51.688c0 2.046-1.659 3.705-3.705 3.705s-3.705-1.659-3.705-3.705c0-2.046 1.659-3.705 3.705-3.705 0 0 0 0 0 0v0c2.046 0 3.705 1.659 3.705 3.705v0zM27.368 27.189c-0.687 0.687-1.635 1.111-2.683 1.111-2.095 0-3.794-1.699-3.794-3.794s1.699-3.794 3.794-3.794c1.048 0 1.996 0.425 2.683 1.111v0c0.687 0.687 1.111 1.635 1.111 2.683s-0.425 1.996-1.111 2.683v0zM20.981 12.313c0-2.046 1.659-3.705 3.705-3.705s3.705 1.659 3.705 3.705c0 2.046-1.659 3.705-3.705 3.705v0c-2.046 0-3.705-1.659-3.705-3.705v0zM16.017 24.685c0 2.046-1.659 3.705-3.705 3.705s-3.705-1.659-3.705-3.705c0-2.046 1.659-3.705 3.705-3.705v0c0 0 0 0 0 0 2.046 0 3.705 1.659 3.705 3.705 0 0 0 0 0 0v0zM12.313 35.61c2.046 0 3.705 1.659 3.705 3.705s-1.659 3.705-3.705 3.705c-2.046 0-3.705-1.659-3.705-3.705 0 0 0 0 0 0v0c0-2.046 1.659-3.705 3.705-3.705 0 0 0 0 0 0v0zM55.392 24.685c0 2.046-1.659 3.705-3.705 3.705s-3.705-1.659-3.705-3.705c0-2.046 1.659-3.705 3.705-3.705v0c0 0 0 0 0 0 2.046 0 3.705 1.659 3.705 3.705v0zM36.632 21.823c0.687-0.687 1.635-1.111 2.683-1.111 2.095 0 3.794 1.699 3.794 3.794s-1.699 3.794-3.794 3.794c-1.048 0-1.996-0.425-2.683-1.111v0c-0.687-0.687-1.111-1.635-1.111-2.683s0.425-1.996 1.111-2.683v0zM35.61 12.313c0-2.046 1.659-3.705 3.705-3.705s3.705 1.659 3.705 3.705c0 2.046-1.659 3.705-3.705 3.705v0c-2.046 0-3.705-1.659-3.705-3.705v0zM36.632 36.811c0.687-0.687 1.635-1.111 2.683-1.111 2.095 0 3.794 1.699 3.794 3.794s-1.699 3.794-3.794 3.794c-1.048 0-1.996-0.425-2.683-1.111v0c-0.687-0.687-1.111-1.635-1.111-2.683s0.425-1.996 1.111-2.683v0zM43.019 51.688c0 2.046-1.659 3.705-3.705 3.705s-3.705-1.659-3.705-3.705c0-2.046 1.659-3.705 3.705-3.705 0 0 0 0 0 0v0c2.046 0 3.705 1.659 3.705 3.705v0zM47.983 39.315c0-2.046 1.659-3.705 3.705-3.705s3.705 1.659 3.705 3.705c0 2.046-1.659 3.705-3.705 3.705 0 0-0 0-0 0v0c0 0 0 0 0 0-2.046 0-3.705-1.659-3.705-3.705 0 0 0 0 0 0v0z"></path>
</svg>
