<!-- Generated by IcoMoon.io -->
<svg version="1.1" xmlns="http://www.w3.org/2000/svg" width="64" height="64" viewBox="0 0 64 64">
<title>boat</title>
<path d="M32 18.9l18 5.76v-8.66c-0.003-2.208-1.792-3.997-4-4h-28c-2.208 0.003-3.997 1.792-4 4v8.66z"></path>
<path d="M23 2h18v6h-18v-6z"></path>
<path d="M34 46.071c1.32 0.419 2.463 1.055 3.447 1.874l-0.016-0.013 0.496 0.41c0.829 0.686 1.903 1.103 3.074 1.103 1.163 0 2.231-0.411 3.065-1.095l-0.008 0.007 0.593-0.486c1.725-1.419 3.957-2.279 6.389-2.279 0.994 0 1.955 0.144 2.863 0.412l-0.071-0.018 4.162-14.567-23.993-7.678z"></path>
<path d="M18.027 47.998l0.088 0.076c0.843 0.724 1.947 1.165 3.154 1.165s2.312-0.441 3.161-1.171l-0.006 0.005c1.505-1.31 3.421-2.184 5.532-2.405l0.043-0.004v-21.926l-23.993 7.678 4.064 14.226c0.413-0.060 0.889-0.094 1.373-0.094 2.522 0 4.828 0.927 6.595 2.46l-0.012-0.011z"></path>
<path d="M56.896 52.203c-1.643-1.127-3.675-1.8-5.864-1.8-2.52 0-4.832 0.892-6.637 2.378l0.018-0.014-0.593 0.486c-0.762 0.625-1.746 1.004-2.819 1.004-1.080 0-2.071-0.384-2.842-1.023l0.007 0.006-0.496-0.41c-1.791-1.496-4.118-2.404-6.658-2.404-2.62 0-5.013 0.966-6.844 2.562l0.012-0.011c-0.777 0.668-1.796 1.075-2.91 1.075s-2.132-0.407-2.915-1.079l0.006 0.005-0.088-0.077c-1.821-1.579-4.215-2.541-6.832-2.541-2.47 0-4.74 0.856-6.529 2.288l0.021-0.016-2.932 2.334v7.669l6.668-5.309c0.753-0.603 1.72-0.968 2.772-0.968 1.115 0 2.134 0.41 2.915 1.086l-0.006-0.005 0.088 0.077c1.821 1.58 4.214 2.543 6.832 2.543s5.012-0.963 6.845-2.554l-0.013 0.011c0.774-0.675 1.794-1.087 2.909-1.087 1.081 0 2.072 0.387 2.842 1.029l-0.007-0.006 0.496 0.41c1.795 1.487 4.121 2.389 6.657 2.389 2.519 0 4.831-0.89 6.638-2.372l-0.018 0.015 0.593-0.486c0.763-0.623 1.748-1 2.82-1 0.931 0 1.795 0.284 2.511 0.77l-0.016-0.010 8.471 5.742v-7.249z"></path>
</svg>
