<!-- Generated by IcoMoon.io -->
<svg version="1.1" xmlns="http://www.w3.org/2000/svg" width="64" height="64" viewBox="0 0 64 64">
<title>boat-alt</title>
<path d="M15.163 14h9l-1.428-10h-13.041l1.428 10h4.041z"></path>
<path d="M33.163 14h9l-1.428-10h-13.041l1.428 10h4.041z"></path>
<path d="M2 31v25h53.466l6.534-20.692v-4.308zM9 45v-5.25h5.25v5.25zM20 45v-5.25h5.25v5.25zM31 45v-5.25h5.25v5.25zM47.25 45h-5.25v-5.25h5.25z"></path>
<path d="M53.281 27l-1.887-6.261-0.035-0.106c-0.578-1.547-2.042-2.629-3.759-2.633h-41.6v9z"></path>
</svg>
