<!-- Generated by IcoMoon.io -->
<svg version="1.1" xmlns="http://www.w3.org/2000/svg" width="64" height="64" viewBox="0 0 64 64">
<title>bold</title>
<path d="M42.375 40c-0.003-2.967-2.408-5.372-5.375-5.375h-10.375v10.75h10.375c2.967-0.003 5.372-2.408 5.375-5.375v-0z"></path>
<path d="M4 4v56h56v-56zM40 50.625h-26v-5.25h4.375v-26.75h-4.375v-5.25h21c0.002 0 0.005 0 0.008 0 5.864 0 10.617 4.753 10.617 10.617 0 2.267-0.711 4.368-1.921 6.093l0.023-0.034c4.064 1.553 6.899 5.42 6.899 9.95 0 5.868-4.757 10.624-10.624 10.624-0 0-0.001 0-0.001 0v0z"></path>
<path d="M26.625 29.375h5.375c2.968 0 5.375-2.407 5.375-5.375s-2.407-5.375-5.375-5.375v0h-5.375z"></path>
</svg>
