<!-- Generated by IcoMoon.io -->
<svg version="1.1" xmlns="http://www.w3.org/2000/svg" width="64" height="64" viewBox="0 0 64 64">
<title>book-open</title>
<path d="M20.237 4h-18.237v40h15.456c0 0 0 0 0 0 5.254 0 9.74 3.286 11.516 7.916l0.028 0.084v-44.729c-2.333-2.032-5.403-3.271-8.763-3.271h-0zM19 28h-2l-4.032-4-3.968 4h-2v-19h12z"></path>
<path d="M35 7.271v44.729c1-4 6-8 13-8h14v-40h-18.237c-3.359 0-6.43 1.239-8.779 3.285l0.016-0.014z"></path>
<path d="M38.177 56h-12.354c-2.592-4.225-7.186-7-12.427-7-0.004 0-0.008 0-0.012 0h-11.384v6h11.384c0.002 0 0.004 0 0.006 0 3.503 0 6.513 2.109 7.831 5.127l0.021 0.055 0.779 1.818h19.956l0.779-1.818c1.339-3.073 4.349-5.182 7.852-5.182 0.002 0 0.005 0 0.007 0h11.384v-6h-11.384c-0.003 0-0.008 0-0.012 0-5.242 0-9.835 2.775-12.391 6.937l-0.036 0.063z"></path>
</svg>
