<!-- Generated by IcoMoon.io -->
<svg version="1.1" xmlns="http://www.w3.org/2000/svg" width="64" height="64" viewBox="0 0 64 64">
<title>border-outer</title>
<path d="M30 13h-17v38h38v-38h-21zM20 34h-4v-4h4zM27 34h-4v-4h4zM34 48h-4v-4h4zM34 41h-4v-4h4zM34 34h-4v-4h4zM34 27h-4v-4h4zM34 20h-4v-4h4zM44 30h4v4h-4zM37 30h4v4h-4z"></path>
<path d="M54.375 2h-44.75c-4.211 0-7.625 3.414-7.625 7.625v0 44.75c0 4.211 3.414 7.625 7.625 7.625v0h44.75c4.211 0 7.625-3.414 7.625-7.625v0-44.75c0-4.211-3.414-7.625-7.625-7.625v0zM55 53c0 1.105-0.895 2-2 2v0h-42c-1.105 0-2-0.895-2-2v0-42c0-1.105 0.895-2 2-2v0h42c1.105 0 2 0.895 2 2v0z"></path>
</svg>
