<!-- Generated by IcoMoon.io -->
<svg version="1.1" xmlns="http://www.w3.org/2000/svg" width="64" height="64" viewBox="0 0 64 64">
<title>border-style</title>
<path d="M54.375 2h-44.75c-4.211 0-7.625 3.414-7.625 7.625v0 44.75c0 4.211 3.414 7.625 7.625 7.625v0h44.75c4.211 0 7.625-3.414 7.625-7.625v0-44.75c0-4.211-3.414-7.625-7.625-7.625v0zM20 55h-4v-4h4zM27 55h-4v-4h4zM34 55h-4v-4h4zM41 55h-4v-4h4zM48 55h-4v-4h4zM55 55h-4v-4h4zM55 48h-4v-4h4zM55 41h-4v-4h4zM55 34h-4v-4h4zM55 27h-4v-4h4zM55 20h-4v-4h4zM55 11v2h-42v42h-4v-44c0-1.105 0.895-2 2-2v0h44z"></path>
</svg>
