<!-- Generated by IcoMoon.io -->
<svg version="1.1" xmlns="http://www.w3.org/2000/svg" width="64" height="64" viewBox="0 0 64 64">
<title>border-left</title>
<path d="M9.625 62h44.75c4.211 0 7.625-3.414 7.625-7.625v0-44.75c0-4.211-3.414-7.625-7.625-7.625v0h-44.75c-4.211 0-7.625 3.414-7.625 7.625v0 44.75c0 4.211 3.414 7.625 7.625 7.625v0zM51 9h4v4h-4zM51 16h4v4h-4zM51 23h4v4h-4zM51 30h4v4h-4zM51 37h4v4h-4zM51 44h4v4h-4zM51 51h4v4h-4zM44 9h4v4h-4zM44 30h4v4h-4zM44 51h4v4h-4zM37 9h4v4h-4zM37 30h4v4h-4zM37 51h4v4h-4zM30 11v-2h4v4h-4zM30 16h4v4h-4zM30 23h4v4h-4zM30 30h4v4h-4zM30 37h4v4h-4zM30 44h4v4h-4zM30 53v-2h4v4h-4zM23 9h4v4h-4zM23 30h4v4h-4zM23 51h4v4h-4zM16 9h4v4h-4zM16 30h4v4h-4zM16 51h4v4h-4zM9 53v-44h4v46h-4z"></path>
</svg>
