<!-- Generated by IcoMoon.io -->
<svg version="1.1" xmlns="http://www.w3.org/2000/svg" width="64" height="64" viewBox="0 0 64 64">
<title>border-horizontal</title>
<path d="M54.375 2h-44.75c-4.211 0-7.625 3.414-7.625 7.625v0 44.75c0 4.211 3.414 7.625 7.625 7.625v0h44.75c4.211 0 7.625-3.414 7.625-7.625v0-44.75c0-4.211-3.414-7.625-7.625-7.625v0zM44 9h4v4h-4zM37 9h4v4h-4zM30 11v-2h4v4h-4zM30 16h4v4h-4zM30 23h4v4h-4zM23 9h4v4h-4zM16 9h4v4h-4zM9 9h4v4h-4zM9 16h4v4h-4zM9 23h4v4h-4zM13 55h-4v-4h4zM13 48h-4v-4h4zM13 41h-4v-4h4zM20 55h-4v-4h4zM27 55h-4v-4h4zM34 53v2h-4v-4h4zM34 48h-4v-4h4zM34 41h-4v-4h4zM41 55h-4v-4h4zM48 55h-4v-4h4zM55 55h-4v-4h4zM55 48h-4v-4h4zM55 41h-4v-4h4zM55 34h-46v-4h46zM55 27h-4v-4h4zM55 20h-4v-4h4zM55 13h-4v-4h4z"></path>
</svg>
