<!-- Generated by IcoMoon.io -->
<svg version="1.1" xmlns="http://www.w3.org/2000/svg" width="64" height="64" viewBox="0 0 64 64">
<title>bowling</title>
<path d="M8.916 20.75h10.168l1.214-9.606c0.032-0.239 0.050-0.515 0.050-0.795 0-3.506-2.842-6.348-6.347-6.349h-0c-3.506 0.001-6.348 2.843-6.348 6.349 0 0.28 0.018 0.556 0.053 0.827l-0.003-0.032z"></path>
<path d="M16 39c0-0.008 0-0.017 0-0.027 0-5.012 1.479-9.679 4.024-13.588l-0.059 0.096c-0.032-0.078-0.067-0.154-0.101-0.231h-11.727c-2.013 4.509-3.185 9.772-3.185 15.309 0 4.094 0.641 8.038 1.828 11.737l-0.075-0.272 2.496 7.976h9.6l1.974-6.304c-2.983-4.057-4.774-9.151-4.774-14.663 0-0.012 0-0.023 0-0.035v0.002z"></path>
<path d="M61.831 36.325q-0.068-0.525-0.159-1.042c-0.031-0.172-0.064-0.344-0.099-0.515q-0.105-0.511-0.235-1.016c-0.042-0.167-0.089-0.334-0.135-0.5q-0.214-0.75-0.477-1.471-0.179-0.484-0.375-0.954c-0.386-0.909-0.765-1.657-1.186-2.378l0.054 0.1q-0.25-0.44-0.526-0.866c-0.181-0.284-0.375-0.564-0.566-0.837q-0.439-0.625-0.92-1.201c-0.214-0.26-0.435-0.514-0.66-0.762s-0.459-0.491-0.696-0.729-0.48-0.47-0.729-0.696-0.5-0.446-0.763-0.66q-0.584-0.48-1.201-0.92c-0.274-0.196-0.554-0.385-0.837-0.566s-0.572-0.358-0.866-0.526c-0.621-0.367-1.37-0.746-2.143-1.080l-0.136-0.052q-0.47-0.199-0.954-0.375-0.721-0.266-1.471-0.479c-0.166-0.046-0.333-0.093-0.5-0.135q-0.5-0.125-1.016-0.235c-0.171-0.035-0.343-0.067-0.515-0.099q-0.517-0.093-1.042-0.159c-0.803-0.107-1.732-0.169-2.675-0.169s-1.872 0.061-2.782 0.18l0.107-0.011q-0.525 0.067-1.042 0.159c-0.172 0.031-0.344 0.064-0.515 0.099q-0.511 0.105-1.016 0.235c-0.167 0.043-0.334 0.089-0.5 0.135q-0.75 0.214-1.471 0.477-0.484 0.177-0.954 0.375c-0.909 0.386-1.657 0.765-2.378 1.186l0.1-0.054q-0.44 0.25-0.866 0.526c-0.284 0.181-0.564 0.375-0.837 0.566q-0.625 0.439-1.201 0.92c-0.26 0.214-0.514 0.435-0.762 0.66s-0.491 0.459-0.729 0.696-0.47 0.48-0.696 0.729-0.446 0.5-0.66 0.762q-0.48 0.584-0.92 1.201c-0.196 0.274-0.385 0.554-0.566 0.837s-0.358 0.573-0.526 0.866c-0.331 0.561-0.68 1.243-0.991 1.946l-0.052 0.132c-0.030 0.069-0.061 0.136-0.090 0.205q-0.199 0.47-0.375 0.954-0.265 0.716-0.479 1.466c-0.046 0.166-0.093 0.333-0.135 0.5q-0.125 0.5-0.235 1.016c-0.035 0.171-0.067 0.343-0.099 0.515q-0.093 0.517-0.159 1.042c-0.107 0.803-0.169 1.732-0.169 2.675s0.061 1.872 0.18 2.782l-0.011-0.107q0.067 0.525 0.159 1.042c0.031 0.172 0.064 0.344 0.099 0.515q0.105 0.511 0.235 1.016c0.043 0.167 0.089 0.334 0.135 0.5q0.214 0.75 0.477 1.471 0.177 0.484 0.375 0.954 0.273 0.64 0.582 1.258v0q0.262 0.517 0.55 1.021 0.25 0.441 0.526 0.866c0.181 0.284 0.375 0.564 0.566 0.837q0.439 0.625 0.92 1.201c0.214 0.26 0.435 0.514 0.66 0.763s0.459 0.491 0.696 0.729 0.48 0.47 0.729 0.696 0.5 0.446 0.762 0.66q0.584 0.48 1.201 0.92c0.274 0.196 0.554 0.385 0.837 0.566s0.573 0.358 0.866 0.526c0.621 0.367 1.37 0.746 2.143 1.080l0.136 0.052q0.47 0.199 0.954 0.375 0.724 0.265 1.471 0.477c0.166 0.046 0.333 0.093 0.5 0.135q0.5 0.125 1.016 0.235c0.171 0.035 0.343 0.068 0.515 0.099q0.517 0.093 1.042 0.159c0.803 0.107 1.732 0.169 2.675 0.169s1.872-0.061 2.782-0.18l-0.107 0.011q0.525-0.068 1.042-0.159c0.172-0.031 0.344-0.064 0.515-0.099q0.511-0.105 1.016-0.235c0.167-0.042 0.334-0.089 0.5-0.135q0.75-0.214 1.471-0.477 0.484-0.179 0.954-0.375c0.909-0.386 1.657-0.765 2.379-1.186l-0.1 0.054q0.441-0.25 0.866-0.526c0.284-0.181 0.564-0.375 0.837-0.566q0.625-0.439 1.201-0.92c0.26-0.214 0.514-0.435 0.763-0.66s0.491-0.459 0.729-0.696 0.47-0.48 0.696-0.729 0.446-0.5 0.66-0.763q0.48-0.584 0.92-1.201c0.196-0.274 0.385-0.554 0.566-0.837s0.358-0.572 0.526-0.866c0.367-0.621 0.746-1.37 1.080-2.143l0.052-0.136q0.199-0.47 0.375-0.954 0.265-0.724 0.477-1.471c0.046-0.166 0.093-0.333 0.135-0.5q0.125-0.5 0.235-1.016c0.035-0.171 0.068-0.343 0.099-0.515q0.093-0.517 0.159-1.042c0.107-0.803 0.169-1.732 0.169-2.675s-0.061-1.872-0.18-2.782l0.011 0.107zM41 40c-1.657 0-3-1.343-3-3s1.343-3 3-3c1.657 0 3 1.343 3 3v0c0 1.657-1.343 3-3 3v0zM42 30c-1.657 0-3-1.343-3-3s1.343-3 3-3c1.657 0 3 1.343 3 3v0c0 1.657-1.343 3-3 3v0zM51 36c-1.657 0-3-1.343-3-3s1.343-3 3-3c1.657 0 3 1.343 3 3v0c0 1.657-1.343 3-3 3v0z"></path>
</svg>
