<!-- Generated by IcoMoon.io -->
<svg version="1.1" xmlns="http://www.w3.org/2000/svg" width="64" height="64" viewBox="0 0 64 64">
<title>bowling-pins</title>
<path d="M46.731 16.75h8.538l1.063-6.306c0.048-0.27 0.075-0.581 0.075-0.897 0-2.986-2.42-5.406-5.406-5.406 0 0 0 0 0 0v0c0 0 0 0 0 0-2.986 0-5.406 2.42-5.406 5.406 0 0.317 0.027 0.628 0.080 0.93l-0.005-0.032z"></path>
<path d="M56.227 23.616v0c-0.444-0.68-0.797-1.468-1.015-2.311l-0.012-0.055h-8.4c-0.231 0.898-0.584 1.687-1.046 2.397l0.019-0.031c-0.831 1.273-1.582 2.735-2.177 4.274l-0.055 0.162c1.641 3.635 2.597 7.881 2.597 12.351 0 3.008-0.433 5.915-1.24 8.661l0.055-0.217 1.788 5.013h8.523l3.364-9.421c0.873-2.373 1.378-5.114 1.378-7.973 0-4.773-1.408-9.218-3.832-12.941l0.056 0.092z"></path>
<path d="M20.46 28.052c-0.65-1.702-1.401-3.163-2.289-4.528l0.056 0.092c-0.444-0.68-0.797-1.468-1.015-2.311l-0.012-0.055h-8.4c-0.231 0.898-0.584 1.687-1.046 2.397l0.019-0.031c-2.368 3.631-3.776 8.076-3.776 12.849 0 2.859 0.505 5.6 1.431 8.139l-0.053-0.165 3.359 9.421h8.522l1.788-5.013c-0.752-2.53-1.185-5.437-1.185-8.444 0-4.469 0.956-8.715 2.674-12.545l-0.078 0.194z"></path>
<path d="M8.731 16.75h8.537l1.063-6.306c0.048-0.27 0.075-0.581 0.075-0.897 0-2.986-2.42-5.406-5.406-5.406 0 0 0 0 0 0v0c0 0 0 0 0 0-2.986 0-5.406 2.42-5.406 5.406 0 0.317 0.027 0.628 0.080 0.93l-0.005-0.032z"></path>
<path d="M26.948 16.75l0.336 2h9.433l0.336-2 0.947-5.65c0.055-0.307 0.086-0.66 0.086-1.021 0-0.005 0-0.009 0-0.014v0.001c-0.003-1.382-0.469-2.655-1.251-3.672l0.011 0.014c-0.137-0.181-0.273-0.342-0.417-0.494l0.002 0.003c-0.074-0.079-0.149-0.155-0.226-0.23-1.092-1.045-2.575-1.687-4.209-1.687s-3.117 0.643-4.211 1.69l0.002-0.002c-0.456 0.438-0.843 0.944-1.146 1.501l-0.016 0.032c-0.451 0.827-0.717 1.812-0.717 2.859 0 0.359 0.031 0.71 0.091 1.052l-0.005-0.036z"></path>
<path d="M42.093 38.859c-0.030-0.5-0.072-1.008-0.131-1.51-0.135-1.16-0.316-2.175-0.552-3.169l0.037 0.183q-0.172-0.739-0.385-1.469c-0.342-1.168-0.69-2.122-1.088-3.049l0.067 0.174q-0.29-0.703-0.635-1.394t-0.718-1.363q-0.375-0.672-0.8-1.328v0c-0.503-0.771-0.902-1.666-1.149-2.622l-0.014-0.063h-9.45c-0.26 1.019-0.659 1.915-1.184 2.721l0.021-0.035q-0.42 0.654-0.8 1.328t-0.718 1.361q-0.34 0.69-0.635 1.395c-0.332 0.753-0.679 1.707-0.972 2.685l-0.049 0.19q-0.214 0.73-0.385 1.469c-0.199 0.811-0.38 1.826-0.503 2.859l-0.012 0.127c-0.059 0.5-0.101 1-0.131 1.51s-0.044 1-0.044 1.5v0.015c0 0.010 0 0.023 0 0.035 0 3.22 0.569 6.306 1.613 9.165l-0.059-0.186 3.782 10.611h9.6l3.782-10.611c0.984-2.673 1.554-5.759 1.554-8.979 0-0.012 0-0.024 0-0.037v0.002-0.011q0-0.754-0.044-1.505z"></path>
</svg>
