<!-- Generated by IcoMoon.io -->
<svg version="1.1" xmlns="http://www.w3.org/2000/svg" width="64" height="64" viewBox="0 0 64 64">
<title>braille</title>
<path d="M55 42c-2.209 0-4 1.791-4 4v0 3h-2v-5c0-2.209-1.791-4-4-4s-4 1.791-4 4v0 5h-2v-7c0-2.209-1.791-4-4-4s-4 1.791-4 4v0 7h-2v-18c0-2.209-1.791-4-4-4s-4 1.791-4 4v0 25h-2v-5c0-4.418-3.582-8-8-8v0c-0.552 0-1 0.448-1 1v0 18h49v-16c0-2.209-1.791-4-4-4v0z"></path>
<path d="M12 24c0 2.209-1.791 4-4 4s-4-1.791-4-4c0-2.209 1.791-4 4-4s4 1.791 4 4z"></path>
<path d="M44 24c0 2.209-1.791 4-4 4s-4-1.791-4-4c0-2.209 1.791-4 4-4s4 1.791 4 4z"></path>
<path d="M27 8c0 2.209-1.791 4-4 4s-4-1.791-4-4c0-2.209 1.791-4 4-4s4 1.791 4 4z"></path>
<path d="M60 24c0 2.209-1.791 4-4 4s-4-1.791-4-4c0-2.209 1.791-4 4-4s4 1.791 4 4z"></path>
<path d="M60 8c0 2.209-1.791 4-4 4s-4-1.791-4-4c0-2.209 1.791-4 4-4s4 1.791 4 4z"></path>
<path d="M44 8c0 2.209-1.791 4-4 4s-4-1.791-4-4c0-2.209 1.791-4 4-4s4 1.791 4 4z"></path>
</svg>
