<!-- Generated by IcoMoon.io -->
<svg version="1.1" xmlns="http://www.w3.org/2000/svg" width="64" height="64" viewBox="0 0 64 64">
<title>branding-watermark</title>
<path d="M59 9h-54c-1.656 0.002-2.998 1.344-3 3v40c0.002 1.656 1.344 2.998 3 3h54c1.656-0.002 2.998-1.344 3-3v-40c-0.002-1.656-1.344-2.998-3-3h-0zM28.5 50h-4.5v-4.5h4.5zM28.5 40.4h-4.5v-4.5h4.5zM28.5 30.8h-4.5v-4.5h4.5zM38.1 50h-4.5v-4.5h4.5zM38.1 30.8h-4.5v-4.5h4.5zM47.7 50h-4.5v-4.5h4.5zM47.7 30.8h-4.5v-4.5h4.5zM57.3 50h-4.5v-4.5h4.5zM57.3 40.4h-4.5v-4.5h4.5zM57.3 30.8h-4.5v-4.5h4.5z"></path>
</svg>
