<!-- Generated by IcoMoon.io -->
<svg version="1.1" xmlns="http://www.w3.org/2000/svg" width="64" height="64" viewBox="0 0 64 64">
<title>briefcase</title>
<path d="M58.875 14.029h-12.826l0.006-11.984h-26.777l-0.006 11.984h-14.147c-1.709 0.002-3.094 1.387-3.096 3.096v7.722l9.903 9.903h17.818v-5.688h4.5v5.688h17.818l9.903-9.903v-7.722c-0.002-1.709-1.387-3.094-3.096-3.096h-0zM40.799 14.029h-16.277l0.003-6.734h16.278z"></path>
<path d="M53.932 39.25h-19.682v5.75h-4.5v-5.75h-19.682l-8.039-8.039v27.668c0.002 1.709 1.387 3.094 3.096 3.096h53.75c1.709-0.002 3.094-1.387 3.096-3.096v-27.668l-4.192 4.192z"></path>
</svg>
