<!-- Generated by IcoMoon.io -->
<svg version="1.1" xmlns="http://www.w3.org/2000/svg" width="64" height="64" viewBox="0 0 64 64">
<title>briefcase-slash</title>
<path d="M53.932 39.25h-4.561l12.6 12.6v-20.639l-8.039 8.039z"></path>
<path d="M61.971 58.224v-0.011l-56.224-56.214h-3.747v3.678l8.351 8.351h-5.226c-1.709 0.002-3.094 1.387-3.096 3.096v7.722l9.903 9.903h19.14l4.5 4.5h-25.504l-8.039-8.039v27.668c0.002 1.709 1.387 3.094 3.096 3.096l56.875 0.025v-3.747z"></path>
<path d="M28.342 18.221l16.529 16.529h7.197l9.903-9.903v-7.722c-0.002-1.709-1.387-3.094-3.096-3.096h-12.826l0.006-11.984h-26.777l-0.004 7.108 5.247 5.247zM24.525 7.295h16.278l-0.004 6.734h-16.277z"></path>
</svg>
