<!-- Generated by IcoMoon.io -->
<svg version="1.1" xmlns="http://www.w3.org/2000/svg" width="64" height="64" viewBox="0 0 64 64">
<title>brightness-low</title>
<path d="M51.878 39.873l10.497-7.873-10.484-7.863-0.268-0.626 1.856-12.989-12.973 1.853-0.633-0.253-7.873-10.497-7.863 10.484-0.626 0.268-12.989-1.856 1.853 12.973-0.253 0.633-10.497 7.873 10.484 7.863 0.268 0.626-1.856 12.989 12.973-1.853 0.633 0.253 7.873 10.497 7.863-10.484 0.626-0.269 12.989 1.856-1.853-12.973zM46.609 42.516c-1.153 1.587-2.506 2.94-4.041 4.057l-0.052 0.036c-2.147 1.566-4.723 2.679-7.518 3.144l-0.105 0.014c-0.87 0.148-1.872 0.233-2.893 0.233s-2.023-0.085-2.999-0.247l0.106 0.015c-2.9-0.48-5.476-1.593-7.674-3.194l0.051 0.035c-1.587-1.153-2.94-2.506-4.057-4.041l-0.036-0.052c-1.566-2.147-2.679-4.723-3.144-7.519l-0.014-0.105c-0.148-0.87-0.233-1.872-0.233-2.893s0.085-2.023 0.247-2.999l-0.015 0.106c0.48-2.9 1.593-5.476 3.194-7.674l-0.035 0.051c1.153-1.587 2.506-2.94 4.041-4.057l0.052-0.036c2.147-1.566 4.723-2.679 7.518-3.144l0.105-0.014c0.87-0.148 1.872-0.233 2.893-0.233s2.023 0.085 2.999 0.247l-0.106-0.015c2.9 0.48 5.476 1.593 7.674 3.194l-0.051-0.035c1.587 1.153 2.94 2.506 4.057 4.041l0.036 0.052c1.566 2.147 2.679 4.723 3.144 7.518l0.014 0.105c0.148 0.87 0.233 1.872 0.233 2.893s-0.085 2.023-0.247 2.999l0.015-0.106c-0.48 2.9-1.593 5.476-3.194 7.674l0.035-0.051z"></path>
</svg>
