<!-- Generated by IcoMoon.io -->
<svg version="1.1" xmlns="http://www.w3.org/2000/svg" width="64" height="64" viewBox="0 0 64 64">
<title>brightness-auto</title>
<path d="M31.959 24.25l-2.98 8.5h6.043l-2.98-8.5h-0.082z"></path>
<path d="M51.878 39.873l10.497-7.873-10.484-7.863-0.269-0.626 1.856-12.989-12.973 1.853-0.633-0.253-7.873-10.497-7.863 10.484-0.626 0.268-12.989-1.856 1.853 12.973-0.253 0.633-10.497 7.873 10.484 7.863 0.268 0.626-1.856 12.989 12.973-1.853 0.633 0.253 7.873 10.497 7.863-10.484 0.626-0.269 12.989 1.856-1.853-12.973zM36.6 37.25h-9.199l-1.666 4.75h-4.769l7.802-22.25h6.463l7.802 22.25h-4.769z"></path>
</svg>
