<!-- Generated by IcoMoon.io -->
<svg version="1.1" xmlns="http://www.w3.org/2000/svg" width="64" height="64" viewBox="0 0 64 64">
<title>brightness</title>
<path d="M59 2h-54c-1.656 0.002-2.998 1.344-3 3v54c0.002 1.656 1.344 2.998 3 3h54c1.656-0.002 2.998-1.344 3-3v-54c-0.002-1.656-1.344-2.998-3-3h-0zM46.142 46.142l-7.887-1.127-1.498 0.642-4.757 6.342-4.78-6.374-1.514-0.605-7.848 1.121 1.127-7.887-0.642-1.498-6.342-4.757 6.374-4.78 0.605-1.514-1.121-7.848 7.887 1.127 1.498-0.642 4.757-6.342 4.78 6.374 1.514 0.605 7.848-1.121-1.127 7.887 0.642 1.498 6.342 4.757-6.374 4.78-0.605 1.514z"></path>
</svg>
