<!-- Generated by IcoMoon.io -->
<svg version="1.1" xmlns="http://www.w3.org/2000/svg" width="64" height="64" viewBox="0 0 64 64">
<title>british-pound-slash</title>
<path d="M26.847 16.725c1.74-2.346 4.501-3.85 7.613-3.85 5.22 0 9.452 4.232 9.452 9.452 0 0.001 0 0.003 0 0.004v-0h-6c0-0 0-0 0-0 0-1.908-1.547-3.456-3.456-3.456-1.468 0-2.722 0.915-3.223 2.206l-0.008 0.024 26.442 26.442c1.922-3.112 3.314-6.763 3.947-10.67l0.023-0.171q0.161-1.022 0.252-2.066t0.11-2.107q0.005-0.266 0.005-0.532 0-1.165-0.087-2.308-0.058-0.762-0.154-1.513-0.048-0.375-0.105-0.748-0.114-0.745-0.264-1.477c-0.445-2.148-1.048-4.032-1.822-5.824l0.074 0.193q-0.285-0.673-0.601-1.329t-0.663-1.294-0.722-1.256q-0.752-1.237-1.617-2.393c-0.763-1.015-1.525-1.912-2.335-2.76l0.011 0.012q-0.745-0.781-1.545-1.508t-1.65-1.395-1.748-1.275q-0.599-0.404-1.217-0.78-0.309-0.188-0.623-0.369-0.628-0.361-1.275-0.693-1.294-0.663-2.657-1.201-0.681-0.269-1.378-0.505c-2.869-0.999-6.176-1.576-9.618-1.576-3.535 0-6.929 0.609-10.081 1.728l0.211-0.065q-0.44 0.153-0.874 0.32c-1.307 0.503-2.38 1-3.416 1.557l0.159-0.078q-0.293 0.155-0.582 0.316c-0.326 0.181-0.649 0.367-0.967 0.56l2.925 2.925z"></path>
<path d="M55.005 51.258l0.005-0.006-29.954-29.944c0-0.003 0.001-0.006 0.001-0.009l-19.31-19.3h-3.747v3.678l7.031 7.031c-4.37 5.177-7.027 11.924-7.027 19.292 0 9.015 3.977 17.101 10.271 22.599l0.035 0.030q0.355 0.309 0.72 0.607c0.759 0.625 1.606 1.25 2.485 1.831l0.113 0.070q0.217 0.142 0.437 0.28 0.669 0.42 1.36 0.805 0.289 0.161 0.582 0.316c0.877 0.478 1.949 0.976 3.054 1.409l0.203 0.070q0.434 0.166 0.874 0.32c2.939 1.058 6.331 1.67 9.865 1.67 7.369 0 14.117-2.66 19.336-7.071l-0.044 0.036 7.027 7.027h3.678v-3.747zM43 47.992h-23v-6h5v-6.992h-5v-6h5.322l5.678 6v6.992h7.314l4.686 4.686z"></path>
</svg>
