<!-- Generated by IcoMoon.io -->
<svg version="1.1" xmlns="http://www.w3.org/2000/svg" width="64" height="64" viewBox="0 0 64 64">
<title>broadcast-tower</title>
<path d="M49.052 27.251c1.63-2.798 2.592-6.159 2.592-9.744s-0.962-6.946-2.642-9.838l0.050 0.094-5.208 2.976c1.132 1.943 1.8 4.278 1.8 6.768s-0.668 4.824-1.835 6.833l0.035-0.065z"></path>
<path d="M20.156 24.275c-1.132-1.943-1.8-4.278-1.8-6.768s0.668-4.824 1.835-6.833l-0.035 0.065-5.208-2.976c-1.63 2.798-2.592 6.159-2.592 9.744s0.962 6.946 2.642 9.838l-0.050-0.094z"></path>
<path d="M58.7 2.25l-5.224 2.985c2.053 3.524 3.264 7.756 3.264 12.272s-1.212 8.748-3.327 12.39l0.063-0.118 5.224 2.985c2.541-4.384 4.040-9.645 4.040-15.257s-1.499-10.873-4.119-15.406l0.079 0.149z"></path>
<path d="M5.3 2.25c-2.541 4.384-4.040 9.645-4.040 15.257s1.499 10.873 4.119 15.406l-0.079-0.149 5.224-2.985c-2.053-3.524-3.264-7.756-3.264-12.272s1.212-8.748 3.327-12.39l-0.063 0.118z"></path>
<path d="M40.5 18.5c0-0.003 0-0.006 0-0.009 0-4.694-3.806-8.5-8.5-8.5s-8.5 3.806-8.5 8.5c0 1.976 0.674 3.794 1.805 5.237l-0.014-0.019-12.764 38.291h6.325l5.324-15.973h16.259l5.768 15.973h6.32l0.052-0.019-13.835-38.311c1.097-1.412 1.76-3.21 1.76-5.163 0-0.002 0-0.005 0-0.007v0zM26.176 40.027l4.384-13.152c0.433 0.079 0.931 0.125 1.44 0.125 0.535 0 1.059-0.050 1.566-0.146l-0.052 0.008 4.754 13.165z"></path>
</svg>
