<!-- Generated by IcoMoon.io -->
<svg version="1.1" xmlns="http://www.w3.org/2000/svg" width="64" height="64" viewBox="0 0 64 64">
<title>brush</title>
<path d="M24.018 26.7c-0.349-0.025-0.699-0.041-1.047-0.041-0.007 0-0.015 0-0.023 0-6.419 0-11.867 4.162-13.79 9.935l-0.030 0.103-6.848 20.943c-0.106 0.314-0.168 0.676-0.168 1.053 0 1.87 1.513 3.387 3.382 3.392h0c0.379-0 0.744-0.062 1.084-0.177l-0.024 0.007 20.943-6.848c5.876-1.953 10.038-7.401 10.038-13.82 0-0.008 0-0.016 0-0.024v0.001c0-0.348-0.014-0.697-0.039-1.046z"></path>
<path d="M60.33 3.878c-1.091-1.117-2.613-1.809-4.296-1.809-1.452 0-2.783 0.515-3.822 1.373l0.010-0.008-24.666 20.441 12.621 12.621 20.458-24.642c0.859-1.027 1.381-2.362 1.381-3.818 0-1.617-0.643-3.084-1.687-4.159l0.001 0.001z"></path>
</svg>
