<!-- Generated by IcoMoon.io -->
<svg version="1.1" xmlns="http://www.w3.org/2000/svg" width="64" height="64" viewBox="0 0 64 64">
<title>brush-alt</title>
<path d="M11 40.25h-4v21.75h50v-21.75h-46z"></path>
<path d="M51 25h-10.827l1.634-13.283 0.009-0.085c0.020-0.235 0.031-0.509 0.031-0.785 0-5.438-4.409-9.847-9.847-9.847s-9.847 4.409-9.847 9.847c0 0.276 0.011 0.55 0.034 0.821l-0.002-0.035 0.003 0.042 1.639 13.325h-10.827c-3.312 0.004-5.996 2.688-6 6v4.75h50v-4.75c-0.004-3.312-2.688-5.996-6-6h-0z"></path>
</svg>
