<!-- Generated by IcoMoon.io -->
<svg version="1.1" xmlns="http://www.w3.org/2000/svg" width="64" height="64" viewBox="0 0 64 64">
<title>bug</title>
<path d="M52 28.638l10.001-2.235-0.003-11.404-6 0.002 0.002 6.596-6.502 1.453-5.497 0.001v-3.505c0-0.006 0-0.012 0-0.019 0-2.426-0.716-4.684-1.948-6.576l0.028 0.047 4.962-4.99h4.939v-6h-7.435l-6.857 6.897c-1.673-0.933-3.671-1.483-5.797-1.483-0.006 0-0.013 0-0.019 0h0.001c-0.005 0-0.011 0-0.017 0-2.078 0-4.034 0.525-5.741 1.45l0.064-0.032-6.745-6.84-7.438 0.007 0.005 6 4.925-0.004 4.815 4.883c-1.249 1.87-1.993 4.17-1.993 6.643 0 0.006 0 0.013 0 0.019v-0.001 3.509l-5.175 0.001-6.575-1.456v-6.594h-6v11.411l10 2.215 0.001 7.37h-10.001v6h10.002c0.004 2.057 0.317 4.040 0.895 5.907l-0.038-0.142-10.859 2.94v11.296h6v-6.704l7.498-2.030c3.156 4.581 8.083 7.748 13.77 8.516l0.103 0.011v-28.793h5.25v28.782c5.785-0.799 10.706-3.962 13.831-8.465l0.044-0.066 7.505 2.041v6.707h6v-11.293l-10.856-2.953c0.541-1.721 0.853-3.701 0.855-5.754v-0.001h10.001v-6h-10z"></path>
</svg>
