<!-- Generated by IcoMoon.io -->
<svg version="1.1" xmlns="http://www.w3.org/2000/svg" width="64" height="64" viewBox="0 0 64 64">
<title>building-business-slash</title>
<path d="M37.034 2h-24.949l24.949 24.916v-24.916z"></path>
<path d="M41 20v10.879l8.25 8.25v-2.129h4.5v4.5h-2.129l10.379 10.379v-31.879zM53.75 31.5h-4.5v-4.5h4.5z"></path>
<path d="M2.034 2h-0.034l0.034 60h15.25v-9h4.5v9h15.25v-21.289l3.966 3.966v17.322h21v-3.693l-56.286-56.307zM22.534 26.211l2.788 2.789h-2.788zM22.534 35h4.5v4.5h-4.5zM12.034 24.5h4.5v4.5h-4.5zM12.034 35h4.5v4.5h-4.5z"></path>
</svg>
