<!-- Generated by IcoMoon.io -->
<svg version="1.1" xmlns="http://www.w3.org/2000/svg" width="64" height="64" viewBox="0 0 64 64">
<title>burger</title>
<path d="M51.59 8.127c-4.447-2.623-10.318-4.068-16.531-4.068h-5.118c-6.213 0-12.083 1.445-16.531 4.068-4.779 2.819-7.41 6.68-7.41 10.873v2h53v-2c0-4.193-2.632-8.055-7.41-10.873z"></path>
<path d="M6 37h53v5.25h-53v-5.25z"></path>
<path d="M48.4 25c-3.238 0-5.002 0.832-6.42 1.501-1.23 0.58-2.118 0.999-4.18 0.999s-2.95-0.419-4.18-0.999c-1.418-0.669-3.182-1.501-6.42-1.501s-5.002 0.832-6.42 1.501c-1.23 0.58-2.118 0.999-4.18 0.999s-2.95-0.419-4.18-0.999c-1.418-0.669-3.182-1.501-6.42-1.501v5.25c2.062 0 2.95 0.419 4.18 0.999 1.418 0.669 3.182 1.501 6.42 1.501s5.002-0.832 6.42-1.501c1.23-0.58 2.118-0.999 4.18-0.999s2.95 0.419 4.18 0.999c1.418 0.669 3.182 1.501 6.42 1.501s5.002-0.832 6.42-1.501c1.23-0.58 2.118-0.999 4.18-0.999s2.951 0.419 4.18 0.999c1.418 0.669 3.182 1.501 6.42 1.501v-5.25c-2.062 0-2.951-0.419-4.18-0.999-1.418-0.669-3.182-1.501-6.42-1.501z"></path>
<path d="M6 57c0.002 1.656 1.344 2.998 3 3h47c1.656-0.002 2.998-1.344 3-3v-10h-53z"></path>
</svg>
