<!-- Generated by IcoMoon.io -->
<svg version="1.1" xmlns="http://www.w3.org/2000/svg" width="64" height="64" viewBox="0 0 64 64">
<title>bus-alt</title>
<path d="M2 28.9v18.1h3.050c0.531-5.071 4.783-8.989 9.95-8.989s9.419 3.918 9.946 8.946l0.004 0.043h12.1c0.531-5.071 4.783-8.989 9.95-8.989s9.419 3.918 9.946 8.946l0.004 0.043h5.050v-18.1z"></path>
<path d="M61.458 22.595l-6.222-8.889c-0.733-1.037-1.927-1.705-3.277-1.706h-45.959c-2.208 0.003-3.997 1.792-4 4v8.9h60v-0.584c0-0.001 0-0.003 0-0.005 0-0.643-0.203-1.238-0.549-1.725l0.006 0.009z"></path>
<path d="M21 48c0 3.314-2.686 6-6 6s-6-2.686-6-6c0-3.314 2.686-6 6-6s6 2.686 6 6z"></path>
<path d="M53 48c0 3.314-2.686 6-6 6s-6-2.686-6-6c0-3.314 2.686-6 6-6s6 2.686 6 6z"></path>
</svg>
