<!-- Generated by IcoMoon.io -->
<svg version="1.1" xmlns="http://www.w3.org/2000/svg" width="64" height="64" viewBox="0 0 64 64">
<title>bus-timer</title>
<path d="M40.515 30c-5.491-2.618-9.218-8.124-9.218-14.501 0-3.575 1.172-6.877 3.152-9.542l-0.030 0.043c1.182-1.583 2.601-2.912 4.218-3.962l0.063-0.038h-26.7c-3.312 0.004-5.996 2.688-6 6v22h34.515z"></path>
<path d="M6 34v15.932c0.003 2.208 1.792 3.997 4 4h2v5.818c0.001 1.242 1.008 2.249 2.25 2.25h8.5c1.242-0.001 2.249-1.008 2.25-2.25v-5.818h14v5.818c0.001 1.242 1.008 2.249 2.25 2.25h8.5c1.242-0.001 2.249-1.008 2.25-2.25v-5.818h2c2.208-0.003 3.997-1.792 4-4v-15.932zM45 39c2.209 0 4 1.791 4 4s-1.791 4-4 4c-2.209 0-4-1.791-4-4v0c0-2.209 1.791-4 4-4v0zM18 39c2.209 0 4 1.791 4 4s-1.791 4-4 4c-2.209 0-4-1.791-4-4v0c0-2.209 1.791-4 4-4v0z"></path>
<path d="M38.25 8.4q-0.171 0.217-0.331 0.443t-0.31 0.459q-0.224 0.35-0.424 0.717t-0.372 0.749-0.318 0.779-0.262 0.806c-0.277 0.943-0.436 2.026-0.436 3.146 0 1.42 0.256 2.779 0.724 4.036l-0.026-0.080q0.097 0.264 0.206 0.522 0.055 0.129 0.112 0.256 0.173 0.382 0.372 0.749c0.261 0.478 0.517 0.88 0.797 1.265l-0.023-0.033q0.141 0.196 0.291 0.387 0.171 0.217 0.352 0.426 0.271 0.313 0.564 0.606t0.606 0.564q0.209 0.181 0.426 0.352t0.443 0.331c0.853 0.614 1.836 1.128 2.888 1.493l0.081 0.024q0.401 0.136 0.814 0.242 0.138 0.035 0.277 0.068 0.278 0.064 0.561 0.115c0.612 0.114 1.317 0.18 2.036 0.18 0.618 0 1.225-0.048 1.816-0.141l-0.066 0.009q0.285-0.044 0.566-0.101 0.463-0.095 0.911-0.227c0.154-0.045 0.308-0.093 0.459-0.144q0.134-0.045 0.266-0.094c0.601-0.221 1.104-0.454 1.586-0.72l-0.059 0.030q0.122-0.066 0.243-0.136c0.426-0.246 0.783-0.483 1.126-0.739l-0.031 0.022q0.056-0.041 0.112-0.083 0.173-0.131 0.341-0.268 0.128-0.104 0.253-0.212 0.111-0.096 0.22-0.196 0.197-0.18 0.386-0.368c0.465-0.465 0.89-0.97 1.271-1.508l0.024-0.036q0.107-0.153 0.21-0.31 0.303-0.464 0.561-0.957 0.044-0.084 0.086-0.168c0.767-1.5 1.217-3.273 1.217-5.15 0-4.246-2.3-7.955-5.721-9.949l-0.055-0.029q-0.12-0.069-0.243-0.136c-0.423-0.236-0.927-0.469-1.449-0.664l-0.079-0.026q-0.132-0.048-0.266-0.094c-0.367-0.131-0.826-0.259-1.296-0.357l-0.074-0.013q-0.281-0.058-0.566-0.101c-0.526-0.084-1.133-0.133-1.751-0.133-0.72 0-1.424 0.065-2.108 0.19l0.071-0.011q-0.283 0.051-0.561 0.115-0.139 0.032-0.277 0.068-0.276 0.071-0.546 0.155c-1.411 0.447-2.635 1.107-3.704 1.954l0.024-0.018q-0.217 0.171-0.426 0.351-0.104 0.090-0.206 0.183-0.204 0.186-0.399 0.381-0.293 0.293-0.564 0.606-0.181 0.209-0.352 0.426zM45.259 9h4v5.685l4.698 2.559-1.914 3.512-6.784-3.696z"></path>
</svg>
