<!-- Generated by IcoMoon.io -->
<svg version="1.1" xmlns="http://www.w3.org/2000/svg" width="64" height="64" viewBox="0 0 64 64">
<title>bus</title>
<path d="M6 34v15.932c0.003 2.208 1.792 3.997 4 4h2v5.818c0.001 1.242 1.008 2.249 2.25 2.25h8.5c1.242-0.001 2.249-1.008 2.25-2.25v-5.818h14v5.818c0.001 1.242 1.008 2.249 2.25 2.25h8.5c1.242-0.001 2.249-1.008 2.25-2.25v-5.818h2c2.208-0.003 3.997-1.792 4-4v-15.932zM45 39c2.209 0 4 1.791 4 4s-1.791 4-4 4c-2.209 0-4-1.791-4-4v0c0-2.209 1.791-4 4-4v0zM18 39c2.209 0 4 1.791 4 4s-1.791 4-4 4c-2.209 0-4-1.791-4-4v0c0-2.209 1.791-4 4-4v0z"></path>
<path d="M52 2h-40c-3.312 0.004-5.996 2.688-6 6v22h52v-22c-0.004-3.312-2.688-5.996-6-6h-0z"></path>
</svg>
