<!-- Generated by IcoMoon.io -->
<svg version="1.1" xmlns="http://www.w3.org/2000/svg" width="64" height="64" viewBox="0 0 64 64">
<title>calculator</title>
<path d="M59 5h-54c-1.656 0.002-2.998 1.344-3 3v48c0.002 1.656 1.344 2.998 3 3h54c1.656-0.002 2.998-1.344 3-3v-48c-0.002-1.656-1.344-2.998-3-3h-0zM27.541 46.309l-3.182 3.182-3.359-3.359-3.359 3.359-3.182-3.182 3.359-3.359-3.359-3.359 3.182-3.182 3.359 3.359 3.359-3.359 3.182 3.182-3.359 3.359zM28 23.25h-4.75v4.75h-4.5v-4.75h-4.75v-4.5h4.75v-4.75h4.5v4.75h4.75zM50 49.2h-14v-4.5h14zM50 41.2h-14v-4.5h14zM50 23.25h-14v-4.5h14z"></path>
</svg>
