<!-- Generated by IcoMoon.io -->
<svg version="1.1" xmlns="http://www.w3.org/2000/svg" width="64" height="64" viewBox="0 0 64 64">
<title>call-swap-calls</title>
<path d="M62.109 17.866l-12.189-12.046-12.043 12.060 4.246 4.239 4.87-4.877v28.761c0 3.312-2.685 5.996-5.996 5.996s-5.996-2.685-5.996-5.996v0-27.007c0-6.627-5.373-12-12-12s-12 5.373-12 12v0 27.704l-4.891-4.834-4.218 4.267 12.189 12.046 12.043-12.060-4.246-4.239-4.877 4.884v-27.768c0-3.314 2.686-6 6-6s6 2.686 6 6v0 27.007c0 6.625 5.371 11.996 11.996 11.996s11.996-5.371 11.996-11.996v0-28.711l4.898 4.841z"></path>
</svg>
