<!-- Generated by IcoMoon.io -->
<svg version="1.1" xmlns="http://www.w3.org/2000/svg" width="64" height="64" viewBox="0 0 64 64">
<title>camera-control</title>
<path d="M41 32c0 4.971-4.029 9-9 9s-9-4.029-9-9c0-4.971 4.029-9 9-9s9 4.029 9 9z"></path>
<path d="M31.574 2l-11.574 13v1h24v-1l-11.574-13h-0.852z"></path>
<path d="M20 49l11.574 13h0.852l11.574-13v-1h-24v1z"></path>
<path d="M49 20h-1v24h1l13-11.574v-0.852l-13-11.574z"></path>
<path d="M2 31.574v0.852l13 11.574h1v-24h-1l-13 11.574z"></path>
</svg>
