<!-- Generated by IcoMoon.io -->
<svg version="1.1" xmlns="http://www.w3.org/2000/svg" width="64" height="64" viewBox="0 0 64 64">
<title>camera-plus</title>
<path d="M60 15h-12.386l-2.978-7.72c-0.297-0.755-1.020-1.28-1.866-1.28h-20.606c0.529 1.333 0.835 2.878 0.835 4.494 0 6.729-5.314 12.216-11.975 12.494l-0.025 0.001v0.011h-9v34c0 1.105 0.895 2 2 2v0h56c1.105 0 2-0.895 2-2v0-40c0-1.105-0.895-2-2-2v0zM32 48.25c-7.18 0-13-5.82-13-13s5.82-13 13-13c7.18 0 13 5.82 13 13v0c0 7.18-5.82 13-13 13v0z"></path>
<path d="M8.25 19h4.5v-6.25h6.25v-4.5h-6.25v-6.25h-4.5v6.25h-6.25v4.5h6.25v6.25z"></path>
</svg>
