<!-- Generated by IcoMoon.io -->
<svg version="1.1" xmlns="http://www.w3.org/2000/svg" width="64" height="64" viewBox="0 0 64 64">
<title>camera-roll</title>
<path d="M41 17v-4c-0.003-2.208-1.792-3.997-4-4h-2v-3c-0.003-2.208-1.792-3.997-4-4h-19c-2.208 0.003-3.997 1.792-4 4v3h-2c-2.208 0.003-3.997 1.792-4 4v45c0.003 2.208 1.792 3.997 4 4h31c2.208-0.003 3.997-1.792 4-4v-3h21v-38zM29 47h-5v-5h5zM29 30h-5v-5h5zM38 47h-5v-5h5zM38 30h-5v-5h5zM47 47h-5v-5h5zM47 30h-5v-5h5zM56 47h-5v-5h5zM56 30h-5v-5h5z"></path>
</svg>
