<!-- Generated by IcoMoon.io -->
<svg version="1.1" xmlns="http://www.w3.org/2000/svg" width="64" height="64" viewBox="0 0 64 64">
<title>camera</title>
<path d="M60 15h-12.386l-2.978-7.72c-0.297-0.755-1.020-1.28-1.866-1.28h-21.6c0 0 0 0 0 0-0.85 0-1.576 0.53-1.866 1.278l-0.005 0.014-2.921 7.709h-12.379c-1.105 0-2 0.895-2 2v0 40c0 1.105 0.895 2 2 2v0h56c1.105 0 2-0.895 2-2v0-40c0-1.105-0.895-2-2-2v0zM32 48.25c-7.18 0-13-5.82-13-13s5.82-13 13-13c7.18 0 13 5.82 13 13v0c0 7.18-5.82 13-13 13v0z"></path>
</svg>
