<!-- Generated by IcoMoon.io -->
<svg version="1.1" xmlns="http://www.w3.org/2000/svg" width="64" height="64" viewBox="0 0 64 64">
<title>car-alt</title>
<path d="M59.457 27.893l-6.606-1.018h-50.851v18.907h5c0-5.523 4.477-10 10-10s10 4.477 10 10v0h9c0-5.523 4.477-10 10-10s10 4.477 10 10v0h6v-14.924c0-0.004 0-0.009 0-0.014 0-1.492-1.096-2.729-2.526-2.949l-0.017-0.002z"></path>
<path d="M46.681 22.875l-5.336-10.884-0.049-0.080c-0.722-1.155-1.987-1.911-3.428-1.911-0.005 0-0.011 0-0.016 0h0.001l-28.82 0.23c-1.739 0.015-3.212 1.136-3.75 2.694l-0.008 0.028-3.275 9.923z"></path>
<path d="M23 45.782c0 3.314-2.686 6-6 6s-6-2.686-6-6c0-3.314 2.686-6 6-6s6 2.686 6 6z"></path>
<path d="M52 45.782c0 3.314-2.686 6-6 6s-6-2.686-6-6c0-3.314 2.686-6 6-6s6 2.686 6 6z"></path>
</svg>
