<!-- Generated by IcoMoon.io -->
<svg version="1.1" xmlns="http://www.w3.org/2000/svg" width="64" height="64" viewBox="0 0 64 64">
<title>car</title>
<path d="M56 33h-52v16.932c0.003 2.208 1.792 3.997 4 4h0v5.818c0.001 1.242 1.008 2.249 2.25 2.25h8.5c1.242-0.001 2.249-1.008 2.25-2.25v-5.818h22v5.818c0.001 1.242 1.008 2.249 2.25 2.25h8.5c1.242-0.001 2.249-1.008 2.25-2.25v-5.818c2.208-0.003 3.997-1.792 4-4v-16.932zM45 37.932c2.209 0 4 1.791 4 4s-1.791 4-4 4c-2.209 0-4-1.791-4-4v0c0-2.209 1.791-4 4-4v0zM18 37.932c2.209 0 4 1.791 4 4s-1.791 4-4 4c-2.209 0-4-1.791-4-4v0c0-2.209 1.791-4 4-4v0z"></path>
<path d="M50.837 14.95c-0.867-2.321-3.063-3.944-5.638-3.95h-26.397c-2.576 0.006-4.772 1.629-5.625 3.908l-0.014 0.042-5.109 14.050h47.893z"></path>
</svg>
