<!-- Generated by IcoMoon.io -->
<svg version="1.1" xmlns="http://www.w3.org/2000/svg" width="64" height="64" viewBox="0 0 64 64">
<title>card-giftcard</title>
<path d="M6 49h-4v8c0.002 1.656 1.344 2.998 3 3h54c1.656-0.002 2.998-1.344 3-3v-8h-56z"></path>
<path d="M59 17.194h-11.345c0.845-1.436 1.345-3.163 1.345-5.007 0-5.519-4.474-9.993-9.993-9.993-2.73 0-5.204 1.095-7.008 2.869l0.001-0.001c-1.802-1.773-4.277-2.868-7.007-2.868-5.519 0-9.993 4.474-9.993 9.993 0 1.844 0.5 3.572 1.371 5.055l-0.026-0.047h-11.345c-1.656 0.002-2.998 1.344-3 3v20.807h60v-20.806c-0.002-1.656-1.344-2.998-3-3h-0zM25 8.194c2.208 0.003 3.997 1.792 4 4v4h-4c-2.209 0-4-1.791-4-4s1.791-4 4-4v0zM28.093 28.438h-6.634l2.955-6.262c0.194 0.011 6.626 0.019 6.626 0.019zM35.881 28.438l-2.947-6.244s6.441-0.006 6.627-0.017l2.954 6.261zM39 16.194h-4v-4c0-2.209 1.791-4 4-4s4 1.791 4 4c0 2.209-1.791 4-4 4v0z"></path>
</svg>
