<!-- Generated by IcoMoon.io -->
<svg version="1.1" xmlns="http://www.w3.org/2000/svg" width="64" height="64" viewBox="0 0 64 64">
<title>cart-arrow-down</title>
<path d="M30 54c0 4.418-3.582 8-8 8s-8-3.582-8-8c0-4.418 3.582-8 8-8s8 3.582 8 8z"></path>
<path d="M58 54c0 4.418-3.582 8-8 8s-8-3.582-8-8c0-4.418 3.582-8 8-8s8 3.582 8 8z"></path>
<path d="M16.208 12l-1.667-10h-12.541v6h7.459l5.166 34h41.375l6-15v-15zM47.072 25.918l-10.082 10.082-9.989-9.989v-0.72h7v-6.291h6v6.291h7.072z"></path>
</svg>
