<!-- Generated by IcoMoon.io -->
<svg version="1.1" xmlns="http://www.w3.org/2000/svg" width="64" height="64" viewBox="0 0 64 64">
<title>cart-slash</title>
<path d="M22.121 12l30 30h3.879l6-15v-15h-39.879z"></path>
<path d="M30 54c0 4.418-3.582 8-8 8s-8-3.582-8-8c0-4.418 3.582-8 8-8s8 3.582 8 8z"></path>
<path d="M2 2v3.678l8.714 8.714 3.911 27.608h23.697l6.188 6.188c-1.547 1.461-2.511 3.527-2.511 5.817 0 4.415 3.579 7.994 7.994 7.994 2.291 0 4.356-0.963 5.814-2.507l0.004-0.004 2.511 2.511h3.678v-3.747l-56.253-56.253z"></path>
</svg>
