<!-- Generated by IcoMoon.io -->
<svg version="1.1" xmlns="http://www.w3.org/2000/svg" width="64" height="64" viewBox="0 0 64 64">
<title>cart-loaded</title>
<path d="M49.182 7.028c-2.621-3.084-6.504-5.028-10.84-5.028-4.121 0-7.832 1.755-10.426 4.559l-0.009 0.009-5.937 6.431h32.265z"></path>
<path d="M30 54c0 4.418-3.582 8-8 8s-8-3.582-8-8c0-4.418 3.582-8 8-8s8 3.582 8 8z"></path>
<path d="M58 54c0 4.418-3.582 8-8 8s-8-3.582-8-8c0-4.418 3.582-8 8-8s8 3.582 8 8z"></path>
<path d="M17.041 17l-2.5-15h-12.541v6h7.459l5.166 34h41.375l6-15v-10h-44.959z"></path>
</svg>
