<!-- Generated by IcoMoon.io -->
<svg version="1.1" xmlns="http://www.w3.org/2000/svg" width="64" height="64" viewBox="0 0 64 64">
<title>casino</title>
<path d="M31.615 46.17c-3.091-0.001-5.677-2.16-6.336-5.051l-0.008-0.044-3.339-15.075h-17.932c-1.105 0-2 0.895-2 2v0 32c0 1.105 0.895 2 2 2v0h32c1.105 0 2-0.895 2-2v0-15.087l-4.977 1.102c-0.423 0.098-0.909 0.154-1.407 0.154h-0zM14.476 56h-5.476v-5.476h5.476zM14.476 38.476h-5.476v-5.476h5.476zM23.238 47.238h-5.476v-5.476h5.476zM32 56h-5.476v-5.476h5.476z"></path>
<path d="M61.952 32.95l-6.287-28.383c-0.014-0.063-0.031-0.124-0.051-0.185-0.006-0.020-0.014-0.039-0.021-0.058-0.014-0.040-0.029-0.080-0.046-0.119-0.010-0.022-0.020-0.043-0.030-0.065-0.017-0.035-0.034-0.069-0.052-0.103-0.012-0.022-0.024-0.043-0.037-0.064q-0.029-0.049-0.061-0.095c-0.013-0.020-0.027-0.040-0.041-0.059-0.023-0.032-0.048-0.062-0.073-0.093-0.014-0.017-0.027-0.034-0.041-0.050-0.031-0.035-0.064-0.069-0.098-0.102-0.009-0.009-0.018-0.019-0.028-0.028q-0.066-0.062-0.137-0.118c-0.013-0.010-0.026-0.019-0.039-0.028-0.035-0.026-0.071-0.052-0.108-0.076-0.019-0.012-0.038-0.023-0.056-0.034-0.033-0.020-0.066-0.039-0.1-0.057-0.021-0.011-0.042-0.022-0.064-0.032q-0.050-0.024-0.101-0.046c-0.022-0.009-0.044-0.018-0.067-0.027-0.035-0.013-0.071-0.025-0.108-0.037-0.022-0.007-0.043-0.014-0.065-0.020-0.041-0.011-0.082-0.020-0.124-0.029-0.018-0.004-0.036-0.009-0.054-0.012-0.060-0.011-0.121-0.019-0.182-0.024-0.009-0.001-0.017-0.001-0.026-0.001-0.052-0.004-0.104-0.006-0.157-0.005-0.046 0-0.093 0.004-0.14 0.008-0.023 0.002-0.046 0.002-0.069 0.005-0.082 0.009-0.154 0.021-0.224 0.037l0.014-0.003h-0l-28.382 6.287c-0.458 0.103-0.846 0.353-1.123 0.697l-0.003 0.004c-0.017 0.022-0.034 0.044-0.050 0.066-0.125 0.164-0.225 0.354-0.29 0.56l-0.004 0.013c-0.062 0.184-0.098 0.396-0.098 0.617 0 0.009 0 0.018 0 0.027v-0.001c0.002 0.144 0.020 0.282 0.050 0.416l-0.003-0.014 6.287 28.382c0.204 0.903 1 1.568 1.951 1.568 0.154 0 0.304-0.017 0.448-0.050l-0.013 0.003 28.382-6.287c0.147-0.033 0.275-0.077 0.397-0.132l-0.013 0.005c0.189-0.085 0.352-0.191 0.496-0.317l-0.002 0.002q0.073-0.063 0.139-0.133c0.006-0.007 0.011-0.014 0.017-0.020 0.149-0.162 0.273-0.35 0.363-0.556l0.005-0.013q0.025-0.057 0.046-0.117c0.075-0.2 0.119-0.431 0.119-0.672 0-0.153-0.017-0.302-0.051-0.445l0.003 0.013zM30.29 18.749l-1.156-5.219 5.219-1.156 1.156 5.219zM40.491 25.25l-1.156-5.219 5.219-1.156 1.156 5.219zM50.691 31.751l-1.156-5.219 5.219-1.156 1.156 5.219z"></path>
</svg>
