<!-- Generated by IcoMoon.io -->
<svg version="1.1" xmlns="http://www.w3.org/2000/svg" width="64" height="64" viewBox="0 0 64 64">
<title>cast</title>
<path d="M60 10h-56c-1.105 0-2 0.895-2 2v0 8c18.225 0 33 14.775 33 33v0h25c1.105 0 2-0.895 2-2v0-39c0-1.105-0.895-2-2-2v0z"></path>
<path d="M2 45v8h8c0-4.418-3.582-8-8-8v0z"></path>
<path d="M2.032 35.079v6c6.563 0.008 11.881 5.326 11.889 11.888v0.001h6c0-9.864-8.025-17.889-17.889-17.889z"></path>
<path d="M2.049 24.689v6c12.275 0 22.262 9.987 22.262 22.262h6c0-0.023 0-0.050 0-0.077 0-7.78-3.165-14.821-8.277-19.907l-0.001-0.001c-5.086-5.113-12.127-8.278-19.908-8.278-0.027 0-0.054 0-0.081 0h0.004z"></path>
</svg>
