<!-- Generated by IcoMoon.io -->
<svg version="1.1" xmlns="http://www.w3.org/2000/svg" width="64" height="64" viewBox="0 0 64 64">
<title>cat</title>
<path d="M54.788 35.162c-2.975-1.275-5.796-5.467-7.943-11.803v0c-0.934-2.691-3.447-4.588-6.404-4.588-0.003 0-0.007 0-0.010 0h0.001l-5.432 0.058v-16.134l-2.283 0.326c-5.089 0.727-9.075 3.277-11.849 7.58-1.92 2.979-2.887 6.275-3.373 8.843-3.291 1.416-6.088 4.096-8.323 7.981-1.843 3.203-3.315 7.246-4.375 12.017-1.052 4.638-1.702 9.995-1.797 15.489l-0.001 0.070v7h31v-8.441c2.291-0.565 4.921-0.889 7.626-0.889 0.286 0 0.571 0.004 0.856 0.011l-0.042-0.001c0.097 0.003 0.212 0.005 0.327 0.005 5.475 0 10.085-3.707 11.456-8.748l0.019-0.083 2.136-8.010z"></path>
</svg>
