<!-- Generated by IcoMoon.io -->
<svg version="1.1" xmlns="http://www.w3.org/2000/svg" width="64" height="64" viewBox="0 0 64 64">
<title>center-focus-weak</title>
<path d="M7.625 9c0.001-0.759 0.616-1.374 1.375-1.375h15v-5.25h-15c-3.657 0.004-6.621 2.968-6.625 6.625v15h5.25z"></path>
<path d="M7.625 55v-15h-5.25v15c0.004 3.657 2.968 6.621 6.625 6.625h15v-5.25h-15c-0.759-0.001-1.374-0.616-1.375-1.375v-0z"></path>
<path d="M56.375 55c-0.001 0.759-0.616 1.374-1.375 1.375h-15v5.25h15c3.657-0.004 6.621-2.968 6.625-6.625v-15h-5.25z"></path>
<path d="M55 2.375h-15v5.25h15c0.759 0.001 1.374 0.616 1.375 1.375v15h5.25v-15c-0.004-3.657-2.968-6.621-6.625-6.625h-0z"></path>
<path d="M42 32c0 5.523-4.477 10-10 10s-10-4.477-10-10c0-5.523 4.477-10 10-10s10 4.477 10 10z"></path>
</svg>
