<!-- Generated by IcoMoon.io -->
<svg version="1.1" xmlns="http://www.w3.org/2000/svg" width="64" height="64" viewBox="0 0 64 64">
<title>chalkboard-teacher</title>
<path d="M16.5 18.833c7.058 0.008 12.777 5.728 12.786 12.785v8.319h5.714v-5.938h16v5.938h7v-32.912c0-0.003 0-0.006 0-0.009 0-1.66-1.341-3.007-2.999-3.016h-46.001c-1.659 0.009-3 1.356-3 3.016 0 0.003 0 0.007 0 0.010v-0 17.307c2.338-3.34 6.167-5.498 10.5-5.499h0z"></path>
<path d="M28.487 51.39l-6.644-4.319 2.943-7.167v-8.286c0-4.576-3.71-8.286-8.286-8.286s-8.286 3.71-8.286 8.286v0 8.286l2.689 7.332-6.39 4.153c-1.522 1-2.513 2.7-2.513 4.632v0 5.978h29v-5.978c0-1.931-0.991-3.631-2.493-4.619l-0.021-0.013z"></path>
<path d="M29.188 44.375v1.336l6.15 3.914h26.662v-5.25h-32.813z"></path>
</svg>
