<!-- Generated by IcoMoon.io -->
<svg version="1.1" xmlns="http://www.w3.org/2000/svg" width="64" height="64" viewBox="0 0 64 64">
<title>chart-donut</title>
<path d="M2 32c0 14.464 10.309 26.87 24.511 29.497l2.364 0.437v-18.264l-1.268-0.499c-4.493-1.804-7.607-6.124-7.607-11.171s3.115-9.367 7.527-11.142l0.081-0.029 1.268-0.499v-18.264l-2.364 0.437c-14.203 2.627-24.511 15.033-24.511 29.497z"></path>
<path d="M43.171 36.393c-1.265 3.145-3.725 5.584-6.804 6.791l-0.082 0.028-1.285 0.492v18.244l2.355-0.425c12.265-2.291 21.796-11.785 24.112-23.846l0.030-0.188 0.437-2.364h-18.264z"></path>
<path d="M43.212 27.715l0.492 1.285h18.244l-0.425-2.355c-2.299-12.311-11.857-21.869-23.982-24.139l-0.186-0.029-2.355-0.425v18.244l1.285 0.492c3.196 1.248 5.678 3.73 6.898 6.844l0.028 0.082z"></path>
</svg>
