<!-- Generated by IcoMoon.io -->
<svg version="1.1" xmlns="http://www.w3.org/2000/svg" width="64" height="64" viewBox="0 0 64 64">
<title>chart-multiline</title>
<path d="M8 14h-6v48h60v-6h-54v-42z"></path>
<path d="M26.91 42.153l7.090 7.090 5.739-5.739c-0.786-2.181-1.726-4.063-2.853-5.811l0.067 0.112-2.953 2.953-6.91-6.91-14.117 12.941 4.054 4.423z"></path>
<path d="M46.609 52h5.391c0-0.022 0-0.049 0-0.075 0-6.107-1.447-11.876-4.016-16.983l0.099 0.218 6.138-6.138 7.113 7.113 0.666-0.666v-18.468h-18.639l-0.58 0.58 7.198 7.198-5.085 5.085c-1.27-1.755-2.591-3.3-4.024-4.733v0c-6.839-6.875-16.306-11.13-26.767-11.13-0.036 0-0.072 0-0.109 0h0.006v5.391c17.786 0.544 32.065 14.823 32.608 32.558l0.001 0.051z"></path>
</svg>
