<!-- Generated by IcoMoon.io -->
<svg version="1.1" xmlns="http://www.w3.org/2000/svg" width="64" height="64" viewBox="0 0 64 64">
<title>chart</title>
<path d="M4.5 17h11c1.381 0 2.5 1.119 2.5 2.5v40c0 1.381-1.119 2.5-2.5 2.5h-11c-1.381 0-2.5-1.119-2.5-2.5v-40c0-1.381 1.119-2.5 2.5-2.5z"></path>
<path d="M26.5 30h11c1.381 0 2.5 1.119 2.5 2.5v27c0 1.381-1.119 2.5-2.5 2.5h-11c-1.381 0-2.5-1.119-2.5-2.5v-27c0-1.381 1.119-2.5 2.5-2.5z"></path>
<path d="M48.5 2h11c1.381 0 2.5 1.119 2.5 2.5v55c0 1.381-1.119 2.5-2.5 2.5h-11c-1.381 0-2.5-1.119-2.5-2.5v-55c0-1.381 1.119-2.5 2.5-2.5z"></path>
</svg>
