<!-- Generated by IcoMoon.io -->
<svg version="1.1" xmlns="http://www.w3.org/2000/svg" width="64" height="64" viewBox="0 0 64 64">
<title>chat-bubble</title>
<path d="M53.649 48.435c3.907-2.998 6.351-7.268 6.351-12.006 0-9.073-8.954-16.429-20-16.429s-20 7.355-20 16.429 8.954 16.428 20 16.428c0.001 0 0.002 0 0.004 0 1.048 0 2.081-0.066 3.095-0.194l-0.121 0.012 1.974 1.711c4.007 3.488 9.28 5.614 15.049 5.614v0-1.429c-2.746-2.746-4.898-6.088-6.244-9.815l-0.059-0.186z"></path>
<path d="M23.002 21.335c4.539-3.729 10.508-5.796 16.826-5.833-1.252-7.624-9.203-13.502-18.827-13.502-10.493 0-19 6.987-19 15.607 0 4.502 2.321 8.558 6.033 11.406l-0.045 0.129c-1.335 3.717-3.379 6.892-5.988 9.501v0 1.357c5.133 0 9.852-1.772 13.58-4.737l-0.045 0.034c0.174-2.703 0.907-5.198 2.084-7.423l-0.048 0.1c1.386-2.623 3.207-4.83 5.392-6.609l0.038-0.030z"></path>
</svg>
