<!-- Generated by IcoMoon.io -->
<svg version="1.1" xmlns="http://www.w3.org/2000/svg" width="64" height="64" viewBox="0 0 64 64">
<title>chevron-circle-up-alt</title>
<path d="M10.787 53.213c5.428 5.422 12.924 8.776 21.202 8.776 16.569 0 30-13.431 30-30 0-8.279-3.353-15.774-8.776-21.203l0 0c-5.428-5.422-12.924-8.776-21.202-8.776-16.569 0-30 13.431-30 30 0 8.279 3.354 15.775 8.776 21.203l-0-0zM32 10c12.131 0 22 9.869 22 22s-9.869 22-22 22-22-9.869-22-22 9.869-22 22-22z"></path>
<path d="M32 32l9.6 7.2 4.8-6.4-14.4-10.8-14.4 10.8 4.8 6.4 9.6-7.2z"></path>
</svg>
