<!-- Generated by IcoMoon.io -->
<svg version="1.1" xmlns="http://www.w3.org/2000/svg" width="64" height="64" viewBox="0 0 64 64">
<title>child</title>
<path d="M53.174 25.004c-2.885-6.65-8.622-11.594-15.625-13.335l-0.159-0.033 3.154-5.046-5.088-3.18-4.767 7.627c-8.925 0.525-16.439 6.063-19.805 13.819l-0.057 0.149c-4.896 0.095-8.828 4.086-8.828 8.996s3.932 8.9 8.819 8.995l0.009 0c3.596 8.302 11.719 14.004 21.174 14.004s17.577-5.703 21.116-13.856l0.057-0.149c4.895-0.095 8.828-4.086 8.828-8.996s-3.932-8.9-8.819-8.995l-0.009-0zM38.25 27.75h4.5v4.5h-4.5zM21.25 27.75h4.5v4.5h-4.5zM32 48c-6.075 0-11-4.925-11-11v0h22c0 6.075-4.925 11-11 11v0z"></path>
</svg>
