<!-- Generated by IcoMoon.io -->
<svg version="1.1" xmlns="http://www.w3.org/2000/svg" width="64" height="64" viewBox="0 0 64 64">
<title>child-friendly</title>
<path d="M55.015 41.868l2.037-7.638v-4.231c0-11.598-9.402-21-21-21v0h-3.179v22.077h-14.243l-2.244-9.255c-0.775-3.148-3.574-5.446-6.91-5.446-0.005 0-0.011 0-0.016 0h-7.46v5.25h7.461c0.001 0 0.003 0 0.004 0 0.878 0 1.614 0.605 1.816 1.42l0.003 0.013 4.485 18.502q0.608-0.060 1.232-0.061c5.47 0.007 10.118 3.52 11.817 8.412l0.027 0.088h11.313c1.721-4.984 6.373-8.5 11.846-8.5 1.070 0 2.108 0.134 3.099 0.387l-0.087-0.019z"></path>
<path d="M24.371 50.886q-0.076-0.179-0.16-0.354-0.169-0.35-0.369-0.68t-0.431-0.638-0.489-0.593-0.543-0.543-0.593-0.489-0.638-0.431-0.68-0.369q-0.175-0.084-0.354-0.16c-0.548-0.239-1.186-0.426-1.851-0.531l-0.045-0.006c-0.366-0.059-0.788-0.092-1.218-0.092s-0.852 0.033-1.264 0.098l0.046-0.006c-0.71 0.11-1.348 0.297-1.947 0.556l0.052-0.020q-0.18 0.076-0.354 0.16-0.35 0.169-0.68 0.369t-0.638 0.431-0.592 0.489-0.543 0.543-0.489 0.593-0.431 0.638-0.369 0.68q-0.084 0.175-0.16 0.354c-0.239 0.548-0.426 1.186-0.531 1.851l-0.006 0.045c-0.059 0.365-0.092 0.786-0.092 1.215 0 0.001 0 0.002 0 0.003v-0c0 0.003 0 0.007 0 0.011 0 1.257 0.291 2.446 0.81 3.504l-0.021-0.047q0.169 0.35 0.369 0.68c0.416 0.678 0.901 1.261 1.456 1.768l0.006 0.006q0.284 0.258 0.592 0.489t0.638 0.431 0.68 0.369q0.175 0.084 0.354 0.16c0.548 0.239 1.186 0.426 1.851 0.531l0.045 0.006c0.366 0.059 0.788 0.092 1.218 0.092s0.852-0.033 1.264-0.098l-0.046 0.006c0.71-0.11 1.348-0.297 1.947-0.556l-0.052 0.020q0.18-0.076 0.354-0.16 0.35-0.169 0.68-0.369t0.638-0.431 0.593-0.489c0.562-0.512 1.047-1.095 1.443-1.739l0.020-0.035q0.2-0.33 0.369-0.68c0.498-1.010 0.789-2.2 0.789-3.457 0-0.004 0-0.008 0-0.012v0.001c0-0.001 0-0.002 0-0.003 0-0.429-0.034-0.85-0.098-1.261l0.006 0.046c-0.11-0.71-0.297-1.348-0.556-1.947l0.020 0.051z"></path>
<path d="M59.908 52.782c-0.11-0.71-0.297-1.348-0.556-1.947l0.020 0.051q-0.076-0.179-0.16-0.354-0.169-0.35-0.369-0.68t-0.431-0.638-0.489-0.593-0.543-0.543-0.593-0.489-0.638-0.431-0.68-0.369q-0.175-0.084-0.354-0.16c-0.548-0.239-1.186-0.426-1.851-0.531l-0.045-0.006c-0.366-0.059-0.788-0.092-1.218-0.092s-0.852 0.033-1.264 0.098l0.046-0.006c-0.71 0.11-1.348 0.297-1.947 0.556l0.051-0.020q-0.179 0.076-0.354 0.16-0.35 0.169-0.68 0.369t-0.638 0.431-0.593 0.489-0.543 0.543-0.489 0.593-0.431 0.638-0.369 0.68q-0.084 0.175-0.16 0.354c-0.239 0.548-0.426 1.186-0.531 1.851l-0.006 0.045c-0.059 0.365-0.092 0.786-0.092 1.215 0 0.001 0 0.002 0 0.003v-0c0 0.003 0 0.007 0 0.011 0 1.257 0.291 2.446 0.81 3.504l-0.021-0.047q0.169 0.35 0.369 0.68c0.416 0.678 0.901 1.261 1.456 1.768l0.006 0.006q0.284 0.258 0.593 0.489t0.638 0.431 0.68 0.369q0.175 0.084 0.354 0.16c0.548 0.239 1.186 0.426 1.851 0.531l0.045 0.006c0.366 0.059 0.788 0.092 1.218 0.092s0.852-0.033 1.264-0.098l-0.046 0.006c0.71-0.11 1.348-0.297 1.947-0.556l-0.051 0.020q0.179-0.076 0.354-0.16 0.35-0.169 0.68-0.369t0.638-0.431 0.593-0.489c0.562-0.512 1.047-1.095 1.443-1.739l0.020-0.035q0.2-0.33 0.369-0.68c0.498-1.010 0.789-2.2 0.789-3.457 0-0.004 0-0.008 0-0.012v0.001c0-0.001 0-0.002 0-0.003 0-0.429-0.033-0.85-0.098-1.261l0.006 0.046z"></path>
</svg>
