<!-- Generated by IcoMoon.io -->
<svg version="1.1" xmlns="http://www.w3.org/2000/svg" width="64" height="64" viewBox="0 0 64 64">
<title>city</title>
<path d="M40 15v19h-13v-20.679l-13.095-9.321-11.905 9.321v48.679h9.75v-10h4.5v10h43.75v-51zM16.25 45.745h-4.5v-4.5h4.5zM16.25 35.125h-4.5v-4.5h4.5zM16.25 24.375h-4.5v-4.5h4.5zM35.125 56.5h-4.5v-4.5h4.5zM35.125 45.745h-4.5v-4.5h4.5zM52.25 56.5h-4.5v-4.5h4.5zM52.25 45.745h-4.5v-4.5h4.5zM52.25 35.125h-4.5v-4.5h4.5zM52.25 24.375h-4.5v-4.5h4.5z"></path>
</svg>
