<!-- Generated by IcoMoon.io -->
<svg version="1.1" xmlns="http://www.w3.org/2000/svg" width="64" height="64" viewBox="0 0 64 64">
<title>closed-captioning</title>
<path d="M60 8h-56c-1.105 0-2 0.895-2 2v0 44c0 1.105 0.895 2 2 2v0h56c1.105 0 2-0.895 2-2v0-44c0-1.105-0.895-2-2-2v0zM22.029 39.779c0.009 0 0.019 0 0.029 0 1.816 0 3.484-0.629 4.801-1.68l-0.015 0.012 2.788 3.532c-2.054 1.643-4.69 2.636-7.559 2.636-0.015 0-0.031 0-0.046-0h0.002c-6.781 0-12.279-5.497-12.279-12.279s5.497-12.279 12.279-12.279v0c0.013-0 0.028-0 0.044-0 2.868 0 5.504 0.993 7.583 2.655l-0.024-0.019-2.788 3.532c-1.301-1.040-2.97-1.668-4.785-1.668-0.010 0-0.020 0-0.031 0h0.002c-4.296 0-7.779 3.483-7.779 7.779s3.483 7.779 7.779 7.779v0zM44.792 39.779c0.009 0 0.019 0 0.029 0 1.816 0 3.484-0.629 4.801-1.68l-0.015 0.012 2.788 3.532c-2.054 1.643-4.69 2.636-7.559 2.636-0.015 0-0.031 0-0.046-0h0.002c-6.781 0-12.279-5.497-12.279-12.279s5.497-12.279 12.279-12.279v0c0.013-0 0.028-0 0.044-0 2.868 0 5.504 0.993 7.583 2.655l-0.024-0.019-2.788 3.532c-1.301-1.040-2.97-1.668-4.785-1.668-0.010 0-0.020 0-0.031 0h0.002c-4.296 0-7.779 3.483-7.779 7.779s3.483 7.779 7.779 7.779v0z"></path>
</svg>
