<!-- Generated by IcoMoon.io -->
<svg version="1.1" xmlns="http://www.w3.org/2000/svg" width="64" height="64" viewBox="0 0 64 64">
<title>cloud-download</title>
<path d="M36 44v-11c0-0.001 0-0.003 0-0.004 0-2.207-1.789-3.996-3.996-3.996-0.002 0-0.003 0-0.005 0h0c-0.002 0-0.004 0-0.006 0-0.9 0-1.73 0.299-2.397 0.802l0.010-0.007q-0.077 0.058-0.151 0.119c-0.296 0.245-0.551 0.525-0.764 0.836l-0.009 0.014q-0.108 0.16-0.2 0.33t-0.168 0.35c-0.199 0.458-0.314 0.991-0.314 1.551 0 0.002 0 0.004 0 0.006v-0 15h-8l12 14 12-14h-8z"></path>
<path d="M50 20c0-9.941-8.059-18-18-18s-18 8.059-18 18v0c-6.627 0-12 5.373-12 12s5.373 12 12 12v0h10v-11c0-4.418 3.582-8 8-8s8 3.582 8 8v0 11h11v-0.042c6.183-0.533 10.999-5.683 10.999-11.958 0-6.627-5.372-12-11.999-12v0z"></path>
</svg>
