<!-- Generated by IcoMoon.io -->
<svg version="1.1" xmlns="http://www.w3.org/2000/svg" width="64" height="64" viewBox="0 0 64 64">
<title>cloud-circle</title>
<path d="M32 61.918c16.523 0 29.918-13.395 29.918-29.918s-13.395-29.918-29.918-29.918-29.918 13.395-29.918 29.918 13.395 29.918 29.918 29.918zM12.139 36.768c0-5.103 4.137-9.24 9.24-9.24h0.272v-2.414c0-5.754 4.665-10.419 10.419-10.419s10.419 4.665 10.419 10.419v0 2.414h0.614c4.914 0 8.897 3.983 8.897 8.897v0c-0.015 4.897-3.981 8.863-8.876 8.877h-22.449c-4.708-0.014-8.521-3.827-8.535-8.534v-0.001z"></path>
</svg>
