<!-- Generated by IcoMoon.io -->
<svg version="1.1" xmlns="http://www.w3.org/2000/svg" width="64" height="64" viewBox="0 0 64 64">
<title>cloud</title>
<path d="M49.991 27.182v-0.182c0-9.925-8.075-18-18-18s-18 8.075-18 18v0.311c-3.084 0.596-5.76 2.046-7.852 4.091l0.003-0.003c-2.559 2.486-4.148 5.958-4.151 9.802v0.001c0 3.89 1.599 7.595 4.501 10.434 2.836 2.773 6.666 4.364 10.508 4.364h30.845c0.013 0 0.029 0 0.045 0 3.99 0 7.582-1.703 10.089-4.422l0.009-0.010c2.582-2.776 4.004-6.457 4.004-10.366 0-7.305-5.036-13.028-12-14.021z"></path>
</svg>
