<!-- Generated by IcoMoon.io -->
<svg version="1.1" xmlns="http://www.w3.org/2000/svg" width="64" height="64" viewBox="0 0 64 64">
<title>cloud-upload</title>
<path d="M20 41h8v15c0 2.209 1.791 4 4 4v0 0c2.209 0 4-1.791 4-4v0-15h8l-12-14z"></path>
<path d="M50 20c0-9.941-8.059-18-18-18s-18 8.059-18 18v0c-6.627 0-12 5.373-12 12 0 6.016 4.427 10.998 10.201 11.866l0.066 0.008 19.733-23.021 19.731 23.019c5.841-0.875 10.269-5.857 10.269-11.874 0-6.627-5.372-11.999-11.999-11.999-0 0-0.001 0-0.001 0h0z"></path>
</svg>
