<!-- Generated by IcoMoon.io -->
<svg version="1.1" xmlns="http://www.w3.org/2000/svg" width="64" height="64" viewBox="0 0 64 64">
<title>cloudy</title>
<path d="M50 36c-0-9.531-7.408-17.332-16.781-17.959l-0.055-0.003c0.004-0.15 0.007-0.301 0.007-0.453 0-8.608-6.978-15.586-15.586-15.586s-15.586 6.978-15.586 15.586v0c0 7.46 5.269 13.712 12.28 15.232-0.178 0.954-0.28 2.053-0.28 3.175 0 0.003 0 0.005 0 0.008v-0c-6.627 0-12 5.373-12 12s5.373 12 12 12v0h37v-0.042c6.183-0.533 10.999-5.683 10.999-11.958 0-6.627-5.372-11.999-11.999-12h-0zM8 17.586c0-0.004 0-0.009 0-0.014 0-5.294 4.292-9.586 9.586-9.586s9.586 4.292 9.586 9.586c0 0.388-0.023 0.77-0.068 1.146l0.004-0.045c-4.629 1.34-8.404 4.356-10.705 8.331l-0.046 0.087c-4.735-0.635-8.35-4.647-8.357-9.504v-0.001z"></path>
</svg>
