<!-- Generated by IcoMoon.io -->
<svg version="1.1" xmlns="http://www.w3.org/2000/svg" width="64" height="64" viewBox="0 0 64 64">
<title>cloud-slash</title>
<path d="M39.571 29.45l20.032 20.032c1.498-2.325 2.388-5.164 2.388-8.211 0-0.024-0-0.048-0-0.072v0.004c0-7.305-5.036-13.028-12-14.021v-0.182c0-9.925-8.075-18-18-18-0.006 0-0.013 0-0.020 0-3.675 0-7.090 1.108-9.932 3.007l0.065-0.041 17.467 17.483z"></path>
<path d="M56.611 52.864l0.008-0.006-37.941-37.96c-0.005 0.006-0.011 0.012-0.016 0.018l-12.915-12.915h-3.747v3.678l13.691 13.691c-1.073 2.23-1.7 4.848-1.7 7.612 0 0.007 0 0.013 0 0.020v-0.001 0.311c-3.084 0.596-5.76 2.046-7.852 4.091l0.003-0.003c-2.559 2.486-4.148 5.958-4.151 9.802v0.001c0 3.89 1.599 7.595 4.501 10.434 2.836 2.773 6.666 4.364 10.508 4.364h30.845c0.006 0 0.012 0 0.019 0 1.39 0 2.732-0.204 3.998-0.584l-0.098 0.025 6.559 6.559h3.678v-3.747z"></path>
</svg>
