<!-- Generated by IcoMoon.io -->
<svg version="1.1" xmlns="http://www.w3.org/2000/svg" width="64" height="64" viewBox="0 0 64 64">
<title>color-fill</title>
<path d="M52.5 42c3.59 0 6.5-3.134 6.5-7s-6.5-12-6.5-12-6.5 8.134-6.5 12 2.91 7 6.5 7z"></path>
<path d="M58.375 45h-52.625c-2.001 0.002-3.623 1.624-3.625 3.625v9.387c0.002 2.001 1.624 3.623 3.625 3.625h52.625c2.001-0.002 3.623-1.624 3.625-3.625v-9.387c-0.002-2.001-1.624-3.623-3.625-3.625h-0zM56.75 56.387h-49.375v-6.137h49.375z"></path>
<path d="M5.083 28.343c-0.136 0.511-0.213 1.099-0.213 1.704 0 3.204 2.182 5.899 5.141 6.68l0.048 0.011 19.814 5.065c0.517 0.138 1.11 0.218 1.721 0.218h0c3.198-0.009 5.884-2.19 6.661-5.145l0.011-0.048 6.775-26.498-33.183-8.483-1.485 5.806-7.607-2.119-1.409 5.057 7.715 2.149zM15.644 8.233l23.010 5.882-1.648 6.447h-24.514z"></path>
</svg>
