<!-- Generated by IcoMoon.io -->
<svg version="1.1" xmlns="http://www.w3.org/2000/svg" width="64" height="64" viewBox="0 0 64 64">
<title>color-border</title>
<path d="M17.925 41.489c0.146 0 0.288-0.014 0.425-0.041l-0.014 0.002 11.233-2.66 23.775-23.776c1.423-1.423 2.304-3.39 2.304-5.562 0-4.344-3.521-7.865-7.865-7.865-2.172 0-4.138 0.88-5.562 2.304l-23.775 23.775-2.642 11.148-0.018 0.084c-0.025 0.123-0.039 0.265-0.039 0.41 0 1.203 0.975 2.179 2.178 2.179h0z"></path>
<path d="M58.375 45h-52.625c-2.001 0.002-3.623 1.624-3.625 3.625v9.387c0.002 2.001 1.624 3.623 3.625 3.625h52.625c2.001-0.002 3.623-1.624 3.625-3.625v-9.387c-0.002-2.001-1.624-3.623-3.625-3.625h-0zM56.75 56.387h-49.375v-6.137h49.375z"></path>
</svg>
