<!-- Generated by IcoMoon.io -->
<svg version="1.1" xmlns="http://www.w3.org/2000/svg" width="64" height="64" viewBox="0 0 64 64">
<title>color-palette</title>
<path d="M53.189 10.257c-5.592-5.324-13.105-8.257-21.155-8.257-7.503 0-14.982 2.509-20.52 6.884-6.135 4.847-9.514 11.636-9.514 19.116 0 7.512 1.941 12.359 6.109 15.252 3.5 2.43 8.551 3.466 16.89 3.466h3.719c1.811 0.002 3.279 1.47 3.281 3.281v5.998c0 0 0 0 0 0 0 2.209 1.791 4 4 4l11.348-0.011c0.932-0.002 1.789-0.321 2.469-0.856l-0.009 0.007c1.216-0.953 4.341-3.675 7.099-8.363 3.379-5.742 5.092-12.395 5.092-19.775 0-7.966-3.129-15.333-8.811-20.743zM47 45c-2.761 0-5-2.239-5-5s2.239-5 5-5c2.761 0 5 2.239 5 5v0c0 2.761-2.239 5-5 5v0zM30 21c-2.761 0-5-2.239-5-5s2.239-5 5-5c2.761 0 5 2.239 5 5v0c0 2.761-2.239 5-5 5v0zM16 30c-2.761 0-5-2.239-5-5s2.239-5 5-5c2.761 0 5 2.239 5 5v0c0 2.761-2.239 5-5 5v0zM50 23c0 2.761-2.239 5-5 5s-5-2.239-5-5c0-2.761 2.239-5 5-5v0c2.761 0 5 2.239 5 5v0z"></path>
</svg>
