<!-- Generated by IcoMoon.io -->
<svg version="1.1" xmlns="http://www.w3.org/2000/svg" width="64" height="64" viewBox="0 0 64 64">
<title>comment-square-edit</title>
<path d="M45.571 32.033l-0.902 0.903-10.682 2.527c-0.263 0.053-0.566 0.083-0.875 0.083-2.572 0-4.657-2.085-4.657-4.657 0-0.31 0.030-0.613 0.088-0.907l-0.005 0.030 0.018-0.095 0.022-0.095 2.486-10.49 15.332-15.332h-39.396c-1.657 0-3 1.343-3 3v0 34c0 1.657 1.343 3 3 3v0h41.596l8.69 16h2.714v-42.396z"></path>
<path d="M35.149 21.611l-2.192 9.249c-0.002 0.009-0.003 0.019-0.003 0.029 0 0.003 0 0.006 0 0.009v-0c0 0.004 0.001 0.008 0.002 0.012 0.001 0.009 0.003 0.017 0.005 0.025l-0-0.001c0.001 0.005 0.003 0.009 0.005 0.013 0.003 0.008 0.006 0.014 0.009 0.020l-0-0.001c0.002 0.004 0.005 0.008 0.008 0.012 0.004 0.006 0.008 0.011 0.013 0.016l-0-0c0.003 0.004 0.007 0.007 0.011 0.010l0 0c0.005 0.004 0.010 0.008 0.015 0.012l0.001 0c0.004 0.003 0.008 0.006 0.013 0.008s0.011 0.006 0.017 0.008l0.001 0c0.004 0.002 0.008 0.003 0.013 0.005l0.001 0c0.006 0.002 0.013 0.003 0.020 0.004l0.001 0c0.005 0.001 0.010 0.002 0.015 0.002 0.002 0 0.004 0.001 0.005 0.001 0.011 0 0.021-0.001 0.031-0.003l-0.001 0 9.248-2.192 16.076-16.076c0.765-0.762 1.288-1.766 1.447-2.887l0.003-0.027c0.031-0.213 0.049-0.458 0.049-0.708 0-0.606-0.105-1.187-0.298-1.727l0.011 0.036c-0.72-2.013-2.611-3.427-4.831-3.427-1.414 0-2.694 0.573-3.621 1.5l-4.019 4.019z"></path>
</svg>
