<!-- Generated by IcoMoon.io -->
<svg version="1.1" xmlns="http://www.w3.org/2000/svg" width="64" height="64" viewBox="0 0 64 64">
<title>comment-bubble-question</title>
<path d="M51.109 43.809c5.47-4.198 8.891-10.175 8.891-16.809 0-12.703-12.536-23-28-23s-28 10.297-28 23 12.536 23 28 23c0.001 0 0.003 0 0.005 0 1.468 0 2.913-0.092 4.332-0.271l-0.169 0.017 2.763 2.395c5.61 4.883 12.992 7.859 21.068 7.859v0-2c-3.845-3.845-6.857-8.523-8.742-13.741l-0.082-0.261zM34 41.5h-4.5v-4.5h4.5zM38.738 27.735c-1.192 1.392-2.782 2.412-4.592 2.886l-0.063 0.014v3.365h-4.5v-4.398c0.004-1.649 1.232-3.009 2.823-3.221l0.017-0.002c2.265-0.302 3.995-2.222 3.995-4.546 0-2.532-2.052-4.584-4.584-4.584s-4.584 2.052-4.584 4.583v0h-4.5c0-5.017 4.067-9.083 9.083-9.083 0.124 0 0.247 0.002 0.369 0.007l-0.018-0.001c4.863 0.194 8.732 4.184 8.732 9.077 0 2.259-0.824 4.325-2.189 5.914l0.010-0.012z"></path>
</svg>
