<!-- Generated by IcoMoon.io -->
<svg version="1.1" xmlns="http://www.w3.org/2000/svg" width="64" height="64" viewBox="0 0 64 64">
<title>comment-bubble-smile</title>
<path d="M51.109 43.809c5.47-4.198 8.891-10.175 8.891-16.809 0-12.703-12.536-23-28-23s-28 10.297-28 23 12.536 23 28 23c0.001 0 0.003 0 0.005 0 1.468 0 2.914-0.092 4.333-0.271l-0.169 0.017 2.763 2.395c5.61 4.883 12.992 7.859 21.068 7.859 0 0 0 0 0 0v0-2c-3.845-3.845-6.857-8.523-8.742-13.741l-0.082-0.261zM38 19h5v5h-5zM21 19h5v5h-5zM43.804 31.55c-1.838 4.549-6.218 7.7-11.334 7.7-0.014 0-0.028 0-0.042-0h-0.857c-0.012 0-0.026 0-0.040 0-5.116 0-9.496-3.151-11.305-7.619l-0.029-0.082-0.62-1.55h4.849c1.192 2.813 3.93 4.75 7.12 4.75 0.009 0 0.017 0 0.026-0h0.858c0.007 0 0.016 0 0.025 0 3.19 0 5.928-1.937 7.101-4.7l0.019-0.050h4.849z"></path>
</svg>
