<!-- Generated by IcoMoon.io -->
<svg version="1.1" xmlns="http://www.w3.org/2000/svg" width="64" height="64" viewBox="0 0 64 64">
<title>commute</title>
<path d="M2 31v18h5v6h6v-6h8v-9.361c0.001-1.597 0.576-3.059 1.531-4.191l-0.008 0.010 3.745-4.458zM7.75 37h5.25v5.25h-5.25z"></path>
<path d="M29.628 27l0.542-0.645c1.414-1.678 3.487-2.761 5.815-2.846l0.014-0c0.099-0.004 0.197-0.008 0.296-0.008h3.704v-11.5c-0.004-3.312-2.688-5.996-6-6h-26c-3.312 0.004-5.996 2.688-6 6v15z"></path>
<path d="M25 41.5v15.5h5v5h6v-5h15v5h6v-5h5v-15.5zM32 51.25v-5.25h5.25v5.25zM55 51.25h-5.25v-5.25h5.25z"></path>
<path d="M33.233 28.927l-7.201 8.573h34.936l-7.201-8.573c-0.737-0.875-1.833-1.427-3.059-1.427-0.001 0-0.003 0-0.004 0h-14.408c-0.001 0-0.003 0-0.004 0-1.225 0-2.322 0.552-3.054 1.421l-0.005 0.006z"></path>
</svg>
