<!-- Generated by IcoMoon.io -->
<svg version="1.1" xmlns="http://www.w3.org/2000/svg" width="64" height="64" viewBox="0 0 64 64">
<title>comment-square-rate-review</title>
<path d="M57 4h-50c-1.657 0-3 1.343-3 3v0 34c0 1.657 1.343 3 3 3v0h41.596l8.69 16h2.714v-53c0-1.657-1.343-3-3-3v0zM12.309 35.998c-0.008 0.002-0.017 0.002-0.026 0.002-0.076 0-0.138-0.062-0.138-0.138 0-0.009 0.001-0.018 0.003-0.027l-0 0.001 1.936-8.168 14.198-14.198c0.818-0.818 1.949-1.324 3.197-1.324s2.379 0.506 3.197 1.324v0c0.818 0.818 1.324 1.949 1.324 3.197s-0.506 2.379-1.324 3.197l-14.198 14.198zM48 37.25h-22.75l4.5-4.5h18.25z"></path>
</svg>
