<!-- Generated by IcoMoon.io -->
<svg version="1.1" xmlns="http://www.w3.org/2000/svg" width="64" height="64" viewBox="0 0 64 64">
<title>command</title>
<path d="M50 38h-4v-12h4c6.627 0 12-5.373 12-12s-5.373-12-12-12c-6.627 0-12 5.373-12 12v0 4h-12v-4c0-6.627-5.373-12-12-12s-12 5.373-12 12c0 6.627 5.373 12 12 12v0h4v12h-4c-6.627 0-12 5.373-12 12s5.373 12 12 12c6.627 0 12-5.373 12-12v0-4h12v4c0 6.627 5.373 12 12 12s12-5.373 12-12c0-6.627-5.373-12-12-12v0zM46 14c0-2.209 1.791-4 4-4s4 1.791 4 4c0 2.209-1.791 4-4 4v0h-4zM14 18c-2.209 0-4-1.791-4-4s1.791-4 4-4c2.209 0 4 1.791 4 4v0 4zM18 50c0 2.209-1.791 4-4 4s-4-1.791-4-4c0-2.209 1.791-4 4-4v0h4zM26 38v-12h12v12zM50 54c-2.208-0.003-3.997-1.792-4-4v-4h4c2.209 0 4 1.791 4 4s-1.791 4-4 4v0z"></path>
</svg>
