<!-- Generated by IcoMoon.io -->
<svg version="1.1" xmlns="http://www.w3.org/2000/svg" width="64" height="64" viewBox="0 0 64 64">
<title>comment-bubble-edit</title>
<path d="M51.109 43.809c5.47-4.198 8.891-10.175 8.891-16.809-0.004-2.927-0.657-5.701-1.823-8.187l0.050 0.119-15.869 15.869-11.392 2.695c-0.264 0.053-0.567 0.083-0.877 0.083-2.578 0-4.668-2.090-4.668-4.668 0-0.311 0.030-0.615 0.088-0.909l-0.005 0.030 0.018-0.095 2.676-11.293 14.799-14.799c-3.25-1.168-7.001-1.843-10.909-1.843-0.032 0-0.063 0-0.094 0h0.005c-15.464 0-28 10.297-28 23s12.536 23 28 23c0.002 0 0.003 0 0.005 0 1.468 0 2.913-0.092 4.332-0.271l-0.169 0.017 2.763 2.395c5.61 4.883 12.992 7.859 21.068 7.859 0 0 0 0 0 0v0-2c-3.845-3.845-6.857-8.523-8.742-13.741l-0.082-0.261z"></path>
<path d="M32.284 22.921l-2.36 9.957c-0.002 0.009-0.003 0.020-0.003 0.031 0 0.003 0 0.007 0 0.010v-0c0 0.004 0.001 0.009 0.002 0.013 0.001 0.010 0.003 0.018 0.005 0.027l-0-0.001c0.002 0.005 0.004 0.009 0.006 0.014 0.003 0.008 0.006 0.015 0.010 0.022l-0-0.001c0.003 0.005 0.006 0.009 0.009 0.013 0.005 0.007 0.009 0.012 0.014 0.017l-0-0c0.004 0.004 0.008 0.008 0.012 0.011 0.005 0.005 0.011 0.009 0.017 0.013l0.001 0c0.005 0.003 0.009 0.006 0.014 0.009s0.012 0.006 0.019 0.009l0.001 0c0.005 0.002 0.010 0.004 0.015 0.005s0.014 0.003 0.022 0.004l0.001 0c0.005 0.001 0.010 0.002 0.016 0.002h0c0.002 0 0.004 0.001 0.006 0.001 0.011 0 0.023-0.001 0.033-0.003l-0.001 0 9.957-2.36 17.307-17.307c0.997-0.997 1.614-2.375 1.614-3.897s-0.617-2.9-1.614-3.897v0c-0.997-0.997-2.375-1.614-3.897-1.614s-2.9 0.617-3.897 1.614v0z"></path>
</svg>
