<!-- Generated by IcoMoon.io -->
<svg version="1.1" xmlns="http://www.w3.org/2000/svg" width="64" height="64" viewBox="0 0 64 64">
<title>comment-square-smile</title>
<path d="M57 4h-50c-1.657 0-3 1.343-3 3v0 34c0 1.657 1.343 3 3 3v0h41.596l8.69 16h2.714v-53c0-1.657-1.343-3-3-3v0zM38 15h5v5h-5zM21 15h5v5h-5zM43.804 27.55c-1.838 4.549-6.218 7.7-11.334 7.7-0.014 0-0.028 0-0.042-0h-0.857c-0.012 0-0.026 0-0.040 0-5.116 0-9.496-3.151-11.305-7.619l-0.029-0.082-0.62-1.55h4.849c1.192 2.813 3.93 4.75 7.12 4.75 0.009 0 0.017 0 0.026-0h0.858c0.007 0 0.016 0 0.025 0 3.19 0 5.928-1.937 7.101-4.7l0.019-0.050h4.849z"></path>
</svg>
