<!-- Generated by IcoMoon.io -->
<svg version="1.1" xmlns="http://www.w3.org/2000/svg" width="64" height="64" viewBox="0 0 64 64">
<title>compass-calibration</title>
<path d="M32.004 2c-16.569 0-30 13.431-30 30s13.431 30 30 30 30-13.431 30-30-13.431-30-30-30zM9.023 32h4.5c0.001 6.084 2.944 11.48 7.484 14.843l0.050 0.035 3.307-3.969 7.035 12.060c-12.393-0.32-22.376-10.501-22.376-22.969zM41.989 43.384l-14.284-7.13-7.148-14.302c-0.067-0.13-0.105-0.284-0.105-0.447 0-0.552 0.448-1 1-1 0.163 0 0.317 0.039 0.454 0.108l-0.006-0.003 14.291 7.157 7.14 14.273c0.067 0.13 0.106 0.284 0.106 0.447 0 0.552-0.448 1-1 1-0.163 0-0.316-0.039-0.452-0.108l0.006 0.003zM50.477 32c-0.001-6.084-2.944-11.48-7.484-14.843l-0.050-0.035-3.307 3.969-7.035-12.060c12.393 0.32 22.376 10.501 22.376 22.969z"></path>
</svg>
