<!-- Generated by IcoMoon.io -->
<svg version="1.1" xmlns="http://www.w3.org/2000/svg" width="64" height="64" viewBox="0 0 64 64">
<title>compass</title>
<path d="M61.866 29.125c-1.353-14.232-12.648-25.565-26.862-26.976v8.851h-6v-8.851c-14.215 1.411-25.509 12.745-26.862 26.976h8.859v6h-8.835c1.461 14.113 12.705 25.321 26.835 26.726v-8.851h6v8.851c14.133-1.402 25.381-12.611 26.842-26.726h-8.846v-6zM41.989 43.384l-14.284-7.13-7.148-14.302c-0.067-0.13-0.105-0.284-0.105-0.447 0-0.552 0.448-1 1-1 0.163 0 0.317 0.039 0.453 0.108l-0.006-0.003 14.291 7.157 7.14 14.273c0.067 0.13 0.106 0.284 0.106 0.447 0 0.552-0.448 1-1 1-0.163 0-0.316-0.039-0.452-0.108l0.006 0.003z"></path>
</svg>
