<!-- Generated by IcoMoon.io -->
<svg version="1.1" xmlns="http://www.w3.org/2000/svg" width="64" height="64" viewBox="0 0 64 64">
<title>compass-slash</title>
<path d="M55.003 51.256l0.003-0.004-49.276-49.252h-3.73v3.678l7.029 7.029c-3.773 4.456-6.274 10.098-6.881 16.296l-0.010 0.123h8.869v6h-8.846c1.461 14.115 12.709 25.325 26.842 26.726v-8.851h6v8.851c6.273-0.64 11.866-3.133 16.334-6.916l-0.044 0.036 7.029 7.029h3.678v-3.747zM22.015 43.384c-0.13 0.066-0.284 0.105-0.447 0.105-0.552 0-1-0.448-1-1 0-0.163 0.039-0.317 0.108-0.453l-0.003 0.006 5.899-11.792 7.243 7.243z"></path>
<path d="M42.104 20.611c0.13-0.067 0.285-0.106 0.448-0.106 0.552 0 1 0.448 1 1 0 0.163-0.039 0.317-0.108 0.453l0.003-0.006-3.79 7.583 18.008 18.008c2.194-3.556 3.683-7.771 4.163-12.288l0.011-0.13h-8.835v-6h8.859c-1.353-14.232-12.648-25.565-26.862-26.976v8.851h-6v-8.851c-4.697 0.476-8.962 1.974-12.684 4.268l0.129-0.074 18.080 18.065z"></path>
</svg>
