<!-- Generated by IcoMoon.io -->
<svg version="1.1" xmlns="http://www.w3.org/2000/svg" width="64" height="64" viewBox="0 0 64 64">
<title>contact</title>
<path d="M59 6h-54c-1.656 0.002-2.998 1.344-3 3v46c0.002 1.656 1.344 2.998 3 3h9v-7.353c0 0 0 0 0 0 0-1.683 0.924-3.15 2.291-3.922l0.023-0.012 9.958-5.535-3.272-8.179v-8c0-4.971 4.029-9 9-9v0 0c4.971 0 9 4.029 9 9v0 8l-3.272 8.179 9.958 5.535c1.39 0.784 2.314 2.251 2.314 3.933 0 0 0 0 0 0v0 7.353h9c1.656-0.002 2.998-1.344 3-3v-46c-0.002-1.656-1.344-2.998-3-3h-0z"></path>
</svg>
