<!-- Generated by IcoMoon.io -->
<svg version="1.1" xmlns="http://www.w3.org/2000/svg" width="64" height="64" viewBox="0 0 64 64">
<title>contrast</title>
<path d="M32 2q-0.388 0-0.774 0.010-0.772 0.020-1.534 0.078c-1.147 0.088-2.176 0.223-3.187 0.409l0.184-0.028q-0.739 0.132-1.465 0.3-1.089 0.251-2.146 0.581-0.704 0.219-1.394 0.472-0.345 0.126-0.685 0.26-1.362 0.537-2.657 1.201c-1.222 0.629-2.241 1.24-3.219 1.908l0.103-0.067q-0.598 0.404-1.176 0.836-1.155 0.864-2.222 1.833c-1.065 0.97-2.038 1.99-2.938 3.074l-0.040 0.050q-0.459 0.556-0.891 1.133-0.864 1.155-1.617 2.393c-1.18 1.906-2.196 4.103-2.936 6.424l-0.058 0.211q-0.329 1.057-0.581 2.146-0.167 0.726-0.3 1.465c-0.158 0.826-0.293 1.855-0.374 2.898l-0.007 0.104q-0.058 0.762-0.078 1.534-0.010 0.386-0.010 0.774c0 16.569 13.431 30 30 30s30-13.431 30-30-13.431-30-30-30zM48.971 48.971c-4.319 4.342-10.299 7.029-16.905 7.029-0.023 0-0.046-0-0.069-0h0.003v-48c13.255 0 24 10.745 24 24 0 6.627-2.686 12.627-7.029 16.971v0z"></path>
</svg>
