<!-- Generated by IcoMoon.io -->
<svg version="1.1" xmlns="http://www.w3.org/2000/svg" width="64" height="64" viewBox="0 0 64 64">
<title>contact-mail</title>
<path d="M44.642 21.318c-0.461 0.304-1.027 0.485-1.635 0.485-0.62 0-1.196-0.188-1.675-0.511l0.011 0.007-17.343-11.562v8.893c5.263 1.747 8.993 6.622 9 12.369v1.001h29v-21.965z"></path>
<path d="M43.014 17.606l18.896-12.283 0.090 0.138v-3.462h-38v2.93l19.014 12.676z"></path>
<path d="M25.728 47.179v0l3.272-8.179v-8c0-0.001 0-0.002 0-0.003 0-0.483-0.038-0.957-0.11-1.419l0.007 0.051c-0.217-1.385-0.722-2.622-1.453-3.692l0.020 0.031q-0.243-0.359-0.518-0.693c-0.552-0.666-1.182-1.24-1.882-1.718l-0.031-0.020q-0.359-0.243-0.742-0.451c-1.24-0.684-2.718-1.086-4.29-1.086s-3.050 0.402-4.337 1.11l0.047-0.023q-0.383 0.208-0.742 0.451c-0.731 0.498-1.361 1.072-1.901 1.723l-0.012 0.015q-0.275 0.333-0.518 0.693c-0.711 1.039-1.217 2.276-1.427 3.611l-0.007 0.051c-0.066 0.411-0.104 0.885-0.104 1.368 0 0.001 0 0.002 0 0.003v-0 8l3.272 8.179-9.958 5.535c-0.196 0.11-0.363 0.219-0.521 0.338l0.011-0.008q-0.121 0.090-0.234 0.188c-0.153 0.132-0.292 0.268-0.422 0.413l-0.004 0.004q-0.099 0.111-0.19 0.228c-0.595 0.755-0.954 1.721-0.954 2.77 0 0 0 0.001 0 0.001v-0 5.353h36v-5.353c-0-1.049-0.359-2.015-0.961-2.78l0.007 0.010q-0.091-0.117-0.19-0.228c-0.133-0.149-0.273-0.285-0.42-0.412l-0.006-0.005q-0.114-0.097-0.234-0.188c-0.147-0.111-0.313-0.22-0.487-0.318l-0.023-0.012z"></path>
</svg>
