<!-- Generated by IcoMoon.io -->
<svg version="1.1" xmlns="http://www.w3.org/2000/svg" width="64" height="64" viewBox="0 0 64 64">
<title>contact-phone</title>
<path d="M48.269 32.486l-6.269 0.514-2 12 7.243 1.811c0.146 0.038 0.314 0.060 0.486 0.060 0.378 0 0.732-0.105 1.033-0.288l-0.009 0.005c2.483-1.494 10.246-7.306 10.246-21.588 0-10.685-7.431-17.316-10.077-19.339-0.334-0.258-0.758-0.413-1.219-0.413-0.252 0-0.493 0.047-0.715 0.132l0.014-0.005-7.002 2.626 2 10 6.269 1.514c1.66 1.66 2.687 3.953 2.687 6.486s-1.027 4.826-2.687 6.486v0z"></path>
<path d="M38 62v-8.353c0 0 0 0 0 0 0-1.683-0.924-3.15-2.291-3.922l-0.023-0.012-9.958-5.535 3.272-8.179v-8c0-4.971-4.029-9-9-9v0 0c-4.971 0-9 4.029-9 9v0 8l3.272 8.179-9.958 5.535c-1.39 0.784-2.314 2.251-2.314 3.933 0 0 0 0 0 0v0 8.353z"></path>
</svg>
