<!-- Generated by IcoMoon.io -->
<svg version="1.1" xmlns="http://www.w3.org/2000/svg" width="64" height="64" viewBox="0 0 64 64">
<title>contacts</title>
<path d="M58 18h-52c-1.105 0-2 0.895-2 2v0 38c0 1.105 0.895 2 2 2v0h8.217v-3.653c0-0.853 0.481-1.594 1.186-1.967l0.012-0.006 10.867-5.646-3.173-7.933v-7.904c0 0 0 0 0 0 0-4.911 3.981-8.892 8.892-8.892 0 0 0 0 0 0v0c4.911 0 8.892 3.981 8.892 8.892 0 0 0 0 0 0v0 7.904l-3.173 7.933 10.867 5.646c0.717 0.378 1.198 1.119 1.198 1.972v0 3.653h8.217c1.105 0 2-0.895 2-2v0-38c0-1.105-0.895-2-2-2v0z"></path>
<path d="M16 3.75h32v4.5h-32v-4.5z"></path>
<path d="M8 10.75h48v4.5h-48v-4.5z"></path>
</svg>
