<!-- Generated by IcoMoon.io -->
<svg version="1.1" xmlns="http://www.w3.org/2000/svg" width="64" height="64" viewBox="0 0 64 64">
<title>couch</title>
<path d="M57 27.549v-9.549c0-2.209-1.791-4-4-4v0h-42c-2.209 0-4 1.791-4 4v0 9.549c0.329-0.031 0.663-0.049 1-0.049 4.909 0.007 9.029 3.376 10.181 7.927l0.016 0.073h27.606c1.168-4.624 5.288-7.993 10.196-8h0.001c0.337 0 0.671 0.017 1 0.049z"></path>
<path d="M18.5 40h27v14h-27v-14z"></path>
<path d="M13.454 35.5q-0.063-0.138-0.133-0.272c-0.164-0.313-0.334-0.581-0.524-0.833l0.011 0.015c-0.088-0.118-0.182-0.232-0.279-0.343-1.104-1.271-2.723-2.070-4.529-2.070s-3.425 0.799-4.523 2.063l-0.006 0.007c-0.097 0.111-0.191 0.225-0.279 0.343-0.178 0.237-0.348 0.504-0.497 0.785l-0.016 0.033q-0.091 0.174-0.17 0.354c-0.322 0.71-0.509 1.54-0.509 2.413 0 0.002 0 0.003 0 0.005v-0 14c0 0.001 0 0.002 0 0.003 0 0.348 0.089 0.675 0.247 0.96l-0.005-0.010q0.046 0.085 0.1 0.165c0.364 0.535 0.97 0.882 1.657 0.882 0.001 0 0.001 0 0.002 0h4v8h6v-24c0-0.002 0-0.004 0-0.007 0-0.738-0.133-1.445-0.378-2.097l0.014 0.041c-0.055-0.149-0.116-0.294-0.182-0.437z"></path>
<path d="M61.636 35.937c-0.219-0.583-0.498-1.087-0.839-1.543l0.011 0.016c-0.088-0.118-0.182-0.232-0.279-0.343-1.104-1.271-2.723-2.070-4.529-2.070s-3.425 0.799-4.523 2.063l-0.006 0.007c-0.097 0.111-0.191 0.225-0.279 0.343-0.178 0.237-0.348 0.504-0.497 0.785l-0.016 0.033q-0.070 0.134-0.133 0.272c-0.013 0.027-0.025 0.054-0.037 0.082-0.322 0.71-0.509 1.54-0.509 2.413 0 0.002 0 0.003 0 0.005v-0 24h6v-8h4c0 0 0 0 0 0 0.072 0 0.143-0.004 0.213-0.011l-0.009 0.001c0.608-0.063 1.128-0.391 1.45-0.864l0.004-0.007q0.054-0.080 0.1-0.165c0.152-0.274 0.241-0.602 0.241-0.95 0-0.001 0-0.002 0-0.004v0-14c0-0.002 0-0.004 0-0.007 0-0.738-0.133-1.445-0.378-2.098l0.014 0.041z"></path>
</svg>
