<!-- Generated by IcoMoon.io -->
<svg version="1.1" xmlns="http://www.w3.org/2000/svg" width="64" height="64" viewBox="0 0 64 64">
<title>crop-rotate</title>
<path d="M46 2h-13.96v0.093c-16.5 0.025-29.867 13.407-29.867 29.911 0 0 0 0 0 0v0h4c0-14.273 11.6-25.887 25.867-25.912v5.22z"></path>
<path d="M31.998 61.921c16.549-0.045 29.999-13.447 29.999-29.916h-4c0 14.263-11.656 25.871-25.999 25.916v-3.921l-13.96 8h13.96z"></path>
<path d="M26 46h13v5h6v-5h5v-6h-5v-12.172l-6 6v6.172h-11.828l22.414-22.414-4.414-4.414-4.828 4.828h-16.343v-5h-6v5h-5v6h5v22zM24 24h10.343l-10.343 10.343z"></path>
</svg>
