<!-- Generated by IcoMoon.io -->
<svg version="1.1" xmlns="http://www.w3.org/2000/svg" width="64" height="64" viewBox="0 0 64 64">
<title>cut</title>
<path d="M53.227 58h4.773v-4.773l-20.727-20.727 20.727-20.727v-4.773h-4.773l-20.727 20.727-7.697-7.697c0.989-1.739 1.572-3.821 1.572-6.038 0-6.839-5.544-12.383-12.383-12.383s-12.383 5.544-12.383 12.383c0 6.839 5.544 12.383 12.383 12.383 2.218 0 4.299-0.583 6.1-1.604l-0.061 0.032 7.697 7.697-7.071 7.071c-1.882-1.217-4.182-1.94-6.65-1.94-6.832 0-12.37 5.538-12.37 12.37s5.538 12.37 12.37 12.37c6.832 0 12.37-5.538 12.37-12.37 0-1.955-0.454-3.804-1.261-5.447l0.032 0.073 7.354-7.354zM14 19.625c-3.107 0-5.625-2.518-5.625-5.625s2.518-5.625 5.625-5.625c3.107 0 5.625 2.518 5.625 5.625v0c-0.004 3.105-2.52 5.621-5.625 5.625h-0zM14 55.625c-3.107 0-5.625-2.518-5.625-5.625s2.518-5.625 5.625-5.625c3.107 0 5.625 2.518 5.625 5.625v0c-0.004 3.105-2.52 5.621-5.625 5.625h-0z"></path>
</svg>
