<!-- Generated by IcoMoon.io -->
<svg version="1.1" xmlns="http://www.w3.org/2000/svg" width="64" height="64" viewBox="0 0 64 64">
<title>deaf</title>
<path d="M31.011 8c0.034 0 0.069 0 0.103 0 7.989 0.056 14.526 6.602 14.573 14.591 0 0.024 0 0.053 0 0.082 0 3.653-1.333 6.994-3.538 9.564l0.017-0.020 4.251 4.251c3.271-3.645 5.27-8.489 5.27-13.799 0-0.040-0-0.080-0-0.12v0.006c-0.067-11.255-9.277-20.476-20.531-20.555-0.049-0-0.097-0-0.146-0-5.075 0-9.918 1.863-13.784 5.278l4.254 4.254c2.718-2.288 6.054-3.532 9.531-3.532z"></path>
<path d="M24.885 14.937l3.808 3.808c0.561-0.286 1.222-0.459 1.922-0.473l0.004-0c1.361-0.025 2.603 0.447 3.5 1.327 0.775 0.758 1.256 1.814 1.256 2.982 0 0.023-0 0.046-0.001 0.068l0-0.003h5.25c0-0.017 0-0.037 0-0.057 0-2.638-1.082-5.022-2.826-6.735l-0.001-0.001c-1.91-1.876-4.492-2.879-7.274-2.83-2.128 0.037-4.082 0.75-5.665 1.932l0.026-0.018z"></path>
<path d="M5.798 2h-3.798v3.627l9.555 9.555c-0.978 2.309-1.547 4.993-1.547 7.811 0 0.003 0 0.006 0 0.009v-0h6c0-1.078 0.118-2.128 0.341-3.139l-0.018 0.096 4.484 4.484v10.646l1.785 1.785c2.591 2.578 4.195 6.146 4.195 10.089 0 0.014 0 0.027-0 0.041v-0.002h5.25c0-0.016 0-0.034 0-0.053 0-5.388-2.192-10.264-5.732-13.786l-0.248-0.248v-3.221l13.383 13.383v5.613c-0.005 4.037-3.276 7.309-7.313 7.313h-6.447v6h6.447c7.215-0.009 13.087-5.749 13.307-12.911l0.001-0.020 12.932 12.932h3.627v-3.798z"></path>
</svg>
