<!-- Generated by IcoMoon.io -->
<svg version="1.1" xmlns="http://www.w3.org/2000/svg" width="64" height="64" viewBox="0 0 64 64">
<title>devices-slash</title>
<path d="M39.571 29.45l1 1c0.983-2.053 3.043-3.447 5.429-3.449h7v-15c0-1.105-0.895-2-2-2v0h-30.904l19.475 19.45z"></path>
<path d="M62 51.879v-18.879c0-1.105-0.895-2-2-2v0h-14c-1.105 0-2 0.895-2 2v0 0.879z"></path>
<path d="M44 47.678v9.322c0 1.105 0.895 2 2 2v0h9.322l3 3h3.678v-3.693l-56.286-56.307h-3.714v3.678l4.322 4.322h-2.322c-1.105 0-2 0.895-2 2v0 34c0 1.105 0.895 2 2 2v0h21.875v5.015l-6.875 0.842v5.143h19v-5.143l-6.875-0.842v-5.015h8.875v-4.322z"></path>
</svg>
