<!-- Generated by IcoMoon.io -->
<svg version="1.1" xmlns="http://www.w3.org/2000/svg" width="64" height="64" viewBox="0 0 64 64">
<title>devices-other</title>
<path d="M38 49v-22c0.004-3.312 2.688-5.996 6-6h11v-5.363c0-1.095-0.791-1.982-1.767-1.982h-49.467c-0.976 0-1.767 0.887-1.767 1.982v37.381c0 1.095 0.791 1.982 1.767 1.982h15.133l-0.641-6.407c-3.166-1.846-5.259-5.225-5.259-9.093s2.094-7.247 5.21-9.066l0.050-0.027 0.741-7.407h9l0.741 7.407c3.166 1.846 5.259 5.225 5.259 9.093s-2.094 7.247-5.209 9.066l-0.050 0.027-0.641 6.407h9.9v-6z"></path>
<path d="M44 25c-1.105 0-2 0.895-2 2v0 26c0 1.105 0.895 2 2 2v0h14c1.105 0 2-0.895 2-2v0-26c0-1.105-0.895-2-2-2v0h-14z"></path>
<path d="M30 39.5c0 3.59-2.91 6.5-6.5 6.5s-6.5-2.91-6.5-6.5c0-3.59 2.91-6.5 6.5-6.5s6.5 2.91 6.5 6.5z"></path>
</svg>
