<!-- Generated by IcoMoon.io -->
<svg version="1.1" xmlns="http://www.w3.org/2000/svg" width="64" height="64" viewBox="0 0 64 64">
<title>devices-important</title>
<path d="M46 27h7v-15c0-1.105-0.895-2-2-2v0h-47c-1.105 0-2 0.895-2 2v0 34c0 1.105 0.895 2 2 2v0h21.875v5.015l-6.875 0.842v5.143h19v-5.143l-6.875-0.842v-5.015h8.875v-15c0.004-3.312 2.688-5.996 6-6h0zM29.682 31.562c-0.015 0.046-0.028 0.085-0.043 0.132l0.935 6.060-1.439 1.045-5.475-2.762h-0.139l-5.475 2.762-1.439-1.045 0.935-6.060c-0.015-0.046-0.028-0.085-0.043-0.132l-4.318-4.353c0.251-0.774 0.298-0.918 0.55-1.691l6.052-0.984 0.112-0.081 2.806-5.452h1.778l2.806 5.452 0.112 0.081 6.052 0.984c0.251 0.774 0.298 0.918 0.55 1.691z"></path>
<path d="M46 31h14c1.105 0 2 0.895 2 2v24c0 1.105-0.895 2-2 2h-14c-1.105 0-2-0.895-2-2v-24c0-1.105 0.895-2 2-2z"></path>
</svg>
