<!-- Generated by IcoMoon.io -->
<svg version="1.1" xmlns="http://www.w3.org/2000/svg" width="64" height="64" viewBox="0 0 64 64">
<title>device-unknown</title>
<path d="M25 48.75v4.5h-11v4.75c0 1.105 0.895 2 2 2v0h32c1.105 0 2-0.895 2-2v0-4.75h-11v-4.5h11v-33.5h-36v33.5zM34.25 53.25h-4.5v-4.5h4.5zM32.394 19.758c5.44 0.219 9.767 4.682 9.767 10.156 0 4.815-3.348 8.847-7.842 9.897l-0.069 0.014v5.176h-4.5v-6.092c0.004-1.729 1.292-3.155 2.96-3.377l0.017-0.002c2.799-0.373 4.936-2.745 4.936-5.616 0-3.128-2.535-5.663-5.663-5.663s-5.663 2.535-5.663 5.663v0h-4.5c0-5.613 4.55-10.162 10.162-10.162 0.138 0 0.276 0.003 0.413 0.008l-0.020-0.001z"></path>
<path d="M50 6c0-1.105-0.895-2-2-2v0h-32c-1.105 0-2 0.895-2 2v0 4.75h36z"></path>
</svg>
