<!-- Generated by IcoMoon.io -->
<svg version="1.1" xmlns="http://www.w3.org/2000/svg" width="64" height="64" viewBox="0 0 64 64">
<title>dial</title>
<path d="M53.213 17.787c-5.429-5.429-12.929-8.787-21.213-8.787-16.569 0-30 13.431-30 30 0 0 0 0 0 0v0h6c0-13.234 10.766-24 24-24s24 10.766 24 24h6c0-0.024 0-0.053 0-0.081 0-8.259-3.359-15.733-8.786-21.13l-0.001-0.001z"></path>
<path d="M34.26 20.762v14.238h-4.5v-14.233c-8.961 1.121-15.917 8.786-15.917 18.046 0 10.029 8.159 18.188 18.187 18.188s18.188-8.159 18.188-18.188c0-9.274-6.977-16.948-15.958-18.051z"></path>
</svg>
