<!-- Generated by IcoMoon.io -->
<svg version="1.1" xmlns="http://www.w3.org/2000/svg" width="64" height="64" viewBox="0 0 64 64">
<title>directions</title>
<path d="M34.828 59.172l24.343-24.343c0.724-0.724 1.172-1.724 1.172-2.828s-0.448-2.105-1.172-2.828l-24.343-24.343c-0.724-0.724-1.724-1.172-2.828-1.172s-2.105 0.448-2.828 1.172l-24.343 24.343c-0.724 0.724-1.172 1.724-1.172 2.828s0.448 2.105 1.172 2.828l24.343 24.343c0.724 0.724 1.724 1.172 2.828 1.172s2.105-0.448 2.828-1.172v0zM25.625 43h-5.25v-15.625h16.625v-7.375l12 10-12 10v-7.375h-11.375z"></path>
</svg>
