<!-- Generated by IcoMoon.io -->
<svg version="1.1" xmlns="http://www.w3.org/2000/svg" width="64" height="64" viewBox="0 0 64 64">
<title>dog</title>
<path d="M49.163 20.166l-7.346-10.612c-1.083-1.546-2.844-2.552-4.842-2.584l-0.005-0-13.97-0.201c-7.197 0-12.72 1.204-16.276 7.079-3.156 5.214-4.587 13.922-4.714 28.898l9.991 0.002c5.198 0 8.080-4.252 9.048-8.244l3.027-14.506h4.597l-3.233 15.492-0.008 0.033c-0.785 3.272-2.34 6.093-4.497 8.157-2.28 2.208-5.392 3.569-8.821 3.569-0.040 0-0.079-0-0.119-0.001l0.006 0-5.6-0.001-3.56 14.751h36.16v-13.313l12.327-2.111c2.795-0.344 4.857-1.244 6.303-2.753 1.236-1.29 1.989-2.938 2.44-5.344l1.93-10.293v-5.88z"></path>
</svg>
