<!-- Generated by IcoMoon.io -->
<svg version="1.1" xmlns="http://www.w3.org/2000/svg" width="64" height="64" viewBox="0 0 64 64">
<title>dollar-slash</title>
<path d="M48.86 45.102l-43.113-43.102h-3.747v3.678l13.166 13.166c-0.736 1.509-1.166 3.284-1.166 5.159 0 6.626 5.372 11.998 11.998 11.998 0.001 0 0.002 0 0.003 0h6.322l7.539 7.539c-0.538 0.29-1.178 0.461-1.858 0.461-0.001 0-0.002 0-0.004 0h-21v8h12v7h8v-7h1c0.003 0 0.007 0 0.011 0 2.892 0 5.543-1.028 7.61-2.737l-0.020 0.016 12.721 12.721h3.678v-3.747l-13.144-13.144z"></path>
<path d="M39.571 29.45v0l10.427 10.427c-0.077-6.528-5.348-11.799-11.868-11.875l-0.007-0z"></path>
<path d="M29 12h-3c-0.002 0-0.004 0-0.007 0-1.206 0-2.37 0.178-3.468 0.51l0.085-0.022 7.512 7.512h15.996v-8h-9.118v-7h-8z"></path>
</svg>
