<!-- Generated by IcoMoon.io -->
<svg version="1.1" xmlns="http://www.w3.org/2000/svg" width="64" height="64" viewBox="0 0 64 64">
<title>dollar-circle-slash</title>
<path d="M55.008 51.25l-9.56-9.56c-0.001 0.003-0.002 0.005-0.003 0.008l-3.198-3.198h0.010l-5.757-5.757v0.010l-3.753-3.753h0.011l-6.934-6.934c-0.003 0.001-0.006 0.001-0.009 0.002l-4.513-4.513 0.006-0.004-8.558-8.558-0.006 0.005-6.997-6.997h-3.747v3.678l7.029 7.029c-4.371 5.162-7.029 11.896-7.029 19.251 0 0.015 0 0.030 0 0.045v-0.002c0 16.569 13.431 30 30 30 0.013 0 0.028 0 0.043 0 7.355 0 14.089-2.658 19.294-7.065l-0.044 0.036 7.029 7.029h3.678v-3.747l-6.997-6.997zM17 25.5c0-0.002 0-0.004 0-0.006 0-1.433 0.319-2.791 0.891-4.008l-0.024 0.058 5.487 5.487c0.351 0.706 0.909 1.264 1.595 1.606l0.020 0.009 6.353 6.353h-4.822c-5.244-0.006-9.494-4.256-9.5-9.499v-0.001zM36.5 48h-1.54v6h-6v-6h-8.96v-6h16.5c0.001 0 0.002 0 0.003 0 0.54 0 1.051-0.123 1.507-0.342l-0.021 0.009 4.333 4.333c-1.586 1.248-3.612 2.001-5.815 2.001-0.002 0-0.005 0-0.007 0h0z"></path>
<path d="M26.5 16h2.46v-6h6v6h8.040v6h-10.879l25.543 25.543c2.723-4.416 4.336-9.768 4.336-15.496 0-0.017 0-0.033-0-0.050v0.003c0-16.569-13.431-30-30-30-0.014 0-0.031-0-0.047-0-5.728 0-11.080 1.613-15.625 4.41l0.129-0.074 9.674 9.674c0.123-0.005 0.245-0.009 0.369-0.009z"></path>
</svg>
