<!-- Generated by IcoMoon.io -->
<svg version="1.1" xmlns="http://www.w3.org/2000/svg" width="64" height="64" viewBox="0 0 64 64">
<title>dollar-circle</title>
<path d="M32 62c16.569 0 30-13.431 30-30s-13.431-30-30-30-30 13.431-30 30 13.431 30 30 30zM26.5 16h2.46v-6h6v6h8.040v6h-16.5c-1.933 0-3.5 1.567-3.5 3.5s1.567 3.5 3.5 3.5v0h10c5.247 0 9.5 4.253 9.5 9.5s-4.253 9.5-9.5 9.5v0h-1.54v6h-6v-6h-8.96v-6h16.5c1.933 0 3.5-1.567 3.5-3.5s-1.567-3.5-3.5-3.5v0h-10c-5.247 0-9.5-4.253-9.5-9.5s4.253-9.5 9.5-9.5v0z"></path>
</svg>
