<!-- Generated by IcoMoon.io -->
<svg version="1.1" xmlns="http://www.w3.org/2000/svg" width="64" height="64" viewBox="0 0 64 64">
<title>donate</title>
<path d="M52.625 38.375l-1.576 1.576q-0.493 0.553-1.018 1.080-0.527 0.527-1.080 1.018l-1.576 1.576h9v14.75h-48.75v-14.75h9l-1.576-1.576q-0.553-0.493-1.080-1.018-0.527-0.527-1.018-1.080l-1.576-1.576h-9v25.25h59.25v-25.25z"></path>
<path d="M11.242 26.198q0.12 0.782 0.296 1.544 0.117 0.508 0.259 1.006 0.212 0.747 0.478 1.471 0.177 0.483 0.376 0.954t0.421 0.93c0.643 1.322 1.343 2.457 2.14 3.514l-0.039-0.053q0.151 0.202 0.307 0.401c3.656 4.641 9.163 7.683 15.389 8.005l0.051 0.002q0.537 0.027 1.081 0.027t1.081-0.027c6.277-0.324 11.784-3.367 15.406-7.963l0.034-0.045q0.156-0.198 0.307-0.401c0.758-1.003 1.458-2.138 2.046-3.337l0.055-0.124q0.221-0.459 0.421-0.93t0.376-0.954q0.265-0.724 0.478-1.471 0.142-0.498 0.259-1.006 0.176-0.762 0.296-1.544 0.080-0.521 0.134-1.051c0.069-0.644 0.108-1.391 0.108-2.147s-0.039-1.503-0.116-2.239l0.008 0.092q-0.081-0.794-0.22-1.57-0.046-0.259-0.099-0.515-0.157-0.769-0.37-1.517t-0.478-1.472c-0.759-2.041-1.737-3.807-2.936-5.397l0.038 0.053q-0.151-0.202-0.307-0.4c-3.656-4.641-9.163-7.683-15.389-8.005l-0.051-0.002q-0.537-0.027-1.081-0.027t-1.081 0.027c-6.277 0.324-11.784 3.366-15.406 7.963l-0.034 0.045q-0.156 0.198-0.307 0.4c-1.161 1.537-2.139 3.303-2.85 5.2l-0.047 0.145q-0.265 0.724-0.478 1.471t-0.37 1.517q-0.053 0.256-0.099 0.515-0.139 0.776-0.22 1.57c-0.069 0.644-0.108 1.391-0.108 2.147s0.039 1.503 0.116 2.239l-0.008-0.092q0.054 0.529 0.134 1.051zM28.856 12.75h0.644v-4.75h5v4.75h5.144v4.5h-10.789c-1.105 0-2 0.895-2 2s0.895 2 2 2v0h6.539c3.59 0 6.5 2.91 6.5 6.5s-2.91 6.5-6.5 6.5v0h-0.894v4.75h-5v-4.75h-4.894v-4.5h10.789c1.105 0 2-0.895 2-2s-0.895-2-2-2v0h-6.539c-3.59 0-6.5-2.91-6.5-6.5s2.91-6.5 6.5-6.5v0z"></path>
<path d="M29.454 48.375h-15.454v5.25h36v-5.25h-20.546z"></path>
</svg>
