<!-- Generated by IcoMoon.io -->
<svg version="1.1" xmlns="http://www.w3.org/2000/svg" width="64" height="64" viewBox="0 0 64 64">
<title>drop-slash</title>
<path d="M49.479 39.892l3.746 3.746c0.167-1.007 0.262-2.167 0.262-3.349 0-0 0-0.001 0-0.001v0c0-0.017 0-0.037 0-0.057 0-4.761-1.561-9.157-4.198-12.705l0.040 0.057-15.645-24.436c-0.361-0.558-0.98-0.922-1.684-0.922s-1.323 0.364-1.68 0.914l-0.005 0.008-6.863 10.719 2.896 2.896z"></path>
<path d="M5.712 2.083h-3.712v3.712l16.229 16.229-3.559 5.558c-2.597 3.491-4.158 7.887-4.158 12.648 0 0.020 0 0.040 0 0.060v-0.003c0 11.848 9.639 21.487 21.487 21.487 7.054-0.001 13.313-3.403 17.226-8.656l0.041-0.057 9.021 9.021h3.712v-3.712z"></path>
</svg>
