<!-- Generated by IcoMoon.io -->
<svg version="1.1" xmlns="http://www.w3.org/2000/svg" width="64" height="64" viewBox="0 0 64 64">
<title>ear</title>
<path d="M32.045 47c0-0.016 0-0.034 0-0.053 0-5.388-2.192-10.264-5.732-13.786l-0.248-0.248v-9.913c0-2.561 2.043-4.683 4.554-4.728 1.361-0.025 2.603 0.447 3.5 1.327 0.775 0.758 1.256 1.814 1.256 2.982 0 0.023-0 0.046-0.001 0.068l0-0.003h5.25c0-0.017 0-0.037 0-0.057 0-2.638-1.082-5.022-2.826-6.735l-0.001-0.001c-1.91-1.876-4.493-2.879-7.274-2.83-2.714 0.047-5.152 1.193-6.894 3.011l-0.003 0.003c-1.739 1.794-2.812 4.243-2.812 6.942 0 0.007 0 0.015 0 0.022v-0.001 12.087l1.785 1.785c2.591 2.578 4.195 6.146 4.195 10.089 0 0.014 0 0.027-0 0.041v-0.002z"></path>
<path d="M31.156 2.001c-5.556-0.035-10.836 2.15-14.879 6.164-4.043 4.015-6.27 9.284-6.27 14.836h-0.008v5h6v-5h0.008c0-3.941 1.597-7.698 4.498-10.578 2.899-2.879 6.671-4.453 10.608-4.421 7.989 0.056 14.526 6.602 14.573 14.59 0 0.024 0 0.053 0 0.082 0 4.346-1.887 8.252-4.886 10.943l-0.014 0.012c-0.824 0.742-1.34 1.812-1.34 3.002 0 0.001 0 0.002 0 0.003v-0 12.054c-0.005 4.037-3.276 7.309-7.313 7.313h-6.447v6h6.447c7.349-0.009 13.305-5.964 13.313-13.313v-11.204c3.852-3.763 6.24-9.008 6.24-14.812 0-0.041-0-0.081-0-0.122v0.006c-0.066-11.255-9.277-20.476-20.531-20.555z"></path>
</svg>
