<!-- Generated by IcoMoon.io -->
<svg version="1.1" xmlns="http://www.w3.org/2000/svg" width="64" height="64" viewBox="0 0 64 64">
<title>envelope-plus</title>
<path d="M4 14.625v22.75l15.167-11.375-15.167-11.375z"></path>
<path d="M36.5 32.25c-1.238 0.937-2.803 1.5-4.5 1.5s-3.262-0.564-4.519-1.514l0.019 0.014-4.583-3.438-18.917 14.188v5h27.529c0.545-9.225 8.159-16.5 17.472-16.5 4.182 0 8.021 1.467 11.031 3.913l-0.032-0.025v-20.763z"></path>
<path d="M30.2 28.65c0.495 0.375 1.121 0.6 1.8 0.6s1.305-0.225 1.808-0.605l-0.008 0.005 26.2-19.65v-5h-56v5z"></path>
<path d="M61.667 46.064q-0.073-0.315-0.16-0.623t-0.19-0.611-0.219-0.597c-0.304-0.765-0.633-1.415-1.012-2.030l0.032 0.056q-0.326-0.536-0.701-1.037-0.094-0.125-0.19-0.248c-1.415-1.791-3.256-3.186-5.373-4.041l-0.087-0.031q-0.148-0.058-0.297-0.113-0.299-0.109-0.604-0.204t-0.617-0.175c-0.758-0.204-1.641-0.344-2.548-0.391l-0.032-0.001q-0.332-0.017-0.669-0.017t-0.669 0.017c-0.939 0.048-1.822 0.189-2.67 0.413l0.091-0.020q-0.312 0.080-0.617 0.175t-0.604 0.204q-0.149 0.055-0.297 0.113c-2.204 0.886-4.045 2.281-5.44 4.045l-0.021 0.027q-0.096 0.123-0.19 0.248-0.374 0.501-0.701 1.037c-0.347 0.559-0.676 1.209-0.949 1.887l-0.031 0.087q-0.116 0.295-0.219 0.597t-0.19 0.611-0.16 0.623c-0.212 0.882-0.333 1.895-0.333 2.936s0.121 2.054 0.351 3.025l-0.018-0.089q0.073 0.315 0.16 0.623t0.19 0.611 0.219 0.597c0.304 0.765 0.633 1.415 1.012 2.030l-0.032-0.056q0.326 0.536 0.701 1.037 0.094 0.125 0.19 0.248c1.415 1.791 3.256 3.186 5.373 4.041l0.087 0.031q0.148 0.058 0.297 0.113 0.299 0.109 0.604 0.204t0.617 0.175c0.758 0.204 1.641 0.344 2.548 0.391l0.032 0.001q0.332 0.017 0.669 0.017t0.669-0.017c0.939-0.048 1.822-0.189 2.67-0.413l-0.091 0.020q0.312-0.080 0.617-0.175t0.604-0.204q0.149-0.055 0.297-0.113c2.204-0.886 4.045-2.281 5.44-4.045l0.021-0.027q0.096-0.123 0.19-0.248 0.374-0.501 0.701-1.037c0.347-0.559 0.676-1.209 0.949-1.887l0.031-0.087q0.116-0.295 0.219-0.597t0.19-0.611 0.16-0.623c0.212-0.882 0.333-1.895 0.333-2.936s-0.121-2.054-0.351-3.025l0.018 0.089zM56.286 51.25h-4.893v4.893h-4.5v-4.893h-4.893v-4.5h4.893v-4.893h4.5v4.893h4.893z"></path>
</svg>
