<!-- Generated by IcoMoon.io -->
<svg version="1.1" xmlns="http://www.w3.org/2000/svg" width="64" height="64" viewBox="0 0 64 64">
<title>envelope-minus</title>
<path d="M4 14.625v22.75l15.167-11.375-15.167-11.375z"></path>
<path d="M36.5 32.25c-1.238 0.937-2.803 1.5-4.5 1.5s-3.262-0.564-4.519-1.514l0.019 0.014-4.583-3.438-18.917 14.188v5h27.529c0.545-9.225 8.159-16.5 17.472-16.5 4.182 0 8.021 1.467 11.031 3.913l-0.032-0.025v-20.763z"></path>
<path d="M30.2 28.65c0.495 0.375 1.121 0.6 1.799 0.6 0 0 0.001 0 0.001 0h-0q0.119 0 0.237-0.009c0.594-0.048 1.13-0.262 1.57-0.596l-0.008 0.005 26.2-19.65v-5h-56v5z"></path>
<path d="M61.591 52.249c0.204-0.758 0.344-1.641 0.391-2.548l0.001-0.032q0.017-0.332 0.017-0.669t-0.017-0.669c-0.048-0.939-0.189-1.822-0.413-2.67l0.020 0.091q-0.040-0.156-0.084-0.31c-0.051-0.18-0.107-0.359-0.166-0.536-0.042-0.126-0.085-0.251-0.13-0.375q-0.055-0.149-0.113-0.297c-0.096-0.243-0.199-0.481-0.309-0.717q-0.134-0.287-0.281-0.566-0.155-0.295-0.325-0.581-0.063-0.106-0.128-0.21c-1.1-1.754-2.548-3.191-4.258-4.245l-0.056-0.032q-0.134-0.081-0.27-0.16-0.272-0.157-0.553-0.3-0.42-0.215-0.858-0.401c-0.595-0.261-1.304-0.497-2.037-0.671l-0.088-0.018c-0.882-0.212-1.895-0.333-2.936-0.333s-2.054 0.121-3.025 0.351l0.089-0.018q-0.315 0.073-0.623 0.16t-0.611 0.19-0.597 0.219c-0.765 0.304-1.415 0.633-2.030 1.012l0.056-0.032q-0.536 0.326-1.037 0.701-0.125 0.094-0.248 0.19c-1.791 1.415-3.186 3.256-4.041 5.373l-0.031 0.087q-0.058 0.148-0.113 0.297-0.109 0.299-0.204 0.604t-0.175 0.617c-0.204 0.758-0.344 1.641-0.391 2.548l-0.001 0.032q-0.017 0.332-0.017 0.669t0.017 0.669c0.048 0.939 0.189 1.822 0.413 2.67l-0.020-0.091q0.080 0.312 0.175 0.617t0.204 0.604q0.055 0.149 0.113 0.297c0.886 2.204 2.281 4.045 4.045 5.44l0.027 0.021q0.123 0.096 0.248 0.19 0.501 0.374 1.037 0.701c0.559 0.347 1.209 0.676 1.887 0.949l0.087 0.031q0.295 0.116 0.597 0.219t0.611 0.19 0.623 0.16c0.882 0.212 1.895 0.333 2.936 0.333s2.054-0.121 3.025-0.351l-0.089 0.018c0.181-0.042 0.361-0.088 0.539-0.138q0.351-0.097 0.694-0.213c0.163-0.055 0.324-0.114 0.484-0.176 0.136-0.052 0.272-0.106 0.406-0.163q0.438-0.185 0.858-0.401 0.28-0.144 0.553-0.3 0.136-0.078 0.27-0.16 0.438-0.266 0.853-0.566 0.219-0.158 0.432-0.324 0.259-0.204 0.508-0.421 0.214-0.186 0.42-0.382 0.234-0.222 0.457-0.456 0.215-0.226 0.42-0.462 0.283-0.326 0.543-0.672 0.047-0.063 0.094-0.126 0.311-0.422 0.588-0.869 0.065-0.105 0.128-0.21 0.17-0.286 0.325-0.581 0.147-0.279 0.281-0.566c0.11-0.235 0.213-0.474 0.309-0.717q0.058-0.148 0.113-0.297c0.045-0.124 0.088-0.249 0.13-0.375 0.059-0.177 0.114-0.356 0.166-0.536q0.044-0.154 0.084-0.31zM42 46.75h14.286v4.5h-14.286z"></path>
</svg>
