<!-- Generated by IcoMoon.io -->
<svg version="1.1" xmlns="http://www.w3.org/2000/svg" width="64" height="64" viewBox="0 0 64 64">
<title>equalizer</title>
<path d="M14 17.514v-15.514h-6v15.514c-3.526 1.273-6 4.59-6 8.486s2.474 7.213 5.937 8.466l0.063 0.020v27.514h6v-27.514c3.526-1.273 6-4.59 6-8.486s-2.474-7.213-5.937-8.466l-0.063-0.020z"></path>
<path d="M35 35.514v-33.514h-6v33.514c-3.526 1.273-6 4.59-6 8.486s2.474 7.213 5.937 8.466l0.063 0.020v9.514h6v-9.514c3.526-1.273 6-4.59 6-8.486s-2.474-7.213-5.937-8.466l-0.063-0.020z"></path>
<path d="M56 9.514v-7.514h-6v7.514c-3.526 1.273-6 4.59-6 8.486s2.474 7.213 5.937 8.466l0.063 0.020v35.514h6v-35.514c3.526-1.273 6-4.59 6-8.486s-2.474-7.213-5.937-8.466l-0.063-0.020z"></path>
</svg>
