<!-- Generated by IcoMoon.io -->
<svg version="1.1" xmlns="http://www.w3.org/2000/svg" width="64" height="64" viewBox="0 0 64 64">
<title>euro-circle-slash</title>
<path d="M55.008 51.25l-49.261-49.25h-3.747v3.678l7.029 7.029c-4.371 5.162-7.029 11.896-7.029 19.251 0 0.015 0 0.030 0 0.045v-0.002c0 16.569 13.431 30 30 30 0.013 0 0.028 0 0.043 0 7.355 0 14.089-2.658 19.295-7.065l-0.044 0.036 7.029 7.029h3.678v-3.747l-6.997-6.997zM20.322 24l5 5h-14.322v-5h4.79c0.502-1.119 1.045-2.073 1.664-2.97l-0.040 0.062zM32.7 44h6.3v6h-6.3c-7.499-0.008-13.955-4.47-16.863-10.884l-0.047-0.116h-4.79v-5h19.322l4.678 4.678v0.322h-12.294c2.302 3.049 5.92 5 9.994 5v0z"></path>
<path d="M32 2c-0.014 0-0.031-0-0.047-0-5.728 0-11.080 1.613-15.625 4.41l0.129-0.074 8.408 8.408c2.289-1.101 4.978-1.744 7.816-1.744 0.007 0 0.013 0 0.020 0h6.299v6h-6.3c-0.002 0-0.004 0-0.007 0-1.125 0-2.215 0.149-3.252 0.428l0.087-0.020 28.135 28.135c2.723-4.416 4.336-9.768 4.336-15.496 0-0.017 0-0.033-0-0.050v0.003c0-16.569-13.431-30-30-30z"></path>
</svg>
