<!-- Generated by IcoMoon.io -->
<svg version="1.1" xmlns="http://www.w3.org/2000/svg" width="64" height="64" viewBox="0 0 64 64">
<title>euro-circle</title>
<path d="M31.75 62c16.569 0 30-13.431 30-30s-13.431-30-30-30-30 13.431-30 30 13.431 30 30 30zM39 50h-6.3c-7.499-0.008-13.955-4.47-16.863-10.884l-0.047-0.116h-4.79v-5h24v5h-12.294c2.302 3.049 5.92 5 9.994 5h6.3zM11 24h4.79c2.955-6.53 9.41-10.992 16.909-11h6.301v6h-6.3c-4.073 0-7.691 1.951-9.971 4.968l-0.023 0.032h12.294v5h-24z"></path>
</svg>
