<!-- Generated by IcoMoon.io -->
<svg version="1.1" xmlns="http://www.w3.org/2000/svg" width="64" height="64" viewBox="0 0 64 64">
<title>euro-slash</title>
<path d="M48 9h-8.5c-0.007 0-0.014 0-0.022 0-5.704 0-10.931 2.041-14.99 5.433l0.037-0.030 5.692 5.692c2.548-1.932 5.771-3.095 9.267-3.095 0.006 0 0.012 0 0.018 0h8.499z"></path>
<path d="M39.571 29.45v0l0.55 0.55h2.879v-7h-9.879l6.45 6.45z"></path>
<path d="M43 39.243l-4.243-4.243h-0.010l-5-5h0.010l-28.010-28h-3.747v3.678l16.428 16.428q-0.219 0.442-0.42 0.894h-5.008v7h13.322l5 5h-18.322v7h5.008c3.656 8.239 11.913 14 21.492 14h8.5v-4.322l10.322 10.322h3.678v-3.747l-19-19zM44.322 48h-4.822c-0 0-0 0-0 0-4.962 0-9.379-2.335-12.213-5.966l-0.026-0.034h11.061z"></path>
</svg>
