<!-- Generated by IcoMoon.io -->
<svg version="1.1" xmlns="http://www.w3.org/2000/svg" width="64" height="64" viewBox="0 0 64 64">
<title>external-link</title>
<path d="M28.828 43.672c0 0-0 0-0 0-4.694 0-8.5-3.806-8.5-8.5 0-2.347 0.951-4.472 2.49-6.011l14.161-14.161h-34.979v47h47v-34.979l-14.161 14.161c-1.53 1.538-3.647 2.49-5.987 2.49-0.008 0-0.016 0-0.024-0h0.001z"></path>
<path d="M36 2v8h12.343l-22.343 22.343q-0.073 0.073-0.142 0.149c-0.13 0.143-0.252 0.299-0.362 0.464l-0.009 0.015q-0.055 0.083-0.105 0.168-0.101 0.17-0.183 0.348-0.041 0.089-0.078 0.179-0.073 0.181-0.128 0.366t-0.091 0.375c-0.047 0.23-0.073 0.494-0.073 0.764 0 0 0 0 0 0v0c0 0.068 0.002 0.136 0.006 0.205q0.009 0.185 0.036 0.37 0.027 0.19 0.073 0.378t0.11 0.371q0.032 0.092 0.069 0.182c0.135 0.328 0.296 0.612 0.488 0.871l-0.008-0.011c0.127 0.171 0.257 0.322 0.398 0.463v0q0.073 0.073 0.149 0.142c0.507 0.46 1.138 0.792 1.837 0.94l0.026 0.005c0.028 0.006 0.056 0.012 0.085 0.017q0.153 0.028 0.308 0.045c0.023 0.002 0.046 0.005 0.068 0.007q0.171 0.015 0.343 0.016c0.005 0 0.009 0 0.013 0 0.327-0 0.645-0.039 0.95-0.113l-0.027 0.006c0.010-0.002 0.020-0.004 0.030-0.007 0.344-0.085 0.646-0.203 0.927-0.353l-0.019 0.009c0.312-0.166 0.581-0.356 0.822-0.575l-0.003 0.003q0.076-0.069 0.149-0.142l22.343-22.343v12.343h8v-26z"></path>
</svg>
