<!-- Generated by IcoMoon.io -->
<svg version="1.1" xmlns="http://www.w3.org/2000/svg" width="64" height="64" viewBox="0 0 64 64">
<title>eye-slash</title>
<path d="M31.5 18.28c-0.002 0-0.003 0-0.005 0-1.027 0-2.023 0.138-2.968 0.396l0.079-0.018 13.766 13.766c0.24-0.868 0.378-1.864 0.378-2.892 0-6.214-5.037-11.251-11.25-11.252h-0z"></path>
<path d="M49.653 15.387l-0.027-0.028c-7.811-7.811-19.559-9.343-28.915-4.598l4.381 4.381c1.885-0.862 4.089-1.364 6.411-1.364 8.697 0 15.748 7.050 15.748 15.748 0 2.321-0.502 4.526-1.404 6.51l0.040-0.099 6.202 6.202 9.912-10.304v-3.612z"></path>
<path d="M2 2v3.627l11.079 11.079-11.079 11.518v3.612l12.374 12.864c4.517 4.504 10.75 7.289 17.634 7.289 4.731 0 9.155-1.316 12.926-3.601l-0.111 0.063 13.55 13.55h3.627v-3.798l-56.202-56.202zM17.925 21.552l3.33 3.33c-0.635 1.365-1.006 2.964-1.006 4.649 0 6.212 5.036 11.249 11.249 11.249 1.685 0 3.284-0.37 4.718-1.035l-0.070 0.029 3.33 3.33c-2.285 1.367-5.040 2.175-7.985 2.175-8.695 0-15.743-7.048-15.743-15.743 0-2.944 0.808-5.7 2.215-8.057l-0.040 0.072z"></path>
</svg>
