<!-- Generated by IcoMoon.io -->
<svg version="1.1" xmlns="http://www.w3.org/2000/svg" width="64" height="64" viewBox="0 0 64 64">
<title>eye</title>
<path d="M32 20.086c-6.027 0-10.914 4.886-10.914 10.914s4.886 10.914 10.914 10.914c6.027 0 10.914-4.886 10.914-10.914v0c0-6.027-4.886-10.914-10.914-10.914v0zM34.5 33.5h-5v-5h5z"></path>
<path d="M49.653 16.358l-0.027-0.028c-9.719-9.719-25.532-9.719-35.251 0l-12.374 12.864v3.612l12.374 12.864c4.514 4.504 10.744 7.289 17.625 7.289s13.112-2.785 17.626-7.29l-0.001 0.001 12.374-12.864v-3.612zM42.899 41.899c-2.789 2.789-6.643 4.514-10.899 4.514-8.513 0-15.414-6.901-15.414-15.414s6.901-15.414 15.414-15.414c8.513 0 15.414 6.901 15.414 15.414v0c0 0.012 0 0.027 0 0.042 0 4.243-1.726 8.083-4.514 10.857l-0.001 0.001z"></path>
</svg>
