<!-- Generated by IcoMoon.io -->
<svg version="1.1" xmlns="http://www.w3.org/2000/svg" width="64" height="64" viewBox="0 0 64 64">
<title>eyedropper</title>
<path d="M60.507 8.298c-0.539-1.078-1.21-2.001-2.007-2.798l-0.5-0.5c-0.022-0.022-0.044-0.041-0.066-0.063-1.913-1.88-4.539-3.041-7.435-3.041-2.728 0-5.215 1.029-7.094 2.721l0.010-0.008q-0.211 0.189-0.414 0.392l-7.599 7.599-6.483-6.509-3.72 3.705 6.4 6.426-23.76 23.76c-3.361 3.344-5.442 7.973-5.442 13.087 0 0.018 0 0.035 0 0.053v-0.003 4.921c0.002 1.979 1.606 3.584 3.586 3.586h3.961c0.015 0 0.033 0 0.050 0 5.115 0 9.744-2.080 13.087-5.441l24.21-24.21 6.851 6.878 3.72-3.705-6.99-7.018 7.63-7.63c1.917-1.922 3.103-4.574 3.103-7.503 0-1.711-0.405-3.328-1.123-4.76l0.028 0.061zM34.839 37h-16.596l16.288-16.288 8.298 8.298z"></path>
</svg>
