<!-- Generated by IcoMoon.io -->
<svg version="1.1" xmlns="http://www.w3.org/2000/svg" width="64" height="64" viewBox="0 0 64 64">
<title>face</title>
<path d="M21 28h-6v-6h6zM37 43.25h-7.369c-2.696 0-4.881-2.186-4.881-4.882 0-0.478 0.069-0.939 0.197-1.376l-0.009 0.035 3.812-13.342v-2.685h4.5v3.315l-3.985 13.949c-0.009 0.031-0.015 0.068-0.015 0.105 0 0.211 0.171 0.381 0.381 0.381 0 0 0 0 0 0h7.369zM47 28h-6v-6h6zM32 2c-16.569 0-30 13.431-30 30s13.431 30 30 30 30-13.431 30-30-13.431-30-30-30z"></path>
</svg>
