<!-- Generated by IcoMoon.io -->
<svg version="1.1" xmlns="http://www.w3.org/2000/svg" width="64" height="64" viewBox="0 0 64 64">
<title>face-dead</title>
<path d="M32 2c-16.569 0-30 13.431-30 30s13.431 30 30 30 30-13.431 30-30-13.431-30-30-30zM14.818 29.005l2.505-2.818-2.818-2.505 2.99-3.363 2.818 2.505 2.505-2.818 3.363 2.99-2.505 2.818 2.818 2.505-2.99 3.363-2.818-2.505-2.505 2.818zM43 44.25h-22v-4.5h22zM45.505 31.682l-2.818-2.505-2.505 2.818-3.363-2.99 2.505-2.818-2.818-2.505 2.99-3.363 2.818 2.505 2.505-2.818 3.363 2.99-2.505 2.818 2.818 2.505z"></path>
</svg>
