<!-- Generated by IcoMoon.io -->
<svg version="1.1" xmlns="http://www.w3.org/2000/svg" width="64" height="64" viewBox="0 0 64 64">
<title>fastfood</title>
<path d="M45 11v-9h-6v9h-16v6h3.335l0.64 5.5h3.844c0.061 0 0.122 0.001 0.183 0.002 6.369 0.11 11.49 5.295 11.498 11.678v24.82h10.281l4.884-42h4.335v-6z"></path>
<path d="M30.75 27h-19.5c-4.002 0.005-7.245 3.248-7.25 7.25v4.75h34v-4.75c-0.005-4.002-3.248-7.245-7.25-7.25h-0z"></path>
<path d="M4 53h34v6h-34v-6z"></path>
<path d="M4 43h34v6h-34v-6z"></path>
</svg>
