<!-- Generated by IcoMoon.io -->
<svg version="1.1" xmlns="http://www.w3.org/2000/svg" width="64" height="64" viewBox="0 0 64 64">
<title>fiber-pin</title>
<path d="M60 8h-56c-1.105 0-2 0.895-2 2v0 44c0 1.105 0.895 2 2 2v0h56c1.105 0 2-0.895 2-2v0-44c0-1.105-0.895-2-2-2v0zM23.25 32c-0.003 2.346-1.904 4.247-4.25 4.25h-5.75v6.75h-4.5l0-23h11.685c1.654 0.608 2.812 2.168 2.815 4v0zM32.25 43h-4.5v-23h4.5zM54.25 43h-5.849l-6.151-14.608v14.608h-4.5v-23h5.849l6.151 14.608v-14.608h4.5z"></path>
<path d="M13.25 24.25h5.5v7.5h-5.5v-7.5z"></path>
</svg>
