<!-- Generated by IcoMoon.io -->
<svg version="1.1" xmlns="http://www.w3.org/2000/svg" width="64" height="64" viewBox="0 0 64 64">
<title>fiber-new</title>
<path d="M26 8c-13.234 0-24 10.766-24 24s10.766 24 24 24 24-10.766 24-24-10.766-24-24-24zM26 50c-9.925 0-18-8.075-18-18s8.075-18 18-18 18 8.075 18 18-8.075 18-18 18z"></path>
<path d="M37 32c0 6.075-4.925 11-11 11s-11-4.925-11-11c0-6.075 4.925-11 11-11s11 4.925 11 11z"></path>
<path d="M59.962 20.206c-1.403-3.863-3.313-7.204-5.692-10.148l0.052 0.066-4.681 3.753c3.962 4.918 6.359 11.241 6.359 18.125 0 6.48-2.125 12.465-5.716 17.293l0.055-0.077 4.825 3.566c4.27-5.741 6.836-12.97 6.836-20.799 0-4.223-0.747-8.272-2.116-12.022l0.078 0.244z"></path>
</svg>
