<!-- Generated by IcoMoon.io -->
<svg version="1.1" xmlns="http://www.w3.org/2000/svg" width="64" height="64" viewBox="0 0 64 64">
<title>fiber-smart</title>
<path d="M14 39h-0.6l-0.908-17.501-2.078-9.499h-8.415v38h6v-30h0.6l0.699 14.976 3.287 15.024h7.415v-38h-6v27z"></path>
<path d="M23 50h12v-6h-6v-10h4v-6h-4v-10h6v-6h-12v38z"></path>
<path d="M56 12v6.84l-1 9.333v12.827h-0.6l-0.998-14.255-0.784-5.745h-6.237l-0.784 5.744-0.998 14.256h-0.6v-12.827l-1-9.334v-6.84h-6v7.16l3.304 30.84h7.696l1.2-21h0.6l1.2 21h7.696l3.304-30.84v-7.16h-6z"></path>
</svg>
