<!-- Generated by IcoMoon.io -->
<svg version="1.1" xmlns="http://www.w3.org/2000/svg" width="64" height="64" viewBox="0 0 64 64">
<title>fiber-dvr</title>
<path d="M15 12h-13v38h13c2.76-0.003 4.997-2.24 5-5v-28c-0.003-2.76-2.24-4.997-5-5h-0zM14 44h-6v-26h6z"></path>
<path d="M62 29v-12c-0.003-2.76-2.24-4.997-5-5h-13v38h6v-16h1.969l3.031 7.578v8.422h6v-9.578l-2.644-6.611c2.118-0.614 3.641-2.534 3.644-4.811v-0zM56 28h-6v-10h6z"></path>
<path d="M36 18.734l-4 22.4-4-22.4v-6.734h-6v7.266l5.488 30.734h9.023l5.488-30.734v-7.266h-6v6.734z"></path>
</svg>
