<!-- Generated by IcoMoon.io -->
<svg version="1.1" xmlns="http://www.w3.org/2000/svg" width="64" height="64" viewBox="0 0 64 64">
<title>file-xls</title>
<path d="M60 25.25h-21.25v-21.25h-27.75v27.5h49v-6.25z"></path>
<path d="M60 20.75v-0.75l-16-16h-0.75v16.75h16.75z"></path>
<path d="M4 36v24h56v-24zM22.222 55.933l-3.405-5.008-3.405 5.008h-3.628l5.219-7.675-5.361-7.883h3.628l3.547 5.216 3.547-5.216h3.628l-5.361 7.883 5.219 7.675zM39.75 55.875h-9.5v-15.5h3v12.5h6.5zM49 55.875h-6v-3h6c0.828 0 1.5-0.672 1.5-1.5s-0.672-1.5-1.5-1.5v0h-2c-2.485 0-4.5-2.015-4.5-4.5s2.015-4.5 4.5-4.5v0h5v3h-5c-0.828 0-1.5 0.672-1.5 1.5s0.672 1.5 1.5 1.5v0h2c2.485 0 4.5 2.015 4.5 4.5s-2.015 4.5-4.5 4.5v0z"></path>
</svg>
