<!-- Generated by IcoMoon.io -->
<svg version="1.1" xmlns="http://www.w3.org/2000/svg" width="64" height="64" viewBox="0 0 64 64">
<title>file-ppt</title>
<path d="M60 25.25h-21.25v-21.25h-27.75v27.5h49v-6.25z"></path>
<path d="M60 20.75v-0.75l-16-16h-0.75v16.75h16.75z"></path>
<path d="M4 36v24h56v-24zM41 40.5h12v3h-4.5v12.5h-3v-12.5h-4.5zM27.5 51.5v-11h5.563c3.002 0.004 5.434 2.436 5.438 5.437v0.125c-0.004 3.002-2.436 5.434-5.437 5.438h-2.563v4.5h-3zM13 51.5v-11h5.563c3.002 0.004 5.434 2.436 5.438 5.437v0.125c-0.003 3.002-2.436 5.434-5.437 5.438h-2.563v4.5h-3z"></path>
<path d="M30.5 48.5h2.563c1.346-0.002 2.436-1.092 2.438-2.437v-0.125c-0.002-1.346-1.092-2.436-2.437-2.438h-2.563z"></path>
<path d="M16 48.5h2.563c1.346-0.002 2.436-1.092 2.438-2.437v-0.125c-0.002-1.346-1.092-2.436-2.437-2.438h-2.563z"></path>
</svg>
