<!-- Generated by IcoMoon.io -->
<svg version="1.1" xmlns="http://www.w3.org/2000/svg" width="64" height="64" viewBox="0 0 64 64">
<title>file-pdf</title>
<path d="M60 25.25h-21.25v-21.25h-27.75v27.5h49v-6.25z"></path>
<path d="M60 20.75v-0.75l-16-16h-0.75v16.75h16.75z"></path>
<path d="M19.25 46.063v-0.125c-0.002-1.346-1.092-2.436-2.437-2.438h-2.563v5h2.563c1.346-0.002 2.436-1.092 2.438-2.437v-0z"></path>
<path d="M34.25 49.426v-2.405c-0.002-1.944-1.577-3.519-3.521-3.521h-2.479v9.447h2.479c1.944-0.002 3.519-1.577 3.521-3.521v-0z"></path>
<path d="M4 60h56v-24h-56zM41.25 40.5h9.5v3h-6.5v3.625h4.5v3.75h-4.5v5.125h-3zM25.25 40.5h5.479c3.6 0.004 6.517 2.921 6.521 6.52v2.405c-0.004 3.6-2.921 6.517-6.52 6.521h-5.48zM11.25 51.5v-11h5.563c3.002 0.004 5.434 2.436 5.438 5.437v0.125c-0.004 3.002-2.436 5.434-5.437 5.438h-2.563v4.5h-3z"></path>
</svg>
