<!-- Generated by IcoMoon.io -->
<svg version="1.1" xmlns="http://www.w3.org/2000/svg" width="64" height="64" viewBox="0 0 64 64">
<title>file-powerpoint</title>
<path d="M19.25 43.607h3.321c0.002 0 0.004 0 0.006 0 1.756 0 3.179-1.423 3.179-3.179s-1.423-3.179-3.179-3.179c-0.002 0-0.004 0-0.007 0h-3.321z"></path>
<path d="M57 20.75v-0.75l-16-16h-0.75v16.75h16.75z"></path>
<path d="M8 60h49v-34.75h-21.25v-21.25h-27.75zM14.75 48.107v-15.357h7.821c0.003 0 0.006 0 0.010 0 4.241 0 7.679 3.438 7.679 7.679s-3.438 7.679-7.679 7.679c-0.003 0-0.007 0-0.010 0h-3.321v5.893h-4.5z"></path>
</svg>
