<!-- Generated by IcoMoon.io -->
<svg version="1.1" xmlns="http://www.w3.org/2000/svg" width="64" height="64" viewBox="0 0 64 64">
<title>file-doc</title>
<path d="M60 20.75v-0.75l-16-16h-0.75v16.75h16.75z"></path>
<path d="M60 25.25h-21.25v-21.25h-27.75v27.5h49v-6.25z"></path>
<path d="M4 36v24h56v-24zM23.5 48.979c-0.004 3.6-2.921 6.517-6.52 6.521h-5.479v-15h5.479c3.6 0.004 6.517 2.921 6.521 6.52v0zM38.5 49.5c0 3.314-2.686 6-6 6s-6-2.686-6-6v0-3c0-3.314 2.686-6 6-6s6 2.686 6 6v0zM47.5 55.5c-3.312-0.004-5.996-2.688-6-6v-3c0.001-3.314 2.687-6 6.001-6 2.544 0 4.718 1.583 5.591 3.817l0.014 0.041-2.789 1.115c-0.432-1.161-1.53-1.973-2.818-1.973-1.657 0-2.999 1.343-2.999 2.999 0 0 0 0.001 0 0.001v-0 3c0 0 0 0 0 0.001 0 1.657 1.343 2.999 2.999 2.999 1.288 0 2.387-0.812 2.812-1.952l0.007-0.021 2.789 1.115c-0.885 2.275-3.057 3.858-5.599 3.858-0.003 0-0.005 0-0.008 0h0z"></path>
<path d="M32.5 43.5c-1.656 0.002-2.998 1.344-3 3v3c0 1.657 1.343 3 3 3s3-1.343 3-3v0-3c-0.002-1.656-1.344-2.998-3-3h-0z"></path>
<path d="M16.979 43.5h-2.479v9h2.479c1.944-0.002 3.519-1.577 3.521-3.521v-1.959c-0.002-1.944-1.577-3.519-3.521-3.521h-0z"></path>
</svg>
