<!-- Generated by IcoMoon.io -->
<svg version="1.1" xmlns="http://www.w3.org/2000/svg" width="64" height="64" viewBox="0 0 64 64">
<title>file-acrobat</title>
<path d="M16.979 47.937c-0.060 0.183-0.094 0.394-0.094 0.614 0 1.129 0.915 2.044 2.044 2.044 0.913 0 1.686-0.599 1.949-1.425l0.004-0.014 1.056-3.38-3.455 0.776c-0.719 0.161-1.286 0.688-1.5 1.371l-0.004 0.014z"></path>
<path d="M27.889 34.661c-0.593 2.605-1.316 4.848-2.209 7.002l0.105-0.285c1.902-0.602 4.223-1.14 6.601-1.509l0.277-0.035c-1.718-1.584-3.281-3.274-4.703-5.081l-0.070-0.092z"></path>
<path d="M42.347 45.294c0.92-0.212 1.596-1.024 1.596-1.995 0-1.129-0.915-2.044-2.044-2.044-0.159 0-0.313 0.018-0.462 0.052l0.014-0.003-3.455 0.776 2.399 2.604c0.371 0.407 0.904 0.661 1.496 0.661 0.161 0 0.318-0.019 0.469-0.055l-0.014 0.003z"></path>
<path d="M27.445 24.615c0.059-0.182 0.093-0.392 0.093-0.609 0-1.126-0.909-2.040-2.034-2.046h-0.001c-0.162 0-0.32 0.019-0.472 0.054l0.014-0.003c-0.921 0.212-1.596 1.024-1.596 1.995 0 0.535 0.206 1.022 0.542 1.387l-0.001-0.001 2.399 2.604z"></path>
<path d="M35.75 4h-27.75v56h49v-34.75h-21.25zM40.794 38.377c0.332-0.078 0.713-0.123 1.105-0.123 2.786 0 5.044 2.258 5.044 5.044 0 2.394-1.668 4.399-3.905 4.915l-0.034 0.007c-0.339 0.080-0.728 0.126-1.129 0.126h-0c-1.459-0-2.771-0.627-3.683-1.626l-0.004-0.004-3.77-4.092c-3.363 0.416-6.401 1.122-9.31 2.108l0.327-0.096-1.691 5.414c-0.538 1.72-1.935 3.021-3.677 3.412l-0.033 0.006c-0.339 0.080-0.728 0.126-1.128 0.126h-0c-2.776-0.014-5.021-2.268-5.021-5.046 0-2.395 1.668-4.4 3.906-4.917l0.034-0.007 4.084-0.917c1.633-3.273 2.871-7.071 3.518-11.067l0.031-0.23-3.673-3.987c-0.827-0.896-1.334-2.098-1.334-3.418 0-2.786 2.258-5.044 5.044-5.044s5.044 2.258 5.044 5.044c0 0.537-0.084 1.054-0.239 1.54l0.010-0.036-1.614 5.168c2.269 3.308 4.895 6.15 7.877 8.573l0.074 0.058z"></path>
<path d="M57 20.75v-0.75l-16-16h-0.75v16.75h16.75z"></path>
</svg>
