<!-- Generated by IcoMoon.io -->
<svg version="1.1" xmlns="http://www.w3.org/2000/svg" width="64" height="64" viewBox="0 0 64 64">
<title>find-in-page</title>
<path d="M8 60h49v-40l-16-16h-33zM28.983 18.75c0.002 0 0.004 0 0.006 0 6.752 0 12.226 5.474 12.226 12.226 0 2.684-0.865 5.166-2.331 7.182l0.024-0.035 8.286 8.286-3.182 3.182-8.359-8.359c-1.882 1.241-4.191 1.98-6.672 1.98-6.755 0-12.231-5.476-12.231-12.231s5.476-12.231 12.231-12.231c0.001 0 0.001 0 0.002 0h-0z"></path>
<path d="M36.615 29.744c0.684 4.215-2.179 8.187-6.394 8.871s-8.187-2.179-8.871-6.394c-0.684-4.215 2.179-8.187 6.394-8.871s8.187 2.179 8.871 6.394z"></path>
</svg>
