<!-- Generated by IcoMoon.io -->
<svg version="1.1" xmlns="http://www.w3.org/2000/svg" width="64" height="64" viewBox="0 0 64 64">
<title>find-replace</title>
<path d="M58.981 49.082l-8.127-8.833-7.681-3.173c2.395-3.41 3.827-7.646 3.827-12.218 0-3.315-0.753-6.454-2.097-9.255l0.056 0.129 4.042-1.732-11-5-3 11 4.44-1.903c0.985 1.977 1.562 4.306 1.562 6.769 0 8.534-6.918 15.451-15.451 15.451-3.233 0-6.235-0.993-8.716-2.691l0.053 0.034-4.296 4.296c3.553 2.722 8.061 4.361 12.951 4.361 4.571 0 8.807-1.432 12.284-3.872l-0.069 0.046 3.14 7.601 8.152 8.857c1.267 1.266 3.016 2.048 4.948 2.048 3.866 0 7-3.134 7-7 0-1.916-0.77-3.653-2.018-4.917l0.001 0.001z"></path>
<path d="M14.21 28.339l-3.326 1.426c-0.506-1.463-0.799-3.15-0.799-4.905 0-8.536 6.92-15.456 15.456-15.456 2.271 0 4.428 0.49 6.371 1.37l-0.097-0.039 4.453-4.453c-3.067-1.809-6.758-2.878-10.698-2.878-0.009 0-0.018 0-0.027 0h0.001c-11.832 0-21.457 9.626-21.457 21.457 0 0.005 0 0.012 0 0.018 0 2.602 0.465 5.096 1.318 7.402l-0.048-0.148-4.355 1.867 10 5 4-11z"></path>
</svg>
