<!-- Generated by IcoMoon.io -->
<svg version="1.1" xmlns="http://www.w3.org/2000/svg" width="64" height="64" viewBox="0 0 64 64">
<title>fingerprint</title>
<path d="M17.879 39.879l18-18 4.243 4.243-18 18-4.243-4.243z"></path>
<path d="M46.126 33.086c2.245-2.247 3.634-5.351 3.634-8.779 0-6.861-5.562-12.422-12.422-12.422-3.433 0-6.54 1.392-8.788 3.643l-6.39 6.39 4.243 4.243 6.39-6.39c1.162-1.162 2.768-1.881 4.541-1.881 3.547 0 6.422 2.875 6.422 6.422 0 1.773-0.719 3.379-1.881 4.541v0l-10.046 10.221c-2.584 2.628-6.918 8.031-6.918 14.683v8.244h6v-8.244c0-3.298 1.894-7.117 5.197-10.477z"></path>
<path d="M21.764 30.798l0.396-0.396-4.243-4.243-0.396 0.396c-3.454 3.454-7.711 5.356-11.988 5.356h-3.533v6h3.533c5.88 0 11.644-2.526 16.231-7.113z"></path>
<path d="M9 41.889h-7v6h7c3.312 0.004 5.996 2.688 6 6v8h6v-8c-0.008-6.624-5.376-11.992-11.999-12h-0.001z"></path>
<path d="M42.712 42.684c-2.279 2.399-4.080 4.294-5.222 7.221-1.073 2.749-1.491 6.141-1.491 12.095h6c0-9.855 0.972-10.878 5.063-15.184l0.736-0.775-4.244-4.244z"></path>
<path d="M42.513 2.158v6.069c6.572 1.241 11.478 6.933 11.487 13.773v0.001c0 0.011 0 0.023 0 0.036 0 5.878-2.31 11.216-6.071 15.156l0.008-0.009-0.249 0.262 4.244 4.244 0.355-0.374c4.774-5.002 7.712-11.793 7.712-19.27 0-0.016 0-0.032-0-0.048v0.003c0-10.177-7.641-18.602-17.487-19.843z"></path>
<path d="M19.328 19.478l5.564-5.373c3.082-2.991 7.062-5.075 11.496-5.809l0.126-0.017v-6.061c-6.191 0.793-11.63 3.534-15.797 7.578l-5.692 5.502c-3.284 3.44-7.903 5.582-13.022 5.591h-0.002v6c6.808-0.013 12.95-2.85 17.32-7.402l0.008-0.008z"></path>
</svg>
