<!-- Generated by IcoMoon.io -->
<svg version="1.1" xmlns="http://www.w3.org/2000/svg" width="64" height="64" viewBox="0 0 64 64">
<title>fire</title>
<path d="M25 2s5.525 8.14-1.369 15.034-17.636 12.723-17.636 26.511q0 0.228 0.004 0.454c0.187 9.985 9.013 18 19 18h8.853c-7.543-15.309-0.752-23.665 5.864-34.624 9.282-15.376-11.27-24.227-14.718-25.376z"></path>
<path d="M58.202 43.845q-0.048-0.191-0.1-0.383c-1.408-5.163-10.102-13.462-10.102-13.462-5.437 9.347-10.070 18.795-4 32h0.083c9.439 0 16.416-9 14.119-18.155z"></path>
</svg>
