<!-- Generated by IcoMoon.io -->
<svg version="1.1" xmlns="http://www.w3.org/2000/svg" width="64" height="64" viewBox="0 0 64 64">
<title>flight-land</title>
<path d="M2 56h60v6h-60v-6z"></path>
<path d="M59.393 40.533c-1.491-2.643-3.73-4.8-6.303-6.073l-0.106-0.052-8.467-3.011-9.651-23.662c-0.912-2.208-3.048-3.734-5.541-3.734-0.005 0-0.011 0-0.016 0h-7.473l3.651 21.415-6.729-1.983-0.272-6.027c-0.114-2.41-1.631-4.438-3.749-5.295l-0.040-0.014-5.488-2.169-6.607 21.64 52.331 17.776c0.633 0.248 1.365 0.397 2.131 0.41l0.006 0c1.819 0 2.963-1.038 3.474-2.235 0.764-1.787 0.343-4.333-1.153-6.985z"></path>
</svg>
