<!-- Generated by IcoMoon.io -->
<svg version="1.1" xmlns="http://www.w3.org/2000/svg" width="64" height="64" viewBox="0 0 64 64">
<title>flight-takeoff</title>
<path d="M2 56h60v6h-60v-6z"></path>
<path d="M63.093 20.918c-0.724-1.803-2.821-3.306-5.754-4.123-2.924-0.814-6.032-0.757-8.751 0.162l-0.112 0.038-8.138 3.867-23.748-9.441c-0.658-0.272-1.422-0.43-2.224-0.43-1.54 0-2.944 0.584-4.003 1.542l0.005-0.005-4.91 4.702 17.758 12.584-6.699 3.622-4.457-4.073c-1.064-0.973-2.487-1.569-4.049-1.569-0.862 0-1.682 0.182-2.423 0.509l0.038-0.015-5.414 2.347 10.629 19.974 49.573-24.434c2.968-1.397 3.33-3.631 2.678-5.257z"></path>
</svg>
