<!-- Generated by IcoMoon.io -->
<svg version="1.1" xmlns="http://www.w3.org/2000/svg" width="64" height="64" viewBox="0 0 64 64">
<title>flip-to-back</title>
<path d="M6 62h45v-11.957h-37v-36.043h-12v44c0.003 2.208 1.792 3.997 4 4h0z"></path>
<path d="M56 39h6v6h-6v-6z"></path>
<path d="M43.6 39h6.2v6h-6.2v-6z"></path>
<path d="M31.2 39h6.2v6h-6.2v-6z"></path>
<path d="M19 39h6v6h-6v-6z"></path>
<path d="M19 14.2h6v6.2h-6v-6.2z"></path>
<path d="M19 26.6h6v6.2h-6v-6.2z"></path>
<path d="M19 2h6v6h-6v-6z"></path>
<path d="M43.6 2h6.2v6h-6.2v-6z"></path>
<path d="M31.2 2h6.2v6h-6.2v-6z"></path>
<path d="M56 2h6v6h-6v-6z"></path>
<path d="M56 26.6h6v6.2h-6v-6.2z"></path>
<path d="M56 14.2h6v6.2h-6v-6.2z"></path>
</svg>
