<!-- Generated by IcoMoon.io -->
<svg version="1.1" xmlns="http://www.w3.org/2000/svg" width="64" height="64" viewBox="0 0 64 64">
<title>flip-to-front</title>
<path d="M20 2h38c2.209 0 4 1.791 4 4v38c0 2.209-1.791 4-4 4h-38c-2.209 0-4-1.791-4-4v-38c0-2.209 1.791-4 4-4z"></path>
<path d="M38 56h6v6h-6v-6z"></path>
<path d="M2.019 19.981h6v6h-6v-6z"></path>
<path d="M26 56h6v6h-6v-6z"></path>
<path d="M50 56h6v6h-6v-6z"></path>
<path d="M2.019 62h5.981v-3h0.019v-3.019h-6v6.019z"></path>
<path d="M14 56h6v6h-6v-6z"></path>
<path d="M2.019 31.981h6v6h-6v-6z"></path>
<path d="M2.019 43.981h6v6h-6v-6z"></path>
<path d="M2.019 8h6v5.981h-6v-5.981z"></path>
</svg>
