<!-- Generated by IcoMoon.io -->
<svg version="1.1" xmlns="http://www.w3.org/2000/svg" width="64" height="64" viewBox="0 0 64 64">
<title>flip</title>
<path d="M27 57v5h6v-60h-6v5h-20.375c-1.657 0-3 1.343-3 3v0 44c0 1.657 1.343 3 3 3v0z"></path>
<path d="M40 7h7v6h-7v-6z"></path>
<path d="M54 7h6v6h-6v-6z"></path>
<path d="M54 40.143h6v5.429h-6v-5.429z"></path>
<path d="M54 29.286h6v5.429h-6v-5.429z"></path>
<path d="M54 18.429h6v5.429h-6v-5.429z"></path>
<path d="M54 51h6v6h-6v-6z"></path>
<path d="M40 51h7v6h-7v-6z"></path>
</svg>
