<!-- Generated by IcoMoon.io -->
<svg version="1.1" xmlns="http://www.w3.org/2000/svg" width="64" height="64" viewBox="0 0 64 64">
<title>flower</title>
<path d="M52.357 41.643c-9.103 0.001-16.81 5.973-19.418 14.213l-0.039 0.144h-1.799c-2.648-8.384-10.355-14.357-19.458-14.357h-9.643c0 0 0 0 0 0 0 11.243 9.114 20.357 20.357 20.357h19.286c11.243 0 20.357-9.114 20.357-20.357v0h-9.643z"></path>
<path d="M21.153 32.847c0.403 2.339 1.5 4.371 3.068 5.931l0.586 0.586h0.828c0.009 0 0.020 0 0.030 0 2.376 0 4.574-0.759 6.366-2.047l-0.033 0.022c1.76 1.266 3.958 2.025 6.334 2.025 0.011 0 0.021 0 0.032-0h0.827l0.586-0.586c1.568-1.56 2.665-3.593 3.059-5.867l0.009-0.065c2.339-0.403 4.371-1.5 5.931-3.068l0.586-0.586v-0.828c0-0.009 0-0.020 0-0.030 0-2.376-0.759-4.574-2.047-6.366l0.022 0.033c1.266-1.76 2.025-3.958 2.025-6.334 0-0.011 0-0.021-0-0.032v0.002-0.828l-0.586-0.586c-1.56-1.568-3.593-2.665-5.867-3.059l-0.065-0.009c-0.403-2.339-1.5-4.372-3.068-5.931l-0.586-0.586h-0.828c-0.009 0-0.020-0-0.030-0-2.376 0-4.574 0.759-6.366 2.047l0.033-0.022c-1.76-1.266-3.958-2.024-6.334-2.024-0.011 0-0.021 0-0.032 0h-0.827l-0.586 0.586c-1.568 1.56-2.665 3.593-3.059 5.866l-0.009 0.065c-2.339 0.403-4.372 1.5-5.931 3.068l-0.586 0.586v0.828c0 0.009-0 0.020-0 0.030 0 2.376 0.759 4.574 2.047 6.366l-0.022-0.033c-1.266 1.76-2.024 3.958-2.024 6.334 0 0.011 0 0.021 0 0.032v-0.002 0.828l0.586 0.586c1.56 1.568 3.593 2.665 5.866 3.059l0.065 0.009zM32 16c3.314 0 6 2.686 6 6s-2.686 6-6 6c-3.314 0-6-2.686-6-6v0c0-3.314 2.686-6 6-6v0z"></path>
</svg>
