<!-- Generated by IcoMoon.io -->
<svg version="1.1" xmlns="http://www.w3.org/2000/svg" width="64" height="64" viewBox="0 0 64 64">
<title>folder-open</title>
<path d="M18.071 21.29h34.654v-6.29c-0.002-1.656-1.344-2.998-3-3h-19.48l-2.142-5.152c-0.461-1.094-1.525-1.848-2.765-1.848-0.002 0-0.004 0-0.006 0h-20.332c-1.656 0.002-2.998 1.344-3 3v51h3.1l6.348-32.263c0.637-3.123 3.358-5.441 6.622-5.447h0.001z"></path>
<path d="M60.472 26.431c-0.319-0.392-0.801-0.641-1.342-0.641-0.004 0-0.008 0-0.012 0h-41.047c-1.088 0.002-1.995 0.775-2.205 1.801l-0.002 0.015-6.128 31.144h44.913l6.186-30.866c0.023-0.105 0.036-0.226 0.036-0.35 0-0.421-0.151-0.806-0.401-1.105l0.002 0.003z"></path>
</svg>
