<!-- Generated by IcoMoon.io -->
<svg version="1.1" xmlns="http://www.w3.org/2000/svg" width="64" height="64" viewBox="0 0 64 64">
<title>folder-special</title>
<path d="M59 59c1.657 0 3-1.343 3-3v0-40c0-1.657-1.343-3-3-3v0h-26.667l-2.596-6.231c-0.445-1.048-1.465-1.769-2.654-1.769 0 0 0 0 0 0h-22.208c-1.588 0-2.875 1.287-2.875 2.875v0 48.125c0 1.657 1.343 3 3 3v0zM19.948 32.966l7.398-1.202c0.048-0.035 0.089-0.064 0.137-0.1l3.43-6.664h2.174l3.43 6.664c0.048 0.035 0.089 0.064 0.137 0.1l7.398 1.202c0.307 0.946 0.364 1.122 0.672 2.067l-5.279 5.321c-0.018 0.057-0.034 0.104-0.052 0.161l1.143 7.407c-0.804 0.584-0.954 0.693-1.759 1.278l-6.692-3.376h-0.169l-6.692 3.376c-0.804-0.584-0.954-0.693-1.759-1.278l1.143-7.407c-0.018-0.057-0.034-0.104-0.052-0.161l-5.279-5.321c0.307-0.946 0.364-1.122 0.672-2.067z"></path>
</svg>
