<!-- Generated by IcoMoon.io -->
<svg version="1.1" xmlns="http://www.w3.org/2000/svg" width="64" height="64" viewBox="0 0 64 64">
<title>folder-shared</title>
<path d="M2 7.875v48.125c0 1.657 1.343 3 3 3v0h54c1.657 0 3-1.343 3-3v0-40c0-1.657-1.343-3-3-3v0h-26.667l-2.596-6.231c-0.445-1.048-1.465-1.769-2.654-1.769 0 0 0 0 0 0h-22.208c-1.588 0-2.875 1.287-2.875 2.875v0zM27 51c0 0 0-0 0-0 0-1.931 0.991-3.631 2.493-4.618l0.021-0.013 6.39-4.153-2.689-7.332v-5.598c0-4.576 3.71-8.286 8.286-8.286s8.286 3.71 8.286 8.286v5.597l-2.943 7.167 6.644 4.319c1.522 1 2.513 2.7 2.513 4.631 0 0 0 0 0 0v0 3h-29z"></path>
</svg>
