<!-- Generated by IcoMoon.io -->
<svg version="1.1" xmlns="http://www.w3.org/2000/svg" width="64" height="64" viewBox="0 0 64 64">
<title>football</title>
<path d="M53.214 10.786c-5.429-5.429-12.929-8.787-21.214-8.787-16.569 0-30.001 13.432-30.001 30.001 0 8.285 3.358 15.785 8.787 21.214v0c5.429 5.429 12.929 8.787 21.214 8.787 16.569 0 30.001-13.432 30.001-30.001 0-8.285-3.358-15.785-8.787-21.214v0zM52.779 44h-10.779l-3.964 11.231c-1.808 0.486-3.884 0.766-6.025 0.766-1.756 0-3.468-0.188-5.116-0.545l0.159 0.029-4.054-11.481h-11.779c-1.878-3.183-3.048-6.985-3.201-11.047l-0.001-0.044 8.981-6.909-2.861-10.012c2.504-2.784 5.618-4.969 9.136-6.351l0.164-0.057 8.561 6.42 8.561-6.42c3.681 1.438 6.796 3.623 9.281 6.386l0.019 0.022-2.861 10.012 8.981 6.909c-0.155 4.106-1.325 7.908-3.263 11.203l0.061-0.112z"></path>
<path d="M21.231 28.824l4.114 12.659h13.31l4.114-12.659-10.769-7.824-10.769 7.824z"></path>
</svg>
