<!-- Generated by IcoMoon.io -->
<svg version="1.1" xmlns="http://www.w3.org/2000/svg" width="64" height="64" viewBox="0 0 64 64">
<title>fork</title>
<path d="M55 11.5c0-0 0-0.001 0-0.001 0-5.247-4.253-9.5-9.5-9.5s-9.5 4.253-9.5 9.5c0 4.357 2.933 8.029 6.933 9.149l0.067 0.016v4.586c-0.003 2.76-2.24 4.997-5 5h-18v-9.738c3.809-1.295 6.5-4.84 6.5-9.014 0-5.247-4.253-9.5-9.5-9.5s-9.5 4.253-9.5 9.5c0 4.174 2.691 7.719 6.433 8.994l0.067 0.020v22.976c-3.809 1.295-6.5 4.84-6.5 9.014 0 5.247 4.253 9.5 9.5 9.5s9.5-4.253 9.5-9.5c0-4.174-2.691-7.718-6.433-8.994l-0.067-0.020v-7.238h18c6.072-0.007 10.993-4.928 11-10.999v-4.922c3.541-1.435 5.995-4.845 6-8.828v-0.001z"></path>
</svg>
