<!-- Generated by IcoMoon.io -->
<svg version="1.1" xmlns="http://www.w3.org/2000/svg" width="64" height="64" viewBox="0 0 64 64">
<title>functions</title>
<path d="M48.996 43.172l-2.721-4.21 15.467-15.049h-11.472l-8.424 8.196-1.694-2.622c-2.16-3.321-5.853-5.486-10.053-5.486-0.009 0-0.017 0-0.026 0h-6.016l1.832-8.524c0.198-0.806 0.883-1.406 1.718-1.475l0.007-0h9.384v-8l-9.655 0.003c-4.525 0.199-8.25 3.398-9.246 7.648l-0.013 0.067-2.21 10.281h-9.89v8h8.17l-3.552 16.525c-0.198 0.806-0.883 1.405-1.717 1.475l-0.007 0h-6.881v8l7.151-0.003c4.525-0.199 8.25-3.398 9.246-7.648l0.013-0.067 3.929-18.281h7.736c0.002 0 0.005 0 0.008 0 1.399 0 2.63 0.722 3.34 1.813l0.009 0.015 2.565 3.97-15.624 15.202h11.472l8.581-8.349 1.849 2.862c2.16 3.321 5.854 5.486 10.053 5.486 0.009 0 0.017 0 0.026 0h7.644v-8h-7.646c-0.002 0-0.005 0-0.008 0-1.399 0-2.63-0.722-3.34-1.813l-0.009-0.015z"></path>
</svg>
