<!-- Generated by IcoMoon.io -->
<svg version="1.1" xmlns="http://www.w3.org/2000/svg" width="64" height="64" viewBox="0 0 64 64">
<title>garage</title>
<path d="M56 35h-2.222l-4.722-10.625c-0.639-1.411-2.034-2.375-3.655-2.375h-26.801c-1.621 0-3.017 0.964-3.645 2.35l-0.010 0.025-4.722 10.625h-2.222c-1.105 0-2 0.895-2 2v0 16c0 1.105 0.895 2 2 2v0h2v6.068c0 0.552 0.448 1 1 1v0h7c0.552 0 1-0.448 1-1v0-6.068h26v6.068c0 0.552 0.448 1 1 1v0h7c0.552 0 1-0.448 1-1v0-6.068h2c1.105 0 2-0.895 2-2v0-16c0-1.105-0.895-2-2-2v0zM22 47.068h-10v-4h10zM52 47.068h-10v-4h10z"></path>
<path d="M32 2.767l-30 12.045v6.466l30-12.045 30 12.045v-6.466l-30-12.045z"></path>
</svg>
