<!-- Generated by IcoMoon.io -->
<svg version="1.1" xmlns="http://www.w3.org/2000/svg" width="64" height="64" viewBox="0 0 64 64">
<title>gif</title>
<path d="M60 8h-56c-1.105 0-2 0.895-2 2v0 43c0 1.105 0.895 2 2 2v0h56c1.105 0 2-0.895 2-2v0-43c0-1.105-0.895-2-2-2v0zM25.644 48.003h-11.644c-2.344 0-4.25-1.939-4.25-4.321v-24.357c0-2.383 1.906-4.321 4.25-4.321h11v4.5h-10.75v24h6.894v-9.753h-3.144v-4.5h7.644zM34.62 48h-4.5v-33h4.5zM54 19.503h-10.25v9.747h7.25v4.5h-7.25v14.25h-4.5v-32.997h14.75z"></path>
</svg>
