<!-- Generated by IcoMoon.io -->
<svg version="1.1" xmlns="http://www.w3.org/2000/svg" width="64" height="64" viewBox="0 0 64 64">
<title>gift</title>
<path d="M57 16h-9.562c0.748-1.336 1.188-2.932 1.188-4.631 0-5.312-4.307-9.619-9.619-9.619-2.76 0-5.248 1.162-7.003 3.024l-0.005 0.005c-1.759-1.866-4.246-3.027-7.006-3.027-5.313 0-9.619 4.307-9.619 9.619 0 1.698 0.44 3.293 1.212 4.678l-0.025-0.049h-9.562c-1.657 0-3 1.343-3 3v0 10h56v-10c0-1.657-1.343-3-3-3v0zM39 7c2.416 0 4.375 1.959 4.375 4.375s-1.959 4.375-4.375 4.375v0h-4.375v-4.375c0.003-2.415 1.96-4.372 4.375-4.375h0zM25 7c2.415 0.003 4.372 1.96 4.375 4.375v4.375h-4.375c-2.416 0-4.375-1.959-4.375-4.375s1.959-4.375 4.375-4.375v0z"></path>
<path d="M36 60h21c1.657 0 3-1.343 3-3v0-21h-24z"></path>
<path d="M4 57c0 1.657 1.343 3 3 3v0h21v-24h-24z"></path>
</svg>
