<!-- Generated by IcoMoon.io -->
<svg version="1.1" xmlns="http://www.w3.org/2000/svg" width="64" height="64" viewBox="0 0 64 64">
<title>globe-lock</title>
<path d="M20.724 8.506c0.811-2.025 1.743-3.766 2.84-5.386l-0.063 0.099c-11.834 3.597-20.46 14.009-21.361 26.559l-0.006 0.096h14.643c0.202-8.044 1.585-15.567 3.947-21.369z"></path>
<path d="M43.276 55.369c-0.811 2.025-1.743 3.766-2.84 5.386l0.063-0.099c11.714-3.561 20.282-13.794 21.331-26.17l0.008-0.11h-14.625c-0.235 7.903-1.612 15.282-3.937 20.994z"></path>
<path d="M40.542 29.875c-2.504-2.666-4.042-6.264-4.042-10.221 0-0.004 0-0.007 0-0.011v0.001-10.644h-0.035v-3.697c-1.446-1.963-2.998-3.054-4.465-3.054-2.424 0-5.081 2.973-7.108 7.952-2.151 5.285-3.416 12.208-3.614 19.672z"></path>
<path d="M16.786 34.375h-14.625c1.057 12.486 9.625 22.72 21.126 26.225l0.212 0.056c-1.033-1.521-1.965-3.261-2.709-5.098l-0.067-0.189c-2.325-5.712-3.702-13.091-3.937-20.994z"></path>
<path d="M21.288 34.375c0.229 7.322 1.488 14.101 3.603 19.297 2.027 4.98 4.684 7.953 7.108 7.953s5.081-2.973 7.108-7.953c2.115-5.197 3.374-11.976 3.603-19.297z"></path>
<path d="M58.813 13v0-3.559c0-0.104-0.004-0.207-0.008-0.31-0.001-0.026-0.001-0.052-0.002-0.077-0.001-0.018-0.003-0.036-0.004-0.054-0.006-0.11-0.016-0.22-0.027-0.329-0.004-0.040-0.009-0.080-0.014-0.121q-0.012-0.1-0.026-0.198c-0.007-0.051-0.015-0.101-0.023-0.151-0.009-0.052-0.018-0.103-0.028-0.155-0.031-0.163-0.064-0.326-0.106-0.485-0.107-0.412-0.228-0.761-0.374-1.097l0.019 0.048c-0.017-0.039-0.035-0.077-0.053-0.116-0.020-0.045-0.040-0.089-0.060-0.134q-0.037-0.078-0.075-0.156c-0.023-0.047-0.048-0.094-0.072-0.141-0.019-0.037-0.038-0.075-0.057-0.112-0.009-0.017-0.020-0.034-0.029-0.051q-0.063-0.114-0.129-0.225c-0.026-0.044-0.054-0.087-0.081-0.131-0.030-0.048-0.061-0.096-0.092-0.143-0.016-0.024-0.030-0.048-0.046-0.071-0.013-0.019-0.027-0.037-0.040-0.056-0.036-0.052-0.073-0.103-0.11-0.154-0.025-0.035-0.050-0.070-0.076-0.105q-0.089-0.118-0.183-0.232c-0.009-0.011-0.017-0.022-0.026-0.033-0.014-0.017-0.029-0.032-0.043-0.049q-0.109-0.13-0.223-0.255c-0.015-0.016-0.029-0.032-0.043-0.048-0.087-0.093-0.177-0.183-0.268-0.271-0.023-0.023-0.047-0.045-0.070-0.067q-0.138-0.13-0.282-0.253c-0.021-0.018-0.043-0.035-0.064-0.053-0.096-0.080-0.193-0.158-0.292-0.233-0.007-0.005-0.013-0.011-0.020-0.016-0.002-0.002-0.005-0.003-0.007-0.005-0.085-0.063-0.172-0.125-0.26-0.185-0.028-0.019-0.056-0.037-0.084-0.056q-0.098-0.065-0.199-0.128c-0.017-0.011-0.034-0.023-0.052-0.033-0.011-0.007-0.023-0.013-0.035-0.020-0.087-0.052-0.174-0.103-0.263-0.151-0.007-0.004-0.013-0.008-0.020-0.011-0.061-0.033-0.124-0.064-0.187-0.096-0.035-0.018-0.069-0.036-0.104-0.053-0.011-0.005-0.021-0.011-0.031-0.016-0.018-0.009-0.037-0.016-0.056-0.025q-0.111-0.052-0.223-0.101c-0.018-0.008-0.036-0.017-0.055-0.025-0.011-0.005-0.023-0.009-0.034-0.014-0.102-0.042-0.204-0.083-0.307-0.121s-0.209-0.073-0.315-0.107c-0.012-0.004-0.023-0.008-0.035-0.012-0.019-0.006-0.039-0.011-0.059-0.017q-0.118-0.036-0.239-0.068c-0.032-0.009-0.064-0.017-0.096-0.025-0.108-0.027-0.218-0.053-0.328-0.076-0.456-0.097-0.979-0.153-1.516-0.153s-1.060 0.056-1.565 0.162l0.049-0.009c-0.11 0.023-0.219 0.049-0.328 0.076-0.032 0.008-0.064 0.017-0.096 0.025q-0.12 0.032-0.238 0.068c-0.020 0.006-0.040 0.011-0.059 0.017-0.012 0.004-0.023 0.008-0.035 0.012-0.106 0.034-0.211 0.069-0.315 0.107s-0.207 0.079-0.309 0.122c-0.011 0.005-0.022 0.008-0.033 0.013-0.021 0.009-0.042 0.019-0.063 0.029q-0.106 0.046-0.21 0.095c-0.020 0.009-0.040 0.018-0.060 0.027-0.015 0.007-0.030 0.016-0.045 0.023-0.003 0.001-0.006 0.003-0.009 0.004q-0.102 0.050-0.202 0.104-0.024 0.013-0.048 0.025c-0.013 0.007-0.026 0.013-0.038 0.020-0.076 0.041-0.15 0.085-0.224 0.129-0.015 0.009-0.030 0.017-0.045 0.026h-0c-0.010 0.006-0.019 0.011-0.029 0.017-0.030 0.018-0.058 0.038-0.088 0.056-0.051 0.032-0.103 0.065-0.153 0.098q-0.068 0.045-0.135 0.092c-0.042 0.029-0.083 0.058-0.124 0.088-0.034 0.024-0.068 0.047-0.101 0.072-0.012 0.009-0.024 0.019-0.036 0.028-0.089 0.068-0.177 0.138-0.263 0.209-0.043 0.035-0.085 0.072-0.127 0.108-0.059 0.051-0.117 0.103-0.174 0.156q-0.095 0.088-0.187 0.179-0.071 0.070-0.141 0.143c-0.046 0.048-0.092 0.096-0.137 0.146q-0.089 0.098-0.174 0.198c-0.022 0.026-0.046 0.051-0.068 0.078-0.096 0.117-0.188 0.238-0.277 0.36-0.006 0.009-0.013 0.017-0.019 0.025v0l-0 0-0 0-0 0.001-0 0-0 0-0 0c-0.046 0.064-0.093 0.127-0.137 0.192-0.098 0.146-0.19 0.296-0.278 0.448q-0.010 0.017-0.019 0.033c-0.027 0.046-0.055 0.092-0.080 0.139-0.092 0.168-0.175 0.341-0.254 0.517-0.006 0.013-0.012 0.027-0.018 0.040-0.015 0.034-0.031 0.067-0.046 0.101-0.127 0.288-0.248 0.637-0.343 0.997l-0.012 0.052c-0.007 0.027-0.012 0.054-0.019 0.081s-0.013 0.056-0.019 0.083q-0.039 0.165-0.070 0.332c-0.010 0.052-0.020 0.104-0.028 0.156-0.008 0.048-0.015 0.097-0.022 0.145-0.010 0.066-0.018 0.133-0.026 0.2-0.005 0.039-0.009 0.078-0.013 0.117-0.011 0.108-0.020 0.216-0.027 0.326-0.001 0.018-0.003 0.036-0.004 0.054-0.001 0.026-0.001 0.052-0.002 0.078-0.004 0.103-0.008 0.206-0.008 0.309v3.559h-2.75v6.644c0 0.003 0 0.006 0 0.008 0 1.942 0.53 3.759 1.454 5.316l-0.026-0.048c1.118 1.891 2.753 3.373 4.711 4.274l0.066 0.027c1.261 0.583 2.737 0.923 4.293 0.923 0.835 0 1.647-0.098 2.425-0.283l-0.071 0.014c4.701-1.109 8.147-5.267 8.149-10.231v-6.644zM54.313 11.978v0.772h-6.063v-3.309c0-1.674 1.357-3.031 3.031-3.031s3.031 1.357 3.031 3.031v0z"></path>
</svg>
