<!-- Generated by IcoMoon.io -->
<svg version="1.1" xmlns="http://www.w3.org/2000/svg" width="64" height="64" viewBox="0 0 64 64">
<title>globe-alt-lock</title>
<path d="M55.919 33.979c-0.232 2.822-0.92 5.427-1.991 7.822l0.060-0.151-4.988-6.65h-21v-8l4-3 5.53 1.106c-0.652-1.615-1.030-3.487-1.030-5.448 0-0.005 0-0.010 0-0.016v0.001-10.644h-0.035v-6.669c-1.337-0.211-2.879-0.331-4.448-0.331-10.395 0-19.557 5.281-24.949 13.307l-0.068 0.108c-3.132 4.649-5 10.377-5 16.54 0 0.016 0 0.032 0 0.048v-0.002c0 13.798 9.316 25.418 22 28.919 2.399 0.69 5.154 1.087 8.003 1.087 16.567 0 29.997-13.43 29.997-29.997 0-0.003 0-0.007 0-0.010v0q0-0.812-0.043-1.613c-1.651 1.611-3.676 2.846-5.932 3.563l-0.106 0.029zM31.5 52l-3.863 3.605c-11.249-2.145-19.637-11.903-19.637-23.619 0-4.202 1.079-8.152 2.975-11.589l-0.063 0.124 6.088 5.479v8l8.5 9h6z"></path>
<path d="M58.813 13v0-3.559c0-0.104-0.004-0.207-0.008-0.31-0.001-0.026-0.001-0.052-0.002-0.077-0.001-0.018-0.003-0.036-0.004-0.054-0.006-0.11-0.016-0.22-0.027-0.329-0.004-0.040-0.009-0.080-0.014-0.121q-0.012-0.1-0.026-0.198c-0.007-0.051-0.015-0.101-0.023-0.151-0.009-0.052-0.018-0.103-0.028-0.155-0.031-0.163-0.064-0.326-0.106-0.485-0.107-0.412-0.228-0.761-0.374-1.097l0.019 0.048c-0.017-0.039-0.035-0.077-0.053-0.116-0.020-0.045-0.040-0.089-0.060-0.134q-0.037-0.078-0.075-0.156c-0.023-0.047-0.048-0.094-0.072-0.141-0.019-0.037-0.038-0.075-0.057-0.112-0.009-0.017-0.020-0.034-0.029-0.051q-0.063-0.114-0.129-0.225c-0.026-0.044-0.054-0.087-0.081-0.131-0.030-0.048-0.061-0.096-0.092-0.143-0.016-0.024-0.030-0.048-0.046-0.071-0.013-0.019-0.027-0.037-0.040-0.056-0.036-0.052-0.073-0.103-0.11-0.154-0.025-0.035-0.050-0.070-0.076-0.105q-0.089-0.118-0.183-0.232c-0.009-0.011-0.017-0.022-0.026-0.033-0.014-0.017-0.029-0.032-0.043-0.049q-0.109-0.13-0.223-0.255c-0.015-0.016-0.029-0.032-0.043-0.048-0.087-0.093-0.177-0.183-0.268-0.271-0.023-0.023-0.047-0.045-0.070-0.067q-0.138-0.13-0.282-0.253c-0.021-0.018-0.043-0.035-0.064-0.053-0.096-0.080-0.193-0.158-0.292-0.233-0.007-0.005-0.013-0.011-0.020-0.016-0.002-0.002-0.005-0.003-0.007-0.005-0.085-0.063-0.172-0.125-0.26-0.185-0.028-0.019-0.056-0.037-0.084-0.056q-0.098-0.065-0.199-0.128c-0.017-0.011-0.034-0.023-0.052-0.033-0.011-0.007-0.023-0.013-0.035-0.020-0.087-0.052-0.174-0.103-0.263-0.151-0.007-0.004-0.013-0.008-0.020-0.011-0.061-0.033-0.124-0.064-0.187-0.096-0.035-0.018-0.069-0.036-0.104-0.053-0.011-0.005-0.021-0.011-0.031-0.016-0.018-0.009-0.037-0.016-0.056-0.025q-0.111-0.052-0.223-0.101c-0.018-0.008-0.036-0.017-0.055-0.025-0.011-0.005-0.023-0.009-0.034-0.014-0.102-0.042-0.204-0.083-0.307-0.121s-0.209-0.073-0.315-0.107c-0.012-0.004-0.023-0.008-0.035-0.012-0.019-0.006-0.039-0.011-0.059-0.017q-0.118-0.036-0.239-0.068c-0.032-0.009-0.064-0.017-0.096-0.025-0.108-0.027-0.218-0.053-0.328-0.076-0.456-0.097-0.979-0.153-1.516-0.153s-1.060 0.056-1.565 0.162l0.049-0.009c-0.11 0.023-0.219 0.049-0.328 0.076-0.032 0.008-0.064 0.017-0.096 0.025q-0.12 0.032-0.238 0.068c-0.020 0.006-0.040 0.011-0.059 0.017-0.012 0.004-0.023 0.008-0.035 0.012-0.106 0.034-0.211 0.069-0.315 0.107s-0.207 0.079-0.309 0.122c-0.011 0.005-0.022 0.008-0.033 0.013-0.021 0.009-0.042 0.019-0.063 0.029q-0.106 0.046-0.21 0.095c-0.020 0.009-0.040 0.018-0.060 0.027-0.015 0.007-0.030 0.016-0.046 0.023-0.071 0.035-0.14 0.071-0.21 0.108q-0.010 0.005-0.019 0.010c-0.023 0.012-0.045 0.023-0.068 0.036-0.040 0.022-0.079 0.046-0.118 0.068-0.050 0.029-0.101 0.057-0.15 0.086-0.010 0.006-0.019 0.011-0.029 0.017-0.030 0.018-0.059 0.038-0.088 0.057-0.051 0.032-0.102 0.065-0.153 0.098q-0.068 0.045-0.136 0.092c-0.041 0.029-0.082 0.058-0.123 0.087-0.034 0.024-0.068 0.047-0.101 0.072-0.012 0.009-0.024 0.019-0.036 0.029-0.089 0.068-0.177 0.138-0.263 0.209-0.043 0.036-0.085 0.072-0.127 0.109-0.058 0.051-0.115 0.102-0.172 0.155q-0.096 0.089-0.189 0.181-0.071 0.070-0.14 0.142c-0.046 0.048-0.092 0.097-0.138 0.146-0.055 0.061-0.109 0.123-0.163 0.186-0.026 0.030-0.053 0.059-0.079 0.090-0.103 0.125-0.2 0.254-0.295 0.385l-0.003 0.004-0.002 0.002c-0.045 0.063-0.091 0.125-0.135 0.189-0.099 0.146-0.191 0.297-0.279 0.45-0.006 0.011-0.013 0.022-0.019 0.033-0.026 0.046-0.054 0.091-0.080 0.138-0.092 0.169-0.175 0.343-0.254 0.519-0.006 0.013-0.012 0.026-0.018 0.039-0.015 0.034-0.031 0.066-0.045 0.1-0.127 0.288-0.248 0.637-0.343 0.997l-0.012 0.052c-0.007 0.027-0.012 0.054-0.019 0.081s-0.013 0.056-0.019 0.083q-0.038 0.164-0.069 0.331c-0.010 0.052-0.020 0.104-0.028 0.156-0.008 0.048-0.015 0.097-0.022 0.145-0.010 0.066-0.018 0.133-0.026 0.2-0.005 0.039-0.009 0.078-0.013 0.117-0.011 0.108-0.020 0.216-0.027 0.325-0.001 0.018-0.003 0.036-0.004 0.054-0.001 0.026-0.001 0.052-0.002 0.078-0.004 0.103-0.008 0.206-0.008 0.309v3.559h-2.75v6.644c0 0.002 0 0.005 0 0.007 0 5.795 4.698 10.493 10.493 10.493 1.575 0 3.069-0.347 4.41-0.969l-0.065 0.027c2.256-1.046 4.039-2.794 5.103-4.959l0.028-0.062c0.651-1.323 1.032-2.879 1.032-4.525 0-0.004 0-0.008 0-0.013v0.001-6.644zM54.313 11.948v0.802h-6.063v-3.309c0-1.674 1.357-3.031 3.031-3.031s3.031 1.357 3.031 3.031v0z"></path>
</svg>
