<!-- Generated by IcoMoon.io -->
<svg version="1.1" xmlns="http://www.w3.org/2000/svg" width="64" height="64" viewBox="0 0 64 64">
<title>globe-alt</title>
<path d="M50.013 8.008c-4.954-3.752-11.22-6.010-18.013-6.010-16.568 0-29.999 13.431-29.999 29.999 0 0.001 0 0.002 0 0.003v-0c0 13.798 9.316 25.418 22 28.919 2.397 0.689 5.15 1.085 7.996 1.085 16.571 0 30.004-13.433 30.004-30.004 0-9.776-4.675-18.46-11.912-23.938l-0.075-0.055zM31.5 52l-3.863 3.605c-11.249-2.145-19.637-11.903-19.637-23.619 0-4.202 1.079-8.152 2.975-11.589l-0.063 0.124 6.088 5.479v8l8.5 9h6zM53.988 41.65l-4.988-6.65h-21v-8l4-3 10 2 3-3-2-5 3.805-4.893c0.792 0.626 1.498 1.255 2.165 1.922v0c4.343 4.351 7.029 10.357 7.029 16.991 0 3.484-0.741 6.794-2.073 9.783l0.061-0.153z"></path>
</svg>
