<!-- Generated by IcoMoon.io -->
<svg version="1.1" xmlns="http://www.w3.org/2000/svg" width="64" height="64" viewBox="0 0 64 64">
<title>globe</title>
<path d="M20.724 8.506c0.811-2.025 1.743-3.766 2.84-5.386l-0.063 0.099c-11.834 3.597-20.46 14.009-21.361 26.559l-0.006 0.096h14.643c0.202-8.044 1.585-15.567 3.947-21.369z"></path>
<path d="M16.786 34.375h-14.625c1.057 12.486 9.625 22.72 21.126 26.225l0.212 0.056c-1.033-1.521-1.965-3.261-2.709-5.098l-0.067-0.189c-2.325-5.712-3.702-13.091-3.937-20.994z"></path>
<path d="M43.276 55.369c-0.811 2.025-1.743 3.766-2.84 5.386l0.063-0.099c11.714-3.561 20.282-13.794 21.331-26.17l0.008-0.11h-14.625c-0.235 7.903-1.612 15.282-3.937 20.994z"></path>
<path d="M47.223 29.875h14.643c-0.906-12.647-9.533-23.058-21.154-26.6l-0.212-0.056c1.033 1.521 1.965 3.261 2.709 5.098l0.068 0.189c2.362 5.802 3.744 13.325 3.947 21.369z"></path>
<path d="M42.722 29.875c-0.197-7.465-1.462-14.387-3.614-19.672-2.027-4.98-4.684-7.952-7.108-7.952s-5.081 2.973-7.108 7.952c-2.151 5.285-3.416 12.208-3.614 19.672z"></path>
<path d="M21.288 34.375c0.229 7.322 1.488 14.101 3.603 19.297 2.027 4.98 4.684 7.953 7.108 7.953s5.082-2.973 7.108-7.953c2.115-5.197 3.374-11.976 3.603-19.297z"></path>
</svg>
