<!-- Generated by IcoMoon.io -->
<svg version="1.1" xmlns="http://www.w3.org/2000/svg" width="64" height="64" viewBox="0 0 64 64">
<title>golf-alt</title>
<path d="M51.642 2l-2.075 11.625h9.14l1.704-11.625h-8.769z"></path>
<path d="M47 28h-27.587c-1.988 0-3.637 1.451-3.947 3.352l-0.003 0.023-0.992 6.211c6.794 0.766 12.027 6.478 12.030 13.413v0q0 0.5-0.036 1h12.793c0 0 0 0 0 0 8.052 0 14.715-5.948 15.834-13.69l0.010-0.086 2.946-20.099h-9.284z"></path>
<path d="M13 42c-0.001 0-0.001 0-0.002 0-1.153 0-2.256 0.217-3.269 0.612l0.061-0.021q-0.289 0.11-0.568 0.24c-0.174 0.080-0.345 0.164-0.512 0.25s-0.341 0.196-0.508 0.301c-0.585 0.373-1.094 0.783-1.552 1.242l-0.014 0.014c-0.499 0.499-0.939 1.055-1.311 1.658l-0.022 0.039c-0.278 0.449-0.533 0.967-0.736 1.51l-0.020 0.062c-0.061 0.169-0.116 0.34-0.169 0.514q-0.101 0.337-0.176 0.686c-0.036 0.172-0.070 0.347-0.098 0.525-0.066 0.412-0.104 0.887-0.104 1.37 0 0.642 0.066 1.268 0.193 1.873l-0.010-0.059c0.060 0.292 0.135 0.581 0.223 0.862 1.175 3.698 4.577 6.331 8.595 6.331s7.42-2.633 8.578-6.267l0.017-0.064c0.087-0.281 0.163-0.57 0.223-0.862 0.118-0.546 0.185-1.173 0.185-1.816 0-4.971-4.029-9-9-9-0.001 0-0.002 0-0.003 0h0z"></path>
</svg>
