<!-- Generated by IcoMoon.io -->
<svg version="1.1" xmlns="http://www.w3.org/2000/svg" width="64" height="64" viewBox="0 0 64 64">
<title>gradient</title>
<path d="M57 4.375h-50c-1.45 0-2.625 1.175-2.625 2.625v0 50c0 1.45 1.175 2.625 2.625 2.625v0h50c1.45 0 2.625-1.175 2.625-2.625v0-50c0-1.45-1.175-2.625-2.625-2.625v0zM17.9 45.6h-8.275v-9.35h8.275zM36.7 45.6h-9.4v-9.35h9.4zM17.9 36.225v-9.35h9.4v9.35zM54.375 45.6h-8.275v-9.35h8.275zM36.7 36.225v-9.35h9.4v9.35zM54.375 26.85h-8.275v-9.375h-9.4v9.375h-9.4v-9.375h-9.4v9.375h-8.275v-17.225h44.75z"></path>
</svg>
