<!-- Generated by IcoMoon.io -->
<svg version="1.1" xmlns="http://www.w3.org/2000/svg" width="64" height="64" viewBox="0 0 64 64">
<title>grain</title>
<path d="M18 9c0 3.866-3.134 7-7 7s-7-3.134-7-7c0-3.866 3.134-7 7-7s7 3.134 7 7z"></path>
<path d="M32 24.333c0 3.866-3.134 7-7 7s-7-3.134-7-7c0-3.866 3.134-7 7-7s7 3.134 7 7z"></path>
<path d="M18 39.667c0 3.866-3.134 7-7 7s-7-3.134-7-7c0-3.866 3.134-7 7-7s7 3.134 7 7z"></path>
<path d="M32 55c0 3.866-3.134 7-7 7s-7-3.134-7-7c0-3.866 3.134-7 7-7s7 3.134 7 7z"></path>
<path d="M46 9c0 3.866-3.134 7-7 7s-7-3.134-7-7c0-3.866 3.134-7 7-7s7 3.134 7 7z"></path>
<path d="M60 24.333c0 3.866-3.134 7-7 7s-7-3.134-7-7c0-3.866 3.134-7 7-7s7 3.134 7 7z"></path>
<path d="M46 39.667c0 3.866-3.134 7-7 7s-7-3.134-7-7c0-3.866 3.134-7 7-7s7 3.134 7 7z"></path>
<path d="M60 55c0 3.866-3.134 7-7 7s-7-3.134-7-7c0-3.866 3.134-7 7-7s7 3.134 7 7z"></path>
</svg>
