<!-- Generated by IcoMoon.io -->
<svg version="1.1" xmlns="http://www.w3.org/2000/svg" width="64" height="64" viewBox="0 0 64 64">
<title>graph</title>
<path d="M54 4c-0.001 0-0.003 0-0.005 0-4.416 0-7.995 3.58-7.995 7.995 0 2.449 1.101 4.641 2.836 6.108l0.012 0.010-5.402 18.908c-1.239 0.087-2.377 0.445-3.379 1.015l0.039-0.021-10.244-8.537c0.089-0.447 0.14-0.962 0.14-1.488 0-4.418-3.582-8-8-8s-8 3.582-8 8c0 1.863 0.637 3.577 1.704 4.936l-0.013-0.017-6.050 12.099c-4.27 0.192-7.659 3.701-7.659 8.001 0 4.423 3.586 8.009 8.009 8.009s8.009-3.586 8.009-8.009c0-2.367-1.027-4.495-2.66-5.961l-0.007-0.007 5.561-11.121c0.335 0.050 0.721 0.078 1.113 0.078 1.713 0 3.299-0.541 4.597-1.462l-0.025 0.017 9.763 8.136c-0.218 0.693-0.343 1.491-0.343 2.317 0 4.419 3.582 8.001 8.001 8.001s8.001-3.582 8.001-8.001c0-2.45-1.101-4.643-2.836-6.111l-0.012-0.010 5.402-18.908c4.173-0.298 7.445-3.757 7.445-7.98 0-4.418-3.581-7.999-7.999-7.999-0 0-0.001 0-0.001 0h0z"></path>
</svg>
