<!-- Generated by IcoMoon.io -->
<svg version="1.1" xmlns="http://www.w3.org/2000/svg" width="64" height="64" viewBox="0 0 64 64">
<title>grid-slash</title>
<path d="M58.682 49.075v-41.132c0-1.45-1.175-2.625-2.625-2.625v0h-41.043l5.239 5.25h1.103v1.105l5.25 5.261v-6.366h10.788v10.788h-6.375l5.239 5.25h1.136v1.138l5.25 5.261v-6.398h10.788v10.788h-6.407l5.239 5.25h1.168v1.17zM42.644 21.356v-10.788h10.788v10.788z"></path>
<path d="M2 2.032v3.764l3.318 3.318v46.943c0 1.45 1.175 2.625 2.625 2.625v0h46.943l3.402 3.402h3.712v-3.712l-56.339-56.339zM21.356 37.394h-10.788v-10.788h10.788zM10.568 42.644h10.788v10.788h-10.788zM26.606 42.644h10.788v10.788h-10.788zM49.636 53.432h-6.992v-6.992zM33.598 37.394h-6.992v-6.992zM17.561 21.356h-6.992v-6.992z"></path>
</svg>
