<!-- Generated by IcoMoon.io -->
<svg version="1.1" xmlns="http://www.w3.org/2000/svg" width="64" height="64" viewBox="0 0 64 64">
<title>hand-scissors</title>
<path d="M52.586 13.586c-0.362-0.362-0.862-0.586-1.414-0.586h-10.922c-2.9 0-5.25 2.351-5.25 5.25v0 1.858l6.15 1.892h4.85v2h-5.15l-11.114-3.42-16.81-4.533c-0.309-0.086-0.664-0.135-1.031-0.135-1.865 0-3.431 1.276-3.875 3.002l-0.006 0.028-0.054 0.217c-0.076 0.291-0.119 0.626-0.119 0.97 0 1.85 1.256 3.407 2.962 3.864l0.028 0.006 19.169 5.001v3h-22c-2.209 0-4 1.791-4 4v0 0c0 2.209 1.791 4 4 4v0h21l5.464 11.838c0.325 0.692 1.015 1.162 1.816 1.162h15.959c0 0 0 0 0 0 0.421 0 0.812-0.13 1.134-0.352l-0.007 0.004 6.634-4.526v-27.126z"></path>
</svg>
