<!-- Generated by IcoMoon.io -->
<svg version="1.1" xmlns="http://www.w3.org/2000/svg" width="64" height="64" viewBox="0 0 64 64">
<title>hand-peace</title>
<path d="M54.837 32.464l-11.838-5.464v-21c0-2.209-1.791-4-4-4v0 0c-2.209 0-4 1.791-4 4v0 22h-3l-5.001-19.169c-0.463-1.734-2.020-2.99-3.87-2.99-0.345 0-0.679 0.044-0.998 0.125l0.028-0.006-0.217 0.054c-1.754 0.449-3.030 2.016-3.030 3.881 0 0.367 0.049 0.722 0.142 1.059l-0.007-0.028 4.533 16.809 3.42 11.115v5.15h-2v-4.85l-1.892-6.15c0 0 0 0 0 0-3.925 0-7.106 3.182-7.106 7.106v0 9.065c0 0.552 0.224 1.052 0.586 1.414l7.413 7.414h27.126l4.526-6.634c0.218-0.316 0.348-0.706 0.348-1.127v0-15.959c0-0.8-0.47-1.491-1.15-1.811l-0.012-0.005z"></path>
</svg>
