<!-- Generated by IcoMoon.io -->
<svg version="1.1" xmlns="http://www.w3.org/2000/svg" width="64" height="64" viewBox="0 0 64 64">
<title>hand-point-right</title>
<path d="M55.5 29h-24.5v-6l3.559-2.912c2.089-1.719 3.411-4.304 3.411-7.199 0-2.351-0.872-4.498-2.31-6.135l0.009 0.011c-0.184-0.21-0.453-0.341-0.753-0.341-0.258 0-0.494 0.098-0.671 0.259l0.001-0.001-30.246 27.319v16l9.525 5.715c0.294 0.179 0.649 0.285 1.029 0.285 0 0 0 0 0 0h18.926c0.914 0 1.685-0.613 1.924-1.451l0.003-0.014 4.593-16.535h15.5c2.485 0 4.5-2.015 4.5-4.5v0 0c0-2.485-2.015-4.5-4.5-4.5v0z"></path>
</svg>
