<!-- Generated by IcoMoon.io -->
<svg version="1.1" xmlns="http://www.w3.org/2000/svg" width="64" height="64" viewBox="0 0 64 64">
<title>hand-point-down</title>
<path d="M55.292 13.525l-5.715-9.525h-16l-27.319 30.246c-0.16 0.177-0.258 0.412-0.258 0.67 0 0.3 0.132 0.568 0.34 0.752l0.001 0.001c1.627 1.429 3.774 2.301 6.125 2.301 2.894 0 5.48-1.322 7.186-3.395l0.013-0.016 2.912-3.559h6v24.5c0 2.485 2.015 4.5 4.5 4.5v0 0c2.485 0 4.5-2.015 4.5-4.5v0-15.5l16.535-4.593c0.852-0.242 1.465-1.013 1.465-1.927v0-18.926c0-0.38-0.106-0.735-0.29-1.038l0.005 0.009z"></path>
</svg>
