<!-- Generated by IcoMoon.io -->
<svg version="1.1" xmlns="http://www.w3.org/2000/svg" width="64" height="64" viewBox="0 0 64 64">
<title>hand-paper</title>
<path d="M45 19v15h-2v-23c0-1.933-1.567-3.5-3.5-3.5v0 0c-1.933 0-3.5 1.567-3.5 3.5v0 23h-2v-28c0-1.933-1.567-3.5-3.5-3.5v0 0c-1.933 0-3.5 1.567-3.5 3.5v0 28h-2v-23c0-1.933-1.567-3.5-3.5-3.5v0 0c-1.933 0-3.5 1.567-3.5 3.5v0 31h-2v-8c0-3.866-3.134-7-7-7v0 0c-0.552 0-1 0.448-1 1v0 20.227c0 0.519 0.198 0.992 0.522 1.347l-0.001-0.002 8.48 11.428h31l3.952-18.786c0.030-0.13 0.048-0.28 0.048-0.434v0-22.78c0-1.933-1.567-3.5-3.5-3.5v0 0c-1.933 0-3.5 1.567-3.5 3.5v0z"></path>
</svg>
