<!-- Generated by IcoMoon.io -->
<svg version="1.1" xmlns="http://www.w3.org/2000/svg" width="64" height="64" viewBox="0 0 64 64">
<title>hand-point-up</title>
<path d="M54.689 28.593l-16.535-4.593v-15.5c0-2.485-2.015-4.5-4.5-4.5v0 0c-2.485 0-4.5 2.015-4.5 4.5v0 24.5h-6l-2.912-3.559c-1.719-2.089-4.304-3.411-7.199-3.411-2.351 0-4.498 0.872-6.135 2.31l0.011-0.009c-0.21 0.184-0.341 0.453-0.341 0.753 0 0.258 0.098 0.494 0.259 0.671l-0.001-0.001 27.319 30.246h16l5.715-9.525c0.179-0.294 0.285-0.649 0.285-1.029 0 0 0 0 0-0v0-18.926c0-0.914-0.613-1.685-1.451-1.924l-0.014-0.003z"></path>
</svg>
