<!-- Generated by IcoMoon.io -->
<svg version="1.1" xmlns="http://www.w3.org/2000/svg" width="64" height="64" viewBox="0 0 64 64">
<title>hand-rock</title>
<path d="M49 22v0c-0 0-0.001 0-0.001 0-1.472 0-2.759 0.796-3.452 1.981l-0.010 0.019h-1.536v-1c0-2.209-1.791-4-4-4v0 0c-0 0-0.001 0-0.001 0-1.472 0-2.759 0.796-3.452 1.981l-0.010 0.019h-1.536c0-2.209-1.791-4-4-4v0 0c-2.209 0-4 1.791-4 4v0h-1.536c-0.704-1.204-1.99-2-3.463-2-0 0-0.001 0-0.001 0h0c-2.209 0-4 1.791-4 4v0 19h-2v-9c-4.971 0-9 4.029-9 9v0 7.172c0 0.552 0.224 1.052 0.586 1.414l9.414 9.414h32l3.912-12.712c0.056-0.176 0.088-0.378 0.088-0.588 0 0 0 0 0 0v0-20.699c0-2.209-1.791-4-4-4v0z"></path>
</svg>
