<!-- Generated by IcoMoon.io -->
<svg version="1.1" xmlns="http://www.w3.org/2000/svg" width="64" height="64" viewBox="0 0 64 64">
<title>handshake</title>
<path d="M27.207 32.207l-0.007-0.007c-1.11 0.995-2.584 1.603-4.2 1.603-3.481 0-6.303-2.822-6.303-6.303 0-1.741 0.706-3.317 1.846-4.457l12.543-12.543h-14.757c-0.552 0-1.052 0.224-1.414 0.586l-8.914 8.914h-4v20h6l9.5 9.5c0.64 0.64 1.524 1.036 2.5 1.036s1.86-0.396 2.5-1.036l3.5-3.5 2.5 2.5c0.64 0.64 1.524 1.036 2.5 1.036s1.86-0.396 2.5-1.036l3-3c0.64 0.64 1.524 1.036 2.5 1.036s1.86-0.396 2.5-1.036l3.293-3.293-13.793-13.793z"></path>
<path d="M54.75 19.25l-8.164-8.164c-0.362-0.362-0.862-0.586-1.414-0.586h-11.257l-13.957 13.957c-0.781 0.779-1.264 1.857-1.264 3.047 0 2.377 1.927 4.303 4.303 4.303 1.19 0 2.268-0.483 3.047-1.264l9.75-9.75 1.414 1.414-4.793 4.793 15 15h4.757c0.552 0 1.052-0.224 1.414-0.586l4.414-4.414h4v-17.75z"></path>
</svg>
