<!-- Generated by IcoMoon.io -->
<svg version="1.1" xmlns="http://www.w3.org/2000/svg" width="64" height="64" viewBox="0 0 64 64">
<title>hand-spock</title>
<path d="M54.687 20.727v0c-0.218-0.050-0.469-0.079-0.727-0.079-1.616 0-2.968 1.13-3.309 2.643l-0.004 0.023-2.759 12.574-0.887-0.887-0.525-0.7 3.798-17.312c0.050-0.218 0.079-0.469 0.079-0.727 0-1.616-1.13-2.968-2.643-3.309l-0.023-0.004c-0.218-0.050-0.469-0.079-0.727-0.079-1.616 0-2.968 1.13-3.309 2.643l-0.004 0.023-3.393 15.467h-2.052l-4.231-21.374c-0.347-1.71-1.839-2.979-3.626-2.979-0.254 0-0.502 0.026-0.741 0.074l0.024-0.004c-1.71 0.347-2.979 1.838-2.979 3.626 0 0.254 0.026 0.502 0.074 0.742l-0.004-0.024 3.947 19.939h-1.842l-3.406-17.205c-0.338-1.665-1.79-2.9-3.531-2.9-0.247 0-0.489 0.025-0.722 0.072l0.023-0.004c-1.665 0.338-2.9 1.79-2.9 3.531 0 0.247 0.025 0.489 0.072 0.722l-0.004-0.023 5.645 26.807h-4l-3.424-3.082c-1.898-1.714-4.425-2.762-7.198-2.762-2.434 0-4.68 0.808-6.483 2.172l0.027-0.020c-0.244 0.184-0.4 0.474-0.4 0.8 0 0.276 0.112 0.526 0.293 0.707l20.185 20.185h27l3.952-17.786c0.030-0.13 0.048-0.28 0.048-0.434 0 0 0 0 0 0v0-2.095l3.273-14.918c0.050-0.218 0.079-0.469 0.079-0.727 0-1.616-1.13-2.968-2.643-3.309l-0.023-0.004z"></path>
</svg>
