<!-- Generated by IcoMoon.io -->
<svg version="1.1" xmlns="http://www.w3.org/2000/svg" width="64" height="64" viewBox="0 0 64 64">
<title>hand-pointer</title>
<path d="M57 27c-0 0-0.001 0-0.001 0-1.472 0-2.759 0.796-3.452 1.981l-0.010 0.019h-1.536v-2c0-0 0-0 0-0 0-2.209-1.791-4-4-4-1.473 0-2.76 0.796-3.454 1.981l-0.010 0.019h-1.536v-1c0-2.209-1.791-4-4-4s-4 1.791-4 4v0h-2v-17c0-2.209-1.791-4-4-4s-4 1.791-4 4v0 32.060h-5.051l-4.001-4.441c-1.833-2.028-4.473-3.297-7.409-3.297-2.571 0-4.915 0.973-6.684 2.571l0.009-0.008c-0.203 0.184-0.331 0.449-0.331 0.743 0 0.258 0.098 0.493 0.258 0.67l-0.001-0.001 24.058 26.702 0.152-0.137v0.137h30.905l4.003-12.707c0.059-0.18 0.092-0.386 0.092-0.601 0 0 0 0 0 0v0-17.692c0-2.209-1.791-4-4-4v0zM35.5 47h-3v-10h3zM45.5 47h-3v-10h3zM54.5 47h-3v-10h3z"></path>
</svg>
