<!-- Generated by IcoMoon.io -->
<svg version="1.1" xmlns="http://www.w3.org/2000/svg" width="64" height="64" viewBox="0 0 64 64">
<title>hand-point-left</title>
<path d="M29.754 6.681c-0.177-0.16-0.412-0.258-0.67-0.258-0.3 0-0.568 0.132-0.752 0.34l-0.001 0.001c-1.429 1.627-2.301 3.774-2.301 6.125 0 2.894 1.322 5.48 3.395 7.186l0.016 0.013 3.559 2.912v6h-24.5c-2.485 0-4.5 2.015-4.5 4.5v0 0c0 2.485 2.015 4.5 4.5 4.5v0h15.5l4.593 16.535c0.242 0.852 1.013 1.465 1.927 1.465h18.926c0 0 0 0 0 0 0.38 0 0.735-0.106 1.038-0.29l-0.009 0.005 9.525-5.715v-16z"></path>
</svg>
