<!-- Generated by IcoMoon.io -->
<svg version="1.1" xmlns="http://www.w3.org/2000/svg" width="64" height="64" viewBox="0 0 64 64">
<title>hd</title>
<path d="M58 2h-52c-2.209 0-4 1.791-4 4v0 52c0 2.209 1.791 4 4 4v0h52c2.209 0 4-1.791 4-4v0-52c0-2.209-1.791-4-4-4v0zM30 47h-6v-12h-8v12h-6v-30h6v12h8v-12h6zM55 39.846c0 3.945-3.364 7.154-7.5 7.154h-12.5v-30h12.5c4.136 0 7.5 3.209 7.5 7.154z"></path>
<path d="M47.5 23h-6.5v18h6.5c0.813 0 1.5-0.528 1.5-1.154v-15.692c0-0.625-0.687-1.154-1.5-1.154z"></path>
</svg>
