<!-- Generated by IcoMoon.io -->
<svg version="1.1" xmlns="http://www.w3.org/2000/svg" width="64" height="64" viewBox="0 0 64 64">
<title>hdr-slash</title>
<path d="M56.181 40.355v7.645h-4.5v-6.355l-3.528-5.645h-1.972v12h-4.5v-12h-3.399v6.867c-0.018 2.84-2.324 5.136-5.166 5.136-0.007 0-0.013 0-0.020-0l-8.647-0v-12.003h-3.199v12h-4.5v-12h-5.5v12h-4.5v-12h-4.75v17c0 1.105 0.895 2 2 2v0h56c1.105 0 2-0.895 2-2v0-17h-8.541z"></path>
<path d="M62 10c0-1.105-0.895-2-2-2v0h-56c-1.105 0-2 0.895-2 2v0 18h-2v4h64v-4h-2zM6.75 28v-13h4.5v13zM16.75 28v-13h4.5v13zM33.782 28v-7.87c-0.015-0.354-0.305-0.636-0.662-0.636-0.008 0-0.016 0-0.024 0l0.001-0-4.148-0v8.505h-4.5v-13.005l8.648 0c0.006 0 0.012-0 0.019-0 2.843 0 5.149 2.295 5.166 5.134v7.871zM51.681 28v-8.505h-5.5v8.505h-4.5v-13.005h10.417c2.252 0 4.083 1.907 4.083 4.25v8.755z"></path>
<path d="M33.782 42.867v-6.867h-4.833v7.503l4.148 0c0.007 0 0.015 0 0.023 0 0.357 0 0.647-0.282 0.662-0.635l0-0.001z"></path>
</svg>
