<!-- Generated by IcoMoon.io -->
<svg version="1.1" xmlns="http://www.w3.org/2000/svg" width="64" height="64" viewBox="0 0 64 64">
<title>hdr</title>
<path d="M33.097 19.495l-4.148-0v24.008l4.148 0c0.007 0 0.015 0 0.023 0 0.357 0 0.647-0.282 0.662-0.635l0-0.001v-22.737c-0.015-0.354-0.305-0.636-0.662-0.636-0.008 0-0.016 0-0.024 0l0.001-0z"></path>
<path d="M46.181 27v3.75h5.5v-11.255h-5.5v7.505z"></path>
<path d="M60 8h-56c-1.105 0-2 0.895-2 2v0 43c0 1.105 0.895 2 2 2v0h56c1.105 0 2-0.895 2-2v0-43c0-1.105-0.895-2-2-2v0zM21.25 48h-4.5v-14.251h-5.5v14.251h-4.5v-33h4.5v14.249h5.5v-14.249h4.5zM38.282 42.867c-0.017 2.84-2.324 5.136-5.166 5.136-0.007 0-0.013 0-0.020-0l-8.647-0v-33.008l8.648 0c0.006 0 0.012-0 0.019-0 2.843 0 5.149 2.295 5.166 5.134v0.002zM56.181 31c0 2.045-1.395 3.757-3.247 4.16l3.247 5.195v7.645h-4.5v-6.355l-3.997-6.395h-1.503v12.75h-4.5v-33.005h10.417c2.252 0 4.083 1.907 4.083 4.25z"></path>
</svg>
