<!-- Generated by IcoMoon.io -->
<svg version="1.1" xmlns="http://www.w3.org/2000/svg" width="64" height="64" viewBox="0 0 64 64">
<title>headphones-mute</title>
<path d="M37.879 28.002l-5.817 5.817-5.817-5.817-4.243 4.243 5.817 5.817-5.817 5.817 4.243 4.243 5.817-5.817 5.817 5.817 4.243-4.243-5.817-5.817 5.817-5.817-4.243-4.243z"></path>
<path d="M58 29h-4v-5c0-12.131-9.869-22-22-22s-22 9.869-22 22v5h-4c-2.209 0-4 1.791-4 4v0 16c0 2.209 1.791 4 4 4v0h12v-29c0-7.732 6.268-14 14-14s14 6.268 14 14v0 29h12c2.209 0 4-1.791 4-4v0-16c0-2.209-1.791-4-4-4v0z"></path>
</svg>
