<!-- Generated by IcoMoon.io -->
<svg version="1.1" xmlns="http://www.w3.org/2000/svg" width="64" height="64" viewBox="0 0 64 64">
<title>healing</title>
<path d="M57.016 38.984l-6.984-6.984 9.369-9.369c0.769-0.769 1.245-1.832 1.245-3.005s-0.476-2.236-1.245-3.005l-12.021-12.021c-0.77-0.768-1.832-1.243-3.005-1.243s-2.236 0.475-3.005 1.243l-9.369 9.369-7.955-7.955c-1.131-1.131-2.694-1.831-4.419-1.831s-3.288 0.7-4.419 1.831l-9.192 9.192c-1.131 1.131-1.831 2.694-1.831 4.419s0.7 3.288 1.831 4.419l7.955 7.955-9.369 9.369c-0.769 0.769-1.245 1.832-1.245 3.005s0.476 2.236 1.245 3.005l12.021 12.021c0.77 0.768 1.832 1.243 3.005 1.243s2.236-0.475 3.005-1.243l9.369-9.369 7.955 7.955c0.010 0.010 0.020 0.019 0.030 0.029 1.128 1.114 2.678 1.802 4.39 1.802 1.726 0 3.288-0.7 4.419-1.831l9.192-9.192c1.131-1.131 1.831-2.694 1.831-4.419s-0.7-3.288-1.831-4.419v0zM26.436 33.814l-2.25-2.25 2.25-2.25 2.25 2.25zM17.151 28.818l-7.955-7.955c-0.317-0.317-0.513-0.754-0.513-1.237s0.196-0.921 0.512-1.237l9.193-9.193c0.317-0.317 0.754-0.513 1.237-0.513s0.921 0.196 1.237 0.513l7.955 7.955zM32.061 39.439l-2.25-2.25 2.25-2.25 2.25 2.25zM32.061 28.189l-2.25-2.25 2.25-2.25 2.25 2.25zM37.686 29.314l2.25 2.25-2.25 2.25-2.25-2.25zM54.804 45.612l-9.192 9.192c-0.317 0.317-0.754 0.513-1.237 0.513s-0.921-0.196-1.237-0.513l-7.955-7.955 11.667-11.667 7.955 7.955c0.317 0.317 0.513 0.754 0.513 1.237s-0.196 0.921-0.513 1.237v0z"></path>
</svg>
