<!-- Generated by IcoMoon.io -->
<svg version="1.1" xmlns="http://www.w3.org/2000/svg" width="64" height="64" viewBox="0 0 64 64">
<title>heart</title>
<path d="M55.155 11.291c-2.534-2.534-6.034-4.101-9.9-4.101s-7.366 1.567-9.9 4.101v0l-3.366 3.406-3.345-3.406c-2.534-2.534-6.034-4.101-9.899-4.101s-7.366 1.567-9.899 4.101l-0.864 0.864c-2.534 2.534-4.101 6.034-4.101 9.899s1.567 7.366 4.101 9.899l22.813 22.813 1.177 1.233 0.028-0.028 0.028 0.028 1.017-1.073 22.973-22.973c2.533-2.534 4.101-6.034 4.101-9.899s-1.567-7.366-4.1-9.899v0z"></path>
</svg>
