<!-- Generated by IcoMoon.io -->
<svg version="1.1" xmlns="http://www.w3.org/2000/svg" width="64" height="64" viewBox="0 0 64 64">
<title>highlighter</title>
<path d="M61.642 14.378l-11.615-11.765c-0.766-0.781-1.832-1.264-3.012-1.264-0.005 0-0.009 0-0.014 0h-0.002c-0.003 0-0.006 0-0.010 0-1.181 0-2.249 0.486-3.015 1.268l-0.001 0.001-33.21 33.736c-0.752 0.768-1.217 1.82-1.217 2.981 0 1.173 0.474 2.235 1.24 3.005l1.661 1.661-10.448 10.571v5.427h13.454l6.496-6.496 1.383 1.383c0.769 0.769 1.832 1.245 3.005 1.245 1.224 0 2.327-0.517 3.102-1.345l0.002-0.002 32.279-34.518c0.712-0.757 1.15-1.779 1.15-2.903 0-1.165-0.47-2.22-1.23-2.986l0 0zM26.333 51.522l-4.383-4.383-4.78 4.78-3.129-3.129 4.752-4.808-4.649-4.649 7.27-7.385 12 12z"></path>
</svg>
