<!-- Generated by IcoMoon.io -->
<svg version="1.1" xmlns="http://www.w3.org/2000/svg" width="64" height="64" viewBox="0 0 64 64">
<title>high-quality</title>
<path d="M47.5 22h-5.5c-0.552 0.001-0.999 0.448-1 1v18c0.001 0.552 0.448 0.999 1 1h5.5c0.828-0.001 1.499-0.672 1.5-1.5v-17c-0.001-0.828-0.672-1.499-1.5-1.5h-0z"></path>
<path d="M58 2h-52c-2.209 0-4 1.791-4 4v0 52c0 2.209 1.791 4 4 4v0h52c2.209 0 4-1.791 4-4v0-52c0-2.209-1.791-4-4-4v0zM30 47h-6v-12h-8v12h-6v-30h6v12h8v-12h6zM51.504 51.664l-2.539-3.809c-0.44 0.092-0.946 0.145-1.465 0.145h-5.5c-3.864-0.005-6.995-3.136-7-7v-18c0.005-3.864 3.136-6.995 7-7h5.5c4.14 0.005 7.495 3.36 7.5 7.5v17c0 0.002 0 0.005 0 0.008 0 1.45-0.414 2.803-1.13 3.948l0.018-0.031 2.608 3.912z"></path>
</svg>
