<!-- Generated by IcoMoon.io -->
<svg version="1.1" xmlns="http://www.w3.org/2000/svg" width="64" height="64" viewBox="0 0 64 64">
<title>highligt</title>
<path d="M15 23v15l11 6v14h12v-14l11-6v-15h-34z"></path>
<path d="M40 60h-16v-14.813l-11-6v-18.187h38v18.187l-11 6zM28 56h8v-13.187l11-6v-11.813h-30v11.813l11 6z"></path>
<path d="M29 4h6v11h-6v-11z"></path>
<path d="M7.085 9.826l4.101-4.38 7.864 7.364-4.101 4.38-7.864-7.364z"></path>
<path d="M44.949 12.81l7.864-7.364 4.101 4.38-7.864 7.364-4.101-4.38z"></path>
<path d="M13 39.187l11 6v14.813h16v-14.813l11-6v-18.187h-38v18.187z"></path>
</svg>
