<!-- Generated by IcoMoon.io -->
<svg version="1.1" xmlns="http://www.w3.org/2000/svg" width="64" height="64" viewBox="0 0 64 64">
<title>history</title>
<path d="M32.031 62.938c17.104 0 30.969-13.865 30.969-30.969 0-8.552-3.466-16.294-9.070-21.898v0c-5.604-5.604-13.345-9.071-21.897-9.071-8.153 0-15.571 3.151-21.101 8.302l0.019-0.017-7.285-7.285-0.665 0.665v18.468h18.639l0.58-0.58-7.021-7.021c4.423-4.048 10.338-6.529 16.832-6.533h0.001c13.768 0 24.969 11.201 24.969 24.969s-11.201 24.969-24.969 24.969-24.969-11.201-24.969-24.969h-6c0 17.104 13.865 30.969 30.969 30.969v0z"></path>
<path d="M29.061 12.991l-0.070 23.009h17.070v-6h-11.052l0.051-16.991-6-0.018z"></path>
</svg>
