<!-- Generated by IcoMoon.io -->
<svg version="1.1" xmlns="http://www.w3.org/2000/svg" width="64" height="64" viewBox="0 0 64 64">
<title>hot-tub</title>
<path d="M25.748 37l-4.364-12h-13.099v12h-6.286v19c0.004 3.312 2.688 5.996 6 6h48c3.312-0.004 5.996-2.688 6-6v-19zM17 54h-6v-9h6zM29 54h-6v-9h6zM41 54h-6v-9h6zM53 54h-6v-9h6z"></path>
<path d="M37.625 25c0-0 0-0.001 0-0.001 0-0.789 0.475-1.466 1.154-1.763l0.012-0.005 1.485-0.637c2.579-1.126 4.348-3.653 4.348-6.595s-1.77-5.469-4.302-6.577l-0.046-0.018-1.485-0.636c-0.692-0.301-1.166-0.979-1.166-1.768 0-0 0-0.001 0-0.002v0-5h-5.25v5c0 0.002 0 0.003 0 0.005 0 2.94 1.77 5.466 4.302 6.571l0.046 0.018 1.485 0.636c0.692 0.302 1.166 0.98 1.166 1.769s-0.475 1.467-1.154 1.764l-0.012 0.005-1.485 0.637c-2.579 1.123-4.349 3.65-4.349 6.589 0 0.002 0 0.004 0 0.006v-0 6h5.25z"></path>
<path d="M51.625 25c0-0 0-0.001 0-0.001 0-0.789 0.475-1.466 1.154-1.763l0.012-0.005 1.485-0.637c2.579-1.126 4.348-3.653 4.348-6.595s-1.77-5.469-4.302-6.577l-0.046-0.018-1.485-0.636c-0.692-0.301-1.166-0.979-1.166-1.768 0-0 0-0.001 0-0.002v0-5h-5.25v5c0 0.002 0 0.003 0 0.005 0 2.94 1.77 5.466 4.302 6.571l0.046 0.018 1.485 0.636c0.692 0.302 1.166 0.98 1.166 1.769s-0.475 1.467-1.154 1.764l-0.012 0.005-1.485 0.637c-2.579 1.123-4.349 3.65-4.349 6.589 0 0.002 0 0.004 0 0.006v-0 6h5.25z"></path>
<path d="M21 16c0 3.314-2.686 6-6 6s-6-2.686-6-6c0-3.314 2.686-6 6-6s6 2.686 6 6z"></path>
</svg>
