<!-- Generated by IcoMoon.io -->
<svg version="1.1" xmlns="http://www.w3.org/2000/svg" width="64" height="64" viewBox="0 0 64 64">
<title>hotel</title>
<path d="M54 12h-10v-8h-24v8h-10v44h-8v6h60v-6h-8zM23 52h-4.5v-4.5h4.5zM23 43h-4.5v-4.5h4.5zM23 34.25h-4.5v-4.5h4.5zM34.375 51.875h-4.5v-4.5h4.5zM34.375 42.875h-4.5v-4.5h4.5zM34.375 34.125h-4.5v-4.5h4.5zM39.25 25h-4.5v-5.75h-5.5v5.75h-4.5v-16h4.5v5.75h5.5v-5.75h4.5zM46 56h-4.5v-8.25h4.5zM46 43h-4.5v-4.5h4.5zM46 34.25h-4.5v-4.5h4.5z"></path>
</svg>
