<!-- Generated by IcoMoon.io -->
<svg version="1.1" xmlns="http://www.w3.org/2000/svg" width="64" height="64" viewBox="0 0 64 64">
<title>http</title>
<path d="M53 28.25h-2.75v4.974h2.75c0.414-0.001 0.749-0.336 0.75-0.75v-3.474c-0.001-0.414-0.336-0.75-0.75-0.75h-0z"></path>
<path d="M62 15.816h-60c-1.105 0-2 0.895-2 2v0 32c0 1.105 0.895 2 2 2v0h60c1.105 0 2-0.895 2-2v0-32c0-1.105-0.895-2-2-2v0zM18.25 44h-4.5v-7.75h-3.5v7.75h-4.5v-20h4.5v7.75h3.5v-7.75h4.5zM43 28.487h-3.75v15.513h-4.5v-15.513h-5.5v15.513h-4.5v-15.513h-3.75v-4.5h22zM58.25 32.474c-0.003 2.898-2.352 5.247-5.25 5.25h-2.75v6.276h-4.5v-20.25h7.25c2.898 0.003 5.247 2.352 5.25 5.25v0z"></path>
</svg>
