<!-- Generated by IcoMoon.io -->
<svg version="1.1" xmlns="http://www.w3.org/2000/svg" width="64" height="64" viewBox="0 0 64 64">
<title>id-card</title>
<path d="M60 10.5v-3.5c0-1.657-1.343-3-3-3v0h-50c-1.657 0-3 1.343-3 3v0 3.5z"></path>
<path d="M4 15v42c0 1.657 1.343 3 3 3v0h50c1.657 0 3-1.343 3-3v0-42zM33.75 51h-21.75v-4.484c0 0 0 0 0 0 0-1.448 0.743-2.723 1.869-3.464l0.016-0.010 4.793-3.115-2.017-5.499v-6.214c0-3.432 2.782-6.214 6.214-6.214s6.214 2.782 6.214 6.214v0 6.214l-2.207 5.375 4.983 3.239c1.142 0.75 1.885 2.025 1.885 3.474 0 0 0 0 0 0v0zM54 34.25h-17v-4.5h17zM54 26.25h-17v-4.5h17z"></path>
</svg>
