<!-- Generated by IcoMoon.io -->
<svg version="1.1" xmlns="http://www.w3.org/2000/svg" width="64" height="64" viewBox="0 0 64 64">
<title>inbox-in</title>
<path d="M28.243 4.625q-0.067 0.184-0.117 0.376c-0.063 0.233-0.106 0.505-0.12 0.784l-0 0.010q-0.005 0.102-0.005 0.206v21h-9l13 15 13-15h-9v-21q0-0.104-0.005-0.206c-0.015-0.289-0.058-0.561-0.127-0.822l0.006 0.028q-0.049-0.192-0.117-0.376c-0.578-1.545-2.041-2.625-3.757-2.625s-3.179 1.080-3.748 2.597l-0.009 0.028z"></path>
<path d="M40 6v12h15.922v21h-9.941l-6.471 9h-16.176l-5.392-9h-9.941v-21h16v-12c0-0.002 0-0.004 0-0.006 0-1.471 0.4-2.849 1.096-4.031l-0.020 0.037h-23.076v60h59.922v-60h-22.998c0.676 1.145 1.076 2.523 1.076 3.994 0 0.002 0 0.004 0 0.007v-0z"></path>
</svg>
