<!-- Generated by IcoMoon.io -->
<svg version="1.1" xmlns="http://www.w3.org/2000/svg" width="64" height="64" viewBox="0 0 64 64">
<title>inbox-out</title>
<path d="M48.023 14.38l3.137 3.62h4.762v21h-9.941l-6.471 9h-16.176l-5.392-9h-9.941v-21h4.84l13.867-16h-24.707v60h59.922v-60h-24.628l10.73 12.38z"></path>
<path d="M19 17h9v21c0 0.001 0 0.002 0 0.003 0 0.599 0.132 1.166 0.368 1.676l-0.010-0.025q0.032 0.070 0.066 0.139c0.116 0.23 0.239 0.427 0.378 0.611l-0.007-0.010c0.059 0.079 0.122 0.155 0.186 0.229 0.229 0.263 0.486 0.492 0.769 0.686l0.014 0.009q0.16 0.108 0.33 0.2c0.317 0.176 0.686 0.315 1.075 0.397l0.026 0.005c0.242 0.052 0.52 0.081 0.804 0.081 0.001 0 0.001 0 0.002 0h-0c0.001 0 0.002 0 0.003 0 0.354 0 0.698-0.046 1.025-0.132l-0.028 0.006q0.192-0.049 0.376-0.117c0.089-0.033 0.176-0.069 0.262-0.108 0.092-0.041 0.182-0.085 0.27-0.132q0.17-0.092 0.33-0.2c0.325-0.221 0.605-0.477 0.845-0.766l0.005-0.007q0.061-0.074 0.119-0.151c0.496-0.657 0.795-1.487 0.795-2.387 0-0.002 0-0.004 0-0.007v0-21h9l-13-15z"></path>
</svg>
