<!-- Generated by IcoMoon.io -->
<svg version="1.1" xmlns="http://www.w3.org/2000/svg" width="64" height="64" viewBox="0 0 64 64">
<title>industry-slash</title>
<path d="M39 15.125h-2.588l-5.549 5.628 8.137 8.126v-13.754z"></path>
<path d="M60 15.125h-2.91l-16.017 15.827 18.927 18.927v-34.754z"></path>
<path d="M19 4h-4.912l4.912 4.906v-4.906z"></path>
<path d="M5.714 2h-3.714v3.678l2 2v52.322h52.322l2 2h3.678v-3.693zM21.5 54h-5v-5h5zM21.5 44h-5v-5h5zM20.761 31h-1.761v-8.322l5.018 5.018zM31.5 54h-5v-5h5zM31.5 44h-5v-5h5zM41.5 54h-5v-5h5z"></path>
</svg>
