<!-- Generated by IcoMoon.io -->
<svg version="1.1" xmlns="http://www.w3.org/2000/svg" width="64" height="64" viewBox="0 0 64 64">
<title>infinity</title>
<path d="M57.565 21.293c-2.74-2.74-6.526-4.435-10.707-4.435s-7.967 1.695-10.707 4.435l-4.122 4.122-4.122-4.122c-2.738-2.736-6.52-4.428-10.697-4.428-8.359 0-15.135 6.776-15.135 15.135s6.776 15.135 15.135 15.135c4.177 0 7.959-1.692 10.697-4.428l4.122-4.122 4.122 4.122c2.74 2.74 6.526 4.435 10.707 4.435 8.363 0 15.142-6.779 15.142-15.142 0-4.181-1.695-7.967-4.435-10.707v0zM22.251 37.050c-1.292 1.29-3.075 2.089-5.045 2.089-3.943 0-7.139-3.196-7.139-7.139s3.196-7.139 7.139-7.139c1.97 0 3.754 0.798 5.046 2.089l5.050 5.050zM51.908 37.050c-1.293 1.29-3.079 2.088-5.050 2.088s-3.757-0.798-5.050-2.088l-5.050-5.050 5.050-5.050c1.292-1.292 3.078-2.092 5.050-2.092s3.758 0.799 5.050 2.092h0c1.29 1.293 2.088 3.079 2.088 5.050s-0.798 3.757-2.089 5.050l0-0z"></path>
</svg>
