<!-- Generated by IcoMoon.io -->
<svg version="1.1" xmlns="http://www.w3.org/2000/svg" width="64" height="64" viewBox="0 0 64 64">
<title>info</title>
<path d="M4 4v56h56v-56zM33 10h6v6h-6zM42.066 47.884c-1.461 2.479-4.117 4.116-7.156 4.116-0.002 0-0.003 0-0.005 0h0c-0.099 0-0.197-0.002-0.296-0.005-4.451-0.162-7.998-3.81-7.998-8.286 0-0.834 0.123-1.639 0.352-2.398l-0.015 0.059 3.817-12.978c0.053-0.174 0.084-0.373 0.084-0.58 0-1.135-0.92-2.055-2.055-2.055-0.851 0-1.581 0.517-1.893 1.254l-0.005 0.014-1.245 3-5.542-2.3 1.245-3c1.244-2.941 4.105-4.968 7.44-4.968 4.449 0 8.055 3.607 8.055 8.055 0 0.81-0.12 1.592-0.342 2.33l0.015-0.057-3.817 12.979c-0.059 0.194-0.093 0.416-0.093 0.647 0 1.265 1.026 2.291 2.291 2.291 0.84 0 1.575-0.452 1.974-1.127l0.006-0.011 0.665-1.142 5.685 2.161z"></path>
</svg>
