<!-- Generated by IcoMoon.io -->
<svg version="1.1" xmlns="http://www.w3.org/2000/svg" width="64" height="64" viewBox="0 0 64 64">
<title>input-antenna</title>
<path d="M32 12.825c-10.477 0-19 8.523-19 19 0 0.058 0.002 0.116 0.002 0.175h6c-0.001-0.058-0.002-0.116-0.002-0.175 0-7.18 5.82-13 13-13s13 5.82 13 13v0c0 0.058-0.002 0.116-0.002 0.175h6c0.001-0.058 0.002-0.116 0.002-0.175-0-10.477-8.523-19-19-19z"></path>
<path d="M32 8.071c13.21 0 23.96 10.728 23.999 23.929h6c-0.040-16.538-13.456-29.928-29.999-29.928-8.284 0-15.784 3.358-21.213 8.787v0c-5.427 5.399-8.786 12.872-8.786 21.13 0 0.004 0 0.008 0 0.012v-0.001h6c0.039-13.201 10.789-23.929 23.999-23.929z"></path>
<path d="M32 23c-4.969 0.002-8.997 4.031-8.997 9.001 0 3.894 2.473 7.211 5.934 8.465l0.063 0.020v7.272l-14.225 14.225 0.059 0.059h8.368l8.799-8.799 8.799 8.799h7.868l0.309-0.309-13.975-13.976v-7.272c3.526-1.273 6-4.59 6-8.486 0-4.971-4.029-9-9-9v0z"></path>
</svg>
