<!-- Generated by IcoMoon.io -->
<svg version="1.1" xmlns="http://www.w3.org/2000/svg" width="64" height="64" viewBox="0 0 64 64">
<title>input-component</title>
<path d="M20 17c0-1.105-0.895-2-2-2v0h-3v-13h-6v13h-3c-1.105 0-2 0.895-2 2v0 12.75h16z"></path>
<path d="M4 47c0 1.105 0.895 2 2 2v0h3v13h6v-13h3c1.105 0 2-0.895 2-2v0-12.75h-16z"></path>
<path d="M24 47c0 1.105 0.895 2 2 2v0h3v13h6v-13h3c1.105 0 2-0.895 2-2v0-12.75h-16z"></path>
<path d="M40 17c0-1.105-0.895-2-2-2v0h-3v-13h-6v13h-3c-1.105 0-2 0.895-2 2v0 12.75h16z"></path>
<path d="M60 17c0-1.105-0.895-2-2-2v0h-3v-13h-6v13h-3c-1.105 0-2 0.895-2 2v0 12.75h16z"></path>
<path d="M55 62v-13h3c1.105 0 2-0.895 2-2v0-12.75h-16v12.75c0 1.105 0.895 2 2 2v0h3v13z"></path>
</svg>
