<!-- Generated by IcoMoon.io -->
<svg version="1.1" xmlns="http://www.w3.org/2000/svg" width="64" height="64" viewBox="0 0 64 64">
<title>invert</title>
<path d="M49.329 27.583l-15.645-24.436c-0.361-0.558-0.98-0.922-1.684-0.922s-1.323 0.364-1.68 0.914l-0.005 0.008-15.645 24.436c-2.598 3.491-4.159 7.887-4.159 12.648 0 0.020 0 0.040 0 0.060v-0.003c0 11.848 9.639 21.488 21.488 21.488s21.487-9.639 21.487-21.487c0-0.017 0-0.037 0-0.057 0-4.761-1.561-9.157-4.199-12.705l0.040 0.057zM32 8h-0.042l0.042-0.066zM14.512 40.288c-0-0.014-0-0.031-0-0.047 0-3.893 1.283-7.486 3.448-10.38l-0.032 0.045q0.040-0.054 0.076-0.111l12.996-20.299v48.25c-9.179-0.52-16.488-8.151-16.488-17.458z"></path>
</svg>
