<!-- Generated by IcoMoon.io -->
<svg version="1.1" xmlns="http://www.w3.org/2000/svg" width="64" height="64" viewBox="0 0 64 64">
<title>keyboard-hide</title>
<path d="M22.038 49.029l9.941 9.941 9.941-9.941h-19.882z"></path>
<path d="M4.979 45h54c1.656-0.002 2.998-1.344 3-3v-30c-0.002-1.656-1.344-2.998-3-3h-54c-1.656 0.002-2.998 1.344-3 3v30c0.002 1.656 1.344 2.998 3 3h0zM20.979 20h-5v-5h5zM24.979 24.5v5h-5v-5zM17.979 34.25h20v4.5h-20zM29.979 20h-5v-5h5zM34.479 24.5v5h-5v-5zM33.979 20v-5h5v5zM38.979 24.5h5v5h-5zM41.979 34h5v5h-5zM42.979 20v-5h5v5zM47.979 24.5h5v5h-5zM50.979 34h5v5h-5zM51.979 20v-5h5v5zM8.979 34h5v5h-5zM6.979 20v-5h5v5zM10.979 29.5v-5h5v5z"></path>
</svg>
