<!-- Generated by IcoMoon.io -->
<svg version="1.1" xmlns="http://www.w3.org/2000/svg" width="64" height="64" viewBox="0 0 64 64">
<title>keyboard</title>
<path d="M59 16h-54c-1.656 0.002-2.998 1.344-3 3v30c0.002 1.656 1.344 2.998 3 3h54c1.656-0.002 2.998-1.344 3-3v-30c-0.002-1.656-1.344-2.998-3-3h-0zM43 22h5v5h-5zM34 22h5v5h-5zM34.5 31.5v5h-5v-5zM25 22h5v5h-5zM7 22h5v5h-5zM14 46h-5v-5h5zM16 36.5h-5v-5h5zM16 22h5v5h-5zM25 31.5v5h-5v-5zM38 45.75h-20v-4.5h20zM39 31.5h5v5h-5zM47 46h-5v-5h5zM48 31.5h5v5h-5zM56 46h-5v-5h5zM57 27h-5v-5h5z"></path>
</svg>
