<!-- Generated by IcoMoon.io -->
<svg version="1.1" xmlns="http://www.w3.org/2000/svg" width="64" height="64" viewBox="0 0 64 64">
<title>lan</title>
<path d="M62 35v-6h-27v-7h6c0.552 0 1-0.448 1-1v0-18c0-0.552-0.448-1-1-1v0h-18c-0.552 0-1 0.448-1 1v0 18c0 0.552 0.448 1 1 1v0h6v7h-27v6h10v7h-6c-0.552 0-1 0.448-1 1v0 18c0 0.552 0.448 1 1 1v0h18c0.552 0 1-0.448 1-1v0-18c0-0.552-0.448-1-1-1v0h-6v-7h28v7h-6c-0.552 0-1 0.448-1 1v0 18c0 0.552 0.448 1 1 1v0h18c0.552 0 1-0.448 1-1v0-18c0-0.552-0.448-1-1-1v0h-6v-7z"></path>
</svg>
