<!-- Generated by IcoMoon.io -->
<svg version="1.1" xmlns="http://www.w3.org/2000/svg" width="64" height="64" viewBox="0 0 64 64">
<title>language</title>
<path d="M21.5 33v-7.75h-4.104l-1.282 3.663h-4.768l7.057-20.163h5.193l4.462 12.75h9.941v-17.5h-34v34h17.5v-5z"></path>
<path d="M23.029 20.75l-2.029-5.796-2.029 5.796h4.057z"></path>
<path d="M60 26h-34v34h34zM53 40.25h-2.971c-0.571 2.253-1.427 4.233-2.548 6.032l0.052-0.089c-0.372 0.593-0.728 1.096-1.108 1.578l0.028-0.037c1.258 0.627 2.759 1.016 4.547 1.016v4.5c-3.009 0-5.704-0.783-8-2.3-2.296 1.518-4.991 2.3-8 2.3v-4.5q2.524 0 4.553-1.009c-0.355-0.447-0.712-0.953-1.043-1.476l-0.043-0.072c-0.757-1.203-1.426-2.588-1.934-4.048l-0.044-0.144c-0.239-0.697-0.407-1.298-0.518-1.75h-2.971v-4.5h7.75v-4.75h4.5v4.75h7.75z"></path>
<path d="M40.636 40.25c0.227 0.711 0.454 1.291 0.711 1.853l-0.042-0.103c0.486 1.087 1.052 2.023 1.715 2.88l-0.024-0.032q0.377-0.49 0.721-1.040c0.64-1.022 1.194-2.199 1.602-3.443l0.033-0.115h-4.716z"></path>
</svg>
