<!-- Generated by IcoMoon.io -->
<svg version="1.1" xmlns="http://www.w3.org/2000/svg" width="64" height="64" viewBox="0 0 64 64">
<title>laundry</title>
<path d="M32.183 37.626v0q-0.086-0.059-0.176-0.118c-1.687-1.119-3.759-1.785-5.987-1.785-1.812 0-3.521 0.441-5.025 1.221l0.061-0.029-1.050 0.433c0.193 6.476 5.489 11.652 11.994 11.652 6.547 0 11.869-5.243 11.997-11.759l0-0.012-3.278 1.103c-3.25 1.094-6.284 0.843-8.537-0.706z"></path>
<path d="M53 2h-42c-1.105 0-2 0.895-2 2v0 56c0 1.105 0.895 2 2 2v0h42c1.105 0 2-0.895 2-2v0-56c0-1.105-0.895-2-2-2v0zM28 9h4v4h-4zM15 9h9v4h-9zM32 53c-8.837 0-16-7.163-16-16s7.163-16 16-16c8.837 0 16 7.163 16 16v0c-0.010 8.832-7.168 15.99-15.999 16h-0.001z"></path>
</svg>
