<!-- Generated by IcoMoon.io -->
<svg version="1.1" xmlns="http://www.w3.org/2000/svg" width="64" height="64" viewBox="0 0 64 64">
<title>layers-slash</title>
<path d="M3.008 20.264c-0.606 0.351-1.008 0.997-1.008 1.736 0 0.759 0.422 1.419 1.045 1.758l0.010 0.005 28 15c0.273 0.149 0.599 0.237 0.944 0.237s0.671-0.088 0.955-0.242l-0.011 0.005 1.317-0.706 3.357 3.357-5.618 3.090-28-15.4v5.992l26.735 14.704c0.365 0.205 0.801 0.325 1.265 0.325s0.9-0.12 1.278-0.332l-0.013 0.007 8.219-4.52 3.057 3.057-12.541 6.688-28-14.933v5.95l26.765 14.274c0.358 0.194 0.783 0.309 1.235 0.309s0.878-0.114 1.249-0.316l-0.014 0.007 15.186-8.099 9.866 9.866h3.712v-3.712l-56.288-56.288h-3.712v3.712l9.573 9.573z"></path>
<path d="M60.944 23.763c0.633-0.344 1.056-1.004 1.056-1.763 0-0.739-0.401-1.385-0.998-1.731l-0.010-0.005-28-16c-0.285-0.166-0.627-0.263-0.992-0.263s-0.707 0.098-1.002 0.269l0.010-0.005-10.918 6.239 22.887 22.886z"></path>
<path d="M60 29.104l-13.747 7.561 3.865 3.866 9.882-5.435v-5.992z"></path>
<path d="M60 46.042v-5.95l-6.731 3.59 3.88 3.88 2.851-1.52z"></path>
</svg>
