<!-- Generated by IcoMoon.io -->
<svg version="1.1" xmlns="http://www.w3.org/2000/svg" width="64" height="64" viewBox="0 0 64 64">
<title>layers</title>
<path d="M60.992 20.264l-28-16c-0.285-0.166-0.627-0.263-0.992-0.263s-0.707 0.098-1.002 0.269l0.010-0.005-28 16c-0.606 0.351-1.008 0.997-1.008 1.736 0 0.759 0.422 1.419 1.045 1.758l0.010 0.005 28 15c0.273 0.149 0.599 0.237 0.944 0.237s0.671-0.088 0.955-0.242l-0.011 0.005 28-15c0.633-0.344 1.056-1.004 1.056-1.763 0-0.739-0.401-1.385-0.998-1.731l-0.010-0.005z"></path>
<path d="M4 40.092v5.95l26.765 14.274c0.358 0.194 0.783 0.309 1.235 0.309s0.878-0.114 1.249-0.316l-0.014 0.007 26.765-14.275v-5.95l-28 14.933z"></path>
<path d="M4 29.104v5.992l26.735 14.704c0.365 0.205 0.801 0.325 1.265 0.325s0.9-0.12 1.278-0.332l-0.013 0.007 26.735-14.704v-5.992l-28 15.4z"></path>
</svg>
