<!-- Generated by IcoMoon.io -->
<svg version="1.1" xmlns="http://www.w3.org/2000/svg" width="64" height="64" viewBox="0 0 64 64">
<title>leaf</title>
<path d="M48.632 15.788c-3.363-5.631-7.965-10.198-13.452-13.422l-0.178-0.097-1.001-0.579-1.001 0.579c-11.332 6.628-18.824 18.737-18.824 32.597 0 0.005 0 0.010 0 0.015v-0.001c0 0.431 0.008 0.868 0.022 1.3 0.199 5.857 2.439 10.785 6.477 14.252 2.695 2.313 6.054 3.841 9.701 4.451v7.117h5.25v-6.878c0.042-0.003 0.083-0.006 0.125-0.009v-37.513c2.824 4.453 4.5 9.876 4.5 15.691v0 20.98c2.73-0.827 5.093-2.143 7.103-3.861l-0.027 0.022c4.039-3.467 6.278-8.395 6.477-14.252 0.015-0.432 0.022-0.869 0.022-1.3 0-0.006 0-0.013 0-0.020 0-7.033-1.93-13.615-5.289-19.245l0.095 0.172z"></path>
</svg>
