<!-- Generated by IcoMoon.io -->
<svg version="1.1" xmlns="http://www.w3.org/2000/svg" width="64" height="64" viewBox="0 0 64 64">
<title>lemon</title>
<path d="M56.871 19.758c1.58-1.58 2.558-3.764 2.558-6.175s-0.977-4.595-2.558-6.175v0c-1.58-1.58-3.763-2.558-6.175-2.558s-4.595 0.977-6.175 2.558v0c-0.060 0.060-0.118 0.122-0.175 0.184-2.551-1.082-5.518-1.71-8.631-1.71-0.009 0-0.018 0-0.027 0h0.001l-0-0c-16.242 0-29.408 13.166-29.408 29.408v0c0 0.008 0 0.017 0 0.025 0 3.114 0.629 6.080 1.766 8.78l-0.056-0.149c-0.062 0.057-0.124 0.115-0.184 0.175v0c-1.58 1.58-2.558 3.764-2.558 6.175s0.977 4.595 2.558 6.175v0c1.58 1.58 3.764 2.558 6.175 2.558s4.595-0.977 6.175-2.558v0c0.060-0.060 0.118-0.122 0.175-0.184 2.551 1.082 5.518 1.71 8.632 1.71 0.009 0 0.018 0 0.027 0h-0.001c16.242 0 29.408-13.166 29.408-29.408v0c0-0.008 0-0.017 0-0.025 0-3.114-0.629-6.080-1.766-8.78l0.056 0.149c0.062-0.057 0.124-0.115 0.184-0.175zM19.155 30.455l-4.671-2.397c3.732-7.195 9.907-12.689 17.402-15.455l0.222-0.072 1.785 4.937c-6.453 2.373-11.617 6.968-14.667 12.838l-0.070 0.148z"></path>
</svg>
