<!-- Generated by IcoMoon.io -->
<svg version="1.1" xmlns="http://www.w3.org/2000/svg" width="64" height="64" viewBox="0 0 64 64">
<title>library-music</title>
<path d="M8 21h-5v38c0 1.105 0.895 2 2 2v0h38v-5h-35z"></path>
<path d="M17 12h-5v38c0 1.105 0.895 2 2 2v0h38v-5h-35z"></path>
<path d="M59 3h-36c-1.104 0.001-1.999 0.896-2 2v36c0 1.105 0.895 2 2 2v0h36c1.072-0.001 1.946-0.845 1.995-1.905l0-0.004c0.001-0.030 0.005-0.060 0.005-0.091v-36c0-1.105-0.895-2-2-2v0zM43.832 37c-3.8 0-6.881-2.852-6.881-6.371 0-0.224 0.037-13.913 0.037-13.913l-6.75 1.284v-5.916l11.28-2.146-0.030 14.699c0.696-0.241 1.499-0.38 2.333-0.38 0.004 0 0.007 0 0.011 0h-0.001c3.8 0 6.881 2.852 6.881 6.371s-3.081 6.371-6.881 6.371z"></path>
</svg>
