<!-- Generated by IcoMoon.io -->
<svg version="1.1" xmlns="http://www.w3.org/2000/svg" width="64" height="64" viewBox="0 0 64 64">
<title>library-bookmark</title>
<path d="M8 56v-35h-5v38c0 1.105 0.895 2 2 2v0h38v-5z"></path>
<path d="M17 47v-35h-5v38c0 1.105 0.895 2 2 2v0h38v-5z"></path>
<path d="M21 5v36c0 1.105 0.895 2 2 2v0h36c1.072-0.001 1.946-0.845 1.995-1.905l0-0.004c0.001-0.030 0.005-0.060 0.005-0.091v-36c0-1.105-0.895-2-2-2v0h-36c-1.104 0.001-1.999 0.896-2 2v0zM56 8v22h-2l-5.043-6-4.957 6h-2v-22z"></path>
</svg>
