<!-- Generated by IcoMoon.io -->
<svg version="1.1" xmlns="http://www.w3.org/2000/svg" width="64" height="64" viewBox="0 0 64 64">
<title>life-ring</title>
<path d="M53.655 10.345c-5.542-5.542-13.198-8.97-21.655-8.97-16.914 0-30.625 13.711-30.625 30.625 0 8.457 3.428 16.113 8.97 21.655v0c5.542 5.542 13.198 8.97 21.655 8.97 16.914 0 30.625-13.711 30.625-30.625 0-8.457-3.428-16.113-8.97-21.655v0zM46.182 35.575c0.281-1.073 0.443-2.306 0.443-3.575s-0.161-2.502-0.465-3.677l0.022 0.102 8.258-8.258c1.848 3.429 2.934 7.505 2.934 11.834s-1.086 8.405-3.001 11.969l0.066-0.135zM22.625 32c0-5.178 4.197-9.375 9.375-9.375s9.375 4.197 9.375 9.375c0 5.178-4.197 9.375-9.375 9.375v0c-5.175-0.006-9.369-4.2-9.375-9.374v-0.001zM43.834 9.559l-8.258 8.258c-1.073-0.281-2.306-0.443-3.575-0.443s-2.502 0.162-3.677 0.465l0.102-0.022-8.258-8.258c3.429-1.848 7.505-2.934 11.834-2.934s8.405 1.086 11.969 3.001l-0.135-0.066zM9.559 20.166l8.258 8.258c-0.281 1.073-0.443 2.306-0.443 3.576s0.162 2.502 0.465 3.677l-0.022-0.102-8.258 8.258c-1.848-3.429-2.934-7.505-2.934-11.834s1.086-8.405 3.001-11.969l-0.066 0.135zM20.166 54.441l8.258-8.258c1.073 0.281 2.306 0.443 3.576 0.443s2.502-0.161 3.677-0.465l-0.102 0.022 8.258 8.258c-3.429 1.848-7.505 2.934-11.834 2.934s-8.405-1.086-11.969-3.001l0.135 0.066z"></path>
</svg>
