<!-- Generated by IcoMoon.io -->
<svg version="1.1" xmlns="http://www.w3.org/2000/svg" width="64" height="64" viewBox="0 0 64 64">
<title>lightbulb</title>
<path d="M19.134 51.25c1.328 6.177 6.739 10.741 13.217 10.75h0.853c6.479-0.009 11.89-4.573 13.202-10.661l0.016-0.089z"></path>
<path d="M32.778 2c-0 0-0.001 0-0.002 0-12.149 0-21.998 9.849-21.998 21.998 0 6.848 3.129 12.966 8.036 17l0.038 0.030v5.721h27.852v-5.721c4.945-4.065 8.074-10.182 8.074-17.031 0-12.149-9.849-21.998-21.998-21.998-0.001 0-0.001 0-0.002 0h0zM47.242 32.452q-0.256 0.437-0.538 0.856c-1.106 1.633-2.432 3.017-3.955 4.152l-0.045 0.032q-0.178 0.131-0.36 0.258h-19.133q-0.182-0.127-0.36-0.258c-1.568-1.166-2.894-2.55-3.962-4.124l-0.038-0.059q-0.281-0.42-0.538-0.856c-1.437-2.419-2.286-5.334-2.286-8.447 0-9.251 7.499-16.75 16.75-16.75s16.75 7.499 16.75 16.75c0 3.113-0.849 6.027-2.328 8.524l0.043-0.078z"></path>
</svg>
