<!-- Generated by IcoMoon.io -->
<svg version="1.1" xmlns="http://www.w3.org/2000/svg" width="64" height="64" viewBox="0 0 64 64">
<title>line-style</title>
<path d="M2 2.625h60v10.5h-60v-10.5z"></path>
<path d="M2 20.25h28v8h-28v-8z"></path>
<path d="M34 20.25h28v8h-28v-8z"></path>
<path d="M2 36.25h17v7.5h-17v-7.5z"></path>
<path d="M24 36.25h16v7.5h-16v-7.5z"></path>
<path d="M45 36.25h17v7.5h-17v-7.5z"></path>
<path d="M7.361 51.279c-2.961 0-5.361 2.4-5.361 5.361s2.4 5.361 5.361 5.361c2.961 0 5.361-2.4 5.361-5.361v0c-0.003-2.959-2.401-5.357-5.36-5.361h-0z"></path>
<path d="M24.037 51.279c-2.961 0-5.361 2.4-5.361 5.361s2.4 5.361 5.361 5.361c2.961 0 5.361-2.4 5.361-5.361v0c-0.003-2.959-2.401-5.357-5.36-5.361h-0z"></path>
<path d="M40.713 51.279c0 0-0 0-0 0-2.961 0-5.361 2.4-5.361 5.361s2.4 5.361 5.361 5.361c2.961 0 5.361-2.4 5.361-5.361 0 0 0 0 0 0v0c-0.004-2.959-2.401-5.357-5.36-5.361h-0z"></path>
<path d="M57.389 51.279c0 0-0 0-0 0-2.961 0-5.361 2.4-5.361 5.361s2.4 5.361 5.361 5.361c2.961 0 5.361-2.4 5.361-5.361 0 0 0 0 0 0v0c-0.004-2.959-2.401-5.357-5.36-5.361h-0z"></path>
</svg>
