<!-- Generated by IcoMoon.io -->
<svg version="1.1" xmlns="http://www.w3.org/2000/svg" width="64" height="64" viewBox="0 0 64 64">
<title>link-slash</title>
<path d="M34.941 24.816l4.241 4.245 3.939-3.939-4.243-4.243-3.937 3.937z"></path>
<path d="M40.35 12.738c1.417-1.417 3.375-2.294 5.537-2.294 4.325 0 7.831 3.506 7.831 7.831 0 2.162-0.877 4.12-2.294 5.537l-8.745 8.745 5.657 5.657 8.745-8.745c2.865-2.865 4.637-6.823 4.637-11.194s-1.772-8.329-4.637-11.194v0c-2.865-2.865-6.822-4.637-11.194-4.637s-8.329 1.772-11.194 4.637l-8.739 8.739 5.654 5.66z"></path>
<path d="M45.149 41.402l0.010-0.010-5.655-5.658-0.011 0.011-3.497-3.497 0.012-0.012-4.242-4.244-0.013 0.013-3.334-3.334 0.014-0.014-5.655-5.658-0.016 0.016-17.014-17.014h-3.747v3.678l17.049 17.049-11.967 11.967c-2.865 2.865-4.637 6.822-4.637 11.194s1.772 8.329 4.637 11.194v0c2.865 2.865 6.822 4.637 11.194 4.637s8.329-1.772 11.194-4.637l11.967-11.967 16.886 16.886h3.678v-3.747zM23.813 51.425c-1.418 1.419-3.377 2.298-5.541 2.298-4.325 0-7.831-3.506-7.831-7.831 0-2.164 0.878-4.124 2.297-5.541l11.967-11.967 3.334 3.334-7.161 7.161 4.243 4.243 7.161-7.161 3.497 3.497z"></path>
</svg>
