<!-- Generated by IcoMoon.io -->
<svg version="1.1" xmlns="http://www.w3.org/2000/svg" width="64" height="64" viewBox="0 0 64 64">
<title>link-broken</title>
<path d="M19.623 54.173c-5.307-0-9.608-4.302-9.608-9.608 0-2.653 1.075-5.055 2.814-6.794l10.458-10.458h-11.314l-4.801 4.801c-3.186 3.187-5.157 7.588-5.157 12.451 0 9.725 7.884 17.609 17.609 17.609 4.292 0 8.225-1.535 11.28-4.087l-0.028 0.023v-11.209l-4.458 4.458c-1.729 1.738-4.123 2.814-6.768 2.814-0.009 0-0.018 0-0.027-0h0.001z"></path>
<path d="M56.828 7.359c-3.176-3.176-7.564-5.141-12.41-5.141-4.313 0-8.263 1.556-11.319 4.137l0.026-0.021v11.221l4.54-4.54c1.728-1.728 4.116-2.797 6.753-2.797 5.275 0 9.551 4.276 9.551 9.551 0 2.637-1.069 5.025-2.797 6.753l-10.418 10.418 0.122 0.122h11.070l4.883-4.883c6.843-6.843 6.843-17.977 0-24.82z"></path>
<path d="M45.375 41.562h-10v20.625h5.25v-15.375h15.375v-5.25h-10.625z"></path>
<path d="M20.973 22.812h7.652v-20.625h-5.25v15.375h-15.375v5.25h12.973z"></path>
</svg>
