<!-- Generated by IcoMoon.io -->
<svg version="1.1" xmlns="http://www.w3.org/2000/svg" width="64" height="64" viewBox="0 0 64 64">
<title>link-intact</title>
<path d="M58.334 5.638c-2.91-2.91-6.93-4.71-11.371-4.71s-8.461 1.8-11.371 4.71l-9.894 9.894h11.314l4.237-4.238c1.462-1.462 3.482-2.367 5.714-2.367 4.463 0 8.081 3.618 8.081 8.081 0 2.231-0.904 4.252-2.367 5.714l-12.102 12.101c-1.463 1.46-3.483 2.363-5.714 2.363s-4.25-0.903-5.714-2.363l0 0-5.657 5.657c2.912 2.906 6.932 4.702 11.371 4.702s8.459-1.797 11.371-4.703l12.101-12.101c2.906-2.912 4.702-6.931 4.702-11.371s-1.797-8.459-4.703-11.371l0 0z"></path>
<path d="M22.882 52.684c-1.476 1.48-3.517 2.395-5.772 2.395-4.503 0-8.153-3.65-8.153-8.153 0-2.255 0.915-4.296 2.395-5.772l12.225-12.225c1.462-1.462 3.482-2.367 5.714-2.367s4.252 0.904 5.714 2.367v0l5.657-5.657c-2.91-2.91-6.93-4.71-11.371-4.71s-8.461 1.8-11.371 4.71l-12.225 12.225c-2.917 2.922-4.722 6.957-4.722 11.412 0 8.921 7.232 16.153 16.153 16.153 4.456 0 8.49-1.804 11.413-4.722l9.934-9.934h-11.314z"></path>
</svg>
