<!-- Generated by IcoMoon.io -->
<svg version="1.1" xmlns="http://www.w3.org/2000/svg" width="64" height="64" viewBox="0 0 64 64">
<title>link</title>
<path d="M57.081 7.082v0c-2.865-2.865-6.822-4.637-11.194-4.637s-8.329 1.772-11.194 4.637l-11.331 11.331 5.657 5.657 11.331-11.331c1.416-1.413 3.371-2.287 5.53-2.287 4.325 0 7.831 3.506 7.831 7.831 0 2.159-0.874 4.114-2.287 5.531l-11.331 11.331 5.657 5.657 11.331-11.331c2.865-2.865 4.637-6.822 4.637-11.194s-1.772-8.329-4.637-11.194v0z"></path>
<path d="M23.813 51.425c-1.417 1.415-3.373 2.29-5.534 2.29-4.325 0-7.831-3.506-7.831-7.831 0-2.161 0.875-4.117 2.29-5.534l10.624-10.624-5.657-5.657-10.624 10.624c-2.865 2.865-4.637 6.822-4.637 11.194s1.772 8.329 4.637 11.194v0c2.865 2.865 6.822 4.637 11.194 4.637s8.329-1.772 11.194-4.637l10.624-10.624-5.657-5.657z"></path>
<path d="M30.939 37.303l12.182-12.182-4.243-4.243-18 18 4.243 4.243 5.818-5.818z"></path>
</svg>
