<!-- Generated by IcoMoon.io -->
<svg version="1.1" xmlns="http://www.w3.org/2000/svg" width="64" height="64" viewBox="0 0 64 64">
<title>list-low-priority</title>
<path d="M32 6h30v6h-30v-6z"></path>
<path d="M32 19.333h30v6h-30v-6z"></path>
<path d="M32 32.667h30v6h-30v-6z"></path>
<path d="M41 46h21v6h-21v-6z"></path>
<path d="M19.899 45.983c-2.976-0.181-5.798-1.825-8-4.675-2.515-3.255-3.9-7.626-3.9-12.308s1.385-9.053 3.9-12.308c2.338-3.026 5.375-4.692 8.552-4.692h6.549v-6h-6.549c-5.077 0-9.801 2.494-13.3 7.024-3.322 4.3-5.152 9.974-5.152 15.976s1.829 11.676 5.152 15.976c3.372 4.365 7.881 6.839 12.748 7.013v8.538l17.551-11.405-17.551-11.737z"></path>
</svg>
