<!-- Generated by IcoMoon.io -->
<svg version="1.1" xmlns="http://www.w3.org/2000/svg" width="64" height="64" viewBox="0 0 64 64">
<title>list-high-priority</title>
<path d="M32 51h30v6h-30v-6z"></path>
<path d="M32 37.667h30v6h-30v-6z"></path>
<path d="M32 24.333h30v6h-30v-6z"></path>
<path d="M41 11h21v6h-21v-6z"></path>
<path d="M11.9 46.308c-2.515-3.255-3.9-7.626-3.9-12.308s1.385-9.053 3.9-12.308c2.202-2.85 5.024-4.493 8-4.675v8.598l17.551-11.737-17.551-11.405v8.538c-4.867 0.174-9.376 2.648-12.748 7.013-3.322 4.3-5.152 9.974-5.152 15.976s1.829 11.676 5.152 15.976c3.499 4.529 8.223 7.024 13.3 7.024h6.549v-6h-6.549c-3.177 0-6.214-1.666-8.552-4.692z"></path>
</svg>
