<!-- Generated by IcoMoon.io -->
<svg version="1.1" xmlns="http://www.w3.org/2000/svg" width="64" height="64" viewBox="0 0 64 64">
<title>location-pin-plus</title>
<path d="M32 2.892c-11.861 0-21.477 9.616-21.477 21.477 0 4.778 1.56 9.191 4.198 12.758l-0.041-0.058 15.679 22.473c0.366 0.52 0.964 0.856 1.64 0.856s1.274-0.336 1.636-0.849l0.004-0.006 15.679-22.473c2.597-3.509 4.157-7.922 4.157-12.7 0-11.861-9.615-21.477-21.477-21.477v0zM42 26.25h-7.75v7.75h-4.5v-7.75h-7.75v-4.5h7.75v-7.75h4.5v7.75h7.75z"></path>
</svg>
