<!-- Generated by IcoMoon.io -->
<svg version="1.1" xmlns="http://www.w3.org/2000/svg" width="64" height="64" viewBox="0 0 64 64">
<title>location-pin-check</title>
<path d="M10.523 24.369c0 0.009 0 0.021 0 0.032 0 4.767 1.56 9.17 4.198 12.725l-0.041-0.058 15.679 22.473c0.366 0.52 0.964 0.856 1.64 0.856s1.274-0.336 1.636-0.849l0.004-0.006 15.679-22.473c2.597-3.509 4.157-7.922 4.157-12.7 0-11.861-9.615-21.477-21.477-21.477s-21.477 9.616-21.477 21.477v0zM44.648 19.591l-15.148 15.148-10.091-10.091 3.182-3.182 6.909 6.909 11.966-11.966z"></path>
</svg>
