<!-- Generated by IcoMoon.io -->
<svg version="1.1" xmlns="http://www.w3.org/2000/svg" width="64" height="64" viewBox="0 0 64 64">
<title>location-pin-edit</title>
<path d="M52.983 19.776l-11.371 11.371-9.598 2.27c-0.263 0.053-0.566 0.083-0.876 0.083-2.562 0-4.638-2.077-4.638-4.638 0-0.309 0.030-0.61 0.088-0.902l-0.005 0.029 0.018-0.096 0.023-0.095 2.23-9.41 13.069-13.069c-2.879-1.53-6.295-2.429-9.921-2.429-11.862 0-21.479 9.616-21.479 21.479 0 4.778 1.56 9.191 4.198 12.759l-0.041-0.058 15.679 22.473c0.366 0.52 0.964 0.856 1.64 0.856s1.274-0.336 1.636-0.849l0.004-0.006 15.679-22.473c2.597-3.512 4.157-7.929 4.157-12.71 0-1.624-0.18-3.206-0.521-4.727l0.027 0.143z"></path>
<path d="M53.691 12.695c0.722-0.798 1.164-1.862 1.164-3.028s-0.442-2.23-1.167-3.032l0.004 0.004q-0.078-0.086-0.16-0.169v0q-0.083-0.083-0.169-0.16c-0.107-0.097-0.223-0.192-0.343-0.281l-0.012-0.009c-0.223-0.166-0.475-0.317-0.742-0.444l-0.027-0.012q-0.201-0.093-0.408-0.166c-0.083-0.029-0.168-0.055-0.252-0.079-0.019-0.005-0.038-0.011-0.058-0.016-0.085-0.023-0.17-0.044-0.255-0.062-0.006-0.001-0.013-0.002-0.019-0.004-0.083-0.017-0.166-0.031-0.249-0.043-0.015-0.002-0.029-0.005-0.044-0.006-0.089-0.012-0.179-0.022-0.269-0.029-0.006-0-0.013-0.001-0.019-0.001q-0.134-0.010-0.267-0.011c-0.007-0-0.013-0-0.020-0q-0.141-0.001-0.282 0.006c-0.006 0-0.012 0.001-0.019 0.001-0.082 0.005-0.164 0.012-0.246 0.021-0.020 0.002-0.040 0.005-0.060 0.007-0.088 0.011-0.176 0.024-0.264 0.040-0.032 0.006-0.064 0.013-0.096 0.019-0.179 0.037-0.326 0.077-0.47 0.123l0.032-0.009q-0.146 0.046-0.29 0.102c-0.026 0.010-0.051 0.020-0.077 0.031-0.572 0.24-1.060 0.571-1.469 0.982l-14.198 14.198-1.936 8.168c-0.002 0.008-0.002 0.017-0.002 0.026 0 0.003 0 0.006 0 0.008v-0c0 0.004 0.001 0.007 0.002 0.011 0.001 0.008 0.002 0.015 0.004 0.022l-0-0.001c0.001 0.004 0.003 0.008 0.005 0.012 0.003 0.007 0.005 0.012 0.008 0.018l-0-0.001c0.002 0.004 0.005 0.007 0.007 0.011 0.004 0.005 0.007 0.010 0.011 0.014l-0-0c0.003 0.003 0.006 0.006 0.009 0.009s0.009 0.007 0.014 0.011l0 0c0.003 0.002 0.007 0.005 0.011 0.007l0.001 0c0.005 0.003 0.010 0.005 0.016 0.007l0.001 0c0.003 0.001 0.007 0.003 0.012 0.004l0.001 0c0.005 0.001 0.011 0.003 0.018 0.003l0.001 0c0.004 0.001 0.008 0.001 0.013 0.002h0c0.002 0 0.003 0.001 0.005 0.001 0 0 0 0 0 0 0.009 0 0.018-0.001 0.027-0.003l-0.001 0 8.168-1.936 14.198-14.198q0.083-0.083 0.16-0.169z"></path>
</svg>
