<!-- Generated by IcoMoon.io -->
<svg version="1.1" xmlns="http://www.w3.org/2000/svg" width="64" height="64" viewBox="0 0 64 64">
<title>location-gps-fixed</title>
<path d="M36 9.349v-7.349h-8v7.349c-9.814 1.728-17.502 9.699-18.804 19.651h-7.196v8h7.549c2.083 9.046 9.275 15.969 18.309 17.63l0.142 0.022v7.349h8v-7.349c9.176-1.682 16.368-8.606 18.421-17.496l0.030-0.155h7.549v-8h-7.196c-1.302-9.952-8.991-17.923-18.804-19.651zM32 47c-8.284 0-15-6.716-15-15s6.716-15 15-15c8.284 0 15 6.716 15 15v0c-0.010 8.28-6.72 14.99-14.999 15h-0.001z"></path>
<path d="M41 32c0 4.971-4.029 9-9 9s-9-4.029-9-9c0-4.971 4.029-9 9-9s9 4.029 9 9z"></path>
</svg>
