<!-- Generated by IcoMoon.io -->
<svg version="1.1" xmlns="http://www.w3.org/2000/svg" width="64" height="64" viewBox="0 0 64 64">
<title>location-pin-slash</title>
<path d="M45.826 42.077l-40.096-40.077h-3.73v3.678l10.248 10.248c-1.090 2.488-1.725 5.388-1.725 8.437 0 4.78 1.56 9.196 4.198 12.765l-0.041-0.059 15.679 22.473c0.366 0.52 0.964 0.856 1.64 0.856s1.274-0.336 1.636-0.849l0.004-0.006 9.133-13.090 15.549 15.549h3.678v-3.757z"></path>
<path d="M32 17.627c3.866 0 7 3.134 7 7 0 1.241-0.323 2.407-0.889 3.417l0.018-0.035 10.316 10.314 0.875-1.254c2.597-3.509 4.158-7.922 4.158-12.7 0-11.861-9.615-21.476-21.476-21.476-5.316 0-10.18 1.931-13.93 5.13l0.030-0.025 10.512 10.503c0.974-0.55 2.138-0.874 3.379-0.874 0.003 0 0.006 0 0.009 0h-0.001z"></path>
</svg>
