<!-- Generated by IcoMoon.io -->
<svg version="1.1" xmlns="http://www.w3.org/2000/svg" width="64" height="64" viewBox="0 0 64 64">
<title>location-gps-off</title>
<path d="M50.023 46.272l-44.293-44.272h-3.73v3.678l12.010 12.010c-2.51 3.12-4.23 6.975-4.801 11.195l-0.013 0.118h-7.196v8h7.549c2.083 9.046 9.275 15.969 18.309 17.63l0.142 0.022v7.349h8v-7.349c3.96-0.716 7.45-2.358 10.357-4.695l-0.044 0.035 12.010 12.010h3.678v-3.747l-11.979-11.979zM32 47c-0.002 0-0.005 0-0.008 0-8.28 0-14.992-6.712-14.992-14.992 0-3.225 1.018-6.212 2.751-8.657l-0.031 0.047 20.884 20.884c-2.39 1.701-5.37 2.719-8.587 2.719-0.006 0-0.011 0-0.017 0h0.001z"></path>
<path d="M54.804 29c-1.302-9.952-8.991-17.923-18.804-19.651v-7.349h-8v7.349c-2.404 0.431-4.552 1.176-6.53 2.202l0.127-0.060 6.134 6.129c1.278-0.393 2.746-0.62 4.268-0.62 8.285 0 15.001 6.716 15.001 15.001 0 1.519-0.226 2.985-0.645 4.366l0.028-0.106 6.132 6.132c0.809-1.551 1.475-3.351 1.907-5.24l0.029-0.153h7.549v-8z"></path>
</svg>
