<!-- Generated by IcoMoon.io -->
<svg version="1.1" xmlns="http://www.w3.org/2000/svg" width="64" height="64" viewBox="0 0 64 64">
<title>locomotive</title>
<path d="M38.833 53.38c-0.383-1.347-1.324-2.422-2.552-2.977l-0.029-0.012q-0.171-0.075-0.348-0.137c-0.206-0.075-0.453-0.14-0.708-0.185l-0.027-0.004c-0.233-0.042-0.502-0.065-0.776-0.065-0.001 0-0.001 0-0.002 0h0c-0.002 0-0.004 0-0.006 0-0.942 0-1.818 0.284-2.547 0.771l0.017-0.011q-0.133 0.088-0.259 0.184c-0.171 0.131-0.322 0.263-0.464 0.405l0-0q-0.078 0.078-0.153 0.16c-0.52 0.571-0.901 1.278-1.080 2.062l-0.006 0.031c-0.051 0.217-0.088 0.474-0.104 0.736l-0.001 0.013q-0.007 0.128-0.007 0.257v0c0 0.001 0 0.001 0 0.002 0 0.308 0.030 0.609 0.087 0.9l-0.005-0.029c0.141 0.72 0.433 1.355 0.842 1.897l-0.008-0.012c0.26 0.346 0.556 0.644 0.887 0.898l0.011 0.008q0.156 0.119 0.323 0.225c0.131 0.086 0.287 0.174 0.447 0.254l0.027 0.012c0.103 0.050 0.209 0.094 0.316 0.137 0.102 0.040 0.206 0.078 0.311 0.111 0.409 0.131 0.88 0.207 1.368 0.207 0.992 0 1.91-0.312 2.663-0.844l-0.014 0.010c0.501-0.355 0.919-0.792 1.241-1.295l0.011-0.019q0.082-0.129 0.155-0.264c0.095-0.17 0.188-0.371 0.266-0.581l0.010-0.032q0.078-0.212 0.135-0.433c0.035-0.134 0.062-0.271 0.085-0.409 0.038-0.223 0.060-0.48 0.060-0.743 0-0.437-0.061-0.861-0.175-1.261l0.008 0.032z"></path>
<path d="M59.441 39.813h-39.441v-4h39v-5.34c0-0.006 0-0.013 0-0.020 0-2.33-1.335-4.348-3.283-5.331l-0.034-0.016-2.683-1.342v-11.764h-11v11h-9.675l-3.633-10.897c-0.816-2.404-3.053-4.103-5.686-4.103-0.002 0-0.004 0-0.006 0h-21v10.354l5 2v6.292l-5 2v25.354h8.806c0.325-4.485 4.043-8 8.582-8 2.912 0 5.486 1.447 7.043 3.661l0.018 0.027q0.237 0.339 0.442 0.702 0.211-0.374 0.458-0.724c1.579-2.221 4.143-3.653 7.042-3.653 3.2 0 5.993 1.745 7.478 4.335l0.022 0.042c1.506-2.634 4.299-4.38 7.5-4.38 4.182 0 7.668 2.982 8.447 6.936l0.009 0.055h4.153v-6.363z"></path>
<path d="M53.65 52.845c-0.030-0.071-0.062-0.142-0.095-0.211-0.088-0.184-0.172-0.336-0.265-0.482l0.011 0.019q-0.060-0.097-0.125-0.19c-0.843-1.203-2.223-1.98-3.785-1.98-0.944 0-1.822 0.284-2.553 0.772l0.017-0.011q-0.133 0.088-0.259 0.184c-0.171 0.131-0.322 0.263-0.464 0.405l0-0q-0.078 0.078-0.153 0.16c-0.743 0.813-1.197 1.901-1.197 3.094 0 0.002 0 0.004 0 0.005v-0c0 0.001 0 0.001 0 0.002 0 0.308 0.030 0.609 0.087 0.9l-0.005-0.029c0.141 0.72 0.433 1.355 0.842 1.897l-0.008-0.012c0.26 0.346 0.556 0.644 0.888 0.898l0.011 0.008q0.156 0.119 0.323 0.225c0.131 0.086 0.287 0.174 0.447 0.254l0.027 0.012c0.103 0.050 0.209 0.094 0.316 0.137 0.102 0.040 0.206 0.078 0.311 0.111 0.409 0.131 0.88 0.207 1.368 0.207 0.992 0 1.91-0.312 2.663-0.844l-0.014 0.010c0.501-0.355 0.919-0.792 1.241-1.295l0.011-0.019q0.082-0.129 0.155-0.264c0.095-0.17 0.188-0.371 0.266-0.581l0.010-0.032q0.078-0.212 0.135-0.433c0.035-0.134 0.062-0.271 0.085-0.409 0.038-0.224 0.060-0.481 0.060-0.744 0-0.574-0.105-1.124-0.297-1.632l0.011 0.032q-0.031-0.082-0.064-0.163z"></path>
<path d="M23.632 52.804q-0.064-0.151-0.139-0.295-0.047-0.091-0.097-0.179c-0.81-1.402-2.301-2.33-4.010-2.33-0.368 0-0.725 0.043-1.068 0.124l0.031-0.006q-0.167 0.039-0.33 0.089-0.216 0.067-0.423 0.155t-0.403 0.194q-0.098 0.053-0.193 0.111c-1.341 0.822-2.223 2.28-2.223 3.943 0 2.546 2.064 4.609 4.609 4.609 0.78 0 1.514-0.194 2.158-0.536l-0.025 0.012q0.090-0.047 0.178-0.098c0.55-0.321 1.011-0.733 1.377-1.22l0.009-0.012q0.133-0.178 0.248-0.368t0.213-0.392c0.287-0.582 0.454-1.267 0.454-1.991 0-0.003 0-0.005 0-0.008v0c-0-0.303-0.030-0.599-0.085-0.886l0.005 0.029c-0.069-0.359-0.168-0.677-0.299-0.978l0.011 0.029z"></path>
</svg>
