<!-- Generated by IcoMoon.io -->
<svg version="1.1" xmlns="http://www.w3.org/2000/svg" width="64" height="64" viewBox="0 0 64 64">
<title>loop-1</title>
<path d="M26 36.375v5.25h14v-5.25h-4.375v-15.375h-5.25v4.375h-4.375v5.25h4.375v5.75h-4.375z"></path>
<path d="M56 26.3v3.697c-0.010 8.28-6.72 14.99-14.999 15h-26.001v-8l-13 11 13 11v-8h26c11.579 0 21-9.42 21-21v-9h-0.103z"></path>
<path d="M8 36.697v-3.697c0.010-8.28 6.72-14.99 14.999-15h26.001v8l13-11-13-11v8h-26c-11.579 0-21 9.421-21 21v9h0.103z"></path>
</svg>
