<!-- Generated by IcoMoon.io -->
<svg version="1.1" xmlns="http://www.w3.org/2000/svg" width="64" height="64" viewBox="0 0 64 64">
<title>loop-circular</title>
<path d="M15.483 16.089l-3.342 3.372c-4.748 4.75-7.281 11.104-7.134 17.892 0.144 6.681 2.855 12.991 7.632 17.768l4.243-4.243c-3.528-3.496-5.751-8.305-5.876-13.632l-0-0.023c-0.111-5.139 1.801-9.942 5.384-13.525l3.223-3.252 7.156 7.553v-19h-18z"></path>
<path d="M51.861 42.538c4.747-4.75 7.28-11.104 7.133-17.891-0.145-6.681-2.855-12.991-7.632-17.768l-4.243 4.243c7.629 7.629 7.85 19.823 0.492 27.18l-3.223 3.252-7.156-7.553v19h18l-6.716-7.089z"></path>
</svg>
