<!-- Generated by IcoMoon.io -->
<svg version="1.1" xmlns="http://www.w3.org/2000/svg" width="64" height="64" viewBox="0 0 64 64">
<title>low-vision</title>
<path d="M49.653 17.388l-0.027-0.028c-1.756-1.759-3.773-3.255-5.99-4.426l-0.135-0.065q-0.414-0.215-0.834-0.413c-3.124-1.505-6.793-2.384-10.667-2.384-3.532 0-6.894 0.731-9.942 2.049l0.162-0.063 4.662 4.662c1.672-0.615 3.603-0.971 5.617-0.971h0c9.236 0 16.75 7.514 16.75 16.75-0 2.014-0.356 3.945-1.008 5.733l0.037-0.116 4.894 4.894 8.827-9.176v-3.612z"></path>
<path d="M32.5 20.25c-0.683 0-1.353 0.056-2.005 0.164l0.071-0.010 14.030 14.030c0.098-0.582 0.154-1.252 0.154-1.936 0-6.764-5.484-12.248-12.248-12.248-0.001 0-0.001 0-0.002 0h0z"></path>
<path d="M2 2v3.627l12.060 12.060-12.060 12.537v3.612l12.374 12.864c3.976 3.983 9.299 6.622 15.227 7.175l0.098 0.007-22.889-22.889 3.12-3.244 25.938 25.938c2.275-0.36 4.317-0.971 6.232-1.817l-0.159 0.063-28.173-28.173 3.12-3.244 41.485 41.485h3.627v-3.798l-56.202-56.202z"></path>
</svg>
