<!-- Generated by IcoMoon.io -->
<svg version="1.1" xmlns="http://www.w3.org/2000/svg" width="64" height="64" viewBox="0 0 64 64">
<title>loyalty</title>
<path d="M3.261 31.050l31.633 29.716c0.532 0.504 1.252 0.814 2.045 0.814 0.002 0 0.004 0 0.007 0h-0q0.056 0 0.112-0.002c0.832-0.029 1.574-0.395 2.096-0.965l0.002-0.002 21.667-23.55c0.493-0.532 0.795-1.246 0.795-2.031 0-0.829-0.337-1.579-0.881-2.121l-29.736-29.736c-0.72-0.724-1.716-1.172-2.818-1.172-0.004 0-0.008 0-0.011 0h-20.171c-3.312 0.004-5.996 2.688-6 6v20.135c0.002 1.148 0.486 2.183 1.259 2.913l0.002 0.002zM35.063 31.642l1.216 1.216 1.153-1.153c1.014-1.011 2.413-1.636 3.958-1.636 3.095 0 5.605 2.509 5.605 5.605 0 1.545-0.625 2.944-1.636 3.958l-9.080 9.080-9.142-9.142c-1.014-1.014-1.642-2.416-1.642-3.963 0-3.095 2.509-5.605 5.605-5.605 1.548 0 2.949 0.627 3.963 1.642v0zM17 12.5c2.485 0 4.5 2.015 4.5 4.5s-2.015 4.5-4.5 4.5c-2.485 0-4.5-2.015-4.5-4.5v0c0-2.485 2.015-4.5 4.5-4.5v0z"></path>
</svg>
