<!-- Generated by IcoMoon.io -->
<svg version="1.1" xmlns="http://www.w3.org/2000/svg" width="64" height="64" viewBox="0 0 64 64">
<title>map-alt</title>
<path d="M57 4h-50c-1.657 0-3 1.343-3 3v0 50c0 1.657 1.343 3 3 3v0h50c1.657 0 3-1.343 3-3v0-50c0-1.657-1.343-3-3-3v0zM32.083 34.46l-8.363 12.321c-0.182 0.266-0.485 0.438-0.827 0.438s-0.645-0.172-0.825-0.435l-0.002-0.003-8.363-12.321c-1.2-1.748-1.917-3.909-1.917-6.238 0-3.067 1.243-5.844 3.253-7.854v0c2.010-2.010 4.787-3.253 7.854-3.253s5.844 1.243 7.854 3.253v0c2.010 2.010 3.253 4.787 3.253 7.854 0 2.329-0.717 4.49-1.941 6.275l0.025-0.038zM53 48h-18v-6h18z"></path>
</svg>
