<!-- Generated by IcoMoon.io -->
<svg version="1.1" xmlns="http://www.w3.org/2000/svg" width="64" height="64" viewBox="0 0 64 64">
<title>map</title>
<path d="M60.058 11.378l-14.808-4.142v48.145l13.827 3.868c0.202 0.059 0.434 0.092 0.673 0.092 1.381 0 2.5-1.119 2.5-2.5v0-42.574c-0.004-1.368-0.919-2.521-2.171-2.884l-0.021-0.005z"></path>
<path d="M23.313 59.429l17.438-4.912v-48.147l-17.438 4.912v48.147z"></path>
<path d="M5.432 6.506c-0.204-0.060-0.439-0.095-0.682-0.095-1.381 0-2.5 1.119-2.5 2.5v0 42.574c0.004 1.364 0.914 2.514 2.16 2.881l0.021 0.005 14.381 4.080v-48.15l-13.38-3.796zM4.341 10.355l-0-0 0.004 0.001z"></path>
</svg>
