<!-- Generated by IcoMoon.io -->
<svg version="1.1" xmlns="http://www.w3.org/2000/svg" width="64" height="64" viewBox="0 0 64 64">
<title>media-skip-backward</title>
<path d="M57 50.031v-36.030c0-0.552-0.448-1-1-1-0.224 0-0.431 0.074-0.598 0.198l0.003-0.002-23.405 17.337v-16.533c0-0.552-0.448-1-1-1-0.224 0-0.431 0.074-0.598 0.198l0.003-0.002-24.32 18.015c-0.247 0.184-0.405 0.475-0.405 0.804s0.158 0.619 0.402 0.802l0.003 0.002 24.32 18.015c0.164 0.123 0.371 0.196 0.595 0.196 0.552 0 1-0.448 1-1 0 0 0 0 0-0v0-16.533l23.405 17.337c0.164 0.123 0.371 0.196 0.595 0.196 0.552 0 1-0.448 1-1 0 0 0 0 0-0v0z"></path>
</svg>
