<!-- Generated by IcoMoon.io -->
<svg version="1.1" xmlns="http://www.w3.org/2000/svg" width="64" height="64" viewBox="0 0 64 64">
<title>media-skip-forward</title>
<path d="M7 14.002v36.030c0 0 0 0 0 0 0 0.552 0.448 1 1 1 0.224 0 0.431-0.074 0.598-0.198l-0.003 0.002 23.405-17.337v16.533c0 0 0 0 0 0 0 0.552 0.448 1 1 1 0.224 0 0.431-0.074 0.598-0.198l-0.003 0.002 24.32-18.015c0.247-0.184 0.405-0.475 0.405-0.804s-0.158-0.619-0.402-0.802l-0.003-0.002-24.32-18.015c-0.164-0.123-0.371-0.196-0.595-0.196-0.552 0-1 0.448-1 1 0 0 0 0 0 0v0 16.533l-23.405-17.337c-0.164-0.123-0.371-0.196-0.595-0.196-0.552 0-1 0.448-1 1 0 0 0 0 0 0v0z"></path>
</svg>
