<!-- Generated by IcoMoon.io -->
<svg version="1.1" xmlns="http://www.w3.org/2000/svg" width="64" height="64" viewBox="0 0 64 64">
<title>microphone-alt</title>
<path d="M44 14c0-6.627-5.373-12-12-12v0 0c-6.627 0-12 5.373-12 12v0 4.75h24z"></path>
<path d="M32 38v0c6.627 0 12-5.373 12-12v0-2.75h-24v2.75c0 6.627 5.373 12 12 12v0z"></path>
<path d="M55 26h-6c0 9.374-7.626 17-17 17s-17-7.626-17-17h-6c0 11.666 8.73 21.33 20 22.804v7.196h-9v6h24v-6h-9v-7.196c11.27-1.475 20-11.139 20-22.804z"></path>
</svg>
