<!-- Generated by IcoMoon.io -->
<svg version="1.1" xmlns="http://www.w3.org/2000/svg" width="64" height="64" viewBox="0 0 64 64">
<title>microphone-slash</title>
<path d="M39.571 29.45l3.694 3.694c0.465-1.228 0.735-2.648 0.735-4.131 0-0.005 0-0.009 0-0.014v0.001-15c0-6.627-5.373-12-12-12v0 0c-5.358 0-9.895 3.51-11.44 8.356l-0.023 0.085 19.034 19.009z"></path>
<path d="M55 29v-7h-6v7c0 0.006 0 0.012 0 0.019 0 2.89-0.726 5.611-2.005 7.989l0.044-0.090 4.385 4.385c2.243-3.475 3.576-7.72 3.576-12.276 0-0.009 0-0.019 0-0.028v0.002z"></path>
<path d="M5.714 2h-3.714v3.678l18 18v5.322c0 6.627 5.373 12 12 12v0 0c0.004 0 0.009 0 0.013 0 1.603 0 3.133-0.315 4.53-0.887l-0.080 0.029 3.742 3.742c-2.36 1.332-5.182 2.116-8.187 2.116-0.007 0-0.014 0-0.020 0h0.001c-9.374 0-17-7.626-17-17v-7h-6v7c0 11.666 8.73 21.33 20 22.804v10.196h6v-10.196c3.609-0.484 6.85-1.744 9.657-3.607l-0.084 0.053 13.75 13.75h3.678v-3.693z"></path>
</svg>
