<!-- Generated by IcoMoon.io -->
<svg version="1.1" xmlns="http://www.w3.org/2000/svg" width="64" height="64" viewBox="0 0 64 64">
<title>microphone-settings</title>
<path d="M32 2v0c4.971 0 9 4.029 9 9v12c0 4.971-4.029 9-9 9v0c-4.971 0-9-4.029-9-9v-12c0-4.971 4.029-9 9-9z"></path>
<path d="M52 22h-6c0 7.732-6.268 14-14 14s-14-6.268-14-14v0h-6c0 10.009 7.39 18.323 17 19.775v9.225h6v-9.225c9.61-1.452 17-9.766 17-19.775z"></path>
<path d="M14 56h6v6h-6v-6z"></path>
<path d="M29 56h6v6h-6v-6z"></path>
<path d="M44 56h6v6h-6v-6z"></path>
</svg>
