<!-- Generated by IcoMoon.io -->
<svg version="1.1" xmlns="http://www.w3.org/2000/svg" width="64" height="64" viewBox="0 0 64 64">
<title>mobile-sms</title>
<path d="M20 46h-12v-35h28v16h6v-20c-0.003-2.76-2.24-4.997-5-5h-30c-2.76 0.003-4.997 2.24-5 5v50c0.003 2.76 2.24 4.997 5 5h13z"></path>
<path d="M44.642 51.318c-0.461 0.304-1.027 0.485-1.635 0.485-0.62 0-1.197-0.188-1.675-0.511l0.011 0.007-17.343-11.562v22.263h38v-21.965z"></path>
<path d="M43.014 47.606l18.896-12.282 0.090 0.138v-3.462h-38v2.93l19.014 12.676z"></path>
</svg>
