<!-- Generated by IcoMoon.io -->
<svg version="1.1" xmlns="http://www.w3.org/2000/svg" width="64" height="64" viewBox="0 0 64 64">
<title>mobile-developer-mode</title>
<path d="M12 57c0.003 2.76 2.24 4.997 5 5h30c2.76-0.003 4.997-2.24 5-5v-11h-40zM29.75 51.75h4.5v4.5h-4.5z"></path>
<path d="M52 7c-0.003-2.76-2.24-4.997-5-5h-30c-2.76 0.003-4.997 2.24-5 5v4h40z"></path>
<path d="M22.871 35.879l-6.879-6.879 6.879-6.879-4.243-4.243-11.121 11.121 11.121 11.121 4.243-4.243z"></path>
<path d="M45.371 40.121l11.121-11.121-11.121-11.121-4.243 4.243 6.879 6.879-6.879 6.879 4.243 4.243z"></path>
</svg>
