<!-- Generated by IcoMoon.io -->
<svg version="1.1" xmlns="http://www.w3.org/2000/svg" width="64" height="64" viewBox="0 0 64 64">
<title>mobile-speaker</title>
<path d="M46 46h-31v-35h34v-4c-0.003-2.76-2.24-4.997-5-5h-30c-2.76 0.003-4.997 2.24-5 5v50c0.003 2.76 2.24 4.997 5 5h30c2.76-0.003 4.997-2.24 5-5v-11zM31.25 56.25h-4.5v-4.5h4.5z"></path>
<path d="M33.359 27.849c0.010 0.080 0.016 0.173 0.016 0.266s-0.006 0.186-0.017 0.277l0.001-0.011v1.686l3.512 2.907c1.091-1.307 1.754-3.005 1.754-4.858 0-1.798-0.624-3.45-1.666-4.751l0.012 0.015-3.611 2.864z"></path>
<path d="M40.529 36.002l4.043 3.346c2.522-3.023 4.053-6.948 4.053-11.232 0-4.155-1.44-7.973-3.849-10.982l0.027 0.035-4.111 3.261c1.672 2.089 2.684 4.77 2.684 7.687 0 3.007-1.075 5.764-2.862 7.906l0.016-0.020z"></path>
<path d="M53.95 11q-0.255-0.34-0.521-0.673l-4.123 3.27c3.159 3.945 5.069 9.009 5.069 14.519 0 5.681-2.031 10.887-5.405 14.933l0.030-0.037 4.054 3.355q0.151-0.182 0.299-0.367c3.908-4.854 6.273-11.094 6.273-17.887 0-6.449-2.131-12.4-5.728-17.187l0.053 0.074z"></path>
</svg>
