<!-- Generated by IcoMoon.io -->
<svg version="1.1" xmlns="http://www.w3.org/2000/svg" width="64" height="64" viewBox="0 0 64 64">
<title>mobile-settings</title>
<path d="M14 62h30c2.76-0.003 4.997-2.24 5-5v-11h-34v-35h34v-4c-0.003-2.76-2.24-4.997-5-5h-30c-2.76 0.003-4.997 2.24-5 5v50c0.003 2.76 2.24 4.997 5 5h0zM31.25 51.75v4.5h-4.5v-4.5z"></path>
<path d="M31 29c0 2.761-2.239 5-5 5s-5-2.239-5-5c0-2.761 2.239-5 5-5s5 2.239 5 5z"></path>
<path d="M45 29c0 2.761-2.239 5-5 5s-5-2.239-5-5c0-2.761 2.239-5 5-5s5 2.239 5 5z"></path>
<path d="M59 29c0 2.761-2.239 5-5 5s-5-2.239-5-5c0-2.761 2.239-5 5-5s5 2.239 5 5z"></path>
</svg>
