<!-- Generated by IcoMoon.io -->
<svg version="1.1" xmlns="http://www.w3.org/2000/svg" width="64" height="64" viewBox="0 0 64 64">
<title>mobile-lock</title>
<path d="M17 62h30c2.76-0.003 4.997-2.24 5-5v-22.841h-6v11.84h-28v-35h14.875v-9h-15.875c-2.76 0.003-4.997 2.24-5 5v50c0.003 2.76 2.24 4.997 5 5h0zM34.25 51.75v4.5h-4.5v-4.5z"></path>
<path d="M40.625 9.441v3.559h-2.75v6.644c0 5.799 4.701 10.5 10.5 10.5s10.5-4.701 10.5-10.5v0-6.644h-3.188v-3.559c0-4.159-3.372-7.531-7.531-7.531s-7.531 3.372-7.531 7.531v0zM45.125 9.441c0-1.674 1.357-3.031 3.031-3.031s3.031 1.357 3.031 3.031v0 3.309h-6.063z"></path>
</svg>
