<!-- Generated by IcoMoon.io -->
<svg version="1.1" xmlns="http://www.w3.org/2000/svg" width="64" height="64" viewBox="0 0 64 64">
<title>mobile-volume</title>
<path d="M17 62h30c2.76-0.003 4.997-2.24 5-5v-11h-34v-35h34v-4c-0.003-2.76-2.24-4.997-5-5h-30c-2.76 0.003-4.997 2.24-5 5v50c0.003 2.76 2.24 4.997 5 5h0zM34.25 51.75v4.5h-4.5v-4.5z"></path>
<path d="M44.708 21.292l-2.708 2.708v0.996c1.27 0.431 2.167 1.613 2.167 3.004s-0.897 2.572-2.144 2.997l-0.022 0.007v0.996l2.708 2.708c2.378-1.331 3.959-3.835 3.959-6.708s-1.581-5.376-3.92-6.688l-0.039-0.020z"></path>
<path d="M50.174 15.826l-3.225 3.225c2.911 1.952 4.801 5.229 4.801 8.949s-1.89 6.997-4.763 8.924l-0.039 0.024 3.225 3.225c2.087-1.587 3.731-3.65 4.787-6.032l0.039-0.098c0.79-1.781 1.25-3.859 1.25-6.044s-0.46-4.263-1.288-6.141l0.038 0.098c-1.095-2.48-2.739-4.543-4.788-6.103l-0.038-0.027z"></path>
<path d="M38 40.797v-25.593l-8.87 6.082h-7.13v13.428h7.13l8.87 6.082z"></path>
</svg>
