<!-- Generated by IcoMoon.io -->
<svg version="1.1" xmlns="http://www.w3.org/2000/svg" width="64" height="64" viewBox="0 0 64 64">
<title>moon</title>
<path d="M49.886 43.65c-16.143 0.001-29.536-13.392-29.536-29.535 0-0.005 0-0.011 0-0.017 0-2.366 0.278-4.667 0.802-6.872l-0.040 0.201c0.402-1.735-1.486-3.082-3.004-2.15-8.519 5.282-14.107 14.582-14.107 25.186 0 16.313 13.224 29.537 29.537 29.537 10.605 0 19.904-5.589 25.114-13.982l0.073-0.126c0.931-1.518-0.415-3.406-2.15-3.004-2.004 0.484-4.305 0.762-6.671 0.762-0.006 0-0.011 0-0.017 0h0.001z"></path>
</svg>
