<!-- Generated by IcoMoon.io -->
<svg version="1.1" xmlns="http://www.w3.org/2000/svg" width="64" height="64" viewBox="0 0 64 64">
<title>motorbike</title>
<path d="M49.5 26c-0.002 0-0.004 0-0.007 0-1.003 0-1.978 0.118-2.913 0.341l0.085-0.017-6.222-13.574h-12.444v4.5h9.556l4.983 10.872c-3.353 2.275-5.528 6.070-5.528 10.372 0 6.9 5.594 12.494 12.494 12.494s12.494-5.594 12.494-12.494c0-6.9-5.594-12.494-12.494-12.494-0.002 0-0.004 0-0.006 0h0z"></path>
<path d="M14.5 26c-6.904 0-12.5 5.596-12.5 12.5s5.596 12.5 12.5 12.5c6.375 0 11.635-4.772 12.403-10.939l0.006-0.061h-12.91v-4h18.608l3.392-5.426v-4.574z"></path>
<path d="M6 18.75h13v4.5h-13v-4.5z"></path>
</svg>
