<!-- Generated by IcoMoon.io -->
<svg version="1.1" xmlns="http://www.w3.org/2000/svg" width="64" height="64" viewBox="0 0 64 64">
<title>mouse</title>
<path d="M56 12.625c2.001-0.002 3.623-1.624 3.625-3.625v-7h-5.25v5.375h-21.375c-2.001 0.002-3.623 1.624-3.625 3.625v7h5.25v-5.375z"></path>
<path d="M29.375 23v-5h-3.979c-5.014 0-9.078 4.064-9.078 9.078v0 4.297h13.057z"></path>
<path d="M16.318 47.071c0 8.245 6.684 14.929 14.929 14.929h1.507c8.245 0 14.929-6.684 14.929-14.929v0-10.446h-31.364z"></path>
<path d="M34.625 31.375h13.057v-4.297c0-5.014-4.064-9.078-9.078-9.078v0h-3.979v13.375z"></path>
</svg>
