<!-- Generated by IcoMoon.io -->
<svg version="1.1" xmlns="http://www.w3.org/2000/svg" width="64" height="64" viewBox="0 0 64 64">
<title>mouth-slash</title>
<path d="M42 24v0l9.458 4.228-4.066 9.216 7.325 7.325c0.028-0.054 0.057-0.107 0.085-0.162q0.081-0.16 0.158-0.323l7.040-16.284s-8-9-12-13.4c-3.363-3.7-5.39-5-7.752-5v0c-5.248 0-11.248 8.4-11.248 8.4l-1.526 1.526 7.812 7.812c1.834-0.845 3.397-1.968 4.709-3.333l0.005-0.005z"></path>
<path d="M2 2v3.627l10.908 10.908-10.908 12.466 7.040 15.284q0.077 0.163 0.158 0.323c2.909 5.798 8.912 9.393 15.399 9.393h14.806c0.002 0 0.004 0 0.006 0 3.187 0 6.174-0.855 8.744-2.348l-0.083 0.045 10.304 10.304h3.627v-3.798l-56.202-56.202zM36.062 39.689c-1.214-0.053-2.637-0.084-4.067-0.084-4.937 0-9.79 0.361-14.533 1.059l0.538-0.065-5.508-11.566 8.444-4.471z"></path>
</svg>
