<!-- Generated by IcoMoon.io -->
<svg version="1.1" xmlns="http://www.w3.org/2000/svg" width="64" height="64" viewBox="0 0 64 64">
<title>mouth</title>
<path d="M42.248 9.6v0c-5.248 0-8.363 8-8.363 8h-3.771s-3.115-8-8.363-8v0c-2.362 0-4.752 1-7.752 5-2.79 3.72-12 14.401-12 14.401l7.040 15.284q0.077 0.163 0.158 0.323c2.909 5.798 8.912 9.393 15.399 9.393h14.806c6.487 0 12.49-3.595 15.399-9.393q0.081-0.16 0.158-0.323l7.040-16.284s-9.21-9.68-12-13.4c-3-4-5.39-5-7.752-5zM46 40.599v0c-4.207-0.633-9.061-0.995-14-0.995s-9.793 0.362-14.538 1.060l0.538-0.065-5.508-11.566 9.508-5.034s4 4.525 10 4.525 10-4.525 10-4.525v0l9.458 4.228z"></path>
</svg>
