<!-- Generated by IcoMoon.io -->
<svg version="1.1" xmlns="http://www.w3.org/2000/svg" width="64" height="64" viewBox="0 0 64 64">
<title>music-video</title>
<path d="M60 8h-56c-1.105 0-2 0.895-2 2v0 44c0 1.105 0.895 2 2 2v0h56c1.105 0 2-0.895 2-2v0-44c0-1.105-0.895-2-2-2v0zM41.833 43.197c-3.222 0-5.833-2.418-5.833-5.401 0-0.22 0.015-0.437 0.043-0.649l-0.003 0.025v-11.395l-13.5 2.746v8.809c0.389-0.086 0.835-0.135 1.293-0.135h0c3.222 0 5.833 2.418 5.833 5.401s-2.612 5.401-5.833 5.401-5.833-2.418-5.833-5.401c0-0.22 0.015-0.437 0.043-0.649l-0.003 0.025v-12.537l-0.040 0.008v-7.972l22.52-4.475v3.276h0.020v12.254c0.389-0.086 0.835-0.135 1.293-0.135h0c3.222 0 5.833 2.418 5.833 5.401s-2.612 5.401-5.833 5.401z"></path>
</svg>
