<!-- Generated by IcoMoon.io -->
<svg version="1.1" xmlns="http://www.w3.org/2000/svg" width="64" height="64" viewBox="0 0 64 64">
<title>music-note-alt</title>
<path d="M48.5 32c-0.006 0-0.012 0-0.019 0-1.237 0-2.437 0.164-3.577 0.471l0.096-0.022v-26.449l-38 7v35.5c0 5.247 5.149 9.5 11.5 9.5s11.5-4.253 11.5-9.5-5.149-9.5-11.5-9.5c-0.006 0-0.012 0-0.019 0-1.237 0-2.437 0.164-3.577 0.471l0.096-0.022v-14.922l22-4.053v21.026c0 5.247 5.149 9.5 11.5 9.5s11.5-4.253 11.5-9.5-5.149-9.5-11.5-9.5z"></path>
</svg>
