<!-- Generated by IcoMoon.io -->
<svg version="1.1" xmlns="http://www.w3.org/2000/svg" width="64" height="64" viewBox="0 0 64 64">
<title>network-check</title>
<path d="M46.802 12.711q-0.478-0.141-0.959-0.272-1.442-0.395-2.906-0.708c-3.288-0.734-7.064-1.155-10.938-1.155h0q-1.008 0-2.012 0.039t-2.004 0.116q-1.5 0.115-2.987 0.316-1.982 0.267-3.934 0.684-1.463 0.312-2.906 0.708-2.403 0.658-4.736 1.543-0.932 0.354-1.851 0.742-0.459 0.194-0.915 0.398c-3.339 1.503-6.198 3.15-8.871 5.040l0.164-0.11 6.542 9.343c6.465-4.576 14.496-7.34 23.169-7.41l0.017-0 1.187-4.982 11.348 2.067-0.584 4.596q0.35 0.104 0.699 0.213c4.264 1.364 7.973 3.239 11.313 5.601l-0.128-0.086 6.542-9.343c-4.371-3.097-9.438-5.601-14.879-7.244l-0.371-0.096z"></path>
<path d="M30.597 26.509c-6.855 0.272-13.163 2.394-18.503 5.876l0.14-0.086q-0.588 0.379-1.163 0.782l6.005 8.576c3.097-2.193 6.802-3.745 10.812-4.383l0.148-0.019z"></path>
<path d="M41.7 38.828c1.997 0.811 3.717 1.761 5.305 2.884l-0.081-0.055 6.005-8.576c-2.837-2.010-6.112-3.669-9.62-4.812l-0.258-0.073z"></path>
<path d="M28.112 54.19c-0.071 0.283-0.112 0.607-0.112 0.942 0 0.443 0.072 0.868 0.204 1.267l-0.008-0.028q0.060 0.185 0.137 0.361c0.087 0.199 0.177 0.366 0.278 0.525l-0.009-0.016c0.661 1.062 1.821 1.759 3.144 1.76h0c1.881 0 3.543-1.454 3.798-3.456l4.221-33.218-3.889-0.709z"></path>
</svg>
