<!-- Generated by IcoMoon.io -->
<svg version="1.1" xmlns="http://www.w3.org/2000/svg" width="64" height="64" viewBox="0 0 64 64">
<title>new-releases</title>
<path d="M53.905 19.353l-2.14-7.118-7.118-2.14-5.413-5.095-7.235 1.706-7.235-1.706-5.413 5.095-7.118 2.14-2.14 7.118-5.095 5.412 1.706 7.235-1.706 7.235 5.095 5.413 2.14 7.118 7.118 2.14 5.413 5.095 7.235-1.706 7.235 1.706 5.413-5.095 7.118-2.14 2.14-7.118 5.095-5.413-1.706-7.235 1.706-7.235zM32 49c-2.761 0-5-2.239-5-5s2.239-5 5-5c2.761 0 5 2.239 5 5v0c0 2.761-2.239 5-5 5v0zM37 23l-3.75 10h-2.5l-3.75-10v-7h10z"></path>
</svg>
