<!-- Generated by IcoMoon.io -->
<svg version="1.1" xmlns="http://www.w3.org/2000/svg" width="64" height="64" viewBox="0 0 64 64">
<title>newspaper</title>
<path d="M11.625 11.979v19h0.021v19.594c-0.003 1.212-0.986 2.193-2.198 2.193s-2.195-0.981-2.198-2.192v-28.594h-5.25v28.594c0.012 4.086 3.303 7.399 7.379 7.447l0.005 0c0.022 0 0.044 0 0.066 0 0.264 0 46.050-0.041 46.050-0.041 3.588-0.004 6.496-2.912 6.5-6.5v-39.5zM34 41.979h-13.375v-22h13.375zM54 42.229h-13v-4.5h13zM54 33.229h-13v-4.5h13zM54 24.229h-13v-4.5h13z"></path>
</svg>
