<!-- Generated by IcoMoon.io -->
<svg version="1.1" xmlns="http://www.w3.org/2000/svg" width="64" height="64" viewBox="0 0 64 64">
<title>notebook</title>
<path d="M29.75 4.517c-2.624-1.959-5.93-3.138-9.512-3.142h-18.863v51.25h15.681c0.005 0 0.011 0 0.016 0 1.808 0 3.522 0.404 5.056 1.128l-0.072-0.031 1.223-5.159 6.472-6.472z"></path>
<path d="M43.763 1.375c-3.582 0.004-6.889 1.183-9.555 3.172l0.042-0.030v33.075l7.238-7.238c1.81-1.803 4.307-2.918 7.065-2.918 5.529 0 10.011 4.482 10.011 10.011 0 2.758-1.115 5.255-2.919 7.065l-8.113 8.113h15.092v-51.25z"></path>
<path d="M52.411 33.567v0c-0.997-0.989-2.37-1.601-3.886-1.601-1.524 0-2.903 0.618-3.902 1.616l-17.26 17.26-2.238 9.43c-0.009 0.035-0.014 0.075-0.014 0.115 0 0.276 0.224 0.5 0.5 0.5 0.041 0 0.081-0.005 0.119-0.014l-0.003 0.001 9.46-2.25 17.239-17.239c0.999-0.999 1.616-2.378 1.616-3.902 0-1.532-0.624-2.917-1.631-3.917l-0-0z"></path>
</svg>
