<!-- Generated by IcoMoon.io -->
<svg version="1.1" xmlns="http://www.w3.org/2000/svg" width="64" height="64" viewBox="0 0 64 64">
<title>note</title>
<path d="M60.089 3.911v0c-0.997-0.997-2.375-1.614-3.897-1.614s-2.9 0.617-3.897 1.614l-24.932 24.932-2.36 9.957c-0.002 0.009-0.003 0.020-0.003 0.031 0 0.004 0 0.007 0 0.010v-0.001c0 0.004 0.001 0.008 0.002 0.013 0.001 0.010 0.003 0.019 0.005 0.027l-0-0.001c0.002 0.005 0.004 0.009 0.006 0.014 0.003 0.008 0.006 0.015 0.010 0.022l-0-0.001c0.003 0.005 0.006 0.009 0.009 0.013 0.005 0.007 0.009 0.012 0.014 0.017l-0-0c0.004 0.004 0.008 0.008 0.012 0.011 0.005 0.005 0.011 0.009 0.017 0.013l0.001 0c0.005 0.003 0.009 0.006 0.014 0.009s0.012 0.006 0.019 0.009l0.001 0c0.005 0.002 0.010 0.004 0.015 0.005s0.014 0.003 0.022 0.004l0.001 0c0.005 0.001 0.011 0.002 0.016 0.002 0.002 0 0.004 0.001 0.006 0.001 0.011 0 0.023-0.001 0.033-0.003l-0.001 0 9.957-2.36 24.932-24.932c0.997-0.997 1.614-2.375 1.614-3.897s-0.617-2.9-1.614-3.897v0z"></path>
<path d="M37.437 40.722l-11.389 2.695c-0.264 0.053-0.568 0.084-0.879 0.084-2.578 0-4.668-2.090-4.668-4.668 0-0.311 0.030-0.614 0.088-0.908l-0.005 0.030 0.018-0.096 0.023-0.095 2.654-11.199 18.563-18.563h-36.842c-1.656 0.002-2.998 1.344-3 3v48c0.002 1.656 1.344 2.998 3 3h47c1.656-0.002 2.998-1.344 3-3v-35.842l-16.661 16.661z"></path>
</svg>
