<!-- Generated by IcoMoon.io -->
<svg version="1.1" xmlns="http://www.w3.org/2000/svg" width="64" height="64" viewBox="0 0 64 64">
<title>opacity</title>
<path d="M45.961 17.969c-2.678-9.561-11.47-16.594-21.874-16.594-12.523 0-22.712 10.189-22.712 22.712 0 10.491 7.151 19.343 16.834 21.939 2.764 9.652 11.51 16.598 21.878 16.599h0c12.523 0 22.712-10.189 22.712-22.712-0.015-10.451-7.071-19.249-16.678-21.907l-0.16-0.038zM24.087 41.549c-9.629 0-17.462-7.833-17.462-17.462s7.833-17.462 17.462-17.462 17.462 7.833 17.462 17.462-7.833 17.462-17.462 17.462z"></path>
<path d="M35.158 20.435l-0.642-2.545c-8.336 2.166-14.722 8.735-16.591 17.015l-0.029 0.152 5.13 1.118c0.473-2.12 1.273-3.992 2.355-5.666l-0.041 0.068c1.311-2.036 2.958-3.735 4.88-5.063l0.059-0.039c1.579-1.095 3.421-1.953 5.401-2.468l0.12-0.027-0.642-2.545z"></path>
</svg>
