<!-- Generated by IcoMoon.io -->
<svg version="1.1" xmlns="http://www.w3.org/2000/svg" width="64" height="64" viewBox="0 0 64 64">
<title>opentype</title>
<path d="M53.344 20.114c-1.467-3.694-3.86-6.829-6.918-9.068-2.23-1.652-4.9-2.848-7.799-3.393l-0.119-0.019c-1.148-0.218-2.469-0.343-3.819-0.343-1.315 0-2.602 0.119-3.852 0.346l0.131-0.020c-5.342 0.934-10.474 3.859-14.451 8.236-3.981 4.381-6.574 9.983-7.303 15.773-0.74 5.881 0.484 11.609 3.446 16.129 2.997 4.574 7.557 7.633 12.84 8.612 1.128 0.218 2.425 0.343 3.752 0.343 0.006 0 0.012 0 0.018 0h-0.001c1.328-0.001 2.627-0.12 3.889-0.348l-0.133 0.020c3.252-0.565 6.379-1.836 9.294-3.777 6.781-4.515 11.442-12.078 12.468-20.23 0.539-4.286 0.041-8.526-1.443-12.261zM41.575 31.49c-1.097 6.356-3.967 12.198-7.677 15.628-1.378 1.275-2.809 2.13-4.144 2.473-0.395 0.109-0.85 0.173-1.319 0.175h-0.002c-0.006 0-0.013 0-0.021 0-0.413 0-0.811-0.059-1.188-0.17l0.030 0.008c-3.625-1.045-6.408-7.724-4.792-17.093 0.784-4.539 2.509-8.915 4.859-12.323 2.123-3.078 4.659-5.185 6.954-5.779 0.398-0.109 0.855-0.173 1.326-0.175h0.002c0.004 0 0.010 0 0.015 0 0.414 0 0.814 0.059 1.193 0.17l-0.030-0.008 0.003 0.001c0.911 0.263 1.747 0.857 2.486 1.765 2.519 3.101 3.402 8.974 2.305 15.327z"></path>
</svg>
