<!-- Generated by IcoMoon.io -->
<svg version="1.1" xmlns="http://www.w3.org/2000/svg" width="64" height="64" viewBox="0 0 64 64">
<title>overscan-settings</title>
<path d="M20 54v0c-2.209 0-4 1.791-4 4v0 0c0 2.209 1.791 4 4 4v0 0c2.209 0 4-1.791 4-4v0 0c0-2.209-1.791-4-4-4v0z"></path>
<path d="M32 54v0c-2.209 0-4 1.791-4 4v0 0c0 2.209 1.791 4 4 4v0 0c2.209 0 4-1.791 4-4v0 0c0-2.209-1.791-4-4-4v0z"></path>
<path d="M44 54v0c-2.209 0-4 1.791-4 4v0 0c0 2.209 1.791 4 4 4v0 0c2.209 0 4-1.791 4-4v0 0c0-2.209-1.791-4-4-4v0z"></path>
<path d="M59 2h-54c-1.656 0.002-2.998 1.344-3 3v42c0.002 1.656 1.344 2.998 3 3h54c1.656-0.002 2.998-1.344 3-3v-42c-0.002-1.656-1.344-2.998-3-3h-0zM15 32l-8-6 8-6zM32 45l-6-8h12zM26 15l6-8 6 8zM49 32v-12l8 6z"></path>
</svg>
