<!-- Generated by IcoMoon.io -->
<svg version="1.1" xmlns="http://www.w3.org/2000/svg" width="64" height="64" viewBox="0 0 64 64">
<title>page-restore</title>
<path d="M8 4v56h49v-40l-16-16zM48.25 35c-0.001 8.975-7.277 16.25-16.252 16.25-5.983 0-11.21-3.233-14.032-8.047l-0.041-0.077 3.895-2.253c2.069 3.54 5.852 5.881 10.181 5.881 6.491 0 11.752-5.262 11.752-11.752s-5.262-11.752-11.752-11.752c-3.995 0-7.524 1.993-9.648 5.040l-0.025 0.038 5.672 5.672h-14v-14l5.108 5.108c3-3.882 7.657-6.358 12.892-6.358 8.974 0 16.25 7.275 16.25 16.25 0 0 0 0 0 0v0z"></path>
</svg>
