<!-- Generated by IcoMoon.io -->
<svg version="1.1" xmlns="http://www.w3.org/2000/svg" width="64" height="64" viewBox="0 0 64 64">
<title>pageview</title>
<path d="M2 56h60v-46h-60zM29.983 17.75c0.002 0 0.004 0 0.007 0 6.752 0 12.226 5.474 12.226 12.226 0 2.684-0.865 5.166-2.331 7.182l0.024-0.035 8.286 8.286-3.182 3.182-8.359-8.359c-1.882 1.241-4.191 1.98-6.672 1.98-6.755 0-12.231-5.476-12.231-12.231s5.476-12.231 12.231-12.231c0.001 0 0.001 0 0.002 0h-0z"></path>
<path d="M37.715 29.983c0 4.271-3.462 7.733-7.733 7.733s-7.733-3.462-7.733-7.733c0-4.271 3.462-7.733 7.733-7.733s7.733 3.462 7.733 7.733z"></path>
</svg>
