<!-- Generated by IcoMoon.io -->
<svg version="1.1" xmlns="http://www.w3.org/2000/svg" width="64" height="64" viewBox="0 0 64 64">
<title>paint</title>
<path d="M49.926 8.75h-1.926v-3.75c-0.002-1.656-1.344-2.998-3-3h-36c-1.656 0.002-2.998 1.344-3 3v13c0.002 1.656 1.344 2.998 3 3h36c1.656-0.002 2.998-1.344 3-3v-4.75h1.926c0 0 0 0 0 0 3.216 0 5.824 2.607 5.824 5.824 0 2.904-2.125 5.311-4.905 5.752l-0.033 0.004-21.062 3.24v8.93h-6.75v25h18v-25h-6.75v-5.070l17.246-2.653c4.986-0.788 8.754-5.056 8.754-10.203 0-5.702-4.622-10.324-10.324-10.324 0 0 0 0 0 0v0z"></path>
</svg>
