<!-- Generated by IcoMoon.io -->
<svg version="1.1" xmlns="http://www.w3.org/2000/svg" width="64" height="64" viewBox="0 0 64 64">
<title>paint-bucket</title>
<path d="M53.098 38.751l-1.562-1.955-1.562 1.955c-1.044 1.307-6.253 8.026-6.253 11.985 0 4.556 3.506 8.263 7.816 8.263s7.816-3.707 7.816-8.263c0-3.959-5.209-10.679-6.253-11.985z"></path>
<path d="M14.96 5.636l-3.302 9.070-7.665-3.136-1.988 4.859 7.855 3.214-7.085 19.468c-0.253 0.674-0.4 1.453-0.4 2.267 0 2.845 1.794 5.272 4.313 6.209l0.046 0.015 23.091 8.405c0.674 0.253 1.452 0.399 2.265 0.399 2.846 0 5.273-1.795 6.211-4.314l0.015-0.046 12.184-33.477zM11.315 31l3.409-9.367 5.492 2.247c0.601 1.827 2.291 3.123 4.285 3.123 2.486 0 4.501-2.015 4.501-4.501s-2.015-4.501-4.501-4.501c-1.001 0-1.926 0.327-2.674 0.88l0.012-0.009-5.318-2.176 1.576-4.331 25.674 9.345-3.382 9.291z"></path>
</svg>
