<!-- Generated by IcoMoon.io -->
<svg version="1.1" xmlns="http://www.w3.org/2000/svg" width="64" height="64" viewBox="0 0 64 64">
<title>paperclip</title>
<path d="M21.024 57.627h-0.009c-0.013 0-0.028 0-0.044 0-5.28 0-10.059-2.15-13.507-5.623l-0.001-0.001c-7.457-7.47-7.451-19.62 0.012-27.084l21.041-21.041 4.243 4.243-21.041 21.041c-2.381 2.381-3.854 5.671-3.854 9.305 0 7.266 5.888 13.156 13.153 13.16h0.006c0.011 0 0.023 0 0.036 0 3.623 0 6.901-1.474 9.269-3.854l24.348-24.348c1.436-1.436 2.324-3.419 2.324-5.61 0-4.382-3.552-7.934-7.934-7.934-2.191 0-4.174 0.888-5.61 2.324l-23.968 23.968c-0.492 0.492-0.797 1.173-0.797 1.924 0 1.503 1.218 2.721 2.721 2.721 0.751 0 1.431-0.305 1.924-0.797l20.642-20.642 4.243 4.243-20.642 20.642c-1.578 1.578-3.758 2.554-6.167 2.554-4.816 0-8.721-3.904-8.721-8.721 0-2.408 0.976-4.588 2.554-6.167l23.968-23.968c2.522-2.521 6.005-4.081 9.853-4.081 7.695 0 13.934 6.238 13.934 13.934 0 3.848-1.56 7.331-4.081 9.853l-24.347 24.347c-3.448 3.466-8.222 5.612-13.496 5.612-0.018 0-0.036 0-0.055-0h0.003z"></path>
</svg>
