<!-- Generated by IcoMoon.io -->
<svg version="1.1" xmlns="http://www.w3.org/2000/svg" width="64" height="64" viewBox="0 0 64 64">
<title>parking</title>
<path d="M38.375 22.723v-0.42c-0.002-1.841-1.494-3.334-3.336-3.336h-4.414v7.092h4.414c1.841-0.002 3.334-1.494 3.336-3.336v-0z"></path>
<path d="M32 2c-12.104 0-21.951 9.847-21.951 21.951-0 0.017-0 0.038-0 0.058 0 4.864 1.595 9.355 4.29 12.98l-0.041-0.058 15.16 23.678c0.545 0.842 1.48 1.391 2.543 1.391s1.998-0.549 2.536-1.379l0.007-0.012 15.16-23.678c2.654-3.566 4.249-8.058 4.249-12.922 0-0.020 0-0.041-0-0.061v0.003c0-12.104-9.847-21.951-21.951-21.951zM30.625 39h-5.25v-25.283h9.664c4.74 0.006 8.58 3.846 8.586 8.585v0.421c-0.006 4.74-3.846 8.58-8.585 8.586h-4.415z"></path>
</svg>
