<!-- Generated by IcoMoon.io -->
<svg version="1.1" xmlns="http://www.w3.org/2000/svg" width="64" height="64" viewBox="0 0 64 64">
<title>paw</title>
<path d="M46.211 40.703c-1.916-6.243-7.63-10.703-14.386-10.703v0c0 0 0 0 0 0-6.596 0-12.199 4.252-14.217 10.164l-0.031 0.106-3.067 9.2c-1.727 5.18 2.129 10.53 7.589 10.53h19.148c4.418 0 8-3.582 8-8 0-0.82-0.123-1.611-0.352-2.355l0.015 0.057z"></path>
<path d="M16.038 24.789c2.474 4.285 1.657 9.388-1.824 11.398s-8.309 0.166-10.783-4.119c-2.474-4.285-1.657-9.388 1.824-11.398s8.309-0.166 10.783 4.119z"></path>
<path d="M58.745 20.669c3.481 2.010 4.298 7.113 1.824 11.398s-7.302 6.129-10.783 4.119c-3.481-2.010-4.298-7.113-1.824-11.398s7.302-6.129 10.783-4.119z"></path>
<path d="M30.005 13.345c1.051 4.835-1.282 9.447-5.21 10.301s-7.965-2.373-9.016-7.208c-1.051-4.835 1.282-9.447 5.21-10.301s7.965 2.373 9.016 7.208z"></path>
<path d="M43.011 6.137c3.928 0.854 6.261 5.466 5.21 10.301s-5.088 8.062-9.016 7.208c-3.928-0.854-6.261-5.466-5.21-10.301s5.088-8.062 9.016-7.208z"></path>
</svg>
