<!-- Generated by IcoMoon.io -->
<svg version="1.1" xmlns="http://www.w3.org/2000/svg" width="64" height="64" viewBox="0 0 64 64">
<title>pen-fancy</title>
<path d="M21.206 29.388l-8.865 1.806c-1.021 0.21-1.839 0.919-2.199 1.855l-0.007 0.020-7.354 19.386c-0.123 0.316-0.194 0.681-0.194 1.063 0 0.829 0.336 1.579 0.878 2.123l0.856 0.856 8.588-8.588 3.182 3.182-8.588 8.588 0.705 0.705c0.543 0.543 1.294 0.878 2.122 0.878 0.382 0 0.747-0.071 1.084-0.201l-0.021 0.007 19.395-7.357c0.943-0.363 1.645-1.163 1.864-2.145l0.004-0.020 1.919-8.79zM22 47h-5v-5h5z"></path>
<path d="M58.763 5.237c-2-2-4.762-3.236-7.813-3.236-3.439 0-6.51 1.571-8.537 4.034l-0.015 0.019-17.173 20.99 11.733 11.733 20.99-17.173c2.482-2.042 4.053-5.114 4.053-8.552 0-3.051-1.237-5.814-3.236-7.814v0z"></path>
</svg>
