<!-- Generated by IcoMoon.io -->
<svg version="1.1" xmlns="http://www.w3.org/2000/svg" width="64" height="64" viewBox="0 0 64 64">
<title>pen-nib</title>
<path d="M29.687 17.78l-14.051 2.863c-1.158 0.239-2.087 1.043-2.495 2.105l-0.008 0.023-10.325 27.22c-0.14 0.358-0.221 0.773-0.221 1.206 0 0.94 0.381 1.792 0.996 2.408l1.783 1.783 14.976-14.976c-0.217-0.567-0.342-1.224-0.342-1.909 0-3.035 2.461-5.496 5.496-5.496s5.496 2.461 5.496 5.496c0 3.035-2.461 5.496-5.496 5.496-0.767 0-1.498-0.157-2.162-0.441l0.036 0.014-14.911 14.911 1.783 1.783c0.617 0.616 1.468 0.996 2.408 0.996 0.434 0 0.848-0.081 1.229-0.228l-0.023 0.008 27.233-10.33c1.070-0.412 1.866-1.32 2.114-2.434l0.004-0.023 3.038-13.915z"></path>
<path d="M60.694 16.473l-13.106-13.106c-0.543-0.543-1.293-0.879-2.121-0.879-0.934 0-1.767 0.426-2.318 1.095l-0.004 0.005-9.658 11.805 15.181 15.181 11.805-9.658c0.674-0.554 1.1-1.388 1.1-2.322 0-0.828-0.336-1.578-0.879-2.121v0z"></path>
</svg>
