<!-- Generated by IcoMoon.io -->
<svg version="1.1" xmlns="http://www.w3.org/2000/svg" width="64" height="64" viewBox="0 0 64 64">
<title>pen-alt</title>
<path d="M23.651 27.474c-8.275 8.275-14.707 18.392-18.63 29.683l-0.166 0.55c-0.038 0.108-0.060 0.232-0.060 0.361 0 0.311 0.126 0.592 0.33 0.795v0l0.011 0.011c0.204 0.204 0.485 0.329 0.795 0.329 0.129 0 0.254-0.022 0.369-0.062l-0.008 0.002c11.841-4.089 21.958-10.521 30.233-18.796l6.616-6.616-12.875-12.875z"></path>
<path d="M57.334 6.667c-1.648-1.647-3.923-2.667-6.438-2.667s-4.79 1.019-6.438 2.667l-0.745 0.745-3.018-3.018c-1.254-1.251-2.985-2.025-4.897-2.025s-3.643 0.774-4.897 2.025l-16.758 16.759 3.712 3.712 16.758-16.759c0.303-0.303 0.722-0.49 1.184-0.49s0.881 0.187 1.184 0.49v0l3.018 3.018-6.552 6.552 12.875 12.875 11.010-11.010c1.648-1.648 2.666-3.924 2.666-6.438s-1.019-4.79-2.666-6.438v0z"></path>
</svg>
