<!-- Generated by IcoMoon.io -->
<svg version="1.1" xmlns="http://www.w3.org/2000/svg" width="64" height="64" viewBox="0 0 64 64">
<title>pencil</title>
<path d="M36.971 14.153l-26.248 26.248-5.872 17.309c-0.038 0.108-0.060 0.232-0.060 0.361 0 0.311 0.126 0.592 0.33 0.795v0l0.011 0.011c0.204 0.204 0.485 0.33 0.795 0.33 0.129 0 0.254-0.022 0.369-0.062l-0.008 0.002 17.309-5.872 26.248-26.248z"></path>
<path d="M57.331 6.669v0c-1.648-1.647-3.923-2.667-6.438-2.667s-4.79 1.019-6.438 2.667l-4.303 4.303 12.875 12.875 4.303-4.302c1.648-1.648 2.666-3.924 2.666-6.438s-1.019-4.79-2.666-6.438v0z"></path>
</svg>
