<!-- Generated by IcoMoon.io -->
<svg version="1.1" xmlns="http://www.w3.org/2000/svg" width="64" height="64" viewBox="0 0 64 64">
<title>people</title>
<path d="M12.193 18.858q0.136-0.237 0.283-0.466-0.147 0.229-0.283 0.466z"></path>
<path d="M12.626 18.164q0.152-0.226 0.315-0.443-0.163 0.218-0.315 0.443z"></path>
<path d="M12.941 17.721c0.288-0.383 0.575-0.72 0.88-1.040l-0.004 0.004c-0.301 0.315-0.588 0.653-0.855 1.007l-0.021 0.029z"></path>
<path d="M11.29 20.859q0.089-0.263 0.19-0.519-0.101 0.257-0.19 0.519z"></path>
<path d="M11.81 19.584q0.119-0.247 0.25-0.487-0.13 0.24-0.25 0.487z"></path>
<path d="M15.021 15.591q0.213-0.168 0.435-0.325-0.222 0.158-0.435 0.325z"></path>
<path d="M28.979 15.591q0.427 0.336 0.82 0.71-0.393-0.374-0.82-0.71z"></path>
<path d="M14.201 16.302q0.393-0.374 0.82-0.71-0.427 0.336-0.82 0.71z"></path>
<path d="M28.544 15.266q0.222 0.158 0.435 0.325-0.213-0.168-0.435-0.325z"></path>
<path d="M10.925 22.206q0.056-0.276 0.126-0.547-0.070 0.271-0.126 0.547z"></path>
<path d="M30.696 17.262q-0.247-0.297-0.513-0.576 0.266 0.279 0.513 0.576z"></path>
<path d="M41.423 53.37q0.087 0.199 0.161 0.403-0.074-0.204-0.161-0.403z"></path>
<path d="M10.754 23.329q0.029-0.285 0.072-0.566-0.043 0.281-0.072 0.566z"></path>
<path d="M40.671 52.055q0.128 0.176 0.244 0.359-0.116-0.183-0.244-0.359z"></path>
<path d="M41.655 53.979q0.068 0.207 0.123 0.418-0.055-0.211-0.123-0.418z"></path>
<path d="M41.238 52.978q0.099 0.193 0.185 0.392-0.087-0.199-0.185-0.392z"></path>
<path d="M2.472 53.626c0.033-0.086 0.068-0.172 0.105-0.256-0.037 0.085-0.071 0.17-0.105 0.256z"></path>
<path d="M10.71 23.903q0.015-0.289 0.044-0.574-0.029 0.285-0.044 0.574z"></path>
<path d="M41.874 54.824q0.042 0.215 0.070 0.434-0.028-0.219-0.070-0.434z"></path>
<path d="M2.057 55.258q0.028-0.219 0.070-0.434-0.042 0.215-0.070 0.434z"></path>
<path d="M11.124 21.39q0.076-0.268 0.165-0.531-0.089 0.263-0.165 0.531z"></path>
<path d="M58.76 39.083l-10.855-6.859 4.176-6.562c0.767-1.189 1.224-2.642 1.224-4.202v0-8.156c-0-6.243-5.062-11.304-11.305-11.304-5.567 0-10.195 4.024-11.132 9.323l-0.010 0.068c0.866 0.593 1.624 1.224 2.318 1.918l0 0c2.859 2.844 4.629 6.782 4.629 11.133 0 0.015 0 0.030-0 0.045v-0.002 8.156c0 0.002 0 0.004 0 0.006 0 2.454-0.718 4.74-1.956 6.66l0.029-0.048-1.752 2.753 7.038 4.448c1.636 1.046 2.958 2.446 3.884 4.098l0.030 0.058c0.075 0.136 0.145 0.273 0.214 0.411l16.708-0.026v-6.036c0-2.464-1.281-4.628-3.212-5.864l-0.028-0.017z"></path>
<path d="M27.905 43.404l4.176-6.562c0.767-1.189 1.224-2.642 1.224-4.202v0-8.156q0-0.293-0.015-0.582c-0.022-0.426-0.063-0.818-0.124-1.204l0.008 0.064q-0.043-0.281-0.099-0.557t-0.126-0.547q-0.035-0.136-0.073-0.27-0.152-0.536-0.355-1.050-0.152-0.385-0.331-0.756-0.119-0.247-0.25-0.487-0.065-0.12-0.133-0.238-0.136-0.237-0.283-0.466-0.073-0.115-0.15-0.227-0.317-0.469-0.678-0.903v0q-0.247-0.297-0.513-0.576-0.187-0.196-0.384-0.384-0.393-0.374-0.82-0.71-0.213-0.168-0.435-0.325c-1.813-1.304-4.078-2.086-6.526-2.086-0.006 0-0.013 0-0.019 0h0.001c-0.005 0-0.012 0-0.018 0-2.448 0-4.713 0.781-6.56 2.109l0.034-0.023q-0.222 0.158-0.435 0.325-0.427 0.336-0.82 0.71-0.196 0.187-0.383 0.384c-0.301 0.315-0.588 0.653-0.855 1.007l-0.021 0.029q-0.163 0.218-0.315 0.443-0.076 0.113-0.15 0.227-0.147 0.229-0.283 0.466-0.068 0.118-0.133 0.238-0.13 0.24-0.25 0.487-0.179 0.371-0.331 0.756-0.101 0.257-0.19 0.519t-0.165 0.531q-0.038 0.134-0.073 0.27-0.070 0.271-0.126 0.547t-0.099 0.557-0.072 0.566-0.044 0.574-0.015 0.582v8.156c0 0 0 0 0 0 0 1.559 0.456 3.012 1.242 4.233l-0.019-0.031 4.176 6.562-10.854 6.859q-0.095 0.060-0.187 0.122-0.184 0.125-0.359 0.261-0.087 0.068-0.172 0.138c-0.83 0.69-1.49 1.556-1.928 2.542l-0.018 0.044c-0.037 0.085-0.071 0.17-0.105 0.256-0.136 0.337-0.256 0.739-0.339 1.153l-0.007 0.044q-0.042 0.215-0.070 0.434c-0.036 0.266-0.057 0.573-0.057 0.885 0 0 0 0 0 0.001v-0 5.856l40-0.062v-5.794c0-0 0-0 0-0.001 0-0.312-0.020-0.619-0.060-0.92l0.004 0.035q-0.028-0.219-0.070-0.434t-0.096-0.427-0.123-0.418q-0.034-0.103-0.071-0.206-0.074-0.204-0.161-0.403t-0.185-0.392q-0.148-0.29-0.323-0.565-0.116-0.183-0.244-0.359c-0.522-0.714-1.157-1.31-1.884-1.775l-0.028-0.017z"></path>
</svg>
