<!-- Generated by IcoMoon.io -->
<svg version="1.1" xmlns="http://www.w3.org/2000/svg" width="64" height="64" viewBox="0 0 64 64">
<title>people_plus</title>
<path d="M12.626 17.984q0.152-0.226 0.315-0.443-0.163 0.218-0.315 0.443z"></path>
<path d="M12.193 18.677q0.136-0.237 0.283-0.466-0.147 0.229-0.283 0.466z"></path>
<path d="M11.124 21.21q0.076-0.268 0.165-0.531-0.089 0.263-0.165 0.531z"></path>
<path d="M11.29 20.679q0.089-0.263 0.19-0.519-0.101 0.257-0.19 0.519z"></path>
<path d="M11.81 19.403q0.119-0.247 0.25-0.487-0.13 0.24-0.25 0.487z"></path>
<path d="M12.941 17.541c0.288-0.383 0.575-0.72 0.88-1.040l-0.004 0.004c-0.301 0.315-0.588 0.653-0.855 1.007l-0.021 0.029z"></path>
<path d="M30.696 17.081q-0.247-0.297-0.513-0.576 0.266 0.279 0.513 0.576z"></path>
<path d="M28.544 15.086q0.222 0.158 0.435 0.325-0.213-0.168-0.435-0.325z"></path>
<path d="M14.201 16.121q0.393-0.374 0.82-0.71-0.427 0.336-0.82 0.71z"></path>
<path d="M28.979 15.411q0.427 0.336 0.82 0.71-0.393-0.374-0.82-0.71z"></path>
<path d="M15.021 15.411q0.213-0.168 0.435-0.325-0.222 0.158-0.435 0.325z"></path>
<path d="M2.057 55.078q0.028-0.219 0.070-0.434-0.042 0.215-0.070 0.434z"></path>
<path d="M2.472 53.446c0.033-0.086 0.068-0.172 0.105-0.256-0.037 0.084-0.071 0.17-0.105 0.256z"></path>
<path d="M10.925 22.026q0.056-0.276 0.126-0.547-0.070 0.271-0.126 0.547z"></path>
<path d="M10.754 23.148q0.029-0.285 0.072-0.566-0.043 0.281-0.072 0.566z"></path>
<path d="M10.71 23.723q0.015-0.289 0.044-0.574-0.029 0.285-0.044 0.574z"></path>
<path d="M37.804 24.304v8.156c0 0.002 0 0.004 0 0.006 0 2.454-0.718 4.74-1.956 6.66l0.029-0.048-1.752 2.753 4.821 3.046c2.48-4.145 6.945-6.877 12.048-6.877 0.002 0 0.004 0 0.006 0h6.046l-9.141-5.776 4.176-6.562c0.767-1.189 1.224-2.642 1.224-4.202v0-8.156c-0-6.243-5.062-11.304-11.305-11.304-5.51 0-10.099 3.942-11.102 9.16l-0.011 0.071c0.855 0.588 1.603 1.212 2.289 1.898l0 0c2.859 2.844 4.629 6.782 4.629 11.132 0 0.015 0 0.030-0 0.045v-0.002z"></path>
<path d="M37 52v0c0-0.002 0-0.004 0-0.006 0-1.005 0.105-1.986 0.306-2.932l-0.016 0.092-9.385-5.93 4.176-6.562c0.767-1.189 1.224-2.642 1.224-4.202v0-8.156q0-0.293-0.015-0.582c-0.022-0.426-0.063-0.818-0.124-1.204l0.008 0.064q-0.043-0.281-0.099-0.557t-0.126-0.547q-0.035-0.135-0.073-0.27-0.152-0.536-0.355-1.050-0.152-0.385-0.331-0.756-0.119-0.247-0.25-0.487-0.065-0.12-0.133-0.238-0.136-0.237-0.283-0.466-0.073-0.115-0.15-0.227-0.317-0.469-0.678-0.903v0q-0.247-0.297-0.513-0.576-0.187-0.196-0.384-0.384-0.393-0.374-0.82-0.71-0.213-0.168-0.435-0.325c-1.813-1.304-4.078-2.085-6.526-2.085-0.006 0-0.013 0-0.019 0h0.001c-0.005 0-0.012 0-0.018 0-2.448 0-4.713 0.781-6.56 2.109l0.034-0.023q-0.222 0.158-0.435 0.325-0.427 0.336-0.82 0.71-0.196 0.187-0.383 0.384c-0.301 0.315-0.588 0.653-0.855 1.007l-0.021 0.029q-0.163 0.218-0.315 0.443-0.076 0.113-0.15 0.227-0.147 0.229-0.283 0.466-0.068 0.118-0.133 0.238-0.13 0.24-0.25 0.487-0.179 0.371-0.331 0.756-0.101 0.257-0.19 0.519t-0.165 0.531q-0.038 0.134-0.073 0.27-0.070 0.271-0.126 0.547t-0.099 0.557-0.072 0.566-0.044 0.574-0.015 0.582v8.156c0 0 0 0 0 0 0 1.559 0.456 3.012 1.242 4.233l-0.019-0.031 4.176 6.562-10.854 6.859q-0.095 0.060-0.187 0.122-0.184 0.125-0.359 0.261-0.087 0.068-0.172 0.138c-0.83 0.69-1.49 1.556-1.928 2.542l-0.018 0.044c-0.037 0.085-0.071 0.17-0.105 0.256-0.136 0.337-0.256 0.739-0.339 1.153l-0.007 0.044q-0.042 0.215-0.070 0.434c-0.036 0.266-0.056 0.573-0.056 0.885 0 0 0 0.001 0 0.001v-0 5.856l38.964-0.060c-2.451-2.512-3.964-5.95-3.964-9.742 0-0.006 0-0.012 0-0.019v0.001z"></path>
<path d="M55.125 43h-5.25v6.875h-6.875v5.25h6.875v6.875h5.25v-6.875h6.875v-5.25h-6.875v-6.875z"></path>
</svg>
