<!-- Generated by IcoMoon.io -->
<svg version="1.1" xmlns="http://www.w3.org/2000/svg" width="64" height="64" viewBox="0 0 64 64">
<title>percent</title>
<path d="M19 27c7.18 0 13-5.82 13-13s-5.82-13-13-13c-7.18 0-13 5.82-13 13v0c0.008 7.176 5.824 12.992 12.999 13h0.001zM19 9c2.761 0 5 2.239 5 5s-2.239 5-5 5c-2.761 0-5-2.239-5-5v0c0.003-2.76 2.24-4.997 5-5h0z"></path>
<path d="M46 37c-7.18 0-13 5.82-13 13s5.82 13 13 13c7.18 0 13-5.82 13-13v0c-0.008-7.176-5.824-12.992-12.999-13h-0.001zM46 55c-2.761 0-5-2.239-5-5s2.239-5 5-5c2.761 0 5 2.239 5 5v0c-0.003 2.76-2.24 4.997-5 5h-0z"></path>
<path d="M48.080 2l-42.174 60h9.881l42.061-60h-9.768z"></path>
</svg>
