<!-- Generated by IcoMoon.io -->
<svg version="1.1" xmlns="http://www.w3.org/2000/svg" width="64" height="64" viewBox="0 0 64 64">
<title>person</title>
<path d="M36.287 18h-0.109l1.695-5 0.058-5.030c0-0.020 0-0.044 0-0.068 0-3.26-2.642-5.902-5.902-5.902 0 0 0 0-0 0v0c-3.26 0-5.902 2.643-5.902 5.902v5.098l1.695 5h-0.855c-4.418 0-8 3.582-8 8 0 0.117 0.003 0.234 0.008 0.35l-0.001-0.017 0.653 15.667h4.546l2.454 20h10l2.454-20h4.546l0.653-15.667c0.004-0.099 0.007-0.216 0.007-0.333 0-4.418-3.582-8-8-8 0 0 0 0 0 0v0z"></path>
</svg>
