<!-- Generated by IcoMoon.io -->
<svg version="1.1" xmlns="http://www.w3.org/2000/svg" width="64" height="64" viewBox="0 0 64 64">
<title>person-female</title>
<path d="M39.291 22.419l0.431-2.419h3.497c0.983 0 1.781-0.797 1.781-1.781 0-0.153-0.019-0.302-0.056-0.444l0.003 0.012-2.401-9.603c-0.912-3.647-4.008-6.184-7.546-6.184s-6.634 2.537-7.546 6.184l-2.401 9.603c-0.034 0.13-0.053 0.279-0.053 0.432 0 0.983 0.797 1.781 1.781 1.781h3.626l0.348 2.33c-2.061 0.673-3.669 2.225-4.404 4.201l-0.016 0.048-6.335 22.421h8.032l1.595 13h10l1.595-13h7.778l-5.458-22.153c-0.671-2.065-2.224-3.675-4.203-4.412l-0.048-0.016z"></path>
</svg>
