<!-- Generated by IcoMoon.io -->
<svg version="1.1" xmlns="http://www.w3.org/2000/svg" width="64" height="64" viewBox="0 0 64 64">
<title>phone-check</title>
<path d="M34.121 12.121l-4.243-4.243-13.379 13.379-6.379-6.379-4.243 4.243 10.621 10.621 17.621-17.621z"></path>
<path d="M56.458 14.555l-9.245-4.555-9.787 13.050 4.894 6.525c0 0 0 0 0 0 0 7.207-5.843 13.050-13.050 13.050 0 0 0 0 0 0v0l-6.525-4.894-13.050 9.787 4.555 9.245c0.207 0.328 0.568 0.542 0.978 0.542 0 0 0 0 0 0h2.793c21.528 0 38.98-17.452 38.98-38.98v-2.793c0 0 0 0 0 0 0-0.411-0.214-0.771-0.537-0.975l-0.005-0.003z"></path>
</svg>
