<!-- Generated by IcoMoon.io -->
<svg version="1.1" xmlns="http://www.w3.org/2000/svg" width="64" height="64" viewBox="0 0 64 64">
<title>phone-square</title>
<path d="M57 5h-50c-1.105 0-2 0.895-2 2v0 50c0 1.105 0.895 2 2 2v0h50c1.105 0 2-0.895 2-2v0-50c0-1.105-0.895-2-2-2v0zM49.282 19.279c0 16.966-13.754 30.721-30.721 30.721h-2.201c0 0 0 0 0 0-0.323 0-0.608-0.169-0.769-0.424l-0.002-0.004-3.59-7.286 10.285-7.714 5.142 3.857c0 0 0 0 0 0 5.68 0 10.285-4.605 10.285-10.285v0l-3.857-5.142 7.714-10.285 7.286 3.59c0.258 0.163 0.427 0.447 0.427 0.771v0z"></path>
</svg>
