<!-- Generated by IcoMoon.io -->
<svg version="1.1" xmlns="http://www.w3.org/2000/svg" width="64" height="64" viewBox="0 0 64 64">
<title>phone-ring-volume</title>
<path d="M4.366 41.865c-0.195 0.195-0.316 0.465-0.316 0.763 0 0.086 0.010 0.17 0.029 0.25l-0.001-0.007 3.103 9.129 15.108-2.158 1.079-7.554c2.209-2.209 5.262-3.576 8.633-3.576s6.424 1.367 8.633 3.576v0l1.079 7.554 15.108 2.158 3.103-9.129c0.018-0.073 0.028-0.157 0.028-0.243 0-0.298-0.121-0.568-0.316-0.763l-1.848-1.848c-14.242-14.242-37.332-14.242-51.573 0z"></path>
<path d="M5.879 17.121l4.243-4.243 8 8-4.243 4.243-8-8z"></path>
<path d="M45.879 20.879l8-8 4.243 4.243-8 8-4.243-4.243z"></path>
<path d="M29 7h6v11h-6v-11z"></path>
</svg>
