<!-- Generated by IcoMoon.io -->
<svg version="1.1" xmlns="http://www.w3.org/2000/svg" width="64" height="64" viewBox="0 0 64 64">
<title>phone-slash</title>
<path d="M55.625 14.879v-2.793c0 0 0 0 0 0 0-0.411-0.214-0.771-0.537-0.975l-0.005-0.003-9.245-4.555-9.787 13.050 4.894 6.525c0 0.003 0 0.007 0 0.010 0 1.445-0.235 2.835-0.669 4.134l0.027-0.092 7.766 7.766c4.721-6.352 7.558-14.349 7.558-23.008 0-0.021 0-0.041-0-0.062v0.003z"></path>
<path d="M62 58.253l-56.253-56.253h-3.747v3.678l31.99 31.99c-1.761 0.951-3.854 1.51-6.078 1.51-0.006 0-0.013 0-0.019 0h0.001l-6.525-4.894-13.050 9.787 4.555 9.245c0.207 0.328 0.568 0.542 0.978 0.542 0 0 0 0 0 0h2.793c0.017 0 0.038 0 0.058 0 9.39 0 18.001-3.334 24.714-8.882l-0.065 0.053 16.971 16.971h3.678z"></path>
</svg>
