<!-- Generated by IcoMoon.io -->
<svg version="1.1" xmlns="http://www.w3.org/2000/svg" width="64" height="64" viewBox="0 0 64 64">
<title>phone-paused</title>
<path d="M18.227 60h2.793c21.528 0 38.98-17.452 38.98-38.98v-2.793c0 0 0 0 0 0 0-0.41-0.214-0.771-0.537-0.975l-0.005-0.003-9.245-4.555-9.787 13.050 4.894 6.525c0 7.207-5.843 13.050-13.050 13.050v0l-6.525-4.894-13.050 9.787 4.555 9.245c0.207 0.328 0.568 0.542 0.978 0.542 0 0 0 0 0 0v0z"></path>
<path d="M6 4h8v22h-8v-22z"></path>
<path d="M22 4h8v22h-8v-22z"></path>
</svg>
