<!-- Generated by IcoMoon.io -->
<svg version="1.1" xmlns="http://www.w3.org/2000/svg" width="64" height="64" viewBox="0 0 64 64">
<title>phone-lock</title>
<path d="M13.5 31c5.796-0.007 10.493-4.704 10.5-10.499v-6.644h-3.188v-3.559c0-4.159-3.372-7.531-7.531-7.531s-7.531 3.372-7.531 7.531v0 3.559h-2.75v6.644c0.007 5.796 4.704 10.493 10.499 10.5h0.001zM10.25 10.297c0-1.674 1.357-3.031 3.031-3.031s3.031 1.357 3.031 3.031v0 3.309h-6.063z"></path>
<path d="M37.425 23.050l4.894 6.525c0 0 0 0 0 0 0 7.207-5.843 13.050-13.050 13.050 0 0 0 0 0 0v0l-6.525-4.894-13.050 9.787 4.555 9.245c0.207 0.328 0.568 0.542 0.978 0.542 0 0 0 0 0 0h2.793c21.528 0 38.98-17.452 38.98-38.98v-2.793c0 0 0 0 0 0 0-0.411-0.214-0.771-0.537-0.975l-0.005-0.003-9.245-4.555z"></path>
</svg>
