<!-- Generated by IcoMoon.io -->
<svg version="1.1" xmlns="http://www.w3.org/2000/svg" width="64" height="64" viewBox="0 0 64 64">
<title>phone-volume</title>
<path d="M16.981 59.684c0.195 0.195 0.465 0.316 0.763 0.316 0.086 0 0.17-0.010 0.25-0.029l-0.007 0.001 9.129-3.103-2.158-15.108-7.554-1.079c-2.209-2.209-3.576-5.262-3.576-8.633s1.367-6.424 3.576-8.633v0l7.554-1.079 2.158-15.108-9.129-3.103c-0.073-0.018-0.157-0.028-0.243-0.028-0.298 0-0.568 0.121-0.763 0.316l-1.848 1.848c-14.242 14.242-14.242 37.332 0 51.573z"></path>
<path d="M31.793 19.988l-0.352 3.985q0.313 0.028 0.622 0.027c3.864-0.003 6.995-3.136 6.995-7 0-3.649-2.792-6.646-6.356-6.971l-0.027-0.002-0.352 3.985c1.541 0.138 2.74 1.423 2.74 2.989 0 1.657-1.343 3-3 3-0.095 0-0.188-0.004-0.28-0.013l0.012 0.001z"></path>
<path d="M30.737 31.922q0.671 0.059 1.33 0.059c8.269-0.006 14.97-6.711 14.97-14.981 0-7.809-5.975-14.223-13.603-14.919l-0.058-0.004-0.352 3.984c5.639 0.508 10.025 5.211 10.025 10.939 0 6.065-4.916 10.981-10.981 10.981-0.344 0-0.685-0.016-1.021-0.047l0.043 0.003z"></path>
</svg>
