<!-- Generated by IcoMoon.io -->
<svg version="1.1" xmlns="http://www.w3.org/2000/svg" width="64" height="64" viewBox="0 0 64 64">
<title>phone-settings</title>
<path d="M56.671 16.249l-9.245-4.555-9.787 13.050 4.894 6.525c0 0 0 0 0 0 0 7.207-5.843 13.050-13.050 13.050v0l-6.525-4.894-13.050 9.787 4.555 9.245c0.207 0.328 0.568 0.542 0.978 0.542h2.793c21.528 0 38.98-17.452 38.98-38.98v-2.793c0 0 0 0 0 0 0-0.41-0.214-0.771-0.537-0.975l-0.005-0.003z"></path>
<path d="M33.55 6.873c2.011 0.914 2.9 3.286 1.986 5.297s-3.286 2.9-5.297 1.986c-2.011-0.914-2.9-3.286-1.986-5.297s3.286-2.9 5.297-1.986z"></path>
<path d="M24.607 20.393c0 2.209-1.791 4-4 4s-4-1.791-4-4c0-2.209 1.791-4 4-4s4 1.791 4 4z"></path>
<path d="M9.64 26.285c2.202 0.177 3.843 2.106 3.666 4.308s-2.106 3.843-4.308 3.666c-2.202-0.177-3.843-2.106-3.666-4.308s2.106-3.843 4.308-3.666z"></path>
</svg>
