<!-- Generated by IcoMoon.io -->
<svg version="1.1" xmlns="http://www.w3.org/2000/svg" width="64" height="64" viewBox="0 0 64 64">
<title>phone-bluetooth</title>
<path d="M60 18.227c0 0 0 0 0 0 0-0.41-0.214-0.771-0.537-0.975l-0.005-0.003-9.245-4.555-9.787 13.050 4.894 6.525c0 7.207-5.843 13.050-13.050 13.050v0l-6.525-4.894-13.050 9.787 4.555 9.245c0.207 0.328 0.568 0.542 0.978 0.542 0 0 0 0 0 0h2.793c21.528 0 38.98-17.452 38.98-38.98z"></path>
<path d="M11.301 21.069l-4.301 3.096v6.469l6.375-4.59v12.58h6.5l9.75-7.313v-4.749l-8.984-5.75 8.984-6.469v-4.657l-9.75-7.313h-6.5v13.788l-6.375-4.080v6.233zM18.625 8l5.303 3.977-5.303 3.818zM18.625 25.757l5.211 3.335-5.211 3.908z"></path>
</svg>
