<!-- Generated by IcoMoon.io -->
<svg version="1.1" xmlns="http://www.w3.org/2000/svg" width="64" height="64" viewBox="0 0 64 64">
<title>phone-forward</title>
<path d="M42.98 58.306h2.793c0 0 0 0 0 0 0.41 0 0.771-0.214 0.975-0.537l0.003-0.005 4.555-9.245-13.050-9.787-6.525 4.894c0 0 0 0-0 0-7.207 0-13.050-5.843-13.050-13.050v0l4.894-6.525-9.787-13.050-9.245 4.555c-0.328 0.207-0.542 0.568-0.542 0.978 0 0 0 0 0 0v0 2.793c0 21.528 17.452 38.98 38.98 38.98z"></path>
<path d="M44.306 30l13-12-13-12h-3v5h-8v13h8v6h3z"></path>
</svg>
