<!-- Generated by IcoMoon.io -->
<svg version="1.1" xmlns="http://www.w3.org/2000/svg" width="64" height="64" viewBox="0 0 64 64">
<title>phone-in-talk</title>
<path d="M59.458 16.907l-9.245-4.555-9.787 13.050 4.894 6.525c0 0 0 0 0 0 0 7.207-5.843 13.050-13.050 13.050v0l-6.525-4.894-13.050 9.787 4.555 9.245c0.207 0.328 0.568 0.542 0.978 0.542h2.793c21.528 0 38.98-17.452 38.98-38.98v-2.793c0-0.41-0.214-0.771-0.537-0.975l-0.005-0.003z"></path>
<path d="M28.146 33.347c0.003-2.952 2.395-5.344 5.347-5.347h0v-6c-6.264 0.007-11.34 5.083-11.347 11.346v0.001z"></path>
<path d="M33.493 18.347v-6c-11.579 0-21 9.421-21 21h6c0.010-8.28 6.72-14.99 14.999-15h0.001z"></path>
<path d="M33.493 8.347v-6c-17.121 0-31 13.879-31 31v0h6c0-13.785 11.215-25 25-25z"></path>
</svg>
