<!-- Generated by IcoMoon.io -->
<svg version="1.1" xmlns="http://www.w3.org/2000/svg" width="64" height="64" viewBox="0 0 64 64">
<title>pin</title>
<path d="M58.311 18.938l-13.25-13.25c-1.042-1.035-2.478-1.675-4.063-1.675-3.184 0-5.766 2.581-5.766 5.766 0 1.585 0.64 3.021 1.676 4.064l0.562 0.562-2.105 2.371-13.502 5.932-6.186-3.343c-0.137-0.076-0.301-0.12-0.475-0.12-0.286 0-0.544 0.12-0.727 0.313l-0 0-5.194 5.501c-0.169 0.179-0.273 0.421-0.273 0.687 0 0.276 0.112 0.526 0.293 0.707l12.003 12.003-19.302 19.302v4.243h4.243l19.302-19.302 11.945 11.945c0.181 0.181 0.431 0.293 0.707 0.293 0.263 0 0.502-0.101 0.68-0.267l-0.001 0.001 5.553-5.141c0.197-0.183 0.321-0.444 0.321-0.734 0-0.175-0.045-0.34-0.124-0.483l0.003 0.005-3.401-6.243 5.802-12.466 2.566-3.078 0.562 0.562c1.043 1.043 2.485 1.689 4.077 1.689s3.034-0.645 4.077-1.689v-0c1.043-1.043 1.689-2.485 1.689-4.077s-0.645-3.034-1.689-4.077v0z"></path>
</svg>
