<!-- Generated by IcoMoon.io -->
<svg version="1.1" xmlns="http://www.w3.org/2000/svg" width="64" height="64" viewBox="0 0 64 64">
<title>pizza</title>
<path d="M58.883 12.743c-9.279-6.188-18.061-9.251-26.849-9.364-0.18-0.002-0.358-0.004-0.538-0.004-8.711 0-17.308 2.736-26.261 8.352-1.313 0.826-2.173 2.267-2.173 3.909 0 0.867 0.24 1.678 0.656 2.37l-0.012-0.021 24.323 41.44c0.809 1.375 2.281 2.284 3.966 2.284 0 0 0 0 0.001 0h0.023c0.007 0 0.014 0 0.022 0 1.669 0 3.13-0.892 3.931-2.225l0.012-0.021 24.296-40.493c0.416-0.68 0.662-1.502 0.662-2.382 0-1.597-0.811-3.006-2.043-3.835l-0.017-0.010zM21.119 30.137c-0.033-0.181-0.052-0.388-0.052-0.601 0-1.914 1.552-3.466 3.466-3.466s3.466 1.552 3.466 3.466c0 1.702-1.227 3.118-2.845 3.411l-0.021 0.003c-0.181 0.033-0.388 0.052-0.601 0.052-1.702 0-3.118-1.227-3.411-2.845l-0.003-0.021zM32.56 47.732l-6-5 2.881-3.457 6 5zM31.21 23.897l8-3 1.58 4.213-8 3zM39.068 38.884c-0.181 0.033-0.388 0.052-0.6 0.052-1.914 0-3.466-1.552-3.466-3.466s1.552-3.466 3.466-3.466c1.702 0 3.118 1.227 3.411 2.845l0.003 0.021c0.033 0.181 0.052 0.388 0.052 0.6 0 1.702-1.227 3.118-2.845 3.411l-0.021 0.003zM51.752 21.872c-6.29-4.194-12.24-6.187-18.727-6.271-0.114-0.001-0.228-0.002-0.342-0.002-7.786 0-14.88 3.417-19.487 6.307l-2.392-3.812c5.11-3.206 13.025-6.995 21.88-6.995 0.133 0 0.266 0.001 0.399 0.003 7.394 0.095 14.12 2.328 21.165 7.027z"></path>
</svg>
