<!-- Generated by IcoMoon.io -->
<svg version="1.1" xmlns="http://www.w3.org/2000/svg" width="64" height="64" viewBox="0 0 64 64">
<title>pool</title>
<path d="M58.983 44.281c-1.223-0.571-2.746-1.281-5.555-1.281s-4.331 0.711-5.555 1.281c-0.927 0.433-1.54 0.719-3.017 0.719s-2.090-0.286-3.017-0.718c-1.223-0.571-2.746-1.282-5.554-1.282s-4.331 0.711-5.554 1.282c-0.927 0.433-1.54 0.718-3.017 0.718s-2.090-0.286-3.017-0.718c-1.223-0.571-2.746-1.282-5.554-1.282s-4.331 0.711-5.554 1.282c-0.927 0.433-1.54 0.718-3.017 0.718s-2.090-0.286-3.017-0.718c-1.223-0.571-2.746-1.282-5.554-1.282v6c1.477 0 2.090 0.286 3.017 0.718 1.223 0.571 2.746 1.282 5.554 1.282s4.331-0.711 5.554-1.282c0.927-0.433 1.54-0.718 3.017-0.718s2.090 0.286 3.017 0.718c1.223 0.571 2.746 1.282 5.554 1.282s4.331-0.711 5.554-1.282c0.927-0.433 1.54-0.718 3.017-0.718s2.090 0.286 3.017 0.718c1.223 0.571 2.746 1.282 5.554 1.282s4.331-0.711 5.555-1.281c0.927-0.433 1.54-0.719 3.017-0.719s2.090 0.286 3.017 0.719c1.223 0.571 2.746 1.281 5.555 1.281v-6c-1.477 0-2.090-0.286-3.017-0.719z"></path>
<path d="M53.428 54c-2.809 0-4.331 0.711-5.555 1.281-0.927 0.433-1.54 0.719-3.017 0.719s-2.090-0.286-3.017-0.718c-1.223-0.571-2.746-1.282-5.554-1.282s-4.331 0.711-5.554 1.282c-0.927 0.433-1.54 0.718-3.017 0.718s-2.090-0.286-3.017-0.718c-1.223-0.571-2.746-1.282-5.554-1.282s-4.331 0.711-5.554 1.282c-0.927 0.433-1.54 0.718-3.017 0.718s-2.090-0.286-3.017-0.718c-1.223-0.571-2.746-1.282-5.554-1.282v6c1.477 0 2.090 0.286 3.017 0.718 1.223 0.571 2.746 1.282 5.554 1.282s4.331-0.711 5.554-1.282c0.927-0.433 1.54-0.718 3.017-0.718s2.090 0.286 3.017 0.718c1.223 0.571 2.746 1.282 5.554 1.282s4.331-0.711 5.554-1.282c0.927-0.433 1.54-0.718 3.017-0.718s2.090 0.286 3.017 0.718c1.223 0.571 2.746 1.282 5.554 1.282s4.331-0.711 5.555-1.281c0.927-0.433 1.54-0.719 3.017-0.719s2.090 0.286 3.017 0.719c1.223 0.571 2.746 1.281 5.555 1.281v-6c-1.477 0-2.090-0.286-3.017-0.719-1.223-0.571-2.746-1.281-5.555-1.281z"></path>
<path d="M32 35h16v5h6v-25.515c0-0.002 0-0.004 0-0.006 0-1.057 0.329-2.037 0.891-2.842l-0.011 0.016 6.636-9.652h-7.281l-4.299 6.253c-1.211 1.737-1.935 3.893-1.935 6.217 0 0.005 0 0.010 0 0.015v-0.001 2.515h-16v-2.515c0-0.002 0-0.004 0-0.006 0-1.057 0.329-2.037 0.891-2.842l-0.011 0.016 6.636-9.652h-7.281l-4.299 6.253c-1.211 1.737-1.936 3.893-1.936 6.217 0 0.005 0 0.010 0 0.015v-0.001 25.515h6zM32 23h16v6h-16z"></path>
</svg>
