<!-- Generated by IcoMoon.io -->
<svg version="1.1" xmlns="http://www.w3.org/2000/svg" width="64" height="64" viewBox="0 0 64 64">
<title>portable-wifi</title>
<path d="M40 32c0 4.418-3.582 8-8 8s-8-3.582-8-8c0-4.418 3.582-8 8-8s8 3.582 8 8z"></path>
<path d="M53.92 10.080c-5.61-5.61-13.36-9.080-21.92-9.080-17.121 0-31 13.879-31 31 0 8.56 3.47 16.31 9.080 21.92v0l4.251-4.251c-4.529-4.513-7.331-10.756-7.331-17.654 0-0.005 0-0.011 0-0.017v0.001c0-13.785 11.215-25 25-25s25 11.215 25 25c0 0.005 0 0.010 0 0.016 0 6.898-2.802 13.141-7.33 17.653l-0.001 0.001 4.251 4.251c5.61-5.61 9.080-13.36 9.080-21.92s-3.47-16.31-9.080-21.92v0z"></path>
<path d="M32 12c-11.028 0-20 8.972-20 20 0 0.004 0 0.008 0 0.013 0 5.518 2.242 10.512 5.864 14.122l0.001 0.001 4.136-4.136h0.213c-2.601-2.544-4.213-6.089-4.213-10.011 0-7.732 6.268-14 14-14s14 6.268 14 14c0 3.922-1.612 7.467-4.21 10.008l-0.002 0.002h0.213l4.136 4.136c3.623-3.611 5.864-8.605 5.864-14.123 0-0.004 0-0.009 0-0.013v0.001c0-11.028-8.972-20-20-20z"></path>
</svg>
