<!-- Generated by IcoMoon.io -->
<svg version="1.1" xmlns="http://www.w3.org/2000/svg" width="64" height="64" viewBox="0 0 64 64">
<title>portable-wifi-off</title>
<path d="M55.72 51.959l-4.27-4.272-0.007 0.009-3.559-3.559 0.008-0.010-4.293-4.295c-0.003 0.004-0.006 0.008-0.008 0.012l-4.378-4.378c0.002-0.005 0.005-0.011 0.007-0.016l-10.666-10.671c-0.006 0.003-0.013 0.006-0.019 0.009l-4.378-4.378c0.006-0.004 0.012-0.008 0.018-0.012l-4.293-4.295c-0.006 0.005-0.012 0.009-0.018 0.014l-3.559-3.559 0.019-0.015-4.27-4.272c-0.007 0.006-0.013 0.011-0.020 0.017l-6.286-6.286h-3.747v3.678l6.318 6.318c-4.551 5.361-7.318 12.359-7.318 20.004 0 8.56 3.47 16.311 9.080 21.921v0l4.251-4.251c-4.529-4.518-7.331-10.765-7.331-17.667 0-5.987 2.108-11.482 5.623-15.782l-0.035 0.045 3.558 3.558c-2.586 3.332-4.146 7.573-4.146 12.179 0 5.521 2.242 10.519 5.864 14.133l0 0 4.136-4.135h0.213c-2.6-2.54-4.213-6.081-4.213-9.999 0-2.946 0.912-5.679 2.468-7.932l-0.030 0.047 4.373 4.373c-0.512 1.025-0.811 2.232-0.811 3.51 0 4.419 3.582 8.001 8.001 8.001 1.278 0 2.485-0.299 3.556-0.832l-0.047 0.021 22.811 22.811h3.678v-3.747l-6.286-6.286z"></path>
<path d="M32 7c13.785 0 25 11.215 25 25 0 0.009 0 0.020 0 0.030 0 4.341-1.113 8.421-3.069 11.972l0.065-0.128 4.4 4.4c2.89-4.625 4.604-10.242 4.604-16.26 0-17.129-13.886-31.014-31.014-31.014-6.012 0-11.625 1.711-16.377 4.672l0.131-0.076 4.398 4.402c3.42-1.887 7.496-2.998 11.832-2.998 0.011 0 0.021 0 0.032 0h-0.002z"></path>
<path d="M50.265 40.144c1.096-2.388 1.735-5.181 1.735-8.123 0-0.007 0-0.015 0-0.022v0.001c0-11.028-8.972-20-20-20-0.006 0-0.014 0-0.021 0-2.938 0-5.727 0.637-8.237 1.781l0.125-0.051 4.693 4.698c1.031-0.272 2.215-0.428 3.436-0.428 7.734 0 14.004 6.27 14.004 14.004 0 1.224-0.157 2.411-0.452 3.542l0.022-0.097z"></path>
</svg>
