<!-- Generated by IcoMoon.io -->
<svg version="1.1" xmlns="http://www.w3.org/2000/svg" width="64" height="64" viewBox="0 0 64 64">
<title>power-settings</title>
<path d="M32 47c11.028 0 20-8.972 20-20 0-8.377-5.178-15.566-12.5-18.539v6.723c3.932 2.523 6.5 6.872 6.5 11.822 0 7.732-6.268 14-14 14s-14-6.268-14-14c0-4.949 2.568-9.298 6.444-11.788l0.056-0.033v-6.723c-7.322 2.973-12.5 10.162-12.5 18.539 0 11.028 8.972 20 20 20z"></path>
<path d="M29 2h6v23h-6v-23z"></path>
<path d="M21 58c0 2.209-1.791 4-4 4s-4-1.791-4-4c0-2.209 1.791-4 4-4s4 1.791 4 4z"></path>
<path d="M36 58c0 2.209-1.791 4-4 4s-4-1.791-4-4c0-2.209 1.791-4 4-4s4 1.791 4 4z"></path>
<path d="M51 58c0 2.209-1.791 4-4 4s-4-1.791-4-4c0-2.209 1.791-4 4-4s4 1.791 4 4z"></path>
</svg>
