<!-- Generated by IcoMoon.io -->
<svg version="1.1" xmlns="http://www.w3.org/2000/svg" width="64" height="64" viewBox="0 0 64 64">
<title>power-standby</title>
<path d="M51.092 15.908c-2.891-2.903-6.439-5.148-10.403-6.494l-0.189-0.056v8.652c6.271 3.193 10.493 9.597 10.5 16.988v0.001c0 10.477-8.523 19-19 19s-19-8.523-19-19c0.007-7.392 4.229-13.797 10.392-16.939l0.108-0.050v-8.652c-10.854 3.67-18.529 13.762-18.529 25.647 0 14.92 12.095 27.015 27.015 27.015s27.015-12.095 27.015-27.015c0-7.458-3.022-14.21-7.908-19.098l0 0z"></path>
<path d="M36 16.425v-14.425h-8v34h8v-19.575z"></path>
</svg>
