<!-- Generated by IcoMoon.io -->
<svg version="1.1" xmlns="http://www.w3.org/2000/svg" width="64" height="64" viewBox="0 0 64 64">
<title>puzzle-piece</title>
<path d="M53.81 29.616c-0.645-0.174-1.385-0.274-2.148-0.274-0.297 0-0.591 0.015-0.881 0.045l0.036-0.003-4.817 0.485v-10.82c0 0 0 0 0 0 0-0.552-0.448-1-1-1-0.017 0-0.033 0-0.050 0.001l0.002-0-12.543 0.597 0.551-5.475c0.027-0.253 0.042-0.547 0.042-0.844 0-0.764-0.1-1.504-0.287-2.208l0.014 0.060c-0.969-3.614-4.206-6.19-8.174-6.19s-7.205 2.576-8.174 6.19c-0.174 0.645-0.274 1.385-0.274 2.148 0 0.297 0.015 0.591 0.045 0.881l-0.003-0.036 0.547 5.432-11.648-0.555c-0.014-0.001-0.031-0.001-0.048-0.001-0.552 0-1 0.448-1 1 0 0 0 0 0 0v0 39.903c0 0.552 0.448 1 1 1 0.017 0 0.033-0 0.050-0.001l-0.002 0 11.531-0.549-0.431-4.278c-0.027-0.253-0.042-0.547-0.042-0.844 0-0.764 0.1-1.504 0.287-2.208l-0.014 0.060c0.969-3.614 4.206-6.19 8.174-6.19s7.205 2.576 8.174 6.19c0.174 0.645 0.274 1.385 0.274 2.148 0 0.297-0.015 0.591-0.045 0.881l0.003-0.036-0.426 4.235 12.418 0.591c0.014 0.001 0.031 0.001 0.048 0.001 0.552 0 1-0.448 1-1v0-13.241l4.818 0.485c0.253 0.027 0.547 0.042 0.844 0.042 0.763 0 1.504-0.1 2.208-0.287l-0.060 0.014c3.614-0.969 6.19-4.206 6.19-8.174s-2.576-7.205-6.19-8.174z"></path>
</svg>
