<!-- Generated by IcoMoon.io -->
<svg version="1.1" xmlns="http://www.w3.org/2000/svg" width="64" height="64" viewBox="0 0 64 64">
<title>puzzle</title>
<path d="M51.521 25.832l3.842-3.139c0.731-0.602 1.344-1.314 1.823-2.116l0.020-0.037c1.767-3.061 1.325-6.942-1.325-9.592s-6.532-3.092-9.592-1.325c-0.839 0.499-1.551 1.113-2.142 1.83l-0.011 0.014-3.139 3.842-7.743-8.603c-0.181-0.181-0.431-0.293-0.707-0.293s-0.526 0.112-0.707 0.293l-8.201 8.201 4.146 3.388c0.731 0.602 1.345 1.314 1.823 2.116l0.020 0.037c1.767 3.061 1.325 6.942-1.325 9.592s-6.532 3.092-9.592 1.325c-0.839-0.499-1.551-1.113-2.142-1.83l-0.011-0.014-3.388-4.146-8.908 8.908c-0.181 0.181-0.293 0.431-0.293 0.707s0.112 0.526 0.293 0.707l21.92 21.92c1.448 1.448 3.448 2.343 5.657 2.343s4.209-0.895 5.657-2.343l22.627-22.627c0.181-0.181 0.293-0.431 0.293-0.707s-0.112-0.526-0.293-0.707v0z"></path>
</svg>
