<!-- Generated by IcoMoon.io -->
<svg version="1.1" xmlns="http://www.w3.org/2000/svg" width="64" height="64" viewBox="0 0 64 64">
<title>qr-code</title>
<path d="M8 8.058h11v-6h-17v16.942h6v-10.942z"></path>
<path d="M8 45h-6v17.058h17v-6h-11v-11.058z"></path>
<path d="M56.058 45.029v11h-11.058v6h17.058v-17h-6z"></path>
<path d="M56 19h6v-16.942h-17v6h11v10.942z"></path>
<path d="M13 45h6v6h-6v-6z"></path>
<path d="M13 13h6v6h-6v-6z"></path>
<path d="M45 13h6v6h-6v-6z"></path>
<path d="M51 51v-6h-21v-11h-17v6h11v11h27z"></path>
<path d="M34 30h11v4.5h-10v6h16v-16.5h-11v-11h-16v6h10v11z"></path>
<path d="M13 24h16v6h-16v-6z"></path>
</svg>
