<!-- Generated by IcoMoon.io -->
<svg version="1.1" xmlns="http://www.w3.org/2000/svg" width="64" height="64" viewBox="0 0 64 64">
<title>queue-music</title>
<path d="M43 3h-38c-1.105 0-2 0.895-2 2v0 38h5v-35h35z"></path>
<path d="M52 13.905v-1.905h-38c-1.105 0-2 0.895-2 2v0 38h5v-35h35z"></path>
<path d="M60.995 22.909c-0.049-1.064-0.924-1.909-1.995-1.909h-36c-1.105 0-2 0.895-2 2v0 36c0.001 1.104 0.896 1.999 2 2h36c1.105 0 2-0.895 2-2v0-36c0-0.031-0.003-0.061-0.005-0.091zM44.594 55c-3.8 0-6.881-2.852-6.881-6.371 0-0.224 0.037-13.913 0.037-13.913l-6.75 1.284v-5.916l11.28-2.145-0.030 14.699c0.696-0.241 1.499-0.38 2.333-0.38 0.004 0 0.007 0 0.011 0h-0.001c3.8 0 6.881 2.852 6.881 6.371s-3.081 6.371-6.881 6.371z"></path>
</svg>
