<!-- Generated by IcoMoon.io -->
<svg version="1.1" xmlns="http://www.w3.org/2000/svg" width="64" height="64" viewBox="0 0 64 64">
<title>queue-add</title>
<path d="M43 3h-38c-1.105 0-2 0.895-2 2v0 38h5v-35h35z"></path>
<path d="M52 13.905v-1.905h-38c-1.105 0-2 0.895-2 2v0 38h5v-35h35z"></path>
<path d="M60.995 22.909c-0.049-1.064-0.924-1.909-1.995-1.909h-36c-1.105 0-2 0.895-2 2v0 36c0.001 1.104 0.896 1.999 2 2h36c1.105 0 2-0.895 2-2v0-36c0-0.031-0.003-0.061-0.005-0.091zM53 44.5h-8.5v8.5h-6v-8.5h-8.5v-6h8.5v-8.5h6v8.5h8.5z"></path>
</svg>
