<!-- Generated by IcoMoon.io -->
<svg version="1.1" xmlns="http://www.w3.org/2000/svg" width="64" height="64" viewBox="0 0 64 64">
<title>railway</title>
<path d="M43.579 15h4v-7.654c-0.003-2.951-2.395-5.343-5.346-5.346h-21.308c-2.951 0.003-5.343 2.395-5.346 5.346v7.654h28z"></path>
<path d="M56.917 56.75l-2.864-4.5h3.947v-4.5h-6.81l-2.864-4.5h3.674v-4.5h-6.538l-3.023-4.75h5.14v-15h-32v15h5.981l-3.023 4.75h-6.538v4.5h3.674l-2.864 4.5h-6.81v4.5h3.947l-2.864 4.5h-5.083v4.5h60v-4.5zM36.75 23.75h5.25v5.25h-5.25zM21 23.75h5.25v5.25h-5.25zM37.106 34l3.023 4.75h-16.257l3.023-4.75zM21.008 43.25h21.984l2.864 4.5h-27.712zM12.417 56.75l2.864-4.5h33.439l2.864 4.5z"></path>
</svg>
