<!-- Generated by IcoMoon.io -->
<svg version="1.1" xmlns="http://www.w3.org/2000/svg" width="64" height="64" viewBox="0 0 64 64">
<title>rain</title>
<path d="M47.97 19.030c-0.526-8.409-7.475-15.029-15.97-15.030h-0c-8.506 0-15.462 6.638-15.97 15.016l-0.002 0.045c-6.536 0.452-12.028 5.515-12.028 12.141v0c0.006 2.126 0.554 4.123 1.513 5.861l-0.032-0.063h53.222c0.818-1.688 1.297-3.672 1.297-5.767 0-0.011 0-0.021-0-0.032v0.002c0-6.898-5.156-12.101-12.030-12.173z"></path>
<path d="M15.799 62h5.534l6.667-20h-5.534l-6.667 20z"></path>
<path d="M40 62h5.534l6.667-20h-5.534l-6.667 20z"></path>
<path d="M34.466 42l-4.667 14h5.534l4.667-14h-5.534z"></path>
<path d="M10.366 42l-4.667 14h5.534l4.667-14h-5.534z"></path>
</svg>
