<!-- Generated by IcoMoon.io -->
<svg version="1.1" xmlns="http://www.w3.org/2000/svg" width="64" height="64" viewBox="0 0 64 64">
<title>recent-actors</title>
<path d="M61 3.833h-36c-0.552 0-1 0.448-1 1v0 54c0 0.552 0.448 1 1 1v0h36c0.552 0 1-0.448 1-1v0-54c0-0.552-0.448-1-1-1v0zM54 46h-21.75v-4.484c0 0 0 0 0 0 0-1.448 0.743-2.723 1.869-3.464l0.016-0.010 4.792-3.115-2.017-5.499v-6.214c0-3.432 2.782-6.214 6.214-6.214s6.214 2.782 6.214 6.214v0 6.214l-2.207 5.375 4.983 3.239c1.142 0.75 1.885 2.025 1.885 3.474 0 0 0 0 0 0v0z"></path>
<path d="M13 10v44c0 0.552 0.448 1 1 1v0h6v-46h-6c-0.552 0-1 0.448-1 1v0z"></path>
<path d="M2 16v32c0 1.105 0.895 2 2 2v0h5v-36h-5c-1.105 0-2 0.895-2 2v0z"></path>
</svg>
