<!-- Generated by IcoMoon.io -->
<svg version="1.1" xmlns="http://www.w3.org/2000/svg" width="64" height="64" viewBox="0 0 64 64">
<title>recycle</title>
<path d="M35.346 10.238l5.347 9.079-5.733 3.828 0.4 0.599 13.855 2.761 2.787-13.983-0.348-0.522-5.961 3.98-5.174-8.787c-1.594-2.671-4.469-4.433-7.755-4.433s-6.162 1.761-7.732 4.392l-0.023 0.041-3.009 5.109 1.951 8.511 6.227-10.575c0.531-0.89 1.489-1.478 2.585-1.478s2.054 0.587 2.577 1.464l0.008 0.014z"></path>
<path d="M10.696 46.295c-0.254-0.426-0.404-0.94-0.404-1.489 0-0.562 0.158-1.088 0.431-1.535l-0.007 0.013 5.313-9.023 6.036 3.738 0.379-0.612-3.233-13.752-13.88 3.263-0.33 0.533 5.926 3.67-5.381 9.138c-0.782 1.307-1.245 2.883-1.245 4.567 0 4.971 4.029 9 9 9 0 0 0 0 0 0h6.167l6-6h-12.168c-0.009 0-0.021 0-0.032 0-1.1 0-2.059-0.603-2.565-1.497l-0.008-0.015z"></path>
<path d="M59.976 40.24l-3.988-6.772-7.715-1.277 6.533 11.094c0.261 0.436 0.415 0.961 0.415 1.522 0 1.657-1.343 3-3 3h-10.55l-0.082-6.884-0.72 0.009-9.869 10.108 10.202 9.961 0.627-0.008-0.086-7.186h10.478c4.971-0 9-4.029 9-9 0-1.684-0.463-3.26-1.267-4.608l0.023 0.041z"></path>
</svg>
