<!-- Generated by IcoMoon.io -->
<svg version="1.1" xmlns="http://www.w3.org/2000/svg" width="64" height="64" viewBox="0 0 64 64">
<title>reload</title>
<path d="M60 29v-23.058l-8.191 8.737c-4.874-5.621-12.026-9.156-20.003-9.156-0.008 0-0.017 0-0.025 0h0.001c-14.599 0-26.477 11.878-26.477 26.477s11.877 26.477 26.477 26.477c0.018 0 0.040 0 0.061 0 7.197 0 13.72-2.888 18.473-7.568l-0.003 0.003-4.199-4.285c-3.673 3.617-8.717 5.851-14.283 5.851-0.017 0-0.033 0-0.050-0h0.003c-11.291 0-20.477-9.186-20.477-20.477s9.186-20.477 20.477-20.477c0.005 0 0.011 0 0.016 0 6.392 0 12.099 2.934 15.849 7.528l0.029 0.037-9.293 9.912z"></path>
</svg>
