<!-- Generated by IcoMoon.io -->
<svg version="1.1" xmlns="http://www.w3.org/2000/svg" width="64" height="64" viewBox="0 0 64 64">
<title>remove</title>
<path d="M57 10h-31.809c0 0 0 0 0 0-0.857 0-1.63 0.359-2.176 0.935l-0.001 0.001-19.013 20.064v2l19.013 20.064c0.548 0.577 1.321 0.936 2.178 0.936 0 0 0 0 0 0h31.809c1.657 0 3-1.343 3-3v0-38c0-1.657-1.343-3-3-3v0zM52.591 42.409l-3.182 3.182-10.409-10.409-10.409 10.409-3.182-3.182 10.409-10.409-10.409-10.409 3.182-3.182 10.409 10.409 10.409-10.409 3.182 3.182-10.409 10.409z"></path>
</svg>
