<!-- Generated by IcoMoon.io -->
<svg version="1.1" xmlns="http://www.w3.org/2000/svg" width="64" height="64" viewBox="0 0 64 64">
<title>remote-control</title>
<path d="M40 24h-16c-1.105 0-2 0.895-2 2v0 34c0 1.105 0.895 2 2 2v0h16c1.105 0 2-0.895 2-2v0-34c0-1.105-0.895-2-2-2v0zM32 37c-1.657 0-3-1.343-3-3s1.343-3 3-3c1.657 0 3 1.343 3 3v0c0 1.657-1.343 3-3 3v0z"></path>
<path d="M19.278 17.278l4.241 4.241c2.169-2.174 5.168-3.519 8.481-3.519s6.312 1.345 8.481 3.518l0 0 4.241-4.241c-3.254-3.261-7.752-5.278-12.722-5.278s-9.468 2.017-12.722 5.278l-0 0z"></path>
<path d="M32 2c-0.023-0-0.049-0-0.076-0-7.708 0-14.684 3.135-19.722 8.2l-0.001 0.001 4.25 4.25c3.977-3.985 9.475-6.451 15.549-6.451s11.572 2.466 15.549 6.451l0 0 4.25-4.25c-5.039-5.066-12.015-8.201-19.723-8.201-0.027 0-0.053 0-0.080 0h0.004z"></path>
</svg>
