<!-- Generated by IcoMoon.io -->
<svg version="1.1" xmlns="http://www.w3.org/2000/svg" width="64" height="64" viewBox="0 0 64 64">
<title>restaurant-menu</title>
<path d="M12.503 52.154l3.732 3.693 14.269-14.421-3.627-3.799-14.375 14.528z"></path>
<path d="M44.768 33.825q0.459 0 0.922-0.037c3.343-0.265 6.507-1.919 9.15-4.783 2.585-2.801 4.394-6.495 4.964-10.136 0.654-4.182-0.355-7.748-2.841-10.043s-6.122-3.014-10.238-2.027c-3.583 0.859-7.121 2.958-9.706 5.759-2.643 2.864-4.038 6.151-4.035 9.504 0.001 2.643 0.893 5.078 2.394 7.019l-0.020-0.027-1.535 1.551-25.746-26.187-1.825 2.489c-2.172 2.934-3.476 6.624-3.476 10.619 0 4.958 2.010 9.448 5.259 12.697l10.007 10.007 9.017-9.017 24.438 24.856 3.744-3.681-17.736-18.039 1.862-1.882c1.563 0.853 3.424 1.355 5.402 1.356h0z"></path>
</svg>
