<!-- Generated by IcoMoon.io -->
<svg version="1.1" xmlns="http://www.w3.org/2000/svg" width="64" height="64" viewBox="0 0 64 64">
<title>restore</title>
<path d="M52.536 11.565c-5.23-5.231-12.455-8.467-20.437-8.467-9.295 0-17.565 4.389-22.851 11.207l-0.049 0.066-7.199-7.199v18.828h18.828l-7.339-7.339c4.22-5.801 10.977-9.535 18.607-9.56h0.004c12.626 0 22.899 10.272 22.899 22.899s-10.273 22.899-22.899 22.899c-0.016 0-0.034 0-0.053 0-6.224 0-11.865-2.498-15.976-6.545l0.003 0.003-4.199 4.285c5.208 5.105 12.348 8.256 20.224 8.256 15.96 0 28.899-12.938 28.899-28.899 0-7.98-3.234-15.204-8.463-20.434v0z"></path>
<path d="M41 32c0 4.971-4.029 9-9 9s-9-4.029-9-9c0-4.971 4.029-9 9-9s9 4.029 9 9z"></path>
</svg>
