<!-- Generated by IcoMoon.io -->
<svg version="1.1" xmlns="http://www.w3.org/2000/svg" width="64" height="64" viewBox="0 0 64 64">
<title>rounded-corner</title>
<path d="M36.5 4h-31.5v6h31.5c9.65 0 17.5 7.85 17.5 17.5v31.5h6v-31.5c0-12.958-10.542-23.5-23.5-23.5z"></path>
<path d="M29.428 53h6.143v6h-6.143v-6z"></path>
<path d="M17.143 53h6.143v6h-6.143v-6z"></path>
<path d="M41.714 53h6.143v6h-6.143v-6z"></path>
<path d="M5 53h6v6h-6v-6z"></path>
<path d="M5 28.429h6v6.143h-6v-6.143z"></path>
<path d="M5 16.143h6v6.143h-6v-6.143z"></path>
<path d="M5 40.714h6v6.143h-6v-6.143z"></path>
</svg>
