<!-- Generated by IcoMoon.io -->
<svg version="1.1" xmlns="http://www.w3.org/2000/svg" width="64" height="64" viewBox="0 0 64 64">
<title>rowing</title>
<path d="M48 8c0 3.314-2.686 6-6 6s-6-2.686-6-6c0-3.314 2.686-6 6-6s6 2.686 6 6z"></path>
<path d="M48 46l-5.434-1.208-15.236-15.793h6.184l3.986-5.398v9.348l9 8.255v-23.791h-11.889l-4.125 5.586h-8.944l-4.654-4.823-3.777 3.645 14.389 14.915-15.602 13.263h-7.897v6h32.346l-1.333-6h-13.852l10.514-8.936 7.081 7.341 1.244 5.595 9 9 8-8-9-9z"></path>
</svg>
