<!-- Generated by IcoMoon.io -->
<svg version="1.1" xmlns="http://www.w3.org/2000/svg" width="64" height="64" viewBox="0 0 64 64">
<title>rss-square</title>
<path d="M58 2h-52c-2.209 0-4 1.791-4 4v0 52c0 2.209 1.791 4 4 4v0h52c2.209 0 4-1.791 4-4v0-52c0-2.209-1.791-4-4-4v0zM16 52.5c-2.209 0-4-1.791-4-4s1.791-4 4-4c2.209 0 4 1.791 4 4v0c0 2.209-1.791 4-4 4v0zM26.875 50c-0.008-6.831-5.544-12.367-12.374-12.375h-0.001v-5.25c9.718 0 17.625 7.907 17.625 17.625zM36.875 50c0-12.338-10.037-22.375-22.375-22.375v-5.25c15.257 0 27.625 12.368 27.625 27.625v0zM46.875 50c0-17.852-14.523-32.375-32.375-32.375v-5.25c20.78 0 37.625 16.845 37.625 37.625v0z"></path>
</svg>
