<!-- Generated by IcoMoon.io -->
<svg version="1.1" xmlns="http://www.w3.org/2000/svg" width="64" height="64" viewBox="0 0 64 64">
<title>rss</title>
<path d="M8 31v6c10.477 0 19 8.523 19 19h6c0-13.785-11.215-25-25-25z"></path>
<path d="M35.927 28.074c-7.13-7.15-16.991-11.574-27.886-11.574-0.014 0-0.029 0-0.043 0h0.002v6c18.472 0 33.5 15.028 33.5 33.5h6c0-0.019 0-0.042 0-0.064 0-5.53-1.143-10.793-3.206-15.566l0.098 0.254c-2.095-4.879-4.951-9.044-8.464-12.55l-0.001-0.001z"></path>
<path d="M57.755 34.98c-2.861-6.673-6.765-12.369-11.57-17.163l-0.001-0.001c-9.748-9.771-23.227-15.816-38.118-15.816-0.023 0-0.046 0-0.070 0h0.004v6c26.467 0 48 21.533 48 48h6c0-0.030 0-0.066 0-0.102 0-7.555-1.561-14.746-4.379-21.267l0.134 0.348z"></path>
<path d="M17 53c0 3.314-2.686 6-6 6s-6-2.686-6-6c0-3.314 2.686-6 6-6s6 2.686 6 6z"></path>
</svg>
