<!-- Generated by IcoMoon.io -->
<svg version="1.1" xmlns="http://www.w3.org/2000/svg" width="64" height="64" viewBox="0 0 64 64">
<title>ruble-circle</title>
<path d="M36.75 19h-6.447v11h6.447c3.038 0 5.5-2.462 5.5-5.5s-2.462-5.5-5.5-5.5v0z"></path>
<path d="M31.75 2c-16.569 0-30 13.431-30 30s13.431 30 30 30 30-13.431 30-30-13.431-30-30-30zM38.25 45h-7.947v6h-6v-6h-6.053v-5h20zM48.248 24.712c-0.104 5.736-4.881 10.288-10.618 10.288h-19.38v-5h6.053v-11h-6.053v-6h18.353c6.333 0 11.588 5.059 11.646 11.392q0.002 0.161-0.001 0.32z"></path>
</svg>
