<!-- Generated by IcoMoon.io -->
<svg version="1.1" xmlns="http://www.w3.org/2000/svg" width="64" height="64" viewBox="0 0 64 64">
<title>ruble</title>
<path d="M14 49.938h6.993v8h8v-8h10.007v-7h-25v7z"></path>
<path d="M38.352 8h-24.352v8h6.993v14.45h-6.993v7.488h25.156c6.221 0 11.858-3.835 13.968-9.687 0.555-1.492 0.876-3.215 0.876-5.014 0-0.004 0-0.008 0-0.012v0.001c0-8.395-7.019-15.225-15.648-15.225zM38.352 30.45h-9.36v-14.45h9.36c4.217 0 7.648 3.241 7.648 7.225s-3.431 7.225-7.648 7.225z"></path>
</svg>
