<!-- Generated by IcoMoon.io -->
<svg version="1.1" xmlns="http://www.w3.org/2000/svg" width="64" height="64" viewBox="0 0 64 64">
<title>ruble-slash</title>
<path d="M14 49.938h6.993v8h8v-8h10.007v-7h-25v7z"></path>
<path d="M28.993 18.872v-2.872h9.36c4.217 0 7.648 3.241 7.648 7.225 0 3.339-2.411 6.155-5.674 6.98l6.073 6.073c4.55-2.666 7.601-7.519 7.601-13.053 0-8.395-7.019-15.225-15.648-15.225h-20.231l8 8z"></path>
<path d="M5.747 2h-3.747v3.678l18.993 18.993v5.779h-6.993v7.488h20.26l24.063 24.063h3.678v-3.747l-56.253-56.253z"></path>
</svg>
