<!-- Generated by IcoMoon.io -->
<svg version="1.1" xmlns="http://www.w3.org/2000/svg" width="64" height="64" viewBox="0 0 64 64">
<title>ruble-circle-slash</title>
<path d="M54.867 51.121c0.002-0.002 0.003-0.004 0.005-0.006l-49.125-49.115h-3.747v3.678l6.893 6.893c-4.441 5.183-7.143 11.969-7.143 19.387 0 0.015 0 0.030 0 0.045v-0.002c0 16.569 13.431 30 30 30 0.013 0 0.027 0 0.042 0 7.417 0 14.203-2.703 19.427-7.177l-0.041 0.034 7.143 7.143h3.678v-3.747zM18.25 30h6.053v-2.020l7.020 7.020h-13.072zM38.25 45h-7.947v6h-6v-6h-6.053v-5h18.072l1.928 1.928z"></path>
<path d="M36.75 13c0.001 0 0.003 0 0.005 0 6.349 0 11.495 5.147 11.495 11.495 0 3.707-1.755 7.005-4.48 9.107l-0.027 0.020 13.764 13.764c2.665-4.38 4.243-9.676 4.243-15.341 0-0.016 0-0.032-0-0.047v0.002c0-16.569-13.431-30-30-30-0.013 0-0.029-0-0.045-0-5.665 0-10.961 1.578-15.474 4.317l0.133-0.075 6.757 6.757z"></path>
<path d="M30.303 19v1.181l9.122 9.122c1.698-0.958 2.825-2.75 2.825-4.805 0-3.037-2.462-5.498-5.498-5.498-0.001 0-0.001 0-0.002 0h0z"></path>
</svg>
