<!-- Generated by IcoMoon.io -->
<svg version="1.1" xmlns="http://www.w3.org/2000/svg" width="64" height="64" viewBox="0 0 64 64">
<title>running</title>
<path d="M46.468 26l-4.386-5.64-11.034-3.678-11.335 3.023c-2.155 0.588-3.712 2.528-3.713 4.831v0 10.464h6v-9.695l8.276-2.207-1.543 4.729-6.55 18.34-11.175-3.991-2.018 5.65 12.116 4.328c0.501 0.185 1.080 0.292 1.683 0.292 2.159 0 3.998-1.368 4.698-3.285l0.011-0.035 3.786-10.599 7.714 7.716v15.758h6v-16.171c0-0.004 0-0.009 0-0.014 0-1.377-0.56-2.622-1.465-3.522l-7.581-7.581 2.864-8.774 3.214 4.133c0.917 1.179 2.337 1.93 3.931 1.93 0.006 0 0.011 0 0.017 0h10.020v-6z"></path>
<path d="M44.739 10c0 3.314-2.686 6-6 6s-6-2.686-6-6c0-3.314 2.686-6 6-6s6 2.686 6 6z"></path>
</svg>
