<!-- Generated by IcoMoon.io -->
<svg version="1.1" xmlns="http://www.w3.org/2000/svg" width="64" height="64" viewBox="0 0 64 64">
<title>save</title>
<path d="M57.707 19.293l-12.414-12.414c-0.181-0.181-0.431-0.293-0.707-0.293h-2.586v12.414h-22v-12.414h-13c-0.552 0-1 0.448-1 1v0 51.414c0 0.552 0.448 1 1 1v0h50c0.552 0 1-0.448 1-1v0-39c0 0 0 0 0-0 0-0.276-0.112-0.526-0.293-0.707v0zM32.5 48c-4.694 0-8.5-3.806-8.5-8.5s3.806-8.5 8.5-8.5c4.694 0 8.5 3.806 8.5 8.5v0c0 4.694-3.806 8.5-8.5 8.5v0z"></path>
</svg>
