<!-- Generated by IcoMoon.io -->
<svg version="1.1" xmlns="http://www.w3.org/2000/svg" width="64" height="64" viewBox="0 0 64 64">
<title>scooter</title>
<path d="M53.702 32.768l-6.005-21.018h-10.697v4.5h7.303l4.855 16.991c-5.213 1.402-9.262 5.353-10.776 10.401l-0.028 0.108h-6.103v-16h-12.25c-9.287 0-16.976 6.973-18.107 15.958h25.107v0.333c0 2.324 1.884 4.208 4.208 4.208v0h11.046l-0.004-0.25c0-0.001 0-0.003 0-0.004 0-5.935 4.811-10.746 10.746-10.746 3.753 0 7.057 1.924 8.979 4.84l0.025 0.040v-6.446c-2.302-1.703-5.162-2.776-8.265-2.915l-0.033-0.001z"></path>
<path d="M60 48.5c0 3.59-2.91 6.5-6.5 6.5s-6.5-2.91-6.5-6.5c0-3.59 2.91-6.5 6.5-6.5s6.5 2.91 6.5 6.5z"></path>
<path d="M21.25 18.708h11v4.5h-11v-4.5z"></path>
<path d="M20.993 48.208h-12.985c-0.001 0.014-0.001 0.028-0.001 0.042-0.003 0.083-0.006 0.166-0.006 0.25 0 3.59 2.91 6.5 6.5 6.5s6.5-2.91 6.5-6.5v0c0-0.084-0.003-0.167-0.006-0.25-0.001-0.014-0.001-0.028-0.001-0.042z"></path>
</svg>
