<!-- Generated by IcoMoon.io -->
<svg version="1.1" xmlns="http://www.w3.org/2000/svg" width="64" height="64" viewBox="0 0 64 64">
<title>screen-mirroring</title>
<path d="M7 36v15c0 1.105 0.895 2 2 2v0h46c1.105 0 2-0.895 2-2v0-39c0-1.105-0.895-2-2-2v0h-46c-1.105 0-2 0.895-2 2v0 16c2.209 0 4 1.791 4 4s-1.791 4-4 4v0zM27.454 16.318c3.454 4.245 5.546 9.719 5.546 15.682 0 5.769-1.958 11.081-5.246 15.306l0.042-0.056-4.837-3.547c2.52-3.189 4.042-7.268 4.042-11.703 0-4.583-1.626-8.786-4.332-12.064l0.026 0.032zM18.724 23.011c2.037 2.412 3.276 5.555 3.276 8.988 0 3.322-1.16 6.374-3.096 8.771l0.021-0.027-4.845-3.553c1.194-1.386 1.921-3.205 1.921-5.192 0-2.053-0.776-3.925-2.050-5.34l0.006 0.007z"></path>
</svg>
