<!-- Generated by IcoMoon.io -->
<svg version="1.1" xmlns="http://www.w3.org/2000/svg" width="64" height="64" viewBox="0 0 64 64">
<title>screen-lock-portrait</title>
<path d="M34.813 25.289c0-1.674-1.357-3.031-3.031-3.031s-3.031 1.357-3.031 3.031v0 3.309h6.063z"></path>
<path d="M13 2c-1.105 0-2 0.895-2 2v0 56c0 1.105 0.895 2 2 2v0h38c1.105 0 2-0.895 2-2v0-56c0-1.105-0.895-2-2-2v0zM42.5 35.492c0 5.799-4.701 10.5-10.5 10.5s-10.5-4.701-10.5-10.5v0-6.644h2.75v-3.559c0-4.159 3.372-7.531 7.531-7.531s7.531 3.372 7.531 7.531v0 3.559h3.188z"></path>
</svg>
