<!-- Generated by IcoMoon.io -->
<svg version="1.1" xmlns="http://www.w3.org/2000/svg" width="64" height="64" viewBox="0 0 64 64">
<title>screen-rotation</title>
<path d="M26.657 3.27c-0.362-0.362-0.862-0.586-1.414-0.586s-1.052 0.224-1.414 0.586l-20.787 20.787c-0.362 0.362-0.586 0.862-0.586 1.414s0.224 1.052 0.586 1.414l33.906 33.907c0.362 0.362 0.862 0.586 1.414 0.586s1.052-0.224 1.414-0.586l20.787-20.787c0.362-0.362 0.586-0.862 0.586-1.414s-0.224-1.052-0.586-1.414v0z"></path>
<path d="M6.523 38.867h-4.5c0 12.363 9.815 22.474 22.061 22.957l-6.72-12.048-3.307 3.969c-4.59-3.398-7.533-8.794-7.534-14.878v-0z"></path>
<path d="M46.636 14.224l3.307-3.969c4.59 3.398 7.533 8.794 7.534 14.878v0h4.5c0-12.363-9.815-22.474-22.061-22.957z"></path>
</svg>
