<!-- Generated by IcoMoon.io -->
<svg version="1.1" xmlns="http://www.w3.org/2000/svg" width="64" height="64" viewBox="0 0 64 64">
<title>screen-lock-rotation</title>
<path d="M36 20.41v-7.797l-9.343-9.343c-0.362-0.362-0.862-0.586-1.414-0.586s-1.052 0.224-1.414 0.586l-20.787 20.787c-0.362 0.362-0.586 0.862-0.586 1.414s0.224 1.052 0.586 1.414l33.906 33.906c0.362 0.362 0.862 0.586 1.414 0.586s1.052-0.224 1.414-0.586l20.787-20.787c0.362-0.362 0.586-0.862 0.586-1.414s-0.224-1.052-0.586-1.414l-3.017-3.017h-7.797c-7.594 0-13.75-6.156-13.75-13.75v0z"></path>
<path d="M40 19.644c0 5.799 4.701 10.5 10.5 10.5s10.5-4.701 10.5-10.5v0-6.644h-3.188v-3.559c0-4.159-3.372-7.531-7.531-7.531s-7.531 3.372-7.531 7.531v0 3.559h-2.75zM47.25 9.441c0-1.674 1.357-3.031 3.031-3.031s3.031 1.357 3.031 3.031v0 3.309h-6.063z"></path>
<path d="M6.523 38.867h-4.5c0 11.929 9.138 21.763 20.781 22.872q0.635 0.060 1.28 0.086l-6.72-12.048-3.307 3.969c-4.59-3.398-7.533-8.794-7.534-14.878v-0z"></path>
</svg>
