<!-- Generated by IcoMoon.io -->
<svg version="1.1" xmlns="http://www.w3.org/2000/svg" width="64" height="64" viewBox="0 0 64 64">
<title>script</title>
<path d="M49.179 7c-0.003-2.622-2.128-4.747-4.75-4.75h-28.83c0.946 1.463 1.508 3.251 1.508 5.171 0 0.003 0 0.005 0 0.008v-0 49.438c0.003 2.622 2.070 4.76 4.663 4.878l0.011 0c2.53-0.118 4.537-2.197 4.54-4.744v-7.822h22.857z"></path>
<path d="M53.679 53.679h-22.857v3.321c0 0.004 0 0.008 0 0.012 0 1.75-0.489 3.386-1.338 4.779l0.023-0.041h27.494c2.622-0.003 4.747-2.128 4.75-4.75v-3.322z"></path>
<path d="M9.452 2.662c-0.597-0.26-1.293-0.412-2.024-0.412-2.86 0-5.178 2.318-5.178 5.178 0 0 0 0 0 0.001v-0 6.321h10.357v-6.321c-0.002-2.128-1.286-3.956-3.122-4.754l-0.034-0.013z"></path>
</svg>
