<!-- Generated by IcoMoon.io -->
<svg version="1.1" xmlns="http://www.w3.org/2000/svg" width="64" height="64" viewBox="0 0 64 64">
<title>scrubber</title>
<path d="M53.16 10.84c-5.418-5.43-12.909-8.789-21.185-8.789-16.527 0-29.925 13.398-29.925 29.925 0 8.276 3.359 15.767 8.789 21.184l0.001 0.001c5.418 5.43 12.909 8.789 21.185 8.789 16.527 0 29.925-13.398 29.925-29.925 0-8.276-3.359-15.767-8.789-21.184l-0.001-0.001zM32 53.925c-12.090 0-21.925-9.835-21.925-21.925s9.835-21.925 21.925-21.925 21.925 9.835 21.925 21.925-9.835 21.925-21.925 21.925z"></path>
<path d="M40.25 32c0 4.556-3.694 8.25-8.25 8.25s-8.25-3.694-8.25-8.25c0-4.556 3.694-8.25 8.25-8.25s8.25 3.694 8.25 8.25z"></path>
</svg>
