<!-- Generated by IcoMoon.io -->
<svg version="1.1" xmlns="http://www.w3.org/2000/svg" width="64" height="64" viewBox="0 0 64 64">
<title>security</title>
<path d="M30 2c-9.091 7.759-27 10-27 10 0 19.309 5.4 43.564 29 50 23.6-6.436 29-30.691 29-50 0 0-17.909-2.241-27-10zM52.759 18.61c-0.333 4.461-1.011 8.621-2.014 12.39h-18.745v22.629c-7.274-2.543-12.551-7.523-16.091-15.165-0.986-2.090-1.892-4.572-2.581-7.144l-0.073-0.32h18.745v-20.52c4.371 2.896 10.003 5.294 16.805 7.148 1.394 0.38 2.726 0.706 3.954 0.982z"></path>
</svg>
