<!-- Generated by IcoMoon.io -->
<svg version="1.1" xmlns="http://www.w3.org/2000/svg" width="64" height="64" viewBox="0 0 64 64">
<title>select-all</title>
<path d="M15 15h34v34h-34v-34z"></path>
<path d="M2 2h6v6h-6v-6z"></path>
<path d="M15.5 2h6v6h-6v-6z"></path>
<path d="M29 2h6v6h-6v-6z"></path>
<path d="M42.5 2h6v6h-6v-6z"></path>
<path d="M56 2h6v6h-6v-6z"></path>
<path d="M2 15.5h6v6h-6v-6z"></path>
<path d="M56 15.5h6v6h-6v-6z"></path>
<path d="M2 29h6v6h-6v-6z"></path>
<path d="M56 29h6v6h-6v-6z"></path>
<path d="M2 42.5h6v6h-6v-6z"></path>
<path d="M2 56h6v6h-6v-6z"></path>
<path d="M56 42.5h6v6h-6v-6z"></path>
<path d="M15.5 56h6v6h-6v-6z"></path>
<path d="M29 56h6v6h-6v-6z"></path>
<path d="M42.5 56h6v6h-6v-6z"></path>
<path d="M56 56h6v6h-6v-6z"></path>
</svg>
