<!-- Generated by IcoMoon.io -->
<svg version="1.1" xmlns="http://www.w3.org/2000/svg" width="64" height="64" viewBox="0 0 64 64">
<title>select</title>
<path d="M2 15h6v-7h7v-6h-13v13z"></path>
<path d="M49 2v6h7v8h6v-14h-13z"></path>
<path d="M8 44h-6v13h13v-6h-7v-7z"></path>
<path d="M21 2h22v6h-22v-6z"></path>
<path d="M21 51v6h8.306l-1.585-6h-6.721z"></path>
<path d="M2 21h6v17h-6v-17z"></path>
<path d="M56 31.184l6 2.816v-12h-6v9.184z"></path>
<path d="M26.699 23.975c-0.731 0.614-1.192 1.527-1.192 2.549 0 0.302 0.040 0.594 0.116 0.872l-0.005-0.023 9.147 34.627h3.98l9.047-13.919 14.209-5.683v-3.979l-31.75-14.903c-1.057-0.496-2.655-0.289-3.551 0.459z"></path>
</svg>
