<!-- Generated by IcoMoon.io -->
<svg version="1.1" xmlns="http://www.w3.org/2000/svg" width="64" height="64" viewBox="0 0 64 64">
<title>settings</title>
<path d="M59.318 40.29l-3.971-3.269c0.336-1.509 0.528-3.242 0.528-5.021s-0.192-3.511-0.557-5.18l0.029 0.16 3.971-3.269c0.559-0.461 0.913-1.153 0.913-1.928 0-0.461-0.125-0.893-0.343-1.263l0.006 0.012-4.077-7.061c-0.438-0.753-1.242-1.252-2.162-1.252-0.316 0-0.619 0.059-0.898 0.166l0.017-0.006-4.82 1.806c-2.423-2.195-5.323-3.913-8.523-4.975l-0.17-0.049-0.845-5.072c-0.201-1.192-1.225-2.089-2.459-2.089-0.002 0-0.005 0-0.007 0h-8.152c-0.002 0-0.004 0-0.006 0-1.234 0-2.259 0.897-2.457 2.074l-0.002 0.015-0.845 5.071c-3.369 1.111-6.27 2.829-8.713 5.042l0.020-0.018-4.821-1.806c-0.261-0.102-0.564-0.161-0.88-0.161-0.92 0-1.724 0.498-2.155 1.24l-0.006 0.012-4.077 7.061c-0.212 0.359-0.337 0.791-0.337 1.252 0 0.775 0.354 1.468 0.909 1.925l0.004 0.003 3.971 3.269c-0.336 1.509-0.528 3.242-0.528 5.021s0.192 3.512 0.557 5.18l-0.029-0.16-3.971 3.269c-0.559 0.461-0.913 1.153-0.913 1.928 0 0.461 0.125 0.893 0.344 1.264l-0.006-0.012 4.077 7.061c0.438 0.753 1.242 1.252 2.162 1.252 0.316 0 0.619-0.059 0.898-0.166l-0.017 0.006 4.82-1.806c2.423 2.195 5.323 3.913 8.523 4.975l0.17 0.049 0.845 5.072c0.201 1.192 1.226 2.089 2.459 2.089 0.002 0 0.005 0 0.007 0h8.152c0.002 0 0.004 0 0.007 0 1.234 0 2.259-0.897 2.458-2.074l0.002-0.015 0.845-5.072c3.369-1.111 6.27-2.829 8.713-5.042l-0.020 0.018 4.821 1.806c0.261 0.102 0.564 0.161 0.88 0.161 0.92 0 1.724-0.498 2.155-1.24l0.006-0.012 4.077-7.061c0.212-0.359 0.337-0.791 0.337-1.252 0-0.775-0.354-1.468-0.909-1.925l-0.004-0.003zM31.875 41c-4.971 0-9-4.029-9-9s4.029-9 9-9c4.971 0 9 4.029 9 9v0c0 4.971-4.029 9-9 9v0z"></path>
</svg>
