<!-- Generated by IcoMoon.io -->
<svg version="1.1" xmlns="http://www.w3.org/2000/svg" width="64" height="64" viewBox="0 0 64 64">
<title>share-all</title>
<path d="M36.035 6.934v0.004h0.004l-0.004-0.004z"></path>
<path d="M42.744 0.939h-6.709v0.339l21.208 21.208-20.438 20.438h6.882l20.52-20.52-21.464-21.464z"></path>
<path d="M30.365 2.022h-5.295v11h-6.070c-6.852 0.008-12.756 4.060-15.453 9.897l-0.044 0.106c-0.948 1.858-1.503 4.051-1.503 6.375 0 0.014 0 0.027 0 0.041v-0.002 32.583h6.518l6.201-22.219c1.303-4.518 5.395-7.768 10.248-7.781h0.103v10.901h5.321l20.438-20.438z"></path>
</svg>
