<!-- Generated by IcoMoon.io -->
<svg version="1.1" xmlns="http://www.w3.org/2000/svg" width="64" height="64" viewBox="0 0 64 64">
<title>share-alt</title>
<path d="M51.5 23.098c0.003 0 0.006 0 0.010 0 5.804 0 10.51-4.705 10.51-10.509s-4.705-10.509-10.51-10.509c-5.804 0-10.51 4.705-10.51 10.509 0 0.65 0.059 1.287 0.172 1.904l-0.010-0.064-20.733 11.164c-1.922-2.059-4.653-3.343-7.683-3.343-5.799 0-10.5 4.701-10.5 10.5s4.701 10.5 10.5 10.5c3.014 0 5.731-1.27 7.646-3.304l0.005-0.005 20.707 10.088c-0.066 0.442-0.103 0.952-0.103 1.47 0 5.799 4.701 10.499 10.499 10.499s10.499-4.701 10.499-10.499c0-5.799-4.701-10.499-10.499-10.499-0 0-0 0-0.001 0v0c-0.003 0-0.006 0-0.009 0-3.137 0-5.951 1.379-7.87 3.564l-0.010 0.012-20.522-9.998c0.103-0.55 0.162-1.182 0.162-1.828 0-0.629-0.056-1.244-0.163-1.842l0.009 0.063 20.759-11.178c1.914 2.037 4.626 3.306 7.634 3.306 0.004 0 0.007 0 0.011 0h-0.001z"></path>
</svg>
