<!-- Generated by IcoMoon.io -->
<svg version="1.1" xmlns="http://www.w3.org/2000/svg" width="64" height="64" viewBox="0 0 64 64">
<title>shower</title>
<path d="M29.56 39.622l-4.301 4.301 4.719 6.606 4.204-4.437-4.622-6.47z"></path>
<path d="M32.642 54.261l3.917 5.483 0.668-0.477 3.629-3.83-4.009-5.613-4.204 4.438z"></path>
<path d="M58.38 27.093l-4.184 4.416 5.693 3.836 4.184-4.416-5.693-3.836z"></path>
<path d="M50.413 28.96l4.184-4.416-5.949-4.009-4.322 4.322 6.088 4.102z"></path>
<path d="M31.975 37.207l4.895 6.047 4.163-4.394-4.792-5.919-4.266 4.266z"></path>
<path d="M39.726 46.783l4.298 5.309 4.163-4.394-4.298-5.309-4.163 4.394z"></path>
<path d="M47.138 38.96l5.035 4.531 4.128-4.357-5.035-4.531-4.128 4.357z"></path>
<path d="M47.919 31.591l-5.436-4.893-4.248 4.248 5.557 5.001 4.128-4.357z"></path>
<path d="M46.909 15.909l-4.030-4.030-4.694 4.694-2.383-2.383c-2.162-2.162-5.15-3.499-8.449-3.499-2.933 0-5.62 1.057-7.7 2.811l0.018-0.015-1.164-0.97c-1.732-1.451-3.985-2.333-6.443-2.333-5.558 0-10.064 4.506-10.064 10.064v0 30.751h6v-30.751c0-2.245 1.82-4.064 4.064-4.064 0.993 0 1.902 0.356 2.608 0.947l-0.006-0.005 1.413 1.178 0.263-0.315c-0.596 1.373-0.942 2.972-0.942 4.651 0 3.3 1.338 6.288 3.5 8.451l2.383 2.382-4.404 4.404 4.243 4.243 26-26z"></path>
</svg>
