<!-- Generated by IcoMoon.io -->
<svg version="1.1" xmlns="http://www.w3.org/2000/svg" width="64" height="64" viewBox="0 0 64 64">
<title>sign-language</title>
<path d="M40.175 14.175c-0.181-0.181-0.431-0.293-0.707-0.293s-0.526 0.112-0.707 0.293v0c-1.483 1.483-2.399 3.531-2.399 5.793s0.917 4.31 2.399 5.793l5.24 5.24v1h-30c-1.657 0-3 1.343-3 3v0 0c0 1.657 1.343 3 3 3v0h22v2h-27c-1.657 0-3 1.343-3 3v0 0c0 1.657 1.343 3 3 3v0h27v2h-22c-1.657 0-3 1.343-3 3v0 0c0 1.657 1.343 3 3 3v0h22v2h-14c-1.657 0-3 1.343-3 3v0 0c0 1.657 1.343 3 3 3v0h22l18-4v-22z"></path>
<path d="M34.369 19.845c0.025-2.378 0.863-4.555 2.248-6.272l-0.015 0.019-10.714-10.714c-0.543-0.543-1.293-0.879-2.121-0.879-1.657 0-3 1.343-3 3 0 0.828 0.336 1.578 0.879 2.121v0z"></path>
<path d="M57 8.783c0-0.552-0.448-1-1-1v0c-4.525 0-8.192 3.668-8.192 8.192v0 3.004l9.192 9.192z"></path>
<path d="M21.896 30h8.485l-15.808-15.808c-0.543-0.543-1.293-0.879-2.121-0.879s-1.578 0.336-2.121 0.879v0c-0.543 0.543-0.879 1.293-0.879 2.121s0.336 1.578 0.879 2.121v0z"></path>
<path d="M33.21 30h6.962l-2.825-2.825c-1.089-1.087-1.931-2.42-2.436-3.909l-0.021-0.071-18.194-18.194c-0.542-0.539-1.29-0.873-2.116-0.873-1.657 0-3 1.343-3 3 0 0.826 0.333 1.573 0.873 2.116l-0-0z"></path>
<path d="M10.582 30h8.485l-6.065-6.065c-0.542-0.539-1.29-0.873-2.116-0.873-1.657 0-3 1.343-3 3 0 0.826 0.333 1.573 0.873 2.116l-0-0z"></path>
</svg>
