<!-- Generated by IcoMoon.io -->
<svg version="1.1" xmlns="http://www.w3.org/2000/svg" width="64" height="64" viewBox="0 0 64 64">
<title>sim-slash</title>
<path d="M39.571 29.45v0l12.429 12.429v-32.879c-0.003-2.208-1.792-3.997-4-4h-19.172c-0.003 0-0.007 0-0.011 0-1.101 0-2.098 0.448-2.817 1.171l-4.854 4.854z"></path>
<path d="M62 58.253l-10-10v-0.010l-10-10v0.010l-9.253-9.253h0.010l-27.010-27h-3.747v3.678l12.247 12.247-2.075 2.075c-0.724 0.72-1.172 1.716-1.172 2.818 0 0.004 0 0.008 0 0.011v-0.001 33.172c0.003 2.208 1.792 3.997 4 4h33c2.208-0.003 3.997-1.792 4-4v-0.322l6.322 6.322h3.678zM42 50h-14v-18.322l14 14z"></path>
</svg>
