<!-- Generated by IcoMoon.io -->
<svg version="1.1" xmlns="http://www.w3.org/2000/svg" width="64" height="64" viewBox="0 0 64 64">
<title>slow-motion</title>
<path d="M53.213 10.787c-5.399-5.428-12.873-8.787-21.132-8.787-0.029 0-0.057 0-0.086 0h0.004c-1.561 0-3.095 0.118-4.593 0.346l0.168-0.021 0.878 5.935c1.065-0.165 2.294-0.26 3.545-0.26 0.001 0 0.001 0 0.002 0h-0c13.234 0 24 10.766 24 24s-10.766 24-24 24c-0.001 0-0.001 0-0.002 0-1.251 0-2.479-0.094-3.679-0.277l0.135 0.017-0.878 5.935c1.33 0.207 2.864 0.325 4.425 0.325v0c16.569-0 30-13.432 30-30 0-8.284-3.358-15.784-8.787-21.213v0z"></path>
<path d="M26 17h-1.884v29h1.884l20-14.5-20-14.5z"></path>
<path d="M21.241 10.54l-2.694-5.361c-2.947 1.499-5.474 3.339-7.667 5.515l0.002-0.002 4.224 4.261c1.754-1.741 3.776-3.213 5.999-4.35l0.136-0.063z"></path>
<path d="M10.637 21.050l-5.337-2.742c-1.368 2.601-2.392 5.621-2.91 8.811l-0.023 0.171 5.927 0.935c0.432-2.686 1.25-5.098 2.405-7.307l-0.062 0.131z"></path>
<path d="M2.371 36.727c0.543 3.361 1.569 6.381 3.016 9.145l-0.078-0.164 5.335-2.745c-1.094-2.077-1.914-4.489-2.329-7.038l-0.018-0.137z"></path>
<path d="M10.894 53.32c2.192 2.173 4.72 4.011 7.499 5.43l0.17 0.079 2.691-5.363c-2.36-1.199-4.384-2.671-6.14-4.412l0.002 0.002z"></path>
</svg>
