<!-- Generated by IcoMoon.io -->
<svg version="1.1" xmlns="http://www.w3.org/2000/svg" width="64" height="64" viewBox="0 0 64 64">
<title>smile-plus</title>
<path d="M54.625 9.375v-7.375h-5.25v7.375h-7.375v5.25h7.375v7.375h5.25v-7.375h7.375v-5.25h-7.375z"></path>
<path d="M25 16c-12.682 0-23 10.318-23 23s10.318 23 23 23 23-10.318 23-23-10.318-23-23-23zM31 32h5v5h-5zM14 32h5v5h-5zM36.804 44.55c-1.838 4.549-6.218 7.7-11.334 7.7-0.014 0-0.028 0-0.042-0h-0.857c-0.012 0-0.026 0-0.040 0-5.116 0-9.496-3.151-11.305-7.619l-0.029-0.082-0.62-1.55h4.849c1.192 2.813 3.93 4.75 7.12 4.75 0.009 0 0.017 0 0.026-0h0.858c0.007 0 0.016 0 0.025 0 3.19 0 5.928-1.937 7.101-4.7l0.019-0.050h4.849z"></path>
</svg>
