<!-- Generated by IcoMoon.io -->
<svg version="1.1" xmlns="http://www.w3.org/2000/svg" width="64" height="64" viewBox="0 0 64 64">
<title>smile</title>
<path d="M32 2c-16.569 0-30 13.431-30 30s13.431 30 30 30 30-13.431 30-30-13.431-30-30-30zM40 24h6v6h-6zM18 24h6v6h-6zM46.232 39.978c-2.235 5.48-7.522 9.272-13.695 9.272 0 0-0 0-0 0h-1.074c0 0 0 0-0 0-6.173 0-11.46-3.792-13.659-9.174l-0.036-0.099-0.791-1.978h4.847l0.123 0.307c1.538 3.806 5.203 6.443 9.484 6.443 0.012 0 0.023 0 0.035-0h1.072c0.010 0 0.022 0 0.033 0 4.281 0 7.946-2.637 9.459-6.375l0.025-0.068 0.123-0.307h4.847z"></path>
</svg>
