<!-- Generated by IcoMoon.io -->
<svg version="1.1" xmlns="http://www.w3.org/2000/svg" width="64" height="64" viewBox="0 0 64 64">
<title>smoke-free</title>
<path d="M47 36.879l6 6v-12.879h-6v6.879z"></path>
<path d="M56 30h6v15h-6v-15z"></path>
<path d="M45.618 23.756l0.795 1.244h5.34l-2.343-3.667c-0.409-0.637-0.651-1.415-0.651-2.249 0-1.003 0.35-1.923 0.936-2.646l-0.006 0.008c1.216-1.485 1.952-3.404 1.952-5.494 0-1.829-0.564-3.526-1.528-4.927l0.019 0.029-0.037-0.054h-5.453l1.777 2.596c0.455 0.66 0.727 1.477 0.727 2.357 0 1.003-0.353 1.923-0.941 2.644l0.006-0.008c-2.347 2.858-2.591 7.038-0.593 10.166z"></path>
<path d="M54.618 23.756l0.795 1.244h5.34l-2.343-3.667c-0.409-0.637-0.651-1.415-0.651-2.249 0-1.003 0.35-1.923 0.936-2.646l-0.006 0.008c1.216-1.485 1.952-3.404 1.952-5.494 0-1.829-0.564-3.526-1.528-4.927l0.019 0.029-0.037-0.054h-5.453l1.777 2.596c0.455 0.66 0.727 1.477 0.727 2.357 0 1.003-0.353 1.923-0.941 2.644l0.006-0.008c-2.347 2.858-2.591 7.038-0.593 10.166z"></path>
<path d="M2 2v3.678l24.322 24.322h-24.322v15h39.322l17 17h3.678v-3.693l-56.286-56.307h-3.714z"></path>
</svg>
