<!-- Generated by IcoMoon.io -->
<svg version="1.1" xmlns="http://www.w3.org/2000/svg" width="64" height="64" viewBox="0 0 64 64">
<title>snowflake</title>
<path d="M17.336 26.374l9.543 5.495-9.585 5.391-11.256-3.016v5.435l8.59 2.302-2.316 8.642 4.707 2.718 3.124-11.66 9.23-5.192v10.053l-8.832 8.832 4.707 2.718 7-7.001 6.832 6.831 4.707-2.718-9.164-9.164v-9.713l9.034 5.201 3.191 11.908 4.707-2.718-2.341-8.739 8.785-2.354v-5.435l-11.303 3.029-9.203-5.299 9.589-5.394 10.918 2.925v-5.435l-7.941-2.128 2.199-8.206-4.707-2.718-2.926 10.92-9.999 5.625v-10.932l8.29-8.29-4.707-2.717-6.336 6.336-6.228-6.228-4.707 2.718 8.439 8.439v10.41l-10.31-5.936-2.746-10.247-4.707 2.718 2.173 8.108-7.747 2.076v5.435l11.297-3.027z"></path>
</svg>
