<!-- Generated by IcoMoon.io -->
<svg version="1.1" xmlns="http://www.w3.org/2000/svg" width="64" height="64" viewBox="0 0 64 64">
<title>sorround-sound</title>
<path d="M58 2h-52c-2.209 0-4 1.791-4 4v0 52c0 2.209 1.791 4 4 4v0h52c2.209 0 4-1.791 4-4v0-52c0-2.209-1.791-4-4-4v0zM18.977 42.927l-4.596 3.857c-3.347-3.968-5.381-9.139-5.381-14.784 0-6.351 2.574-12.101 6.737-16.263v0l4.243 4.243c-3.076 3.076-4.979 7.326-4.979 12.021 0 4.173 1.503 7.994 3.998 10.953l-0.021-0.026zM32 41c-4.971 0-9-4.029-9-9s4.029-9 9-9c4.971 0 9 4.029 9 9v0c0 4.971-4.029 9-9 9v0zM49.619 46.784l-4.596-3.857c2.474-2.933 3.977-6.755 3.977-10.927 0-4.694-1.903-8.944-4.979-12.021v0l4.243-4.243c4.162 4.162 6.737 9.912 6.737 16.263 0 5.646-2.034 10.816-5.409 14.819l0.028-0.035z"></path>
</svg>
