<!-- Generated by IcoMoon.io -->
<svg version="1.1" xmlns="http://www.w3.org/2000/svg" width="64" height="64" viewBox="0 0 64 64">
<title>sort-numeric-down</title>
<path d="M22.899 2h-6v46h-9.899v0.941l9.899 9.9v0.159h0.159l3 3 13.18-13.18v-0.82h-10.339v-46z"></path>
<path d="M53 24.375h-4.375v-18.375h-5.25v3h-4.375v5h4.375v10.375h-4.375v5.25h14v-5.25z"></path>
<path d="M53.625 40.95c-0.005-4.182-3.393-7.57-7.575-7.575h-0.55c-4.182 0.005-7.57 3.393-7.575 7.575v0.55c0.005 4.182 3.393 7.57 7.575 7.575h0.55c0.76-0 1.494-0.112 2.186-0.322l-0.053 0.014c-0.617 2.098-2.523 3.604-4.782 3.608h-2.4v5.25h2.4c5.644-0.007 10.218-4.581 10.225-10.224v-5.701h-0.005c0.002-0.067 0.005-0.133 0.005-0.2zM46.050 43.825h-0.55c-1.283-0.002-2.324-1.042-2.325-2.325v-0.55c0.002-1.283 1.042-2.324 2.325-2.325h0.55c1.283 0.002 2.324 1.042 2.325 2.325v0.55c-0.002 1.283-1.042 2.324-2.325 2.325h-0z"></path>
</svg>
