<!-- Generated by IcoMoon.io -->
<svg version="1.1" xmlns="http://www.w3.org/2000/svg" width="64" height="64" viewBox="0 0 64 64">
<title>sort-numeric-up</title>
<path d="M52.325 24.375h-4.375v-18.375h-5.25v3h-4.375v5h4.375v10.375h-4.375v5.25h14v-5.25z"></path>
<path d="M52.95 40.95c-0.005-4.182-3.393-7.57-7.575-7.575h-0.55c-4.182 0.005-7.57 3.393-7.575 7.575v0.55c0.005 4.182 3.393 7.57 7.575 7.575h0.55c0.76-0 1.494-0.112 2.186-0.322l-0.053 0.014c-0.617 2.098-2.523 3.604-4.782 3.608h-2.4v5.25h2.4c5.644-0.007 10.218-4.581 10.225-10.224v-5.701h-0.005c0.002-0.067 0.005-0.133 0.005-0.2zM47.7 41.5c-0.002 1.283-1.042 2.324-2.325 2.325h-0.55c-1.283-0.002-2.324-1.042-2.325-2.325v-0.55c0.002-1.283 1.042-2.324 2.325-2.325h0.55c1.283 0.002 2.324 1.042 2.325 2.325v0z"></path>
<path d="M14.191 5h-0.042v0.042l-10.138 10.138v0.82h10.138v46h6v-46h10.101v-0.941l-13.059-13.059-3 3z"></path>
</svg>
