<!-- Generated by IcoMoon.io -->
<svg version="1.1" xmlns="http://www.w3.org/2000/svg" width="64" height="64" viewBox="0 0 64 64">
<title>spa</title>
<path d="M29.324 35.547c0.957 0.956 1.836 1.99 2.625 3.093l0.050 0.074c3.143-4.405 7.611-7.685 12.816-9.277l0.173-0.046c-0.226-8.797-4.582-16.532-11.194-21.363l-0.077-0.054-2.183-1.581-2.003 1.558c-6.41 5.019-10.499 12.748-10.532 21.432v0.005c4.055 1.231 7.527 3.357 10.322 6.159l0 0z"></path>
<path d="M12 32.871h-8v6.194c0 0.001 0 0.002 0 0.003 0 0.719 0.037 1.429 0.111 2.129l-0.007-0.087c0.097 0.944 0.241 1.785 0.436 2.607l-0.027-0.135q0.112 0.484 0.247 0.959t0.292 0.939q0.26 0.768 0.58 1.506 0.133 0.308 0.276 0.61c0.626 1.313 1.314 2.44 2.103 3.486l-0.037-0.051q0.432 0.578 0.904 1.122 0.314 0.363 0.646 0.71c0.166 0.174 0.337 0.345 0.509 0.513 0.171 0.167 0.344 0.332 0.521 0.493q0.533 0.484 1.1 0.93 0.378 0.297 0.77 0.576 0.196 0.139 0.396 0.274 0.399 0.27 0.811 0.52 0.619 0.376 1.266 0.708c0.242 0.124 0.487 0.242 0.734 0.356 0.194 0.090 0.389 0.177 0.586 0.26q0.897 0.38 1.837 0.672 0.47 0.146 0.949 0.27c0.836 0.226 1.84 0.412 2.867 0.519l0.086 0.007c0.612 0.066 1.322 0.103 2.041 0.103 0.001 0 0.003 0 0.004 0h3.5v-6.194c0-0.013-0-0.028-0-0.044 0-3.429 0.709-6.693 1.988-9.652l-0.061 0.158c0.022-0.053 0.046-0.104 0.069-0.157-3.478-6.191-10.003-10.305-17.489-10.305-0.002 0-0.005 0-0.007 0h0z"></path>
<path d="M52 32.871c-0.001 0-0.002 0-0.003 0-8.002 0-14.906 4.699-18.104 11.487l-0.052 0.122q-0.077 0.166-0.151 0.334c-1.068 2.364-1.69 5.126-1.69 8.032 0 0.008 0 0.017 0 0.025v-0.001 6.194h8c0.001 0 0.002 0 0.003 0 0.719 0 1.429-0.038 2.129-0.111l-0.087 0.007c0.944-0.097 1.785-0.241 2.607-0.436l-0.135 0.027q0.484-0.112 0.959-0.247t0.939-0.292c2.423-0.835 4.518-2.030 6.34-3.543l-0.033 0.026q0.556-0.459 1.077-0.956 0.347-0.331 0.679-0.679 0.497-0.521 0.956-1.077c1.486-1.789 2.681-3.884 3.474-6.167l0.042-0.14q0.157-0.465 0.292-0.939t0.247-0.959c0.168-0.686 0.312-1.528 0.402-2.386l0.007-0.086c0.066-0.612 0.103-1.322 0.103-2.041 0-0.001 0-0.002 0-0.004v0-6.194z"></path>
</svg>
