<!-- Generated by IcoMoon.io -->
<svg version="1.1" xmlns="http://www.w3.org/2000/svg" width="64" height="64" viewBox="0 0 64 64">
<title>speaker</title>
<path d="M49.778 2h-35.556c-1.227 0-2.222 0.959-2.222 2.143v55.714c0 1.184 0.995 2.143 2.222 2.143h35.556c1.227 0 2.222-0.959 2.222-2.143v-55.714c0-1.183-0.995-2.143-2.222-2.143zM32 10c3.866 0 7 3.134 7 7s-3.134 7-7 7c-3.866 0-7-3.134-7-7v0c0-3.866 3.134-7 7-7v0zM32 54c-6.627 0-12-5.373-12-12s5.373-12 12-12c6.627 0 12 5.373 12 12v0c0 6.627-5.373 12-12 12v0z"></path>
<path d="M40 42c0 4.418-3.582 8-8 8s-8-3.582-8-8c0-4.418 3.582-8 8-8s8 3.582 8 8z"></path>
</svg>
