<!-- Generated by IcoMoon.io -->
<svg version="1.1" xmlns="http://www.w3.org/2000/svg" width="64" height="64" viewBox="0 0 64 64">
<title>speak</title>
<path d="M47.55 32.782q0.071-0.141 0.139-0.284l5.311-11.153v-1.759s-7.219-9.918-9.672-13.19c-2.638-3.517-4.739-4.397-6.816-4.397v0c-4.615 0-8.511 5.807-8.511 5.807h-1s-3.897-5.807-8.511-5.807v0c-2.077 0-4.178 0.879-6.816 4.397-2.453 3.271-9.672 13.19-9.672 13.19v1.759l5.311 11.153q0.068 0.143 0.139 0.284c2.558 5.098 7.836 8.26 13.54 8.26h13.019c5.704-0 10.982-3.161 13.54-8.26zM39.81 29.259v0c-3.699-0.557-7.968-0.875-12.31-0.875s-8.611 0.318-12.784 0.932l0.473-0.057-4.19-8.451 7.707-6.145s3.517 3.979 8.793 3.979 8.793-3.979 8.793-3.979v0l7.707 6.145z"></path>
<path d="M40.154 44.928v6c5.476-0.007 10.15-3.433 12.002-8.258l0.030-0.088-5.62-2.102c-1.003 2.618-3.493 4.444-6.411 4.448h-0z"></path>
<path d="M56.869 44.333c-2.614 6.825-9.108 11.586-16.714 11.595h-0.001v6c10.211 0 18.943-6.452 22.335-15.493z"></path>
</svg>
