<!-- Generated by IcoMoon.io -->
<svg version="1.1" xmlns="http://www.w3.org/2000/svg" width="64" height="64" viewBox="0 0 64 64">
<title>speedometer</title>
<path d="M32 13c-15.464 0-28 12.536-28 28v9h17.75c0-0.002 0-0.005 0-0.008 0-5.657 4.586-10.242 10.242-10.242 0.818 0 1.613 0.096 2.375 0.277l-0.070-0.014 7.674-15.987 4.057 1.947-7.676 15.991c2.383 1.891 3.897 4.786 3.897 8.035v0h17.75v-9c0-15.464-12.536-28-28-28zM15 44h-5v-5h5zM21 30h-5v-5h5zM35 24h-5v-5h5zM54 44h-5v-5h5z"></path>
<path d="M37.75 50c0 3.176-2.574 5.75-5.75 5.75s-5.75-2.574-5.75-5.75c0-3.176 2.574-5.75 5.75-5.75s5.75 2.574 5.75 5.75z"></path>
</svg>
