<!-- Generated by IcoMoon.io -->
<svg version="1.1" xmlns="http://www.w3.org/2000/svg" width="64" height="64" viewBox="0 0 64 64">
<title>speech-bubble</title>
<path d="M51.176 43.998l-0.067-0.19c5.47-4.198 8.891-10.175 8.891-16.809 0-12.703-12.536-23-28-23s-28 10.297-28 23 12.536 23 28 23c0.002 0 0.003 0 0.005 0 1.468 0 2.913-0.092 4.332-0.271l-0.169 0.017 2.763 2.395c5.61 4.883 12.992 7.859 21.068 7.859v0-2c-3.845-3.845-6.857-8.523-8.742-13.741l-0.082-0.261zM22.5 32h-5v-5h5zM34.5 32h-5v-5h5zM46.5 32h-5v-5h5z"></path>
</svg>
