<!-- Generated by IcoMoon.io -->
<svg version="1.1" xmlns="http://www.w3.org/2000/svg" width="64" height="64" viewBox="0 0 64 64">
<title>speech-notes-slash</title>
<path d="M58.337 62h0.036l-0.017-0.017c-0.007 0.005-0.013 0.011-0.019 0.017z"></path>
<path d="M49.798 46l-44-44h-3.798v3.627l0.124 0.124 56.25 56.25h3.627v-3.798l-12.202-12.202z"></path>
<path d="M24 13.75h28v4.5h-23.588l5.5 5.5h18.088v4.5h-13.588l5.5 5.5h8.088v4.5h-3.588l7.75 7.75h1.838c1.105 0 2-0.895 2-2v0-36c0-1.105-0.895-2-2-2v0h-41.838l7.838 7.838z"></path>
<path d="M4 44c0 1.105 0.895 2 2 2v0h10v14h1l14-14h5.010l-32.010-32.010zM13 33.75h5v4.5h-5z"></path>
</svg>
