<!-- Generated by IcoMoon.io -->
<svg version="1.1" xmlns="http://www.w3.org/2000/svg" width="64" height="64" viewBox="0 0 64 64">
<title>star</title>
<path d="M58.867 24.255l-17.142-2.786-7.947-15.442c-0.339-0.649-1.008-1.085-1.778-1.085s-1.439 0.436-1.773 1.074l-0.005 0.011-7.947 15.442-17.142 2.786c-0.958 0.16-1.679 0.983-1.679 1.974 0 0.549 0.222 1.047 0.58 1.409l-0-0 12.231 12.329-2.648 17.164c-0.015 0.092-0.023 0.197-0.023 0.305 0 1.105 0.895 2 2 2 0.329 0 0.639-0.079 0.912-0.22l-0.011 0.005 15.506-7.822 15.506 7.822c0.262 0.135 0.572 0.214 0.901 0.214 1.105 0 2-0.895 2-2 0-0.108-0.008-0.213-0.025-0.316l0.002 0.011-2.648-17.164 12.231-12.33c0.358-0.361 0.58-0.859 0.58-1.408 0-0.991-0.721-1.814-1.667-1.973l-0.012-0.002z"></path>
</svg>
