<!-- Generated by IcoMoon.io -->
<svg version="1.1" xmlns="http://www.w3.org/2000/svg" width="64" height="64" viewBox="0 0 64 64">
<title>star-half</title>
<path d="M30.222 6.027l-7.947 15.442-17.142 2.786c-0.958 0.16-1.679 0.983-1.679 1.974 0 0.549 0.222 1.047 0.58 1.409l-0-0 12.231 12.329-2.648 17.164c-0.015 0.092-0.023 0.197-0.023 0.305 0 1.105 0.895 2 2 2 0.329 0 0.639-0.079 0.912-0.22l-0.011 0.005 15.506-7.822v-46.457c-0.004 0-0.009-0-0.014-0-0.767 0-1.431 0.436-1.76 1.074l-0.005 0.011z"></path>
</svg>
