<!-- Generated by IcoMoon.io -->
<svg version="1.1" xmlns="http://www.w3.org/2000/svg" width="64" height="64" viewBox="0 0 64 64">
<title>star-circle</title>
<path d="M32.075 2.154c-16.527 0-29.925 13.398-29.925 29.925s13.398 29.925 29.925 29.925 29.925-13.398 29.925-29.925-13.398-29.925-29.925-29.925zM49.867 27.533l-8.009 8.073 1.734 11.239c0.007 0.046 0.012 0.099 0.012 0.153 0 0.552-0.448 1-1 1-0.164 0-0.319-0.040-0.456-0.11l0.006 0.003-10.153-5.122-10.153 5.122c-0.131 0.068-0.286 0.107-0.45 0.107-0.552 0-1-0.448-1-1 0-0.054 0.004-0.107 0.012-0.158l-0.001 0.006 1.734-11.239-8.009-8.073c-0.179-0.181-0.29-0.43-0.29-0.704 0-0.496 0.361-0.907 0.834-0.986l0.006-0.001 11.224-1.824 5.203-10.111c0.17-0.325 0.504-0.542 0.889-0.542s0.719 0.218 0.887 0.537l0.003 0.005 5.203 10.111 11.224 1.824c0.479 0.080 0.84 0.491 0.84 0.987 0 0.275-0.111 0.523-0.29 0.704l0-0z"></path>
</svg>
