<!-- Generated by IcoMoon.io -->
<svg version="1.1" xmlns="http://www.w3.org/2000/svg" width="64" height="64" viewBox="0 0 64 64">
<title>sun</title>
<path d="M49 32c0 9.389-7.611 17-17 17s-17-7.611-17-17c0-9.389 7.611-17 17-17s17 7.611 17 17z"></path>
<path d="M29.375 2h5.25v7h-5.25v-7z"></path>
<path d="M29.375 55h5.25v7h-5.25v-7z"></path>
<path d="M55 29.375h7v5.25h-7v-5.25z"></path>
<path d="M2 29.375h7v5.25h-7v-5.25z"></path>
<path d="M47.144 50.856l3.712-3.712 5 5-3.712 3.712-5-5z"></path>
<path d="M8.144 11.856l3.712-3.712 5 5-3.712 3.712-5-5z"></path>
<path d="M8.144 52.144l5-5 3.712 3.712-5 5-3.712-3.712z"></path>
<path d="M47.144 13.144l5-5 3.712 3.712-5 5-3.712-3.712z"></path>
</svg>
