<!-- Generated by IcoMoon.io -->
<svg version="1.1" xmlns="http://www.w3.org/2000/svg" width="64" height="64" viewBox="0 0 64 64">
<title>swap-vertical-circle</title>
<path d="M32 2c0 0-0 0-0 0-16.569 0-30 13.431-30 30 0 8.284 3.358 15.784 8.787 21.213v0c5.429 5.429 12.929 8.787 21.213 8.787 16.569 0 30-13.431 30-30 0-8.284-3.358-15.784-8.787-21.213v0c-5.399-5.428-12.873-8.787-21.132-8.787-0.029 0-0.057 0-0.086 0h0.004zM14.449 25.662l-3.182-3.182 11.662-11.662 11.662 11.662-3.182 3.182-6.23-6.23v15.943h-4.5v-15.943zM32.574 37.088l6.23 6.23v-15.943h4.5v15.943l6.23-6.23 3.182 3.182-11.662 11.662-11.662-11.662z"></path>
</svg>
