<!-- Generated by IcoMoon.io -->
<svg version="1.1" xmlns="http://www.w3.org/2000/svg" width="64" height="64" viewBox="0 0 64 64">
<title>swap-horizontal-circle</title>
<path d="M32 2c-16.569 0-30 13.432-30 30 0 8.284 3.358 15.784 8.787 21.213v0c5.428 5.422 12.924 8.776 21.202 8.776 16.569 0 30-13.431 30-30 0-8.279-3.353-15.774-8.776-21.203l0 0c-5.399-5.428-12.873-8.787-21.132-8.787-0.029 0-0.057 0-0.086 0h0.004zM25.662 49.551l-3.182 3.182-11.662-11.662 11.662-11.662 3.182 3.182-6.23 6.23h15.943v4.5h-15.943zM37.088 31.426l6.23-6.23h-15.943v-4.5h15.943l-6.23-6.23 3.182-3.182 11.662 11.662-11.662 11.662z"></path>
</svg>
