<!-- Generated by IcoMoon.io -->
<svg version="1.1" xmlns="http://www.w3.org/2000/svg" width="64" height="64" viewBox="0 0 64 64">
<title>swimming</title>
<path d="M26.32 19.101l0.016-0.008c0.124-0.059 0.269-0.094 0.423-0.094 0.264 0 0.504 0.102 0.683 0.269l-0.001-0 3.724 4-13.367 11.791c0.414-0.039 0.86-0.060 1.345-0.060 2.809 0 4.331 0.71 5.554 1.281 0.927 0.432 1.54 0.719 3.018 0.719 0.044 0.001 0.097 0.002 0.149 0.002 0.555 0 1.092-0.072 1.604-0.208l-0.044 0.010 7.875-6.953 6.619 7.1c0.267 0.031 0.577 0.049 0.891 0.049 0.015 0 0.030-0 0.045-0h-0.002c1.477 0 2.090-0.286 3.017-0.719 0.774-0.398 1.675-0.736 2.618-0.969l0.087-0.018-18.865-20.245c-1.269-1.264-3.020-2.046-4.953-2.046-1.069 0-2.083 0.239-2.989 0.667l0.043-0.018-10.061 4.625 2.5 5.453z"></path>
<path d="M52 17c0 3.314-2.686 6-6 6s-6-2.686-6-6c0-3.314 2.686-6 6-6s6 2.686 6 6z"></path>
<path d="M53.428 52c-2.807 0-4.33 0.71-5.554 1.281-0.928 0.432-1.54 0.719-3.017 0.719s-2.090-0.286-3.017-0.719c-1.224-0.571-2.75-1.281-5.554-1.281s-4.331 0.71-5.555 1.281c-0.926 0.432-1.539 0.719-3.016 0.719s-2.090-0.286-3.017-0.719c-1.223-0.571-2.75-1.281-5.554-1.281s-4.331 0.71-5.554 1.281c-0.928 0.432-1.54 0.719-3.018 0.719s-2.090-0.286-3.018-0.719c-1.223-0.571-2.745-1.281-5.554-1.281v6c1.478 0 2.090 0.286 3.018 0.719 1.223 0.571 2.75 1.281 5.554 1.281s4.331-0.71 5.554-1.281c0.927-0.432 1.54-0.719 3.018-0.719s2.090 0.286 3.016 0.719c1.224 0.571 2.75 1.281 5.555 1.281s4.33-0.71 5.554-1.281c0.928-0.432 1.54-0.719 3.017-0.719s2.090 0.286 3.016 0.719c1.224 0.571 2.75 1.281 5.555 1.281s4.331-0.71 5.555-1.281c0.926-0.432 1.539-0.719 3.016-0.719s2.091 0.286 3.017 0.719c1.224 0.571 2.75 1.281 5.555 1.281v-6c-1.477 0-2.090-0.286-3.017-0.719-1.224-0.571-2.746-1.281-5.555-1.281z"></path>
<path d="M58.983 41.281c-1.224-0.571-2.75-1.281-5.555-1.281s-4.33 0.71-5.554 1.281c-0.928 0.432-1.54 0.719-3.017 0.719s-2.090-0.286-3.017-0.719c-1.224-0.571-2.75-1.281-5.554-1.281s-4.331 0.71-5.555 1.281c-0.926 0.432-1.539 0.719-3.016 0.719s-2.090-0.286-3.017-0.719c-1.223-0.571-2.75-1.281-5.554-1.281s-4.331 0.71-5.554 1.281c-0.928 0.432-1.54 0.719-3.018 0.719s-2.090-0.286-3.018-0.719c-1.223-0.571-2.745-1.281-5.554-1.281v6c1.478 0 2.090 0.286 3.018 0.719 1.223 0.571 2.75 1.281 5.554 1.281s4.331-0.71 5.554-1.281c0.927-0.432 1.54-0.719 3.018-0.719s2.090 0.286 3.016 0.719c1.224 0.571 2.75 1.281 5.555 1.281s4.33-0.71 5.554-1.281c0.928-0.432 1.54-0.719 3.017-0.719s2.090 0.286 3.016 0.719c1.224 0.571 2.75 1.281 5.555 1.281s4.331-0.71 5.555-1.281c0.926-0.432 1.539-0.719 3.016-0.719s2.091 0.286 3.017 0.719c1.224 0.571 2.75 1.281 5.555 1.281v-6c-1.477 0-2.090-0.286-3.017-0.719z"></path>
</svg>
