<!-- Generated by IcoMoon.io -->
<svg version="1.1" xmlns="http://www.w3.org/2000/svg" width="64" height="64" viewBox="0 0 64 64">
<title>sync-problem</title>
<path d="M59.471 11.426l-19.471-5.005v19.983l7.895-6.073c3.173 3.251 5.13 7.702 5.13 12.609 0 9.964-8.069 18.043-18.028 18.061h-0.002l0.010 6c13.271-0.023 24.020-10.787 24.020-24.061 0-6.29-2.413-12.016-6.365-16.303l0.015 0.017z"></path>
<path d="M16.29 19.29c3.251-3.268 7.751-5.29 12.724-5.29 0.006 0 0.012 0 0.017 0h-0.001l-0.010-6c-0.007 0-0.014 0-0.022 0-6.625 0-12.62 2.694-16.95 7.047l-0.001 0.001c-9.143 9.143-9.374 23.872-0.697 33.299l-6.795 5.227 19.471 5.005v-19.983l-7.895 6.073c-6.881-7.055-6.828-18.391 0.16-25.38z"></path>
<path d="M29 41h6v6h-6v-6z"></path>
<path d="M29 28.714l0.75 7.286h4.5l0.75-7.286v-9.714h-6v9.714z"></path>
</svg>
