<!-- Generated by IcoMoon.io -->
<svg version="1.1" xmlns="http://www.w3.org/2000/svg" width="64" height="64" viewBox="0 0 64 64">
<title>sync-disabled</title>
<path d="M53.026 32.938c0 0.010 0 0.023 0 0.035 0 2.774-0.627 5.401-1.748 7.748l0.047-0.109 4.44 4.44c2.050-3.469 3.262-7.644 3.262-12.103 0-6.293-2.413-12.022-6.365-16.313l0.015 0.017 6.795-5.227-19.471-5.005v19.983l7.895-6.073c3.172 3.233 5.13 7.668 5.13 12.56 0 0.017 0 0.034-0 0.051v-0.003z"></path>
<path d="M29.031 14l-0.010-6c-3.124 0.001-6.108 0.597-8.846 1.681l0.163-0.057 4.801 4.801c1.169-0.269 2.512-0.424 3.891-0.426h0.001z"></path>
<path d="M5.712 2h-3.712v3.712l9.696 9.696c-8.794 9.165-8.909 23.634-0.346 32.939l-6.795 5.227 19.471 5.005v-19.983l-7.895 6.073c-6.764-6.935-6.828-18.006-0.191-25.018l28.605 28.605c-2.705 1.721-6.001 2.744-9.536 2.744-0.005 0-0.009 0-0.014 0h0.001l0.010 6c0.007 0 0.014 0 0.022 0 5.191 0 9.995-1.656 13.913-4.468l-0.072 0.049 9.419 9.419h3.712v-3.712z"></path>
</svg>
