<!-- Generated by IcoMoon.io -->
<svg version="1.1" xmlns="http://www.w3.org/2000/svg" width="64" height="64" viewBox="0 0 64 64">
<title>tag</title>
<path d="M57.965 32.965l-28.087-28.087c-0.543-0.543-1.293-0.879-2.121-0.879 0 0 0 0 0 0h-19.757c-2.209 0-4 1.791-4 4v0 19.702c0 0.861 0.363 1.638 0.944 2.185l0.002 0.001 29.845 28.036c0.535 0.504 1.259 0.813 2.054 0.813 0.872 0 1.658-0.372 2.206-0.967l0.002-0.002 18.999-20.651c0.491-0.532 0.792-1.247 0.792-2.031 0-0.828-0.336-1.578-0.879-2.121v0zM17 21.5c-2.485 0-4.5-2.015-4.5-4.5s2.015-4.5 4.5-4.5c2.485 0 4.5 2.015 4.5 4.5v0c0 2.485-2.015 4.5-4.5 4.5v0z"></path>
</svg>
