<!-- Generated by IcoMoon.io -->
<svg version="1.1" xmlns="http://www.w3.org/2000/svg" width="64" height="64" viewBox="0 0 64 64">
<title>tags</title>
<path d="M39.020 7.802c-0.542-0.541-1.291-0.875-2.117-0.875 0 0 0 0-0 0h-5.33l22.409 22.327c1.090 1.087 1.765 2.59 1.765 4.251 0 1.657-0.672 3.157-1.757 4.243l-16.459 16.459 1.088 1.092c0.543 0.545 1.295 0.883 2.125 0.883 0.828 0 1.578-0.336 2.121-0.879l15.499-15.499c1.629-1.629 2.636-3.879 2.636-6.364 0-2.491-1.012-4.746-2.647-6.375l-0-0z"></path>
<path d="M4.368 31.781l23.504 23.59c0.543 0.545 1.295 0.883 2.125 0.883 0.828 0 1.578-0.336 2.121-0.879l19.75-19.75c0.543-0.543 0.879-1.293 0.879-2.121 0-0.83-0.337-1.582-0.883-2.125l-23.59-23.504c-0.543-0.541-1.291-0.875-2.117-0.875h-3.003l0.073-0.073h-4.987c-0.269 0-0.532 0.027-0.787 0.077l0.026-0.004h-9.985c-2.209 0-4 1.791-4 4v0 18.663c0 0 0 0 0 0 0 0.826 0.334 1.575 0.875 2.117l-0-0zM15.762 14.486c2.485 0 4.5 2.015 4.5 4.5s-2.015 4.5-4.5 4.5c-2.485 0-4.5-2.015-4.5-4.5v0c0-2.485 2.015-4.5 4.5-4.5v0z"></path>
</svg>
