<!-- Generated by IcoMoon.io -->
<svg version="1.1" xmlns="http://www.w3.org/2000/svg" width="64" height="64" viewBox="0 0 64 64">
<title>target</title>
<path d="M13.461 24.5h6.723c1.125-1.748 2.569-3.191 4.261-4.283l0.056-0.034v-6.723c-5.032 2.087-8.952 6.007-10.99 10.906l-0.049 0.133z"></path>
<path d="M39.5 43.817v6.723c5.032-2.087 8.952-6.007 10.99-10.906l0.049-0.133h-6.723c-1.125 1.748-2.569 3.191-4.261 4.283l-0.056 0.034z"></path>
<path d="M39.5 13.461v6.723c1.748 1.125 3.191 2.569 4.283 4.261l0.034 0.056h6.723c-2.087-5.032-6.007-8.952-10.906-10.99l-0.133-0.049z"></path>
<path d="M20.183 39.5h-6.723c2.087 5.032 6.007 8.952 10.906 10.99l0.133 0.049v-6.723c-1.748-1.125-3.191-2.569-4.283-4.261l-0.034-0.056z"></path>
<path d="M29 12.225v11.775h6v-22h-6v10.225z"></path>
<path d="M29 45.675v16.325h6v-22h-6v5.675z"></path>
<path d="M45.675 29h-5.675v6h22v-6h-16.325z"></path>
<path d="M24 35v-6h-22v6h22z"></path>
</svg>
