<!-- Generated by IcoMoon.io -->
<svg version="1.1" xmlns="http://www.w3.org/2000/svg" width="64" height="64" viewBox="0 0 64 64">
<title>tennis</title>
<path d="M18 10c0 3.866-3.134 7-7 7s-7-3.134-7-7c0-3.866 3.134-7 7-7s7 3.134 7 7z"></path>
<path d="M59.435 18.848c-0.607-5.395-3.79-9.934-8.273-12.407l-0.083-0.042c-4.276-2.304-9.43-2.5-13.898-0.625-4.913 2.060-8.5 6.282-11 10.875-1.337 2.398-2.45 5.174-3.197 8.097l-0.053 0.243c-0.218 0.886-0.358 1.785-0.596 2.666q-0.271 1-0.543 2c-1.404 5.143-3.637 9.635-6.575 13.569l0.075-0.105c-2 2.693-4.418 5-6.782 7.375-0.725 0.726-1.457 1.444-2.175 2.178-0.831 0.851-1.274 1.954-0.89 3.125 0.357 1.091 1.263 2.063 2.228 2.659 1.035 0.638 2.25 0.722 3.282 0.040 0.415-0.274 0.742-0.631 1.082-0.987l3-3.134c0.943-0.987 1.875-1.981 2.875-2.913 3.73-3.478 8.167-6.256 13.065-8.088l0.273-0.089c1.719-0.625 3.5-1.044 5.25-1.557 5.602-1.642 10.113-3.546 13.21-5.297 3.84-2.209 6.816-5.55 8.513-9.563l0.049-0.131c0.787-1.847 1.245-3.997 1.245-6.252 0-0.576-0.030-1.145-0.088-1.705l0.006 0.070zM51.776 27.59c-0.458 0.603-0.926 1.138-1.429 1.638l-0.001 0.001c-2.060 2.061-4.596 3.646-7.231 4.869-2.824 1.314-5.895 2.284-9.014 2.515-1.365 0.101-2.801 0.080-4.116-0.344-0.823-0.265-1.5-0.703-1.901-1.481-0.41-0.797-0.573-1.718-0.648-2.602-0.026-0.349-0.042-0.756-0.042-1.166 0-0.982 0.087-1.944 0.252-2.879l-0.015 0.099c0.484-3.035 1.543-5.992 2.968-8.71 1.317-2.516 2.994-4.938 5.177-6.78 2.11-1.781 4.722-2.951 7.514-3.008 0.058-0.001 0.127-0.002 0.196-0.002 5.751 0 10.451 4.502 10.768 10.174l0.001 0.028c0.149 2.768-0.825 5.453-2.48 7.649z"></path>
</svg>
