<!-- Generated by IcoMoon.io -->
<svg version="1.1" xmlns="http://www.w3.org/2000/svg" width="64" height="64" viewBox="0 0 64 64">
<title>tennis-ball</title>
<path d="M61.267 34.46c-4.424-2.561-7.085-2.455-8.5-1.712-2.278 1.191-4.27 4-6.375 6.969-2.215 3.125-4.5 6.345-7.659 8.589-2.553 1.816-5.296 2.719-8.3 2.719-1.698-0.016-3.33-0.266-4.876-0.719l0.126 0.032c-4.125-1.14-7.356-4.339-7.492-4.474s-3.349-3.362-4.489-7.487c-1.359-4.918-0.694-9.235 2.035-13.199 2.241-3.25 5.48-5.706 8.611-8.076 6.964-5.275 10.206-8.194 5.915-15.1h-0.064c-15.715 0.965-28.161 14.015-28.161 29.973 0 16.584 13.444 30.027 30.027 30.027 15.635 0 28.476-11.95 29.895-27.214 0 0-0.528-0.23-0.694-0.326z"></path>
<path d="M18.767 36.97c0.762 2.759 3.101 5.153 3.125 5.176s2.411 2.36 5.176 3.125c3.367 0.93 6.104 0.534 8.609-1.25 2.429-1.727 4.457-4.585 6.42-7.347 2.375-3.347 4.834-6.808 8.23-8.584 3.48-1.82 7.291-1.611 11.593 0.65-1.461-13.654-12.075-24.57-25.586-26.49h-0.034c1.566 3.729 1.528 7.133-0.105 10.324-1.8 3.515-5.295 6.16-8.675 8.719-6.734 5.089-10.684 8.689-8.753 15.678z"></path>
<path d="M61.826 28.771v0c0 0.004 0 0.009 0 0.013s-0 0.009-0.001 0.014l0-0.001c0-0.004 0-0.009 0-0.013s-0-0.009-0.001-0.014l0 0.001z"></path>
</svg>
