<!-- Generated by IcoMoon.io -->
<svg version="1.1" xmlns="http://www.w3.org/2000/svg" width="64" height="64" viewBox="0 0 64 64">
<title>text-strike</title>
<path d="M4 4v56h56v-56zM42.064 48.149c-2.108 2.080-4.764 3.226-7.479 3.226h-13v-6.75h13c1.254 0 2.253-0.802 2.738-1.28 0.476-0.468 0.771-1.12 0.771-1.84 0-0.093-0.005-0.184-0.014-0.275l0.001 0.011c-0.078-0.844-0.529-1.57-1.185-2.017l-0.009-0.006-4.757-3.218h10.968c0.928 1.295 1.542 2.874 1.703 4.584l0.003 0.038c0.027 0.265 0.042 0.573 0.042 0.884 0 2.599-1.063 4.951-2.778 6.642l-0.001 0.001zM54 32h-44v-4h11.043c-1.913-2.355-2.576-5.495-1.685-8.586 1.148-3.982 4.55-6.646 8.669-6.785 0.077-0.002 0.149-0.005 14.974-0.002l-0.001 6.75c-3.907-0.001-13.977-0.003-14.785-0-1.665 0.076-2.212 1.356-2.371 1.906-0.131 0.454-0.44 2.017 1.085 3.049l5.422 3.668h21.65z"></path>
</svg>
