<!-- Generated by IcoMoon.io -->
<svg version="1.1" xmlns="http://www.w3.org/2000/svg" width="64" height="64" viewBox="0 0 64 64">
<title>thumb-up</title>
<path d="M59.809 31.028l-2.155-5.747c-0.439-1.147-1.531-1.947-2.809-1.947 0 0 0 0-0 0h-17.112v-4.623l2.051-4.542c0.505-1.090 0.799-2.366 0.799-3.71 0-3.664-2.186-6.818-5.325-8.228l-0.057-0.023c-0.122-0.055-0.264-0.087-0.413-0.087-0.412 0-0.767 0.243-0.93 0.593l-0.003 0.006-10.768 23.572v17.687l9.551 5.603c0.435 0.259 0.958 0.412 1.518 0.412h14.765c0 0 0 0 0 0 1.111 0 2.081-0.604 2.6-1.502l0.008-0.014 8.080-14.201c0.247-0.426 0.392-0.938 0.392-1.483 0 0 0 0 0-0v0-0.713c0 0 0 0 0 0 0-0.378-0.070-0.741-0.198-1.074l0.007 0.021z"></path>
<path d="M15.83 21.334h-9.331c-0.004 0-0.009-0-0.015-0-1.472 0-2.703 1.030-3.012 2.409l-0.004 0.021c-0.939 4.006-1.477 8.605-1.477 13.331 0 4.421 0.471 8.733 1.366 12.887l-0.072-0.4 0.187 0.899c0.308 1.419 1.551 2.467 3.039 2.473h9.319c1.714-0.002 3.103-1.391 3.105-3.105v-25.408c-0.002-1.714-1.391-3.103-3.104-3.105h-0z"></path>
</svg>
