<!-- Generated by IcoMoon.io -->
<svg version="1.1" xmlns="http://www.w3.org/2000/svg" width="64" height="64" viewBox="0 0 64 64">
<title>thumb-down</title>
<path d="M57.775 29.844l-8.080-14.201c-0.526-0.912-1.496-1.516-2.607-1.516 0 0-0 0-0 0h-14.764c-0.56 0-1.083 0.153-1.532 0.42l0.014-0.008-7.718 4.528v23.141l8.768 19.194c0.166 0.357 0.521 0.599 0.933 0.599 0.15 0 0.292-0.032 0.42-0.090l-0.007 0.003c3.196-1.433 5.382-4.586 5.382-8.25 0-1.344-0.294-2.62-0.822-3.766l0.023 0.056-1.374-3.042v-6.123h16.602c1.278 0 2.37-0.8 2.802-1.926l0.007-0.021 2.155-5.747c0.121-0.313 0.191-0.675 0.191-1.053 0 0 0 0 0 0v0-0.713c0 0 0 0 0 0 0-0.546-0.146-1.057-0.4-1.498l0.008 0.015z"></path>
<path d="M15.934 18.126h-9.506c-1.442 0.004-2.645 1.022-2.935 2.377l-0.004 0.020-0.188 0.914c-0.828 3.828-1.302 8.226-1.302 12.735 0 4.819 0.542 9.511 1.567 14.020l-0.081-0.422c0.312 1.354 1.504 2.349 2.929 2.356h9.518c1.656-0.002 2.998-1.344 3-3v-26c-0.002-1.656-1.344-2.998-3-3h-0z"></path>
</svg>
