<!-- Generated by IcoMoon.io -->
<svg version="1.1" xmlns="http://www.w3.org/2000/svg" width="64" height="64" viewBox="0 0 64 64">
<title>timeline</title>
<path d="M57 21.414c2.957-1.219 5-4.079 5-7.416 0-4.418-3.582-8-8-8s-8 3.582-8 8c0 3.337 2.043 6.197 4.947 7.397l0.053 0.019v7.586h-16v-7.586c2.957-1.219 5-4.079 5-7.416 0-4.418-3.582-8-8-8s-8 3.582-8 8c0 3.337 2.043 6.197 4.947 7.397l0.053 0.019v7.586h-16v-7.586c2.957-1.219 5-4.079 5-7.416 0-4.418-3.582-8-8-8s-8 3.582-8 8c0 3.337 2.043 6.197 4.947 7.397l0.053 0.019v7.586h-5v6h16v7.586c-2.957 1.219-5 4.079-5 7.416 0 4.418 3.582 8 8 8s8-3.582 8-8c0-3.337-2.043-6.197-4.947-7.397l-0.053-0.019v-7.586h16v7.586c-2.957 1.219-5 4.079-5 7.416 0 4.418 3.582 8 8 8s8-3.582 8-8c0-3.337-2.043-6.197-4.947-7.397l-0.053-0.019v-7.586h16v-6h-5z"></path>
</svg>
