<!-- Generated by IcoMoon.io -->
<svg version="1.1" xmlns="http://www.w3.org/2000/svg" width="64" height="64" viewBox="0 0 64 64">
<title>timer</title>
<path d="M52 36.5c0 10.752-8.748 19.5-19.5 19.5s-19.5-8.748-19.5-19.5c0-9.558 6.912-17.531 16-19.185v7.685h1l11-11-11-11h-1v8.241c-12.41 1.711-22 12.385-22 25.259 0 14.061 11.439 25.5 25.5 25.5s25.5-11.439 25.5-25.5z"></path>
<path d="M32.5 28.549c-0.002 0-0.005 0-0.007 0-4.422 0-8.007 3.585-8.007 8.007s3.585 8.007 8.007 8.007c4.422 0 8.007-3.585 8.007-8.007 0-1.063-0.207-2.077-0.583-3.005l0.019 0.054 11.685-11.685-4.243-4.243-11.584 11.584c-0.966-0.45-2.097-0.713-3.29-0.713-0.002 0-0.003 0-0.005 0h0z"></path>
</svg>
