<!-- Generated by IcoMoon.io -->
<svg version="1.1" xmlns="http://www.w3.org/2000/svg" width="64" height="64" viewBox="0 0 64 64">
<title>toll</title>
<path d="M18.742 41.86c-1.264-2.91-2-6.299-2-9.86 0-6.995 2.838-13.327 7.425-17.909l0-0c0.606-0.606 1.243-1.181 1.907-1.724l0.046-0.036c-1.21-0.259-2.6-0.407-4.024-0.407-11.088 0-20.077 8.989-20.077 20.077s8.989 20.077 20.077 20.077c1.425 0 2.814-0.148 4.155-0.431l-0.131 0.023c-0.71-0.579-1.347-1.155-1.953-1.761l0 0c-2.254-2.248-4.084-4.92-5.363-7.885l-0.063-0.164z"></path>
<path d="M57.569 19.229q-0.153-0.186-0.311-0.368-0.316-0.364-0.648-0.713t-0.681-0.681-0.713-0.648c-0.688-0.599-1.444-1.169-2.239-1.685l-0.078-0.048q-0.815-0.522-1.681-0.966-0.649-0.333-1.325-0.619c-2.308-0.998-4.996-1.578-7.819-1.578-1.739 0-3.426 0.22-5.035 0.634l0.14-0.030c-0.2 0.050-0.399 0.102-0.597 0.158q-0.887 0.252-1.739 0.583-0.52 0.201-1.027 0.429-0.445 0.201-0.878 0.423-0.436 0.223-0.86 0.467-0.207 0.119-0.411 0.243c-1.567 0.962-2.921 2.060-4.115 3.311l-0.007 0.008c-0.163 0.171-0.322 0.346-0.479 0.522-0.163 0.184-0.324 0.369-0.481 0.559q-0.307 0.372-0.596 0.758-0.434 0.58-0.826 1.191-0.131 0.204-0.256 0.411-0.311 0.512-0.591 1.044c-0.394 0.725-0.784 1.592-1.111 2.488l-0.044 0.139c-0.091 0.254-0.177 0.511-0.258 0.77-0.213 0.65-0.418 1.463-0.57 2.294l-0.019 0.122q-0.044 0.247-0.082 0.496-0.076 0.498-0.128 1.005c-0.066 0.614-0.104 1.327-0.104 2.049 0 0.001 0 0.003 0 0.004v-0c0 0.006 0 0.012 0 0.019 0 2.124 0.33 4.172 0.942 6.093l-0.039-0.142q0.147 0.471 0.316 0.933c0.33 0.897 0.659 1.635 1.030 2.347l-0.052-0.11q0.333 0.649 0.71 1.271 0.252 0.414 0.522 0.815 0.135 0.2 0.275 0.397c0.501 0.7 0.997 1.312 1.526 1.893l-0.014-0.016q0.324 0.357 0.665 0.697c3.633 3.633 8.652 5.88 14.197 5.88s10.563-2.247 14.197-5.88v0q0.341-0.341 0.665-0.697 0.455-0.5 0.875-1.031c0.579-0.723 1.134-1.532 1.63-2.38l0.051-0.095q0.121-0.21 0.237-0.424c1.526-2.765 2.423-6.060 2.423-9.566 0-4.868-1.731-9.331-4.611-12.809l0.027 0.033z"></path>
</svg>
