<!-- Generated by IcoMoon.io -->
<svg version="1.1" xmlns="http://www.w3.org/2000/svg" width="64" height="64" viewBox="0 0 64 64">
<title>touch-app</title>
<path d="M26 30.637v-12.137c0-4.694 3.806-8.5 8.5-8.5s8.5 3.806 8.5 8.5v0 12.137c4.824-2.937 7.997-8.166 8-14.137v-0c0-9.098-7.402-16.5-16.5-16.5s-16.5 7.402-16.5 16.5c0.003 5.971 3.176 11.2 7.927 14.096l0.073 0.041z"></path>
<path d="M56.882 39.289c-0.129-0.239-0.347-0.417-0.608-0.491l-0.007-0.002-17.268-4.797v-15.5c0-0 0-0 0-0.001 0-0.162-0.008-0.322-0.025-0.479l0.002 0.020c-0.018-0.174-0.042-0.326-0.073-0.476l0.005 0.029q-0.045-0.22-0.111-0.431c-0.186-0.586-0.468-1.094-0.831-1.532l0.006 0.007q-0.138-0.167-0.29-0.32t-0.32-0.29c-0.43-0.357-0.938-0.639-1.492-0.816l-0.032-0.009q-0.211-0.066-0.431-0.111c-0.12-0.026-0.273-0.050-0.428-0.067l-0.019-0.002c-0.138-0.015-0.297-0.023-0.459-0.023-0.4 0-0.788 0.052-1.157 0.149l0.032-0.007c-0.317 0.083-0.592 0.186-0.853 0.314l0.026-0.012q-0.197 0.095-0.383 0.208c-0.623 0.383-1.132 0.892-1.504 1.496l-0.011 0.020q-0.113 0.186-0.208 0.383c-0.28 0.568-0.444 1.237-0.444 1.944 0 0.002 0 0.005 0 0.007v-0 24.5h-6l-2.912-3.559q-0.165-0.202-0.339-0.391c-0.038-0.042-0.078-0.081-0.116-0.122-0.079-0.083-0.158-0.166-0.239-0.246-0.047-0.046-0.096-0.090-0.144-0.135-0.076-0.071-0.151-0.142-0.229-0.21-0.052-0.045-0.104-0.089-0.157-0.133-0.076-0.064-0.153-0.127-0.23-0.188-0.055-0.043-0.11-0.085-0.165-0.127q-0.118-0.088-0.237-0.172-0.084-0.059-0.169-0.116c-0.082-0.055-0.165-0.108-0.248-0.16-0.056-0.035-0.113-0.070-0.17-0.104-0.087-0.052-0.176-0.102-0.265-0.15-0.055-0.030-0.109-0.061-0.163-0.090-0.097-0.051-0.196-0.099-0.294-0.146-0.048-0.023-0.095-0.047-0.144-0.070-0.127-0.058-0.255-0.113-0.384-0.165-0.021-0.009-0.042-0.018-0.063-0.027q-0.228-0.091-0.46-0.169c-0.034-0.011-0.069-0.021-0.103-0.032-0.119-0.039-0.239-0.076-0.36-0.11-0.054-0.015-0.108-0.028-0.162-0.042-0.102-0.027-0.204-0.053-0.307-0.076-0.061-0.014-0.123-0.026-0.184-0.038-0.096-0.020-0.193-0.039-0.29-0.055-0.065-0.011-0.129-0.021-0.194-0.031-0.094-0.014-0.189-0.027-0.284-0.038q-0.1-0.012-0.2-0.022-0.141-0.014-0.282-0.023c-0.067-0.005-0.134-0.009-0.201-0.012-0.095-0.004-0.19-0.006-0.285-0.008-0.069-0.001-0.139-0.003-0.208-0.002-0.058 0-0.117 0.002-0.175 0.004-0.087 0.002-0.174 0.005-0.261 0.010-0.059 0.003-0.118 0.007-0.177 0.012q-0.13 0.010-0.261 0.023c-0.058 0.006-0.116 0.012-0.174 0.019-0.089 0.011-0.177 0.023-0.266 0.036-0.055 0.008-0.111 0.016-0.166 0.026-0.094 0.016-0.188 0.034-0.281 0.053-0.049 0.010-0.098 0.019-0.147 0.029-0.111 0.024-0.222 0.051-0.332 0.080-0.031 0.008-0.062 0.015-0.093 0.023q-0.214 0.057-0.426 0.125c-0.020 0.006-0.039 0.014-0.058 0.020-0.12 0.039-0.239 0.080-0.358 0.125-0.045 0.017-0.089 0.035-0.134 0.053-0.093 0.036-0.185 0.073-0.277 0.112-0.052 0.022-0.102 0.046-0.154 0.069-0.084 0.038-0.168 0.077-0.252 0.117-0.053 0.026-0.107 0.053-0.16 0.080q-0.121 0.062-0.24 0.127-0.080 0.044-0.16 0.090c-0.079 0.045-0.156 0.092-0.234 0.14-0.052 0.032-0.104 0.064-0.155 0.097-0.079 0.051-0.157 0.104-0.235 0.157-0.048 0.033-0.097 0.066-0.145 0.1-0.084 0.060-0.167 0.123-0.25 0.187-0.040 0.030-0.080 0.059-0.119 0.091-0.121 0.096-0.241 0.195-0.358 0.298-0.173 0.134-0.297 0.323-0.347 0.54l-0.001 0.006c-0.006 0.033-0.009 0.072-0.009 0.111 0 0.022 0.001 0.043 0.003 0.064l-0-0.003c0.030 0.338 0.305 0.639 0.521 0.874 0.024 0.026 0.047 0.051 0.069 0.076l19.774 22h29.226v-22.24c0-0 0-0 0-0.001 0-0.172-0.044-0.334-0.12-0.475l0.003 0.005z"></path>
</svg>
