<!-- Generated by IcoMoon.io -->
<svg version="1.1" xmlns="http://www.w3.org/2000/svg" width="64" height="64" viewBox="0 0 64 64">
<title>traffic</title>
<path d="M36.234 18.958h2.734l-7.201-8.573c-0.737-0.875-1.833-1.427-3.059-1.427-0.001 0-0.003 0-0.004 0h-14.408c-0.001 0-0.003 0-0.004 0-1.225 0-2.322 0.552-3.054 1.421l-0.005 0.006-7.201 8.573h32.202z"></path>
<path d="M29.628 22.958h-26.628v15.5h5v5h6v-5h7v-2.861c0.001-1.597 0.576-3.059 1.531-4.191l-0.008 0.010 5.005-5.959zM10 32.708v-5.25h5.25v5.25z"></path>
<path d="M25 37.083v15.875h5v5h6v-5h15v5h6v-5h5v-15.875zM32 47.208v-5.25h5.25v5.25zM55 47.208h-5.25v-5.25h5.25z"></path>
<path d="M33.233 24.886l-6.886 8.198h34.306l-6.886-8.198c-0.737-0.875-1.833-1.427-3.059-1.427-0.001 0-0.003 0-0.004 0h-14.408c-0.001 0-0.003 0-0.004 0-1.225 0-2.322 0.552-3.054 1.421l-0.005 0.006z"></path>
</svg>
