<!-- Generated by IcoMoon.io -->
<svg version="1.1" xmlns="http://www.w3.org/2000/svg" width="64" height="64" viewBox="0 0 64 64">
<title>train-alt</title>
<path d="M27.239 43.089c-0.059-0.081-0.119-0.161-0.183-0.239-0.201-0.241-0.417-0.456-0.654-0.647l-0.009-0.007c-0.102-0.083-0.208-0.162-0.317-0.236-0.723-0.493-1.616-0.787-2.577-0.787s-1.854 0.294-2.593 0.797l0.016-0.010c-0.109 0.074-0.215 0.153-0.317 0.236-0.133 0.107-0.252 0.214-0.365 0.327l0-0c-0.002 0.002-0.005 0.005-0.007 0.008q-0.152 0.153-0.29 0.32c-0.064 0.077-0.124 0.157-0.183 0.239-0.544 0.747-0.871 1.682-0.871 2.694 0 1.195 0.455 2.283 1.202 3.102l-0.003-0.004q0.149 0.164 0.313 0.313c0.815 0.744 1.904 1.199 3.099 1.199s2.284-0.455 3.103-1.202l-0.004 0.003q0.164-0.149 0.313-0.313c0.743-0.816 1.197-1.905 1.197-3.1 0-0.805-0.206-1.561-0.568-2.22l0.012 0.024q-0.070-0.129-0.149-0.253t-0.165-0.243z"></path>
<path d="M16.678 9.089h-14.678v17h23.678l-9-17z"></path>
<path d="M30.204 26.089h27.434c-5.014-7.161-14.573-17-29.221-17h-7.213z"></path>
<path d="M3.203 39.089c1.463-1.193 3.35-1.916 5.406-1.916s3.944 0.723 5.422 1.928l-0.016-0.012c0.813 0.661 1.492 1.449 2.017 2.339l0.022 0.040c0.547-0.93 1.227-1.718 2.023-2.367l0.016-0.012c1.463-1.193 3.35-1.916 5.406-1.916s3.944 0.723 5.422 1.928l-0.016-0.012c0.813 0.661 1.492 1.449 2.017 2.339l0.022 0.040c0.547-0.93 1.226-1.718 2.023-2.367l0.016-0.013c1.464-1.189 3.351-1.909 5.406-1.909 3.789 0 7.007 2.448 8.157 5.848l0.018 0.061h7.738c4.25-0 7.696-3.446 7.696-7.696 0-1.287-0.316-2.501-0.875-3.567l0.020 0.042c-0.255-0.496-0.578-1.098-0.967-1.779h-58.178v10.184c0.365-0.435 0.759-0.823 1.187-1.171l0.016-0.013z"></path>
<path d="M11.186 41.96c-0.723-0.493-1.615-0.787-2.577-0.787-1.506 0-2.844 0.722-3.685 1.84l-0.008 0.012q-0.133 0.178-0.248 0.368t-0.213 0.392c-0.287 0.584-0.455 1.272-0.455 1.999 0 0.648 0.133 1.264 0.374 1.824l-0.011-0.030c0.039 0.092 0.082 0.182 0.127 0.271 0.056 0.111 0.114 0.219 0.178 0.324q0.058 0.095 0.12 0.187c0.074 0.109 0.153 0.215 0.236 0.318q0.12 0.149 0.252 0.286 0.076 0.080 0.156 0.156c0.079 0.076 0.161 0.149 0.245 0.219 0.183 0.152 0.387 0.295 0.602 0.421l0.022 0.012q0.088 0.051 0.178 0.098c0.618 0.33 1.352 0.523 2.131 0.523 1.117 0 2.141-0.398 2.938-1.060l-0.008 0.006q0.167-0.138 0.32-0.29c0.002-0.002 0.005-0.005 0.008-0.007 0.834-0.834 1.35-1.986 1.35-3.259 0-1.506-0.722-2.844-1.84-3.685l-0.012-0.008q-0.089-0.066-0.181-0.129z"></path>
<path d="M42.084 43.024c-0.85-1.129-2.188-1.851-3.694-1.851-0.961 0-1.854 0.294-2.593 0.797l0.016-0.010q-0.092 0.062-0.181 0.129c-1.129 0.849-1.851 2.186-1.851 3.692 0 1.235 0.486 2.357 1.277 3.184l-0.002-0.002q0.076 0.080 0.156 0.156c0.079 0.076 0.161 0.149 0.245 0.219 0.79 0.656 1.814 1.054 2.931 1.054 0.779 0 1.513-0.194 2.156-0.535l-0.025 0.012q0.090-0.047 0.178-0.098c0.237-0.138 0.441-0.281 0.632-0.439l-0.008 0.006q0.167-0.138 0.32-0.29c0.002-0.002 0.005-0.005 0.008-0.007 0.113-0.113 0.219-0.232 0.32-0.356l0.007-0.009c0.083-0.102 0.162-0.208 0.236-0.318q0.062-0.092 0.12-0.187c0.064-0.105 0.123-0.214 0.178-0.324 0.045-0.089 0.088-0.179 0.127-0.271 0.229-0.529 0.362-1.146 0.362-1.794 0-0.727-0.168-1.414-0.467-2.026l0.012 0.027q-0.097-0.202-0.213-0.392t-0.248-0.368z"></path>
<path d="M2 52.375h60v5.25h-60v-5.25z"></path>
</svg>
