<!-- Generated by IcoMoon.io -->
<svg version="1.1" xmlns="http://www.w3.org/2000/svg" width="64" height="64" viewBox="0 0 64 64">
<title>train</title>
<path d="M6 34v19.932h8.425l-6.198 8.068h6.621l6.198-8.068h21.91l6.198 8.068h6.621l-6.198-8.068h8.425v-19.932zM43 39c2.209 0 4 1.791 4 4s-1.791 4-4 4c-2.209 0-4-1.791-4-4v0c0-2.209 1.791-4 4-4v0zM21 39c2.209 0 4 1.791 4 4s-1.791 4-4 4c-2.209 0-4-1.791-4-4v0c0-2.209 1.791-4 4-4v0z"></path>
<path d="M52 2h-40c-3.312 0.004-5.996 2.688-6 6v22h52v-22c-0.004-3.312-2.688-5.996-6-6h-0zM40 15h-16v-4h16z"></path>
</svg>
