<!-- Generated by IcoMoon.io -->
<svg version="1.1" xmlns="http://www.w3.org/2000/svg" width="64" height="64" viewBox="0 0 64 64">
<title>tram</title>
<path d="M50.992 50v-17h-37.985v17h3.64l-7.5 12h6.191l7.5-12h18.322l7.5 12h6.191l-7.5-12zM39 38.764c0.528-0.474 1.23-0.764 2-0.764 1.657 0 3 1.343 3 3s-1.343 3-3 3c-1.657 0-3-1.343-3-3 0-0 0-0 0-0v0c0-0.001 0-0.003 0-0.005 0-0.886 0.385-1.681 0.997-2.228l0.003-0.003zM21 38.764c0.528-0.474 1.23-0.764 2-0.764 1.657 0 3 1.343 3 3s-1.343 3-3 3c-1.657 0-3-1.343-3-3 0-0 0-0 0-0v0c0-0.001 0-0.003 0-0.005 0-0.886 0.385-1.681 0.997-2.228l0.003-0.003z"></path>
<path d="M14.391 7.25h6.936l2.85 4.75h-5.106c-3.346 0.004-6.058 2.716-6.062 6.062v10.938h37.985v-10.938c-0.004-3.346-2.716-6.058-6.062-6.062h-5.107l2.85-4.75h6.935l2.378 4.756 4.025-2.013-2.723-5.447c-0.541-1.074-1.634-1.797-2.896-1.797-0.004 0-0.008 0-0.012 0h-36.763c-0.003 0-0.007 0-0.011 0-1.262 0-2.355 0.723-2.887 1.778l-0.008 0.019-2.724 5.447 4.025 2.012zM37.426 7.25l-2.7 4.5h-5.452l-2.7-4.5z"></path>
</svg>
