<!-- Generated by IcoMoon.io -->
<svg version="1.1" xmlns="http://www.w3.org/2000/svg" width="64" height="64" viewBox="0 0 64 64">
<title>translate</title>
<path d="M27.317 44.578l2.724-5.788c-1.073-1.125-2.163-2.341-3.249-3.65q1.752-2.416 3.288-4.942c2.887-4.657 5.335-10.028 7.070-15.71l0.128-0.489h5.722v-6h-17v-6h-6v6h-18v6h6.72c1.99 6.596 4.676 12.343 8.058 17.602l-0.165-0.273c1.252-1.589 2.535-3.362 3.794-5.312-2.042-3.433-3.87-7.405-5.273-11.573l-0.13-0.443h15.986c-3.728 11.32-10.158 19.694-15.138 24.899-5.147 5.38-9.756 8.485-11.034 9.302-0.22 0.141-0.342 0.214-0.35 0.219l1.53 2.581 1.526 2.583c0.239-0.141 5.928-3.537 12.511-10.378q1.531-1.591 2.96-3.259c1.457 1.697 2.911 3.24 4.32 4.632z"></path>
<path d="M46.927 24h-5.854l-16 35h6.597l4.114-9h16.431l4.114 9h6.597zM44 44h-5.473l5.473-11.972 5.473 11.972z"></path>
</svg>
