<!-- Generated by IcoMoon.io -->
<svg version="1.1" xmlns="http://www.w3.org/2000/svg" width="64" height="64" viewBox="0 0 64 64">
<title>transfer-within-a-station</title>
<path d="M52 34.799l10-7.899-10-7.899v5.375h-12v5.25h12v5.174z"></path>
<path d="M42 36.201l-10 7.899 10 7.9v-5.375h12v-5.25h-12v-5.174z"></path>
<path d="M33 24.375h-5.455l-3.541-6.374-9.098-3.033-9.144 3.325c-1.402 0.524-2.383 1.85-2.386 3.406v7.3h5.25v-6.161l4.633-1.685-3.618 11.088-0.139-0.045-7.33 22.803h5.514l6.053-18.831 4.636 8.5v10.331h5.25v-10.745c-0-0.636-0.164-1.234-0.452-1.755l0.009 0.019-4.648-8.522 3.090-9.469 1.795 3.232c0.631 1.12 1.813 1.864 3.169 1.865h6.412z"></path>
<path d="M27 9.5c0 2.485-2.015 4.5-4.5 4.5s-4.5-2.015-4.5-4.5c0-2.485 2.015-4.5 4.5-4.5s4.5 2.015 4.5 4.5z"></path>
</svg>
