<!-- Generated by IcoMoon.io -->
<svg version="1.1" xmlns="http://www.w3.org/2000/svg" width="64" height="64" viewBox="0 0 64 64">
<title>trash-x</title>
<path d="M12 59.026c0 0.003 0 0.007 0 0.010 0 1.631 1.318 2.955 2.947 2.964h34.106c1.63-0.010 2.947-1.333 2.947-2.964 0-0.004 0-0.007 0-0.011v0.001-38.026h-40zM22.409 34.591l3.182-3.182 6.409 6.409 6.409-6.409 3.182 3.182-6.409 6.409 6.409 6.409-3.182 3.182-6.409-6.409-6.409 6.409-3.182-3.182 6.409-6.409z"></path>
<path d="M41.625 11.375v-5.375c0-2.033-1.46-3.625-3.325-3.625h-12.6c-1.865 0-3.325 1.592-3.325 3.625v5.375h-14.375v5.25h48v-5.25zM27.625 7.625h8.75v3.75h-8.75z"></path>
</svg>
