<!-- Generated by IcoMoon.io -->
<svg version="1.1" xmlns="http://www.w3.org/2000/svg" width="64" height="64" viewBox="0 0 64 64">
<title>trash-sweep</title>
<path d="M6 59.026c0 0.003 0 0.007 0 0.010 0 1.631 1.318 2.955 2.947 2.964h30.106c1.63-0.010 2.947-1.333 2.947-2.964 0-0.004 0-0.007 0-0.011v0.001-34.026h-36z"></path>
<path d="M34.625 10c-0.002-2.001-1.624-3.623-3.625-3.625h-13c-2.001 0.002-3.623 1.624-3.625 3.625v5.375h-12.375v5.25h44v-5.25h-11.375zM19.625 11.625h9.75v3.75h-9.75z"></path>
<path d="M48 25.375h14v5.25h-14v-5.25z"></path>
<path d="M48 37.375h11v5.25h-11v-5.25z"></path>
<path d="M48 49.375h8v5.25h-8v-5.25z"></path>
</svg>
