<!-- Generated by IcoMoon.io -->
<svg version="1.1" xmlns="http://www.w3.org/2000/svg" width="64" height="64" viewBox="0 0 64 64">
<title>truck</title>
<path d="M39 31v-21c-0.003-2.208-1.792-3.997-4-4h-29c-2.208 0.003-3.997 1.792-4 4v21z"></path>
<path d="M6 35h-4v16h5.201c0.968-4.593 4.987-7.99 9.799-7.99s8.831 3.398 9.787 7.925l0.012 0.065h8.402c0.968-4.593 4.987-7.99 9.799-7.99s8.831 3.398 9.787 7.925l0.012 0.065h7.201v-16h-56z"></path>
<path d="M61.458 26.595l0 0-6.222-8.889c-0.733-1.037-1.927-1.706-3.277-1.706h-8.959v15h19v-2.685c0-0.001 0-0.003 0-0.005 0-0.643-0.203-1.238-0.549-1.725l0.006 0.009z"></path>
<path d="M23 53c0 3.314-2.686 6-6 6s-6-2.686-6-6c0-3.314 2.686-6 6-6s6 2.686 6 6z"></path>
<path d="M51 53c0 3.314-2.686 6-6 6s-6-2.686-6-6c0-3.314 2.686-6 6-6s6 2.686 6 6z"></path>
</svg>
