<!-- Generated by IcoMoon.io -->
<svg version="1.1" xmlns="http://www.w3.org/2000/svg" width="64" height="64" viewBox="0 0 64 64">
<title>tty</title>
<path d="M18 53h28v6h-28v-6z"></path>
<path d="M8 53h6v6h-6v-6z"></path>
<path d="M50 53h6v6h-6v-6z"></path>
<path d="M7 33h6v6h-6v-6z"></path>
<path d="M18 33h6v6h-6v-6z"></path>
<path d="M29 33h6v6h-6v-6z"></path>
<path d="M40 33h6v6h-6v-6z"></path>
<path d="M51 33h6v6h-6v-6z"></path>
<path d="M14 43h6v6h-6v-6z"></path>
<path d="M24 43h6v6h-6v-6z"></path>
<path d="M34 43h6v6h-6v-6z"></path>
<path d="M44 43h6v6h-6v-6z"></path>
<path d="M59.684 16.527l-1.848-1.848c-14.242-14.242-37.332-14.242-51.573 0l-1.848 1.848c-0.195 0.195-0.316 0.465-0.316 0.763 0 0.086 0.010 0.17 0.029 0.25l-0.001-0.007 3.103 9.129 15.108-2.158 1.079-7.554c2.209-2.209 5.262-3.576 8.633-3.576s6.424 1.367 8.633 3.576v0l1.079 7.554 15.108 2.158 3.103-9.129c0.018-0.073 0.028-0.157 0.028-0.243 0-0.298-0.121-0.568-0.316-0.763v0z"></path>
</svg>
