<!-- Generated by IcoMoon.io -->
<svg version="1.1" xmlns="http://www.w3.org/2000/svg" width="64" height="64" viewBox="0 0 64 64">
<title>tv-slash</title>
<path d="M60 11h-20.695l9-9h-8.485l-7.789 7.789-7.789-7.789h-8.485l9 9h-3.66l39.807 39.782c0.655-0.337 1.096-1.008 1.096-1.782v-36c0-1.105-0.895-2-2-2v0z"></path>
<path d="M20 54h24v8h-24v-8z"></path>
<path d="M2 2v3.678l5.322 5.322h-3.322c-1.105 0-2 0.895-2 2v0 36c0 1.105 0.895 2 2 2v0h43.322l11 11h3.678v-3.693l-56.286-56.307z"></path>
</svg>
