<!-- Generated by IcoMoon.io -->
<svg version="1.1" xmlns="http://www.w3.org/2000/svg" width="64" height="64" viewBox="0 0 64 64">
<title>universal-access</title>
<path d="M32 2c-16.569 0-30 13.431-30 30s13.431 30 30 30 30-13.431 30-30-13.431-30-30-30zM31.766 12c2.077 0 3.761 1.684 3.761 3.761s-1.684 3.761-3.761 3.761c-2.077 0-3.761-1.684-3.761-3.761v0c0-2.077 1.684-3.761 3.761-3.761v0zM48 26.25h-12v10.744l4.061 15.006h-4.659l-3.403-12.699-3.403 12.699h-4.659l4.061-15.006v-10.744h-12v-4.5h32z"></path>
</svg>
