<!-- Generated by IcoMoon.io -->
<svg version="1.1" xmlns="http://www.w3.org/2000/svg" width="64" height="64" viewBox="0 0 64 64">
<title>update</title>
<path d="M34.031 18.019l-6 0.024 0.068 16.974 14.613 6.738 2.513-5.449-11.141-5.137-0.053-13.151z"></path>
<path d="M62 7.172l-7.199 7.199c-5.336-6.885-13.607-11.274-22.903-11.274-15.961 0-28.901 12.939-28.901 28.901s12.939 28.901 28.901 28.901c7.877 0 15.018-3.151 20.231-8.262l-0.005 0.005-4.199-4.285c-4.107 4.045-9.748 6.542-15.973 6.542-0.019 0-0.037 0-0.056-0h0.003c-12.626 0-22.899-10.272-22.899-22.899s10.273-22.899 22.899-22.899c7.634 0.025 14.391 3.759 18.565 9.494l0.046 0.066-7.339 7.339h18.828z"></path>
</svg>
