<!-- Generated by IcoMoon.io -->
<svg version="1.1" xmlns="http://www.w3.org/2000/svg" width="64" height="64" viewBox="0 0 64 64">
<title>user-secret</title>
<path d="M46.546 4.245c-0.346-1.148-1.394-1.97-2.634-1.97-0.236 0-0.466 0.030-0.685 0.086l0.019-0.004-16.509 4.127-5.75-3.833c-0.349-0.236-0.779-0.376-1.243-0.376 0 0-0 0-0 0v0c-1.012 0-1.867 0.671-2.145 1.591l-0.004 0.016-3.469 13.627h35.785z"></path>
<path d="M52.4 22.009h-40.768l-9.632 7.843v3.1h60.012v-3.1l-9.612-7.843z"></path>
<path d="M46.358 38.208c-0.003 0-0.006 0-0.009 0-3.239 0-6.14 1.451-8.087 3.738l-0.012 0.015c-1.792-1.234-4.009-1.971-6.398-1.971-2.41 0-4.645 0.75-6.484 2.029l0.037-0.025c-1.899-2.136-4.655-3.475-7.723-3.475-5.699 0-10.319 4.62-10.319 10.319s4.62 10.319 10.319 10.319c5.699 0 10.319-4.62 10.319-10.319 0-0.728-0.075-1.439-0.219-2.125l0.012 0.067c1.073-0.959 2.497-1.545 4.058-1.545 1.565 0 2.992 0.589 4.072 1.557l-0.006-0.005c-0.128 0.62-0.202 1.333-0.202 2.062 0 5.877 4.765 10.642 10.642 10.642s10.642-4.765 10.642-10.642c0-5.877-4.765-10.642-10.642-10.642v0z"></path>
</svg>
