<!-- Generated by IcoMoon.io -->
<svg version="1.1" xmlns="http://www.w3.org/2000/svg" width="64" height="64" viewBox="0 0 64 64">
<title>user-follow</title>
<path d="M39 62c-2.687-2.688-4.349-6.4-4.349-10.501 0-3.404 1.145-6.541 3.071-9.045l-0.026 0.035-5.905-3.732 4.802-7.546c0.883-1.368 1.407-3.039 1.407-4.832v0-11.379c0-7.18-5.82-13-13-13v0 0c-7.18 0-13 5.82-13 13v0 11.379c0 1.793 0.524 3.464 1.428 4.867l-0.021-0.036 4.802 7.546-12.483 7.888c-2.254 1.441-3.726 3.93-3.726 6.763v0 8.663l37.014-0.057c-0.005-0.005-0.010-0.009-0.014-0.014z"></path>
<path d="M52.125 48.875v-6.875h-5.25v6.875h-6.875v5.25h6.875v6.875h5.25v-6.875h6.875v-5.25h-6.875z"></path>
</svg>
