<!-- Generated by IcoMoon.io -->
<svg version="1.1" xmlns="http://www.w3.org/2000/svg" width="64" height="64" viewBox="0 0 64 64">
<title>user</title>
<path d="M51.274 46.645l-12.483-7.888 4.802-7.546c0.883-1.368 1.407-3.039 1.407-4.832v0-11.379c0-7.18-5.82-13-13-13v0 0c-7.18 0-13 5.82-13 13v0 11.379c0 1.793 0.524 3.464 1.428 4.867l-0.021-0.036 4.802 7.546-12.483 7.888c-2.254 1.441-3.726 3.93-3.726 6.763v0 8.663l46-0.071v-8.592c0 0 0 0 0 0 0-2.833-1.473-5.322-3.694-6.744l-0.032-0.019z"></path>
</svg>
