<!-- Generated by IcoMoon.io -->
<svg version="1.1" xmlns="http://www.w3.org/2000/svg" width="64" height="64" viewBox="0 0 64 64">
<title>user-female</title>
<path d="M51.274 46.645l-12.82-8.101 2.502-4.544h4.978c2.209 0 4-1.791 4-4 0-0.569-0.119-1.111-0.333-1.601l0.010 0.026s-3.922-10.68-4.646-14.39c-1.293-6.622-6.109-12.034-12.964-12.034v0c-6.834 0-11.66 5.381-12.96 11.974-0.734 3.723-4.651 14.45-4.651 14.45-0.204 0.465-0.323 1.006-0.323 1.576 0 2.209 1.791 4 4 4h4.978l2.502 4.544-12.82 8.101c-2.254 1.441-3.726 3.93-3.726 6.763v0 8.663l46-0.071v-8.592c0-2.833-1.473-5.322-3.694-6.744l-0.032-0.019z"></path>
</svg>
