<!-- Generated by IcoMoon.io -->
<svg version="1.1" xmlns="http://www.w3.org/2000/svg" width="64" height="64" viewBox="0 0 64 64">
<title>user-unfollow</title>
<path d="M34.651 51.5v0c0-0.007 0-0.014 0-0.022 0-3.397 1.146-6.526 3.072-9.023l-0.026 0.034-5.906-3.732 4.802-7.546c0.883-1.368 1.407-3.039 1.407-4.832v0-11.379c0-7.18-5.82-13-13-13v0 0c-7.18 0-13 5.82-13 13v0 11.379c0 1.793 0.524 3.464 1.428 4.867l-0.021-0.036 4.802 7.546-12.483 7.888c-2.254 1.441-3.726 3.93-3.726 6.763v0 8.663l37.014-0.057c-2.695-2.681-4.364-6.393-4.364-10.495 0-0.007 0-0.013 0-0.020v0.001z"></path>
<path d="M54.361 42.926l-4.861 4.861-4.861-4.861-3.712 3.712 4.861 4.861-4.861 4.861 3.712 3.712 4.861-4.861 4.861 4.861 3.712-3.712-4.861-4.861 4.861-4.861-3.712-3.712z"></path>
</svg>
