<!-- Generated by IcoMoon.io -->
<svg version="1.1" xmlns="http://www.w3.org/2000/svg" width="64" height="64" viewBox="0 0 64 64">
<title>view-carousel</title>
<path d="M21 8h22c1.657 0 3 1.343 3 3v42c0 1.657-1.343 3-3 3h-22c-1.657 0-3-1.343-3-3v-42c0-1.657 1.343-3 3-3z"></path>
<path d="M5 16h6c1.657 0 3 1.343 3 3v26c0 1.657-1.343 3-3 3h-6c-1.657 0-3-1.343-3-3v-26c0-1.657 1.343-3 3-3z"></path>
<path d="M53 16h6c1.657 0 3 1.343 3 3v26c0 1.657-1.343 3-3 3h-6c-1.657 0-3-1.343-3-3v-26c0-1.657 1.343-3 3-3z"></path>
</svg>
