<!-- Generated by IcoMoon.io -->
<svg version="1.1" xmlns="http://www.w3.org/2000/svg" width="64" height="64" viewBox="0 0 64 64">
<title>voicemail</title>
<path d="M48 18c-0.002 0-0.005 0-0.007 0-7.728 0-13.993 6.265-13.993 13.993 0 2.997 0.943 5.775 2.547 8.052l-0.030-0.044h-9.035c1.57-2.231 2.509-5.004 2.509-7.996 0-7.73-6.266-13.996-13.996-13.996s-13.996 6.266-13.996 13.996c0 7.379 5.711 13.425 12.954 13.958l0.046 0.003v0.036h34v-0.036c7.29-0.538 13-6.584 13-13.964 0-7.732-6.268-14-14-14-0 0-0 0-0 0v0zM8 32c0-4.418 3.582-8 8-8s8 3.582 8 8c0 4.418-3.582 8-8 8v0c-4.416-0.005-7.995-3.584-8-7.999v-0.001zM48 40c-4.418 0-8-3.582-8-8s3.582-8 8-8c4.418 0 8 3.582 8 8v0c-0.005 4.416-3.584 7.995-7.999 8h-0.001z"></path>
</svg>
