<!-- Generated by IcoMoon.io -->
<svg version="1.1" xmlns="http://www.w3.org/2000/svg" width="64" height="64" viewBox="0 0 64 64">
<title>voice-over-slash</title>
<path d="M42.028 28.249l4.676 3.755c2.416-2.982 3.879-6.822 3.879-11.003 0-4.195-1.472-8.046-3.928-11.065l0.025 0.032-4.668 3.765c1.601 1.967 2.571 4.504 2.571 7.268 0 2.755-0.964 5.285-2.572 7.27l0.017-0.022z"></path>
<path d="M50.146 34.767l4.688 3.764c3.841-4.754 6.166-10.871 6.166-17.531 0-6.681-2.34-12.816-6.244-17.63l0.041 0.052-4.68 3.774c3.041 3.737 4.883 8.555 4.883 13.804 0 5.232-1.83 10.037-4.886 13.808l0.032-0.041z"></path>
<path d="M38 26.379v-11.379c0-7.18-5.82-13-13-13v0 0c-0.005 0-0.011 0-0.016 0-3.562 0-6.789 1.437-9.131 3.764l0.001-0.001 22.037 22.008c0.069-0.418 0.109-0.9 0.11-1.392v-0z"></path>
<path d="M5.714 2h-3.714v3.678l10 10v10.701c0 0 0 0 0 0 0 1.793 0.524 3.464 1.428 4.867l-0.021-0.036 4.802 7.546-12.483 7.888c-2.254 1.441-3.726 3.93-3.726 6.763v0 8.663l46-0.071v-8.592c-0-0.703-0.091-1.385-0.261-2.035l0.012 0.056 10.571 10.571h3.678v-3.693z"></path>
</svg>
