<!-- Generated by IcoMoon.io -->
<svg version="1.1" xmlns="http://www.w3.org/2000/svg" width="64" height="64" viewBox="0 0 64 64">
<title>voice-over-record</title>
<path d="M42.028 28.249l4.676 3.755c2.416-2.982 3.879-6.822 3.879-11.003 0-4.195-1.472-8.046-3.928-11.065l0.025 0.032-4.668 3.765c1.601 1.967 2.571 4.504 2.571 7.268 0 2.755-0.964 5.285-2.572 7.27l0.017-0.022z"></path>
<path d="M54.797 3.422l-4.68 3.774c3.041 3.737 4.883 8.555 4.883 13.804 0 5.232-1.83 10.037-4.886 13.808l0.032-0.041 4.688 3.764c3.841-4.754 6.166-10.871 6.166-17.531 0-6.681-2.34-12.816-6.244-17.63l0.041 0.052z"></path>
<path d="M44.274 46.645l-12.483-7.888 4.802-7.546c0.883-1.368 1.407-3.039 1.407-4.832 0 0 0 0 0 0v0-11.379c0-7.18-5.82-13-13-13s-13 5.82-13 13v0 11.379c0 0 0 0 0 0 0 1.793 0.524 3.464 1.428 4.867l-0.021-0.036 4.802 7.546-12.483 7.888c-2.254 1.441-3.726 3.93-3.726 6.763v0 8.663l46-0.071v-8.592c0 0 0 0 0 0 0-2.833-1.473-5.322-3.694-6.744l-0.032-0.019z"></path>
</svg>
