<!-- Generated by IcoMoon.io -->
<svg version="1.1" xmlns="http://www.w3.org/2000/svg" width="64" height="64" viewBox="0 0 64 64">
<title>volume-high</title>
<path d="M19 17h-17v30h17l13 15h4v-60h-4l-13 15z"></path>
<path d="M51 32c-0.008-6.272-4.821-11.418-10.955-11.955l-0.045-0.003v6.043c2.856 0.495 5 2.955 5 5.915s-2.144 5.42-4.965 5.91l-0.036 0.005v6.043c6.179-0.54 10.992-5.686 11-11.957v-0.001z"></path>
<path d="M40 6.308v6.094c9.118 1.858 16 9.939 16 19.598s-6.882 17.74-16 19.598v6.094c12.444-1.93 22-12.716 22-25.692s-9.556-23.762-22-25.692z"></path>
</svg>
