<!-- Generated by IcoMoon.io -->
<svg version="1.1" xmlns="http://www.w3.org/2000/svg" width="64" height="64" viewBox="0 0 64 64">
<title>wallet</title>
<path d="M58.622 13.372h-50.997v-0.543c0-2.321 1.882-4.203 4.203-4.203h43.172v-5.25h-43.172c0 0-0 0-0 0-5.221 0-9.453 4.232-9.453 9.453 0 0 0 0 0 0v0 36.343c0 0 0 0 0 0 0 5.221 4.232 9.453 9.453 9.453 0 0 0 0 0 0h46.675c1.996-0.004 3.615-1.618 3.625-3.612v-0.001l0.118-38.002c0-0.004 0-0.008 0-0.013 0-2.002-1.623-3.625-3.625-3.625v0zM54 37h-5v-5h5z"></path>
</svg>
