<!-- Generated by IcoMoon.io -->
<svg version="1.1" xmlns="http://www.w3.org/2000/svg" width="64" height="64" viewBox="0 0 64 64">
<title>watch</title>
<path d="M44.324 15.944l-2.324-13.944h-20l-2.324 13.944c3.372-2.616 7.664-4.194 12.324-4.194s8.952 1.578 12.37 4.228l-0.046-0.034z"></path>
<path d="M19.676 48.056l2.324 13.944h20l2.324-13.944c-3.372 2.616-7.664 4.194-12.324 4.194s-8.952-1.578-12.37-4.228l0.046 0.034z"></path>
<path d="M47.75 32c0 8.698-7.051 15.75-15.75 15.75s-15.75-7.051-15.75-15.75c0-8.698 7.052-15.75 15.75-15.75s15.75 7.052 15.75 15.75z"></path>
</svg>
