<!-- Generated by IcoMoon.io -->
<svg version="1.1" xmlns="http://www.w3.org/2000/svg" width="64" height="64" viewBox="0 0 64 64">
<title>waves</title>
<path d="M11.043 17.918c1.7-1.038 3.756-1.653 5.957-1.653s4.257 0.615 6.008 1.682l-0.051-0.029c2.58 1.577 5.703 2.51 9.043 2.51s6.463-0.933 9.121-2.554l-0.077 0.044c1.7-1.038 3.756-1.653 5.957-1.653s4.257 0.615 6.008 1.682l-0.051-0.029c2.582 1.57 5.704 2.5 9.043 2.503h0.001v-6c-2.199-0.002-4.255-0.614-6.008-1.676l0.052 0.029c-2.581-1.576-5.703-2.51-9.043-2.51s-6.463 0.934-9.121 2.554l0.077-0.044c-1.7 1.038-3.756 1.653-5.957 1.653s-4.257-0.615-6.007-1.682l0.051 0.029c-2.581-1.576-5.703-2.51-9.043-2.51s-6.463 0.934-9.121 2.554l0.077-0.044c-1.701 1.033-3.757 1.645-5.956 1.647h-0v6.001c3.339-0.003 6.461-0.933 9.122-2.547l-0.078 0.044z"></path>
<path d="M37.957 24.195c-1.7 1.038-3.756 1.653-5.957 1.653s-4.257-0.615-6.007-1.682l0.051 0.029c-2.581-1.576-5.703-2.51-9.043-2.51s-6.463 0.933-9.121 2.554l0.077-0.044c-1.701 1.033-3.757 1.645-5.956 1.647h-0v6.001c3.339-0.003 6.461-0.933 9.122-2.547l-0.079 0.044c1.7-1.038 3.756-1.653 5.957-1.653s4.257 0.615 6.007 1.682l-0.051-0.029c2.581 1.577 5.703 2.51 9.043 2.51s6.463-0.933 9.121-2.554l-0.077 0.044c1.7-1.038 3.756-1.653 5.957-1.653s4.257 0.615 6.007 1.682l-0.051-0.029c2.582 1.57 5.704 2.5 9.043 2.503h0.001v-6.001c-2.199-0.001-4.255-0.614-6.008-1.676l0.052 0.029c-2.581-1.576-5.703-2.51-9.043-2.51s-6.463 0.933-9.121 2.554l0.077-0.044z"></path>
<path d="M37.957 35.35c-1.7 1.038-3.756 1.653-5.957 1.653s-4.257-0.615-6.007-1.682l0.051 0.029c-2.581-1.577-5.703-2.51-9.043-2.51s-6.463 0.934-9.121 2.554l0.077-0.044c-1.701 1.033-3.757 1.645-5.956 1.647h-0v6.001c3.339-0.003 6.461-0.933 9.122-2.547l-0.079 0.044c1.7-1.038 3.756-1.653 5.957-1.653s4.257 0.615 6.008 1.682l-0.051-0.029c2.58 1.577 5.703 2.51 9.043 2.51s6.463-0.934 9.121-2.554l-0.077 0.044c1.7-1.038 3.756-1.653 5.957-1.653s4.257 0.615 6.008 1.682l-0.051-0.029c2.582 1.57 5.704 2.5 9.043 2.502h0.001v-6.001c-2.199-0.002-4.255-0.614-6.008-1.676l0.052 0.029c-2.581-1.577-5.703-2.51-9.043-2.51s-6.463 0.934-9.121 2.554l0.077-0.044z"></path>
<path d="M56.043 46.35c-2.581-1.577-5.703-2.51-9.043-2.51s-6.463 0.934-9.121 2.554l0.077-0.044c-1.7 1.038-3.756 1.653-5.957 1.653s-4.257-0.615-6.007-1.682l0.051 0.029c-2.581-1.577-5.703-2.51-9.043-2.51s-6.463 0.934-9.121 2.554l0.077-0.044c-1.701 1.033-3.757 1.645-5.956 1.647h-0v6.001c3.339-0.003 6.461-0.933 9.122-2.547l-0.079 0.044c1.7-1.038 3.756-1.653 5.957-1.653s4.257 0.615 6.008 1.682l-0.051-0.029c2.58 1.577 5.703 2.51 9.043 2.51s6.463-0.934 9.121-2.554l-0.077 0.044c1.7-1.038 3.756-1.653 5.957-1.653s4.257 0.615 6.008 1.682l-0.051-0.029c2.582 1.569 5.704 2.5 9.043 2.502h0.001v-6c-2.199-0.001-4.255-0.614-6.008-1.676l0.052 0.029z"></path>
</svg>
