<!-- Generated by IcoMoon.io -->
<svg version="1.1" xmlns="http://www.w3.org/2000/svg" width="64" height="64" viewBox="0 0 64 64">
<title>wc</title>
<path d="M25 9.5c0 4.142-3.358 7.5-7.5 7.5s-7.5-3.358-7.5-7.5c0-4.142 3.358-7.5 7.5-7.5s7.5 3.358 7.5 7.5z"></path>
<path d="M54 9.5c0 4.142-3.358 7.5-7.5 7.5s-7.5-3.358-7.5-7.5c0-4.142 3.358-7.5 7.5-7.5s7.5 3.358 7.5 7.5z"></path>
<path d="M23 19h-11c-3.312 0.004-5.996 2.688-6 6v19h5v18h13v-18h5v-19c-0.004-3.312-2.688-5.996-6-6h-0z"></path>
<path d="M54.22 24.169c-1.078-3.035-3.925-5.169-7.271-5.169-3.281 0-6.082 2.052-7.19 4.942l-0.018 0.053-7.741 20.642v4.363h10v13h9v-13h10v-5.338z"></path>
</svg>
