<!-- Generated by IcoMoon.io -->
<svg version="1.1" xmlns="http://www.w3.org/2000/svg" width="64" height="64" viewBox="0 0 64 64">
<title>weights</title>
<path d="M59.693 46.75l-5.125-5.117 2.934-2.935c0.181-0.181 0.293-0.431 0.293-0.707s-0.112-0.526-0.293-0.707l-4.405-4.409c-0.181-0.181-0.431-0.293-0.707-0.293s-0.526 0.112-0.707 0.293l-7.366 7.366-20.39-20.394 7.366-7.366c0.181-0.181 0.293-0.431 0.293-0.707s-0.112-0.527-0.293-0.707v0l-4.411-4.411c-0.181-0.181-0.431-0.293-0.707-0.293s-0.526 0.112-0.707 0.293l-2.934 2.934-5.125-5.119c-0.181-0.181-0.431-0.293-0.707-0.293s-0.526 0.112-0.707 0.293v0l-11.688 11.694c-0.181 0.181-0.293 0.431-0.293 0.707s0.112 0.526 0.293 0.707l5.119 5.119-2.934 2.929c-0.181 0.181-0.293 0.431-0.293 0.707s0.112 0.526 0.293 0.707v0l4.411 4.411c0.181 0.181 0.431 0.293 0.707 0.293s0.526-0.112 0.707-0.293l7.366-7.366 20.39 20.394-7.366 7.366c-0.181 0.181-0.293 0.431-0.293 0.708s0.112 0.526 0.293 0.708l4.417 4.411c0.181 0.181 0.431 0.293 0.707 0.293s0.526-0.112 0.707-0.293l2.934-2.934 5.119 5.117c0.181 0.181 0.431 0.293 0.707 0.293s0.526-0.112 0.707-0.293l11.694-11.693c0.179-0.181 0.289-0.429 0.289-0.703 0-0.277-0.113-0.528-0.295-0.709l-0-0z"></path>
</svg>
