<!-- Generated by IcoMoon.io -->
<svg version="1.1" xmlns="http://www.w3.org/2000/svg" width="64" height="64" viewBox="0 0 64 64">
<title>weightlifitng</title>
<path d="M53 2v6h-42v-6h-9v16h9v-6h5.444l1.024 13.306 10.032 8.361v7.708h-9.984l-0.961 17.304h5.259l0.67-12.054h19.032l0.67 12.054h5.259l-0.961-17.304h-9.984v-7.707l10.032-8.361 1.024-13.306h5.444v6h9v-16zM41.468 22.694l-9.468 7.889-9.468-7.889-0.823-10.694h20.58z"></path>
<path d="M38 20c0 3.314-2.686 6-6 6s-6-2.686-6-6c0-3.314 2.686-6 6-6s6 2.686 6 6z"></path>
</svg>
