<!-- Generated by IcoMoon.io -->
<svg version="1.1" xmlns="http://www.w3.org/2000/svg" width="64" height="64" viewBox="0 0 64 64">
<title>wheelchair</title>
<path d="M31 8.761c0 2.629-2.132 4.761-4.761 4.761s-4.761-2.132-4.761-4.761c0-2.629 2.132-4.761 4.761-4.761s4.761 2.132 4.761 4.761z"></path>
<path d="M55.272 45.090l-4.989 1.247-2.18-10.175c-0.407-1.816-2.002-3.154-3.91-3.162h-10.198l-0.577-5h12.582v-6h-13.275l-0.415-3.593c-0.178-1.502-1.445-2.656-2.98-2.656-0.121 0-0.241 0.007-0.358 0.021l0.014-0.001-6.954 0.802 2.588 22.427h17.954l3.142 14.663 11.011-2.753z"></path>
<path d="M39.772 47.399c-5.040 8.601-13.772 8.601-13.772 8.601-0.001 0-0.002 0-0.004 0-7.73 0-13.996-6.266-13.996-13.996 0-5.169 2.802-9.683 6.969-12.107l0.067-0.036-0.729-6.32c-7.22 3.020-12.307 10.156-12.307 18.459 0 11.028 8.972 20 20 20 0.001 0 0.002 0 0.003 0 6.159 0 11.666-2.789 15.329-7.172l0.026-0.032-0.041-0.19z"></path>
</svg>
