<!-- Generated by IcoMoon.io -->
<svg version="1.1" xmlns="http://www.w3.org/2000/svg" width="64" height="64" viewBox="0 0 64 64">
<title>wifi-signal-off</title>
<path d="M32 4.766c-0.001 0-0.001 0-0.002 0-4 0-7.901 0.428-11.658 1.24l0.362-0.066 27.329 36.162 14.969-21.378v-6.386c-8.677-5.992-19.419-9.572-30.998-9.572-0.001 0-0.001 0-0.002 0h0z"></path>
<path d="M8 2v3.774l2.534 3.353c-3.657 1.566-6.791 3.31-9.718 5.33l0.184-0.12v6.386l27.502 39.276h6.997l6.484-9.26 5.487 7.26h3.531v-4.036l-39.272-51.964z"></path>
</svg>
