<!-- Generated by IcoMoon.io -->
<svg version="1.1" xmlns="http://www.w3.org/2000/svg" width="64" height="64" viewBox="0 0 64 64">
<title>wifi-signal-lock-1</title>
<path d="M46.559 33.743l-4.652 6.643c-2.88-1.504-6.291-2.386-9.907-2.386s-7.027 0.882-10.028 2.443l0.121-0.057-15.689-22.405c7.259-4.529 16.075-7.215 25.517-7.215 0.028 0 0.055 0 0.083 0h-0.004q2.328 0 4.625 0.217v-6.021q-2.303-0.194-4.625-0.197c-0.001 0-0.001 0-0.002 0-11.579 0-22.322 3.579-31.183 9.692l0.184-0.12v6.386l27.502 39.276h6.997l17.818-25.446c-0.491 0.057-1.060 0.089-1.636 0.090h-0c-0.004 0-0.009 0-0.014 0-1.832 0-3.588-0.33-5.21-0.934l0.103 0.034z"></path>
<path d="M58.992 13v-3.559c0-4.159-3.372-7.531-7.531-7.531s-7.531 3.372-7.531 7.531v0 3.559h-2.75v6.644c0 5.799 4.701 10.5 10.5 10.5s10.5-4.701 10.5-10.5v0-6.644zM54.492 12.75h-6.063v-3.309c0-1.674 1.357-3.031 3.031-3.031s3.031 1.357 3.031 3.031v0z"></path>
</svg>
