<!-- Generated by IcoMoon.io -->
<svg version="1.1" xmlns="http://www.w3.org/2000/svg" width="64" height="64" viewBox="0 0 64 64">
<title>wifi</title>
<path d="M52.39 15.256c-0.465-0.203-0.931-0.4-1.401-0.589-0.381-0.153-0.765-0.299-1.149-0.443q-0.787-0.294-1.582-0.563c-4.85-1.687-10.44-2.661-16.258-2.661s-11.408 0.974-16.617 2.769l0.358-0.107q-0.796 0.268-1.582 0.563c-0.385 0.144-0.768 0.29-1.149 0.443-0.47 0.189-0.937 0.386-1.401 0.589-3.396 1.495-6.307 3.155-9.022 5.074l0.16-0.107 6.299 8.996c6.396-4.527 14.358-7.237 22.953-7.237s16.557 2.709 23.079 7.321l-0.125-0.084 6.299-8.996c-2.555-1.812-5.467-3.472-8.538-4.838l-0.325-0.129z"></path>
<path d="M11.628 32.906l5.777 8.25c4.067-2.879 9.13-4.602 14.595-4.602s10.528 1.723 14.675 4.655l-0.080-0.053 5.777-8.25c-5.677-4.018-12.744-6.423-20.372-6.423s-14.695 2.405-20.483 6.498l0.111-0.075z"></path>
<path d="M40.374 42.802q-0.398-0.173-0.802-0.33-0.444-0.172-0.895-0.325c-0.71-0.251-1.592-0.492-2.495-0.675l-0.135-0.023q-0.063-0.013-0.127-0.025-0.754-0.144-1.518-0.233c-0.721-0.088-1.556-0.138-2.403-0.138s-1.682 0.050-2.502 0.148l0.099-0.010q-0.764 0.088-1.518 0.233-0.064 0.012-0.127 0.025c-1.038 0.206-1.92 0.447-2.777 0.742l0.147-0.044q-0.451 0.152-0.895 0.325-0.404 0.157-0.802 0.33c-0.175 0.076-0.349 0.154-0.522 0.235-1.199 0.567-2.221 1.168-3.184 1.849l0.066-0.044 12.014 17.158 12.014-17.158c-0.897-0.637-1.919-1.238-2.992-1.751l-0.126-0.054c-0.173-0.081-0.347-0.159-0.522-0.235z"></path>
</svg>
