<!-- Generated by IcoMoon.io -->
<svg version="1.1" xmlns="http://www.w3.org/2000/svg" width="64" height="64" viewBox="0 0 64 64">
<title>wifi-signal-lock-2</title>
<path d="M39.744 28.718c-2.326-0.605-4.996-0.952-7.747-0.952-5.816 0-11.269 1.552-15.968 4.265l0.154-0.082-9.78-13.967c7.259-4.529 16.075-7.215 25.517-7.215 0.028 0 0.055 0 0.083 0h-0.004q2.328 0 4.625 0.217v-6.021q-2.303-0.194-4.625-0.197c-0.001 0-0.001 0-0.002 0-11.579 0-22.322 3.579-31.183 9.692l0.184-0.12v6.386l27.502 39.276h6.997l17.818-25.446c-0.491 0.057-1.060 0.090-1.636 0.090-4.855 0-9.171-2.309-11.909-5.889l-0.026-0.036z"></path>
<path d="M58.992 13v-3.559c0-4.159-3.372-7.531-7.531-7.531s-7.531 3.372-7.531 7.531v0 3.559h-2.75v6.644c0 5.799 4.701 10.5 10.5 10.5s10.5-4.701 10.5-10.5v0-6.644zM54.492 12.75h-6.063v-3.309c0-1.674 1.357-3.031 3.031-3.031s3.031 1.357 3.031 3.031v0z"></path>
</svg>
