<!-- Generated by IcoMoon.io -->
<svg version="1.1" xmlns="http://www.w3.org/2000/svg" width="64" height="64" viewBox="0 0 64 64">
<title>wifi-signal-lock-3</title>
<path d="M36.679 19.644v-1.615c-1.407-0.167-3.036-0.263-4.688-0.263-7.962 0-15.406 2.218-21.748 6.069l0.186-0.105-4.026-5.749c7.259-4.529 16.075-7.215 25.517-7.215 0.028 0 0.055 0 0.083 0h-0.004q2.328 0 4.625 0.217v-6.021q-2.303-0.194-4.625-0.197c-0 0-0.001 0-0.002 0-11.579 0-22.322 3.579-31.183 9.692l0.184-0.12v6.386l27.502 39.276h6.997l17.817-25.446c-0.491 0.057-1.060 0.090-1.637 0.090-8.284 0-14.999-6.715-14.999-14.999 0-0 0-0 0-0.001v0z"></path>
<path d="M58.992 13v-3.559c-0.005-4.157-3.374-7.526-7.531-7.531h-0.001q-0.195 0-0.387 0.010c-0.928 0.048-1.795 0.258-2.59 0.602l0.048-0.019q-0.338 0.143-0.658 0.318c-1.394 0.769-2.495 1.921-3.181 3.314l-0.020 0.045q-0.079 0.165-0.151 0.333-0.143 0.338-0.254 0.692c-0.215 0.667-0.339 1.434-0.339 2.231 0 0.002 0 0.004 0 0.007v-0 3.559h-2.75v6.644c0.003 5.8 4.705 10.5 10.505 10.5 0.746 0 1.474-0.078 2.177-0.226l-0.069 0.012q0.512-0.105 1.005-0.259c1.136-0.359 2.125-0.865 3.008-1.507l-0.030 0.021c1.162-0.833 2.124-1.865 2.855-3.055l0.026-0.045q0.263-0.433 0.485-0.892c0.654-1.326 1.037-2.886 1.037-4.536 0-0.004 0-0.009 0-0.013v0.001-6.644zM54.492 12.75h-6.063v-3.309c0-0.001 0-0.002 0-0.003 0-0.631 0.194-1.217 0.525-1.701l-0.007 0.010c0.114-0.168 0.236-0.314 0.37-0.449v0q0.103-0.103 0.215-0.196c0.252-0.21 0.546-0.382 0.865-0.502l0.021-0.007q0.139-0.051 0.285-0.089c0.227-0.061 0.487-0.096 0.755-0.096 1.674 0 3.032 1.357 3.032 3.031v0z"></path>
</svg>
