<!-- Generated by IcoMoon.io -->
<svg version="1.1" xmlns="http://www.w3.org/2000/svg" width="64" height="64" viewBox="0 0 64 64">
<title>wifi-signal-3</title>
<path d="M48.539 7.312c-4.943-1.615-10.632-2.546-16.539-2.546-11.579 0-22.323 3.579-31.184 9.692l0.184-0.12v6.386l27.502 39.276h6.997l27.502-39.276v-6.386c-4.157-2.875-8.95-5.262-14.072-6.917l-0.389-0.109zM53.57 23.73c-6.159-3.746-13.605-5.964-21.57-5.964s-15.412 2.218-21.757 6.069l0.187-0.105-4.026-5.749c7.286-4.53 16.127-7.215 25.596-7.215s18.31 2.685 25.805 7.336l-0.209-0.121z"></path>
</svg>
