<!-- Generated by IcoMoon.io -->
<svg version="1.1" xmlns="http://www.w3.org/2000/svg" width="64" height="64" viewBox="0 0 64 64">
<title>wifi-signal-lock-4</title>
<path d="M36.679 19.644v-6.402h-0.054v-8.279q-2.303-0.194-4.625-0.197c-0 0-0.001 0-0.002 0-11.579 0-22.322 3.579-31.183 9.692l0.184-0.12v6.386l27.502 39.276h6.997l17.817-25.446c-0.491 0.057-1.060 0.090-1.637 0.090-8.284 0-14.999-6.715-14.999-14.999 0-0 0-0 0-0.001v0z"></path>
<path d="M58.992 13v-3.559c0-0.002 0-0.004 0-0.006 0-0.796-0.124-1.564-0.354-2.284l0.015 0.053q-0.11-0.354-0.254-0.692-0.072-0.169-0.151-0.333c-0.706-1.438-1.807-2.59-3.162-3.339l-0.039-0.020q-0.32-0.174-0.658-0.318c-0.747-0.325-1.614-0.535-2.523-0.582l-0.018-0.001q-0.192-0.010-0.387-0.010t-0.387 0.010c-0.928 0.048-1.795 0.258-2.59 0.602l0.048-0.019q-0.338 0.143-0.658 0.318c-1.394 0.769-2.495 1.921-3.181 3.314l-0.020 0.045q-0.079 0.165-0.151 0.333-0.143 0.338-0.254 0.692c-0.215 0.667-0.339 1.434-0.339 2.231 0 0.002 0 0.004 0 0.007v-0 3.559h-2.75v6.644c0 5.799 4.701 10.5 10.5 10.5s10.5-4.701 10.5-10.5v0-6.644zM54.492 12.75h-6.063v-3.309c0-0.001 0-0.002 0-0.003 0-0.631 0.194-1.217 0.525-1.701l-0.007 0.010c0.114-0.168 0.236-0.314 0.37-0.449v0q0.103-0.103 0.215-0.196c0.252-0.21 0.546-0.382 0.865-0.502l0.021-0.007q0.139-0.051 0.285-0.089c0.227-0.061 0.488-0.096 0.757-0.096s0.53 0.035 0.778 0.101l-0.021-0.005q0.145 0.037 0.285 0.089c0.34 0.127 0.633 0.299 0.891 0.513l-0.005-0.004q0.112 0.093 0.215 0.196c0.236 0.236 0.433 0.509 0.581 0.812l0.008 0.018c0.189 0.383 0.299 0.833 0.299 1.309 0 0.001 0 0.003 0 0.004v-0z"></path>
</svg>
