<!-- Generated by IcoMoon.io -->
<svg version="1.1" xmlns="http://www.w3.org/2000/svg" width="64" height="64" viewBox="0 0 64 64">
<title>wifi-lock</title>
<path d="M32 21.982c1.732 0 3.438 0.111 5.111 0.325l-0.199-0.021c-0.148-0.793-0.233-1.705-0.233-2.637 0-0.002 0-0.004 0-0.006v0-6.402h-0.054v-2.030q-2.3-0.21-4.625-0.212c-5.818 0-11.408 0.974-16.617 2.769l0.359-0.107q-0.796 0.268-1.582 0.563-0.25 0.093-0.499 0.189c-2.88 1.118-5.315 2.313-7.632 3.687l0.236-0.13q-0.71 0.415-1.408 0.854-0.457 0.287-0.909 0.585c-0.404 0.266-0.805 0.535-1.201 0.813l6.299 8.996c6.396-4.527 14.358-7.237 22.953-7.237h0z"></path>
<path d="M38.677 27.116c-2.008-0.403-4.317-0.634-6.68-0.634-7.627 0-14.693 2.405-20.48 6.498l0.111-0.075 5.777 8.25c4.067-2.879 9.13-4.602 14.595-4.602s10.528 1.723 14.675 4.655l-0.080-0.053 4.567-6.522c-5.33-0.193-9.931-3.136-12.447-7.446l-0.038-0.071z"></path>
<path d="M22.744 43.21q-0.179 0.088-0.357 0.18c-0.932 0.484-1.718 0.966-2.467 1.496l0.066-0.044 12.014 17.158 12.014-17.158c-3.348-2.37-7.516-3.788-12.014-3.788-3.371 0-6.556 0.796-9.377 2.211l0.121-0.055z"></path>
<path d="M58.992 13v-3.559c0-4.159-3.372-7.531-7.531-7.531s-7.531 3.372-7.531 7.531v0 3.559h-2.75v6.644c0 5.799 4.701 10.5 10.5 10.5s10.5-4.701 10.5-10.5v0-6.644zM54.492 12.75h-6.063v-3.309c0-1.674 1.357-3.031 3.031-3.031s3.031 1.357 3.031 3.031v0z"></path>
</svg>
