<!-- Generated by IcoMoon.io -->
<svg version="1.1" xmlns="http://www.w3.org/2000/svg" width="64" height="64" viewBox="0 0 64 64">
<title>window-restore</title>
<path d="M59 3.75h-40c-1.794 0.002-3.248 1.456-3.25 3.25v8.125h4.5v-6.875h37.5v33.893h-6.75v4.5h8c1.794-0.002 3.248-1.456 3.25-3.25v-36.393c-0.002-1.794-1.456-3.248-3.25-3.25h-0z"></path>
<path d="M2.031 33.028v24.222c0.002 1.656 1.344 2.998 3 3h38.969c1.656-0.002 2.998-1.344 3-3v-24.223z"></path>
<path d="M44 19.125h-38.969c-1.656 0.002-2.998 1.344-3 3v6.403h44.969v-6.402c-0.002-1.656-1.344-2.998-3-3h-0z"></path>
</svg>
