<!-- Generated by IcoMoon.io -->
<svg version="1.1" xmlns="http://www.w3.org/2000/svg" width="64" height="64" viewBox="0 0 64 64">
<title>yen-circle-slash</title>
<path d="M55.008 51.25l-49.261-49.25h-3.747v3.678l7.029 7.029c-4.371 5.162-7.029 11.896-7.029 19.251 0 0.015 0 0.030 0 0.045v-0.002c0 16.569 13.431 30 30 30 0.013 0 0.028 0 0.043 0 7.355 0 14.089-2.658 19.295-7.065l-0.044 0.036 7.029 7.029h3.678v-3.747l-6.997-6.997zM22 29h3.322l5 5h-8.322zM35 44v6h-6v-6h-7v-5h13.322l5 5z"></path>
<path d="M39.559 13.256l4.883 3.487-7.323 10.253 2.004 2.003h2.879v2.879l15.664 15.665c2.723-4.416 4.336-9.768 4.336-15.496 0-0.017 0-0.033-0-0.050v0.003c0-16.569-13.431-30-30-30-0.014 0-0.031-0-0.047-0-5.728 0-11.080 1.613-15.625 4.41l0.129-0.074 16.36 16.36z"></path>
</svg>
