<!-- Generated by IcoMoon.io -->
<svg version="1.1" xmlns="http://www.w3.org/2000/svg" width="64" height="64" viewBox="0 0 64 64">
<title>zoom-out</title>
<path d="M14 22h21v6h-21v-6z"></path>
<path d="M59.95 50.050l-10.136-10.136-6.665-2.754c2.411-3.517 3.851-7.865 3.851-12.549 0-0.009 0-0.019 0-0.028v0.001c0-12.406-10.093-22.5-22.5-22.5s-22.5 10.094-22.5 22.5 10.094 22.5 22.5 22.5c0.007 0 0.016 0 0.025 0 4.725 0 9.107-1.465 12.719-3.965l-0.074 0.049 2.745 6.645 10.136 10.136c1.269 1.278 3.026 2.069 4.968 2.069 3.866 0 7-3.134 7-7 0-1.942-0.791-3.7-2.068-4.968l-0-0zM8 24.586c0-9.098 7.402-16.5 16.5-16.5s16.5 7.402 16.5 16.5-7.402 16.5-16.5 16.5-16.5-7.402-16.5-16.5z"></path>
</svg>
