<!-- Generated by IcoMoon.io -->
<svg version="1.1" xmlns="http://www.w3.org/2000/svg" width="64" height="64" viewBox="0 0 64 64">
<title>zoom-in</title>
<path d="M27.5 14h-6v7.5h-7.5v6h7.5v7.5h6v-7.5h7.5v-6h-7.5v-7.5z"></path>
<path d="M59.95 50.050l-10.136-10.136-6.614-2.733c2.433-3.532 3.886-7.903 3.886-12.613 0-0.009 0-0.018 0-0.027v0.001c0-12.43-10.113-22.543-22.543-22.543s-22.543 10.113-22.543 22.543 10.113 22.543 22.543 22.543c0.008 0 0.017 0 0.026 0 4.71 0 9.081-1.453 12.689-3.935l-0.076 0.049 2.733 6.614 10.136 10.136c1.269 1.278 3.026 2.069 4.968 2.069 3.866 0 7-3.134 7-7 0-1.942-0.791-3.7-2.068-4.968l-0-0zM8 24.543c0-9.122 7.421-16.543 16.543-16.543s16.543 7.421 16.543 16.543-7.421 16.543-16.543 16.543-16.543-7.421-16.543-16.543z"></path>
</svg>
