<!-- Generated by IcoMoon.io -->
<svg version="1.1" xmlns="http://www.w3.org/2000/svg" width="64" height="64" viewBox="0 0 64 64">
<title>accessibility</title>
<path d="M32 18c4.418 0 8-3.582 8-8s-3.582-8-8-8c-4.418 0-8 3.582-8 8v0c0.005 4.416 3.584 7.995 8 8h0zM32 6c2.209 0 4 1.791 4 4s-1.791 4-4 4c-2.209 0-4-1.791-4-4v0c0.003-2.208 1.792-3.997 4-4h0z"></path>
<path d="M56 31v-11h-48v11h16v7.31l-9.51 23.82 11.68-0.148 5.411-13.231 5.418 13.248h11.993l-9.993-24.127v-6.873zM43.007 58h-3.321l-6.544-16h-3.12l-6.551 16.017-3.047 0.038 7.576-18.976v-12.079h-16v-3h40v3h-17v11.669z"></path>
</svg>
