<!-- Generated by IcoMoon.io -->
<svg version="1.1" xmlns="http://www.w3.org/2000/svg" width="64" height="64" viewBox="0 0 64 64">
<title>album</title>
<path d="M53.214 10.786c-5.429-5.429-12.929-8.787-21.214-8.787-16.569 0-30.001 13.432-30.001 30.001 0 8.285 3.358 15.785 8.787 21.214v0c5.429 5.429 12.929 8.787 21.214 8.787 16.569 0 30.001-13.432 30.001-30.001 0-8.285-3.358-15.785-8.787-21.214v0zM32 58c-14.336 0-26-11.664-26-26s11.664-26 26-26 26 11.664 26 26-11.664 26-26 26z"></path>
<path d="M32 19c-7.18 0-13 5.82-13 13s5.82 13 13 13c7.18 0 13-5.82 13-13v0c-0.008-7.177-5.823-12.992-12.999-13h-0.001zM32 41c-4.971 0-9-4.029-9-9s4.029-9 9-9c4.971 0 9 4.029 9 9v0c-0.006 4.968-4.032 8.994-8.999 9h-0.001z"></path>
<path d="M30 30h4v4h-4v-4z"></path>
<path d="M32 14v-4c-0.021-0-0.045-0-0.070-0-3.626 0-7.044 0.887-10.050 2.455l0.12-0.057c-3.045 1.583-5.586 3.739-7.564 6.346l-0.040 0.055 3.197 2.402c3.292-4.391 8.485-7.201 14.334-7.201 0.025 0 0.051 0 0.076 0h-0.004z"></path>
</svg>
