<!-- Generated by IcoMoon.io -->
<svg version="1.1" xmlns="http://www.w3.org/2000/svg" width="64" height="64" viewBox="0 0 64 64">
<title>american-football</title>
<path d="M59.159 5.892l-0.283-0.524-0.524-0.283c-6.246-3.38-14.007-4.314-21.852-2.629-7.981 1.714-15.473 5.894-21.667 12.087s-10.373 13.686-12.088 21.667c-1.685 7.845-0.751 15.606 2.629 21.852l0.283 0.524 0.524 0.283c4.215 2.281 9.119 3.448 14.274 3.448 2.687-0.005 5.302-0.303 7.818-0.864l-0.241 0.045c7.981-1.714 15.473-5.894 21.667-12.087s10.373-13.686 12.087-21.667c1.685-7.845 0.751-15.606-2.629-21.852zM55.919 8.325c2.473 4.857 3.23 10.476 2.425 16.191l-18.615-18.615c5.715-0.805 11.334-0.048 16.191 2.425zM8.615 55.629c-2.525-4.961-3.261-10.716-2.371-16.557l18.928 18.928c-5.841 0.891-11.596 0.154-16.556-2.371zM46.873 46.582v0c-5.054 5.054-11.014 8.574-17.083 10.379l-22.507-22.507c1.806-6.069 5.325-12.028 10.379-17.083 5.145-5.145 11.227-8.698 17.408-10.473l22.276 22.276c-1.776 6.181-5.329 12.263-10.473 17.408z"></path>
<path d="M43.414 23.414l-2.828-2.828-2.586 2.586-3.586-3.586-2.828 2.828 3.586 3.586-3.172 3.172-3.586-3.586-2.828 2.828 3.586 3.586-3.172 3.172-3.586-3.586-2.828 2.828 3.586 3.586-2.586 2.586 2.828 2.828 2.586-2.586 3.586 3.586 2.828-2.828-3.586-3.586 3.172-3.172 3.586 3.586 2.828-2.828-3.586-3.586 3.172-3.172 3.586 3.586 2.828-2.828-3.586-3.586 2.586-2.586z"></path>
</svg>
