<!-- Generated by IcoMoon.io -->
<svg version="1.1" xmlns="http://www.w3.org/2000/svg" width="64" height="64" viewBox="0 0 64 64">
<title>apple</title>
<path d="M56.552 26.631c-1.326-3.399-3.439-6.032-6.115-7.635-0.668 1.272-1.397 2.368-2.226 3.38l0.028-0.035c0.005 0.003 0.010 0.005 0.014 0.008 3.985 2.29 6.303 8.144 5.636 14.234-1.104 10.090-4.169 17.005-8.63 19.472-2.9 1.603-6.517 1.375-10.75-0.678l-0.413-0.2h-3.049l-0.413 0.2c-4.233 2.053-7.85 2.281-10.75 0.678-4.461-2.466-7.525-9.382-8.63-19.472-0.666-6.090 1.651-11.944 5.636-14.234 1.186-0.689 2.611-1.096 4.13-1.096 0.031 0 0.061 0 0.092 0l-0.005-0c3.018 0 6.496 1.414 10.275 4.207l0.135 0.1s5.448-0.662 7.607-1.642c6.503-2.952 7.937-7.645 8.192-8.282 0.698-1.685 1.104-3.642 1.104-5.694 0-2.169-0.453-4.231-1.27-6.099l0.038 0.098-0.509-1.271-1.369 0.014c-8.403 0.095-15.179 6.929-15.179 15.346 0 0.681 0.044 1.352 0.13 2.010l-0.008-0.077c-2.363-1.324-4.66-2.168-6.861-2.517-3.118-0.496-5.976-0.012-8.496 1.436-2.767 1.59-4.948 4.27-6.305 7.75-1.234 3.163-1.701 6.852-1.314 10.387 1.268 11.585 4.957 19.379 10.67 22.537 1.746 0.987 3.835 1.568 6.059 1.568 0.028 0 0.055-0 0.083-0h-0.004c2.448-0 5.079-0.649 7.872-1.947h1.229c5.299 2.462 10.011 2.59 14.009 0.379 5.713-3.159 9.402-10.952 10.67-22.537 0.387-3.535-0.080-7.223-1.314-10.387zM41.002 7.603c0.86-0.381 1.858-0.669 2.902-0.814l0.059-0.007c0.283 0.944 0.447 2.029 0.447 3.153 0 5.732-4.249 10.472-9.769 11.241l-0.060 0.007c-0.283-0.944-0.446-2.028-0.446-3.15 0-4.649 2.793-8.645 6.793-10.401l0.073-0.029z"></path>
</svg>
