<!-- Generated by IcoMoon.io -->
<svg version="1.1" xmlns="http://www.w3.org/2000/svg" width="64" height="64" viewBox="0 0 64 64">
<title>asterisk-circle</title>
<path d="M34 28.452v-13.278h-4v13.279l-12.328-7.46-0.304 0.502v3.989l10.769 6.517-10.769 6.517v3.989l0.304 0.502 12.328-7.46v13.279h4v-13.279l12.328 7.46 0.304-0.502v-3.989l-10.769-6.517 10.769-6.517v-3.989l-0.304-0.502-12.328 7.46z"></path>
<path d="M53.232 10.922c-5.415-5.415-12.895-8.764-21.157-8.764-16.525 0-29.921 13.396-29.921 29.921 0 8.262 3.349 15.742 8.764 21.157v0c5.415 5.415 12.895 8.764 21.157 8.764 16.525 0 29.921-13.396 29.921-29.921 0-8.262-3.349-15.742-8.764-21.157v0zM32.075 58c-14.293 0-25.921-11.628-25.921-25.921s11.628-25.921 25.921-25.921 25.921 11.628 25.921 25.921-11.628 25.921-25.921 25.921z"></path>
</svg>
