<!-- Generated by IcoMoon.io -->
<svg version="1.1" xmlns="http://www.w3.org/2000/svg" width="64" height="64" viewBox="0 0 64 64">
<title>audio</title>
<path d="M13.845 13.845l-2.836-2.836c-0.013 0.011-0.025 0.023-0.036 0.035l-0 0c-5.395 5.394-8.732 12.847-8.732 21.080 0 8.189 3.302 15.606 8.647 20.994l-0.002-0.002 2.836-2.836c-4.623-4.656-7.481-11.072-7.481-18.154 0-7.145 2.908-13.61 7.604-18.278l0.001-0.001z"></path>
<path d="M53.134 11.044c-0.050-0.051-0.102-0.1-0.153-0.15l-2.837 2.838c4.767 4.68 7.721 11.191 7.721 18.393 0 7.109-2.879 13.545-7.534 18.207l0-0 2.837 2.837c5.374-5.391 8.696-12.83 8.696-21.045 0-8.232-3.337-15.685-8.731-21.080v0z"></path>
<path d="M19.19 19.19c-3.33 3.302-5.391 7.879-5.391 12.938 0 4.996 2.011 9.523 5.268 12.814l-0.002-0.002 2.828-2.828c-2.529-2.566-4.091-6.092-4.091-9.982 0-3.952 1.612-7.528 4.215-10.106l0.001-0.001z"></path>
<path d="M41.971 21.904c2.67 2.589 4.328 6.21 4.328 10.218 0 3.915-1.581 7.46-4.14 10.032l0.001-0.001 2.826 2.826c3.285-3.295 5.316-7.841 5.316-12.862 0-5.114-2.107-9.735-5.5-13.044l-0.004-0.004z"></path>
<path d="M36.846 27.029c-1.247-1.173-2.932-1.894-4.785-1.894-3.861 0-6.991 3.13-6.991 6.991s3.13 6.991 6.991 6.991c3.861 0 6.991-3.13 6.991-6.991 0-0 0-0.001 0-0.001v0c0-0.002 0-0.004 0-0.007 0-2.006-0.847-3.814-2.203-5.086l-0.004-0.003zM32.053 35.125c-1.657 0-3-1.343-3-3s1.343-3 3-3c1.657 0 3 1.343 3 3v0c0 1.657-1.343 3-3 3v0z"></path>
</svg>
