<!-- Generated by IcoMoon.io -->
<svg version="1.1" xmlns="http://www.w3.org/2000/svg" width="64" height="64" viewBox="0 0 64 64">
<title>audio-description</title>
<path d="M59 8h-54c-1.657 0-3 1.343-3 3v0 42c0 1.657 1.343 3 3 3v0h54c1.657 0 3-1.343 3-3v0-42c0-1.657-1.343-3-3-3v0zM58 52h-52v-40h52z"></path>
<path d="M16.775 36h7.45l2.334 7h4.216l-7.334-22h-5.883l-7.334 22h4.216zM20.441 25h0.117l2.332 7h-4.782z"></path>
<path d="M53 32.916v-1.832c-0.006-5.567-4.517-10.077-10.083-10.084h-7.917v22h7.916c5.566-0.006 10.077-4.517 10.084-10.083v-0.001zM39 25h3.916c3.359 0.004 6.080 2.725 6.084 6.083v1.833c-0.004 3.359-2.725 6.080-6.083 6.084h-3.917z"></path>
</svg>
