<!-- Generated by IcoMoon.io -->
<svg version="1.1" xmlns="http://www.w3.org/2000/svg" width="64" height="64" viewBox="0 0 64 64">
<title>av-timer</title>
<path d="M30 48h4v4h-4v-4z"></path>
<path d="M12 30h4v4h-4v-4z"></path>
<path d="M48 30h4v4h-4v-4z"></path>
<path d="M51.799 12.201c-4.596-4.622-10.804-7.635-17.71-8.125l-0.089-0.005v-0.071h-4v12h4v-7.916c12.301 1.020 22 11.356 22 23.916 0 13.234-10.766 24-24 24s-24-10.766-24-24c0-0.006 0-0.013 0-0.020 0-6.632 2.695-12.635 7.050-16.972l0.001-0.001 14.449 18.235 3.135-2.485-17.060-21.529-1.575 1.324c-6.131 5.171-9.999 12.857-9.999 21.447 0 15.464 12.536 28 28 28s28-12.536 28-28c0-7.732-3.134-14.732-8.2-19.799v0z"></path>
</svg>
