<!-- Generated by IcoMoon.io -->
<svg version="1.1" xmlns="http://www.w3.org/2000/svg" width="64" height="64" viewBox="0 0 64 64">
<title>baseball</title>
<path d="M13.5 25c6.351 0 11.5-5.149 11.5-11.5s-5.149-11.5-11.5-11.5c-6.351 0-11.5 5.149-11.5 11.5v0c0.007 6.348 5.152 11.493 11.499 11.5h0.001zM13.5 6c4.142 0 7.5 3.358 7.5 7.5s-3.358 7.5-7.5 7.5c-4.142 0-7.5-3.358-7.5-7.5v0c0.005-4.14 3.36-7.495 7.5-7.5h0z"></path>
<path d="M59.617 4.782h-0c-1.719-1.719-4.094-2.783-6.718-2.783s-4.998 1.063-6.718 2.783l-0.684 0.684c-2.632 2.632-5.194 5.399-7.616 8.225l-0.040 0.046-17.354 22.945-10.67 10.67c-0.684-0.4-1.506-0.636-2.383-0.636-2.641 0-4.783 2.141-4.783 4.783 0 1.321 0.535 2.516 1.401 3.382l5.065 5.065c0.866 0.864 2.060 1.399 3.38 1.399 2.642 0 4.784-2.142 4.784-4.784 0-0.876-0.236-1.697-0.647-2.404l0.012 0.023 10.655-10.655 22.593-16.427c3.358-2.801 6.629-5.789 9.721-8.881 1.717-1.72 2.778-4.095 2.778-6.718s-1.061-4.997-2.778-6.718l0 0zM56.788 15.389c-2.992 2.992-6.155 5.883-9.404 8.595l-22.688 16.49-13.59 13.59 1.947 1.947c0.144 0.142 0.233 0.339 0.233 0.557 0 0.432-0.35 0.782-0.783 0.782-0.218 0-0.415-0.089-0.557-0.233l-5.065-5.065c-0.142-0.142-0.229-0.337-0.229-0.553 0-0.432 0.35-0.783 0.783-0.783 0.216 0 0.412 0.088 0.553 0.229l1.947 1.947 13.577-13.577 17.446-23.067c2.344-2.733 4.823-5.408 7.368-7.954l0.684-0.684c0.996-1.002 2.376-1.623 3.901-1.623 3.038 0 5.5 2.462 5.5 5.5 0 1.525-0.62 2.905-1.623 3.901l-0 0z"></path>
</svg>
