<!-- Generated by IcoMoon.io -->
<svg version="1.1" xmlns="http://www.w3.org/2000/svg" width="64" height="64" viewBox="0 0 64 64">
<title>basketball</title>
<path d="M32 2c-16.569 0-30 13.431-30 30 0 8.284 3.358 15.784 8.787 21.213v0c5.43 5.436 12.935 8.799 21.225 8.799 16.569 0 30-13.431 30-30 0-8.29-3.363-15.795-8.799-21.225l-0-0c-5.399-5.428-12.873-8.787-21.132-8.787-0.029 0-0.057 0-0.086 0h0.004zM13.47 13.781q0.526 0.728 1.018 1.558c2.333 3.949 3.728 9.096 3.998 14.66h-12.41c0.503-6.36 3.232-12.002 7.397-16.221l-0.003 0.003zM13.47 50.219c-4.162-4.217-6.891-9.858-7.388-16.128l-0.006-0.091h12.41c-0.27 5.565-1.665 10.711-3.998 14.66q-0.491 0.831-1.018 1.558zM30 57.924c-5.128-0.402-9.76-2.243-13.572-5.114l0.066 0.048c0.466-0.617 0.941-1.322 1.378-2.054l0.060-0.109c2.685-4.546 4.279-10.413 4.559-16.695h7.509zM30 30h-7.509c-0.28-6.282-1.873-12.149-4.559-16.695-0.497-0.84-0.972-1.546-1.482-2.223l0.044 0.061c3.746-2.823 8.378-4.664 13.416-5.061l0.090-0.006zM34 6.076c5.128 0.402 9.76 2.243 13.572 5.114l-0.066-0.048c-0.466 0.617-0.941 1.322-1.378 2.054l-0.060 0.109c-2.685 4.546-4.279 10.413-4.559 16.695h-7.509zM34 57.924v-23.924h7.509c0.28 6.282 1.873 12.149 4.559 16.695 0.497 0.84 0.972 1.546 1.482 2.223l-0.044-0.061c-3.746 2.823-8.378 4.664-13.416 5.061l-0.090 0.006zM50.53 50.219q-0.526-0.728-1.018-1.558c-2.333-3.949-3.728-9.096-3.998-14.66h12.41c-0.503 6.36-3.231 12.002-7.397 16.221l0.003-0.003zM45.514 30c0.27-5.565 1.665-10.711 3.998-14.66q0.491-0.831 1.018-1.558c4.162 4.217 6.891 9.858 7.388 16.128l0.006 0.091z"></path>
</svg>
