<!-- Generated by IcoMoon.io -->
<svg version="1.1" xmlns="http://www.w3.org/2000/svg" width="64" height="64" viewBox="0 0 64 64">
<title>battery-slash</title>
<path d="M54 22v-7.051c-0.017-1.632-1.343-2.949-2.978-2.949-0.008 0-0.016 0-0.023 0h-30.514l4 4h25.515v10h8v13h-6v4h10v-21z"></path>
<path d="M18.828 16l-14-14h-2.828v2.828l7.172 7.172h-4.173c-0.007-0-0.014-0-0.022-0-1.634 0-2.961 1.317-2.978 2.947v35.104c0.017 1.632 1.343 2.949 2.978 2.949 0.008 0 0.016 0 0.023-0h45.172l9 9h2.828v-2.828l-28.68-28.68zM5.998 49v-33h7.173l33 33z"></path>
</svg>
