<!-- Generated by IcoMoon.io -->
<svg version="1.1" xmlns="http://www.w3.org/2000/svg" width="64" height="64" viewBox="0 0 64 64">
<title>battery-unknown</title>
<path d="M54 22v-7.051c-0.017-1.632-1.343-2.949-2.978-2.949-0.008 0-0.016 0-0.023 0h-6.999v4h6v10h8v13h-8v10h-44.002v-33h11.002v-4h-12.002c-0.007-0-0.014-0-0.022-0-1.634 0-2.961 1.317-2.978 2.947v35.104c0.017 1.632 1.343 2.949 2.978 2.949 0.008 0 0.016 0 0.023-0h46.001c0.007 0 0.014 0 0.022 0 1.634 0 2.961-1.317 2.978-2.947v-7.053h8v-21z"></path>
<path d="M36 17c-0.004 3.312-2.688 5.996-6 6h-4c-2.208 0.003-3.997 1.792-4 4v7h4v-7h4c5.523 0 10-4.477 10-10s-4.477-10-10-10v0h-9v4h9c3.312 0.004 5.996 2.688 6 6v0z"></path>
<path d="M22 40v2h4v-4h-4v2z"></path>
</svg>
