<!-- Generated by IcoMoon.io -->
<svg version="1.1" xmlns="http://www.w3.org/2000/svg" width="64" height="64" viewBox="0 0 64 64">
<title>battery-4</title>
<path d="M10 20h4v25h-4v-25z"></path>
<path d="M18 20h4v25h-4v-25z"></path>
<path d="M26 20h4v25h-4v-25z"></path>
<path d="M34 20h4v25h-4v-25z"></path>
<path d="M54 22v-7.051c-0.017-1.632-1.343-2.949-2.978-2.949-0.008 0-0.016 0-0.023 0h-46.001c-0.007-0-0.014-0-0.022-0-1.634 0-2.961 1.317-2.978 2.947v35.104c0.017 1.632 1.344 2.949 2.978 2.949 0.008 0 0.016 0 0.023-0h46.001c0.007 0 0.014 0 0.022 0 1.634 0 2.961-1.317 2.978-2.947v-7.053h8v-21zM58 39h-8v10h-44.002v-33h44.002v10h8z"></path>
</svg>
