<!-- Generated by IcoMoon.io -->
<svg version="1.1" xmlns="http://www.w3.org/2000/svg" width="64" height="64" viewBox="0 0 64 64">
<title>battery-0</title>
<path d="M4.998 53h46.002c0.007 0 0.014 0 0.022 0 1.634 0 2.961-1.317 2.978-2.947v-7.053h8v-21h-8v-7.051c-0.017-1.632-1.343-2.949-2.978-2.949-0.008 0-0.016 0-0.023 0h-46.001c-0.007-0-0.014-0-0.022-0-1.634 0-2.961 1.317-2.978 2.947v35.104c0.017 1.632 1.343 2.949 2.978 2.949 0.008 0 0.016 0 0.023-0h-0.001zM5.998 16h44.002v10h8v13h-8v10h-44.002z"></path>
</svg>
