<!-- Generated by IcoMoon.io -->
<svg version="1.1" xmlns="http://www.w3.org/2000/svg" width="64" height="64" viewBox="0 0 64 64">
<title>beach-access</title>
<path d="M32.429 33.6l17.5-17.5-3.473-3.473c-4.713-4.713-11.223-7.627-18.414-7.627-14.382 0-26.042 11.659-26.042 26.042 0 7.191 2.915 13.702 7.627 18.414l3.473 3.473 16.5-16.5 20.571 20.571h5.657zM28.042 9c0.018-0 0.039-0 0.060-0 6.068 0 11.559 2.468 15.525 6.455l0.646 0.646-7.132 7.132c-2.374-2.422-4.942-4.635-7.686-6.62l-0.174-0.12c-3.152-2.229-6.18-3.791-8.999-4.641-0.566-0.182-1.285-0.361-2.018-0.498l-0.118-0.018c2.869-1.472 6.259-2.335 9.851-2.335 0.017 0 0.033 0 0.050 0h-0.003zM13.1 47.272l-0.645-0.645c-3.989-3.995-6.456-9.51-6.456-15.602 0-3.602 0.863-7.003 2.393-10.007l-0.058 0.125c0.155 0.852 0.334 1.571 0.552 2.272l-0.036-0.136c0.85 2.82 2.412 5.847 4.641 8.999 2.105 2.918 4.318 5.485 6.731 7.85l0.010 0.010zM23.063 37.31c-1.482-1.454-4.029-4.122-6.305-7.34-2.859-4.042-5.824-9.738-4.219-14.431 4.678-1.599 10.35 1.342 14.376 4.18 3.233 2.279 5.929 4.852 7.395 6.345z"></path>
</svg>
