<!-- Generated by IcoMoon.io -->
<svg version="1.1" xmlns="http://www.w3.org/2000/svg" width="64" height="64" viewBox="0 0 64 64">
<title>birthday-cake</title>
<path d="M52.75 28.258h-13.75v-12h-4.501c1.331-1.762 2.132-3.989 2.132-6.403 0-0.015-0-0.030-0-0.045v0.002c0-3.455-1.635-6.701-4.267-8.472l-1.116-0.751-1.116 0.751c-2.632 1.771-4.267 5.017-4.267 8.472-0 0.013-0 0.028-0 0.043 0 2.414 0.801 4.641 2.152 6.43l-0.020-0.027h-4.998v12h-11.75c-4.002 0.005-7.245 3.248-7.25 7.25v22.492c0.003 2.208 1.792 3.997 4 4h48c2.208-0.003 3.997-1.792 4-4v-22.492c-0.005-4.002-3.248-7.245-7.25-7.25h-0zM31.249 5.693c0.874 1.085 1.383 2.558 1.383 4.12s-0.509 3.034-1.383 4.12c-0.874-1.085-1.383-2.558-1.383-4.12s0.509-3.034 1.383-4.12zM27 20.258h8v8h-8zM8 35.508c0.002-1.794 1.456-3.248 3.25-3.25h41.5c1.794 0.002 3.248 1.456 3.25 3.25v0l0 3.947-2.701 1.191c-0.493 0.223-1.069 0.352-1.676 0.352s-1.182-0.13-1.702-0.363l0.026 0.011-4.699-2.073-4.7 2.073c-0.493 0.223-1.069 0.352-1.676 0.352s-1.182-0.13-1.702-0.363l0.026 0.011-4.699-2.073-4.699 2.073c-0.493 0.223-1.069 0.352-1.676 0.352s-1.182-0.13-1.702-0.363l0.026 0.011-4.699-2.073-4.699 2.073c-0.493 0.223-1.069 0.352-1.676 0.352s-1.182-0.13-1.702-0.363l0.026 0.011-3.699-1.632zM56 58h-48v-14.613l2.085 0.92c0.968 0.437 2.1 0.692 3.29 0.692s2.322-0.255 3.342-0.713l-0.052 0.021 3.084-1.361 3.085 1.361c0.968 0.437 2.1 0.692 3.29 0.692s2.322-0.255 3.342-0.713l-0.052 0.021 3.084-1.361 3.085 1.361c0.968 0.437 2.1 0.692 3.29 0.692s2.322-0.255 3.342-0.713l-0.052 0.021 3.085-1.361 3.085 1.361c0.968 0.437 2.1 0.692 3.29 0.692s2.322-0.255 3.342-0.712l-0.052 0.021 1.087-0.479 0.002 14.172z"></path>
</svg>
