<!-- Generated by IcoMoon.io -->
<svg version="1.1" xmlns="http://www.w3.org/2000/svg" width="64" height="64" viewBox="0 0 64 64">
<title>bold</title>
<path d="M2 2v60h60v-60zM58 58h-52v-52h52z"></path>
<path d="M40 50c0 0 0.001 0 0.001 0 5.522 0 9.999-4.477 9.999-9.999 0-4.562-3.054-8.41-7.23-9.61l-0.071-0.017c1.431-1.717 2.3-3.946 2.3-6.379 0-5.52-4.475-9.995-9.995-9.995-0.002 0-0.004 0-0.006 0h-21v4h5v28h-5v4zM26 46v-12h11c3.314 0 6 2.686 6 6s-2.686 6-6 6v0zM32 18c3.314 0 6 2.686 6 6s-2.686 6-6 6v0h-6v-12h6z"></path>
</svg>
