<!-- Generated by IcoMoon.io -->
<svg version="1.1" xmlns="http://www.w3.org/2000/svg" width="64" height="64" viewBox="0 0 64 64">
<title>bolt-circle</title>
<path d="M53.213 10.787c-5.429-5.429-12.929-8.787-21.213-8.787-16.569 0-30 13.431-30 30 0 8.284 3.358 15.784 8.787 21.213v0c5.429 5.429 12.929 8.787 21.213 8.787 16.569 0 30-13.431 30-30 0-8.284-3.358-15.784-8.787-21.213v0zM32 58c-14.336 0-26-11.664-26-26s11.664-26 26-26 26 11.664 26 26-11.664 26-26 26z"></path>
<path d="M46.566 15h-24.008l-7.333 22h9.506l-4.55 13h9.647l18.172-18.172v-5.828h-8.156zM44 30v0.172l-15.828 15.828h-2.353l4.55-13h-9.594l4.667-14h13.992l-6.722 11z"></path>
</svg>
