<!-- Generated by IcoMoon.io -->
<svg version="1.1" xmlns="http://www.w3.org/2000/svg" width="64" height="64" viewBox="0 0 64 64">
<title>bowling-pins</title>
<path d="M61.831 33.521c-0.492-4.131-1.888-7.857-3.983-11.087l0.061 0.101c-0.599-0.918-0.955-2.041-0.955-3.248 0-0.354 0.031-0.7 0.089-1.037l-0.005 0.036 1.265-7.51c0.065-0.37 0.103-0.796 0.103-1.23 0-4.090-3.316-7.406-7.406-7.406s-7.406 3.316-7.406 7.406c0 0.434 0.037 0.86 0.109 1.274l-0.006-0.044 1.265 7.51c0.053 0.301 0.084 0.647 0.084 1.001 0 1.207-0.356 2.33-0.969 3.271l0.014-0.023c-1.051 1.613-1.965 3.468-2.649 5.43l-0.055 0.181c-0.609-1.291-1.214-2.369-1.884-3.402l0.068 0.111c-0.7-1.072-1.116-2.385-1.116-3.795 0-0.413 0.036-0.818 0.104-1.211l-0.006 0.042 1.424-8.458c0.072-0.404 0.112-0.869 0.112-1.344 0-4.467-3.621-8.089-8.089-8.089s-8.089 3.621-8.089 8.089c0 0.475 0.041 0.94 0.119 1.392l-0.007-0.048 1.424 8.458c0.063 0.352 0.098 0.756 0.098 1.169 0 1.41-0.416 2.722-1.133 3.822l0.017-0.027c-0.603 0.921-1.208 2-1.743 3.119l-0.074 0.172c-0.739-2.143-1.653-3.997-2.765-5.711l0.061 0.1c-0.599-0.918-0.955-2.041-0.955-3.248 0-0.354 0.031-0.7 0.089-1.037l-0.005 0.036 1.265-7.51c0.065-0.37 0.103-0.796 0.103-1.23 0-4.090-3.316-7.406-7.406-7.406s-7.406 3.316-7.406 7.406c0 0.434 0.037 0.86 0.109 1.274l-0.006-0.044 1.265 7.51c0.053 0.301 0.084 0.647 0.084 1.001 0 1.207-0.356 2.33-0.969 3.271l0.014-0.023c-2.565 3.936-4.090 8.754-4.090 13.927 0 3.101 0.548 6.074 1.553 8.828l-0.057-0.179 3.832 10.749h11.344l2.48-6.956c0.12 0.388 0.245 0.774 0.381 1.157l4.257 11.939h12.421l4.257-11.939c0.136-0.382 0.261-0.769 0.381-1.157l2.48 6.956h11.344l3.832-10.749c0.946-2.58 1.493-5.559 1.493-8.665 0-1.030-0.060-2.047-0.177-3.046l0.012 0.121zM10.399 7.347c0.629-0.74 1.56-1.207 2.601-1.207 1.881 0 3.406 1.525 3.406 3.406 0 0.2-0.017 0.396-0.050 0.586l0.003-0.020-0.9 5.346h-4.916l-0.9-5.346c-0.030-0.171-0.048-0.367-0.048-0.568 0-0.84 0.305-1.609 0.81-2.202l-0.004 0.005zM15.862 23.449h-5.724c0.55-1.17 0.881-2.539 0.906-3.982l0-0.009h3.912c0.025 1.452 0.357 2.82 0.932 4.052l-0.026-0.061zM18.736 43.767l-2.885 8.092h-5.703l-2.885-8.092c-0.791-2.172-1.249-4.679-1.249-7.292 0-3.271 0.717-6.375 2.001-9.163l-0.056 0.136h10.081c1.229 2.652 1.945 5.755 1.945 9.026 0 2.614-0.458 5.121-1.297 7.445l0.048-0.153zM28.878 7.449c0.755-0.889 1.873-1.449 3.122-1.449 2.258 0 4.089 1.831 4.089 4.089 0 0.24-0.021 0.475-0.060 0.704l0.004-0.024-1.050 6.232h-5.965l-1.050-6.232c-0.036-0.205-0.057-0.441-0.057-0.681 0-1.008 0.366-1.932 0.972-2.644l-0.005 0.006zM35.627 26h-7.254c0.738-1.437 1.171-3.135 1.171-4.934 0-0.023-0-0.047-0-0.070v0.004h4.913c-0 0.020-0 0.043-0 0.066 0 1.799 0.433 3.497 1.199 4.996l-0.029-0.062zM38.699 48.718l-3.309 9.282h-6.78l-3.309-9.282c-0.9-2.471-1.42-5.322-1.42-8.296 0-3.78 0.841-7.364 2.346-10.574l-0.064 0.153h11.675c1.441 3.058 2.282 6.641 2.282 10.422 0 2.974-0.52 5.825-1.475 8.47l0.055-0.174zM48.399 7.347c0.629-0.74 1.56-1.207 2.601-1.207 1.881 0 3.406 1.525 3.406 3.406 0 0.2-0.017 0.396-0.050 0.586l0.003-0.020-0.9 5.346h-4.916l-0.9-5.346c-0.030-0.171-0.048-0.367-0.048-0.567 0-0.84 0.305-1.609 0.81-2.202l-0.004 0.005zM53.862 23.449h-5.724c0.55-1.17 0.881-2.539 0.906-3.982l0-0.009h3.912c0.025 1.452 0.357 2.82 0.932 4.052l-0.026-0.061zM56.736 43.767l-2.885 8.092h-5.703l-2.885-8.092c-0.791-2.172-1.249-4.679-1.249-7.292 0-3.271 0.717-6.375 2.001-9.163l-0.056 0.136h10.081c1.228 2.652 1.945 5.755 1.945 9.026 0 2.614-0.458 5.121-1.297 7.445l0.048-0.153z"></path>
</svg>
