<!-- Generated by IcoMoon.io -->
<svg version="1.1" xmlns="http://www.w3.org/2000/svg" width="64" height="64" viewBox="0 0 64 64">
<title>bowling</title>
<path d="M39 16c-0.002 0-0.003 0-0.005 0-6.98 0-13.232 3.115-17.442 8.031l-0.026 0.031c-0.213-0.476-0.433-0.949-0.666-1.417l1.421-11.251c0.042-0.314 0.066-0.677 0.066-1.046 0-4.61-3.737-8.348-8.348-8.348s-8.348 3.737-8.348 8.348c0 0.369 0.024 0.732 0.070 1.088l-0.004-0.042 1.421 11.251c-2.642 5.223-4.189 11.387-4.189 17.912 0 4.308 0.675 8.458 1.924 12.351l-0.079-0.286 2.936 9.379h12.539l2.199-7.026c4.178 4.334 10.034 7.026 16.52 7.026 0.004 0 0.008 0 0.012 0h-0.001c12.682 0 23-10.318 23-23s-10.318-23-23-23zM10.739 7.473c0.801-0.905 1.965-1.473 3.261-1.473 2.401 0 4.348 1.947 4.348 4.348 0 0.192-0.012 0.381-0.037 0.567l0.002-0.022-1.277 10.107h-6.073l-1.277-10.107c-0.022-0.164-0.034-0.352-0.034-0.544 0-1.105 0.412-2.113 1.090-2.88l-0.004 0.005zM19.388 51.426l-2.058 6.574h-6.661l-2.058-6.574c-1.064-3.253-1.677-6.998-1.677-10.885 0-5.648 1.295-10.994 3.605-15.757l-0.094 0.215h7.11q0.698 1.472 1.259 2.985c-1.771 3.18-2.814 6.975-2.814 11.013 0 4.498 1.294 8.695 3.53 12.237l-0.056-0.095c-0.029 0.095-0.056 0.191-0.086 0.286zM39 58c-10.477 0-19-8.523-19-19s8.523-19 19-19 19 8.523 19 19-8.523 19-19 19z"></path>
<path d="M42 28c0 1.657-1.343 3-3 3s-3-1.343-3-3c0-1.657 1.343-3 3-3s3 1.343 3 3z"></path>
<path d="M51 34c0 1.657-1.343 3-3 3s-3-1.343-3-3c0-1.657 1.343-3 3-3s3 1.343 3 3z"></path>
<path d="M41 38c0 1.657-1.343 3-3 3s-3-1.343-3-3c0-1.657 1.343-3 3-3s3 1.343 3 3z"></path>
</svg>
