<!-- Generated by IcoMoon.io -->
<svg version="1.1" xmlns="http://www.w3.org/2000/svg" width="64" height="64" viewBox="0 0 64 64">
<title>building-slash</title>
<path d="M51 6v36.515l4 4v-44.515h-44.515l4 4h36.515z"></path>
<path d="M20 38h4v4h-4v-4z"></path>
<path d="M30 38h4v4h-4v-4z"></path>
<path d="M40 26h4v4h-4v-4z"></path>
<path d="M30 14h4v4h-4v-4z"></path>
<path d="M40 14h4v4h-4v-4z"></path>
<path d="M33.32 30.492l-28.492-28.492h-2.828v2.828l7 7v46.172h-7v4h60v-2.828zM34 58v-8h-4v8h-17v-42.172l42.172 42.172z"></path>
</svg>
