<!-- Generated by IcoMoon.io -->
<svg version="1.1" xmlns="http://www.w3.org/2000/svg" width="64" height="64" viewBox="0 0 64 64">
<title>building-business-slash</title>
<path d="M39 18v-16h-28.515l4 4h20.515v20.515l4 4v-8.515h19v27.515l4 4v-35.515h-23z"></path>
<path d="M13 38h4v4h-4v-4z"></path>
<path d="M23 38h4v4h-4v-4z"></path>
<path d="M47 27h4v4h-4v-4z"></path>
<path d="M13 26h4v4h-4v-4z"></path>
<path d="M8.828 6l-4-4h-2.828v60h60v-2.828l-28.68-28.68zM39 41.828l16.172 16.172h-16.172zM35 58h-13v-8h-4v8h-12v-49.172l29 29z"></path>
<path d="M25 11h4v4h-4v-4z"></path>
</svg>
