<!-- Generated by IcoMoon.io -->
<svg version="1.1" xmlns="http://www.w3.org/2000/svg" width="64" height="64" viewBox="0 0 64 64">
<title>building-business</title>
<path d="M39 2h-37v60h60v-44h-23zM35 18v40h-13v-8h-4v8h-12v-52h29zM58 22v36h-19v-36z"></path>
<path d="M13 38h4v4h-4v-4z"></path>
<path d="M23 38h4v4h-4v-4z"></path>
<path d="M47 27h4v4h-4v-4z"></path>
<path d="M47 37h4v4h-4v-4z"></path>
<path d="M47 47h4v4h-4v-4z"></path>
<path d="M13 26h4v4h-4v-4z"></path>
<path d="M23 26h4v4h-4v-4z"></path>
<path d="M13 14h4v4h-4v-4z"></path>
<path d="M23 14h4v4h-4v-4z"></path>
</svg>
