<!-- Generated by IcoMoon.io -->
<svg version="1.1" xmlns="http://www.w3.org/2000/svg" width="64" height="64" viewBox="0 0 64 64">
<title>burger</title>
<path d="M51.59 11.127c-4.447-2.623-10.318-4.068-16.531-4.068h-5.118c-6.213 0-12.084 1.445-16.531 4.068-4.779 2.819-7.41 6.68-7.41 10.873v2h53v-2c0-4.193-2.632-8.055-7.41-10.873zM10.35 20c1.769-5.015 10.023-8.941 19.591-8.941h5.118c9.568 0 17.822 3.926 19.591 8.941z"></path>
<path d="M6 38h53v4h-53v-4z"></path>
<path d="M48.4 28.005c-3.098 0-4.721 0.766-6.153 1.441-1.254 0.592-2.245 1.059-4.447 1.059s-3.193-0.467-4.447-1.059c-1.432-0.676-3.055-1.441-6.153-1.441s-4.721 0.766-6.153 1.441c-1.254 0.592-2.245 1.059-4.447 1.059s-3.192-0.467-4.447-1.059c-1.432-0.676-3.055-1.441-6.153-1.441v4c2.202 0 3.192 0.467 4.447 1.059 1.432 0.676 3.055 1.441 6.153 1.441s4.721-0.766 6.153-1.441c1.254-0.592 2.245-1.059 4.447-1.059s3.192 0.467 4.447 1.059c1.432 0.676 3.055 1.441 6.153 1.441s4.721-0.766 6.153-1.441c1.254-0.592 2.245-1.059 4.447-1.059s3.193 0.467 4.447 1.059c1.432 0.675 3.055 1.441 6.153 1.441v-4c-2.202 0-3.193-0.467-4.447-1.059-1.432-0.675-3.055-1.441-6.153-1.441z"></path>
<path d="M6 56c0.002 1.656 1.344 2.998 3 3h47c1.656-0.002 2.998-1.344 3-3v-10h-53zM10 50h45v5h-45z"></path>
</svg>
