<!-- Generated by IcoMoon.io -->
<svg version="1.1" xmlns="http://www.w3.org/2000/svg" width="64" height="64" viewBox="0 0 64 64">
<title>camera-plus</title>
<path d="M59 14h-11.15l-2.031-5.844c-0.56-1.578-2.040-2.688-3.779-2.688-0 0-0 0-0 0h-20.135c-1.745 0.003-3.228 1.123-3.771 2.683l-0.009 0.028-1.306 3.82h4.225l0.861-2.531h20.135l2.96 8.531h13v37h-52v-26h-4v27c0 1.657 1.343 3 3 3v0h54c1.657 0 3-1.343 3-3v0-39c0-1.657-1.343-3-3-3v0z"></path>
<path d="M32 49.5c7.87 0 14.25-6.38 14.25-14.25s-6.38-14.25-14.25-14.25c-7.87 0-14.25 6.38-14.25 14.25v0c0.009 7.866 6.384 14.241 14.249 14.25h0.001zM32 25c5.661 0 10.25 4.589 10.25 10.25s-4.589 10.25-10.25 10.25c-5.661 0-10.25-4.589-10.25-10.25v0c0.007-5.658 4.592-10.243 10.249-10.25h0.001z"></path>
<path d="M9 27h4v-7h7v-4h-7v-7h-4v7h-7v4h7v7z"></path>
</svg>
