<!-- Generated by IcoMoon.io -->
<svg version="1.1" xmlns="http://www.w3.org/2000/svg" width="64" height="64" viewBox="0 0 64 64">
<title>camera-switch</title>
<path d="M59 14h-11.15l-2.031-5.844c-0.56-1.578-2.040-2.688-3.779-2.688-0 0-0 0-0 0h-20.135c-1.745 0.003-3.228 1.123-3.771 2.683l-0.009 0.028-1.988 5.82h-11.137c-1.657 0-3 1.343-3 3v0 39c0 1.657 1.343 3 3 3v0h54c1.657 0 3-1.343 3-3v0-39c0-1.657-1.343-3-3-3v0zM58 55h-52v-37h13l2.902-8.531h20.137l2.96 8.531h13z"></path>
<path d="M40.076 27.436l5.575 6.571-27.244 0.056 6.054-6.726-2.974-2.675-10.204 11.338 10.204 11.337 2.974-2.675-5.939-6.599 27.237-0.056-5.684 6.699 3.050 2.587 9.523-11.223-9.523-11.224-3.050 2.589z"></path>
</svg>
