<!-- Generated by IcoMoon.io -->
<svg version="1.1" xmlns="http://www.w3.org/2000/svg" width="64" height="64" viewBox="0 0 64 64">
<title>camera-enhance</title>
<path d="M59 14h-11.15l-2.031-5.844c-0.56-1.578-2.040-2.688-3.779-2.688-0 0-0 0-0 0h-20.135c-1.745 0.003-3.228 1.123-3.771 2.683l-0.009 0.028-1.988 5.82h-11.137c-1.657 0-3 1.343-3 3v0 39c0 1.657 1.343 3 3 3v0h54c1.657 0 3-1.343 3-3v0-39c0-1.657-1.343-3-3-3v0zM58 55h-52v-37h13l2.902-8.531h20.137l2.96 8.531h13z"></path>
<path d="M36.25 18.825l-0.919-2.72h-6.657l-0.924 2.72-2.913 8.625-9.815 3.325 0.040 2.91 0.009 0.64v0.279l0.040 2.875 2.735 0.875 7.529 2.424 2.348 7.455 0.875 2.799h6.788l0.881-2.799 2.359-7.455 10.258-3.297 0.040-2.875v-0.279l0.009-0.64 0.040-2.91-9.809-3.325zM44.925 34.547l-9.491 3.055-2.969 9.429h-0.92l-2.969-9.429-9.491-3.055c0-0.44 0-0.479-0.012-0.919l8.927-3.026 3.545-10.5h0.91l3.545 10.5 8.932 3.022c-0.006 0.444-0.006 0.483-0.013 0.922z"></path>
</svg>
