<!-- Generated by IcoMoon.io -->
<svg version="1.1" xmlns="http://www.w3.org/2000/svg" width="64" height="64" viewBox="0 0 64 64">
<title>camera-control</title>
<path d="M42 32c0-5.523-4.477-10-10-10s-10 4.477-10 10c0 5.523 4.477 10 10 10v0c5.52-0.006 9.994-4.48 10-9.999v-0.001zM26 32c0-3.314 2.686-6 6-6s6 2.686 6 6c0 3.314-2.686 6-6 6v0c-3.312-0.004-5.996-2.688-6-6v-0z"></path>
<path d="M20 49.75l10.664 12.25h2.672l10.664-12.25v-3.75h-24zM38.479 50l-6.479 7.443-6.479-7.443z"></path>
<path d="M30.664 2l-10.664 12.25v3.75h24v-3.75l-10.664-12.25zM25.521 14l6.479-7.442 6.479 7.442z"></path>
<path d="M2 30.664v2.672l12.25 10.664h3.75v-24h-3.75zM14 38.479l-7.442-6.479 7.442-6.479z"></path>
<path d="M49.75 20h-3.75v24h3.75l12.25-10.664v-2.672zM50 38.479v-12.957l7.443 6.479z"></path>
</svg>
