<!-- Generated by IcoMoon.io -->
<svg version="1.1" xmlns="http://www.w3.org/2000/svg" width="64" height="64" viewBox="0 0 64 64">
<title>casino</title>
<path d="M61.905 33.449l-6.272-28.314c-0.413-1.806-2.006-3.134-3.909-3.134-0.305 0-0.603 0.034-0.888 0.099l0.027-0.005-28.314 6.272c-1.807 0.41-3.135 2.003-3.135 3.905 0 0.307 0.035 0.605 0.1 0.892l-0.005-0.027 2.628 11.863h-16.137c-2.208 0.003-3.997 1.792-4 4v29c0.003 2.208 1.792 3.997 4 4h29c2.208-0.003 3.997-1.792 4-4v-15.381l19.865-4.4c1.807-0.413 3.134-2.006 3.134-3.909 0-0.305-0.034-0.603-0.099-0.888l0.005 0.027zM35 58h-29v-29h17.023l2.758 12.451c0.41 1.804 1.998 3.131 3.897 3.136h0.001c0.309-0 0.611-0.035 0.9-0.101l-0.027 0.005 4.45-0.986 0.001 14.495zM58 34.314l-28.314 6.272-6.272-28.314 28.314-6.272 6.274 28.313z"></path>
<path d="M10 33h5v5h-5v-5z"></path>
<path d="M10 49h5v5h-5v-5z"></path>
<path d="M26 49h5v5h-5v-5z"></path>
<path d="M18 41h5v5h-5v-5z"></path>
<path d="M28.185 15.312l4.882-1.081 1.081 4.882-4.882 1.081-1.081-4.882z"></path>
<path d="M47.266 27.473l4.882-1.081 1.081 4.882-4.882 1.081-1.081-4.882z"></path>
<path d="M37.725 21.393l4.882-1.081 1.081 4.882-4.882 1.081-1.081-4.882z"></path>
</svg>
