<!-- Generated by IcoMoon.io -->
<svg version="1.1" xmlns="http://www.w3.org/2000/svg" width="64" height="64" viewBox="0 0 64 64">
<title>cast</title>
<path d="M2 45v0 8h8c0-4.418-3.582-8-8-8v0z"></path>
<path d="M59 10h-54c-1.656 0.002-2.998 1.344-3 3v9h4v-8h52v35h-25v4h26c1.656-0.002 2.998-1.344 3-3v-37c-0.002-1.656-1.344-2.998-3-3h-0z"></path>
<path d="M2 27v4c12.131 0 22 9.869 22 22h4c0-14.336-11.664-26-26-26z"></path>
<path d="M2 36v4c7.176 0.008 12.992 5.824 13 12.999v0.001h4c0-9.374-7.626-17-17-17z"></path>
</svg>
