<!-- Generated by IcoMoon.io -->
<svg version="1.1" xmlns="http://www.w3.org/2000/svg" width="64" height="64" viewBox="0 0 64 64">
<title>cat</title>
<path d="M46.845 23.358v0c-0.934-2.691-3.447-4.588-6.404-4.588-0.003 0-0.007 0-0.010 0h-5.432v-16.076l-2.283 0.326c-5.179 0.74-9.212 3.364-11.988 7.8-2.001 3.198-2.932 6.724-3.363 9.363-2.981 2.293-5.574 5.451-7.717 9.4-1.806 3.327-3.301 7.227-4.444 11.591-1.931 7.374-2.192 13.49-2.202 13.747l-0.001 7.079h3.999v-6.954c0.050-1.029 1.309-23.544 13.379-32.117l0.707-0.503 0.116-0.86c0.602-4.453 2.682-11.809 9.797-14.069v15.274h9.432c0.002 0 0.005 0 0.008 0 1.207 0 2.234 0.774 2.611 1.852l0.006 0.019c1.595 4.707 4.335 10.597 8.605 13.365l-1.284 4.816c-0.906 3.399-3.957 5.862-7.583 5.862-0.082 0-0.164-0.001-0.246-0.004l0.012 0c-3.584-0.108-7.313 0.36-11.086 1.389l-1.474 0.402v11.528h4v-8.441c2.291-0.565 4.921-0.889 7.626-0.889 0.286 0 0.571 0.004 0.856 0.011l-0.042-0.001c0.097 0.003 0.212 0.005 0.327 0.005 5.475 0 10.085-3.707 11.456-8.748l0.019-0.083 2.136-8.010-1.59-0.682c-2.975-1.275-5.796-5.467-7.943-11.803z"></path>
</svg>
