<!-- Generated by IcoMoon.io -->
<svg version="1.1" xmlns="http://www.w3.org/2000/svg" width="64" height="64" viewBox="0 0 64 64">
<title>chevron-circle-up-alt</title>
<path d="M32 62c0 0-0 0-0 0-16.569 0-30-13.431-30-30 0-8.284 3.358-15.784 8.787-21.213v0c5.429-5.429 12.929-8.787 21.213-8.787 16.569 0 30 13.431 30 30 0 8.284-3.358 15.784-8.787 21.213v0c-5.399 5.428-12.873 8.787-21.132 8.787-0.029 0-0.057-0-0.086-0h0.004zM32 6c-14.336 0-26 11.664-26 26s11.664 26 26 26 26-11.664 26-26-11.664-26-26-26z"></path>
<path d="M44.586 39.414l-12.586-12.586-12.586 12.586-2.828-2.828 15.414-15.414 15.414 15.414-2.828 2.828z"></path>
</svg>
