<!-- Generated by IcoMoon.io -->
<svg version="1.1" xmlns="http://www.w3.org/2000/svg" width="64" height="64" viewBox="0 0 64 64">
<title>child</title>
<path d="M53.174 25.004c-3.023-6.973-9.197-12.081-16.676-13.569l-0.147-0.024 3.344-5.351-3.392-2.12-4.413 7.061c-9.411 0.045-17.483 5.734-21.007 13.855l-0.057 0.149c-4.896 0.095-8.828 4.086-8.828 8.996s3.932 8.9 8.819 8.995l0.009 0c3.596 8.302 11.719 14.004 21.174 14.004s17.577-5.703 21.116-13.856l0.057-0.149c4.895-0.095 8.828-4.086 8.828-8.996s-3.932-8.9-8.819-8.995l-0.009-0zM56.568 37.501c-0.884 0.904-2.109 1.471-3.466 1.495l-0.004 0-2.591 0.049-1.014 2.384c-2.971 6.859-9.682 11.571-17.493 11.571s-14.522-4.712-17.445-11.448l-0.047-0.123-1.014-2.384-2.591-0.049c-2.719-0.054-4.902-2.27-4.902-4.996s2.183-4.943 4.897-4.996l0.005-0 2.591-0.049 1.014-2.384c2.971-6.859 9.682-11.571 17.493-11.571s14.522 4.712 17.445 11.448l0.047 0.123 1.014 2.384 2.591 0.049c2.719 0.053 4.902 2.27 4.902 4.996 0 1.364-0.547 2.601-1.433 3.502l0.001-0.001z"></path>
<path d="M21 29h5v5h-5v-5z"></path>
<path d="M38 29h5v5h-5v-5z"></path>
<path d="M32 48c5.523 0 10-4.477 10-10v0h-20c0 5.523 4.477 10 10 10v0z"></path>
</svg>
