<!-- Generated by IcoMoon.io -->
<svg version="1.1" xmlns="http://www.w3.org/2000/svg" width="64" height="64" viewBox="0 0 64 64">
<title>child-friendly</title>
<path d="M55.632 43.142l2.368-8.88v-5.262c-1.017-11.749-10.992-21-23-21h-4v21h-14.48l-2.23-9.846c-0.41-1.812-2.003-3.146-3.909-3.154h-8.381v4h8.38l5.059 22.334c-4.316 1.171-7.439 5.054-7.439 9.666 0 5.523 4.477 10 10 10s10-4.477 10-10c0-0 0-0 0-0v0c0-0.337-0.017-0.671-0.050-1h13.1c-0.033 0.329-0.050 0.663-0.050 1 0 0.001 0 0.003 0 0.004 0 5.523 4.477 10 10 10s10-4.477 10-10c0-3.83-2.153-7.156-5.314-8.836l-0.054-0.026zM35 12c9.801 0 17.893 7.46 18.895 17h-18.895zM18 58c-3.314 0-6-2.686-6-6s2.686-6 6-6c3.314 0 6 2.686 6 6v0c-0.004 3.312-2.688 5.996-6 6h-0zM42.345 47h-15.691c-1.514-2.584-4.087-4.407-7.108-4.881l-0.057-0.007-2.064-9.111h36.574v0.738l-2.212 8.296c-0.26-0.020-0.522-0.034-0.788-0.034-3.68 0.003-6.894 1.992-8.629 4.953l-0.026 0.047zM51 58c-3.314 0-6-2.686-6-6s2.686-6 6-6c3.314 0 6 2.686 6 6v0c-0.004 3.312-2.688 5.996-6 6h-0z"></path>
</svg>
