<!-- Generated by IcoMoon.io -->
<svg version="1.1" xmlns="http://www.w3.org/2000/svg" width="64" height="64" viewBox="0 0 64 64">
<title>circle</title>
<path d="M32.075 62c0 0 0 0 0 0 16.525 0 29.921-13.396 29.921-29.921 0-8.262-3.349-15.742-8.764-21.157v0c-5.414-5.411-12.892-8.758-21.151-8.758-16.525 0-29.921 13.396-29.921 29.921 0 8.259 3.347 15.737 8.758 21.151l-0-0c5.385 5.413 12.839 8.764 21.076 8.764 0.029 0 0.057-0 0.086-0h-0.004zM32.075 6.159c14.293 0 25.921 11.628 25.921 25.921s-11.628 25.921-25.921 25.921-25.921-11.628-25.921-25.921 11.628-25.921 25.921-25.921z"></path>
</svg>
