<!-- Generated by IcoMoon.io -->
<svg version="1.1" xmlns="http://www.w3.org/2000/svg" width="64" height="64" viewBox="0 0 64 64">
<title>city</title>
<path d="M39 14.377v17.623h-12v-19.948l-13.062-10.687-11.938 10.744v49.891h60v-52.465zM23 32v26h-7v-9h-4v9h-6v-44.109l8.062-7.256 8.938 7.313zM58 58h-31v-22h16v-18.377l15-3.158z"></path>
<path d="M12 16h4v4h-4v-4z"></path>
<path d="M12 27h4v4h-4v-4z"></path>
<path d="M12 38h4v4h-4v-4z"></path>
<path d="M32 40h4v4h-4v-4z"></path>
<path d="M48 31h4v4h-4v-4z"></path>
<path d="M48 22h4v4h-4v-4z"></path>
<path d="M48 40h4v4h-4v-4z"></path>
<path d="M48 48h4v4h-4v-4z"></path>
<path d="M32 48h4v4h-4v-4z"></path>
</svg>
