<!-- Generated by IcoMoon.io -->
<svg version="1.1" xmlns="http://www.w3.org/2000/svg" width="64" height="64" viewBox="0 0 64 64">
<title>closed-captioning</title>
<path d="M59 8h-54c-1.657 0-3 1.343-3 3v0 42c0 1.657 1.343 3 3 3v0h54c1.657 0 3-1.343 3-3v0-42c0-1.657-1.343-3-3-3v0zM58 52h-52v-40h52z"></path>
<path d="M23 43c0.012 0 0.026 0 0.040 0 2.569 0 4.93-0.89 6.791-2.378l-0.022 0.017-2.477-3.139c-1.17 0.935-2.671 1.5-4.304 1.5-0.010 0-0.020 0-0.030-0h0.002c-3.866 0-7-3.134-7-7s3.134-7 7-7v0c0.008-0 0.018-0 0.028-0 1.633 0 3.134 0.565 4.318 1.511l-0.014-0.011 2.477-3.14c-1.84-1.471-4.2-2.36-6.768-2.36-0.015 0-0.029 0-0.044 0h0.002c-6.075 0-11 4.925-11 11s4.925 11 11 11v0z"></path>
<path d="M43.429 43c0.012 0 0.026 0 0.039 0 2.569 0 4.93-0.89 6.792-2.378l-0.022 0.017-2.477-3.139c-1.17 0.935-2.671 1.5-4.304 1.5-0.010 0-0.020 0-0.030-0h0.002c-3.866 0-7-3.134-7-7s3.134-7 7-7v0c0.008-0 0.018-0 0.028-0 1.633 0 3.134 0.565 4.318 1.511l-0.014-0.011 2.477-3.14c-1.84-1.471-4.201-2.36-6.769-2.36-0.014 0-0.029 0-0.043 0h0.002c-6.075 0-11 4.925-11 11s4.925 11 11 11v0z"></path>
</svg>
