<!-- Generated by IcoMoon.io -->
<svg version="1.1" xmlns="http://www.w3.org/2000/svg" width="64" height="64" viewBox="0 0 64 64">
<title>cloud-circle</title>
<path d="M44.482 26.005c-0.23-6.678-5.699-12.003-12.412-12.003-6.738 0-12.222 5.366-12.414 12.058l-0 0.018c-4.533 1.21-7.817 5.279-7.819 10.115v0c0.006 5.414 4.394 9.802 9.808 9.808h20.536c5.591-0.006 10.121-4.539 10.121-10.131 0-4.776-3.304-8.78-7.752-9.85l-0.069-0.014zM42.181 42h-20.536c-3.206-0.004-5.804-2.602-5.808-5.808v-0c0.012-3.386 2.622-6.159 5.94-6.43l0.023-0.002 1.851-0.139v-3.203c0-4.649 3.769-8.419 8.419-8.419s8.419 3.769 8.419 8.419v0 3.252l1.921 0.076c3.282 0.131 5.892 2.823 5.892 6.125 0 3.382-2.739 6.124-6.12 6.129h-0z"></path>
<path d="M53.213 10.787c-5.429-5.429-12.929-8.787-21.213-8.787-16.569 0-30 13.431-30 30 0 8.284 3.358 15.784 8.787 21.213v0c5.429 5.429 12.929 8.787 21.213 8.787 16.569 0 30-13.431 30-30 0-8.284-3.358-15.784-8.787-21.213v0zM32 58c-14.336 0-26-11.664-26-26s11.664-26 26-26 26 11.664 26 26-11.664 26-26 26z"></path>
</svg>
