<!-- Generated by IcoMoon.io -->
<svg version="1.1" xmlns="http://www.w3.org/2000/svg" width="64" height="64" viewBox="0 0 64 64">
<title>cloud-slash</title>
<path d="M32 10c7.728 0.009 13.991 6.272 14 13.999v4.006l1.975 0.025c5.809 0.073 10.025 4.352 10.025 10.172 0 3.216-1.257 6.062-3.289 8.023l2.82 2.82q0.237-0.233 0.466-0.477c2.582-2.776 4.004-6.457 4.004-10.366 0-7.305-5.036-13.028-12-14.021v-0.182c0-9.925-8.075-18-18-18-0.003 0-0.008 0-0.012 0-4.845 0-9.242 1.921-12.47 5.043l0.005-0.005 2.827 2.827c2.5-2.393 5.898-3.866 9.639-3.866 0.004 0 0.007 0 0.011 0h-0.001z"></path>
<path d="M2 2v2.828l13.069 13.069c-0.677 1.813-1.069 3.907-1.069 6.093 0 0.003 0 0.007 0 0.011v-0.001 0.311c-3.084 0.596-5.76 2.046-7.852 4.091l0.003-0.003c-2.559 2.486-4.148 5.958-4.151 9.802v0.001c0 3.89 1.599 7.595 4.501 10.434 2.836 2.773 6.666 4.364 10.508 4.364h33.163l9 9h2.828v-2.828l-57.172-57.172zM18 27.926v-3.926c0-0 0-0.001 0-0.001 0-1.017 0.108-2.009 0.314-2.965l-0.017 0.092 27.874 27.874h-29.163c-5.864 0-11.009-5.046-11.009-10.798 0-5.284 4.455-9.739 10.142-10.144z"></path>
</svg>
