<!-- Generated by IcoMoon.io -->
<svg version="1.1" xmlns="http://www.w3.org/2000/svg" width="64" height="64" viewBox="0 0 64 64">
<title>couch</title>
<path d="M56 30.253v-11.253c-0.004-3.312-2.688-5.996-6-6h-36c-3.312 0.004-5.996 2.688-6 6v11.254c-3.475 0.924-5.995 4.041-6 7.746v14.001c0.003 2.208 1.792 3.997 4 4h2v6h4v-6h40v6h4v-6h2c2.208-0.003 3.997-1.792 4-4v-14c-0.005-3.706-2.525-6.822-5.944-7.734l-0.056-0.013zM14 52h-8v-14c0-2.209 1.791-4 4-4s4 1.791 4 4v0zM46 52h-28v-12h28zM46.253 36h-28.506c-0.752-2.819-2.928-4.995-5.691-5.734l-0.056-0.013v-11.253c0.001-1.104 0.896-1.999 2-2h36c1.104 0.001 1.999 0.896 2 2v11.253c-2.819 0.752-4.995 2.928-5.734 5.691l-0.013 0.056zM58 52h-8v-14c0-2.209 1.791-4 4-4s4 1.791 4 4v0l0.002 14z"></path>
</svg>
