<!-- Generated by IcoMoon.io -->
<svg version="1.1" xmlns="http://www.w3.org/2000/svg" width="64" height="64" viewBox="0 0 64 64">
<title>cut</title>
<path d="M56 53.172l-20.672-20.672 20.672-20.672v-2.828h-2.828l-20.672 20.672-10.44-10.44c1.215-1.745 1.94-3.909 1.94-6.242 0-6.081-4.93-11.011-11.011-11.011s-11.011 4.93-11.011 11.011c0 6.081 4.93 11.011 11.011 11.011 2.334 0 4.497-0.726 6.278-1.964l-0.036 0.024 10.44 10.44-9.865 9.865c-1.853-1.471-4.226-2.359-6.807-2.359-6.075 0-11 4.925-11 11s4.925 11 11 11c6.075 0 11-4.925 11-11 0-2.078-0.576-4.020-1.577-5.678l0.028 0.049 10.049-10.049 20.672 20.672h2.828zM13 20c-3.866 0-7-3.134-7-7s3.134-7 7-7c3.866 0 7 3.134 7 7v0c-0.005 3.864-3.136 6.995-7 7h-0zM13 58c-3.866 0-7-3.134-7-7s3.134-7 7-7c3.866 0 7 3.134 7 7v0c-0.005 3.864-3.136 6.995-7 7h-0z"></path>
</svg>
