<!-- Generated by IcoMoon.io -->
<svg version="1.1" xmlns="http://www.w3.org/2000/svg" width="64" height="64" viewBox="0 0 64 64">
<title>deaf</title>
<path d="M32.020 9c8.163 0.057 14.843 6.746 14.891 14.909 0 0.025 0 0.054 0 0.084 0 4.019-1.579 7.67-4.151 10.365l0.006-0.006 2.829 2.829c3.29-3.414 5.317-8.065 5.317-13.189 0-0.037-0-0.075-0-0.112v0.006c-0.061-10.34-8.523-18.812-18.863-18.885-0.058-0.001-0.127-0.001-0.196-0.001-5.103 0-9.732 2.028-13.125 5.322l0.005-0.005 2.829 2.829c2.673-2.566 6.31-4.146 10.315-4.146 0.051 0 0.102 0 0.153 0.001l-0.008-0z"></path>
<path d="M44.912 42.154v0l-40.154-40.154h-2.846v2.811l12.287 12.287c-0.814 2.038-1.287 4.399-1.287 6.871 0 0.011 0 0.022 0 0.032v-0.002 4h4v-4c0-0.003 0-0.008 0-0.012 0-1.319 0.169-2.599 0.487-3.819l-0.023 0.105 3.541 3.541c-0.003 0.099-0.004 0.198-0.004 0.298v10.716l0.636 0.635c2.696 2.682 4.364 6.394 4.364 10.495 0 0.014 0 0.028-0 0.042v-0.002h4c0-0.016 0-0.034 0-0.053 0-4.93-1.901-9.417-5.011-12.766l0.011 0.012v-5.382l16 16v3.272c-0.005 4.37-3.546 7.912-7.916 7.917h-3.084v4h3.083c6.33-0.008 11.504-4.944 11.893-11.176l0.002-0.034 14.211 14.21h2.811v-2.846z"></path>
<path d="M31.828 13c-2.879 0.025-5.487 1.162-7.42 3.003l0.004-0.004 2.828 2.827c1.211-1.119 2.832-1.81 4.614-1.826h0.003c0.018-0 0.036-0 0.053-0 0 0 0 0 0 0 3.866 0 7 3.134 7 7 0 0 0 0 0 0v0h4c-0-6.075-4.925-11-11-11-0.029 0-0.058 0-0.087 0h0.005z"></path>
</svg>
