<!-- Generated by IcoMoon.io -->
<svg version="1.1" xmlns="http://www.w3.org/2000/svg" width="64" height="64" viewBox="0 0 64 64">
<title>developer-board</title>
<path d="M62 19.192v-4.192h-4.904v-6.030c0-1.666-1.433-2.97-3.262-2.97h-48.669c-1.829 0-3.262 1.305-3.262 2.97v47.001c0 1.666 1.433 2.97 3.262 2.97h48.669c1.829 0 3.262-1.305 3.262-2.97v-4.78h4.904v-4.192h-4.904v-11.808h4.904v-4.192h-4.904v-11.808zM52.904 54.75h-46.808v-44.558h46.808z"></path>
<path d="M49.096 39h-17.192v12.192h17.192zM44.904 47h-8.808v-3.808h8.808z"></path>
<path d="M28.096 14h-17.192v12.192h17.192zM23.904 22h-8.808v-3.808h8.808z"></path>
<path d="M49.096 14h-17.192v21.192h17.192zM44.904 31h-8.808v-12.808h8.808z"></path>
<path d="M28.096 30h-17.192v21.192h17.192zM23.904 47h-8.808v-12.808h8.808z"></path>
</svg>
