<!-- Generated by IcoMoon.io -->
<svg version="1.1" xmlns="http://www.w3.org/2000/svg" width="64" height="64" viewBox="0 0 64 64">
<title>dog</title>
<path d="M49.163 20.166l-7.346-10.611c-1.083-1.546-2.844-2.552-4.842-2.584l-0.005-0-13.97-0.201c-7.197 0-12.72 1.204-16.276 7.079-3.311 5.47-4.724 14.786-4.724 31.151v2h4.57l-2.942 15h4.076l2.942-15h1.354c0.033 0 0.072 0.001 0.111 0.001 3.363 0 6.414-1.334 8.653-3.503l-0.003 0.003c2.122-2.031 3.653-4.809 4.427-8.034l0.007-0.029 3.43-16.438h-4.086l-3.247 15.561c-0.989 4.085-3.946 8.439-9.292 8.439h-5.992c0.109-14.158 1.398-22.552 4.138-27.079 2.3-3.8 5.662-5.149 12.841-5.151l13.926 0.2c0.668 0.011 1.255 0.346 1.611 0.855l0.004 0.006 8.309 12.002 11.163 1.861v2.12l-1.861 9.928c-0.549 2.93-1.489 4.406-5.34 4.869l-15.788 2.701-0.104 16.688h4l0.083-13.312 12.337-2.113c2.795-0.344 4.857-1.244 6.303-2.753 1.236-1.29 1.989-2.938 2.44-5.344l1.93-10.293v-5.88z"></path>
</svg>
