<!-- Generated by IcoMoon.io -->
<svg version="1.1" xmlns="http://www.w3.org/2000/svg" width="64" height="64" viewBox="0 0 64 64">
<title>drink</title>
<path d="M34.205 16l0.476 4h12.054l-1 8h-14.163l-0.93-8h0.011l-0.476-4h-0l-0.006-0.049-1.39-11.951h-15.781v4h12.219l0.93 8h-11.415l5.062 40.496c0.258 1.984 1.936 3.501 3.969 3.504h18.469c2.033-0.003 3.711-1.52 3.967-3.484l0.002-0.020 5.062-40.496zM19.265 20h7.349l0.93 8h-7.279zM42.236 56h-18.471l-3-24h7.244l1.744 15h4.027l-1.744-15h13.198z"></path>
</svg>
