<!-- Generated by IcoMoon.io -->
<svg version="1.1" xmlns="http://www.w3.org/2000/svg" width="64" height="64" viewBox="0 0 64 64">
<title>ear</title>
<path d="M32.048 5c-0.046-0-0.092-0-0.138-0-10.493 0.001-18.999 8.507-18.999 19v4h4v-4c0-0 0-0 0-0 0-8.284 6.715-15 14.999-15v0c0.036 0 0.073 0 0.109 0 8.163 0.057 14.843 6.746 14.891 14.909 0 0.025 0 0.054 0 0.084 0 4.441-1.928 8.432-4.992 11.181l-0.014 0.012c-0.611 0.55-0.994 1.344-0.994 2.227 0 0.001 0 0.002 0 0.003v-0 9.667c-0.005 4.37-3.546 7.912-7.916 7.917h-3.084v4h3.083c6.578-0.008 11.909-5.338 11.917-11.916v-9.228c3.697-3.478 6-8.402 6-13.864 0-0.038-0-0.075-0-0.113v0.006c-0.061-10.34-8.523-18.812-18.863-18.885z"></path>
<path d="M24.912 33.193v-9.080c0-3.894 3.116-7.084 6.947-7.113 0.018-0 0.036-0 0.053-0 0 0 0 0 0 0 3.866 0 7 3.134 7 7 0 0 0 0 0 0v0h4c-0-6.075-4.924-10.999-10.999-11h-0c-0.028 0-0.056 0-0.084 0-6.020 0.045-10.917 5.030-10.917 11.113v10.716l0.636 0.635c2.696 2.681 4.364 6.394 4.364 10.495 0 0.014 0 0.028-0 0.042v-0.002h4c0-0.016 0-0.034 0-0.053 0-4.93-1.901-9.417-5.011-12.766l0.011 0.012z"></path>
</svg>
