<!-- Generated by IcoMoon.io -->
<svg version="1.1" xmlns="http://www.w3.org/2000/svg" width="64" height="64" viewBox="0 0 64 64">
<title>equalizer</title>
<path d="M12 18.25v-16.25h-4v16.25c-3.486 0.914-6.016 4.037-6.016 7.75s2.53 6.836 5.96 7.738l0.056 0.012v28.25h4v-28.25c3.486-0.914 6.016-4.037 6.016-7.75s-2.53-6.836-5.96-7.738l-0.056-0.012zM10 30c-2.209 0-4-1.791-4-4s1.791-4 4-4c2.209 0 4 1.791 4 4v0c0 2.209-1.791 4-4 4v0z"></path>
<path d="M34 36.25v-34.25h-4v34.25c-3.486 0.914-6.016 4.037-6.016 7.75s2.53 6.836 5.96 7.738l0.056 0.012v10.25h4v-10.25c3.486-0.914 6.016-4.037 6.016-7.75s-2.53-6.836-5.96-7.738l-0.056-0.012zM32 48c-2.209 0-4-1.791-4-4s1.791-4 4-4c2.209 0 4 1.791 4 4v0c0 2.209-1.791 4-4 4v0z"></path>
<path d="M56 10.25v-8.25h-4v8.25c-3.486 0.914-6.016 4.037-6.016 7.75s2.53 6.836 5.96 7.738l0.056 0.012v36.25h4v-36.25c3.486-0.914 6.016-4.037 6.016-7.75s-2.53-6.836-5.96-7.738l-0.056-0.012zM54 22c-2.209 0-4-1.791-4-4s1.791-4 4-4c2.209 0 4 1.791 4 4v0c0 2.209-1.791 4-4 4v0z"></path>
</svg>
