<!-- Generated by IcoMoon.io -->
<svg version="1.1" xmlns="http://www.w3.org/2000/svg" width="64" height="64" viewBox="0 0 64 64">
<title>face</title>
<path d="M32 2c-16.569 0-30 13.431-30 30s13.431 30 30 30 30-13.431 30-30-13.431-30-30-30zM50.385 50.385c-4.685 4.672-11.151 7.56-18.291 7.56-14.308 0-25.906-11.599-25.906-25.906s11.599-25.906 25.906-25.906c14.308 0 25.906 11.599 25.906 25.906 0 3.64-0.751 7.105-2.106 10.248l0.065-0.168c-1.378 3.213-3.258 5.957-5.573 8.265l-0.001 0.001z"></path>
<path d="M16 24h5v5h-5v-5z"></path>
<path d="M42 24h5v5h-5v-5z"></path>
<path d="M29 38.368c0-0.062 0.009-0.121 0.025-0.178l-0.001 0.005 3.976-13.915v-3.28h-4v2.72l-3.822 13.376c-0.113 0.381-0.178 0.819-0.178 1.273 0 2.558 2.073 4.631 4.631 4.631 0 0 0 0 0 0h7.369v-4h-7.369c-0.349-0-0.631-0.283-0.631-0.631v-0z"></path>
</svg>
