<!-- Generated by IcoMoon.io -->
<svg version="1.1" xmlns="http://www.w3.org/2000/svg" width="64" height="64" viewBox="0 0 64 64">
<title>fastfood</title>
<path d="M59.273 15h-14.273v-10h-4v10h-16v4h2.24l0.769 6h-14.009c-5.52 0.006-9.994 4.48-10 9.999v2.001h35v-2c0-0.003 0-0.007 0-0.011 0-1.581-0.369-3.076-1.026-4.403l0.026 0.058c-1.2-2.432-3.285-4.274-5.824-5.127l-0.071-0.021-0.833-6.496h23.454l-4.487 35h-46.24v4h49.76l5-39h3.24v-4zM34.657 33h-26.314c0.851-2.349 3.061-3.997 5.657-4h15c2.596 0.003 4.806 1.651 5.644 3.958l0.013 0.042z"></path>
<path d="M38 44h1v-4h-35v4h34z"></path>
<path d="M38 51h1v-4h-35v4h34z"></path>
</svg>
