<!-- Generated by IcoMoon.io -->
<svg version="1.1" xmlns="http://www.w3.org/2000/svg" width="64" height="64" viewBox="0 0 64 64">
<title>fiber-new</title>
<path d="M26 9c-12.682 0-23 10.318-23 23s10.318 23 23 23 23-10.318 23-23-10.318-23-23-23zM26 51c-10.476 0-19-8.524-19-19s8.524-19 19-19 19 8.524 19 19-8.524 19-19 19z"></path>
<path d="M26 19c-7.18 0-13 5.82-13 13s5.82 13 13 13c7.18 0 13-5.82 13-13v0c-0.008-7.177-5.823-12.992-12.999-13h-0.001zM26 41c-4.971 0-9-4.029-9-9s4.029-9 9-9c4.971 0 9 4.029 9 9v0c-0.006 4.968-4.032 8.994-8.999 9h-0.001z"></path>
<path d="M58.021 20.543c-1.365-3.752-3.219-6.996-5.529-9.857l0.050 0.065-3.125 2.5c4.099 5.087 6.579 11.629 6.579 18.749 0 6.704-2.199 12.895-5.914 17.891l0.057-0.080 3.218 2.375c4.148-5.578 6.64-12.6 6.64-20.206 0-4.102-0.725-8.035-2.054-11.677l0.075 0.237z"></path>
</svg>
