<!-- Generated by IcoMoon.io -->
<svg version="1.1" xmlns="http://www.w3.org/2000/svg" width="64" height="64" viewBox="0 0 64 64">
<title>fiber-pin</title>
<path d="M14 36h6c2.209 0 4-1.791 4-4v0-8c0-2.209-1.791-4-4-4v0h-10v23h4zM14 24h6v8h-6z"></path>
<path d="M28 20h4v23h-4v-23z"></path>
<path d="M41 25.003l5.305 17.997h6.695v-23h-4v17.998l-5.305-17.997h-6.695v23h4v-17.997z"></path>
<path d="M58 10h-52c-2.243 0-4 1.5-4 3.429v37.142c0 1.929 1.758 3.429 4 3.429h52c2.242 0 4-1.506 4-3.429v-37.142c0-1.922-1.758-3.429-4-3.429zM58 50h-52v-36h52z"></path>
</svg>
