<!-- Generated by IcoMoon.io -->
<svg version="1.1" xmlns="http://www.w3.org/2000/svg" width="64" height="64" viewBox="0 0 64 64">
<title>fiber-smart</title>
<path d="M56 13v5.929l-1.862 26.071h-0.255l-3.136-23h-4.492l-3.136 23h-0.255l-1.862-26.071v-5.929h-4v6l2.138 30h7.471l0.699-5.124 0.892-14.876h0.6l0.892 14.877 0.699 5.123h7.471l2.138-29.929v-6.071h-4z"></path>
<path d="M17 41h-0.6l-0.629-8.974-4.161-19.026h-6.61v36h4v-29h0.6l0.26 3.721 5.53 25.279h5.61v-36h-4v28z"></path>
<path d="M24 49h11v-4h-7v-12h5v-4h-5v-12h7v-4h-11v36z"></path>
</svg>
