<!-- Generated by IcoMoon.io -->
<svg version="1.1" xmlns="http://www.w3.org/2000/svg" width="64" height="64" viewBox="0 0 64 64">
<title>fiber-dvr</title>
<path d="M16 13h-12v36h12c2.209 0 4-1.791 4-4v0-28c0-2.209-1.791-4-4-4v0zM16 45h-8v-28h8z"></path>
<path d="M60 29v-12c0-2.209-1.791-4-4-4v0h-12v36h4v-16h3.646l3.354 8.385v7.615h4v-8.385l-3.046-7.615h0.046c2.209 0 4-1.791 4-4v0zM48 29v-12h8v12z"></path>
<path d="M37 18.823l-4.675 26.177h-0.65l-4.675-26.177v-5.822h-4v6.178l5.325 29.822h7.35l5.325-29.823v-6.178h-4v5.822z"></path>
</svg>
