<!-- Generated by IcoMoon.io -->
<svg version="1.1" xmlns="http://www.w3.org/2000/svg" width="64" height="64" viewBox="0 0 64 64">
<title>fiber-manual</title>
<path d="M32 9c-12.682 0-23 10.318-23 23s10.318 23 23 23 23-10.318 23-23-10.318-23-23-23zM32 51c-10.476 0-19-8.524-19-19s8.524-19 19-19 19 8.524 19 19-8.524 19-19 19z"></path>
<path d="M32 19c-7.18 0-13 5.82-13 13s5.82 13 13 13c7.18 0 13-5.82 13-13v0c-0.008-7.177-5.823-12.992-12.999-13h-0.001zM32 41c-4.971 0-9-4.029-9-9s4.029-9 9-9c4.971 0 9 4.029 9 9v0c-0.006 4.968-4.032 8.994-8.999 9h-0.001z"></path>
</svg>
