<!-- Generated by IcoMoon.io -->
<svg version="1.1" xmlns="http://www.w3.org/2000/svg" width="64" height="64" viewBox="0 0 64 64">
<title>fingerprint</title>
<path d="M18.561 41.611l15.26-15.798 2.877 2.779-15.26 15.798-2.877-2.779z"></path>
<path d="M41.301 35.303c1.808-1.809 2.926-4.308 2.926-7.068 0-5.523-4.477-10-10-10-2.763 0-5.264 1.121-7.074 2.932l-9.364 9.363c-2.746 2.761-6.547 4.469-10.748 4.469-0.015 0-0.029 0-0.044-0h-0.998v4h1c0.016 0 0.034 0 0.052 0 5.302 0 10.099-2.156 13.564-5.64l0.001-0.001 9.363-9.363c1.086-1.086 2.586-1.757 4.243-1.757 3.314 0 6 2.686 6 6 0 1.657-0.672 3.157-1.757 4.243v0l-8.526 8.674c-3.054 3.091-4.94 7.342-4.94 12.033 0 0.014 0 0.028 0 0.043v-0.002 4.771h4v-4.771c0-0.009-0-0.020-0-0.031 0-3.602 1.448-6.865 3.794-9.24l-0.001 0.001z"></path>
<path d="M49.642 41.107c-2.484 2.701-10.313 10.624-10.392 10.704l-0.013 0.013c-0.275 0.283-0.66 0.459-1.085 0.459-0.836 0-1.513-0.677-1.513-1.513 0-0.41 0.163-0.782 0.428-1.055l-0 0 9.894-10.173c3.072-3.074 4.973-7.321 4.973-12.011 0-4.695-1.904-8.945-4.983-12.021l-0-0c-6.628-6.628-17.413-6.628-24.042 0l-7.676 7.912c-4.011 3.577-5.441 3.577-9.234 3.577v4c4.568 0 6.985-0.197 11.954-4.642l0.053-0.047 7.742-7.982c2.351-2.342 5.594-3.79 9.175-3.79 7.18 0 13 5.82 13 13 0 3.586-1.452 6.833-3.8 9.185l0-0-9.923 10.202c-0.967 0.992-1.563 2.349-1.563 3.846 0 3.045 2.468 5.513 5.513 5.513 1.548 0 2.948-0.638 3.949-1.666l0.001-0.001c0.398-0.403 7.967-8.064 10.486-10.803 4.365-4.746 7.413-11.249 7.413-15.814h-4c0 3.531-2.733 9.166-6.358 13.107z"></path>
<path d="M53.14 9.687c-4.396-4.25-9.915-6.687-15.14-6.687v4c4.198 0 8.703 2.028 12.36 5.563 3.532 3.414 5.64 7.689 5.64 11.437h4c0-4.882-2.5-10.099-6.86-14.313z"></path>
<path d="M16.619 17.174c2.758-3.805 7.375-10.174 17.381-10.174v-4c-12.047 0-17.623 7.693-20.619 11.826-2.036 2.808-4.45 4.174-7.381 4.174v4c4.184 0 7.857-2.015 10.619-5.826z"></path>
<path d="M10 42h-4v4h4c3.864 0.005 6.995 3.136 7 7v5h4v-5c-0.007-6.072-4.928-10.993-10.999-11h-0.001z"></path>
</svg>
