<!-- Generated by IcoMoon.io -->
<svg version="1.1" xmlns="http://www.w3.org/2000/svg" width="64" height="64" viewBox="0 0 64 64">
<title>fire</title>
<path d="M38.893 32.2c0.687-1.129 1.398-2.296 2.1-3.5 2.349-4.027 2.78-8.085 1.282-12.061-3.024-8.022-13.132-12.91-15.472-13.69l-1.646-0.549-2.568 5.137 1.239 1.012c0.014 0.011 1.391 1.214 1.482 3.037 0.078 1.556-0.775 3.239-2.536 5-1.223 1.223-2.565 2.405-3.986 3.657-5.978 5.266-12.754 11.235-12.754 22.527q0 0.233 0.004 0.463c0.094 5.235 2.3 9.938 5.799 13.305l0.006 0.006c3.468 3.375 8.209 5.457 13.437 5.457 0.015 0 0.029 0 0.044-0h11.51l-1.421-2.884c-5.774-11.719-1.691-18.425 3.479-26.916zM25.323 58c-8.275 0-15.131-6.658-15.284-14.842q-0.004-0.193-0.004-0.388c0-9.485 5.795-14.589 11.398-19.526 1.405-1.238 2.858-2.517 4.17-3.83 2.594-2.594 3.84-5.296 3.702-8.029-0.065-1.223-0.391-2.357-0.923-3.364l0.021 0.044c3.48 1.902 8.44 5.507 10.128 9.985 1.068 2.833 0.743 5.657-0.994 8.635-0.683 1.171-1.384 2.322-2.062 3.435-4.96 8.147-9.665 15.873-4.931 27.88z"></path>
<path d="M58.53 42.641q-0.050-0.198-0.104-0.398c-1.443-5.291-9.432-12.095-10.338-12.854l-1.819-1.523-1.193 2.051c-2.719 4.675-5.053 8.939-6.070 13.776-1.16 5.517-0.379 11.124 2.387 17.141l0.535 1.165h1.359c0.013 0 0.029 0 0.044 0 5.015 0 9.479-2.359 12.342-6.028l0.026-0.035c2.057-2.594 3.3-5.914 3.3-9.525 0-1.339-0.171-2.639-0.492-3.878l0.024 0.107zM52.545 53.476c-1.919 2.462-4.765 4.123-8.005 4.459l-0.050 0.004c-3.943-9.487-1.616-15.954 2.829-23.889 2.955 2.749 6.557 6.711 7.248 9.245q0.044 0.16 0.084 0.319c0.22 0.838 0.346 1.8 0.346 2.791 0 2.681-0.923 5.145-2.47 7.094l0.018-0.024z"></path>
</svg>
