<!-- Generated by IcoMoon.io -->
<svg version="1.1" xmlns="http://www.w3.org/2000/svg" width="64" height="64" viewBox="0 0 64 64">
<title>flame</title>
<path d="M20 2l-4.094-0.006 2.511 3.228c1.022 1.437 1.815 3.118 2.282 4.931l0.023 0.105c0.946 3.797 0.171 7.335-2.301 10.514-2.004 2.576-4.116 4.483-6.159 6.328-3.16 2.853-6.144 5.547-8.101 10.112-1.743 4.067-1.943 10.986 1.736 16.566 2.473 3.751 7.626 8.222 18.13 8.222h3.24l-1.452-2.896c-0.044-0.088-4.392-8.926-1.073-16.539 1.585-3.636 4.714-6.455 9.323-8.41-1.033 5.233-0.648 11.088 1.155 17.164 1.685 5.679 3.995 9.55 4.093 9.712l0.827 1.373 1.52-0.508c9.39-3.134 15.709-9.727 17.794-18.564 2.438-10.335-1.41-22.116-10.041-30.747-9.822-9.822-24.997-10.586-29.414-10.586zM55.562 42.415c-1.637 6.941-6.437 12.257-13.594 15.113-1.081-2.094-2.080-4.562-2.857-7.127l-0.083-0.32c-1.384-4.706-2.532-11.719-0.143-18.408l1.318-3.69-3.761 1.097c-7.739 2.258-12.908 6.256-15.363 11.886-2.764 6.339-1.325 13.086-0.057 16.882-5.39-0.566-9.431-2.705-11.783-6.273-2.737-4.151-2.776-9.575-1.399-12.788 1.611-3.759 4.157-6.058 7.105-8.719 2.070-1.869 4.416-3.987 6.636-6.841 4.116-5.291 3.893-10.591 2.982-14.105-0.305-1.159-0.663-2.15-1.096-3.099l0.049 0.12c5.887 0.459 16.1 2.298 23.072 9.271 7.658 7.658 11.098 18.004 8.976 27.001z"></path>
</svg>
