<!-- Generated by IcoMoon.io -->
<svg version="1.1" xmlns="http://www.w3.org/2000/svg" width="64" height="64" viewBox="0 0 64 64">
<title>flower</title>
<path d="M51 38c-8.349 0.008-15.557 4.881-18.945 11.936l-0.055 0.126c-3.443-7.181-10.651-12.054-18.999-12.062h-11.001v2c0 11.579 9.421 21 21 21h18c11.579 0 21-9.421 21-21v-2zM23 57c-8.698 0-15.89-6.565-16.883-15h6.883c8.698 0 15.89 6.565 16.883 15zM41 57h-6.883c0.993-8.435 8.185-15 16.883-15h6.883c-0.993 8.435-8.185 15-16.883 15z"></path>
<path d="M21.153 32.847c0.403 2.339 1.5 4.371 3.068 5.931l0.586 0.586h0.828c0.009 0 0.020 0 0.030 0 2.376 0 4.574-0.759 6.366-2.047l-0.033 0.022c1.76 1.266 3.958 2.025 6.334 2.025 0.011 0 0.021 0 0.032-0h0.827l0.586-0.586c1.568-1.56 2.665-3.593 3.059-5.867l0.009-0.065c2.339-0.403 4.371-1.5 5.931-3.068l0.586-0.586v-0.828c0-0.009 0-0.020 0-0.030 0-2.376-0.759-4.574-2.047-6.366l0.022 0.033c1.266-1.76 2.025-3.958 2.025-6.334 0-0.011 0-0.021-0-0.032v0.002-0.828l-0.586-0.586c-1.56-1.568-3.593-2.665-5.867-3.059l-0.065-0.009c-0.403-2.339-1.5-4.372-3.068-5.931l-0.586-0.586h-0.828c-0.009 0-0.020-0-0.030-0-2.376 0-4.574 0.759-6.366 2.047l0.033-0.022c-1.76-1.266-3.958-2.024-6.334-2.024-0.011 0-0.021 0-0.032 0h-0.827l-0.586 0.586c-1.568 1.56-2.665 3.593-3.059 5.866l-0.009 0.065c-2.339 0.403-4.372 1.5-5.931 3.068l-0.586 0.586v0.828c0 0.009-0 0.020-0 0.030 0 2.376 0.759 4.574 2.047 6.366l-0.022-0.033c-1.266 1.76-2.024 3.958-2.024 6.334 0 0.011 0 0.021 0 0.032v-0.002 0.828l0.586 0.586c1.56 1.568 3.593 2.665 5.866 3.059l0.065 0.009zM20.686 20.586c-1.074-1.068-1.801-2.485-1.996-4.067l-0.003-0.034c1.169-0.926 2.666-1.486 4.293-1.486 0.007 0 0.014 0 0.021 0h1.999v-2c0-0.006 0-0.013 0-0.020 0-1.627 0.559-3.124 1.497-4.308l-0.011 0.014c1.615 0.199 3.032 0.925 4.1 1.999l1.415 1.415 1.414-1.414c1.068-1.074 2.485-1.801 4.067-1.996l0.034-0.003c0.926 1.169 1.486 2.666 1.486 4.293 0 0.007 0 0.014-0 0.021v-0.001 2h2c0.006 0 0.013 0 0.020 0 1.627 0 3.124 0.559 4.308 1.497l-0.014-0.011c-0.199 1.615-0.925 3.032-1.999 4.1l-1.414 1.415 1.414 1.414c1.074 1.068 1.801 2.485 1.996 4.067l0.003 0.034c-1.169 0.926-2.666 1.486-4.293 1.486-0.007 0-0.014 0-0.021-0h-1.999v2c0 0.006 0 0.013 0 0.020 0 1.627-0.559 3.124-1.497 4.308l0.011-0.014c-1.615-0.199-3.032-0.925-4.1-1.999l-1.414-1.415-1.414 1.414c-1.068 1.074-2.485 1.801-4.067 1.996l-0.034 0.003c-0.926-1.169-1.485-2.666-1.485-4.293 0-0.007 0-0.014 0-0.021v0.001-2h-2c-0.006 0-0.013 0-0.020 0-1.627 0-3.124-0.559-4.308-1.497l0.015 0.011c0.199-1.615 0.925-3.032 1.999-4.1l1.415-1.415z"></path>
</svg>
