<!-- Generated by IcoMoon.io -->
<svg version="1.1" xmlns="http://www.w3.org/2000/svg" width="64" height="64" viewBox="0 0 64 64">
<title>functions</title>
<path d="M45.597 46.342c-0.818-0.549-1.41-1.381-1.639-2.353l-0.005-0.026-1.153-5.387 13.21-12.769h-5.755l-8.441 8.16-0.381-1.779-0.005-0.025c-0.806-3.446-3.779-6-7.374-6.16l-0.017-0.001-0.041-0.002h-8.398l2.356-10.961c0.401-1.687 1.849-2.94 3.606-3.038l0.010-0h5.955v-4l-6.082 0.002c-3.612 0.161-6.585 2.714-7.381 6.107l-0.011 0.054-2.544 11.838h-10.505v4h9.646l-4.075 18.961c-0.401 1.687-1.849 2.94-3.606 3.038l-0.010 0h-5.955v4l6.082-0.002c3.612-0.161 6.585-2.714 7.381-6.107l0.011-0.054 4.264-19.838h9.171c1.766 0.099 3.215 1.351 3.61 3.010l0.005 0.027 0.9 4.205-14.233 13.758h5.755l9.464-9.148 0.639 2.986c0.806 3.446 3.779 6 7.374 6.16l0.017 0.001 6.559 0.002v-4h-6.431c-0.74-0.041-1.416-0.281-1.986-0.667l0.014 0.009z"></path>
</svg>
