<!-- Generated by IcoMoon.io -->
<svg version="1.1" xmlns="http://www.w3.org/2000/svg" width="64" height="64" viewBox="0 0 64 64">
<title>garage</title>
<path d="M56 31.932h-0.064l-5.053-11.369c-0.959-2.116-3.052-3.562-5.483-3.563h-26.801c-2.431 0.001-4.524 1.447-5.468 3.526l-0.015 0.038-5.053 11.369h-0.064c-2.208 0.003-3.997 1.792-4 4v14c0.003 2.208 1.792 3.997 4 4h0v5.068c0.002 1.656 1.344 2.998 3 3h7c1.656-0.002 2.998-1.344 3-3v-5.069h22v5.068c0.002 1.656 1.344 2.998 3 3h7c1.656-0.002 2.998-1.344 3-3v-5.069c2.208-0.003 3.997-1.792 4-4v-14c-0.003-2.208-1.792-3.997-4-4h-0zM16.772 22.188c0.32-0.705 1.017-1.187 1.828-1.188h26.801c0.81 0 1.508 0.482 1.823 1.175l0.005 0.013 4.331 9.744h-39.118zM17 58h-5v-4.068h5zM52 58h-5v-4.068h5zM56 49.932h-48v-14h48z"></path>
<path d="M12 41h10v4h-10v-4z"></path>
<path d="M42 41h10v4h-10v-4z"></path>
<path d="M32 1.845l-30 12.045v4.31l30-12.045 30 12.045v-4.31l-30-12.045z"></path>
</svg>
