<!-- Generated by IcoMoon.io -->
<svg version="1.1" xmlns="http://www.w3.org/2000/svg" width="64" height="64" viewBox="0 0 64 64">
<title>gift</title>
<path d="M59 16h-12.521c0.953-1.405 1.521-3.139 1.521-5.005 0-4.968-4.027-8.995-8.995-8.995-2.823 0-5.342 1.3-6.992 3.335l-0.013 0.017c-1.662-2.051-4.182-3.352-7.005-3.352-4.968 0-8.995 4.027-8.995 8.995 0 1.866 0.568 3.599 1.541 5.036l-0.020-0.032h-12.521c-1.656 0.002-2.998 1.344-3 3v40.195c0 1.547 1.346 2.806 3 2.806h54c1.654 0 3-1.259 3-2.806v-40.194c-0.002-1.656-1.344-2.998-3-3h-0zM39 6c2.761 0 5 2.239 5 5s-2.239 5-5 5v0h-5v-5c0.003-2.76 2.24-4.997 5-5h0zM20 11c0-2.761 2.239-5 5-5s5 2.239 5 5v0 5h-5c-2.76-0.003-4.997-2.24-5-5v-0zM6 58v-26h18v26zM28 58v-26h8v26zM58 58h-18v-26h18zM6 28v-8h52v8z"></path>
</svg>
