<!-- Generated by IcoMoon.io -->
<svg version="1.1" xmlns="http://www.w3.org/2000/svg" width="64" height="64" viewBox="0 0 64 64">
<title>golf-alt</title>
<path d="M20.231 40h24l0.615-4h-24l-0.615 4z"></path>
<path d="M58.39 2l-2.053 14h-3.691l2.289-14h-4.053l-4.415 27h-26.991c-2.916 0.003-5.345 2.082-5.888 4.839l-0.006 0.038-1.169 6.138c-5.817 0.32-10.413 5.116-10.413 10.984 0 6.075 4.925 11 11 11 5.007 0 9.232-3.345 10.564-7.922l0.019-0.078h15.672c9.054-0 16.547-6.685 17.812-15.389l0.012-0.097 5.353-36.514zM13 58c-3.866 0-7-3.134-7-7s3.134-7 7-7c3.866 0 7 3.134 7 7v0c-0.005 3.864-3.136 6.995-7 7h-0zM53.12 37.946c-0.39 2.7-1.504 5.087-3.137 7.023l0.017-0.021c-1.007 1.198-2.184 2.212-3.503 3.017l-0.062 0.035c-2.047 1.255-4.526 1.999-7.178 2h-15.303c-0.102-1.105-0.352-2.122-0.733-3.074l0.026 0.074h19.907l0.615-4h-23.228q-0.328-0.31-0.681-0.592c-0.987-0.796-2.141-1.434-3.395-1.851l-0.078-0.022 1.125-5.909c0.183-0.932 0.993-1.625 1.965-1.626h30.39l2.126-13h3.759z"></path>
</svg>
