<!-- Generated by IcoMoon.io -->
<svg version="1.1" xmlns="http://www.w3.org/2000/svg" width="64" height="64" viewBox="0 0 64 64">
<title>golf</title>
<path d="M47.355 42.754c-4.934-1.776-11.452-2.754-18.355-2.754-0.047-0-0.102-0-0.158-0-3.473 0-6.884 0.263-10.215 0.771l0.373-0.047v-14.329l19-7v-4.766l-19-8.9v-3.728h-4v50h4v-7.229c2.945-0.491 6.338-0.771 9.797-0.771 0.071 0 0.143 0 0.214 0h-0.011c6.453 0 12.49 0.894 17 2.518 4.428 1.594 6 3.411 6 4.482s-1.571 2.888-6 4.482c-4.51 1.624-10.548 2.518-17 2.518s-12.49-0.894-17-2.518c-4.428-1.594-6-3.411-6-4.482 0-0.986 1.334-2.604 5-4.099v-4.272c-0.119 0.041-0.238 0.083-0.355 0.125-7.145 2.572-8.645 5.904-8.645 8.246s1.5 5.673 8.645 8.246c4.934 1.776 11.452 2.754 18.355 2.754s13.422-0.978 18.355-2.754c7.145-2.572 8.645-5.904 8.645-8.246s-1.5-5.673-8.645-8.246zM19 10.145l14.323 6.709-14.323 5.277z"></path>
<path d="M58 35c0 2.209-1.791 4-4 4s-4-1.791-4-4c0-2.209 1.791-4 4-4s4 1.791 4 4z"></path>
</svg>
