<!-- Generated by IcoMoon.io -->
<svg version="1.1" xmlns="http://www.w3.org/2000/svg" width="64" height="64" viewBox="0 0 64 64">
<title>hd</title>
<path d="M45.5 17h-11.5v30h11.5c3.588-0.004 6.496-2.912 6.5-6.5v-17c-0.004-3.588-2.912-6.496-6.5-6.5h-0zM48 40.5c0 1.381-1.119 2.5-2.5 2.5v0h-7.5v-22h7.5c1.381 0 2.5 1.119 2.5 2.5v0z"></path>
<path d="M26 30h-10v-13h-4v30h4v-13h10v13h4v-30h-4v13z"></path>
<path d="M58 2h-52c-2.209 0-4 1.791-4 4v0 52c0 2.209 1.791 4 4 4v0h52c2.209 0 4-1.791 4-4v0-52c0-2.209-1.791-4-4-4v0zM58 58h-52v-52h52v52z"></path>
</svg>
