<!-- Generated by IcoMoon.io -->
<svg version="1.1" xmlns="http://www.w3.org/2000/svg" width="64" height="64" viewBox="0 0 64 64">
<title>headphones-mute</title>
<path d="M56 27h-6v-4c0-9.925-8.075-18-18-18s-18 8.075-18 18v4h-6c-3.312 0.004-5.996 2.688-6 6v16c0.004 3.312 2.688 5.996 6 6h6c2.209 0 4-1.791 4-4v0-28c0-7.732 6.268-14 14-14s14 6.268 14 14v0 28c0 2.209 1.791 4 4 4v0h6c3.312-0.004 5.996-2.688 6-6v-16c-0.004-3.312-2.688-5.996-6-6h-0zM14 51h-6c-1.105 0-2-0.895-2-2v0-16c0-1.105 0.895-2 2-2v0h6v20zM58 49c0 1.105-0.895 2-2 2v0h-6v-20h6c1.105 0 2 0.895 2 2v0z"></path>
<path d="M38.586 28.71l-6.524 6.524-6.525-6.524-2.828 2.828 6.524 6.525-6.524 6.524 2.828 2.828 6.525-6.524 6.524 6.524 2.828-2.828-6.524-6.524 6.524-6.525-2.828-2.828z"></path>
</svg>
