<!-- Generated by IcoMoon.io -->
<svg version="1.1" xmlns="http://www.w3.org/2000/svg" width="64" height="64" viewBox="0 0 64 64">
<title>headphones-mic</title>
<path d="M56 23h-6v-3c0-9.925-8.075-18-18-18s-18 8.075-18 18v3h-6c-3.312 0.004-5.996 2.688-6 6v16c0.004 3.312 2.688 5.996 6 6h6c2.209 0 4-1.791 4-4v0-27c0-7.732 6.268-14 14-14s14 6.268 14 14v0 35.816c-0.001 1.206-0.978 2.182-2.184 2.184h-15.816v4h15.816c3.414-0.004 6.18-2.77 6.184-6.183v-4.817h6c3.312-0.004 5.996-2.688 6-6v-16c-0.004-3.312-2.688-5.996-6-6h-0zM14 47h-6c-1.105 0-2-0.895-2-2v0-16c0-1.105 0.895-2 2-2v0h6v20zM58 45c0 1.105-0.895 2-2 2v0h-6v-20h6c1.105 0 2 0.895 2 2v0z"></path>
</svg>
