<!-- Generated by IcoMoon.io -->
<svg version="1.1" xmlns="http://www.w3.org/2000/svg" width="64" height="64" viewBox="0 0 64 64">
<title>heart</title>
<path d="M56.64 9.876c-2.895-2.895-6.895-4.686-11.314-4.686-4.422 0-8.426 1.794-11.322 4.695l-0 0-1.939 1.962-1.935-1.971c-2.895-2.895-6.895-4.686-11.314-4.686s-8.418 1.791-11.314 4.686l-0.864 0.864c-2.895 2.895-4.686 6.895-4.686 11.314s1.791 8.418 4.686 11.314l22.797 22.797 2.574 2.697 0.061-0.061 0.067 0.067 2.412-2.545 22.954-22.954c2.891-2.897 4.679-6.897 4.679-11.314s-1.788-8.416-4.679-11.314l0 0zM54.676 30.539l-22.604 22.604-22.604-22.604c-2.172-2.172-3.515-5.172-3.515-8.485s1.343-6.314 3.515-8.485l0.864-0.864c2.172-2.172 5.172-3.515 8.485-3.515 3.311 0 6.308 1.341 8.479 3.509l-0-0 4.762 4.848 4.784-4.842c2.172-2.172 5.172-3.515 8.485-3.515s6.314 1.343 8.485 3.515l0.864 0.864c2.168 2.173 3.509 5.173 3.509 8.485s-1.341 6.312-3.509 8.486l0-0z"></path>
</svg>
