<!-- Generated by IcoMoon.io -->
<svg version="1.1" xmlns="http://www.w3.org/2000/svg" width="64" height="64" viewBox="0 0 64 64">
<title>high-quality</title>
<path d="M52 40.5v-17c-0.004-3.588-2.912-6.496-6.5-6.5h-5.5c-3.312 0.004-5.996 2.688-6 6v18c0.004 3.312 2.688 5.996 6 6h5.5c0.001 0 0.001 0 0.002 0 0.702 0 1.378-0.112 2.011-0.318l-0.046 0.013 3.907 5.468 3.25-2.325-3.907-5.47c0.801-1.064 1.282-2.408 1.282-3.864 0-0.001 0-0.002 0-0.004v0zM48 40.5c0 1.381-1.119 2.5-2.5 2.5v0h-5.5c-1.105 0-2-0.895-2-2v0-18c0-1.105 0.895-2 2-2v0h5.5c1.381 0 2.5 1.119 2.5 2.5v0z"></path>
<path d="M26 30h-10v-13h-4v30h4v-13h10v13h4v-30h-4v13z"></path>
<path d="M58 2h-52c-2.209 0-4 1.791-4 4v0 52c0 2.209 1.791 4 4 4v0h52c2.209 0 4-1.791 4-4v0-52c0-2.209-1.791-4-4-4v0zM58 58h-52v-52h52v52z"></path>
</svg>
