<!-- Generated by IcoMoon.io -->
<svg version="1.1" xmlns="http://www.w3.org/2000/svg" width="64" height="64" viewBox="0 0 64 64">
<title>highlighter</title>
<path d="M61.464 14.554l-11.615-11.765c-0.721-0.735-1.725-1.19-2.834-1.19-0.004 0-0.008 0-0.013 0h-0.002c-0.003 0-0.006 0-0.009 0-1.112 0-2.117 0.457-2.838 1.193l-0.001 0.001-33.21 33.737c-0.708 0.723-1.145 1.713-1.145 2.806 0 1.104 0.446 2.103 1.167 2.829l1.837 1.837-10.801 10.928v4.822h13.35l6.6-6.6 1.56 1.56c0.724 0.724 1.724 1.172 2.829 1.172 1.152 0 2.19-0.487 2.92-1.266l0.002-0.002 32.279-34.518c0.671-0.712 1.083-1.674 1.083-2.732 0-1.096-0.442-2.089-1.158-2.81l0 0zM13.694 55.75h-6.881l5.819-5.887 3.475 3.475zM26.339 51.882l-4.388-4.388-3.016 3.016-3.492-3.492 2.998-3.034-4.649-4.649 6.042-6.138 12.39 12.39zM34.958 42.664l-12.318-12.318 24.361-24.748 11.615 11.765z"></path>
</svg>
