<!-- Generated by IcoMoon.io -->
<svg version="1.1" xmlns="http://www.w3.org/2000/svg" width="64" height="64" viewBox="0 0 64 64">
<title>hot-tub</title>
<path d="M18.197 17.739c0 2.353-1.908 4.261-4.261 4.261s-4.261-1.908-4.261-4.261c0-2.353 1.908-4.261 4.261-4.261s4.261 1.908 4.261 4.261z"></path>
<path d="M24 37h-0.38l-4.364-12h-8.97v12h-8.286v19c0.004 3.312 2.688 5.996 6 6h48c3.312-0.004 5.996-2.688 6-6v-19zM58 56c-0.001 1.104-0.896 1.999-2 2h-48c-1.104-0.001-1.999-0.896-2-2v-15h52z"></path>
<path d="M37 27c0-0.001 0-0.001 0-0.002 0-1.045 0.629-1.942 1.529-2.335l0.016-0.006 1.485-0.637c2.354-1.028 3.97-3.335 3.97-6.020s-1.615-4.992-3.927-6.004l-0.042-0.016-1.485-0.636c-0.916-0.399-1.545-1.297-1.545-2.342 0-0.001 0-0.001 0-0.002v0-5h-4v5c0 0.001 0 0.003 0 0.005 0 2.684 1.616 4.99 3.927 5.999l0.042 0.016 1.485 0.636c0.916 0.4 1.545 1.298 1.545 2.343s-0.629 1.943-1.529 2.337l-0.016 0.006-1.485 0.637c-2.354 1.025-3.97 3.332-3.97 6.015 0 0.002 0 0.003 0 0.005v-0 6h4z"></path>
<path d="M51 27c0-0.001 0-0.001 0-0.002 0-1.045 0.629-1.942 1.529-2.335l0.016-0.006 1.485-0.637c2.354-1.028 3.97-3.335 3.97-6.020s-1.615-4.992-3.927-6.004l-0.042-0.016-1.485-0.636c-0.916-0.399-1.545-1.297-1.545-2.342 0-0.001 0-0.001 0-0.002v0-5h-4v5c0 0.001 0 0.003 0 0.005 0 2.684 1.616 4.99 3.927 5.999l0.042 0.016 1.485 0.636c0.916 0.4 1.545 1.298 1.545 2.343s-0.629 1.943-1.529 2.337l-0.016 0.006-1.485 0.637c-2.354 1.025-3.97 3.332-3.97 6.015 0 0.002 0 0.003 0 0.005v-0 6h4z"></path>
<path d="M12 45h4v9h-4v-9z"></path>
<path d="M24 45h4v9h-4v-9z"></path>
<path d="M36 45h4v9h-4v-9z"></path>
<path d="M48 45h4v9h-4v-9z"></path>
</svg>
