<!-- Generated by IcoMoon.io -->
<svg version="1.1" xmlns="http://www.w3.org/2000/svg" width="64" height="64" viewBox="0 0 64 64">
<title>hotel</title>
<path d="M20 38h4v4h-4v-4z"></path>
<path d="M30 38h4v4h-4v-4z"></path>
<path d="M20 49h4v4h-4v-4z"></path>
<path d="M30 49h4v4h-4v-4z"></path>
<path d="M40 38h4v4h-4v-4z"></path>
<path d="M55 58v-47h-9v-9h-28v9h-9v47h-7v4h60v-4zM22 6h20v21h-20zM51 58h-7v-8h-4v8h-27v-43h5v16h28v-16h5z"></path>
<path d="M35 15h-6v-5h-4v13h4v-4h6v4h4v-13h-4v5z"></path>
</svg>
