<!-- Generated by IcoMoon.io -->
<svg version="1.1" xmlns="http://www.w3.org/2000/svg" width="64" height="64" viewBox="0 0 64 64">
<title>house</title>
<path d="M47 50.818h4v-19.818h-15v19.818h11zM40 35h7v11.818h-7z"></path>
<path d="M58.708 27.056l-24.824-22.838c-0.754-0.696-1.766-1.122-2.878-1.122-1.174 0-2.237 0.476-3.006 1.245l-24.002 24.002v33.657h14v-20h8v20h34v-33.755zM56 58h-26v-20h-16v20h-6v-28l22.83-22.83c0.045-0.045 0.108-0.073 0.177-0.073 0.065 0 0.125 0.025 0.169 0.066l-0-0 24.824 22.838z"></path>
</svg>
