<!-- Generated by IcoMoon.io -->
<svg version="1.1" xmlns="http://www.w3.org/2000/svg" width="64" height="64" viewBox="0 0 64 64">
<title>industry-slash</title>
<path d="M57.407 12l-16.407 16.212v-16.212h-4.319l-8.055 8.141 2.828 2.828 5.545-5.605v11.15l4.664 4.664 16.336-16.141v32.477l4 4v-41.515h-4.593z"></path>
<path d="M21 2h-10.515l10.515 10.515v-10.515z"></path>
<path d="M17 38h4v4h-4v-4z"></path>
<path d="M17 47h4v4h-4v-4z"></path>
<path d="M27 38h4v4h-4v-4z"></path>
<path d="M27 47h4v4h-4v-4z"></path>
<path d="M37 47h4v4h-4v-4z"></path>
<path d="M21 18.172l-16.172-16.172h-2.828v60h60v-2.828l-28.68-28.68zM6 58v-49.172l11 11v11.172h4v-7.172l34.172 34.172z"></path>
</svg>
