<!-- Generated by IcoMoon.io -->
<svg version="1.1" xmlns="http://www.w3.org/2000/svg" width="64" height="64" viewBox="0 0 64 64">
<title>info</title>
<path d="M32 12h4.365v4.365h-4.365v-4.365z"></path>
<path d="M2 2v60h60v-60zM58 58h-52v-52h52z"></path>
<path d="M28.032 25.355c0.339-0.802 1.12-1.355 2.029-1.355 1.213 0 2.197 0.984 2.197 2.197 0 0.221-0.033 0.434-0.093 0.636l0.004-0.016-4.459 15.16c-0.161 0.529-0.254 1.136-0.254 1.766 0 3.456 2.802 6.258 6.258 6.258v0c2.294-0.005 4.298-1.238 5.39-3.078l0.016-0.029 1.888-3.239-3.456-2.014-1.888 3.239c-0.4 0.674-1.123 1.119-1.95 1.121h-0c-0 0-0 0-0 0-1.247 0-2.258-1.011-2.258-2.258 0-0.227 0.034-0.446 0.096-0.653l-0.004 0.016 4.459-15.16c0.16-0.524 0.252-1.125 0.252-1.749 0-3.423-2.775-6.197-6.197-6.197-2.566 0-4.767 1.559-5.709 3.781l-0.015 0.041-1.465 3.529 3.695 1.533z"></path>
</svg>
