<!-- Generated by IcoMoon.io -->
<svg version="1.1" xmlns="http://www.w3.org/2000/svg" width="64" height="64" viewBox="0 0 64 64">
<title>key-alt</title>
<path d="M19 13c-9.374 0-17 7.626-17 17s7.626 17 17 17c7.229-0.014 13.401-4.525 15.87-10.884l0.040-0.116h10.091v9h17v-21h-27.091c-2.508-6.475-8.68-10.986-15.908-11h-0.002zM58 41h-9v-9h-17.063l-0.405 1.468c-1.57 5.541-6.583 9.532-12.529 9.532-7.18 0-13-5.82-13-13s5.82-13 13-13c5.945 0 10.959 3.991 12.507 9.441l0.022 0.092 0.405 1.468h26.063z"></path>
<path d="M19 23c-3.866 0-7 3.134-7 7s3.134 7 7 7c3.866 0 7-3.134 7-7v0c-0.005-3.864-3.136-6.995-7-7h-0zM19 33c-1.657 0-3-1.343-3-3s1.343-3 3-3c1.657 0 3 1.343 3 3v0c-0.002 1.656-1.344 2.998-3 3h-0z"></path>
</svg>
