<!-- Generated by IcoMoon.io -->
<svg version="1.1" xmlns="http://www.w3.org/2000/svg" width="64" height="64" viewBox="0 0 64 64">
<title>kitchen</title>
<path d="M15 14h4v4h-4v-4z"></path>
<path d="M53 7h-42c-2.208 0.003-3.997 1.792-4 4v47c0.003 2.208 1.792 3.997 4 4h42c2.208-0.003 3.997-1.792 4-4v-47c-0.003-2.208-1.792-3.997-4-4h-0zM11 11h42l0.001 10h-42.001zM53 58h-42v-33h42.001l0.002 33z"></path>
<path d="M15 54h34v-23h-34zM19 35h26v15h-26z"></path>
<path d="M23 14h4v4h-4v-4z"></path>
<path d="M31 14h4v4h-4v-4z"></path>
<path d="M45 14h4v4h-4v-4z"></path>
</svg>
