<!-- Generated by IcoMoon.io -->
<svg version="1.1" xmlns="http://www.w3.org/2000/svg" width="64" height="64" viewBox="0 0 64 64">
<title>lan</title>
<path d="M62 34v-4h-28v-6h7c1.656-0.002 2.998-1.344 3-3v-16c-0.002-1.656-1.344-2.998-3-3h-18c-1.656 0.002-2.998 1.344-3 3v16c0.002 1.656 1.344 2.998 3 3h7v6h-28v4h10v6h-6.826c-1.656 0.002-2.998 1.344-3 3v16c0.002 1.656 1.344 2.998 3 3h17.826c1.656-0.002 2.998-1.344 3-3v-16c-0.002-1.656-1.344-2.998-3-3h-7v-6h32v6h-7c-1.656 0.002-2.998 1.344-3 3v16c0.002 1.656 1.344 2.998 3 3h18c1.656-0.002 2.998-1.344 3-3v-16c-0.002-1.656-1.344-2.998-3-3h-7v-6zM24 6h16v14h-16zM22 58h-15.826v-14h15.826zM58 58h-16v-14h16z"></path>
</svg>
