<!-- Generated by IcoMoon.io -->
<svg version="1.1" xmlns="http://www.w3.org/2000/svg" width="64" height="64" viewBox="0 0 64 64">
<title>laundry</title>
<path d="M53 2h-42c-2.208 0.003-3.997 1.792-4 4v52c0.003 2.208 1.792 3.997 4 4h42c2.208-0.003 3.997-1.792 4-4v-52c-0.003-2.208-1.792-3.997-4-4h-0zM53 58h-42v-52h42l0.003 52z"></path>
<path d="M29 11h4v4h-4v-4z"></path>
<path d="M16 11h9v4h-9v-4z"></path>
<path d="M32 20c-9.374 0-17 7.626-17 17s7.626 17 17 17 17-7.626 17-17-7.626-17-17-17zM32 50c-6.108-0.008-11.229-4.22-12.628-9.896l-0.019-0.089 2.604-1.315c1.181-0.615 2.58-0.976 4.062-0.976 1.816 0 3.506 0.542 4.917 1.472l-0.034-0.021c0.049 0.033 0.098 0.065 0.146 0.099 1.672 1.15 3.659 1.732 5.817 1.732 1.613-0.015 3.155-0.299 4.59-0.808l-0.099 0.031 3.479-1.171c-1.035 6.237-6.386 10.935-12.836 10.944h-0.001zM40.081 36.437c-2.64 0.889-5.043 0.726-6.764-0.458q-0.101-0.070-0.206-0.139c-3.834-2.538-8.799-2.81-12.956-0.71l-1.087 0.549c0.694-6.588 6.219-11.678 12.933-11.678 6.417 0 11.748 4.649 12.809 10.764l0.011 0.078z"></path>
</svg>
