<!-- Generated by IcoMoon.io -->
<svg version="1.1" xmlns="http://www.w3.org/2000/svg" width="64" height="64" viewBox="0 0 64 64">
<title>leaf</title>
<path d="M48.632 15.788c-3.363-5.631-7.965-10.198-13.452-13.422l-0.178-0.097-1.001-0.579-1.001 0.579c-11.332 6.628-18.824 18.737-18.824 32.597 0 0.005 0 0.010 0 0.015v-0.001c0 0.431 0.008 0.868 0.022 1.3 0.199 5.857 2.439 10.785 6.477 14.252 3.091 2.653 7.055 4.273 11.326 4.659v6.909h4v-32h-4v21.066c-6.758-0.783-13.484-5.557-13.806-15.022-0.013-0.387-0.020-0.779-0.020-1.164 0.026-11.974 6.277-22.483 15.688-28.465l0.137-0.082c9.548 6.063 15.8 16.572 15.825 28.542v0.004c0 0.386-0.007 0.777-0.020 1.164-0.257 7.572-4.613 12.141-9.806 14.067v4.233c2.828-0.817 5.278-2.162 7.353-3.935l-0.027 0.022c4.039-3.467 6.278-8.395 6.477-14.252 0.015-0.432 0.022-0.869 0.022-1.3 0-0.006 0-0.013 0-0.020 0-7.033-1.93-13.615-5.289-19.245l0.095 0.172z"></path>
</svg>
