<!-- Generated by IcoMoon.io -->
<svg version="1.1" xmlns="http://www.w3.org/2000/svg" width="64" height="64" viewBox="0 0 64 64">
<title>library-add</title>
<path d="M6 58v-40h-4v41c0 1.657 1.343 3 3 3v0h41v-4h-40z"></path>
<path d="M18 50h-4v-40h-4v41c0 1.657 1.343 3 3 3v0h41v-4h-36z"></path>
<path d="M59 2h-38c-1.657 0-3 1.343-3 3v0 38c0 1.657 1.343 3 3 3v0h38c1.657 0 3-1.343 3-3v0-38c0-1.657-1.343-3-3-3v0zM58 42h-36v-36h36z"></path>
<path d="M38 36h4v-10.5h10.5v-4h-10.5v-10.5h-4v10.5h-10.5v4h10.5v10.5z"></path>
</svg>
