<!-- Generated by IcoMoon.io -->
<svg version="1.1" xmlns="http://www.w3.org/2000/svg" width="64" height="64" viewBox="0 0 64 64">
<title>library-music</title>
<path d="M6 58v-40h-4v41c0 1.657 1.343 3 3 3v0h41v-4h-40z"></path>
<path d="M18 50h-4v-40h-4v41c0 1.657 1.343 3 3 3v0h41v-4h-36z"></path>
<path d="M59 2h-38c-1.657 0-3 1.343-3 3v0 38c0 1.657 1.343 3 3 3v0h38c1.657 0 3-1.343 3-3v0-38c0-1.657-1.343-3-3-3v0zM58 42h-36v-36h36z"></path>
<path d="M37.239 30.625v0 0.325h0.011c0.18 3.371 3.188 6.050 6.875 6.050 3.8 0 6.881-2.852 6.881-6.375s-3.081-6.375-6.881-6.375c-0.002 0-0.005 0-0.007 0-1.036 0-2.022 0.216-2.915 0.605l0.047-0.018v-12.836h-0.035v-2.063l-10.976 2.146v5.916l7-1.375z"></path>
</svg>
