<!-- Generated by IcoMoon.io -->
<svg version="1.1" xmlns="http://www.w3.org/2000/svg" width="64" height="64" viewBox="0 0 64 64">
<title>link</title>
<path d="M57.184 6.979c-6.628-6.628-17.413-6.628-24.041 0l-12.021 12.021 2.828 2.828 12.021-12.021c2.353-2.353 5.603-3.808 9.192-3.808 7.18 0 13 5.82 13 13 0 3.59-1.455 6.84-3.808 9.192l-12.021 12.021 2.828 2.828 12.021-12.021c6.628-6.628 6.628-17.413 0-24.042z"></path>
<path d="M28.192 54.355c-2.352 2.353-5.602 3.808-9.192 3.808s-6.84-1.455-9.192-3.808v0h-0c-2.353-2.353-3.808-5.603-3.808-9.192s1.455-6.84 3.808-9.192l11.314-11.314-2.828-2.828-11.314 11.314c-3.076 3.076-4.979 7.326-4.979 12.021 0 9.389 7.611 17 17 17 4.694 0 8.944-1.903 12.021-4.979l11.314-11.314-2.828-2.828z"></path>
<path d="M16.172 45.163l28.284-28.284 2.828 2.828-28.284 28.284-2.828-2.828z"></path>
</svg>
