<!-- Generated by IcoMoon.io -->
<svg version="1.1" xmlns="http://www.w3.org/2000/svg" width="64" height="64" viewBox="0 0 64 64">
<title>link-slash</title>
<path d="M34.91 26.425l9.546-9.546 2.828 2.828-9.546 9.546-2.828-2.828z"></path>
<path d="M35.971 9.807c2.353-2.353 5.603-3.808 9.192-3.808 7.18 0 13 5.82 13 13 0 3.59-1.455 6.84-3.808 9.192l-8.839 8.839 2.828 2.828 8.839-8.839c3.093-3.079 5.008-7.341 5.008-12.049 0-9.389-7.611-17-17-17-4.709 0-8.97 1.914-12.049 5.007l-8.84 8.84 2.828 2.828z"></path>
<path d="M2 2v2.828l16.647 16.646-11.667 11.667c-3.076 3.076-4.979 7.326-4.979 12.021 0 9.389 7.611 17 17 17 4.694 0 8.944-1.903 12.021-4.979l11.667-11.667 16.484 16.483h2.828v-2.828l-57.172-57.172zM29.253 32.081l-13.082 13.081 2.828 2.828 13.081-13.081 7.778 7.778-11.667 11.667c-2.353 2.355-5.604 3.811-9.196 3.811-7.18 0-13-5.82-13-13 0-3.592 1.457-6.843 3.811-9.196l11.667-11.667z"></path>
</svg>
