<!-- Generated by IcoMoon.io -->
<svg version="1.1" xmlns="http://www.w3.org/2000/svg" width="64" height="64" viewBox="0 0 64 64">
<title>list-high-priority</title>
<path d="M32 52h30v4h-30v-4z"></path>
<path d="M32 38.667h30v4h-30v-4z"></path>
<path d="M32 25.333h30v4h-30v-4z"></path>
<path d="M41 12h21v4h-21v-4z"></path>
<path d="M6 34c0-9.925 6.349-18 14.154-18h0.746v8.653l16.85-10.778-16.85-10.473v8.598h-0.746c-4.931 0-9.54 2.344-12.978 6.601-3.337 4.132-5.176 9.601-5.176 15.399s1.838 11.267 5.176 15.399c3.438 4.257 8.047 6.601 12.978 6.601h6.846v-4h-6.846c-7.804 0-14.154-8.075-14.154-18zM24.9 10.598l5.351 3.326-5.351 3.423z"></path>
</svg>
