<!-- Generated by IcoMoon.io -->
<svg version="1.1" xmlns="http://www.w3.org/2000/svg" width="64" height="64" viewBox="0 0 64 64">
<title>list-low-priority</title>
<path d="M32 7h30v4h-30v-4z"></path>
<path d="M32 20.333h30v4h-30v-4z"></path>
<path d="M32 33.667h30v4h-30v-4z"></path>
<path d="M41 47h21v4h-21v-4z"></path>
<path d="M20.9 47h-0.746c-7.804 0-14.154-8.075-14.154-18s6.349-18 14.154-18h6.846v-4h-6.846c-4.931 0-9.54 2.344-12.978 6.601-3.337 4.132-5.176 9.601-5.176 15.399s1.838 11.267 5.176 15.399c3.438 4.257 8.047 6.601 12.978 6.601h0.746v8.598l16.85-10.473-16.85-10.778zM24.9 45.653l5.351 3.423-5.351 3.326z"></path>
</svg>
