<!-- Generated by IcoMoon.io -->
<svg version="1.1" xmlns="http://www.w3.org/2000/svg" width="64" height="64" viewBox="0 0 64 64">
<title>loop-circular</title>
<path d="M51.914 44.837c4.557-4.556 6.989-10.654 6.848-17.169-0.152-6.692-2.929-12.707-7.337-17.081l-0.002-0.002-2.829 2.828c3.703 3.671 6.037 8.719 6.168 14.312l0 0.025c0.117 5.414-1.899 10.476-5.682 14.26l-6.080 6.136v-11.145h-4v17.999h18.008v-4h-11.201z"></path>
<path d="M5.992 14h11.201l-6.107 6.163c-4.558 4.556-6.989 10.654-6.848 17.169 0.152 6.692 2.929 12.707 7.337 17.081l0.002 0.002 2.829-2.828c-3.703-3.671-6.037-8.719-6.168-14.312l-0-0.025c-0.117-5.414 1.899-10.476 5.683-14.26l6.078-6.125v11.145h4l0.003-18.010h-18.008z"></path>
</svg>
