<!-- Generated by IcoMoon.io -->
<svg version="1.1" xmlns="http://www.w3.org/2000/svg" width="64" height="64" viewBox="0 0 64 64">
<title>loop-1</title>
<path d="M26 39v4h14v-4h-5v-17h-4v3h-4v4h4v10h-5z"></path>
<path d="M58 26.314v6.686c-0.009 7.729-6.271 13.991-13.999 14h-34.172l5.585-5.586-2.828-2.828-10.336 10.333 9.25 10.41 3-2.657-5.046-5.671h34.546c9.925 0 18-8.075 18-18v-10.686z"></path>
<path d="M6 32c0.009-7.729 6.271-13.991 13.999-14h34.172l-5.585 5.586 2.828 2.828 10.336-10.332-9.25-10.41-3 2.658 5.046 5.671h-34.546c-9.925 0-18 8.075-18 18v10.724l4-4z"></path>
</svg>
