<!-- Generated by IcoMoon.io -->
<svg version="1.1" xmlns="http://www.w3.org/2000/svg" width="64" height="64" viewBox="0 0 64 64">
<title>media-step-backward-circle</title>
<path d="M53.214 10.786c-5.429-5.429-12.929-8.787-21.214-8.787-16.569 0-30.001 13.432-30.001 30.001 0 8.285 3.358 15.785 8.787 21.214v0c5.429 5.429 12.929 8.787 21.214 8.787 16.569 0 30.001-13.432 30.001-30.001 0-8.285-3.358-15.785-8.787-21.214v0zM32 58c-14.336 0-26-11.664-26-26s11.664-26 26-26 26 11.664 26 26-11.664 26-26 26z"></path>
<path d="M26 31.081v3.738l15.953 11.181h4.047v-27h-4.090zM42 41.149l-11.775-8.25 11.775-8.945z"></path>
<path d="M18 19h4v27h-4v-27z"></path>
</svg>
