<!-- Generated by IcoMoon.io -->
<svg version="1.1" xmlns="http://www.w3.org/2000/svg" width="64" height="64" viewBox="0 0 64 64">
<title>media-skip-backward</title>
<path d="M57 53.034c1.657 0 3-1.343 3-3v0-36.034c-0-1.657-1.343-3-3-3-0.673 0-1.294 0.221-1.794 0.595l0.008-0.006-22.214 16.456v-14.046c-0-1.657-1.343-3-3-3-0.673 0-1.294 0.221-1.794 0.595l0.008-0.006-24.32 18.016c-0.74 0.553-1.214 1.426-1.214 2.411s0.474 1.858 1.206 2.405l0.008 0.006 24.321 18.015c0.492 0.368 1.113 0.589 1.785 0.589 1.657 0 3-1.343 3-3 0 0 0-0 0-0v0-14.044l22.215 16.455c0.492 0.369 1.112 0.591 1.785 0.591v0zM29 48.046l-21.64-16.030 21.64-16.029zM56 15.988v32.059l-21.64-16.030z"></path>
</svg>
