<!-- Generated by IcoMoon.io -->
<svg version="1.1" xmlns="http://www.w3.org/2000/svg" width="64" height="64" viewBox="0 0 64 64">
<title>media-step-forward</title>
<path d="M41.105 29.573l-24.319-18.015c-0.492-0.368-1.114-0.59-1.786-0.59-1.657 0-3 1.343-3 3 0 0 0 0.001 0 0.001v-0 36.031c0 1.657 1.343 3 3 3 0.673 0 1.294-0.221 1.794-0.595l-0.008 0.006 24.319-18.016c0.74-0.553 1.214-1.426 1.214-2.411s-0.474-1.858-1.206-2.405l-0.008-0.006zM16 48.013v-32.059l21.64 16.030z"></path>
<path d="M48 11h4v42h-4v-42z"></path>
</svg>
