<!-- Generated by IcoMoon.io -->
<svg version="1.1" xmlns="http://www.w3.org/2000/svg" width="64" height="64" viewBox="0 0 64 64">
<title>media-eject</title>
<path d="M12.136 35.82h39.727c1.657-0 3-1.343 3-3 0-0.733-0.263-1.405-0.7-1.926l0.004 0.005-19.864-23.82c-0.554-0.661-1.38-1.078-2.304-1.078s-1.75 0.417-2.3 1.074l-0.004 0.005-19.864 23.82c-0.433 0.516-0.696 1.188-0.696 1.921 0 1.657 1.343 3 3 3v0zM32 10.561l17.727 21.259h-35.455z"></path>
<path d="M52 41h-40c-1.657 0-3 1.343-3 3v0 8c0 1.657 1.343 3 3 3v0h40c1.657 0 3-1.343 3-3v0-8c0-1.657-1.343-3-3-3v0zM51 51h-38v-6h38z"></path>
</svg>
