<!-- Generated by IcoMoon.io -->
<svg version="1.1" xmlns="http://www.w3.org/2000/svg" width="64" height="64" viewBox="0 0 64 64">
<title>media-skip-forward</title>
<path d="M4 13.985v36.030c0 1.657 1.343 3 3 3 0.673 0 1.294-0.221 1.794-0.595l-0.008 0.006 22.214-16.455v14.045c0 1.657 1.343 3 3 3 0.673 0 1.294-0.221 1.794-0.595l-0.008 0.006 24.32-18.014c0.741-0.553 1.215-1.427 1.215-2.411s-0.474-1.859-1.207-2.406l-0.008-0.006-24.321-18.014c-0.492-0.368-1.113-0.589-1.785-0.589-1.656 0-2.999 1.342-3 2.999v14.045l-22.215-16.455c-0.492-0.368-1.113-0.589-1.785-0.589-1.656 0-2.999 1.342-3 2.999v0zM35 15.97l21.64 16.030-21.64 16.030zM8 15.97l21.64 16.030-21.64 16.030z"></path>
</svg>
