<!-- Generated by IcoMoon.io -->
<svg version="1.1" xmlns="http://www.w3.org/2000/svg" width="64" height="64" viewBox="0 0 64 64">
<title>media-step-forward-circle</title>
<path d="M53.214 10.786c-5.429-5.429-12.929-8.787-21.214-8.787-16.569 0-30.001 13.432-30.001 30.001 0 8.285 3.358 15.785 8.787 21.214v0c5.429 5.429 12.929 8.787 21.214 8.787 16.569 0 30.001-13.432 30.001-30.001 0-8.285-3.358-15.785-8.787-21.214v0zM32 58c-14.336 0-26-11.664-26-26s11.664-26 26-26 26 11.664 26 26-11.664 26-26 26z"></path>
<path d="M18 19v27h4.090l15.91-12.081v-3.738l-15.953-11.181zM22 41.046v-17.195l11.775 8.25z"></path>
<path d="M42 19h4v27h-4v-27z"></path>
</svg>
