<!-- Generated by IcoMoon.io -->
<svg version="1.1" xmlns="http://www.w3.org/2000/svg" width="64" height="64" viewBox="0 0 64 64">
<title>media-step-backward</title>
<path d="M50.35 11.322c-0.393-0.204-0.858-0.323-1.351-0.323-0.673 0-1.293 0.222-1.792 0.598l0.008-0.005-24.319 18.015c-0.74 0.553-1.214 1.426-1.214 2.411s0.474 1.858 1.206 2.405l0.008 0.006 24.319 18.015c0.492 0.368 1.114 0.59 1.786 0.59 1.657 0 3-1.343 3-3 0-0 0-0.001 0-0.001v0-36.031c0-0.002 0-0.005 0-0.008 0-1.162-0.664-2.169-1.633-2.662l-0.017-0.008zM48 48.046l-21.64-16.030 21.64-16.029z"></path>
<path d="M12 11h4v42h-4v-42z"></path>
</svg>
