<!-- Generated by IcoMoon.io -->
<svg version="1.1" xmlns="http://www.w3.org/2000/svg" width="64" height="64" viewBox="0 0 64 64">
<title>media-eject-circle</title>
<path d="M53.214 10.786c-5.399-5.427-12.873-8.786-21.131-8.786-0.029 0-0.058 0-0.087 0h0.004c-0 0-0.001 0-0.001 0-16.569 0-30 13.431-30 30 0 8.285 3.358 15.785 8.787 21.214v0c5.429 5.429 12.929 8.787 21.214 8.787 16.569 0 30.001-13.432 30.001-30.001 0-8.285-3.358-15.785-8.787-21.214v0zM32 58c-14.336 0-26-11.664-26-26s11.664-26 26-26 26 11.664 26 26-11.664 26-26 26z"></path>
<path d="M17 48h30v-12h-30zM21 40h22v4h-22z"></path>
<path d="M30.080 12l-13.080 15.26v4.74h30v-4.74l-13.080-15.26zM21.634 28l10.286-12h0.16l10.286 12z"></path>
</svg>
