<!-- Generated by IcoMoon.io -->
<svg version="1.1" xmlns="http://www.w3.org/2000/svg" width="64" height="64" viewBox="0 0 64 64">
<title>media-skip-forward-circle</title>
<path d="M53.214 10.786c-5.429-5.429-12.929-8.787-21.214-8.787-16.569 0-30.001 13.432-30.001 30.001 0 8.285 3.358 15.785 8.787 21.214v0c5.429 5.429 12.929 8.787 21.214 8.787 16.569 0 30.001-13.432 30.001-30.001 0-8.285-3.358-15.785-8.787-21.214v0zM32 58c-14.336 0-26-11.664-26-26s11.664-26 26-26 26 11.664 26 26-11.664 26-26 26z"></path>
<path d="M36.047 19h-4.047v8.262l-12.395-8.262h-3.605v27h3.655l12.345-9.054v9.054h4.090l15.91-12.081v-3.738zM20 40.786v-16.716l11.94 7.96zM36 41.046v-17.195l11.775 8.25z"></path>
</svg>
