<!-- Generated by IcoMoon.io -->
<svg version="1.1" xmlns="http://www.w3.org/2000/svg" width="64" height="64" viewBox="0 0 64 64">
<title>microphone-settings</title>
<path d="M32 33c5.52-0.006 9.994-4.48 10-9.999v-11.001c0-5.523-4.477-10-10-10s-10 4.477-10 10v0 11c0.006 5.52 4.48 9.994 9.999 10h0.001zM26 12c0-3.314 2.686-6 6-6s6 2.686 6 6v0 11c0 3.314-2.686 6-6 6s-6-2.686-6-6v0z"></path>
<path d="M47 22c0 8.284-6.716 15-15 15s-15-6.716-15-15v0h-4c0 9.801 7.46 17.892 17 18.895v11.105h4v-11.105c9.54-1 17-9.094 17-18.895z"></path>
<path d="M20 58h4v4h-4v-4z"></path>
<path d="M30 58h4v4h-4v-4z"></path>
<path d="M40 58h4v4h-4v-4z"></path>
</svg>
