<!-- Generated by IcoMoon.io -->
<svg version="1.1" xmlns="http://www.w3.org/2000/svg" width="64" height="64" viewBox="0 0 64 64">
<title>microphone-slash</title>
<path d="M24 14c0-4.418 3.582-8 8-8s8 3.582 8 8v0 15c0 0.001 0 0.003 0 0.005 0 0.828-0.127 1.627-0.361 2.378l0.015-0.056 3.065 3.064c0.808-1.565 1.281-3.416 1.281-5.377 0-0.005 0-0.009 0-0.014v0.001-15c0-0.001 0-0.002 0-0.004 0-6.627-5.373-12-12-12-5.873 0-10.761 4.219-11.797 9.792l-0.011 0.074 3.809 3.809z"></path>
<path d="M54 29v-7h-4v7c0 0.006 0 0.012 0 0.019 0 3.629-1.080 7.006-2.935 9.826l0.042-0.068 2.875 2.875c2.513-3.515 4.019-7.899 4.019-12.636 0-0.006 0-0.012 0-0.017v0.001z"></path>
<path d="M4.914 2h-2.914v2.742l18 18v6.258c0.001 6.627 5.373 11.999 12 11.999 1.857 0 3.615-0.422 5.185-1.175l-0.072 0.031 4.411 4.411c-2.696 1.715-5.98 2.734-9.503 2.734-0.007 0-0.015 0-0.022 0h0.001c-9.925 0-18-8.075-18-18v-7h-4v7c0 11.456 8.803 20.894 20 21.909v11.091h4v-11.091c3.927-0.364 7.479-1.714 10.484-3.797l-0.072 0.047 14.846 14.841h2.742v-2.914zM32 37c-4.416-0.005-7.995-3.584-8-8v-2.258l10 10c-0.6 0.162-1.289 0.256-1.999 0.258h-0.001z"></path>
</svg>
