<!-- Generated by IcoMoon.io -->
<svg version="1.1" xmlns="http://www.w3.org/2000/svg" width="64" height="64" viewBox="0 0 64 64">
<title>microphone-alt</title>
<path d="M32 41c6.624-0.008 11.992-5.376 12-11.999v-15.001c0-6.627-5.373-12-12-12s-12 5.373-12 12v0 15c0.008 6.624 5.376 11.992 11.999 12h0.001zM24 14c0-4.418 3.582-8 8-8s8 3.582 8 8v0 6h-16zM24 24h16v5c0 4.418-3.582 8-8 8s-8-3.582-8-8v0z"></path>
<path d="M54 29h-4c0 9.925-8.075 18-18 18s-18-8.075-18-18h-4c0 11.456 8.803 20.894 20 21.909v7.091h-9v4h22v-4h-9v-7.091c11.197-1.015 20-10.453 20-21.909z"></path>
</svg>
