<!-- Generated by IcoMoon.io -->
<svg version="1.1" xmlns="http://www.w3.org/2000/svg" width="64" height="64" viewBox="0 0 64 64">
<title>mobile-plus</title>
<path d="M26 50h4v4h-4v-4z"></path>
<path d="M30.106 42h-17.106v-28h35v-8c-0.003-2.208-1.792-3.997-4-4h-31c-2.208 0.003-3.997 1.792-4 4v52c0.003 2.208 1.792 3.997 4 4h31c2.208-0.003 3.997-1.792 4-4v-16h-17.894zM13 6h31l0 4h-31zM44 58h-31v-12h31.002l0.001 12z"></path>
<path d="M48.16 25.84v-7.16h-4v7.16h-7.16v4h7.16v7.16h4v-7.16h7.16v-4h-7.16z"></path>
</svg>
