<!-- Generated by IcoMoon.io -->
<svg version="1.1" xmlns="http://www.w3.org/2000/svg" width="64" height="64" viewBox="0 0 64 64">
<title>mood-very-bad</title>
<path d="M32 2c-16.569 0-30 13.431-30 30s13.431 30 30 30 30-13.431 30-30-13.431-30-30-30zM50.385 50.385c-4.685 4.672-11.151 7.56-18.291 7.56-14.308 0-25.906-11.599-25.906-25.906s11.599-25.906 25.906-25.906c14.308 0 25.906 11.599 25.906 25.906 0 3.64-0.751 7.105-2.106 10.248l0.065-0.168c-1.378 3.213-3.258 5.957-5.573 8.265l-0.001 0.001z"></path>
<path d="M32 35c-7.18 0-13 5.82-13 13v0h26c0-7.18-5.82-13-13-13v0z"></path>
<path d="M14.671 23.495l2.657-2.99 9 8-2.657 2.99-9-8z"></path>
<path d="M37.005 29.171l8-9 2.99 2.657-8 9-2.99-2.657z"></path>
</svg>
