<!-- Generated by IcoMoon.io -->
<svg version="1.1" xmlns="http://www.w3.org/2000/svg" width="64" height="64" viewBox="0 0 64 64">
<title>mood-very-good</title>
<path d="M32 2c-16.569 0-30 13.431-30 30s13.431 30 30 30 30-13.431 30-30-13.431-30-30-30zM50.385 50.385c-4.685 4.672-11.151 7.56-18.291 7.56-14.308 0-25.906-11.599-25.906-25.906s11.599-25.906 25.906-25.906c14.308 0 25.906 11.599 25.906 25.906 0 3.64-0.751 7.105-2.106 10.248l0.065-0.168c-1.378 3.213-3.258 5.957-5.573 8.265l-0.001 0.001z"></path>
<path d="M32 48c7.18 0 13-5.82 13-13v0h-26c0 7.18 5.82 13 13 13v0z"></path>
<path d="M25.72 28.537l2.561-3.073-7.28-6.067-7.28 6.067 2.561 3.073 4.72-3.933 4.72 3.933z"></path>
<path d="M35.72 25.463l2.561 3.073 4.72-3.933 4.72 3.933 2.561-3.073-7.28-6.067-7.28 6.067z"></path>
</svg>
