<!-- Generated by IcoMoon.io -->
<svg version="1.1" xmlns="http://www.w3.org/2000/svg" width="64" height="64" viewBox="0 0 64 64">
<title>mouse-alt</title>
<path d="M38 2.471h-12c-7.728 0.009-13.991 6.272-14 13.999v25.060c0 11.028 8.972 20 20 20s20-8.972 20-20v-25.059c-0.009-7.728-6.272-13.991-13.999-14h-0.001zM48 41.529c0 8.837-7.163 16-16 16s-16-7.163-16-16v0-25.059c0.006-5.52 4.48-9.994 9.999-10h12.001c5.52 0.006 9.994 4.48 10 9.999v0.001z"></path>
<path d="M30 11.958h4v14.748h-4v-14.748z"></path>
</svg>
