<!-- Generated by IcoMoon.io -->
<svg version="1.1" xmlns="http://www.w3.org/2000/svg" width="64" height="64" viewBox="0 0 64 64">
<title>mouth</title>
<path d="M40.502 22.675c-0.034 0.038-3.461 3.85-8.502 3.85-4.985 0-8.472-3.817-8.502-3.85l-1.043-1.18-12.593 6.667 6.964 14.625 1.456-0.208c4.122-0.621 8.878-0.975 13.717-0.975s9.596 0.355 14.245 1.039l-0.527-0.064 1.501 0.215 6.873-15.579-12.617-5.64zM48.825 29.242l-4.048 9.174c-3.837-0.517-8.273-0.812-12.777-0.812-4.52 0-8.971 0.297-13.334 0.873l0.512-0.055-4.056-8.517 6.54-3.462c1.772 1.531 5.457 4.083 10.338 4.083 4.952 0 8.673-2.627 10.414-4.149z"></path>
<path d="M42.248 7.599c-2.818 0-5.506 1.672-7.775 4.834-0.655 0.911-1.28 1.948-1.821 3.034l-0.059 0.131h-1.188c-0.599-1.218-1.224-2.255-1.926-3.234l0.046 0.068c-2.269-3.163-4.957-4.834-7.775-4.834-3.459 0-6.343 1.789-9.352 5.8-2.318 3.091-8.472 11.109-10.4 13.619v4.892l5.18 13.107 0.054 0.124q0.087 0.182 0.176 0.361c1.639 3.213 4.063 5.822 7.025 7.637l0.082 0.047c2.869 1.766 6.346 2.813 10.066 2.813 0.004 0 0.009 0 0.013 0h14.806c0.004 0 0.008 0 0.012 0 3.721 0 7.197-1.046 10.151-2.861l-0.084 0.048c3.045-1.862 5.468-4.471 7.058-7.577l0.050-0.107q0.090-0.179 0.176-0.361l0.038-0.080 5.196-14.008v-4.97c-1.85-2.191-8.082-9.595-10.4-12.686-3.008-4.011-5.893-5.8-9.352-5.8zM53.117 43.502q-0.050 0.104-0.102 0.208c-2.527 5.036-7.87 8.29-13.611 8.29h-14.806c-5.742 0-11.084-3.254-13.612-8.291q-0.056-0.112-0.111-0.225l-5.598-14.164c2.040-2.656 8.033-10.467 10.323-13.52 2.776-3.701 4.667-4.2 6.152-4.2 3.147 0 5.814 4.983 6.499 6.726l0.496 1.274 6.502-0.003 0.499-1.268c0.686-1.746 3.353-6.729 6.5-6.729 1.484 0 3.376 0.499 6.152 4.2 2.324 3.098 8.209 10.102 10.319 12.6z"></path>
</svg>
