<!-- Generated by IcoMoon.io -->
<svg version="1.1" xmlns="http://www.w3.org/2000/svg" width="64" height="64" viewBox="0 0 64 64">
<title>mouth-slash</title>
<path d="M51.6 13.399c-3.008-4.011-5.893-5.8-9.352-5.8-2.818 0-5.506 1.672-7.775 4.834-0.655 0.911-1.28 1.948-1.821 3.034l-0.059 0.131h-1.188c-0.599-1.218-1.224-2.255-1.926-3.234l0.046 0.068c-2.269-3.163-4.957-4.834-7.775-4.834-0.015-0-0.034-0-0.052-0-1.672 0-3.236 0.461-4.573 1.262l0.040-0.022 3.007 3.007c0.455-0.156 0.98-0.247 1.526-0.247 0.018 0 0.036 0 0.054 0h-0.003c3.147 0 5.814 4.983 6.499 6.726l0.496 1.274 6.502-0.003 0.499-1.268c0.686-1.746 3.353-6.729 6.5-6.729 1.484 0 3.376 0.499 6.152 4.2 2.324 3.098 8.209 10.102 10.319 12.6l-5.602 15.102q-0.050 0.104-0.102 0.208c-0.108 0.215-0.223 0.426-0.341 0.635l2.914 2.914c0.318-0.482 0.651-1.056 0.954-1.649l0.049-0.106q0.090-0.179 0.176-0.361l0.038-0.080 5.196-14.008v-4.97c-1.85-2.191-8.082-9.595-10.4-12.686z"></path>
<path d="M48.413 40.085l5.678-12.87-12.617-5.64-0.973 1.101c-0.028 0.032-2.347 2.61-5.969 3.528l3.146 3.146c1.817-0.785 3.38-1.784 4.755-2.992l-0.020 0.017 6.411 2.866-3.445 7.809z"></path>
<path d="M2 2v2.743l9.651 9.651c-2.689 3.556-7.904 10.351-9.651 12.625v4.892l5.18 13.107 0.054 0.124q0.087 0.182 0.176 0.361c1.639 3.213 4.063 5.822 7.025 7.637l0.082 0.047c2.869 1.766 6.346 2.813 10.066 2.813 0.004 0 0.009 0 0.013 0h14.806c0.004 0 0.008 0 0.012 0 3.721 0 7.197-1.046 10.151-2.861l-0.084 0.048q0.299-0.181 0.59-0.373l9.186 9.186h2.743v-2.914l-57.086-57.086zM23.997 26.74l10.908 10.908c-0.869-0.027-1.891-0.042-2.917-0.042-4.516 0-8.963 0.297-13.322 0.871l0.512-0.055-3.952-8.299 7.771-3.886zM20.348 23.090l-10.42 5.21 6.899 14.487 1.456-0.208c4.12-0.62 8.875-0.975 13.713-0.975 2.509 0 4.995 0.095 7.456 0.282l-0.327-0.020 8.029 8.029c-2.22 1.318-4.894 2.099-7.749 2.104h-14.808c-5.742 0-11.084-3.254-13.612-8.291q-0.056-0.112-0.111-0.225l-5.598-14.164c1.768-2.303 6.507-8.478 9.23-12.070z"></path>
</svg>
