<!-- Generated by IcoMoon.io -->
<svg version="1.1" xmlns="http://www.w3.org/2000/svg" width="64" height="64" viewBox="0 0 64 64">
<title>movie-alt</title>
<path d="M56 3h-48c-3.312 0.004-5.996 2.688-6 6v48c0 2.209 1.791 4 4 4v0h52c2.209 0 4-1.791 4-4v0-48c-0.004-3.312-2.688-5.996-6-6h-0zM58 9v9h-3.559l-3.666-11h5.225c1.105 0 2 0.895 2 2v0zM17.441 18l-3.666-11h8.116l3.668 11zM29.775 18l-3.666-11h8.116l3.666 11zM42.109 18l-3.667-11h8.117l3.666 11zM6 9c0-1.105 0.895-2 2-2v0h1.559l3.666 11h-7.225zM58 57h-52v-35h52v35z"></path>
</svg>
