<!-- Generated by IcoMoon.io -->
<svg version="1.1" xmlns="http://www.w3.org/2000/svg" width="64" height="64" viewBox="0 0 64 64">
<title>mug-tea</title>
<path d="M54.572 15h-10.572v-7h-40v43c0.005 4.416 3.584 7.995 8 8h24c4.416-0.005 7.995-3.584 8-7.999v-1.001h10.572c4.101-0.005 7.423-3.328 7.428-7.428v-20.144c-0.005-4.101-3.328-7.423-7.428-7.428h-0zM20.172 29.862l3.828 3.829v7.172h-8v-7.172l3.828-3.828zM58 42.572c-0.002 1.892-1.536 3.426-3.428 3.428h-14.572v5c-0.003 2.208-1.792 3.997-4 4h-24c-2.208-0.003-3.997-1.792-4-4v-39h10v14.033l-6 6v12.828h16v-12.829l-6-6v-14.033h18v7h14.572c1.892 0.002 3.426 1.536 3.428 3.428v0z"></path>
<path d="M52 22.5h-12v20h12c1.38-0.002 2.498-1.12 2.5-2.5v-15c-0.002-1.38-1.12-2.498-2.5-2.5h-0zM50.5 38.5h-6.5v-12h6.5z"></path>
</svg>
