<!-- Generated by IcoMoon.io -->
<svg version="1.1" xmlns="http://www.w3.org/2000/svg" width="64" height="64" viewBox="0 0 64 64">
<title>music-video</title>
<path d="M41.834 32.395c-0.001 0-0.001 0-0.002 0-0.654 0-1.284 0.1-1.876 0.286l0.044-0.012v-15.669l-22 4.475v20.723h0.017c-0.010 0.133-0.017 0.266-0.017 0.401 0 2.983 2.611 5.401 5.834 5.401s5.832-2.419 5.832-5.401-2.611-5.401-5.832-5.401c-0.001 0-0.001 0-0.002 0-0.654 0-1.284 0.1-1.876 0.286l0.044-0.012v-8.839l14-2.848v12.412h0.017c0.222 2.795 2.74 5 5.816 5 3.221 0 5.832-2.419 5.832-5.401s-2.611-5.401-5.832-5.401z"></path>
<path d="M58 9h-52c-2.209 0-4 1.791-4 4v0 38.875c0 2.209 1.791 4 4 4v0h52c2.209 0 4-1.791 4-4v0-38.875c0-2.209-1.791-4-4-4v0zM58 51.875h-52v-38.875h52v38.875z"></path>
</svg>
