<!-- Generated by IcoMoon.io -->
<svg version="1.1" xmlns="http://www.w3.org/2000/svg" width="64" height="64" viewBox="0 0 64 64">
<title>music-note-alt</title>
<path d="M15.5 60c6.341 0 11.5-4.844 11.5-10.796s-5.159-10.796-11.5-10.796c-0.016-0-0.035-0-0.053-0-2.829 0-5.427 0.987-7.469 2.637l0.023-0.018v-13.349l30-5.294v16.431h0.095c-0.060 0.417-0.095 0.899-0.095 1.389v0c0 5.953 5.159 10.796 11.5 10.796s11.5-4.844 11.5-10.796-5.159-10.796-11.5-10.796c-0.016-0-0.035-0-0.053-0-2.829 0-5.427 0.988-7.469 2.637l0.023-0.018v-27.41l-38 6.706v36.492h0.095c-0.060 0.417-0.095 0.899-0.095 1.389v0c0 5.953 5.159 10.796 11.5 10.796zM49.5 33.407c4.135 0 7.5 3.049 7.5 6.796s-3.365 6.796-7.5 6.796-7.5-3.049-7.5-6.796 3.365-6.796 7.5-6.796zM8 16v-1.322l30-5.294v8.939l-30 5.294zM15.5 42.407c4.135 0 7.5 3.049 7.5 6.796s-3.365 6.796-7.5 6.796-7.5-3.049-7.5-6.796 3.365-6.796 7.5-6.796z"></path>
</svg>
