<!-- Generated by IcoMoon.io -->
<svg version="1.1" xmlns="http://www.w3.org/2000/svg" width="64" height="64" viewBox="0 0 64 64">
<title>music-note</title>
<path d="M9 25.44l20-4v26.209c0 0.116 0 0.234 0 0.351 0 6.974 6.056 12.649 13.5 12.649s13.5-5.675 13.5-12.649-6.056-12.649-13.5-12.649c-0.023-0-0.049-0-0.076-0-3.639 0-6.953 1.395-9.434 3.68l0.010-0.009v-35.462l-24 4.8zM42.5 39.351c5.239 0 9.5 3.875 9.5 8.649s-4.261 8.649-9.5 8.649-9.5-3.875-9.5-8.649 4.261-8.649 9.5-8.649zM13 11.64l16-3.2v8.92l-16 3.2z"></path>
</svg>
