<!-- Generated by IcoMoon.io -->
<svg version="1.1" xmlns="http://www.w3.org/2000/svg" width="64" height="64" viewBox="0 0 64 64">
<title>music-note-slash</title>
<path d="M33 22.671v-20.111l-24 4.8v17.080l20-4v6.231zM13 19.56v-8.92l16-3.2v8.92z"></path>
<path d="M2 59.086v2.914h2.742l24.258-24.258v11.258c0 0.117 0 0.234 0 0.351 0 6.975 6.056 12.649 13.5 12.649s13.5-5.674 13.5-12.649-6.056-12.648-13.5-12.648c-0.023-0-0.051-0-0.078-0-3.638 0-6.951 1.395-9.432 3.68l0.010-0.009v-6.633l29-29v-2.743h-2.914zM42.5 40.704c5.239 0 9.5 3.875 9.5 8.648s-4.261 8.649-9.5 8.649-9.5-3.875-9.5-8.649 4.261-8.648 9.5-8.648z"></path>
</svg>
