<!-- Generated by IcoMoon.io -->
<svg version="1.1" xmlns="http://www.w3.org/2000/svg" width="64" height="64" viewBox="0 0 64 64">
<title>network-check</title>
<path d="M47.937 11.453c-4.764-1.556-10.246-2.454-15.937-2.454-11.213 0-21.612 3.483-30.175 9.426l0.175-0.115v4.332l22.566 32.228 1.24-5.203-2.975-4.249c1.267-0.718 2.732-1.32 4.276-1.731l0.131-0.030 1.025-4.3c-2.906 0.486-5.508 1.455-7.844 2.828l0.107-0.058-6.080-8.683c4.671-2.926 10.306-4.738 16.349-4.942l0.055-0.001 0.958-4.018c-7.289 0.026-14.079 2.138-19.811 5.77l0.153-0.090-6.594-9.417c7.477-4.858 16.623-7.747 26.444-7.747s18.967 2.889 26.635 7.863l-0.191-0.116-6.593 9.416c-2.348-1.493-5.049-2.788-7.905-3.747l-0.264-0.077-0.515 4.050c2.449 0.876 4.557 1.907 6.527 3.137l-0.141-0.082-8.276 11.819-1.083 8.52 21.806-31.142v-4.332c-4.041-2.812-8.703-5.142-13.688-6.753l-0.375-0.105z"></path>
<path d="M28.084 57.245c-0.067 0.269-0.105 0.577-0.105 0.894 0 1.856 1.315 3.404 3.065 3.764l0.025 0.004c0.227 0.047 0.487 0.075 0.754 0.075 1.955 0 3.569-1.46 3.812-3.349l0.002-0.019 4.143-33.289-3.889-0.709z"></path>
</svg>
