<!-- Generated by IcoMoon.io -->
<svg version="1.1" xmlns="http://www.w3.org/2000/svg" width="64" height="64" viewBox="0 0 64 64">
<title>new-releases</title>
<path d="M58.594 32l1.3-5.512 0.492-2.094-5.356-5.691-1.625-5.425-0.625-2.059-2.059-0.625-5.425-1.625-5.69-5.355-7.606 1.793-7.606-1.792-5.691 5.356-5.425 1.625-2.059 0.625-0.625 2.059-1.625 5.425-5.355 5.69 0.492 2.094 1.3 5.512-1.3 5.513-0.493 2.094 5.356 5.691 1.625 5.425 0.625 2.059 2.059 0.625 5.425 1.625 5.691 5.356 7.606-1.792 7.606 1.792 5.691-5.356 5.425-1.625 2.059-0.625 0.625-2.059 1.625-5.425 5.356-5.691-0.492-2.094zM56 38.431l-4.529 4.811-1.903 6.326-6.326 1.903-4.811 4.529-6.431-1.516-6.431 1.516-4.811-4.529-6.326-1.903-1.902-6.326-4.529-4.811 1.516-6.431-1.516-6.431 4.529-4.81 1.902-6.328 6.326-1.902 4.811-4.529 6.431 1.516 6.431-1.516 4.811 4.529 6.326 1.902 1.903 6.328 4.529 4.81-1.516 6.431z"></path>
<path d="M32 37c-3.866 0-7 3.134-7 7s3.134 7 7 7c3.866 0 7-3.134 7-7v0c-0.004-3.864-3.136-6.996-7-7h-0zM32 47c-1.657 0-3-1.343-3-3s1.343-3 3-3c1.657 0 3 1.343 3 3v0c0 1.657-1.343 3-3 3v0z"></path>
<path d="M25 23.363l4.364 11.637h5.272l4.364-11.637v-9.363h-14zM29 18h6v4.637l-3 8-3-8z"></path>
</svg>
