<!-- Generated by IcoMoon.io -->
<svg version="1.1" xmlns="http://www.w3.org/2000/svg" width="64" height="64" viewBox="0 0 64 64">
<title>opentype</title>
<path d="M52.414 20.483c-1.397-3.518-3.673-6.502-6.58-8.631-2.116-1.566-4.648-2.7-7.398-3.217l-0.113-0.018c-1.092-0.208-2.349-0.326-3.633-0.326-1.255 0-2.483 0.113-3.675 0.331l0.125-0.019c-5.124 0.896-10.055 3.709-13.884 7.923-3.844 4.23-6.348 9.637-7.051 15.225-0.71 5.645 0.459 11.134 3.291 15.456 2.846 4.343 7.174 7.248 12.186 8.178 1.074 0.208 2.309 0.326 3.571 0.326 0.005 0 0.011 0 0.016 0h-0.001c1.268-0.001 2.508-0.115 3.712-0.333l-0.127 0.019c3.114-0.541 6.112-1.761 8.91-3.625 6.543-4.356 11.041-11.654 12.030-19.522 0.519-4.119 0.042-8.188-1.38-11.767zM14.174 32.25c0.976-7.758 6.037-14.735 12.556-18.002-0.839 0.937-1.627 1.964-2.336 3.049l-0.060 0.098c-2.59 3.985-4.485 9.058-5.336 14.284-0.855 5.257-0.605 10.383 0.705 14.434 0.397 1.236 0.867 2.298 1.433 3.3l-0.046-0.088c-5.056-3.322-7.837-9.758-6.917-17.075zM42.586 31.679c-1.070 6.577-3.885 12.638-7.529 16.213-1.399 1.373-2.866 2.297-4.247 2.674-0.413 0.126-0.887 0.199-1.379 0.199-0.482 0-0.948-0.070-1.387-0.2l0.034 0.009c-1.952-0.597-3.574-2.618-4.568-5.692-1.118-3.458-1.318-7.919-0.563-12.561 0.763-4.69 2.447-9.216 4.741-12.746 2.149-3.306 4.646-5.487 7.030-6.142 0.427-0.124 0.918-0.197 1.426-0.2h0.002c0.004 0 0.009 0 0.014 0 0.462 0 0.907 0.070 1.326 0.201l-0.028-0.008c1.017 0.311 1.942 1.004 2.751 2.061 2.551 3.331 3.462 9.535 2.378 16.191z"></path>
</svg>
