<!-- Generated by IcoMoon.io -->
<svg version="1.1" xmlns="http://www.w3.org/2000/svg" width="64" height="64" viewBox="0 0 64 64">
<title>options-horizontal</title>
<path d="M46 32c0 4.418 3.582 8 8 8s8-3.582 8-8c0-4.418-3.582-8-8-8v0c-4.416 0.005-7.995 3.584-8 8v0zM58 32c0 2.209-1.791 4-4 4s-4-1.791-4-4c0-2.209 1.791-4 4-4v0c2.208 0.003 3.997 1.792 4 4v0z"></path>
<path d="M18 32c0-4.418-3.582-8-8-8s-8 3.582-8 8c0 4.418 3.582 8 8 8v0c4.416-0.005 7.995-3.584 8-7.999v-0.001zM6 32c0-2.209 1.791-4 4-4s4 1.791 4 4c0 2.209-1.791 4-4 4v0c-2.208-0.003-3.997-1.792-4-4v-0z"></path>
<path d="M40 32c0-4.418-3.582-8-8-8s-8 3.582-8 8c0 4.418 3.582 8 8 8v0c4.416-0.005 7.995-3.584 8-7.999v-0.001zM28 32c0-2.209 1.791-4 4-4s4 1.791 4 4c0 2.209-1.791 4-4 4v0c-2.208-0.003-3.997-1.792-4-4v-0z"></path>
</svg>
