<!-- Generated by IcoMoon.io -->
<svg version="1.1" xmlns="http://www.w3.org/2000/svg" width="64" height="64" viewBox="0 0 64 64">
<title>paw</title>
<path d="M47.853 38.072c-1.982-7.016-8.327-12.072-15.853-12.072s-13.871 5.056-15.825 11.956l-0.028 0.116-2.281 8.269c-0.229 0.797-0.36 1.713-0.36 2.659 0 5.523 4.477 10 10 10h16.988c5.523 0 10-4.477 10-10 0-0.946-0.131-1.862-0.377-2.73l0.017 0.070zM45.268 52.635c-1.098 1.443-2.817 2.365-4.751 2.365-0.008 0-0.016 0-0.024-0h-16.987c-3.314 0-6-2.686-6-6 0-0.568 0.079-1.117 0.226-1.638l-0.010 0.042 2.281-8.269c1.5-5.31 6.302-9.136 11.997-9.136s10.498 3.826 11.976 9.048l0.021 0.088 2.281 8.269c0.14 0.481 0.221 1.034 0.221 1.605 0 1.37-0.463 2.633-1.241 3.639l0.010-0.014z"></path>
<path d="M18.262 28.789c0.348-2.174-0.113-4.503-1.3-6.558s-2.972-3.619-5.029-4.405c-2.203-0.841-4.451-0.707-6.329 0.377-3.736 2.157-4.719 7.473-2.192 11.851 1.186 2.054 2.972 3.619 5.029 4.404 0.847 0.34 1.828 0.54 2.855 0.546h0.003c0.007 0 0.016 0 0.025 0 1.269 0 2.458-0.343 3.479-0.941l-0.033 0.018c1.879-1.085 3.119-2.964 3.491-5.293zM14.312 28.157c-0.179 1.116-0.726 1.99-1.542 2.461s-1.846 0.508-2.902 0.105c-1.202-0.459-2.264-1.406-2.993-2.668-1.4-2.426-1.067-5.35 0.728-6.386 0.416-0.241 0.916-0.382 1.449-0.382 0.011 0 0.023 0 0.034 0h-0.002c0.513 0.006 1 0.107 1.448 0.287l-0.027-0.010c1.202 0.459 2.264 1.407 2.993 2.668s1.017 2.655 0.814 3.926z"></path>
<path d="M18.696 20.502c1.42 1.135 3.042 1.727 4.682 1.727 0.518-0 1.022-0.058 1.507-0.166l-0.046 0.009c4.215-0.916 6.771-5.68 5.698-10.62v0c-0.504-2.318-1.729-4.352-3.448-5.727-1.842-1.473-4.024-2.030-6.143-1.569-4.215 0.916-6.771 5.68-5.697 10.62 0.504 2.318 1.729 4.352 3.449 5.727zM21.794 8.064c0.177-0.040 0.381-0.063 0.59-0.063 0.001 0 0.001 0 0.002 0h-0c0.744 0 1.508 0.291 2.205 0.848 1.005 0.803 1.728 2.029 2.038 3.453v0c0.595 2.737-0.613 5.421-2.638 5.861-0.92 0.2-1.913-0.079-2.796-0.784-1.005-0.803-1.728-2.030-2.038-3.453-0.595-2.737 0.613-5.421 2.638-5.861z"></path>
<path d="M58.396 18.204c-1.879-1.085-4.127-1.219-6.329-0.377-2.057 0.786-3.843 2.35-5.029 4.404s-1.648 4.383-1.3 6.558c0.373 2.328 1.613 4.208 3.491 5.293 0.989 0.581 2.177 0.924 3.446 0.924 0.009 0 0.018 0 0.027-0h-0.001c1.030-0.007 2.011-0.207 2.912-0.565l-0.054 0.019c2.057-0.786 3.843-2.35 5.029-4.404 2.527-4.378 1.544-9.694-2.192-11.851zM57.124 28.054c-0.728 1.261-1.791 2.209-2.993 2.668-1.056 0.404-2.086 0.366-2.902-0.105s-1.363-1.345-1.542-2.461c-0.203-1.27 0.086-2.664 0.814-3.926s1.791-2.209 2.993-2.668c0.421-0.171 0.908-0.272 1.419-0.278h0.002c0.010-0 0.021-0 0.032-0 0.533 0 1.032 0.142 1.463 0.39l-0.014-0.008c1.795 1.036 2.128 3.961 0.728 6.387z"></path>
<path d="M39.161 22.071c0.439 0.1 0.943 0.157 1.461 0.158h0c1.64 0 3.262-0.591 4.682-1.727 1.72-1.375 2.945-3.409 3.449-5.727 1.074-4.939-1.482-9.703-5.697-10.62-2.12-0.461-4.301 0.096-6.143 1.569-1.72 1.375-2.945 3.409-3.449 5.727-1.074 4.939 1.482 9.703 5.697 10.62zM37.372 12.301v0c0.309-1.423 1.033-2.649 2.038-3.453 0.696-0.557 1.461-0.848 2.205-0.848 0.001 0 0.001 0 0.002 0 0.209 0 0.412 0.023 0.608 0.067l-0.019-0.003c2.025 0.44 3.233 3.124 2.638 5.861-0.309 1.423-1.033 2.65-2.038 3.453-0.883 0.706-1.875 0.984-2.796 0.784-2.025-0.44-3.233-3.124-2.639-5.861z"></path>
</svg>
