<!-- Generated by IcoMoon.io -->
<svg version="1.1" xmlns="http://www.w3.org/2000/svg" width="64" height="64" viewBox="0 0 64 64">
<title>pen-alt</title>
<path d="M58.748 5.252c-2.011-2.006-4.786-3.247-7.852-3.247s-5.841 1.241-7.852 3.247l-1.192 1.192-2.599-2.599c-1.14-1.14-2.715-1.845-4.455-1.845s-3.315 0.705-4.455 1.845l-16.759 16.759 2.828 2.828 16.759-16.759c0.416-0.416 0.991-0.674 1.626-0.674s1.21 0.257 1.626 0.674l2.599 2.599-16.788 16.788c-8.473 8.494-15.068 18.866-19.104 30.438l-0.172 0.567c-0.107 0.301-0.168 0.648-0.168 1.009 0 0.862 0.351 1.642 0.918 2.204l0.011 0.011c0.562 0.566 1.341 0.917 2.201 0.918h0c0.362-0 0.71-0.062 1.034-0.175l-0.022 0.007h0c12.138-4.208 22.511-10.803 31.006-19.277l20.806-20.806c2.006-2.011 3.247-4.786 3.247-7.852s-1.241-5.841-3.247-7.852l0 0zM35.111 38.935c-7.656 7.637-16.918 13.668-27.235 17.543l-0.529 0.174c4.049-10.846 10.081-20.108 17.719-27.766l6.791-6.791 10.047 10.046zM55.919 18.127l-11.187 11.187-10.047-10.047 11.187-11.187c1.286-1.289 3.064-2.086 5.029-2.086 3.923 0 7.104 3.181 7.104 7.104 0 1.965-0.797 3.743-2.086 5.029l-0 0z"></path>
</svg>
