<!-- Generated by IcoMoon.io -->
<svg version="1.1" xmlns="http://www.w3.org/2000/svg" width="64" height="64" viewBox="0 0 64 64">
<title>pen-fancy</title>
<path d="M58.763 5.237c-2-2-4.762-3.236-7.813-3.236-3.439 0-6.51 1.571-8.537 4.034l-0.015 0.019-18.672 22.822-11.384 2.319c-1.021 0.21-1.839 0.919-2.199 1.855l-0.007 0.020-7.354 19.386c-0.123 0.316-0.194 0.681-0.194 1.063 0 0.829 0.336 1.579 0.878 2.123l4.742 4.742c1.204 1.204 2.84 0.815 3.185 0.684l19.395-7.357c0.943-0.363 1.645-1.163 1.864-2.145l0.004-0.020 2.458-11.261 22.834-18.682c2.482-2.042 4.053-5.114 4.053-8.552 0-3.051-1.237-5.814-3.236-7.814v0zM28.862 50.163l-18.284 6.935-0.424-0.424 5.76-5.76-2.828-2.828-5.76 5.76-0.575-0.575 6.929-18.267 10.489-2.137 6.952 6.952zM57.991 13.401c-0.095 2.064-1.074 3.881-2.564 5.095l-0.013 0.010-21.972 17.977-5.926-5.926 17.977-21.972c1.303-1.584 3.263-2.586 5.456-2.586 3.894 0 7.050 3.156 7.050 7.050 0 0.124-0.003 0.246-0.009 0.368l0.001-0.017z"></path>
<path d="M17 43h4v4h-4v-4z"></path>
</svg>
