<!-- Generated by IcoMoon.io -->
<svg version="1.1" xmlns="http://www.w3.org/2000/svg" width="64" height="64" viewBox="0 0 64 64">
<title>pen-nib</title>
<path d="M60.121 17.211l-13.106-13.106c-0.543-0.543-1.293-0.879-2.121-0.879-0.934 0-1.767 0.426-2.318 1.095l-0.004 0.005-11.242 13.74-16.267 3.314c-1.158 0.239-2.087 1.043-2.495 2.105l-0.008 0.023-10.325 27.22c-0.14 0.358-0.221 0.773-0.221 1.206 0 0.94 0.381 1.792 0.996 2.408l6.659 6.659c0.617 0.616 1.468 0.996 2.408 0.996 0.434 0 0.848-0.081 1.229-0.228l-0.023 0.008 27.233-10.33c1.070-0.412 1.866-1.32 2.114-2.434l0.004-0.023 3.512-16.087 13.752-11.252c0.674-0.554 1.1-1.388 1.1-2.322 0-0.828-0.336-1.578-0.879-2.121v0zM38.796 47.824l-26.57 10.078-1.643-1.643 12.42-12.42c0.988 0.565 2.171 0.898 3.431 0.898 3.87 0 7.007-3.137 7.007-7.007s-3.137-7.007-7.007-7.007c-3.87 0-7.007 3.137-7.007 7.007 0 1.183 0.293 2.297 0.811 3.274l-0.018-0.038-12.465 12.465-1.643-1.643 10.072-26.554 15.59-3.176 10.381 10.382zM23.427 37.738c0-1.657 1.343-3 3-3s3 1.343 3 3c0 1.657-1.343 3-3 3v0c-1.657 0-3-1.343-3-3v0zM44.476 29.105l-9.355-9.355 9.847-12.035 11.543 11.543z"></path>
</svg>
