<!-- Generated by IcoMoon.io -->
<svg version="1.1" xmlns="http://www.w3.org/2000/svg" width="64" height="64" viewBox="0 0 64 64">
<title>pen</title>
<path d="M58.953 5.252c-2.011-2.006-4.786-3.247-7.852-3.247s-5.841 1.241-7.852 3.247l-20.808 20.808c-8.473 8.494-15.068 18.866-19.104 30.438l-0.172 0.567c-0.107 0.301-0.168 0.648-0.168 1.009 0 0.862 0.351 1.642 0.918 2.204l0.011 0.011c0.562 0.566 1.341 0.917 2.201 0.918h0c0.362-0 0.71-0.062 1.034-0.175l-0.022 0.007c12.139-4.208 22.511-10.803 31.007-19.277l20.806-20.806c2.010-2.009 3.252-4.785 3.252-7.852s-1.243-5.842-3.252-7.852v0zM35.316 38.935c-7.656 7.637-16.918 13.668-27.234 17.543l-0.53 0.174c4.050-10.846 10.081-20.108 17.719-27.766l-0.002 0.002 12.395-12.395 10.047 10.047zM56.124 18.127l-5.584 5.584-10.047-10.047 5.584-5.584c1.286-1.286 3.062-2.081 5.023-2.081 3.923 0 7.104 3.181 7.104 7.104 0 1.962-0.795 3.738-2.081 5.023v0z"></path>
</svg>
