<!-- Generated by IcoMoon.io -->
<svg version="1.1" xmlns="http://www.w3.org/2000/svg" width="64" height="64" viewBox="0 0 64 64">
<title>pizza</title>
<path d="M58.536 13.263c-9.175-6.119-17.847-9.148-26.51-9.259-8.772-0.108-17.426 2.587-26.458 8.253-1.136 0.714-1.879 1.961-1.879 3.381 0 0.75 0.207 1.451 0.568 2.050l-0.010-0.018 24.323 41.44c0.699 1.189 1.973 1.975 3.43 1.975 0 0 0 0 0.001 0h0.020c0.006 0 0.012 0 0.019 0 1.443 0 2.707-0.771 3.4-1.924l0.010-0.018 24.296-40.493c0.359-0.588 0.572-1.299 0.572-2.060 0-1.382-0.701-2.599-1.767-3.317l-0.014-0.009zM56.315 16.591l-24.296 40.494-24.326-41.439c8.195-5.142 15.988-7.645 23.808-7.645q0.237 0 0.473 0.003c7.867 0.101 15.829 2.911 24.342 8.588z"></path>
<path d="M27.947 28.936c-0.296-1.639-1.712-2.866-3.414-2.866-1.914 0-3.466 1.552-3.466 3.466s1.552 3.466 3.466 3.466c0.212 0 0.42-0.019 0.622-0.056l-0.021 0.003c1.639-0.296 2.866-1.712 2.866-3.414 0-0.212-0.019-0.42-0.056-0.622l0.003 0.021z"></path>
<path d="M41.098 33.213c1.246 1.453 1.079 3.641-0.374 4.888s-3.641 1.079-4.888-0.374c-1.246-1.453-1.079-3.641 0.374-4.888s3.641-1.079 4.888 0.374z"></path>
<path d="M26.72 42.54l2.561-3.073 6 5-2.561 3.073-6-5z"></path>
<path d="M31.298 24.131l8-3 1.404 3.745-8 3-1.404-3.745z"></path>
<path d="M15.063 22.698c4.161-2.611 10.568-5.696 17.602-5.696q0.154 0 0.309 0.002c5.859 0.076 11.235 1.875 16.916 5.664l2.219-3.328c-6.353-4.237-12.417-6.25-19.084-6.336-8.132-0.101-15.411 3.371-20.089 6.306z"></path>
</svg>
