<!-- Generated by IcoMoon.io -->
<svg version="1.1" xmlns="http://www.w3.org/2000/svg" width="64" height="64" viewBox="0 0 64 64">
<title>pool</title>
<path d="M58.56 45.188c-1.134-0.529-2.545-1.188-5.132-1.188s-3.998 0.658-5.132 1.188c-0.973 0.454-1.741 0.812-3.44 0.812s-2.467-0.358-3.44-0.812c-1.134-0.529-2.545-1.188-5.132-1.188s-3.998 0.659-5.131 1.188c-0.973 0.454-1.741 0.812-3.44 0.812s-2.467-0.358-3.44-0.812c-1.134-0.529-2.545-1.188-5.131-1.188s-3.998 0.659-5.131 1.188c-0.973 0.454-1.741 0.812-3.44 0.812s-2.467-0.358-3.44-0.812c-1.134-0.529-2.545-1.188-5.131-1.188v4c1.699 0 2.467 0.358 3.44 0.812 1.134 0.529 2.545 1.188 5.131 1.188s3.998-0.659 5.131-1.188c0.973-0.454 1.741-0.812 3.44-0.812s2.467 0.358 3.44 0.812c1.134 0.529 2.545 1.188 5.131 1.188s3.998-0.659 5.131-1.188c0.973-0.454 1.741-0.812 3.44-0.812s2.467 0.358 3.44 0.812c1.134 0.529 2.545 1.188 5.132 1.188s3.998-0.658 5.132-1.188c0.973-0.454 1.741-0.812 3.44-0.812s2.468 0.358 3.44 0.812c1.134 0.529 2.545 1.188 5.132 1.188v-4c-1.699 0-2.468-0.358-3.44-0.812z"></path>
<path d="M53.428 56c-2.587 0-3.998 0.658-5.132 1.188-0.973 0.454-1.741 0.812-3.44 0.812s-2.467-0.358-3.44-0.812c-1.134-0.529-2.545-1.188-5.132-1.188s-3.998 0.659-5.131 1.188c-0.973 0.454-1.741 0.812-3.44 0.812s-2.467-0.358-3.44-0.812c-1.134-0.529-2.545-1.188-5.131-1.188s-3.998 0.659-5.131 1.188c-0.973 0.454-1.741 0.812-3.44 0.812s-2.467-0.358-3.44-0.812c-1.134-0.529-2.545-1.188-5.131-1.188v4c1.699 0 2.467 0.358 3.44 0.812 1.134 0.529 2.545 1.188 5.131 1.188s3.998-0.659 5.131-1.188c0.973-0.454 1.741-0.812 3.44-0.812s2.467 0.358 3.44 0.812c1.134 0.529 2.545 1.188 5.131 1.188s3.998-0.659 5.131-1.188c0.973-0.454 1.741-0.812 3.44-0.812s2.467 0.358 3.44 0.812c1.134 0.529 2.545 1.188 5.132 1.188s3.998-0.658 5.132-1.188c0.973-0.454 1.741-0.812 3.44-0.812s2.468 0.358 3.44 0.812c1.134 0.529 2.545 1.188 5.132 1.188v-4c-1.699 0-2.468-0.358-3.44-0.812-1.134-0.529-2.545-1.188-5.132-1.188z"></path>
<path d="M31 34h18v7h4v-26.515c0-0.002 0-0.005 0-0.008 0-1.268 0.395-2.444 1.069-3.411l-0.013 0.020 6.246-9.086h-4.854l-4.688 6.819c-1.101 1.579-1.76 3.539-1.76 5.652 0 0.005 0 0.009 0 0.014v-0.001 5.515h-18v-5.515c0-0.002 0-0.005 0-0.008 0-1.268 0.395-2.444 1.069-3.411l-0.013 0.020 6.246-9.086h-4.854l-4.688 6.819c-1.101 1.579-1.76 3.539-1.76 5.652 0 0.005 0 0.009 0 0.014v-0.001 26.515h4zM31 24h18v6h-18z"></path>
</svg>
