<!-- Generated by IcoMoon.io -->
<svg version="1.1" xmlns="http://www.w3.org/2000/svg" width="64" height="64" viewBox="0 0 64 64">
<title>portable-wifi</title>
<path d="M32 40c-4.418 0-8-3.582-8-8s3.582-8 8-8c4.418 0 8 3.582 8 8v0c-0.005 4.416-3.584 7.995-7.999 8h-0.001zM32 28c-2.209 0-4 1.791-4 4s1.791 4 4 4c2.209 0 4-1.791 4-4v0c-0.003-2.208-1.792-3.997-4-4h-0z"></path>
<path d="M13.624 50.376c-4.71-4.694-7.624-11.186-7.624-18.36 0-0.006 0-0.011 0-0.017v0.001c0-14.336 11.664-26 26-26s26 11.664 26 26c0 0.005 0 0.011 0 0.016 0 7.173-2.914 13.666-7.623 18.359l-0.001 0.001 2.837 2.837c5.429-5.429 8.787-12.929 8.787-21.213 0-16.569-13.431-30-30-30-8.284 0-15.784 3.358-21.213 8.787v0c-5.429 5.429-8.787 12.929-8.787 21.213s3.358 15.784 8.787 21.213v0z"></path>
<path d="M21.398 42.602c-2.717-2.715-4.398-6.467-4.398-10.612 0-8.284 6.716-15 15-15s15 6.716 15 15c0 4.145-1.681 7.897-4.398 10.611l-0 0 2.827 2.827c3.442-3.43 5.571-8.175 5.571-13.417 0-0.004 0-0.008 0-0.013v0.001c0-10.477-8.523-19-19-19s-19 8.523-19 19c0 0.004 0 0.008 0 0.012 0 5.242 2.13 9.987 5.571 13.416l0.001 0.001z"></path>
</svg>
