<!-- Generated by IcoMoon.io -->
<svg version="1.1" xmlns="http://www.w3.org/2000/svg" width="64" height="64" viewBox="0 0 64 64">
<title>portable-wifi-off</title>
<path d="M49.889 41.403c0.704-1.901 1.111-4.097 1.111-6.388 0-0.005 0-0.011 0-0.016v0.001c0-10.477-8.523-19-19-19-0.005 0-0.010 0-0.015 0-2.291 0-4.487 0.407-6.519 1.154l0.131-0.042 3.228 3.228c0.954-0.216 2.049-0.339 3.173-0.339 8.286 0 15.002 6.717 15.002 15.002 0 1.124-0.124 2.219-0.358 3.273l0.019-0.1z"></path>
<path d="M32 9c14.336 0 26 11.664 26 26 0 0.009 0 0.019 0 0.029 0 4.265-1.033 8.289-2.863 11.834l0.068-0.145 2.968 2.968c2.408-4.223 3.827-9.279 3.827-14.667 0-16.58-13.441-30.020-30.020-30.020-5.388 0-10.444 1.419-14.816 3.905l0.148-0.078 2.968 2.968c3.401-1.762 7.425-2.795 11.69-2.795 0.010 0 0.021 0 0.031 0h-0.002z"></path>
<path d="M2 2v2.828l8.874 8.874c-0.029 0.028-0.059 0.056-0.087 0.084-5.429 5.429-8.787 12.929-8.787 21.213s3.358 15.784 8.787 21.213v0l2.837-2.837c-4.71-4.698-7.624-11.195-7.624-18.373 0-7.222 2.95-13.755 7.711-18.459l0.003-0.003 4.947 4.947c-3.495 3.442-5.66 8.225-5.66 13.514 0 5.245 2.129 9.993 5.571 13.426l0 0 2.827-2.827c-2.717-2.71-4.398-6.459-4.398-10.599 0-4.185 1.717-7.968 4.485-10.685l0.002-0.002 4.948 4.948c-1.503 1.455-2.436 3.491-2.436 5.745 0 4.415 3.579 7.993 7.993 7.993 2.254 0 4.29-0.933 5.743-2.434l0.002-0.002 21.434 21.434h2.828v-2.828l-57.172-57.172zM32 39c-0.001 0-0.002 0-0.003 0-2.208 0-3.997-1.79-3.997-3.997 0-1.148 0.484-2.183 1.259-2.912l0.002-0.002 5.649 5.649c-0.729 0.777-1.763 1.262-2.91 1.262-0 0-0 0-0.001 0v0z"></path>
</svg>
