<!-- Generated by IcoMoon.io -->
<svg version="1.1" xmlns="http://www.w3.org/2000/svg" width="64" height="64" viewBox="0 0 64 64">
<title>pregnant</title>
<path d="M28 18c4.418 0 8-3.582 8-8s-3.582-8-8-8c-4.418 0-8 3.582-8 8v0c0.005 4.416 3.584 7.995 8 8h0zM28 6c2.209 0 4 1.791 4 4s-1.791 4-4 4c-2.209 0-4-1.791-4-4v0c0.003-2.208 1.792-3.997 4-4h0z"></path>
<path d="M44.245 31.421c-1.878-2.112-4.383-3.457-7.826-4.188l-3.1-7.233h-11.053l-3.265 22.858v7.142h7v12h12v-12h10v-6c0-5.621-1.228-9.736-3.755-12.579zM44 46h-10v12h-4v-12h-7v-2.858l2.735-19.142h4.947l2.911 6.793 1.079 0.18c3.062 0.51 5.154 1.497 6.584 3.106 1.847 2.078 2.745 5.323 2.745 9.921z"></path>
</svg>
