<!-- Generated by IcoMoon.io -->
<svg version="1.1" xmlns="http://www.w3.org/2000/svg" width="64" height="64" viewBox="0 0 64 64">
<title>puzzle-piece</title>
<path d="M54.328 27.684l-0-0c-0.799-0.217-1.717-0.342-2.664-0.342-0.362 0-0.719 0.018-1.072 0.054l0.044-0.004-2.636 0.265v-8.608c0-0 0-0 0-0 0-1.657-1.343-3-3-3-0.050 0-0.1 0.001-0.15 0.004l0.007-0-10.226 0.487 0.319-3.167 0.002-0.019c0.032-0.308 0.050-0.666 0.050-1.028 0-0.947-0.125-1.865-0.359-2.738l0.017 0.074c-1.23-4.589-5.291-7.672-10.106-7.672s-8.876 3.083-10.106 7.672c-0.217 0.799-0.342 1.717-0.342 2.664 0 0.362 0.018 0.719 0.054 1.072l-0.004-0.044 0.316 3.143-9.33-0.444c-0.043-0.002-0.093-0.003-0.143-0.003-1.657 0-3 1.343-3 3 0 0 0 0 0 0v0 39.903c0 0 0 0 0 0 0 1.657 1.343 3 3 3 0.001 0 0.001 0 0.002 0h-0q0.070 0 0.141-0.003l11.531-0.549 1.895-2.198-0.43-4.267c-0.021-0.197-0.033-0.425-0.033-0.656 0-0.579 0.075-1.14 0.216-1.675l-0.010 0.046c0.755-2.816 3.263-4.708 6.242-4.708s5.488 1.892 6.242 4.708c0.131 0.489 0.206 1.050 0.206 1.629 0 0.231-0.012 0.459-0.035 0.684l0.002-0.028-0.425 4.225 1.895 2.198 12.418 0.591c0.043 0.002 0.093 0.003 0.143 0.003 1.657 0 3-1.343 3-3 0 0 0-0 0-0v0-11.029l2.636 0.265c0.308 0.032 0.666 0.050 1.027 0.050 0.947 0 1.865-0.125 2.738-0.359l-0.074 0.017c4.589-1.23 7.672-5.291 7.672-10.106s-3.083-8.876-7.672-10.106zM53.292 44.032c-0.489 0.131-1.051 0.206-1.63 0.206-0.231 0-0.459-0.012-0.683-0.035l0.028 0.002-4.807-0.484-2.2 1.99v12.192l-9.265-0.441 0.215-2.138 0.002-0.019c0.032-0.308 0.050-0.666 0.050-1.028 0-0.947-0.125-1.865-0.359-2.738l0.017 0.074c-1.23-4.589-5.291-7.672-10.106-7.672s-8.876 3.083-10.106 7.672c-0.217 0.799-0.342 1.717-0.342 2.664 0 0.362 0.018 0.72 0.054 1.072l-0.004-0.044 0.221 2.199-8.378 0.399v-37.805l10.6 0.505 2.085-2.198-0.546-5.421c-0.021-0.197-0.033-0.425-0.033-0.656 0-0.579 0.075-1.14 0.216-1.675l-0.010 0.046c0.755-2.816 3.263-4.708 6.242-4.708s5.488 1.892 6.242 4.708c0.131 0.489 0.206 1.050 0.206 1.629 0 0.231-0.012 0.459-0.035 0.684l0.002-0.028-0.55 5.465 2.085 2.198 11.495-0.547v9.771l2.2 1.99 4.806-0.484c0.197-0.021 0.425-0.033 0.656-0.033 0.579 0 1.14 0.075 1.675 0.216l-0.046-0.010c2.816 0.755 4.708 3.263 4.708 6.242s-1.892 5.487-4.708 6.242z"></path>
</svg>
