<!-- Generated by IcoMoon.io -->
<svg version="1.1" xmlns="http://www.w3.org/2000/svg" width="64" height="64" viewBox="0 0 64 64">
<title>queue-music</title>
<path d="M46 6v-4h-41c-1.657 0-3 1.343-3 3v0 41h4v-40h40z"></path>
<path d="M50 14h4v-4h-41c-1.657 0-3 1.343-3 3v0 41h4v-40h36z"></path>
<path d="M59 18h-38c-1.657 0-3 1.343-3 3v0 38c0 1.657 1.343 3 3 3v0h38c1.657 0 3-1.343 3-3v0-38c0-1.657-1.343-3-3-3v0zM58 58h-36v-36h36z"></path>
<path d="M37 47.016h0.009c0.184 3.367 3.19 6.046 6.875 6.046 3.8 0 6.875-2.852 6.875-6.375s-3.080-6.375-6.875-6.375c-0 0-0.001 0-0.001 0-1.042 0-2.033 0.218-2.93 0.611l0.047-0.018v-12.843h-0.034v-2.063l-10.966 2.145v5.918l7-1.375z"></path>
</svg>
