<!-- Generated by IcoMoon.io -->
<svg version="1.1" xmlns="http://www.w3.org/2000/svg" width="64" height="64" viewBox="0 0 64 64">
<title>queue-add</title>
<path d="M46 6v-4h-41c-1.657 0-3 1.343-3 3v0 41h4v-40h40z"></path>
<path d="M50 14h4v-4h-41c-1.657 0-3 1.343-3 3v0 41h4v-40h36z"></path>
<path d="M59 18h-38c-1.657 0-3 1.343-3 3v0 38c0 1.657 1.343 3 3 3v0h38c1.657 0 3-1.343 3-3v0-38c0-1.657-1.343-3-3-3v0zM58 58h-36v-36h36z"></path>
<path d="M38 51h4v-9h9v-4h-9v-9h-4v9h-9v4h9v9z"></path>
</svg>
