<!-- Generated by IcoMoon.io -->
<svg version="1.1" xmlns="http://www.w3.org/2000/svg" width="64" height="64" viewBox="0 0 64 64">
<title>radio</title>
<path d="M6 16v-0.295l45.041-7.205v-4.053l-49 7.84v49.712h59.959v-46zM58 58h-52v-25h52zM58 29h-40v-5h-4v5h-8v-9h52z"></path>
<path d="M43 56c5.523 0 10-4.477 10-10s-4.477-10-10-10c-5.523 0-10 4.477-10 10v0c0.006 5.52 4.48 9.994 9.999 10h0.001zM43 40c3.314 0 6 2.686 6 6s-2.686 6-6 6c-3.314 0-6-2.686-6-6v0c0.004-3.312 2.688-5.996 6-6h0z"></path>
</svg>
