<!-- Generated by IcoMoon.io -->
<svg version="1.1" xmlns="http://www.w3.org/2000/svg" width="64" height="64" viewBox="0 0 64 64">
<title>recent-actors</title>
<path d="M54 41.516c0-0.003 0-0.006 0-0.009 0-2.145-1.102-4.032-2.772-5.126l-0.023-0.014-3.594-2.336 1.727-4.206v-6.61c0-4.536-3.677-8.214-8.214-8.214s-8.214 3.677-8.214 8.214v0 6.57l1.589 4.341-3.456 2.25c-1.692 1.109-2.794 2.995-2.794 5.14 0 0.001 0 0.001 0 0.001v-0 6.484h25.75zM50 44h-17.75v-2.484c0-0.001 0-0.002 0-0.004 0-0.748 0.385-1.406 0.967-1.787l0.008-0.005 6.125-3.985-2.443-6.661v-5.86c0-2.327 1.887-4.214 4.214-4.214s4.214 1.887 4.214 4.214v0 5.82l-2.686 6.544 6.375 4.142c0.59 0.386 0.975 1.044 0.975 1.792 0 0.001 0 0.003 0 0.004v-0z"></path>
<path d="M59 1.834h-36c-1.657 0-3 1.343-3 3v0 2.166h-6c-1.657 0-3 1.343-3 3v0 2h-5c-2.209 0-4 1.791-4 4v0 32c0 2.209 1.791 4 4 4v0h5v2c0 1.657 1.343 3 3 3v0h6v1.834c0 1.657 1.343 3 3 3v0h36c1.657 0 3-1.343 3-3v0-54c0-1.657-1.343-3-3-3v0zM11 48h-5v-32h5zM20 53h-5v-42h5zM58 57.834h-34v-52h34z"></path>
</svg>
