<!-- Generated by IcoMoon.io -->
<svg version="1.1" xmlns="http://www.w3.org/2000/svg" width="64" height="64" viewBox="0 0 64 64">
<title>remove</title>
<path d="M28.414 45.414l10.586-10.586 10.586 10.586 2.828-2.828-10.586-10.586 10.586-10.586-2.828-2.828-10.586 10.586-10.586-10.586-2.828 2.828 10.586 10.586-10.586 10.586 2.828 2.828z"></path>
<path d="M59 8h-34.67c-0.857 0.002-1.629 0.36-2.176 0.935l-0.001 0.001-20.153 21.266v3.594l20.153 21.266c0.549 0.576 1.321 0.935 2.177 0.936h34.67c1.656-0.002 2.998-1.344 3-3v-42c-0.002-1.656-1.344-2.998-3-3h-0zM58 52h-33.239l-18.761-19.797v-0.406l18.761-19.797h33.239z"></path>
</svg>
