<!-- Generated by IcoMoon.io -->
<svg version="1.1" xmlns="http://www.w3.org/2000/svg" width="64" height="64" viewBox="0 0 64 64">
<title>remote-control</title>
<path d="M38 22h-14c-1.657 0-3 1.343-3 3v0 33.834c0 1.657 1.343 3 3 3v0h14c1.657 0 3-1.343 3-3v0-33.834c0-1.657-1.343-3-3-3v0zM37 57.834h-12v-31.834h12z"></path>
<path d="M29 30h4v4h-4v-4z"></path>
<path d="M18.277 17.277l2.828 2.828c2.531-2.536 6.030-4.105 9.895-4.105s7.364 1.569 9.895 4.105l0 0 2.828-2.828c-3.254-3.26-7.753-5.278-12.723-5.278s-9.469 2.017-12.722 5.277l-0 0z"></path>
<path d="M31 4c-0.004 0-0.009 0-0.014 0-7.174 0-13.668 2.915-18.361 7.624l-0.001 0.001 2.828 2.828c3.976-3.985 9.475-6.451 15.549-6.451s11.572 2.466 15.548 6.451l0 0 2.825-2.828c-4.694-4.71-11.187-7.625-18.361-7.625-0.005 0-0.010 0-0.014 0h0.001z"></path>
</svg>
