<!-- Generated by IcoMoon.io -->
<svg version="1.1" xmlns="http://www.w3.org/2000/svg" width="64" height="64" viewBox="0 0 64 64">
<title>remote-settings</title>
<path d="M41 49v-33.834c0-1.657-1.343-3-3-3v0h-14c-1.657 0-3 1.343-3 3v0 33.834c0 1.657 1.343 3 3 3v0h14c1.657 0 3-1.343 3-3v0zM37 48h-12v-31.834h12z"></path>
<path d="M29 20.166h4v4h-4v-4z"></path>
<path d="M31 6.166c0.003 0 0.006 0 0.009 0 3.863 0 7.359 1.569 9.885 4.105l0 0 2.828-2.826c-3.254-3.261-7.752-5.279-12.723-5.279s-9.469 2.018-12.722 5.278l-0 0 2.828 2.826c2.527-2.536 6.023-4.105 9.886-4.105 0.003 0 0.006 0 0.010 0h-0z"></path>
<path d="M20 58h4v4h-4v-4z"></path>
<path d="M30 58h4v4h-4v-4z"></path>
<path d="M40 58h4v4h-4v-4z"></path>
</svg>
