<!-- Generated by IcoMoon.io -->
<svg version="1.1" xmlns="http://www.w3.org/2000/svg" width="64" height="64" viewBox="0 0 64 64">
<title>restaurant</title>
<path d="M28 20h-6v-14h-4v14h-6v-14h-4v15.5c0 5.688 4.332 10.424 10 11.339v26.161h4v-26.161c5.668-0.915 10-5.651 10-11.339v-15.5h-4zM20 29c-3.476 0-6.44-2.090-7.541-5h15.082c-1.101 2.91-4.065 5-7.541 5z"></path>
<path d="M51.696 5.023c-8.371 1.324-14.696 8.488-14.696 17.13v0 20.847h13v16h4v-54.331zM50 39h-9v-16.847c-0-0.019-0-0.042-0-0.065 0-5.796 3.722-10.723 8.907-12.521l0.093-0.028z"></path>
</svg>
