<!-- Generated by IcoMoon.io -->
<svg version="1.1" xmlns="http://www.w3.org/2000/svg" width="64" height="64" viewBox="0 0 64 64">
<title>restaurant-menu</title>
<path d="M12.947 52.593l2.843 2.813 14.999-15.158-2.828-2.828-15.014 15.173z"></path>
<path d="M44.77 33.2q0.433 0 0.871-0.035c3.183-0.252 6.205-1.837 8.74-4.584 2.503-2.712 4.255-6.287 4.806-9.809 0.621-3.969-0.319-7.338-2.647-9.487s-5.761-2.816-9.668-1.879c-3.466 0.831-6.889 2.863-9.392 5.575-2.535 2.747-3.873 5.886-3.869 9.079 0.003 2.691 0.98 5.153 2.598 7.053l-0.013-0.015-2.55 2.578-24.279-24.279-1.379 1.88c-2.096 2.832-3.355 6.393-3.355 10.249 0 4.786 1.94 9.119 5.076 12.255l9.565 9.565 9.192-9.192 2.365 2.365-0.056 0.057 2.828 2.828 0.056-0.057 18.296 18.296 2.828-2.828-18.311-18.311 2.784-2.814c1.577 0.947 3.48 1.507 5.513 1.508h0zM19.273 35.691l-6.737-6.737c-2.425-2.402-3.926-5.733-3.926-9.414 0-2.138 0.506-4.158 1.406-5.946l-0.035 0.076 15.656 15.656zM40.418 15.696c1.979-2.144 4.671-3.748 7.386-4.399 2.531-0.607 4.726-0.268 6.023 0.929s1.81 3.358 1.408 5.929c-0.431 2.758-1.814 5.569-3.793 7.714-3.574 3.873-8.191 4.431-11.487 1.389s-3.11-7.689 0.464-11.562z"></path>
</svg>
