<!-- Generated by IcoMoon.io -->
<svg version="1.1" xmlns="http://www.w3.org/2000/svg" width="64" height="64" viewBox="0 0 64 64">
<title>rowing</title>
<path d="M37.821 13.28c0.689 0.45 1.533 0.719 2.439 0.719 2.485 0 4.499-2.014 4.499-4.499s-2.014-4.499-4.499-4.499c-2.485 0-4.499 2.014-4.499 4.499 0 0 0 0 0 0.001v-0c0 0.003 0 0.007 0 0.011 0 1.575 0.813 2.96 2.043 3.758l0.017 0.011z"></path>
<path d="M52.487 49.586l-6.233-6.233-9.328-2.439-13.405-13.914h7.488l4.991-6.758v14.728l4.010 4.192 3.99 0.798v-23.546h-10.146l-4.863 6.586h-9.323l-4.227-4.388-2.88 2.775 14.11 14.644-15.958 13.438 0.097 0.116h-8.809v4h29v-4h-14.216l12.667-10.667 4.327 4.491 2.577 9.842 7.454 7.454c0.543 0.543 1.293 0.879 2.121 0.879s1.578-0.336 2.121-0.879l5.657-5.657q0.006-0.006 0.013-0.013c0.859-0.886 2.057-1.44 3.384-1.452h4.894v-4zM45.931 57.172l-5.981-5.981-1.504-5.745 5.747 1.503 5.98 5.98z"></path>
</svg>
