<!-- Generated by IcoMoon.io -->
<svg version="1.1" xmlns="http://www.w3.org/2000/svg" width="64" height="64" viewBox="0 0 64 64">
<title>running</title>
<path d="M44.177 25l-3.873-7.232-7.59-2.53-0.018 0.054-11.796 3.37c-1.685 0.499-2.895 2.030-2.901 3.845v10.492h4v-10.491l9.2-2.629-4.064 12.454-0.019-0.007-3.683 10.312c-0.289 0.779-1.026 1.325-1.89 1.325-0.224 0-0.439-0.036-0.64-0.104l0.014 0.004-8.285-2.762-1.265 3.795 8.285 2.762c0.566 0.195 1.219 0.308 1.897 0.308 2.59 0 4.797-1.641 5.637-3.94l0.013-0.042 3.029-8.481 2.147 0.7 6.038 6.038c0.362 0.36 0.586 0.858 0.586 1.409 0 0.002 0 0.004 0 0.005v-0 13.343h4v-13.343c0-0.005 0-0.010 0-0.016 0-1.652-0.672-3.147-1.757-4.226l-6.033-6.033 3.348-10.26 2.409 4.335c0.523 0.927 1.501 1.543 2.622 1.543h10.412v-4z"></path>
<path d="M35.853 13.713c0.775 0.651 1.784 1.047 2.885 1.047 2.485 0 4.499-2.014 4.499-4.5s-2.014-4.5-4.499-4.5c-2.485 0-4.499 2.014-4.499 4.5 0 0 0 0 0 0.001v0c0 0.002 0 0.005 0 0.008 0 1.381 0.625 2.617 1.607 3.438l0.007 0.006z"></path>
</svg>
