<!-- Generated by IcoMoon.io -->
<svg version="1.1" xmlns="http://www.w3.org/2000/svg" width="64" height="64" viewBox="0 0 64 64">
<title>screen-mirroring</title>
<path d="M56.089 10h-48.178c-1.605 0-2.911 1.346-2.911 3v10h4v-9h46v35h-46v-8h-4v9c0 1.654 1.306 3 2.911 3h48.178c1.605 0 2.911-1.346 2.911-3v-37c0-1.654-1.306-3-2.911-3z"></path>
<path d="M17 32c0-3.314-2.686-6-6-6s-6 2.686-6 6c0 3.314 2.686 6 6 6v0c3.312-0.004 5.996-2.688 6-6v-0zM9 32c0-1.105 0.895-2 2-2s2 0.895 2 2c0 1.105-0.895 2-2 2v0c-1.105 0-2-0.895-2-2v0z"></path>
<path d="M17.481 25.765c1.558 1.613 2.519 3.813 2.519 6.237 0 2.337-0.892 4.465-2.355 6.063l0.006-0.007 3.14 2.485c1.993-2.27 3.209-5.264 3.209-8.543 0-3.4-1.308-6.495-3.448-8.809l0.008 0.009z"></path>
<path d="M23.927 43.026l3.136 2.483c3.070-3.622 4.936-8.348 4.936-13.51 0-5.354-2.008-10.238-5.311-13.942l0.018 0.021-3.074 2.561c2.709 2.994 4.366 6.984 4.366 11.361 0 4.22-1.541 8.081-4.091 11.049l0.019-0.023z"></path>
</svg>
