<!-- Generated by IcoMoon.io -->
<svg version="1.1" xmlns="http://www.w3.org/2000/svg" width="64" height="64" viewBox="0 0 64 64">
<title>scrubber</title>
<path d="M53.232 10.922c-5.415-5.418-12.898-8.77-21.163-8.77-16.525 0-29.921 13.396-29.921 29.921 0 8.265 3.351 15.748 8.769 21.163l0 0c5.415 5.418 12.898 8.77 21.163 8.77 16.525 0 29.921-13.396 29.921-29.921 0-8.265-3.351-15.748-8.769-21.163l-0-0zM32.075 58c-14.293 0-25.921-11.628-25.921-25.921s11.628-25.921 25.921-25.921 25.921 11.628 25.921 25.921-11.628 25.921-25.921 25.921z"></path>
<path d="M32.075 24.079c-4.418 0-8 3.582-8 8s3.582 8 8 8c4.418 0 8-3.582 8-8v0c-0.005-4.416-3.584-7.995-7.999-8h-0.001zM32.075 36.079c-2.209 0-4-1.791-4-4s1.791-4 4-4c2.209 0 4 1.791 4 4v0c-0.003 2.208-1.792 3.997-4 4h-0z"></path>
</svg>
