<!-- Generated by IcoMoon.io -->
<svg version="1.1" xmlns="http://www.w3.org/2000/svg" width="64" height="64" viewBox="0 0 64 64">
<title>security</title>
<path d="M34.298 2.479l-0.561-0.479h-3.475l-0.561 0.479c-7.894 6.737-24.734 8.514-24.902 8.531l-1.799 0.181v1.809c0 11.142 1.83 20.68 5.44 28.352 4.763 10.122 12.513 16.709 23.033 19.578l0.526 0.143 0.526-0.143c10.521-2.869 18.27-9.456 23.033-19.578 3.61-7.671 5.44-17.21 5.44-28.352v-1.809l-1.799-0.181c-0.169-0.017-16.995-1.782-24.902-8.531zM30 56.278c-11.851-4.208-17.877-13.748-20.727-24.278h20.727zM30 28h-21.655c-0.868-4.439-1.249-8.954-1.329-13.236 4.356-0.609 15.493-2.579 22.984-7.525zM34 56.278v-24.278h20.727c-2.85 10.53-8.877 20.070-20.727 24.278zM55.655 28h-21.655v-20.761c7.49 4.946 18.628 6.915 22.984 7.525-0.079 4.282-0.46 8.797-1.329 13.236z"></path>
</svg>
