<!-- Generated by IcoMoon.io -->
<svg version="1.1" xmlns="http://www.w3.org/2000/svg" width="64" height="64" viewBox="0 0 64 64">
<title>share-alt</title>
<path d="M50.5 43c-3.056 0.001-5.775 1.446-7.51 3.691l-0.016 0.022-20.49-11.63c0.327-0.919 0.516-1.979 0.516-3.083s-0.189-2.164-0.537-3.149l0.020 0.066 20.49-11.63c1.752 2.258 4.467 3.697 7.518 3.697 5.242 0 9.492-4.25 9.492-9.492s-4.249-9.492-9.492-9.492c-5.242 0-9.492 4.25-9.492 9.492 0 0.771 0.092 1.52 0.265 2.237l-0.013-0.065-20.84 11.828c-1.737-1.845-4.195-2.993-6.922-2.993-5.247 0-9.5 4.253-9.5 9.5s4.253 9.5 9.5 9.5c2.727 0 5.185-1.149 6.917-2.989l0.005-0.005 20.84 11.828c-0.159 0.65-0.25 1.397-0.25 2.164 0 5.246 4.253 9.499 9.499 9.499s9.499-4.253 9.499-9.499c0-5.246-4.253-9.499-9.499-9.499-0 0-0.001 0-0.001 0h0zM50.5 6c3.038 0 5.5 2.462 5.5 5.5s-2.462 5.5-5.5 5.5c-3.038 0-5.5-2.462-5.5-5.5v0c0.004-3.036 2.464-5.496 5.5-5.5h0zM13.5 37.5c-3.038 0-5.5-2.462-5.5-5.5s2.462-5.5 5.5-5.5c3.038 0 5.5 2.462 5.5 5.5v0c-0.004 3.036-2.464 5.496-5.5 5.5h-0zM50.5 58c-3.038 0-5.5-2.462-5.5-5.5s2.462-5.5 5.5-5.5c3.038 0 5.5 2.462 5.5 5.5v0c-0.004 3.036-2.464 5.496-5.5 5.5h-0z"></path>
</svg>
