<!-- Generated by IcoMoon.io -->
<svg version="1.1" xmlns="http://www.w3.org/2000/svg" width="64" height="64" viewBox="0 0 64 64">
<title>shield-slash</title>
<path d="M31.716 6h0.567c7.388 5.863 19.997 8.106 24.7 8.764-0.169 9.104-1.697 19.262-6.391 27.5l2.918 2.918c0.639-1.031 1.322-2.287 1.94-3.579l0.109-0.252c3.61-7.671 5.44-17.21 5.44-28.352v-1.809l-1.799-0.181c-0.169-0.017-16.995-1.782-24.902-8.531l-0.561-0.479h-3.475l-0.561 0.479c-3.317 2.831-8.215 4.787-12.791 6.103l3.206 3.206c4.133-1.35 8.366-3.222 11.6-5.788z"></path>
<path d="M4.914 2h-2.914v2.743l5.844 5.844c-1.836 0.296-3.001 0.419-3.044 0.424l-1.799 0.181v1.809c0 11.142 1.83 20.68 5.44 28.352 4.763 10.122 12.513 16.709 23.033 19.578l0.526 0.143 0.526-0.143c6.464-1.763 11.88-4.932 16.202-9.459l10.529 10.529h2.743v-2.914zM32 56.923c-19.929-5.757-24.678-25.683-24.984-42.159 1.070-0.15 2.551-0.382 4.285-0.72l34.593 34.593c-3.505 3.685-8.045 6.596-13.894 8.286z"></path>
</svg>
