<!-- Generated by IcoMoon.io -->
<svg version="1.1" xmlns="http://www.w3.org/2000/svg" width="64" height="64" viewBox="0 0 64 64">
<title>shop-media-two</title>
<path d="M57.235 22.904h-8.936v-7.543c-0.002-1.553-1.261-2.811-2.814-2.813h-8.68v-8.549h-21.199v8.549h-8.64c-1.552 0.002-2.81 1.26-2.813 2.812v29.923c0.002 1.552 1.26 2.81 2.812 2.813h8.938v8.188c0.002 1.552 1.26 2.81 2.812 2.813h38.519c1.553-0.002 2.811-1.26 2.814-2.812v-30.568c-0.003-1.553-1.261-2.81-2.814-2.813h-0zM32.805 8v4.549h-13.199v-4.549zM8.346 43.904v-27.164h35.76v27.164zM55.856 54.904h-35.76v-6.807h25.389c1.553-0.002 2.811-1.26 2.814-2.812v-18.188h7.557z"></path>
<path d="M21 37l12-8-12-7v15z"></path>
</svg>
