<!-- Generated by IcoMoon.io -->
<svg version="1.1" xmlns="http://www.w3.org/2000/svg" width="64" height="64" viewBox="0 0 64 64">
<title>shop-media</title>
<path d="M59 13.966h-12.904v-11.966h-28v11.966h-12.846c-1.709 0.002-3.094 1.387-3.096 3.096v41.75c0 1.711 1.386 3.098 3.096 3.1h53.75c1.709-0.002 3.094-1.387 3.096-3.096v-41.75c0-1.711-1.386-3.098-3.096-3.1h-0zM42.096 6v7.966h-20v-7.966zM57.904 57.72h-51.557v-39.561h51.557z"></path>
<path d="M46 40.153v-3.25l-20.421-12.902h-3.579v28h3.538zM26 29l14.962 9.45-14.962 8.66z"></path>
</svg>
