<!-- Generated by IcoMoon.io -->
<svg version="1.1" xmlns="http://www.w3.org/2000/svg" width="64" height="64" viewBox="0 0 64 64">
<title>shower</title>
<path d="M30.1 36.728l-2.981 2.981 2.975 5.95 2.927-3.090-2.921-5.842z"></path>
<path d="M31.997 49.467l2.787 5.575 2.927-3.090-2.788-5.575-2.927 3.090z"></path>
<path d="M54.866 25.328l-2.891 3.052 5.553 2.656 2.891-3.052-5.553-2.656z"></path>
<path d="M42.825 24.003l5.358 2.562 2.891-3.051-5.249-2.511-2.999 3z"></path>
<path d="M38.473 42.631l3.565 4.754 2.791-2.946-3.565-4.754-2.791 2.946z"></path>
<path d="M38.829 36.439l-3.617-4.823-2.857 2.857 3.684 4.911 2.791-2.946z"></path>
<path d="M37.593 29.235l4.585 3.668 2.761-2.914-4.5-3.6-2.846 2.846z"></path>
<path d="M45.313 35.411l4.59 3.672 2.761-2.914-4.59-3.672-2.761 2.914z"></path>
<path d="M43.586 12.586l-3.28 3.28-3.090-3.090c-2.525-2.525-6.012-4.086-9.865-4.086s-7.34 1.562-9.865 4.086v0c-0.043 0.043-0.084 0.086-0.126 0.129-1.563-1.113-3.51-1.779-5.613-1.779-5.383 0-9.747 4.364-9.747 9.747 0 0 0 0 0 0v0 30.126h4v-30.126c0-0 0-0 0-0 0-3.174 2.573-5.747 5.747-5.747 1.218 0 2.348 0.379 3.278 1.026l-0.019-0.012c-1.009 1.884-1.601 4.12-1.601 6.496 0 3.853 1.559 7.343 4.082 9.871l3.089 3.089-2.99 2.99 2.5 2.5 26-26zM23.126 32.489l-2.811-2.811c-1.801-1.801-2.915-4.289-2.915-7.037 0-5.496 4.455-9.951 9.951-9.951 2.748 0 5.236 1.114 7.037 2.915l2.811 2.811z"></path>
</svg>
