<!-- Generated by IcoMoon.io -->
<svg version="1.1" xmlns="http://www.w3.org/2000/svg" width="64" height="64" viewBox="0 0 64 64">
<title>slow-motion</title>
<path d="M52.506 11.5c-5.22-5.25-12.447-8.5-20.433-8.5-0.026 0-0.051 0-0.077 0h0.004c-0.002 0-0.004 0-0.006 0-1.508 0-2.989 0.114-4.435 0.334l0.162-0.020 0.586 3.958c1.109-0.173 2.388-0.271 3.69-0.271 0.001 0 0.002 0 0.003 0h-0c13.785 0 25 11.215 25 25s-11.215 25-25 25c-0.001 0-0.002 0-0.003 0-1.302 0-2.581-0.099-3.83-0.289l0.14 0.018-0.586 3.958c1.284 0.2 2.765 0.314 4.273 0.314 0.002 0 0.004 0 0.006 0h-0c16.014-0.003 28.994-12.986 28.994-29 0-8.005-3.243-15.253-8.488-20.5l0 0z"></path>
<path d="M27.639 16h-5.523v31h5.523l21.814-15.5zM26.361 43h-0.25v-23h0.25l16.186 11.5z"></path>
<path d="M3.359 36.571c0.524 3.248 1.516 6.166 2.914 8.837l-0.076-0.158 3.553-1.829c-1.14-2.164-1.994-4.678-2.427-7.333l-0.019-0.143z"></path>
<path d="M20.791 9.646l-1.791-3.574c-2.85 1.449-5.295 3.228-7.416 5.332l0.002-0.002 2.815 2.848c1.827-1.815 3.933-3.351 6.249-4.538l0.141-0.066z"></path>
<path d="M11.598 52.61c2.12 2.1 4.564 3.877 7.249 5.249l0.164 0.076 1.794-3.575c-2.458-1.249-4.566-2.782-6.396-4.596l0.002 0.002z"></path>
<path d="M9.75 20.593l-3.56-1.828c-1.322 2.514-2.312 5.433-2.812 8.516l-0.022 0.165 3.951 0.625c0.45-2.799 1.303-5.313 2.508-7.615l-0.065 0.137z"></path>
</svg>
