<!-- Generated by IcoMoon.io -->
<svg version="1.1" xmlns="http://www.w3.org/2000/svg" width="64" height="64" viewBox="0 0 64 64">
<title>smoke-free</title>
<path d="M48 39.515l4 4v-13.515h-4v9.515z"></path>
<path d="M55 30h4v15h-4v-15z"></path>
<path d="M45.431 14.257c-1.19 1.39-1.915 3.209-1.915 5.198 0 1.649 0.498 3.181 1.352 4.455l-0.018-0.029 0.746 1.119h4.807l-2.225-3.338c-0.417-0.621-0.666-1.386-0.666-2.209 0-0.992 0.361-1.9 0.96-2.599l-0.005 0.005c1.197-1.386 1.926-3.205 1.926-5.195 0-1.742-0.559-3.353-1.507-4.665l0.016 0.023-0.731-1.024h-4.572l-0.227 0.162 2.276 3.186c0.465 0.643 0.744 1.447 0.744 2.316 0 0.993-0.364 1.901-0.965 2.597l0.004-0.005z"></path>
<path d="M54.431 14.257c-1.19 1.39-1.915 3.209-1.915 5.198 0 1.649 0.498 3.181 1.352 4.455l-0.018-0.029 0.746 1.119h4.807l-2.225-3.338c-0.417-0.621-0.666-1.386-0.666-2.209 0-0.992 0.361-1.9 0.96-2.599l-0.005 0.005c1.197-1.386 1.926-3.205 1.926-5.195 0-1.742-0.559-3.353-1.507-4.665l0.016 0.023-0.731-1.024h-4.572l-0.227 0.162 2.276 3.186c0.465 0.643 0.744 1.447 0.744 2.316 0 0.993-0.364 1.901-0.965 2.597l0.004-0.005z"></path>
<path d="M32.828 30l-28-28h-2.828v2.828l25.172 25.172h-25.172v15h40.172l17 17h2.828v-2.828zM6 41v-7h25.172l7 7z"></path>
</svg>
