<!-- Generated by IcoMoon.io -->
<svg version="1.1" xmlns="http://www.w3.org/2000/svg" width="64" height="64" viewBox="0 0 64 64">
<title>sorround-sound</title>
<path d="M58 2h-52c-2.209 0-4 1.791-4 4v0 52c0 2.209 1.791 4 4 4v0h52c2.209 0 4-1.791 4-4v0-52c0-2.209-1.791-4-4-4v0zM58 58h-52v-52h52v52z"></path>
<path d="M32 21c-6.075 0-11 4.925-11 11s4.925 11 11 11c6.075 0 11-4.925 11-11v0c-0.007-6.072-4.928-10.993-10.999-11h-0.001zM32 39c-3.866 0-7-3.134-7-7s3.134-7 7-7c3.866 0 7 3.134 7 7v0c-0.004 3.864-3.136 6.996-7 7h-0z"></path>
<path d="M16.444 16.444c-3.981 3.981-6.443 9.481-6.443 15.556 0 5.4 1.946 10.346 5.174 14.174l-0.027-0.033 3.064-2.571c-2.619-3.105-4.211-7.152-4.211-11.57 0-4.971 2.015-9.471 5.272-12.728v0z"></path>
<path d="M44.727 19.273c3.257 3.257 5.272 7.757 5.272 12.728 0 4.418-1.592 8.464-4.233 11.597l0.022-0.027 3.064 2.571c3.201-3.795 5.147-8.741 5.147-14.141 0-6.075-2.462-11.575-6.443-15.556v0z"></path>
</svg>
