<!-- Generated by IcoMoon.io -->
<svg version="1.1" xmlns="http://www.w3.org/2000/svg" width="64" height="64" viewBox="0 0 64 64">
<title>sort-numeric-up</title>
<path d="M10 13.461l2.828 2.828 6.485-6.485v52.196h4v-52.196l6.485 6.485 2.828-2.828-11.314-11.314-11.314 11.314z"></path>
<path d="M49.414 25v-18h-4v4h-4v4h4v10h-5v4h14v-4h-5z"></path>
<path d="M47.464 35h-0.55c-3.837 0.004-6.946 3.113-6.95 6.95v0.55c0.004 3.837 3.113 6.946 6.95 6.95h0.55c0.002 0 0.003 0 0.005 0 1.064 0 2.071-0.24 2.971-0.67l-0.042 0.018c-0.217 2.915-2.633 5.198-5.584 5.202h-2.4v4h2.4c5.299-0.006 9.594-4.301 9.6-9.599v-6.451c-0.004-3.837-3.113-6.946-6.95-6.95h-0zM47.464 45.45h-0.55c-1.629-0.002-2.948-1.322-2.95-2.95v-0.55c0.002-1.629 1.322-2.948 2.95-2.95h0.55c1.629 0.002 2.948 1.322 2.95 2.95v0.55c-0.002 1.629-1.322 2.948-2.95 2.95h-0z"></path>
</svg>
