<!-- Generated by IcoMoon.io -->
<svg version="1.1" xmlns="http://www.w3.org/2000/svg" width="64" height="64" viewBox="0 0 64 64">
<title>spa</title>
<path d="M47.873 29.696c-0.874-9.327-5.699-17.376-12.761-22.552l-0.088-0.062-3.567-2.583-3.342 2.599c-6.842 5.355-11.379 13.384-12.029 22.488l-0.006 0.101c-1.226-0.242-2.637-0.381-4.079-0.381-0 0-0.001 0-0.001 0h-10v8.194c0 12.131 9.869 22 22 22h16c12.131 0 22-9.869 22-22v-8.194h-10c-0 0-0 0-0.001 0-1.459 0-2.885 0.142-4.265 0.413l0.139-0.023zM30.571 10.256l0.972-0.756 1.135 0.822c6.445 4.721 10.727 12.065 11.266 20.429l0.004 0.081c-5.325 2.149-9.528 6.146-11.891 11.179l-0.057 0.135c-2.425-5.178-6.639-9.181-11.829-11.273l-0.149-0.053c0.302-8.368 4.34-15.734 10.488-20.519l0.061-0.046zM30 55.5h-6c-9.925 0-18-8.075-18-18v-4.194h6c9.925 0 18 8.075 18 18zM58 37.5c0 9.925-8.075 18-18 18h-6v-4.194c0-9.925 8.075-18 18-18h6z"></path>
</svg>
