<!-- Generated by IcoMoon.io -->
<svg version="1.1" xmlns="http://www.w3.org/2000/svg" width="64" height="64" viewBox="0 0 64 64">
<title>speaker</title>
<path d="M48 2h-32c-2.209 0-4 1.791-4 4v0 52c0 2.209 1.791 4 4 4v0h32c2.209 0 4-1.791 4-4v0-52c0-2.209-1.791-4-4-4v0zM48 58h-32v-52h32v52z"></path>
<path d="M32 30c-6.627 0-12 5.373-12 12s5.373 12 12 12c6.627 0 12-5.373 12-12v0c-0.008-6.624-5.376-11.992-11.999-12h-0.001zM32 50c-4.418 0-8-3.582-8-8s3.582-8 8-8c4.418 0 8 3.582 8 8v0c-0.005 4.416-3.584 7.995-8 8h-0z"></path>
<path d="M32 25c4.418 0 8-3.582 8-8s-3.582-8-8-8c-4.418 0-8 3.582-8 8v0c0.005 4.416 3.584 7.995 8 8h0zM32 13c2.209 0 4 1.791 4 4s-1.791 4-4 4c-2.209 0-4-1.791-4-4v0c0-2.209 1.791-4 4-4v0z"></path>
<path d="M30 40h4v4h-4v-4z"></path>
</svg>
