<!-- Generated by IcoMoon.io -->
<svg version="1.1" xmlns="http://www.w3.org/2000/svg" width="64" height="64" viewBox="0 0 64 64">
<title>speak</title>
<path d="M51.338 35.871c0.053-0.107 0.106-0.214 0.157-0.32l5.505-11.561v-2.861l-0.383-0.526c-0.072-0.099-7.256-9.968-9.689-13.213-2.695-3.594-5.291-5.197-8.416-5.197-2.438 0-4.912 1.159-7.353 3.444-0.582 0.548-1.124 1.118-1.633 1.716l-0.025 0.030c-0.534-0.628-1.076-1.198-1.648-1.736l-0.011-0.010c-2.441-2.285-4.915-3.444-7.353-3.444-3.125 0-5.721 1.603-8.416 5.197-2.434 3.245-9.617 13.113-9.689 13.213l-0.383 0.526v2.861l5.505 11.56q0.077 0.162 0.158 0.323c1.462 2.866 3.624 5.193 6.267 6.813l0.074 0.042c2.559 1.575 5.659 2.508 8.977 2.508 0.004 0 0.008 0 0.012 0h13.019c0.003 0 0.007 0 0.011 0 3.318 0 6.418-0.933 9.052-2.551l-0.075 0.043c2.716-1.662 4.878-3.989 6.296-6.76l0.044-0.095zM22.99 41.234c-4.958 0-9.572-2.809-11.752-7.156-0.041-0.081-0.081-0.163-0.121-0.248l-5.117-10.745v-0.656c1.525-2.094 7.179-9.85 9.272-12.641 2.377-3.169 3.971-3.597 5.216-3.597 2.889 0 5.926 3.555 6.851 4.922l0.594 0.886h3.133l0.594-0.886c0.857-1.277 3.954-4.922 6.851-4.922 1.245 0 2.839 0.427 5.216 3.597 2.093 2.79 7.747 10.547 9.272 12.641v0.656l-5.118 10.747c-0.039 0.083-0.079 0.165-0.12 0.245-2.181 4.348-6.795 7.157-11.753 7.157z"></path>
<path d="M38.054 14.106l-1.259 1.424c-0.029 0.033-3.039 3.304-7.295 3.304-4.27 0-7.271-3.277-7.295-3.304l-1.259-1.424-10.455 8.336 5.549 11.193 1.432-0.205c3.614-0.544 7.784-0.855 12.027-0.855s8.413 0.311 12.49 0.911l-0.462-0.056 1.432 0.205 5.549-11.193zM40.656 29.278c-3.35-0.447-7.223-0.702-11.155-0.702s-7.805 0.255-11.603 0.75l0.448-0.048-2.836-5.72 5.105-4.070c1.697 1.378 4.83 3.347 8.886 3.347s7.189-1.969 8.886-3.347l5.105 4.070z"></path>
<path d="M42.846 47.928v0 4c6.37-0.008 11.733-4.309 13.352-10.165l0.023-0.097-3.865-1.036c-1.167 4.233-4.98 7.292-9.509 7.298h-0.001z"></path>
<path d="M60.085 42.701c-2.041 7.608-8.995 13.227-17.239 13.227v0 4c10.091 0 18.605-6.878 21.103-16.192z"></path>
</svg>
