<!-- Generated by IcoMoon.io -->
<svg version="1.1" xmlns="http://www.w3.org/2000/svg" width="64" height="64" viewBox="0 0 64 64">
<title>speaker-group</title>
<path d="M58.5 16h-12.5v4h12v38h-12v4h12.5c1.933 0 3.5-1.567 3.5-3.5v0-39c0-1.933-1.567-3.5-3.5-3.5v0z"></path>
<path d="M38 2h-32c-2.209 0-4 1.791-4 4v0 52c0 2.209 1.791 4 4 4v0h32c2.209 0 4-1.791 4-4v0-52c0-2.209-1.791-4-4-4v0zM38 58h-32v-52h32v52z"></path>
<path d="M22 30c-6.627 0-12 5.373-12 12s5.373 12 12 12c6.627 0 12-5.373 12-12v0c-0.008-6.624-5.376-11.992-11.999-12h-0.001zM22 50c-4.418 0-8-3.582-8-8s3.582-8 8-8c4.418 0 8 3.582 8 8v0c-0.005 4.416-3.584 7.995-8 8h-0z"></path>
<path d="M55 42c-0.006-4.968-4.032-8.994-8.999-9h-0.001v4c2.761 0 5 2.239 5 5s-2.239 5-5 5v0 4c4.968-0.006 8.994-4.032 9-8.999v-0.001z"></path>
<path d="M22 25c4.418 0 8-3.582 8-8s-3.582-8-8-8c-4.418 0-8 3.582-8 8v0c0.005 4.416 3.584 7.995 8 8h0zM22 13c2.209 0 4 1.791 4 4s-1.791 4-4 4c-2.209 0-4-1.791-4-4v0c0-2.209 1.791-4 4-4v0z"></path>
<path d="M20 40h4v4h-4v-4z"></path>
</svg>
