<!-- Generated by IcoMoon.io -->
<svg version="1.1" xmlns="http://www.w3.org/2000/svg" width="64" height="64" viewBox="0 0 64 64">
<title>star-half</title>
<path d="M16.942 56.738c-0.132 0.069-0.288 0.109-0.454 0.109-0.551 0-0.997-0.447-0.997-0.997 0-0.055 0.005-0.11 0.013-0.163l-0.001 0.006 2.571-16.668-11.877-11.973c-0.179-0.181-0.29-0.43-0.29-0.704 0-0.496 0.361-0.907 0.834-0.986l0.006-0.001 16.647-2.705 8.606-13.129v-7.296l-10.986 16.76-14.909 2.423c-1.87 0.307-3.37 1.62-3.943 3.355l-0.010 0.035c-0.054 0.159-0.107 0.359-0.147 0.564l-0.005 0.032v1.909c0.201 1.008 0.682 1.882 1.358 2.561l-0-0 10.456 10.541-2.264 14.674c-0.038 0.231-0.059 0.496-0.059 0.767 0 2.76 2.237 4.997 4.997 4.997 0.823 0 1.599-0.199 2.283-0.551l-0.028 0.013 13.256-6.687v-4.48z"></path>
</svg>
