<!-- Generated by IcoMoon.io -->
<svg version="1.1" xmlns="http://www.w3.org/2000/svg" width="64" height="64" viewBox="0 0 64 64">
<title>star-circle</title>
<path d="M45.642 23.905l-6.891-1.12-3.194-6.207c-0.679-1.299-2.016-2.17-3.557-2.17s-2.878 0.871-3.546 2.148l-0.011 0.022-3.194 6.207-6.891 1.12c-1.916 0.32-3.358 1.966-3.358 3.948 0 1.099 0.443 2.094 1.16 2.817l-0-0 4.916 4.956-1.064 6.899c-0.030 0.183-0.047 0.395-0.047 0.61 0 2.209 1.791 4 4 4 0.657 0 1.277-0.158 1.824-0.439l-0.023 0.011 6.233-3.144 6.233 3.144c0.524 0.27 1.145 0.429 1.802 0.429 2.209 0 4-1.791 4-4 0-0.215-0.017-0.427-0.050-0.633l0.003 0.023-1.064-6.899 4.916-4.956c0.717-0.723 1.16-1.718 1.16-2.817 0-1.983-1.442-3.628-3.335-3.945l-0.023-0.003zM38.663 34.242l1.372 8.894-8.034-4.053-8.034 4.053 1.372-8.894-6.338-6.389 8.882-1.444 4.118-8.002 4.118 8.002 8.882 1.444z"></path>
<path d="M53.232 10.922c-5.415-5.418-12.898-8.77-21.163-8.77-16.525 0-29.921 13.396-29.921 29.921 0 8.265 3.351 15.748 8.769 21.163l0 0c5.415 5.418 12.898 8.77 21.163 8.77 16.525 0 29.921-13.396 29.921-29.921 0-8.265-3.351-15.748-8.769-21.163l-0-0zM32.075 58c-14.293 0-25.921-11.628-25.921-25.921s11.628-25.921 25.921-25.921 25.921 11.628 25.921 25.921-11.628 25.921-25.921 25.921z"></path>
</svg>
