<!-- Generated by IcoMoon.io -->
<svg version="1.1" xmlns="http://www.w3.org/2000/svg" width="64" height="64" viewBox="0 0 64 64">
<title>swimming</title>
<path d="M27.913 17.188c0.248-0.118 0.538-0.186 0.845-0.186 0.543 0 1.035 0.215 1.396 0.566l-0-0 4.11 4.395-12.757 11.256c1.194 0.238 2.038 0.63 2.766 0.97 0.973 0.454 1.741 0.812 3.44 0.812s2.467-0.358 3.44-0.812l0.019-0.009c1.98-0.934 3.685-2.067 5.2-3.408l-0.023 0.020 3.381-2.983 6.613 7.072c0.772-0.142 1.32-0.396 1.953-0.691 0.595-0.303 1.296-0.581 2.025-0.794l0.088-0.022-17.408-18.614c-1.088-1.084-2.589-1.753-4.247-1.753-0.919 0-1.791 0.206-2.57 0.575l0.037-0.016-8.068 3.765 1.692 3.625z"></path>
<path d="M51 16.5c0 2.485-2.015 4.5-4.5 4.5s-4.5-2.015-4.5-4.5c0-2.485 2.015-4.5 4.5-4.5s4.5 2.015 4.5 4.5z"></path>
<path d="M53.428 47c-2.587 0-3.998 0.658-5.132 1.188-0.973 0.454-1.741 0.812-3.44 0.812s-2.467-0.358-3.44-0.812c-1.134-0.529-2.545-1.188-5.132-1.188s-3.998 0.659-5.131 1.188c-0.973 0.454-1.741 0.812-3.44 0.812s-2.467-0.358-3.44-0.812c-1.134-0.529-2.545-1.188-5.131-1.188s-3.998 0.659-5.131 1.188c-0.973 0.454-1.741 0.812-3.44 0.812s-2.467-0.358-3.44-0.812c-1.134-0.529-2.545-1.188-5.131-1.188v4c1.699 0 2.467 0.358 3.44 0.812 1.134 0.529 2.545 1.188 5.131 1.188s3.998-0.659 5.131-1.188c0.973-0.454 1.741-0.812 3.44-0.812s2.467 0.358 3.44 0.812c1.134 0.529 2.545 1.188 5.131 1.188s3.998-0.659 5.131-1.188c0.973-0.454 1.741-0.812 3.44-0.812s2.467 0.358 3.44 0.812c1.134 0.529 2.545 1.188 5.132 1.188s3.998-0.658 5.132-1.188c0.973-0.454 1.741-0.812 3.44-0.812s2.468 0.358 3.44 0.812c1.134 0.529 2.545 1.188 5.132 1.188v-4c-1.699 0-2.468-0.358-3.44-0.812-1.134-0.529-2.545-1.188-5.132-1.188z"></path>
<path d="M61.662 38.995c-1.468-0.045-2.197-0.384-3.102-0.807-1.083-0.505-2.422-1.127-4.794-1.182-0.111-0.003-0.222-0.005-0.338-0.005s-0.227 0.003-0.338 0.005c-2.372 0.055-3.711 0.677-4.794 1.182-0.906 0.423-1.635 0.762-3.103 0.807-0.109 0.003-0.221 0.005-0.338 0.005s-0.229-0.002-0.338-0.005c-1.468-0.045-2.197-0.384-3.102-0.807-1.083-0.505-2.422-1.127-4.794-1.182-0.111-0.003-0.222-0.005-0.338-0.005s-0.226 0.003-0.338 0.005c-2.372 0.055-3.711 0.677-4.794 1.182-0.906 0.423-1.635 0.762-3.102 0.807-0.109 0.003-0.22 0.005-0.338 0.005s-0.229-0.002-0.338-0.005c-1.468-0.045-2.197-0.384-3.102-0.807-1.083-0.505-2.422-1.127-4.794-1.182-0.079-0.002-0.161-0.003-0.244-0.004l0 0c-0.032-0-0.062-0.002-0.094-0.002-0.116 0-0.226 0.003-0.338 0.005-2.372 0.055-3.711 0.677-4.794 1.182-0.906 0.423-1.635 0.762-3.102 0.807-0.109 0.003-0.22 0.005-0.338 0.005s-0.229-0.002-0.338-0.005c-1.467-0.045-2.197-0.384-3.102-0.807-1.083-0.505-2.422-1.127-4.794-1.182-0.111-0.003-0.222-0.005-0.338-0.005v4c1.699 0 2.467 0.358 3.44 0.812 1.134 0.529 2.545 1.188 5.131 1.188s3.998-0.659 5.131-1.188c0.973-0.454 1.741-0.812 3.44-0.812s2.467 0.358 3.44 0.812c1.134 0.529 2.545 1.188 5.131 1.188s3.998-0.659 5.131-1.188c0.973-0.454 1.741-0.812 3.44-0.812s2.467 0.358 3.44 0.812c1.134 0.529 2.545 1.188 5.132 1.188s3.998-0.658 5.132-1.188c0.973-0.454 1.741-0.812 3.44-0.812s2.468 0.358 3.44 0.812c1.134 0.529 2.545 1.188 5.132 1.188v-4c-0.117 0-0.229-0.002-0.338-0.005z"></path>
</svg>
