<!-- Generated by IcoMoon.io -->
<svg version="1.1" xmlns="http://www.w3.org/2000/svg" width="64" height="64" viewBox="0 0 64 64">
<title>tennis-ball</title>
<path d="M53.213 10.787c-5.428-5.422-12.924-8.776-21.202-8.776-16.569 0-30 13.431-30 30 0 8.279 3.354 15.775 8.776 21.203l-0-0c5.428 5.422 12.924 8.776 21.202 8.776 16.569 0 30-13.431 30-30 0-8.279-3.353-15.774-8.776-21.203l0 0zM35.324 13.466c1.155-2.208 1.436-4.57 0.839-7.131 11.008 1.779 19.723 10.494 21.502 21.502-2.561-0.597-4.922-0.316-7.131 0.839-3.261 1.705-5.671 5.1-8.003 8.384-1.99 2.803-4.048 5.701-6.561 7.489-2.668 1.899-5.57 2.325-9.13 1.34-2.928-0.809-5.426-3.261-5.448-3.282-0.025-0.025-2.478-2.537-3.282-5.447-0.984-3.56-0.558-6.461 1.34-9.13 1.788-2.513 4.686-4.571 7.489-6.561 3.283-2.331 6.679-4.742 8.384-8.003zM32 58c-14.336 0-26-11.664-26-26 0-14.306 11.615-25.95 25.91-25.999 1.978 5.261-1.399 8.027-7.285 12.206-5.922 4.205-13.293 9.438-10.369 20.018 1.095 3.963 4.179 7.080 4.309 7.21s3.247 3.214 7.21 4.309c1.367 0.407 2.94 0.647 4.566 0.661l0.008 0c7.612-0 11.894-6.031 15.444-11.030 4.179-5.886 6.945-9.263 12.206-7.285-0.049 14.295-11.693 25.91-25.999 25.91z"></path>
</svg>
