<!-- Generated by IcoMoon.io -->
<svg version="1.1" xmlns="http://www.w3.org/2000/svg" width="64" height="64" viewBox="0 0 64 64">
<title>tennis</title>
<path d="M18 10c0-4.418-3.582-8-8-8s-8 3.582-8 8c0 4.418 3.582 8 8 8v0c4.416-0.005 7.995-3.584 8-8v-0.001zM6 10c0-2.209 1.791-4 4-4s4 1.791 4 4c0 2.209-1.791 4-4 4v0c-2.208-0.003-3.997-1.792-4-4v-0z"></path>
<path d="M55.081 8.929c-3.010-3.028-7.174-4.906-11.777-4.918h-0.002c-0.026-0-0.052-0-0.078-0-4.686 0-9.262 1.996-12.892 5.626-3.697 3.697-6.719 9.316-8.081 15.030-0.317 1.248-0.559 2.728-0.677 4.243l-0.006 0.093c-0.154 2.385-0.843 4.58-1.947 6.506l0.039-0.073c-0.82 1.404-1.759 2.615-2.836 3.689l-0 0-9.911 10.151c-1.549 1.554-1.713 3.152-1.578 4.22 0.157 1.24 0.816 2.471 1.905 3.561s2.321 1.749 3.561 1.906c0.178 0.024 0.385 0.037 0.594 0.038h0c1.024 0 2.344-0.335 3.634-1.625l9.91-10.15c1.155-1.157 2.469-2.155 3.906-2.959l0.090-0.046c1.758-0.965 3.828-1.593 6.031-1.74l0.045-0.002c1.617-0.126 3.105-0.373 4.547-0.735l-0.187 0.040c5.693-1.374 11.301-4.403 15.001-8.104v0c3.65-3.65 5.648-8.256 5.626-12.97-0.013-4.605-1.891-8.769-4.918-11.778l-0.001-0.001zM12.194 54.555c-0.493 0.49-0.782 0.453-0.891 0.44-0.341-0.043-0.791-0.322-1.234-0.766s-0.722-0.893-0.765-1.234c-0.014-0.11-0.051-0.401 0.447-0.898l7.922-8.114 2.451 2.451zM22.951 43.603l-2.496-2.496c0.968-1.071 1.843-2.261 2.593-3.535l0.055-0.102c0.834 1.468 2.017 2.651 3.44 3.461l0.045 0.023c-1.375 0.805-2.566 1.681-3.656 2.665l0.019-0.017zM51.546 30.85c-3.154 3.154-8.178 5.853-13.111 7.044-4.909 1.185-9.022 0.711-11.001-1.269-4.22-4.221-1.115-17.316 5.728-24.16 3.133-3.133 6.687-4.439 10.024-4.439 3.536 0.002 6.74 1.427 9.069 3.732l-0.001-0.001c4.456 4.456 5.723 12.662-0.707 19.092z"></path>
</svg>
