<!-- Generated by IcoMoon.io -->
<svg version="1.1" xmlns="http://www.w3.org/2000/svg" width="64" height="64" viewBox="0 0 64 64">
<title>text-strike</title>
<path d="M2 2v60h60v-60zM58 58h-52v-52h52z"></path>
<path d="M43.096 36h-10.968l4.757 3.218c0.665 0.454 1.117 1.179 1.194 2.013l0.001 0.011c0.009 0.079 0.014 0.171 0.014 0.263 0 0.72-0.295 1.371-0.77 1.839l-0 0c-0.484 0.478-1.484 1.28-2.738 1.28h-13v6.75h13c2.715 0 5.372-1.146 7.479-3.226 1.716-1.693 2.779-4.044 2.779-6.643 0-0.311-0.015-0.619-0.045-0.923l0.003 0.038c-0.163-1.748-0.778-3.326-1.725-4.65l0.020 0.029z"></path>
<path d="M38.262 32h15.738v-4h-21.65l-5.422-3.668c-1.524-1.031-1.216-2.594-1.085-3.049 0.159-0.55 0.706-1.83 2.37-1.906 0.808-0.002 14.785 0 14.785 0l0.002-6.75s-14.897-0.001-14.974 0.002c-4.119 0.138-7.521 2.802-8.669 6.785-0.891 3.091-0.227 6.231 1.685 8.586h-11.043v4h28.262z"></path>
</svg>
