<!-- Generated by IcoMoon.io -->
<svg version="1.1" xmlns="http://www.w3.org/2000/svg" width="64" height="64" viewBox="0 0 64 64">
<title>toilet</title>
<path d="M58.702 5.779c-1.786-2.307-4.556-3.779-7.669-3.779-0.011 0-0.023 0-0.034 0h-1.546l-7 27h-37.452v4c0 5.81 2.327 11.016 6.552 14.657 3.998 3.445 9.484 5.343 15.448 5.343h4.765l-1 9h25.235v-30.745l4.426-17.073c0.202-0.738 0.318-1.585 0.318-2.459 0-2.251-0.769-4.322-2.058-5.966l0.016 0.021zM52 58h-16.765l1-9h-9.235c-10.598 0-18-6.579-18-16h43zM56.554 13.178l-4.102 15.822h-5.868l5.912-22.804c2.463 0.684 4.241 2.906 4.241 5.544 0 0.511-0.067 1.007-0.192 1.479l0.009-0.040z"></path>
</svg>
