<!-- Generated by IcoMoon.io -->
<svg version="1.1" xmlns="http://www.w3.org/2000/svg" width="64" height="64" viewBox="0 0 64 64">
<title>translate</title>
<path d="M28.775 44.603l1.803-3.832c-1.742-1.737-3.394-3.562-4.95-5.468l-0.102-0.129q1.985-2.677 3.699-5.495c2.974-4.798 5.462-10.334 7.181-16.199l0.121-0.48h6.474v-4h-18v-7h-4v7h-19v4h7.471c2.126 7.323 5.175 13.719 9.084 19.484l-0.153-0.239c0.851-1.051 1.713-2.179 2.571-3.379-2.969-4.564-5.462-9.824-7.209-15.412l-0.122-0.454h18.717c-3.716 12.191-10.568 21.151-15.83 26.64-6.124 6.388-11.494 9.607-11.547 9.639l1.019 1.721 1.018 1.722c0.234-0.138 5.809-3.466 12.299-10.21q1.922-1.998 3.68-4.116c1.873 2.243 3.761 4.267 5.754 6.184l0.025 0.024z"></path>
<path d="M46.285 25h-4.57l-15.543 34h4.398l4.571-10h17.716l4.571 10h4.398zM41 45h-4.029l7.029-15.377 7.029 15.377z"></path>
</svg>
