<!-- Generated by IcoMoon.io -->
<svg version="1.1" xmlns="http://www.w3.org/2000/svg" width="64" height="64" viewBox="0 0 64 64">
<title>tv-dvr</title>
<path d="M14 25h4v4h-4v-4z"></path>
<path d="M14 35h4v4h-4v-4z"></path>
<path d="M22 25h28v4h-28v-4z"></path>
<path d="M22 35h28v4h-28v-4z"></path>
<path d="M59 11h-21.109l9-9h-5.657l-9 9h-0.405l-9-9h-5.657l9 9h-21.171c-1.657 0-3 1.343-3 3v0 37c0 1.657 1.343 3 3 3v0h13v8h28v-8h13c1.657 0 3-1.343 3-3v0-37c0-1.657-1.343-3-3-3v0zM42 58h-20v-4h20zM58 50h-52v-35h52z"></path>
</svg>
