<!-- Generated by IcoMoon.io -->
<svg version="1.1" xmlns="http://www.w3.org/2000/svg" width="64" height="64" viewBox="0 0 64 64">
<title>tv-slash</title>
<path d="M59 11h-21.109l9-9h-5.657l-9 9h-0.405l-9-9h-5.657l9 9h-6.843l4 4h34.671v34.671l3.278 3.278c0.449-0.519 0.722-1.2 0.722-1.946 0-0.001 0-0.002 0-0.003v0-37c0-1.657-1.343-3-3-3v0z"></path>
<path d="M2 2v2.742l6.258 6.258h-3.258c-1.657 0-3 1.343-3 3v0 37c0 1.657 1.343 3 3 3v0h13v8h28v-8h5.258l8 8h2.742v-2.914l-57.086-57.086zM42 58h-20v-4h20zM47.258 50h-41.258v-35h6.258z"></path>
</svg>
