<!-- Generated by IcoMoon.io -->
<svg version="1.1" xmlns="http://www.w3.org/2000/svg" width="64" height="64" viewBox="0 0 64 64">
<title>voice-over-record</title>
<path d="M42.79 13.105c1.74 2.137 2.794 4.893 2.794 7.896 0 2.992-1.047 5.741-2.795 7.898l0.018-0.023 3.117 2.5c2.279-2.812 3.659-6.433 3.659-10.377 0-3.956-1.389-7.588-3.705-10.435l0.024 0.030z"></path>
<path d="M54.019 4.050l-3.125 2.519c3.179 3.907 5.105 8.944 5.105 14.431 0 5.47-1.913 10.492-5.108 14.435l0.034-0.043 3.125 2.513c3.703-4.584 5.945-10.483 5.945-16.905 0-6.443-2.256-12.358-6.021-17l0.039 0.050z"></path>
<path d="M43.45 42.958l-9.102-5.917 3.431-6.29c0.768-1.384 1.22-3.034 1.221-4.79v-9.96c0-7.732-6.268-14-14-14s-14 6.268-14 14v0 9.96c0.001 1.756 0.454 3.406 1.247 4.842l-0.026-0.052 3.431 6.291-9.102 5.916c-2.755 1.803-4.55 4.875-4.55 8.365 0 0.007 0 0.013 0 0.019v-0.001 10.659h46v-10.659c0-0.005 0-0.012 0-0.018 0-3.491-1.795-6.562-4.512-8.342l-0.038-0.023zM44 58h-38v-6.659c0-0.003 0-0.007 0-0.010 0-2.095 1.077-3.938 2.707-5.006l0.023-0.014 12.207-7.936-5.205-9.543c-0.46-0.831-0.732-1.821-0.732-2.875v-9.958c0-5.523 4.477-10 10-10s10 4.477 10 10v0 9.96c-0.001 1.054-0.272 2.044-0.748 2.906l0.016-0.031-5.205 9.54 12.207 7.935c1.653 1.081 2.73 2.924 2.73 5.018 0 0.005 0 0.009 0 0.014v-0.001z"></path>
</svg>
