<!-- Generated by IcoMoon.io -->
<svg version="1.1" xmlns="http://www.w3.org/2000/svg" width="64" height="64" viewBox="0 0 64 64">
<title>voice-over-slash</title>
<path d="M42.807 28.875l3.117 2.5c2.279-2.812 3.659-6.434 3.659-10.377 0-3.956-1.389-7.588-3.705-10.435l0.024 0.030-3.112 2.51c1.74 2.138 2.795 4.894 2.795 7.897 0 2.993-1.047 5.742-2.796 7.899l0.018-0.023z"></path>
<path d="M50.926 35.392l3.125 2.513c3.703-4.584 5.945-10.483 5.945-16.905 0-6.443-2.256-12.358-6.021-17l0.039 0.050-3.125 2.519c3.179 3.907 5.105 8.944 5.105 14.431 0 5.47-1.913 10.492-5.108 14.436l0.034-0.043z"></path>
<path d="M25 6c5.52 0.006 9.994 4.48 10 9.999v9.961c-0.001 0.238-0.015 0.471-0.043 0.7l0.003-0.029 3.241 3.244c0.504-1.155 0.798-2.501 0.799-3.915v-9.96c0-0.002 0-0.005 0-0.007 0-7.728-6.265-13.992-13.992-13.992-4.035 0-7.67 1.708-10.224 4.439l-0.007 0.008 2.829 2.829c1.832-2.016 4.464-3.276 7.391-3.276 0.001 0 0.003 0 0.004 0h-0z"></path>
<path d="M4.914 2h-2.914v2.742l9.158 9.158c-0.1 0.63-0.158 1.356-0.158 2.095 0 0.002 0 0.003 0 0.005v-0 9.96c0.001 1.756 0.454 3.406 1.247 4.842l-0.026-0.052 3.431 6.291-9.102 5.916c-2.755 1.803-4.55 4.875-4.55 8.365 0 0.007 0 0.013 0 0.019v-0.001 10.659h46v-11.258l11.258 11.258h2.742v-2.914zM44 58h-38v-6.659c0-0.003 0-0.007 0-0.010 0-2.095 1.077-3.938 2.707-5.006l0.023-0.014 12.207-7.936-5.205-9.543c-0.46-0.831-0.732-1.821-0.732-2.875v-8.215l29 29z"></path>
</svg>
