<!-- Generated by IcoMoon.io -->
<svg version="1.1" xmlns="http://www.w3.org/2000/svg" width="64" height="64" viewBox="0 0 64 64">
<title>wc</title>
<path d="M16.5 17.478c4.274 0 7.739-3.465 7.739-7.739s-3.465-7.739-7.739-7.739c-4.274 0-7.739 3.465-7.739 7.739v0c0.005 4.272 3.467 7.734 7.739 7.739h0zM16.5 6c2.065 0 3.739 1.674 3.739 3.739s-1.674 3.739-3.739 3.739c-2.065 0-3.739-1.674-3.739-3.739v0c0.002-2.064 1.675-3.737 3.739-3.739h0z"></path>
<path d="M22 19h-11c-3.312 0.004-5.996 2.688-6 6v19h4v18h15v-18h4v-19c-0.004-3.312-2.688-5.996-6-6h-0zM24 40h-4v18h-7v-18h-4v-15c0.001-1.104 0.896-1.999 2-2h11c1.104 0.001 1.999 0.896 2 2v0z"></path>
<path d="M46.261 17.478c4.274 0 7.739-3.465 7.739-7.739s-3.465-7.739-7.739-7.739c-4.274 0-7.739 3.465-7.739 7.739v0c0.005 4.272 3.467 7.734 7.739 7.739h0.001zM46.261 6c2.065 0 3.739 1.674 3.739 3.739s-1.674 3.739-3.739 3.739c-2.065 0-3.739-1.674-3.739-3.739v0c0.002-2.064 1.675-3.737 3.739-3.739h0z"></path>
<path d="M53.22 24.169c-1.078-3.035-3.925-5.169-7.271-5.169-3.281 0-6.082 2.052-7.19 4.942l-0.018 0.053-7.741 20.642v5.363h8v12h13v-12h8v-6.338zM56 46h-8v12h-5v-12h-8v-0.637l7.486-19.963c0.541-1.414 1.887-2.4 3.463-2.4 1.607 0 2.975 1.025 3.485 2.458l0.008 0.026 6.558 18.855z"></path>
</svg>
