<!-- Generated by IcoMoon.io -->
<svg version="1.1" xmlns="http://www.w3.org/2000/svg" width="64" height="64" viewBox="0 0 64 64">
<title>weights</title>
<path d="M61.107 45.334l-3.704-3.704 3.641-3.641-8.654-8.654-10.195 10.195-17.561-17.561 10.195-10.195-8.654-8.654-3.641 3.641-3.704-3.704c-0.543-0.542-1.293-0.877-2.121-0.877s-1.578 0.335-2.121 0.877l-11.693 11.693c-0.543 0.543-0.879 1.293-0.879 2.121s0.336 1.578 0.879 2.121l3.704 3.704-3.641 3.641 8.654 8.654 10.195-10.195 17.561 17.561-10.195 10.195 8.654 8.654 3.641-3.641 3.704 3.704c0.543 0.543 1.293 0.879 2.121 0.879s1.578-0.336 2.121-0.879l11.693-11.693c0.543-0.543 0.879-1.293 0.879-2.121s-0.336-1.578-0.879-2.121v0zM6.429 16.871l10.279-10.279 2.997 2.997-10.279 10.279zM11.611 29.335l-2.997-2.997 17.561-17.561 2.997 2.997zM38.638 54.737l-0.813 0.813-2.997-2.997 17.561-17.561 2.997 2.997-0.813 0.813zM47.292 57.734l-2.997-2.997 10.279-10.279 2.997 2.997z"></path>
</svg>
