<!-- Generated by IcoMoon.io -->
<svg version="1.1" xmlns="http://www.w3.org/2000/svg" width="64" height="64" viewBox="0 0 64 64">
<title>weightlifitng</title>
<path d="M36.5 19.5c0 2.485-2.015 4.5-4.5 4.5s-4.5-2.015-4.5-4.5c0-2.485 2.015-4.5 4.5-4.5s4.5 2.015 4.5 4.5z"></path>
<path d="M50 2v7h-36v-7h-12v18h12v-7h3.16l0.94 11.286 9.9 4.95v12.764h-9.892l-0.927 16.678h4.006l0.704-12.678h20.216l0.704 12.678h4.006l-0.927-16.678h-9.892v-12.764l9.9-4.95 0.94-11.286h3.16v7h12v-18zM10 9v7h-4v-10h4zM42.1 21.714l-10.1 5.050-10.1-5.050-0.726-8.714h21.653zM58 16h-4v-10h4z"></path>
</svg>
