<!-- Generated by IcoMoon.io -->
<svg version="1.1" xmlns="http://www.w3.org/2000/svg" width="64" height="64" viewBox="0 0 64 64">
<title>wifi-lock</title>
<path d="M58.563 12.141v-3.094c-0.005-3.881-3.15-7.027-7.031-7.031h-0.501c-3.881 0.005-7.027 3.15-7.031 7.031v3.094h-3v7.359c0 5.799 4.701 10.5 10.5 10.5s10.5-4.701 10.5-10.5v0-7.359zM48 9.047c0.002-1.673 1.358-3.029 3.031-3.031h0.5c1.673 0.002 3.029 1.358 3.031 3.031v3.094h-6.563zM58 19.5c0 3.59-2.91 6.5-6.5 6.5s-6.5-2.91-6.5-6.5v0-3.359h13z"></path>
<path d="M43.473 42.128c-3.291-1.933-7.249-3.074-11.473-3.074s-8.182 1.141-11.582 3.133l0.108-0.059-6.080-8.683c4.998-3.116 11.067-4.963 17.567-4.963 3.009 0 5.925 0.396 8.7 1.138l-0.235-0.053-2.92-4.672c-1.67-0.262-3.597-0.412-5.559-0.412h-0c-0.017 0-0.038-0-0.058-0-7.335 0-14.176 2.117-19.944 5.772l0.153-0.090-6.594-9.417c7.451-4.858 16.571-7.747 26.366-7.747 0.027 0 0.055 0 0.082 0h-0.004c1.761 0 3.501 0.092 5.214 0.272l-0.214-0.018v-4.017q-2.488-0.236-5-0.236c-0 0-0.001 0-0.002 0-11.212 0-21.611 3.483-30.173 9.426l0.175-0.115v4.332l27.558 39.358h4.883l19.606-28h-4.883zM32 58.513l-9.169-13.095c2.644-1.488 5.804-2.365 9.169-2.365s6.525 0.877 9.265 2.414l-0.096-0.049z"></path>
</svg>
