<!-- Generated by IcoMoon.io -->
<svg version="1.1" xmlns="http://www.w3.org/2000/svg" width="64" height="64" viewBox="0 0 64 64">
<title>wifi-signal-1</title>
<path d="M29.722 60h4.555l28.722-41.020v-3.43l-0.027-0.019c-8.631-6.109-19.375-9.765-30.973-9.765s-22.342 3.656-31.142 9.879l0.169-0.114-0.027 0.019v3.43zM22.358 42.509c2.777-1.579 6.101-2.509 9.642-2.509s6.865 0.931 9.74 2.561l-0.098-0.051-9.642 13.77zM32 9.766c0.024-0 0.052-0 0.080-0 10.009 0 19.328 2.957 27.13 8.044l-0.191-0.117-15.073 21.526c-3.424-2.024-7.545-3.22-11.945-3.22s-8.521 1.196-12.056 3.28l0.111-0.061-15.073-21.526c7.611-4.971 16.929-7.927 26.938-7.927 0.028 0 0.056 0 0.084 0h-0.004z"></path>
</svg>
