<!-- Generated by IcoMoon.io -->
<svg version="1.1" xmlns="http://www.w3.org/2000/svg" width="64" height="64" viewBox="0 0 64 64">
<title>wifi-signal-off</title>
<path d="M62.973 15.532c-8.629-6.109-19.37-9.766-30.966-9.766-3.749 0-7.409 0.382-10.942 1.11l0.349-0.060 2.698 3.571c2.368-0.395 5.097-0.62 7.879-0.62 0.003 0 0.007 0 0.010 0h-0c0.024-0 0.052-0 0.080-0 10.009 0 19.328 2.957 27.13 8.044l-0.191-0.117-14.131 20.182 2.535 3.354 15.579-22.249v-3.43z"></path>
<path d="M10.318 2v2.737l3.234 4.28c-4.781 1.759-8.917 3.957-12.694 6.628l0.169-0.113-0.027 0.019v3.43l28.722 41.020h4.555l8.563-12.229 7.73 10.229h2.873v-2.832l-40.181-53.168zM40.306 44.417l-8.306 11.862-27.018-38.586c3.191-2.087 6.859-3.892 10.744-5.23l0.351-0.105z"></path>
</svg>
