<!-- Generated by IcoMoon.io -->
<svg version="1.1" xmlns="http://www.w3.org/2000/svg" width="64" height="64" viewBox="0 0 64 64">
<title>wifi-signal-lock-3</title>
<path d="M47.906 33.563l-15.906 22.716-2.791-3.986 13.942-20.913c-1.127-0.802-2.1-1.716-2.937-2.747l-0.021-0.027-13.447 20.17-3.012-4.302 13.783-21.079c-0.328-1.151-0.516-2.473-0.516-3.839 0-0.005 0-0.009 0-0.014v0.001-3.495c-1.5-0.179-3.236-0.282-4.997-0.282-0.001 0-0.002 0-0.003 0h0c-0.020-0-0.044-0-0.068-0-8.724 0-16.852 2.553-23.677 6.953l0.173-0.104-3.446-4.921c7.611-4.971 16.929-7.927 26.938-7.927 0.028 0 0.056 0 0.084 0h-0.004q2.509 0 4.982 0.247v-4.016q-2.48-0.229-4.982-0.231c-11.598 0.001-22.342 3.657-31.142 9.879l0.169-0.114-0.027 0.019v3.43l28.722 41.020h4.555l18.205-26h-1.026c-0.003 0-0.007 0-0.011 0-1.257 0-2.477-0.159-3.641-0.459l0.101 0.022zM10.723 25.893c3.749-2.399 8.124-4.229 12.806-5.235l0.261-0.047-8.286 12.11zM17.956 36.222l11.19-16.355q1.419-0.1 2.854-0.101 1.525 0 3.035 0.115l-13.772 21.063z"></path>
<path d="M58.563 12.141v-3.094c-0.005-3.881-3.15-7.027-7.031-7.031h-0.501c-3.881 0.005-7.027 3.15-7.031 7.031v3.094h-3v7.359c0 5.799 4.701 10.5 10.5 10.5s10.5-4.701 10.5-10.5v0-7.359zM48 9.047c0.002-1.673 1.358-3.029 3.031-3.031h0.5c1.673 0.002 3.029 1.358 3.031 3.031v3.094h-6.563zM58 19.5c0 3.59-2.91 6.5-6.5 6.5s-6.5-2.91-6.5-6.5v0-3.359h13z"></path>
</svg>
