<!-- Generated by IcoMoon.io -->
<svg version="1.1" xmlns="http://www.w3.org/2000/svg" width="64" height="64" viewBox="0 0 64 64">
<title>wifi-signal-4</title>
<path d="M62.973 15.532c-8.631-6.109-19.375-9.765-30.973-9.765s-22.342 3.656-31.142 9.879l0.169-0.114-0.027 0.019v3.43l28.722 41.020h4.555l28.722-41.020v-3.43zM50.416 13.271l-23.67 35.505-3.009-4.298 21.623-32.905c2.069 0.573 3.75 1.152 5.388 1.817l-0.332-0.119zM35.8 9.91c2.051 0.156 3.901 0.406 5.717 0.754l-0.313-0.050-19.936 30.338-3.317-4.737zM15.495 32.708l-2.85-4.070 12.246-18.369c1.818-0.274 3.951-0.451 6.117-0.492l0.048-0.001zM19.339 11.386l-9.157 13.735-5.201-7.427c4.125-2.696 8.905-4.858 14.009-6.228l0.348-0.079zM32 56.279l-2.791-3.987 24.914-37.372c1.943 0.965 3.545 1.887 5.089 2.891l-0.194-0.119z"></path>
</svg>
