<!-- Generated by IcoMoon.io -->
<svg version="1.1" xmlns="http://www.w3.org/2000/svg" width="64" height="64" viewBox="0 0 64 64">
<title>wifi-signal-3</title>
<path d="M62.973 15.532c-8.631-6.109-19.375-9.765-30.973-9.765s-22.342 3.656-31.142 9.879l0.169-0.114-0.027 0.019v3.43l28.722 41.020h4.555l28.722-41.020v-3.43zM23.734 44.474l15.703-24.016c2.064 0.391 3.835 0.866 5.552 1.456l-0.279-0.083-17.963 26.945zM21.262 40.944l-3.307-4.722 11.19-16.355q1.419-0.1 2.854-0.101 1.525 0 3.035 0.115zM15.504 32.721l-4.781-6.828c3.749-2.399 8.124-4.229 12.806-5.235l0.261-0.047zM29.209 52.293l19.309-28.963c1.867 0.853 3.428 1.709 4.921 2.66l-0.162-0.096-21.277 30.386zM55.572 22.614c-6.675-4.296-14.826-6.848-23.572-6.848s-16.897 2.553-23.747 6.953l0.175-0.105-3.446-4.921c7.637-4.971 16.982-7.927 27.018-7.927s19.381 2.956 27.212 8.046l-0.194-0.118z"></path>
</svg>
