<!-- Generated by IcoMoon.io -->
<svg version="1.1" xmlns="http://www.w3.org/2000/svg" width="64" height="64" viewBox="0 0 64 64">
<title>wifi-signal-lock-4</title>
<path d="M42.566 25.046c0.072 0.116 0.144 0.231 0.22 0.343-0.076-0.113-0.148-0.228-0.22-0.343z"></path>
<path d="M43.717 26.574c0.495 0.542 1.038 1.026 1.626 1.45l0.031 0.021c-0.619-0.446-1.161-0.929-1.649-1.463l-0.007-0.008z"></path>
<path d="M43.717 26.574c-0.324-0.355-0.629-0.741-0.907-1.148l-0.023-0.036c0.301 0.443 0.607 0.83 0.938 1.193l-0.008-0.008z"></path>
<path d="M47.926 33.568l-1.175 1.646-14.75 21.065-2.791-3.987 13.942-20.913c-1.127-0.802-2.1-1.716-2.937-2.747l-0.021-0.027-13.447 20.17-3.009-4.298 13.802-21.003c-0.342-1.175-0.539-2.524-0.539-3.919 0-0.004 0-0.009 0-0.013v0.001-2.532l-15.733 23.941-3.317-4.737 19.032-28.031 1.464-2.027-1.464-0.158q-2.48-0.229-4.982-0.231c-11.598 0.001-22.342 3.657-31.142 9.879l0.169-0.113-0.027 0.019v3.43l28.722 41.020h4.555l18.205-26h-1.026c-0.004 0-0.008 0-0.012 0-1.25 0-2.463-0.158-3.621-0.454l0.101 0.022zM15.495 32.708l-2.85-4.070 12.246-18.369c1.818-0.274 3.951-0.451 6.117-0.492l0.048-0.001zM19.339 11.386l-9.157 13.735-5.201-7.427c4.125-2.696 8.905-4.858 14.009-6.228l0.348-0.079z"></path>
<path d="M62 19.5v-7.359h-3.438v-3.094c-0.005-3.881-3.15-7.027-7.031-7.031h-0.501c-3.881 0.005-7.027 3.15-7.031 7.031v3.094h-3v7.359c0 5.799 4.701 10.5 10.5 10.5s10.5-4.701 10.5-10.5v0zM51.5 26c-3.588-0.004-6.496-2.912-6.5-6.5v-3.359h13v3.359c-0.004 3.588-2.912 6.496-6.5 6.5h-0zM51.031 6.016h0.5c1.673 0.002 3.029 1.358 3.031 3.031v3.094h-6.563v-3.094c0.002-1.673 1.358-3.029 3.031-3.031h0z"></path>
</svg>
