<!-- Generated by IcoMoon.io -->
<svg version="1.1" xmlns="http://www.w3.org/2000/svg" width="64" height="64" viewBox="0 0 64 64">
<title>wifi-signal-2</title>
<path d="M62.973 15.532c-8.631-6.109-19.375-9.765-30.973-9.765s-22.342 3.656-31.142 9.879l0.169-0.114-0.027 0.019v3.43l28.722 41.020h4.555l28.722-41.020v-3.43zM23.728 44.465l9.495-14.674c1.961 0.080 3.817 0.334 5.612 0.75l-0.202-0.040-11.902 18.25zM21.252 40.929l-4.783-6.831c3.399-2.098 7.415-3.555 11.716-4.094l0.146-0.015zM29.203 52.284l13.422-20.58c1.895 0.725 3.511 1.53 5.037 2.468l-0.13-0.074-15.531 22.181zM49.83 30.815c-5.071-3.17-11.231-5.049-17.83-5.049s-12.759 1.88-17.973 5.133l0.143-0.083-9.188-13.122c7.637-4.971 16.982-7.927 27.018-7.927s19.381 2.956 27.212 8.046l-0.194-0.118z"></path>
</svg>
