<!-- Generated by IcoMoon.io -->
<svg version="1.1" xmlns="http://www.w3.org/2000/svg" width="64" height="64" viewBox="0 0 64 64">
<title>wifi-signal-lock-0</title>
<path d="M32 56.279l-27.018-38.586c7.611-4.971 16.929-7.927 26.938-7.927 0.028 0 0.056 0 0.084 0h-0.004q2.518 0 5 0.249v-4.016q-2.489-0.231-5-0.233c-11.598 0-22.342 3.657-31.142 9.879l0.169-0.113-0.027 0.019v3.43l28.722 41.020h4.555l18.205-26h-4.883z"></path>
<path d="M58.563 12.141v-3.094c-0.001-2.536-1.344-4.758-3.357-5.994l-0.031-0.017q-0.29-0.176-0.598-0.325t-0.63-0.267c-0.716-0.271-1.544-0.427-2.408-0.427-0.002 0-0.005 0-0.007 0h-0.5c-3.881 0.005-7.027 3.15-7.031 7.031v3.094h-3v7.359c0 5.799 4.701 10.5 10.5 10.5s10.5-4.701 10.5-10.5v0-7.359zM48 9.047c0.002-1.673 1.358-3.029 3.031-3.031h0.5c1.673 0.002 3.029 1.358 3.031 3.031v3.094h-6.563zM58 19.5c0 3.59-2.91 6.5-6.5 6.5s-6.5-2.91-6.5-6.5v0-3.359h13z"></path>
</svg>
