<!-- Generated by IcoMoon.io -->
<svg version="1.1" xmlns="http://www.w3.org/2000/svg" width="64" height="64" viewBox="0 0 64 64">
<title>wifi-signal-lock-2</title>
<path d="M47.906 33.563l-15.906 22.716-2.797-3.995 13.734-21.059c-1.723-1.271-3.13-2.867-4.152-4.707l-0.038-0.075c-2.030-0.431-4.362-0.677-6.752-0.677-6.597 0-12.755 1.88-17.968 5.133l0.143-0.083-9.188-13.122c7.611-4.971 16.929-7.927 26.938-7.927 0.028 0 0.056 0 0.084 0h-0.004q2.518 0 5 0.249v-4.016q-2.489-0.231-5-0.233c-11.598 0-22.342 3.657-31.142 9.879l0.169-0.113-0.027 0.019v3.43l28.722 41.020h4.555l18.205-26h-1.026c-0.003 0-0.007 0-0.011 0-1.257 0-2.477-0.159-3.641-0.459l0.101 0.022zM16.469 34.098c3.399-2.098 7.415-3.555 11.716-4.094l0.146-0.015-7.079 10.94zM23.728 44.465l9.495-14.674c1.961 0.082 3.815 0.339 5.608 0.757l-0.202-0.040-11.899 18.244z"></path>
<path d="M58.563 12.141v-3.094c-0.005-3.881-3.15-7.027-7.031-7.031h-0.501c-3.881 0.005-7.027 3.15-7.031 7.031v3.094h-3v7.359c0 5.799 4.701 10.5 10.5 10.5s10.5-4.701 10.5-10.5v0-7.359zM48 9.047c0.002-1.673 1.358-3.029 3.031-3.031h0.5c1.673 0.002 3.029 1.358 3.031 3.031v3.094h-6.563zM58 19.5c0 3.59-2.91 6.5-6.5 6.5s-6.5-2.91-6.5-6.5v0-3.359h13z"></path>
</svg>
